<svg xmlns="http://www.w3.org/2000/svg" xml:space="preserve" version="1.1" viewBox="0 0 1.727 1.905" x="0px" y="0px"><g><path d="M0.216 0.89l0.648 0 0.647 0 -0.647 -0.46 -0.648 0.46zm0.595 -0.55l0 -0.078 0 -0.21c0,-0.029 0.024,-0.052 0.053,-0.052l0.314 0c0.029,0 0.052,0.023 0.052,0.052l0 0.21c0,0.029 -0.023,0.052 -0.052,0.052l-0.262 0 0 0.026 0.786 0.557 0 0 0 0 0.001 0.001 0 0 0 0 0.001 0.001 0 0 0.001 0 0 0.001 0 0 0.001 0 0 0 0.001 0.001 0 0 0 0 0.001 0.001 0 0 0.001 0 0 0.001 0.001 0 0 0 0.001 0.001 0 0 0 0 0.001 0.001 0 0 0 0 0.001 0.001 0 0 0.001 0.001 0 0 0 0 0.001 0.001 0 0 0 0.001 0.001 0 0 0 0 0.001 0 0 0.001 0.001 0 0 0 0 0.001 0.001 0 0 0 0.001 0.001 0 0 0 0 0.001 0 0 0.001 0.001 0 0 0 0 0 0.001 0.001 0 0 0.001 0 0 0 0.001 0.001 0 0 0 0 0.001 0 0.001 0 0 0.001 0.001 0 0 0 0 0 0.001 0 0 0.001 0.001 0 0 0 0.001 0 0 0 0 0.001 0.001 0 0 0 0.001 0 0.001 0 0 0 0.001 0 0 0.001 0 0 0.001 0 0 0 0.001 0 0 0 0.001 0 0.001 0 0 0.001 0.001 0 0 0 0 0 0.001 0 0 0 0 0 0.002 0 0 0 0.001 0 0 0 0.001 0 0 0 0.001 0 0.001 0 0 0 0 0 0.001 0 0 0 0.001 0 0.911c0,0.029 -0.023,0.052 -0.052,0.052l-0.572 0c-0.016,0 -0.031,-0.007 -0.04,-0.018 -0.065,-0.066 -0.13,-0.166 -0.177,-0.272 -0.008,-0.018 -0.015,-0.036 -0.022,-0.054 -0.007,0.018 -0.014,0.036 -0.022,0.054 -0.047,0.106 -0.112,0.206 -0.177,0.272 -0.01,0.011 -0.024,0.018 -0.04,0.018l-0.573 0c-0.029,0 -0.052,-0.023 -0.052,-0.052l0 -0.911c0,-0.019 0.01,-0.036 0.025,-0.045l0.786 -0.557zm0.105 -0.131l0.209 0 0 -0.104 -0.209 0 0 0.104zm0 1.106c0,0.077 0.026,0.17 0.065,0.258 0.039,0.088 0.091,0.17 0.144,0.227l0.498 0 0 -0.805 -0.707 0 0 0.32zm-0.811 -0.32l0 0.805 0.498 0c0.052,-0.057 0.104,-0.139 0.143,-0.227 0.04,-0.088 0.065,-0.181 0.065,-0.258l0 -0.32 -0.706 0z"></path></g></svg>
