<svg xmlns="http://www.w3.org/2000/svg" viewBox="0 0 64 64" x="0px" y="0px"><path d="M32,61a1,1,0,0,1-.5-.13A49.34,49.34,0,0,1,6,17a1,1,0,0,1,1-1c3.21,0,5.82-2.07,5.82-4.62v-.27a1,1,0,0,1,.63-.93L31.64,3.07a1,1,0,0,1,.72,0l18.19,7.11a1,1,0,0,1,.63.93v.27C51.18,13.93,53.79,16,57,16a1,1,0,0,1,1,1A49.34,49.34,0,0,1,32.5,60.87,1,1,0,0,1,32,61ZM8,18A47.29,47.29,0,0,0,32,58.84,47.29,47.29,0,0,0,56,18c-3.67-.41-6.55-3-6.79-6.15L32,5.07,14.8,11.8C14.56,15,11.68,17.54,8,18Z"></path><path d="M32,56.34a.94.94,0,0,1-.53-.16C15.1,45.89,10.82,31,10.11,20.35a1,1,0,0,1,.65-1,9.18,9.18,0,0,0,5.69-5.64,1,1,0,0,1,.59-.63l14.6-5.71a1,1,0,0,1,.72,0L47,13.07a1,1,0,0,1,.59.63,9.18,9.18,0,0,0,5.69,5.64,1,1,0,0,1,.65,1c-.71,10.66-5,25.54-21.36,35.83A.94.94,0,0,1,32,56.34ZM12.16,20.93A42.3,42.3,0,0,0,32,54.15,42.3,42.3,0,0,0,51.84,20.93a11.18,11.18,0,0,1-6-6.16L32,9.37l-13.8,5.4A11.18,11.18,0,0,1,12.16,20.93Z"></path></svg>
