<svg xmlns="http://www.w3.org/2000/svg" version="1.1" x="0px" y="0px" viewBox="0 0 100 100" enable-background="new 0 0 100 100" xml:space="preserve"><g display="none"><rect x="-16.249" y="-136.34" width="1206.405" height="1215.22"></rect></g><g><g><path d="M20.357,38.017c-6.457,0-11.71,5.253-11.71,11.71v16.82c0,3.107,2.283,5.691,5.26,6.163v15.607    c0,3.44,2.799,6.24,6.24,6.24h8.02c3.441,0,6.24-2.799,6.24-6.24V58.359v-7.234h11.057c0.129,0,0.255-0.015,0.383-0.019    c0.872-0.032,1.717-0.168,2.52-0.406v2.768h6.188c4.333,0,7.928-3.173,8.61-7.321h28.8v-4H62.903    c-1.102-3.563-4.427-6.159-8.347-6.159h-6.188v2.028h-2.52h-11.89H20.357z M51.367,38.989h3.188c3.163,0,5.736,2.573,5.736,5.743    c0,3.163-2.573,5.736-5.736,5.736h-3.188V38.989z M48.367,41.017v6.496c-0.89,0.391-1.87,0.612-2.903,0.612H31.408v40.191    c0,1.787-1.454,3.24-3.24,3.24h-8.02c-1.787,0-3.24-1.453-3.24-3.24v-18.53h-2.02c-1.787,0-3.24-1.453-3.24-3.24v-16.82    c0-4.803,3.907-8.71,8.71-8.71H48.367z"></path><path d="M12.806,25.568c0.182,6.072,5.166,10.959,11.282,10.959c6.115,0,11.1-4.887,11.282-10.959h0.749l4.023-10.358    c0-1.354-1.106-2.417-2.373-2.417c-0.221,0-0.447,0.032-0.674,0.101c-0.479,0.146-1.005,0.227-1.592,0.227    c-5.71,0-5.71-7.678-11.416-7.678c-5.71,0-5.71,7.678-11.416,7.678c-0.587,0-1.114-0.081-1.593-0.227    c-0.226-0.069-0.452-0.101-0.673-0.101c-1.267,0-2.373,1.063-2.373,2.417l4.023,10.358H12.806z M24.088,33.527    c-4.462,0-8.102-3.541-8.282-7.959H32.37C32.19,29.986,28.55,33.527,24.088,33.527z M12.673,16.122    c4.36,0,6.529-2.918,8.113-5.048c1.419-1.909,2.071-2.63,3.303-2.63c1.228,0,1.88,0.721,3.298,2.628    c1.584,2.131,3.754,5.051,8.118,5.051c0.37,0,0.734-0.022,1.092-0.067l-2.53,6.513H14.11l-2.53-6.513    C11.938,16.099,12.303,16.122,12.673,16.122z"></path><polygon points="22.787,19.698 24.088,18.397 25.39,19.698 27.511,17.577 26.21,16.276 27.511,14.975 25.39,12.853 24.088,14.155     22.787,12.853 20.666,14.975 21.967,16.276 20.666,17.577   "></polygon></g></g></svg>
