<svg height='100px' width='100px'  fill="#000000" xmlns="http://www.w3.org/2000/svg" version="1.1" x="0px" y="0px" viewBox="0 0 66 66" style="enable-background:new 0 0 66 66;" xml:space="preserve"><g><g><path d="M7.1,12.9c0-0.6,0.5-1,1-1l12.3,0.2c0.6,0,1,0.5,1,1c0,0.6-0.5,1-1,1h0L8.1,13.9    C7.5,13.9,7.1,13.4,7.1,12.9z"></path><path d="M3.7,12.1c0.4,0.4,0.4,1,0,1.4c-0.4,0.4-1,0.4-1.4,0c-0.4-0.4-0.4-1,0-1.4C2.7,11.8,3.3,11.8,3.7,12.1z"></path><path d="M15.7,28.9c0.4,0.4,0.4,1,0,1.4c-0.4,0.4-1,0.4-1.4,0c-0.4-0.4-0.4-1,0-1.4    C14.7,28.5,15.3,28.5,15.7,28.9z"></path><path d="M14,5.9c0-0.6,0.5-1,1-1l12.3,0.2c0.5,0,1,0.5,1,1c0,0.5-0.4,1-1,1c0,0,0,0,0,0L15,6.9    C14.4,6.9,14,6.5,14,5.9z"></path><path d="M23.7,37.5C23.7,37.5,23.7,37.5,23.7,37.5l-12.3-0.2c-0.5,0-1-0.5-1-1c0-0.6,0.5-1,1-1l12.3,0.2    c0.5,0,1,0.5,1,1C24.7,37.1,24.2,37.5,23.7,37.5z"></path><path d="M20.1,28.7l12.3,0.2c0.5,0,1,0.5,1,1c0,0.5-0.5,1-1,1c0,0,0,0,0,0l-12.3-0.2c-0.6,0-1-0.5-1-1    C19.1,29.1,19.5,28.7,20.1,28.7C20.1,28.7,20.1,28.7,20.1,28.7z"></path><path d="M20.4,49.6c0,0.5-0.5,1-1,1c0,0,0,0,0,0L7.1,50.4c-0.6,0-1-0.5-1-1c0-0.5,0.4-1,1-1l12.3,0.2    C20,48.6,20.4,49.1,20.4,49.6z"></path><path d="M2.7,48.6c0.4,0.4,0.4,1,0,1.4c-0.4,0.4-1,0.4-1.4,0c-0.4-0.4-0.4-1,0-1.4C1.7,48.3,2.4,48.3,2.7,48.6z"></path><path d="M5.6,37c-0.4-0.4-0.4-1,0-1.4c0.4-0.4,1.1-0.4,1.4,0c0.4,0.4,0.4,1,0,1.4C6.6,37.4,6,37.4,5.6,37z"></path><path d="M9.2,6.6c-0.4-0.4-0.4-1,0-1.4c0.4-0.4,1-0.4,1.4,0c0.4,0.4,0.4,1,0,1.4C10.2,7,9.6,7,9.2,6.6z"></path><path d="M53.2,16.4c-0.8-0.8-0.8-2,0-2.7c0.7-0.7,2-0.7,2.7,0c0.7,0.7,0.7,2,0,2.7C55.1,17.2,53.9,17.1,53.2,16.4    z"></path><path d="M63.4,30.2c-4.2,2.1-7.1-2-9.2-5c-0.9-1.2-2.1-3-2.7-3c-0.2,0-0.6,0.3-1.1,1.5C48,28.6,51,36.2,47.7,41.9    l4.3,6c1.3,1.7,1.3,4.1,0,5.8l-7,9.9c-1,1.4-2.8,1.7-4.2,1c-1.6-0.9-2.2-2.9-1.2-4.5l4.9-8.3l-6.2-7.7c-2,0.5-7.9,1.9-13.4,0.8    c-0.5-0.1-0.9-0.6-0.8-1.2c0.1-0.5,0.6-0.9,1.2-0.8c6,1.2,13-0.9,13-0.9c0.4-0.1,0.8,0,1.1,0.3l7,8.8c0.3,0.3,0.3,0.8,0.1,1.1    l-5.3,8.9c-0.4,0.7-0.1,1.4,0.5,1.7c0.6,0.3,1.2,0.1,1.6-0.4l7-9.9c0.7-1.1,0.7-2.5,0-3.5l-4.7-6.6c-0.2-0.4-0.3-0.8,0-1.2    c3.4-5,0.2-12.9,2.9-18.5c0.5-1,1.3-2.5,2.8-2.6c1.7-0.2,3,1.7,4.5,3.8c2.4,3.3,4.2,5.5,6.7,4.3c3-1-5-18.5-6.4-21.4    c-1.1,0.1-2,0.2-2.9,0.3c-18.4,2.7-7,18.3-30,17.8c-0.5,0-1-0.5-1-1c0-0.5,0.5-1,1-1c6.9,0.2,9-9.7,12-15C39.4,0.5,47.7,1,48.1,1    c0.6,0,0.4,0.2,5.2,4.3c1-0.1,2.2-0.3,3.4-0.3c0.4,0,0.8,0.2,1,0.5C60.1,10.5,68.3,27.8,63.4,30.2z"></path></g></g></svg>
