<svg height='100px' width='100px' xmlns="http://www.w3.org/2000/svg" version="1.1" x="0px" y="0px" viewBox="0 0 50 50" enable-background="new 0 0 50 50"><g transform="scale(-1 1) translate(-50 0)"><path d="M43.631,41.736c-0.897,0-1.316-0.158-1.801-0.34c-0.255-0.096-0.528-0.197-0.873-0.275c0.939-1.541,1.327-3.76,1.327-5.793  c0-0.311-0.252-0.563-0.563-0.563H28.257V14.089h6.288c0.311,0,0.563-0.252,0.563-0.563V9.115c0-0.311-0.252-0.563-0.563-0.563  h-6.288V7.702c0-0.311-0.252-0.563-0.563-0.563s-0.563,0.252-0.563,0.563v27.063H7.359c-0.45,0-0.796,0.08-1.057,0.247  c-0.32,0.202-0.496,0.526-0.496,0.911c0,1.477,3.126,4.184,6.118,5.805c-0.093,0.004-0.189,0.008-0.294,0.008  c-0.899,0-1.319-0.158-1.805-0.34c-0.514-0.193-1.097-0.41-2.199-0.41c-0.311,0-0.563,0.252-0.563,0.563s0.252,0.563,0.563,0.563  c0.899,0,1.318,0.156,1.805,0.338c0.514,0.193,1.097,0.412,2.2,0.412s1.686-0.219,2.2-0.412c0.486-0.182,0.906-0.338,1.805-0.338  c0.898,0,1.318,0.156,1.803,0.338c0.514,0.193,1.096,0.412,2.198,0.412c1.102,0,1.684-0.219,2.196-0.412  c0.485-0.182,0.904-0.338,1.802-0.338c0.898,0,1.317,0.156,1.803,0.338c0.513,0.193,1.096,0.412,2.197,0.412  s1.684-0.219,2.197-0.412c0.485-0.182,0.904-0.338,1.802-0.338s1.317,0.156,1.802,0.338c0.514,0.193,1.096,0.412,2.197,0.412  s1.684-0.219,2.197-0.412c0.485-0.182,0.904-0.338,1.802-0.338c0.897,0,1.316,0.156,1.801,0.338  c0.513,0.193,1.095,0.412,2.196,0.412c0.311,0,0.563-0.252,0.563-0.563S43.942,41.736,43.631,41.736z M28.257,9.677h5.726v3.287  h-5.726V9.677z M37.437,41.396c-0.485,0.182-0.904,0.34-1.802,0.34c-0.897,0-1.317-0.158-1.802-0.34  c-0.513-0.193-1.095-0.41-2.197-0.41s-1.684,0.217-2.197,0.41c-0.485,0.182-0.905,0.34-1.802,0.34c-0.898,0-1.317-0.158-1.803-0.34  c-0.514-0.193-1.095-0.41-2.198-0.41c-1.102,0-1.684,0.217-2.197,0.41c-0.485,0.182-0.904,0.34-1.801,0.34  c-0.898,0-1.317-0.158-1.803-0.34c-0.514-0.193-1.096-0.41-2.198-0.41c-0.976,0-1.543,0.17-2.018,0.343  c-2.116-0.929-4.688-2.757-6.003-4.28c-0.649-0.75-0.682-1.076-0.705-1.09c0.026-0.015,0.141-0.068,0.45-0.068H41.15  c-0.068,1.932-0.504,3.949-1.464,5.096c-0.018,0-0.033,0-0.052,0C38.532,40.986,37.95,41.203,37.437,41.396z"></path><path d="M10.622,33.193h15.007c0.311,0,0.563-0.252,0.563-0.563V12.269c0-0.243-0.156-0.459-0.387-0.535  c-0.231-0.074-0.484,0.006-0.629,0.201L10.169,32.296c-0.126,0.172-0.145,0.398-0.049,0.588S10.41,33.193,10.622,33.193z   M25.066,13.98v18.088H11.735L25.066,13.98z"></path><path d="M29.605,16.784c-0.241,0.069-0.407,0.29-0.407,0.54V32.63c0,0.311,0.252,0.563,0.563,0.563h9.569  c0.204,0,0.393-0.111,0.492-0.29c0.099-0.179,0.093-0.397-0.015-0.571l-9.569-15.305C30.105,16.813,29.848,16.714,29.605,16.784z   M30.323,19.285l7.992,12.783h-7.992V19.285z"></path></g></svg>
