<svg height='100px' width='100px' xmlns="http://www.w3.org/2000/svg" version="1.1" x="0px" y="0px" viewBox="0 0 100 100" enable-background="new 0 0 100 100" xml:space="preserve"><g><path d="M48.619,26.133c0.219,0,0.403-0.184,0.403-0.403v-1.396h-3.319v1.396c0,0.219,0.184,0.403,0.403,0.403H48.619z "></path><path fill="none" d="M48.857,77.485v4.306h10.999l-0.067-5.978C54.352,75.501,50.886,76.5,48.857,77.485z"></path><path fill="none" d="M35.452,66.35c0.004,0,0.007,0,0.01,0c0.006,0,0.012,0.003,0.018,0.004c0.558,0.044,1.136,0.102,1.73,0.173 c0,0,0.001,0,0.002,0c0.003,0,0.005,0.001,0.007,0.001c3.136,0.372,6.774,1.136,10.98,2.446c0.027,0.01,0.056,0.014,0.082,0.026 c0.437,0.137,0.872,0.272,1.321,0.42c0.119-0.268,0.236-0.535,0.351-0.802c-0.376-7.928-2.377-33.995-12.578-43.888 c-2.319-2.25-4.944-3.51-7.815-3.759c1.369,5.406,5.553,26.481-6.036,46.828c2.025-0.844,4.954-1.573,9.023-1.573 c0.904,0,1.88,0.047,2.899,0.125C35.448,66.351,35.45,66.35,35.452,66.35z"></path><path fill="none" d="M35.072,14.6l0.284-0.939l-0.309,0.925C35.063,14.595,35.072,14.6,35.072,14.6z"></path><path fill="none" d="M57.812,73.798c0.914,0,1.9,0.047,2.932,0.128c0.001,0,0.002-0.001,0.004-0.001c0.003,0,0.007,0,0.01,0 c0.005,0,0.009,0.003,0.014,0.003c0.504,0.04,1.026,0.092,1.559,0.154h0c0.004,0,0.008,0,0.01,0c0.005,0,0.009,0.003,0.015,0.003 c3.604,0.417,7.86,1.336,12.902,3.032c-0.259-6.583-1.98-34.498-12.618-44.814c-2.319-2.25-4.944-3.51-7.815-3.759 c1.225,4.837,4.695,22.222-2.889,40.404c0.044,1.097,0.056,1.791,0.059,1.972c0.005,0.32-0.148,0.622-0.408,0.808 c-0.26,0.187-0.594,0.235-0.897,0.127c-0.017-0.006-0.032-0.011-0.049-0.017c-0.568,1.178-1.18,2.357-1.849,3.533 C50.815,74.528,53.744,73.798,57.812,73.798z"></path><path fill="none" d="M45.867,76.424v-6.11c-2.848-0.815-5.403-1.362-7.678-1.695v13.173h7.678v-2.345 c-0.057,0.01-0.111,0.037-0.169,0.037c-0.203,0-0.409-0.063-0.584-0.194c-0.418-0.311-0.518-0.897-0.227-1.33 C45.23,77.449,45.547,76.936,45.867,76.424z"></path><path fill="none" d="M45.577,16.579c0.014-0.091-0.003-0.207-0.019-0.297c-0.429-0.617-0.231-1.456-0.147-1.81 c0.141-0.611,0.142-1.225,0.143-1.818c0-0.173,0.037-0.335,0.105-0.481h-0.274c-0.062,0.034-0.128,0.064-0.196,0.087 c-0.31,0.107-0.643,0.084-0.937-0.063c0.01,0.015-0.134,0.054-0.228,0.079c-0.36,0.097-0.905,0.242-1.503-0.005 c-0.075-0.03-0.141-0.064-0.203-0.098h-1.444c-0.166,0.034-0.325,0.051-0.483,0.065l-0.181,0.018 c-0.37,0.051-0.708,0.035-1.007,0.019l-0.216-0.01c-0.083,0.004-0.155,0.017-0.245,0.032c-0.247,0.043-0.588,0.103-0.978,0.02 c-0.161-0.035-0.303-0.089-0.426-0.145h-0.138c-0.159,0.081-0.329,0.136-0.503,0.16c-0.218,0.032-0.434,0.014-0.636-0.044 c-0.003,0.002-0.006,0.005-0.009,0.007v0.494l0.061,0.155c0.174,0.113,0.36,0.278,0.492,0.524c0.158,0.289,0.201,0.601,0.131,0.898 c0.028,0.535-0.215,0.889-0.398,1.079l-0.124,0.532c0.075,0.323,0.051,0.661-0.07,0.972l0.2,1.045 c0.016,0.088,0.021,0.177,0.013,0.265h0.107c0.511-0.405,1.208-0.501,1.854-0.216c0.135,0.058,0.26,0.131,0.373,0.216l2.91-0.042 l0.199-0.062c0.397-0.129,0.943-0.304,1.509-0.193c0.151,0.029,0.278,0.079,0.381,0.134c0.776-0.294,1.39-0.04,1.757,0.114 c0.036,0.014,0.072,0.031,0.106,0.05h0.107v-0.366C45.421,17.406,45.528,16.836,45.577,16.579z"></path><rect x="45.478" y="87.573" fill="none" width="0.41" height="0.184"></rect><rect x="37.355" y="87.573" fill="none" width="0.41" height="0.184"></rect><rect x="53.634" y="87.573" fill="none" width="0.41" height="0.184"></rect><path fill="none" d="M67.214,83.265c-0.176,0.299-0.497,0.482-0.844,0.482h-3.94c-0.004,0-0.008,0-0.01,0h-1.564 c-0.003,0-0.007,0-0.011,0H35.615c-0.004,0-0.007,0-0.01,0h-6.346c-0.541,0-0.978-0.438-0.978-0.978v-0.573h-4.714 c-0.401,0-0.762-0.245-0.91-0.619c-0.431-1.093-0.742-2.058-0.93-2.681H10.791v0.482c5.33,1.42,6.193,5.807,6.333,7.281 l6.139,5.368c17.842,1.495,31.617,1.339,40.954-0.46c11.388-1.068,14.608-6.489,15.467-8.772c0.013-0.035,0.029-0.071,0.046-0.104 H67.525C67.442,82.858,67.34,83.051,67.214,83.265z M56,88.736c0,0.541-0.438,0.978-0.978,0.978h-2.366 c-0.404,0-0.749-0.244-0.898-0.593c-0.15,0.349-0.495,0.593-0.898,0.593h-2.366c-0.349,0-0.64-0.192-0.813-0.467 c-0.173,0.274-0.465,0.467-0.813,0.467h-2.366c-0.307,0-0.57-0.15-0.749-0.372c-0.179,0.221-0.442,0.372-0.749,0.372h-2.366 c-0.484,0-0.866-0.356-0.946-0.817c-0.079,0.461-0.462,0.817-0.946,0.817h-2.366c-0.541,0-0.978-0.438-0.978-0.978v-2.141 c0-0.541,0.438-0.978,0.978-0.978h2.366c0.484,0,0.866,0.356,0.946,0.817c0.079-0.461,0.462-0.817,0.946-0.817H43 c0.307,0,0.57,0.15,0.749,0.372c0.179-0.221,0.442-0.372,0.749-0.372h2.366c0.349,0,0.64,0.192,0.813,0.467 c0.173-0.274,0.465-0.467,0.813-0.467h2.366c0.404,0,0.749,0.244,0.898,0.593c0.15-0.349,0.495-0.593,0.898-0.593h2.366 c0.541,0,0.978,0.438,0.978,0.978V88.736z"></path><rect x="49.471" y="87.573" fill="none" width="0.41" height="0.184"></rect><rect x="41.612" y="87.573" fill="none" width="0.41" height="0.184"></rect><path d="M90.187,80.736H66.884c-0.419,0-0.795,0.276-0.93,0.674c-0.001,0.002-0.048,0.138-0.166,0.381h-2.4l-0.058-5.62 c3.518,0.505,7.691,1.51,12.622,3.256c0.303,0.108,0.637,0.06,0.897-0.127c0.26-0.186,0.413-0.488,0.408-0.808 c-0.02-1.438-0.639-35.355-13.255-47.592c-3.047-2.955-6.599-4.408-10.49-4.356c-0.31,0.005-0.598,0.157-0.779,0.409 c-0.181,0.251-0.231,0.574-0.137,0.868c0.068,0.211,5.354,17.275-0.946,36.304c-0.375-4.973-1.159-12.038-2.794-19.12V28.066 c1.188-0.122,2.121-1.116,2.121-2.335v-2.374c0-0.541-0.438-0.978-0.978-0.978h-1.143v-16.4C48.857,5.438,48.42,5,47.879,5h-1.034 c-0.541,0-0.978,0.438-0.978,0.978v4.238h-0.839c-0.128,0-0.252,0.025-0.367,0.072c-0.452-0.09-0.857,0.021-1.149,0.099 c-0.096,0.027-0.243,0.066-0.236,0.08c-0.035-0.019-0.067-0.044-0.117-0.078c-0.163-0.113-0.357-0.173-0.556-0.173h-1.845 c-0.069,0-0.225,0.029-0.293,0.043c-0.081,0.017-0.163,0.022-0.246,0.029c-0.092,0.009-0.183,0.016-0.275,0.029 c-0.19,0.027-0.401,0.016-0.651,0.005l-0.24-0.011c-0.252-0.01-0.478,0.029-0.656,0.061c-0.082,0.014-0.196,0.034-0.217,0.035 c-0.009-0.003-0.039-0.014-0.126-0.063c-0.147-0.084-0.314-0.128-0.483-0.128h-0.663c-0.143,0-0.284,0.031-0.413,0.091 c-0.127-0.059-0.268-0.091-0.412-0.091h-0.108c-0.193,0-0.381,0.057-0.541,0.162c-0.152,0.035-0.294,0.106-0.415,0.207 c-0.068,0.057-0.135,0.12-0.201,0.182c-0.047,0.044-0.089,0.092-0.126,0.115c-0.363,0.152-0.6,0.507-0.6,0.902v1.191 c0,0.123,0.023,0.245,0.068,0.359l0.268,0.68c0.049,0.123,0.121,0.233,0.212,0.326c-0.059,0.093-0.103,0.195-0.129,0.306 l-0.271,1.165c-0.04,0.169-0.033,0.345,0.017,0.508c-0.109,0.198-0.147,0.43-0.104,0.655l0.221,1.155l-0.173,0.591 c-0.094,0.32-0.017,0.666,0.202,0.917c0.115,0.132,0.254,0.248,0.414,0.372c0.172,0.133,0.383,0.205,0.6,0.205h1.463 c0.267,0,0.52-0.109,0.702-0.296c0.183,0.189,0.437,0.296,0.701,0.296H41.6c0.096,0,0.191-0.014,0.283-0.042l0.519-0.158 c0.127-0.041,0.32-0.103,0.446-0.125c0.067,0.048,0.153,0.101,0.259,0.148c0.535,0.238,1.021,0.007,1.302-0.121 c0.015,0,0.05,0.007,0.125,0.034c0.178,0.166,0.415,0.264,0.668,0.264h0.666v2.163h-1.143c-0.541,0-0.978,0.438-0.978,0.978v2.374 c0,1.219,0.933,2.214,2.121,2.335v6.992c-1.799-4.652-4.12-8.812-7.13-11.732c-2.982-2.892-6.426-4.357-10.242-4.357 c-0.082,0-0.165,0.001-0.247,0.002c-0.31,0.005-0.599,0.157-0.78,0.409c-0.18,0.251-0.23,0.574-0.136,0.869 c0.084,0.261,8.224,26.406-7.712,50.139c-0.29,0.433-0.191,1.018,0.227,1.33c0.175,0.131,0.38,0.194,0.584,0.194 c0.283,0,0.563-0.121,0.756-0.355c0.044-0.056,3.384-3.876,13.304-3.317l0.127,13.552h-4.38v-0.573 c0-0.541-0.438-0.978-0.978-0.978h-5.018c-0.537-1.45-0.824-2.554-0.828-2.566c-0.112-0.432-0.501-0.734-0.947-0.734H9.813 c-0.541,0-0.978,0.438-0.978,0.978v2.239c0,0.468,0.332,0.87,0.791,0.96c5.559,1.084,5.57,5.794,5.569,5.99 c-0.006,0.289,0.117,0.566,0.334,0.757l6.688,5.848c0.157,0.138,0.354,0.221,0.562,0.238C31.054,94.65,38.476,95,45.003,95 c7.806,0,14.331-0.5,19.491-1.496c11.607-1.084,15.535-6.621,16.799-9.477l9.038-1.345c0.506-0.076,0.869-0.529,0.831-1.04 C91.125,81.132,90.699,80.736,90.187,80.736z M35.072,14.6c0,0-0.01-0.005-0.025-0.014l0.309-0.925L35.072,14.6z M45.66,18.259 h-0.107c-0.034-0.018-0.07-0.035-0.106-0.05c-0.367-0.154-0.981-0.408-1.757-0.114c-0.103-0.054-0.23-0.105-0.381-0.134 c-0.566-0.111-1.112,0.064-1.509,0.193l-0.199,0.062l-2.91,0.042c-0.114-0.085-0.239-0.158-0.373-0.216 c-0.647-0.285-1.343-0.189-1.854,0.216h-0.107c0.008-0.088,0.003-0.177-0.013-0.265l-0.2-1.045c0.12-0.31,0.145-0.649,0.07-0.972 l0.124-0.532c0.183-0.189,0.426-0.544,0.398-1.079c0.07-0.297,0.027-0.609-0.131-0.898c-0.132-0.246-0.318-0.412-0.492-0.524 l-0.061-0.155v-0.494c0.003-0.002,0.006-0.005,0.009-0.007c0.203,0.058,0.418,0.076,0.636,0.044 c0.174-0.025,0.344-0.079,0.503-0.16h0.138c0.123,0.056,0.266,0.11,0.426,0.145c0.39,0.083,0.731,0.023,0.978-0.02 c0.09-0.015,0.161-0.029,0.245-0.032l0.216,0.01c0.299,0.016,0.637,0.031,1.007-0.019l0.181-0.018 c0.159-0.014,0.317-0.031,0.483-0.065h1.444c0.062,0.034,0.129,0.069,0.203,0.098c0.598,0.246,1.143,0.102,1.503,0.005 c0.095-0.026,0.239-0.064,0.228-0.079c0.294,0.147,0.628,0.17,0.937,0.063c0.068-0.023,0.134-0.053,0.196-0.087h0.274 c-0.068,0.146-0.105,0.309-0.105,0.481c-0.001,0.593-0.002,1.207-0.143,1.818c-0.084,0.354-0.282,1.193,0.147,1.81 c0.016,0.09,0.033,0.206,0.019,0.297c-0.049,0.257-0.156,0.826,0.083,1.314V18.259z M50.689,71.855 c0.303,0.108,0.637,0.06,0.897-0.127c0.26-0.186,0.413-0.488,0.408-0.808c-0.003-0.181-0.015-0.875-0.059-1.972 c7.584-18.182,4.114-35.567,2.889-40.404c2.872,0.249,5.497,1.509,7.815,3.759c10.637,10.315,12.359,38.231,12.618,44.814 c-5.042-1.696-9.298-2.615-12.902-3.032c-0.005,0-0.009-0.003-0.015-0.003c-0.003,0-0.007,0-0.01,0h0 c-0.533-0.061-1.055-0.114-1.559-0.154c-0.005,0-0.009-0.003-0.014-0.003c-0.004,0-0.008,0-0.01,0 c-0.001,0-0.002,0.001-0.004,0.001c-1.032-0.081-2.018-0.128-2.932-0.128c-4.068,0-6.997,0.73-9.021,1.573 c0.67-1.176,1.281-2.355,1.849-3.533C50.657,71.844,50.672,71.849,50.689,71.855z M59.856,81.791H48.857v-4.306 c2.028-0.984,5.495-1.983,10.932-1.671L59.856,81.791z M45.703,25.73v-1.396h3.319v1.396c0,0.219-0.184,0.403-0.403,0.403h-2.512 C45.887,26.133,45.703,25.949,45.703,25.73z M32.547,66.226c-4.069,0-6.998,0.73-9.023,1.573 c11.589-20.347,7.405-41.422,6.036-46.828c2.872,0.249,5.496,1.509,7.815,3.759c10.201,9.893,12.202,35.96,12.578,43.888 c-0.114,0.267-0.231,0.535-0.351,0.802c-0.449-0.149-0.884-0.284-1.321-0.42c-0.026-0.012-0.054-0.016-0.082-0.026 c-4.206-1.311-7.845-2.074-10.98-2.446c-0.003,0-0.005-0.001-0.007-0.001c-0.001,0-0.001,0-0.001,0 c-0.595-0.07-1.173-0.129-1.731-0.173c-0.006,0-0.012-0.004-0.018-0.004c-0.003,0-0.006,0-0.01,0c-0.002,0-0.004,0.001-0.006,0.001 C34.426,66.273,33.451,66.226,32.547,66.226z M45.115,79.289c0.175,0.131,0.38,0.194,0.584,0.194c0.058,0,0.112-0.027,0.169-0.037 v2.345H38.19V68.618c2.275,0.333,4.83,0.881,7.678,1.695v6.11c-0.321,0.512-0.638,1.025-0.98,1.535 C44.597,78.392,44.696,78.977,45.115,79.289z M79.685,82.797c-0.86,2.282-4.079,7.704-15.467,8.772 c-9.337,1.799-23.112,1.955-40.954,0.46l-6.139-5.368c-0.14-1.474-1.003-5.862-6.333-7.281v-0.482h10.936 c0.187,0.623,0.499,1.588,0.93,2.681c0.148,0.374,0.509,0.619,0.91,0.619h4.714v0.573c0,0.541,0.438,0.978,0.978,0.978h6.346 c0.003,0,0.006,0,0.01,0h25.231c0.004,0,0.008,0,0.011,0h1.564c0.003,0,0.007,0,0.01,0h3.94c0.347,0,0.668-0.183,0.844-0.482 c0.126-0.214,0.228-0.407,0.311-0.572H79.73C79.713,82.726,79.698,82.761,79.685,82.797z"></path><path d="M55.022,85.617h-2.366c-0.404,0-0.749,0.244-0.898,0.593c-0.15-0.349-0.495-0.593-0.898-0.593h-2.366 c-0.349,0-0.64,0.192-0.813,0.467c-0.173-0.274-0.465-0.467-0.813-0.467h-2.366c-0.307,0-0.57,0.15-0.749,0.372 c-0.179-0.221-0.442-0.372-0.749-0.372h-2.366c-0.484,0-0.866,0.356-0.946,0.817c-0.079-0.461-0.462-0.817-0.946-0.817h-2.366 c-0.541,0-0.978,0.438-0.978,0.978v2.141c0,0.541,0.438,0.978,0.978,0.978h2.366c0.484,0,0.866-0.356,0.946-0.817 c0.079,0.461,0.462,0.817,0.946,0.817H43c0.307,0,0.57-0.15,0.749-0.372c0.179,0.221,0.442,0.372,0.749,0.372h2.366 c0.349,0,0.64-0.192,0.813-0.467c0.173,0.274,0.465,0.467,0.813,0.467h2.366c0.404,0,0.749-0.244,0.898-0.593 c0.15,0.349,0.495,0.593,0.898,0.593h2.366c0.541,0,0.978-0.438,0.978-0.978v-2.141C56,86.054,55.563,85.617,55.022,85.617z M37.764,87.758h-0.41v-0.184h0.41V87.758z M42.022,87.758h-0.41v-0.184h0.41V87.758z M45.887,87.758h-0.41v-0.184h0.41V87.758z M49.881,87.758h-0.41v-0.184h0.41V87.758z M54.044,87.758h-0.41v-0.184h0.41V87.758z"></path></g></svg>
