<svg height='100px' width='100px' xmlns="http://www.w3.org/2000/svg" version="1.1" x="0px" y="0px" viewBox="0 0 100 100" style="enable-background:new 0 0 100 100;"><path d="M38.4,33.9c0,0.5,0.4,0.9,0.9,1c6,0.6,9.4-5.6,10.7-8.9c6.2,8.3,16.6,8.9,17.4,8.9c0.1,0,0.6,0.1,1.2,0.1  c3.1,0,11.4-1,14.9-10.8c0.1-0.2,0.1-0.4,0-0.6c0-0.1-3.2-10.8-15.9-10.8c0,0-0.1,0-0.1,0c-0.5,0-11.1,0.5-17.4,8.9  c-1.3-3.3-4.7-9.5-10.7-8.9c-0.5,0-0.9,0.5-0.9,1c0,0.3-0.1,6.8,3.1,10.1C38.4,27.1,38.4,33.6,38.4,33.9z M67.5,14.7  C67.6,14.7,67.6,14.7,67.5,14.7c10.2,0,13.4,7.5,14,9.1c-3.9,10.3-13.4,9.2-13.8,9.1c0,0-0.1,0-0.1,0c-0.1,0-10.9-0.5-16.6-9.1  C56.6,15.2,67.5,14.7,67.5,14.7z M43.7,24.6c0.3-0.2,0.4-0.5,0.4-0.8S44,23.2,43.7,23c-2.6-1.8-3.1-6.3-3.2-8.3  c5.1,0.3,7.7,7.6,8.2,9.1c-0.5,1.5-3.1,8.8-8.2,9.1C40.6,30.9,41.1,26.4,43.7,24.6z"></path><circle cx="75.6" cy="21.6" r="1.1"></circle><path d="M18.5,65.9c6.2,8.3,16.6,8.9,17.4,8.9c0.2,0,0.6,0.1,1.2,0.1c3.1,0,11.4-1,14.9-10.8c0.1-0.2,0.1-0.4,0-0.6  c0-0.1-3.2-10.8-15.9-10.8c0,0-0.1,0-0.1,0c-0.5,0-11.1,0.5-17.4,8.9c-1.3-3.3-4.7-9.5-10.7-8.9c-0.5,0-0.9,0.5-0.9,1  c0,0.3-0.1,6.8,3.1,10.1C6.8,67,6.9,73.5,6.9,73.8c0,0.5,0.4,0.9,0.9,1C13.9,75.4,17.2,69.2,18.5,65.9z M36,54.6  C36,54.6,36.1,54.6,36,54.6c10.2,0,13.4,7.5,14,9.1c-3.9,10.3-13.4,9.2-13.8,9.1c0,0-0.1,0-0.1,0c-0.1,0-10.9-0.5-16.6-9.1  C25.1,55.1,35.9,54.6,36,54.6z M9,72.8c0.1-2,0.6-6.5,3.2-8.3c0.3-0.2,0.4-0.5,0.4-0.8c0-0.3-0.2-0.6-0.4-0.8  c-2.6-1.8-3.1-6.3-3.2-8.3c5.1,0.3,7.7,7.6,8.2,9.1C16.7,65.2,14.1,72.5,9,72.8z"></path><circle cx="44.1" cy="61.5" r="1.1"></circle><path d="M25.7,48.5c0,0.5,0.4,0.9,0.9,1c2.9,0.3,4.6-2.2,5.5-4c3.2,3.6,7.9,4,8.5,4c0.2,0,0.5,0,0.8,0c2.3,0,6.1-1.2,7.8-5.8  c0.1-0.2,0.1-0.4,0-0.6c-0.6-2-3.1-5.8-8.5-5.8c0,0,0,0,0,0c-0.2,0-5.2,0.2-8.6,4c-0.9-1.8-2.6-4.3-5.5-4c-0.5,0-0.9,0.5-0.9,1  c0,0.4,0,3.3,1.4,5.1C25.7,45.3,25.7,48.2,25.7,48.5z M40.8,39.4C40.8,39.4,40.8,39.4,40.8,39.4c4.5,0,6.1,3.1,6.4,4  c-1.8,4.6-6.1,4.1-6.3,4.1c0,0-0.1,0-0.1,0c-0.1,0-5-0.2-7.7-4C35.8,39.7,40.8,39.4,40.8,39.4z M29.1,42.7c-0.8-0.6-1.2-2-1.3-3.1  c1.7,0.6,2.7,3.1,3,3.9c-0.3,0.8-1.3,3.3-3,3.9c0.1-1.1,0.5-2.5,1.3-3.1c0.3-0.2,0.4-0.5,0.4-0.8C29.6,43.1,29.4,42.8,29.1,42.7z"></path><circle cx="44.8" cy="42.4" r="0.6"></circle><path d="M40.4,87.9c0,0.5,0.4,0.9,0.9,1c2.9,0.3,4.6-2.2,5.5-4c3.2,3.6,7.9,4,8.5,4c0.2,0,0.5,0,0.8,0c2.3,0,6.1-1.2,7.8-5.8  c0.1-0.2,0.1-0.4,0-0.6c-0.6-2-3.1-5.8-8.5-5.8c0,0,0,0,0,0c-0.2,0-5.2,0.2-8.6,4c-0.9-1.8-2.6-4.3-5.5-4c-0.5,0-0.9,0.5-0.9,1  c0,0.4,0,3.3,1.4,5.1C40.4,84.6,40.4,87.5,40.4,87.9z M55.4,78.8C55.5,78.8,55.5,78.8,55.4,78.8c4.5,0,6.1,3.1,6.4,4  c-1.8,4.6-6.1,4.1-6.3,4.1c0,0-0.1,0-0.1,0c-0.1,0-5-0.2-7.7-4C50.5,79,55.4,78.8,55.4,78.8z M43.8,82c-0.8-0.6-1.2-2-1.3-3.1  c1.7,0.6,2.7,3.1,3,3.9c-0.3,0.8-1.3,3.3-3,3.9c0.1-1.1,0.5-2.5,1.3-3.1c0.3-0.2,0.4-0.5,0.4-0.8C44.2,82.5,44.1,82.2,43.8,82z"></path><circle cx="59.5" cy="81.7" r="0.6"></circle><path d="M83.9,37.5C83.9,37.5,83.9,37.5,83.9,37.5c-0.4,0-6.9,0.3-11.1,5.4c-1-2.3-3.2-5.8-7-5.4c-0.5,0-0.9,0.5-0.9,1  c0,0.2-0.1,4.2,1.9,6.5c-1.9,2.3-1.9,6.3-1.9,6.5c0,0.5,0.4,0.9,0.9,1c3.8,0.4,6-3.1,7-5.4c4.1,5,10.4,5.4,11.1,5.4  c0.1,0,0.4,0,0.8,0c2.1,0,7.6-0.6,9.9-7.2c0.1-0.2,0.1-0.4,0-0.6C94.5,44.6,92.4,37.5,83.9,37.5z M66.9,50.4  c0.1-1.5,0.6-3.7,1.9-4.6c0.3-0.2,0.4-0.5,0.4-0.8s-0.2-0.6-0.4-0.8c-1.3-0.9-1.8-3.1-1.9-4.6c2.7,0.5,4.2,4.4,4.5,5.4  C71.1,46,69.6,49.9,66.9,50.4z M84,50.5c-0.1,0-6.7-0.3-10.2-5.5c3.6-5.2,10.2-5.5,10.2-5.5c0,0,0,0,0,0c6.1,0,8.1,4.3,8.5,5.5  C90.1,51.2,84.3,50.5,84,50.5z"></path><circle cx="89.1" cy="43.5" r="0.7"></circle><path d="M73.7,53.4C73.7,53.4,73.7,53.4,73.7,53.4c-0.4,0-6.9,0.3-11.1,5.4c-1-2.3-3.2-5.8-7-5.4c-0.5,0-0.9,0.5-0.9,1  c0,0.2-0.1,4.2,1.9,6.5c-1.9,2.3-1.9,6.3-1.9,6.5c0,0.5,0.4,0.9,0.9,1c3.7,0.4,6-3.1,7-5.4c4.1,5,10.4,5.4,11.1,5.4  c0.1,0,0.4,0,0.8,0c2.1,0,7.6-0.6,9.9-7.2c0.1-0.2,0.1-0.4,0-0.6C84.3,60.6,82.2,53.4,73.7,53.4z M56.7,66.4  c0.1-1.5,0.6-3.7,1.9-4.6c0.3-0.2,0.4-0.5,0.4-0.8s-0.2-0.6-0.4-0.8c-1.3-0.9-1.8-3.1-1.9-4.6c2.7,0.5,4.2,4.4,4.5,5.4  C60.9,62,59.4,65.8,56.7,66.4z M73.8,66.4c-0.1,0-6.7-0.3-10.2-5.5c3.6-5.2,10.2-5.5,10.2-5.5c0,0,0,0,0,0c6.1,0,8.1,4.3,8.5,5.5  C79.9,67.1,74.1,66.4,73.8,66.4z"></path><circle cx="78.9" cy="59.5" r="0.7"></circle></svg>
