<svg height='100px' width='100px' xmlns="http://www.w3.org/2000/svg" version="1.1" x="0px" y="0px" viewBox="0 0 512 512" enable-background="new 0 0 512 512" xml:space="preserve"><g><g><g><path d="M108.347,423.882c-2.209,0-4.037-1.788-4.037-3.998c0-2.209,1.749-3.997,3.958-3.997h0.078 c2.209,0,3.997,1.788,3.997,3.997C112.344,422.094,110.556,423.882,108.347,423.882z"></path></g></g><g><g><path d="M140.324,423.882c-2.209,0-4.036-1.788-4.036-3.998c0-2.209,1.749-3.997,3.958-3.997h0.078 c2.21,0,3.998,1.788,3.998,3.997C144.321,422.094,142.534,423.882,140.324,423.882z"></path></g></g><g><g><path d="M172.301,423.882c-2.209,0-4.036-1.788-4.036-3.998c0-2.209,1.749-3.997,3.958-3.997h0.078 c2.209,0,3.997,1.788,3.997,3.997C176.298,422.094,174.511,423.882,172.301,423.882z"></path></g></g><g><g><path d="M204.279,423.882c-2.209,0-4.036-1.788-4.036-3.998c0-2.209,1.749-3.997,3.958-3.997h0.078 c2.209,0,3.997,1.788,3.997,3.997C208.276,422.094,206.488,423.882,204.279,423.882z"></path></g></g><g><g><path d="M236.256,423.882c-2.209,0-4.036-1.788-4.036-3.998c0-2.209,1.749-3.997,3.958-3.997h0.078 c2.209,0,3.997,1.788,3.997,3.997C240.253,422.094,238.466,423.882,236.256,423.882z"></path></g></g><g><g><path d="M268.234,423.882c-2.209,0-4.036-1.788-4.036-3.998c0-2.209,1.749-3.997,3.95-3.997h0.086 c2.201,0,3.997,1.788,3.997,3.997C272.231,422.094,270.436,423.882,268.234,423.882z"></path></g></g><g><g><path d="M300.212,423.882c-2.21,0-4.036-1.788-4.036-3.998c0-2.209,1.748-3.997,3.95-3.997h0.086 c2.201,0,3.997,1.788,3.997,3.997C304.209,422.094,302.413,423.882,300.212,423.882z"></path></g></g><g><g><path d="M332.189,423.882c-2.21,0-4.037-1.788-4.037-3.998c0-2.209,1.749-3.997,3.951-3.997h0.086 c2.201,0,3.997,1.788,3.997,3.997C336.187,422.094,334.391,423.882,332.189,423.882z"></path></g></g><g><g><path d="M339.941,479.842H68.133c-2.209,0-3.998-1.788-3.998-3.997s1.788-3.997,3.998-3.997h271.809 c2.209,0,3.997,1.788,3.997,3.997S342.15,479.842,339.941,479.842z"></path></g></g><g><g><path d="M68.133,479.842c-2.209,0-3.998-1.788-3.998-3.997v-23.647c0-2.21,1.788-3.997,3.998-3.997s3.997,1.787,3.997,3.997 v23.647C72.13,478.054,70.342,479.842,68.133,479.842z"></path></g></g><g><g><path d="M339.941,479.842c-1.632,0-3.17-1.007-3.755-2.639c-0.758-2.069,0.319-4.364,2.389-5.121 c84.19-30.549,85.3-89.671,85.308-92.17c0.008-2.201,1.795-3.997,3.996-3.997c2.202,0,3.99,1.78,3.998,3.981 c0.008,2.732-0.852,67.141-90.569,99.711C340.855,479.764,340.395,479.842,339.941,479.842z"></path></g></g><g><g><path d="M336.85,463.853H84.122c-2.209,0-3.997-1.787-3.997-3.996c0-2.21,1.788-3.998,3.997-3.998h251.995 c24.545-9.376,43.368-22.312,55.96-38.465c1.352-1.74,3.865-2.053,5.613-0.694c1.741,1.358,2.054,3.872,0.695,5.612 c-13.631,17.465-33.859,31.361-60.122,41.284C337.811,463.768,337.334,463.853,336.85,463.853z"></path></g></g><g><g><path d="M371.919,375.915c-1.366,0-2.701-0.702-3.442-1.967c-1.125-1.905-0.484-4.356,1.412-5.48l135.904-79.944 c1.897-1.116,4.349-0.483,5.473,1.421c1.125,1.905,0.484,4.356-1.413,5.48l-135.903,79.943 C373.309,375.743,372.613,375.915,371.919,375.915z"></path></g></g><g><g><path d="M68.133,456.194c-2.209,0-3.998-1.787-3.998-3.997c0-20.954-28.659-28.362-28.948-28.44 c-2.139-0.531-3.442-2.701-2.904-4.841c0.531-2.147,2.694-3.45,4.841-2.904c1.437,0.352,35.006,9.056,35.006,36.186 C72.13,454.407,70.342,456.194,68.133,456.194z"></path></g></g><g><g><path d="M10.173,351.933c-1.616,0-3.138-0.984-3.739-2.593l-5.996-15.988c-0.772-2.069,0.273-4.372,2.335-5.153 c2.068-0.757,4.372,0.266,5.152,2.343l5.996,15.988c0.773,2.069-0.273,4.372-2.342,5.153 C11.118,351.854,10.642,351.933,10.173,351.933z"></path></g></g><g><g><path d="M36.163,423.882c-1.218,0-2.42-0.547-3.201-1.601l-11.992-15.989c-1.327-1.764-0.968-4.271,0.796-5.598 c1.765-1.319,4.271-0.968,5.598,0.805l11.991,15.988c1.327,1.765,0.968,4.271-0.804,5.598 C37.833,423.616,36.999,423.882,36.163,423.882z"></path></g></g><g><g><path d="M60.146,399.898c-0.188,0-0.382-0.016-0.57-0.039l-55.96-7.995c-2.186-0.312-3.708-2.334-3.396-4.52 c0.32-2.186,2.358-3.686,4.528-3.396l55.961,7.994c2.186,0.312,3.7,2.335,3.388,4.521 C63.815,398.462,62.106,399.898,60.146,399.898z"></path></g></g><g><g><path d="M52.152,366.781c-0.188,0-0.383-0.016-0.57-0.039l-47.966-6.854c-2.186-0.312-3.708-2.334-3.396-4.521 c0.32-2.187,2.358-3.685,4.528-3.396l47.966,6.854c2.186,0.312,3.701,2.335,3.388,4.521 C55.821,365.345,54.111,366.781,52.152,366.781z"></path></g></g><g><g><path d="M4.178,391.903c-2.21,0-3.998-1.787-3.998-3.996v-31.979c0-2.209,1.788-3.996,3.998-3.996 c2.209,0,3.997,1.787,3.997,3.996v31.979C8.175,390.116,6.387,391.903,4.178,391.903z"></path></g></g><g><g><path d="M36.155,335.943H4.178c-2.21,0-3.998-1.788-3.998-3.997s1.788-3.997,3.998-3.997h31.977c2.209,0,3.998,1.788,3.998,3.997 S38.365,335.943,36.155,335.943z"></path></g></g><g><g><path d="M36.155,343.938c-2.209,0-3.997-1.788-3.997-3.997v-7.994c0-2.209,1.788-3.997,3.997-3.997s3.998,1.788,3.998,3.997 v7.994C40.153,342.149,38.365,343.938,36.155,343.938z"></path></g></g><g><g><path d="M84.129,351.933c-0.219,0-0.438-0.016-0.664-0.055L35.5,343.883c-2.178-0.366-3.646-2.42-3.287-4.599 c0.367-2.178,2.428-3.677,4.598-3.286l47.966,7.994c2.178,0.367,3.654,2.421,3.287,4.599 C87.744,350.542,86.05,351.933,84.129,351.933z"></path></g></g><g><g><path d="M84.122,359.927c-2.209,0-3.997-1.788-3.997-3.998v-7.994c0-2.209,1.788-3.997,3.997-3.997 c2.209,0,3.997,1.788,3.997,3.997v7.994C88.119,358.139,86.331,359.927,84.122,359.927z"></path></g></g><g><g><path d="M148.077,359.927H84.122c-2.209,0-3.997-1.788-3.997-3.998c0-2.209,1.788-3.996,3.997-3.996h63.955 c2.209,0,3.997,1.787,3.997,3.996C152.074,358.139,150.286,359.927,148.077,359.927z"></path></g></g><g><g><path d="M156.079,375.915c-1.468,0-2.881-0.812-3.583-2.209l-7.995-15.989c-0.983-1.975-0.187-4.38,1.788-5.363 c1.983-0.983,4.372-0.188,5.363,1.788l7.994,15.988c0.992,1.976,0.188,4.38-1.788,5.363 C157.289,375.774,156.68,375.915,156.079,375.915z"></path></g></g><g><g><path d="M371.919,375.915H156.071c-2.209,0-3.997-1.787-3.997-3.997s1.788-3.997,3.997-3.997h215.848 c2.21,0,3.997,1.787,3.997,3.997S374.129,375.915,371.919,375.915z"></path></g></g><g><g><path d="M367.5,359.927c-1.413,0-2.787-0.75-3.513-2.093c-1.054-1.937-0.336-4.356,1.601-5.418l132.328-71.949 c1.936-1.038,4.372-0.344,5.426,1.608c1.054,1.936,0.336,4.356-1.601,5.418l-132.328,71.949 C368.804,359.771,368.148,359.927,367.5,359.927z"></path></g></g><g><g><path d="M339.949,335.943c-1.288,0-2.553-0.624-3.326-1.78c-1.225-1.826-0.733-4.309,1.094-5.543 c0.461-0.305,46.193-31.938,46.193-108.595c0-76.915-45.726-108.287-46.186-108.596c-1.835-1.226-2.334-3.704-1.109-5.543 c1.234-1.838,3.717-2.326,5.543-1.108c2.03,1.354,49.746,34.097,49.746,115.247c0,81.146-47.716,113.888-49.746,115.247 C341.479,335.725,340.707,335.943,339.949,335.943z"></path></g></g><g><g><path d="M100.118,335.943c-1.288,0-2.553-0.624-3.325-1.78c-1.226-1.826-0.734-4.309,1.093-5.543 c0.468-0.305,46.194-31.938,46.194-108.595c0-76.915-45.726-108.287-46.186-108.596c-1.835-1.226-2.334-3.704-1.108-5.543 c1.226-1.842,3.7-2.33,5.543-1.108c2.029,1.354,49.746,34.097,49.746,115.247c0,81.146-47.717,113.888-49.746,115.247 C101.648,335.725,100.883,335.943,100.118,335.943z"></path></g></g><g><g><path d="M291.976,56.141h-39.973c-2.209,0-3.997-1.787-3.997-3.997c0-2.209,1.788-3.997,3.997-3.997h39.973 c2.209,0,3.997,1.788,3.997,3.997C295.973,54.354,294.185,56.141,291.976,56.141z"></path></g></g><g><g><path d="M291.976,72.13h-39.973c-2.209,0-3.997-1.788-3.997-3.997c0-2.21,1.788-3.998,3.997-3.998h39.973 c2.209,0,3.997,1.788,3.997,3.998C295.973,70.342,294.185,72.13,291.976,72.13z"></path></g></g><g><g><path d="M347.936,64.135H299.97c-2.21,0-3.997-1.787-3.997-3.997c0-2.209,1.787-3.997,3.997-3.997h47.966 c2.21,0,3.998,1.788,3.998,3.997C351.934,62.348,350.146,64.135,347.936,64.135z"></path></g></g><g><g><path d="M347.936,80.124H283.98c-2.209,0-3.996-1.788-3.996-3.997c0-2.21,1.787-3.997,3.996-3.997h63.955 c2.21,0,3.998,1.787,3.998,3.997C351.934,78.336,350.146,80.124,347.936,80.124z"></path></g></g><g><g><path d="M347.936,80.124c-1.022,0-2.045-0.391-2.826-1.171l-7.994-7.994c-1.562-1.562-1.562-4.092,0-5.652 c1.562-1.562,4.091-1.562,5.652,0l7.994,7.994c1.562,1.562,1.562,4.091,0,5.652C349.981,79.733,348.959,80.124,347.936,80.124z"></path></g></g><g><g><path d="M339.941,72.13c-1.093,0-2.178-0.445-2.967-1.315c-1.476-1.636-1.351-4.165,0.289-5.645l8.838-7.995 c1.615-1.486,4.161-1.358,5.645,0.281c1.475,1.636,1.35,4.165-0.289,5.645l-8.838,7.994 C341.862,71.79,340.902,72.13,339.941,72.13z"></path></g></g><g><g><path d="M339.941,112.102H100.11c-2.209,0-3.997-1.788-3.997-3.997c0-2.21,1.788-3.997,3.997-3.997h239.832 c2.209,0,3.997,1.787,3.997,3.997C343.938,110.313,342.15,112.102,339.941,112.102z"></path></g></g><g><g><path d="M339.941,335.943H100.11c-2.209,0-3.997-1.788-3.997-3.997s1.788-3.997,3.997-3.997h239.832 c2.209,0,3.997,1.788,3.997,3.997S342.15,335.943,339.941,335.943z"></path></g></g><g><g><path d="M244.009,367.921c-2.209,0-3.998-1.788-3.998-3.997V339.94c0-2.209,1.788-3.997,3.998-3.997s3.997,1.788,3.997,3.997 v23.983C248.006,366.133,246.218,367.921,244.009,367.921z"></path></g></g><g><g><path d="M244.009,104.107c-2.209,0-3.998-1.788-3.998-3.998V36.155c0-2.21,1.788-3.997,3.998-3.997s3.997,1.787,3.997,3.997 v63.954C248.006,102.319,246.218,104.107,244.009,104.107z"></path></g></g><g><g><path d="M252.003,96.112h-15.989c-2.209,0-3.997-1.787-3.997-3.997c0-2.209,1.788-3.997,3.997-3.997h15.989 c2.209,0,3.998,1.788,3.998,3.997C256,94.325,254.212,96.112,252.003,96.112z"></path></g></g><g><g><path d="M427.879,383.909c-2.209,0-3.996-1.787-3.996-3.997v-23.976c0-2.209,1.787-3.996,3.996-3.996 c2.21,0,3.998,1.787,3.998,3.996v23.976C431.877,382.122,430.089,383.909,427.879,383.909z"></path></g></g></g><path transform="scale(1.5) translate(120 100)" d="M94.199,23.213c0.469-0.469,0.732-1.105,0.732-1.768V7.302c0-1.381-1.119-2.5-2.5-2.5H78.289 c-0.664,0-1.299,0.263-1.768,0.732L50,32.055L23.479,5.534c-0.469-0.469-1.105-0.732-1.768-0.732H7.569c-1.381,0-2.5,1.119-2.5,2.5 v14.142c0,0.664,0.263,1.299,0.732,1.768l26.521,26.521l-9.853,9.853l-1.768-1.768c-1.416-1.417-3.3-2.197-5.303-2.197 s-3.886,0.78-5.303,2.197c-1.417,1.417-2.197,3.3-2.197,5.303c0,2.003,0.78,3.886,2.197,5.303l5.304,5.303L7.266,81.86 c-2.924,2.924-2.924,7.682,0,10.607c1.462,1.461,3.382,2.192,5.303,2.192c1.921,0,3.842-0.731,5.303-2.193l8.132-8.133l5.304,5.304 c1.416,1.417,3.3,2.197,5.303,2.197s3.887-0.779,5.303-2.197c1.417-1.416,2.197-3.3,2.197-5.303s-0.78-3.886-2.197-5.303 l-1.768-1.768l9.853-9.853l9.854,9.854l-1.767,1.767c-1.417,1.416-2.197,3.3-2.197,5.303s0.78,3.886,2.197,5.303 c1.416,1.417,3.3,2.197,5.303,2.197c2.004,0,3.887-0.779,5.303-2.196l5.304-5.304l8.132,8.133c1.462,1.462,3.382,2.192,5.303,2.192 c1.92,0,3.841-0.731,5.303-2.192c1.417-1.416,2.197-3.3,2.197-5.303s-0.78-3.886-2.197-5.303l-8.133-8.133l5.304-5.304 c1.417-1.416,2.197-3.3,2.197-5.303c0-2.003-0.78-3.886-2.197-5.303c-1.417-1.417-3.3-2.197-5.303-2.197s-3.886,0.78-5.303,2.197 l-1.768,1.768l-9.852-9.853L94.199,23.213z M79.324,9.802H89.93v10.607L64.142,46.197L53.536,35.591L79.324,9.802z M14.337,88.93 c-0.975,0.976-2.562,0.975-3.536,0c-0.472-0.472-0.732-1.1-0.732-1.767c0-0.668,0.26-1.296,0.732-1.768l8.132-8.133l3.536,3.536 L14.337,88.93z M38.378,86.103c-0.944,0.944-2.592,0.944-3.536,0l-7.067-7.067c-0.002-0.002-0.003-0.004-0.004-0.005 s-0.004-0.003-0.005-0.004L13.629,64.89c-0.472-0.472-0.732-1.1-0.732-1.768c0-0.668,0.259-1.296,0.732-1.768 c0.473-0.472,1.101-0.732,1.768-0.732c0.668,0,1.296,0.259,1.769,0.732l17.677,17.677c0,0,0,0,0,0.001s0,0,0.001,0l3.534,3.535 c0.472,0.472,0.732,1.1,0.732,1.768C39.11,85.003,38.85,85.631,38.378,86.103z M36.612,73.729L26.004,63.121l9.853-9.853 l10.607,10.607L36.612,73.729z M89.199,85.396c0.975,0.975,0.974,2.562,0,3.536c-0.974,0.974-2.561,0.974-3.536,0l-8.132-8.133 l3.536-3.536L89.199,85.396z M84.603,60.622c0.667,0,1.295,0.258,1.767,0.731c0.472,0.473,0.732,1.101,0.732,1.768 c0,0.668-0.26,1.296-0.732,1.768L65.157,86.102c-0.944,0.944-2.592,0.944-3.536,0c-0.472-0.472-0.732-1.1-0.732-1.768 c0-0.668,0.26-1.296,0.732-1.768l21.214-21.212C83.307,60.882,83.935,60.622,84.603,60.622z M63.389,73.728l-53.32-53.32V9.801 h10.607l53.32,53.32L63.389,73.728z"></path></svg>
