<svg height='100px' width='100px' xmlns="http://www.w3.org/2000/svg" version="1.1" x="0px" y="0px" viewBox="0 0 64 64" enable-background="new 0 0 64 64"><g><g><g><path d="M43.004,7.992H5c-0.553,0-1-0.448-1-1s0.447-1,1-1h38.004c0.553,0,1,0.448,1,1S43.557,7.992,43.004,7.992z"></path></g><g><path d="M47.005,11.992c-0.553,0-1-0.448-1-1c0-1.654-1.346-3-3-3c-0.553,0-1-0.448-1-1s0.447-1,1-1c2.757,0,5,2.243,5,5 C48.005,11.544,47.558,11.992,47.005,11.992z"></path></g><g><path d="M44.001,41.99H5c-0.553,0-1-0.447-1-1s0.447-1,1-1h39.001c0.553,0,1,0.447,1,1S44.554,41.99,44.001,41.99z"></path></g><g><path d="M63,19.991H47.004c-0.553,0-1-0.448-1-1s0.447-1,1-1H63c0.553,0,1,0.448,1,1S63.553,19.991,63,19.991z"></path></g><g><path d="M47.005,44.993c-0.553,0-1-0.447-1-1c0-1.104-0.899-2.003-2.004-2.003c-0.553,0-1-0.447-1-1s0.447-1,1-1 c2.208,0,4.004,1.796,4.004,4.003C48.005,44.546,47.558,44.993,47.005,44.993z"></path></g><g><path d="M44.001,47.995c-0.553,0-1-0.447-1-1s0.447-1,1-1c1.104,0,2.003-0.898,2.003-2.003c0-0.553,0.447-1,1-1s1,0.447,1,1 C48.004,46.199,46.208,47.995,44.001,47.995z"></path></g><g><path d="M44.005,54.011c-2.208,0-4.004-1.796-4.004-4.003c0-0.553,0.447-1,1-1s1,0.447,1,1c0,1.104,0.899,2.003,2.004,2.003 c0.553,0,1,0.447,1,1S44.558,54.011,44.005,54.011z"></path></g><g><path d="M41.002,51.009c-0.553,0-1-0.447-1-1c0-2.207,1.796-4.003,4.003-4.003c0.553,0,1,0.447,1,1s-0.447,1-1,1 c-1.104,0-2.003,0.898-2.003,2.003C42.002,50.562,41.555,51.009,41.002,51.009z"></path></g><g><path d="M47.005,44.993c-0.553,0-1-0.447-1-1V10.992c0-0.552,0.447-1,1-1s1,0.448,1,1v33.001 C48.005,44.546,47.558,44.993,47.005,44.993z"></path></g><g><path d="M63,53.984H44.005c-0.553,0-1-0.447-1-1s0.447-1,1-1H63c0.553,0,1,0.447,1,1S63.553,53.984,63,53.984z"></path></g><g><path d="M54.004,35.986c-0.166,0-0.334-0.041-0.489-0.128c-0.481-0.271-0.652-0.881-0.382-1.362l8.995-15.995 c0.271-0.481,0.88-0.653,1.362-0.381c0.481,0.271,0.652,0.88,0.382,1.362l-8.995,15.995 C54.693,35.803,54.354,35.986,54.004,35.986z"></path></g><g><path d="M63.001,53.986c-0.367,0-0.721-0.202-0.896-0.553l-8.995-18c-0.247-0.494-0.047-1.095,0.447-1.342 c0.494-0.245,1.096-0.047,1.342,0.447l8.995,18c0.247,0.494,0.047,1.095-0.447,1.342C63.304,53.952,63.151,53.986,63.001,53.986z "></path></g><g><path d="M1,64.008c-0.553,0-1-0.447-1-1V0.992c0-0.552,0.447-1,1-1s1,0.448,1,1v62.016C2,63.561,1.553,64.008,1,64.008z"></path></g><g><path d="M5.001,64.008c-0.553,0-1-0.447-1-1V0.992c0-0.552,0.447-1,1-1s1,0.448,1,1v62.016 C6.001,63.561,5.554,64.008,5.001,64.008z"></path></g><g><path d="M5.001,1.992H1c-0.553,0-1-0.448-1-1s0.447-1,1-1h4.001c0.553,0,1,0.448,1,1S5.554,1.992,5.001,1.992z"></path></g><g><path d="M41.001,51.008c-0.553,0-1-0.447-1-1V40.99c0-0.553,0.447-1,1-1s1,0.447,1,1v9.018 C42.001,50.561,41.554,51.008,41.001,51.008z"></path></g><g><g><g><path d="M22.003,28.007c-0.553,0-1-0.448-1-1v-2.256c0-0.552,0.447-1,1-1s1,0.448,1,1v2.256 C23.003,27.559,22.556,28.007,22.003,28.007z"></path></g><g><path d="M29.999,28.007h-7.996c-0.553,0-1-0.448-1-1s0.447-1,1-1h7.996c0.553,0,1,0.448,1,1S30.552,28.007,29.999,28.007z"></path></g><g><path d="M29.999,28.007c-0.553,0-1-0.448-1-1v-2.255c0-0.552,0.447-1,1-1s1,0.448,1,1v2.255 C30.999,27.559,30.552,28.007,29.999,28.007z"></path></g><g><path d="M30.002,25.752c-0.315,0-0.627-0.149-0.821-0.428c-0.315-0.453-0.205-1.076,0.248-1.392 c1.61-1.125,2.572-2.965,2.572-4.925c0-3.309-2.691-6-6-6s-6,2.691-6,6c0,1.96,0.962,3.801,2.572,4.924 c0.453,0.316,0.563,0.939,0.248,1.392c-0.316,0.452-0.938,0.564-1.393,0.249c-2.146-1.497-3.428-3.951-3.428-6.564 c0-4.411,3.589-8,8-8s8,3.589,8,8c0,2.613-1.281,5.067-3.428,6.565C30.399,25.694,30.199,25.752,30.002,25.752z"></path></g><g><path d="M24.032,20.007c-0.553,0-1.005-0.448-1.005-1s0.442-1,0.994-1h0.011c0.552,0,1,0.448,1,1S24.584,20.007,24.032,20.007z "></path></g><g><path d="M28.031,20.007c-0.553,0-1.005-0.448-1.005-1s0.442-1,0.994-1h0.011c0.552,0,1,0.448,1,1S28.583,20.007,28.031,20.007z "></path></g></g><g><g><path d="M15.66,36.772c-0.408,0-0.792-0.252-0.939-0.658c-0.189-0.519,0.078-1.093,0.598-1.281L36,27.305 c0.518-0.19,1.093,0.079,1.281,0.598c0.189,0.519-0.078,1.093-0.598,1.281l-20.682,7.527 C15.89,36.753,15.773,36.772,15.66,36.772z"></path></g><g><path d="M36.685,30.185c-0.408,0-0.792-0.252-0.939-0.658l-0.685-1.879c-0.189-0.519,0.078-1.093,0.597-1.282 c0.521-0.19,1.094,0.079,1.282,0.597l0.685,1.879c0.189,0.519-0.078,1.093-0.597,1.282 C36.914,30.166,36.798,30.185,36.685,30.185z"></path></g><g><path d="M16.002,37.712c-0.408,0-0.792-0.252-0.939-0.658l-0.684-1.879c-0.189-0.519,0.078-1.093,0.598-1.281 c0.518-0.188,1.093,0.079,1.281,0.598l0.684,1.879c0.189,0.519-0.078,1.093-0.598,1.281 C16.231,37.692,16.115,37.712,16.002,37.712z"></path></g></g><g><g><path d="M36.024,36.772c-0.113,0-0.229-0.02-0.342-0.061l-20.682-7.527c-0.52-0.188-0.787-0.763-0.598-1.281 c0.188-0.519,0.766-0.788,1.281-0.598l20.682,7.528c0.52,0.188,0.787,0.763,0.598,1.281 C36.816,36.521,36.433,36.772,36.024,36.772z"></path></g><g><path d="M15,30.185c-0.113,0-0.229-0.02-0.343-0.061c-0.519-0.189-0.786-0.763-0.597-1.282l0.685-1.879 c0.188-0.518,0.761-0.787,1.282-0.597c0.519,0.189,0.786,0.763,0.597,1.282l-0.685,1.879 C15.792,29.933,15.408,30.185,15,30.185z"></path></g><g><path d="M35.683,37.712c-0.113,0-0.229-0.02-0.342-0.061c-0.52-0.188-0.787-0.763-0.598-1.281l0.684-1.879 c0.188-0.519,0.766-0.785,1.281-0.598c0.52,0.188,0.787,0.763,0.598,1.281l-0.684,1.879 C36.475,37.46,36.091,37.712,35.683,37.712z"></path></g></g></g></g></g></svg>
