<svg height='100px' width='100px' xmlns="http://www.w3.org/2000/svg" version="1.1" x="0px" y="0px" viewBox="0 0 100 100" enable-background="new 0 0 100 100" xml:space="preserve"><g display="none"><rect x="-376.249" y="-976.34" display="inline" fill="#000000" width="1206.405" height="1215.22"></rect></g><g><g><path d="M79.488,39.917v-9.754c4.539-0.5,8.082-4.354,8.082-9.024c0-5.007-4.074-9.081-9.082-9.081s-9.082,4.074-9.082,9.081    c0,1.396,0.324,2.782,0.938,4.009l1.788-0.895c-0.482-0.964-0.727-2.012-0.727-3.114c0-3.904,3.177-7.081,7.082-7.081    s7.082,3.177,7.082,7.081c0,3.905-3.177,7.082-7.082,7.082c-0.552,0-1,0.447-1,1v10.697c-4.103,0.333-7.342,3.777-7.342,7.971    v11.283H34.332c-11.021,0-19.987,8.966-19.987,19.987v10.579h44.321V79.98H69.59c12.738,0,17.258-11.425,17.258-21.209V47.889    C86.848,43.686,83.599,40.237,79.488,39.917z M84.848,58.771c0,8.861-3.996,19.209-15.258,19.209H56.666v9.759H16.345V79.16    c0-9.918,8.069-17.987,17.987-17.987h37.814V50.374h12.702V58.771z"></path><path d="M19.197,39.312c0,9.624,7.83,17.453,17.454,17.453c9.624,0,17.453-7.829,17.453-17.453c0-0.144-0.018-0.284-0.022-0.428    h7.985V25.359c0-2.093-1.709-3.736-3.669-3.736c-0.342,0-0.692,0.05-1.041,0.157c-0.74,0.225-1.554,0.351-2.461,0.351    c-8.828,0-8.828-11.87-17.648-11.87c-8.828,0-8.828,11.87-17.648,11.87c-0.908,0-1.722-0.126-2.463-0.351    c-0.349-0.106-0.698-0.156-1.04-0.156c-1.959,0-3.668,1.643-3.668,3.736v13.524h6.789C19.216,39.028,19.197,39.168,19.197,39.312z     M36.651,54.765c-8.521,0-15.454-6.933-15.454-15.453c0-0.144,0.018-0.284,0.022-0.428h3.724v1.977    c0,2.664,2.174,4.838,4.82,4.838h2.084c2.664,0,4.82-2.174,4.82-4.838v-1.977h15.416c0.004,0.144,0.022,0.284,0.022,0.428    C52.104,47.833,45.172,54.765,36.651,54.765z M14.43,36.884V25.36c0-0.467,0.182-0.907,0.514-1.239    c0.316-0.316,0.737-0.497,1.154-0.497c0.152,0,0.306,0.023,0.458,0.07c0.954,0.29,1.979,0.438,3.045,0.438    c5.415,0,8.077-3.581,10.425-6.74c2.364-3.181,3.978-5.13,7.223-5.13c3.24,0,4.852,1.948,7.215,5.126    c2.35,3.161,5.013,6.744,10.433,6.744c1.066,0,2.09-0.147,3.044-0.438c0.152-0.046,0.306-0.07,0.458-0.07    c0.806,0,1.669,0.698,1.669,1.736v11.525H14.43z"></path><path d="M41.467,24.238c0.301,0.301,0.695,0.451,1.09,0.451s0.789-0.15,1.09-0.451c0.602-0.602,0.602-1.578,0-2.18    c-0.301-0.301-0.695-0.451-1.09-0.451c-0.061,0-0.118,0.028-0.179,0.035c-0.032-0.258-0.128-0.511-0.326-0.709    s-0.451-0.294-0.709-0.326c0.054-0.453-0.069-0.921-0.417-1.269c-0.301-0.301-0.695-0.451-1.09-0.451    c-0.394,0-0.789,0.15-1.09,0.451c-0.602,0.602-0.602,1.578,0,2.18c0.186,0.186,0.41,0.294,0.645,0.365l-2.142,2.142l-2.142-2.142    c0.235-0.071,0.459-0.179,0.645-0.365c0.602-0.602,0.602-1.578,0-2.18c-0.301-0.301-0.695-0.451-1.09-0.451    s-0.789,0.15-1.09,0.451c-0.347,0.347-0.47,0.816-0.417,1.269c-0.258,0.032-0.511,0.128-0.709,0.326    c-0.198,0.198-0.294,0.451-0.326,0.709c-0.061-0.007-0.118-0.035-0.179-0.035c-0.394,0-0.789,0.15-1.09,0.451    c-0.602,0.602-0.602,1.578,0,2.18c0.301,0.301,0.696,0.451,1.09,0.451c0.395,0,0.789-0.15,1.09-0.451    c0.186-0.186,0.294-0.41,0.365-0.645l2.142,2.142l-2.142,2.142c-0.071-0.235-0.179-0.459-0.365-0.645    c-0.301-0.301-0.696-0.451-1.09-0.451c-0.394,0-0.789,0.15-1.09,0.451c-0.602,0.602-0.602,1.578,0,2.18    c0.301,0.301,0.696,0.451,1.09,0.451c0.061,0,0.119-0.028,0.179-0.035c0.032,0.258,0.128,0.511,0.326,0.709    s0.451,0.294,0.709,0.326c-0.054,0.453,0.069,0.922,0.417,1.269c0.301,0.301,0.695,0.451,1.09,0.451s0.789-0.15,1.09-0.451    c0.602-0.602,0.602-1.578,0-2.18c-0.185-0.185-0.41-0.294-0.645-0.365l2.142-2.142l2.142,2.142    c-0.235,0.071-0.46,0.179-0.645,0.365c-0.602,0.602-0.602,1.578,0,2.18c0.301,0.301,0.696,0.451,1.09,0.451    c0.395,0,0.789-0.15,1.09-0.451c0.347-0.347,0.47-0.816,0.417-1.269c0.258-0.032,0.511-0.128,0.709-0.326    c0.198-0.198,0.294-0.451,0.326-0.709c0.06,0.007,0.118,0.035,0.179,0.035c0.395,0,0.789-0.15,1.09-0.451    c0.602-0.602,0.602-1.578,0-2.18c-0.301-0.301-0.695-0.451-1.09-0.451s-0.789,0.15-1.09,0.451    c-0.185,0.185-0.294,0.41-0.365,0.645l-2.142-2.142l2.142-2.142C41.173,23.828,41.282,24.053,41.467,24.238z"></path></g></g></svg>
