<svg height='100px' width='100px' xmlns="http://www.w3.org/2000/svg" version="1.1" x="0px" y="0px" viewBox="0 0 512 512" enable-background="new 0 0 512 512"><g><g><g><path d="M352.174,128.09c-2.209,0-4.035-1.787-4.035-3.997c0-2.209,1.748-3.997,3.949-3.997h0.086     c2.203,0,3.998,1.788,3.998,3.997C356.172,126.303,354.377,128.09,352.174,128.09z"></path></g></g><g><g><path d="M352.174,152.073c-2.209,0-4.035-1.788-4.035-3.997c0-2.21,1.748-3.997,3.949-3.997h0.086     c2.203,0,3.998,1.787,3.998,3.997C356.172,150.285,354.377,152.073,352.174,152.073z"></path></g></g><g><g><path d="M256.016,479.842c-19.838,0-35.975-16.137-35.975-35.975s16.137-35.975,35.975-35.975     c19.837,0,35.974,16.137,35.974,35.975S275.854,479.842,256.016,479.842z M256.016,415.887c-15.427,0-27.98,12.554-27.98,27.98     s12.554,27.98,27.98,27.98c15.427,0,27.98-12.554,27.98-27.98S271.443,415.887,256.016,415.887z"></path></g></g><g><g><path d="M240.027,447.864c-2.209,0-3.997-1.787-3.997-3.997c0-11.023,8.963-19.985,19.986-19.985     c2.208,0,3.998,1.787,3.998,3.996c0,2.21-1.789,3.998-3.998,3.998c-6.613,0-11.992,5.379-11.992,11.991     C244.024,446.077,242.237,447.864,240.027,447.864z"></path></g></g><g><g><path d="M256.016,463.853c-2.21,0-3.998-1.787-3.998-3.996c0-2.21,1.788-3.998,3.998-3.998c6.613,0,11.992-5.379,11.992-11.991     c0-2.209,1.787-3.997,3.996-3.997c2.211,0,3.998,1.788,3.998,3.997C276.002,454.891,267.039,463.853,256.016,463.853z"></path></g></g><g><g><path d="M303.967,511.819h-95.917c-2.209,0-3.997-1.788-3.997-3.997v-63.955c0-28.651,23.312-51.964,51.964-51.964     s51.962,23.312,51.962,51.964l-0.016,63.955C307.963,510.031,306.176,511.819,303.967,511.819z M212.047,503.825h87.922V444.18     c0.016-24.562-19.713-44.281-43.953-44.281c-24.241,0-43.969,19.72-43.969,43.969V503.825z"></path></g></g><g><g><path d="M351.934,487.836h-39.973c-2.209,0-3.998-1.788-3.998-3.997s1.789-3.997,3.998-3.997h39.973     c2.209,0,3.996,1.788,3.996,3.997S354.143,487.836,351.934,487.836z"></path></g></g><g><g><path d="M351.934,503.825h-39.973c-2.209,0-3.998-1.788-3.998-3.998c0-2.209,1.789-3.996,3.998-3.996h39.973     c2.209,0,3.996,1.787,3.996,3.996C355.93,502.037,354.143,503.825,351.934,503.825z"></path></g></g><g><g><path d="M351.934,503.825c-2.211,0-3.998-1.788-3.998-3.998v-15.988c0-2.209,1.787-3.997,3.998-3.997     c2.209,0,3.996,1.788,3.996,3.997v15.988C355.93,502.037,354.143,503.825,351.934,503.825z"></path></g></g><g><g><path d="M200.04,495.831h-23.983c-2.209,0-3.998-1.788-3.998-3.998c0-2.209,1.788-3.997,3.998-3.997h23.983     c2.209,0,3.997,1.788,3.997,3.997C204.037,494.043,202.249,495.831,200.04,495.831z"></path></g></g><g><g><path d="M176.057,503.825h-23.983c-2.209,0-3.997-1.788-3.997-3.998v-15.988c0-2.209,1.788-3.997,3.997-3.997h23.983     c2.209,0,3.997,1.788,3.997,3.997v15.988C180.054,502.037,178.266,503.825,176.057,503.825z M156.071,495.831h15.988v-7.995     h-15.988V495.831z"></path></g></g><g><g><path d="M232.017,391.903c-2.209,0-3.997-1.787-3.997-3.996V76.127c0-2.21,1.788-3.997,3.997-3.997     c2.209,0,3.997,1.787,3.997,3.997v311.78C236.014,390.116,234.227,391.903,232.017,391.903z"></path></g></g><g><g><path d="M279.984,96.112c-2.211,0-3.998-1.787-3.998-3.997V76.127c0-2.21,1.787-3.997,3.998-3.997     c2.209,0,3.996,1.787,3.996,3.997v15.988C283.98,94.325,282.193,96.112,279.984,96.112z"></path></g></g><g><g><path d="M240.011,84.801c-0.538,0-1.077-0.105-1.6-0.336c-16.028-6.999-26.38-22.828-26.38-40.315     c0-24.245,19.728-43.969,43.969-43.969c24.24,0,43.968,19.724,43.968,43.969c0,17.476-10.352,33.297-26.379,40.308     c-1.998,0.89-4.373-0.027-5.262-2.062c-0.883-2.021,0.039-4.376,2.061-5.262c13.115-5.738,21.586-18.686,21.586-32.984     c0-19.838-16.137-35.975-35.974-35.975c-19.838,0-35.975,16.137-35.975,35.975c0,14.311,8.47,27.262,21.586,32.992     c2.022,0.882,2.943,3.24,2.062,5.262C243.017,83.906,241.549,84.801,240.011,84.801z"></path></g></g><g><g><g><path d="M354.836,456.194c-1.686,0-3.254-1.069-3.801-2.764l-2.467-7.604c-0.68-2.101,0.469-4.349,2.568-5.036      c2.092-0.687,4.355,0.469,5.035,2.569l2.467,7.604c0.68,2.1-0.469,4.349-2.568,5.035      C355.664,456.132,355.242,456.194,354.836,456.194z"></path></g></g><g><g><path d="M401.195,436.989c-1.453,0-2.857-0.805-3.561-2.186l-3.623-7.128c-1.006-1.968-0.219-4.372,1.75-5.372      c1.959-0.983,4.379-0.21,5.371,1.749l3.621,7.128c1.008,1.968,0.219,4.38-1.748,5.379      C402.428,436.849,401.805,436.989,401.195,436.989z"></path></g></g><g><g><path d="M443.977,410.766c-1.232,0-2.451-0.578-3.24-1.655l-4.691-6.464c-1.295-1.796-0.891-4.294,0.891-5.59      c1.779-1.296,4.27-0.905,5.59,0.89l4.691,6.48c1.289,1.779,0.891,4.277-0.891,5.574      C445.617,410.516,444.797,410.766,443.977,410.766z"></path></g></g><g><g><path d="M482.131,378.179c-1.023,0-2.055-0.39-2.834-1.171l-5.645-5.667c-1.555-1.562-1.555-4.092,0.008-5.652      c1.561-1.547,4.098-1.562,5.66,0.016l5.643,5.652c1.555,1.561,1.555,4.098-0.008,5.651      C484.176,377.789,483.152,378.179,482.131,378.179z"></path></g></g><g><g><g><path d="M319.869,465.586c-1.857,0-3.529-1.312-3.91-3.2c-0.438-2.171,0.959-4.278,3.121-4.716       c71.053-14.411,135.561-53.478,181.646-109.97c1.396-1.717,3.926-1.967,5.629-0.577c1.709,1.397,1.959,3.919,0.57,5.621       c-47.256,57.928-113.404,97.978-186.252,112.765C320.4,465.555,320.135,465.586,319.869,465.586z"></path></g></g><g><g><path d="M315.826,425.583c-1.844,0-3.498-1.28-3.904-3.146c-0.469-2.154,0.898-4.285,3.053-4.754       c61.871-13.49,117.729-48.419,157.303-98.368c1.375-1.733,3.889-2.015,5.613-0.655c1.732,1.373,2.021,3.888,0.648,5.621       c-40.705,51.385-98.197,87.328-161.863,101.209C316.387,425.552,316.105,425.583,315.826,425.583z"></path></g></g><g><g><path d="M503.826,354.22c-1.023,0-2.047-0.391-2.826-1.171l-28.395-28.395c-1.561-1.562-1.561-4.091,0-5.652       s4.09-1.562,5.652,0l28.395,28.395c1.561,1.562,1.561,4.091,0,5.652C505.871,353.829,504.848,354.22,503.826,354.22z"></path></g></g></g></g><g><g><g><path d="M157.164,456.194c-0.406,0-0.827-0.062-1.233-0.195c-2.1-0.687-3.248-2.936-2.568-5.035l2.467-7.604      c0.679-2.101,2.959-3.256,5.036-2.569c2.1,0.688,3.248,2.936,2.568,5.036l-2.467,7.604      C160.419,455.125,158.85,456.194,157.164,456.194z"></path></g></g><g><g><path d="M110.806,436.989c-0.609,0-1.233-0.141-1.811-0.43c-1.968-0.999-2.756-3.411-1.749-5.379l3.623-7.128      c0.992-1.967,3.412-2.732,5.372-1.749c1.967,1,2.756,3.404,1.749,5.372l-3.623,7.128      C113.663,436.185,112.258,436.989,110.806,436.989z"></path></g></g><g><g><path d="M68.023,410.766c-0.82,0-1.639-0.25-2.35-0.765c-1.78-1.297-2.178-3.795-0.89-5.574l4.692-6.48      c1.312-1.795,3.802-2.186,5.59-0.89c1.78,1.296,2.186,3.794,0.89,5.59l-4.692,6.464      C70.475,410.188,69.257,410.766,68.023,410.766z"></path></g></g><g><g><path d="M29.871,378.179c-1.022,0-2.045-0.39-2.826-1.171c-1.562-1.554-1.562-4.091-0.008-5.651l5.645-5.652      c1.562-1.577,4.099-1.562,5.66-0.016c1.562,1.561,1.562,4.09,0.008,5.652l-5.645,5.667      C31.924,377.789,30.893,378.179,29.871,378.179z"></path></g></g><g><g><g><path d="M192.131,465.586c-0.266,0-0.531-0.031-0.804-0.077C118.48,450.722,52.332,410.672,5.076,352.744       c-1.39-1.702-1.14-4.224,0.57-5.621c1.702-1.39,4.231-1.14,5.629,0.577c46.084,56.492,110.594,95.559,181.645,109.97       c2.163,0.438,3.561,2.545,3.123,4.716C195.66,464.274,193.989,465.586,192.131,465.586z"></path></g></g><g><g><path d="M196.175,425.583c-0.281,0-0.562-0.031-0.851-0.094C131.658,411.608,74.167,375.665,33.462,324.28       c-1.374-1.733-1.085-4.248,0.648-5.621c1.718-1.359,4.239-1.078,5.613,0.655c39.573,49.949,95.433,84.878,157.303,98.368       c2.155,0.469,3.521,2.6,3.053,4.754C199.673,424.303,198.018,425.583,196.175,425.583z"></path></g></g><g><g><path d="M8.175,354.22c-1.023,0-2.046-0.391-2.826-1.171c-1.562-1.562-1.562-4.091,0-5.652l28.394-28.395       c1.562-1.562,4.091-1.562,5.652,0s1.562,4.091,0,5.652l-28.394,28.395C10.22,353.829,9.198,354.22,8.175,354.22z"></path></g></g></g></g><g><g><path d="M256,64.135c-11.023,0-19.986-8.966-19.986-19.985S244.977,24.163,256,24.163c11.023,0,19.986,8.967,19.986,19.986     S267.023,64.135,256,64.135z M256,32.158c-6.613,0-11.992,5.379-11.992,11.991S249.388,56.141,256,56.141     s11.992-5.379,11.992-11.991S262.613,32.158,256,32.158z"></path></g></g><g><g><g><path d="M441.275,339.94c-1.326,0-2.639-0.672-3.396-1.889l-97.094-155.887c-1.164-1.873-0.594-4.337,1.279-5.504      c1.881-1.155,4.342-0.601,5.512,1.28l97.096,155.894c1.164,1.874,0.594,4.334-1.279,5.496      C442.729,339.745,442.002,339.94,441.275,339.94z"></path></g></g><g><g><path d="M368.764,253.774c-1.326,0-2.639-0.667-3.395-1.885l-45.906-73.698c-1.162-1.874-0.594-4.337,1.281-5.504      c1.881-1.159,4.34-0.602,5.512,1.28l45.904,73.698c1.164,1.874,0.594,4.337-1.279,5.504      C370.217,253.58,369.49,253.774,368.764,253.774z"></path></g></g><g><g><path d="M429.324,351.003c-1.328,0-2.639-0.664-3.396-1.881l-51.791-83.16c-1.164-1.874-0.594-4.341,1.279-5.508      c1.881-1.152,4.34-0.598,5.512,1.279l51.791,83.156c1.164,1.874,0.594,4.342-1.279,5.512      C430.775,350.808,430.049,351.003,429.324,351.003z"></path></g></g><g><g><g><path d="M295.973,315.271c-1.805,0-3.436-1.218-3.881-3.045c-0.531-2.139,0.781-4.31,2.928-4.832       c30.361-7.464,57.896-23.477,79.615-46.304c1.539-1.593,4.061-1.651,5.652-0.141c1.602,1.522,1.664,4.052,0.141,5.652       c-22.781,23.937-51.65,40.722-83.504,48.552C296.605,315.239,296.285,315.271,295.973,315.271z M295.973,298.751       c-1.758,0-3.373-1.171-3.857-2.943c-0.578-2.131,0.672-4.325,2.803-4.91c27.293-7.464,51.799-22.609,70.889-43.794       c1.475-1.644,4.004-1.764,5.643-0.297c1.641,1.479,1.773,4.006,0.289,5.645c-20.102,22.324-45.943,38.29-74.713,46.159       C296.674,298.704,296.316,298.751,295.973,298.751z"></path></g></g></g></g><g><g><g><path d="M70.725,339.94c-0.726,0-1.452-0.195-2.116-0.609c-1.874-1.162-2.443-3.622-1.28-5.496l145.304-233.284      c1.179-1.881,3.638-2.428,5.512-1.28c1.874,1.167,2.443,3.63,1.28,5.504L74.121,338.052      C73.364,339.269,72.052,339.94,70.725,339.94z"></path></g></g><g><g><path d="M143.236,253.774c-0.726,0-1.452-0.194-2.115-0.604c-1.874-1.167-2.444-3.63-1.28-5.504l73.3-117.69      c1.179-1.878,3.638-2.436,5.512-1.28c1.873,1.167,2.443,3.63,1.28,5.504l-73.3,117.69      C145.875,253.107,144.563,253.774,143.236,253.774z"></path></g></g><g><g><path d="M82.677,351.003c-0.726,0-1.452-0.195-2.116-0.602c-1.874-1.17-2.444-3.638-1.28-5.512l51.792-83.156      c1.171-1.877,3.646-2.432,5.512-1.279c1.874,1.167,2.443,3.634,1.28,5.508l-51.792,83.16      C85.316,350.339,84.004,351.003,82.677,351.003z"></path></g></g><g><g><g><path d="M216.028,315.271c-0.312,0-0.632-0.031-0.953-0.117c-31.853-7.83-60.723-24.615-83.503-48.552       c-1.522-1.601-1.459-4.13,0.141-5.652c1.6-1.515,4.114-1.46,5.652,0.141c21.719,22.827,49.254,38.84,79.616,46.304       c2.146,0.522,3.458,2.693,2.928,4.832C219.463,314.053,217.832,315.271,216.028,315.271z M216.028,298.751       c-0.343,0-0.703-0.047-1.054-0.141c-28.769-7.869-54.609-23.835-74.713-46.159c-1.483-1.639-1.351-4.165,0.289-5.645       c1.64-1.475,4.169-1.354,5.645,0.297c19.088,21.185,43.594,36.33,70.888,43.794c2.131,0.585,3.38,2.779,2.803,4.91       C219.401,297.58,217.785,298.751,216.028,298.751z"></path></g></g></g></g><g><g><path d="M335.951,116.099h-55.967c-2.211,0-3.998-1.788-3.998-3.997c0-2.21,1.787-3.997,3.998-3.997h55.967     c2.211,0,3.998,1.787,3.998,3.997C339.949,114.311,338.162,116.099,335.951,116.099z"></path></g></g><g><g><path d="M335.951,164.064h-55.959c-2.211,0-3.998-1.787-3.998-3.997c0-2.209,1.787-3.997,3.998-3.997h55.959     c2.211,0,3.998,1.788,3.998,3.997C339.949,162.277,338.162,164.064,335.951,164.064z"></path></g></g><g><g><path d="M256,168.062c-2.21,0-3.998-1.787-3.998-3.997v-55.96c0-2.21,1.788-3.997,3.998-3.997c2.208,0,3.998,1.787,3.998,3.997     v55.96C259.998,166.274,258.209,168.062,256,168.062z"></path></g></g><g><g><path d="M279.984,391.903c-2.211,0-3.998-1.787-3.998-3.996V180.054c0-2.21,1.787-3.997,3.998-3.997     c2.209,0,3.996,1.787,3.996,3.997v207.854C283.98,390.116,282.193,391.903,279.984,391.903z"></path></g></g><g><g><path d="M279.984,112.102H256c-2.21,0-3.998-1.788-3.998-3.997c0-2.21,1.788-3.997,3.998-3.997h23.984     c2.209,0,3.996,1.787,3.996,3.997C283.98,110.313,282.193,112.102,279.984,112.102z"></path></g></g><g><g><path d="M279.984,168.062c-2.211,0-3.998-1.787-3.998-3.997v-7.994c0-2.209,1.787-3.997,3.998-3.997     c2.209,0,3.996,1.788,3.996,3.997v7.994C283.98,166.274,282.193,168.062,279.984,168.062z"></path></g></g><g><g><path d="M279.984,168.062H256c-2.21,0-3.998-1.787-3.998-3.997c0-2.209,1.788-3.997,3.998-3.997h23.984     c2.209,0,3.996,1.788,3.996,3.997C283.98,166.274,282.193,168.062,279.984,168.062z"></path></g></g><g><g><path d="M279.984,120.096c-2.211,0-3.998-1.788-3.998-3.997v-7.994c0-2.21,1.787-3.997,3.998-3.997     c2.209,0,3.996,1.787,3.996,3.997v7.994C283.98,118.308,282.193,120.096,279.984,120.096z"></path></g></g><g><g><path d="M479.842,168.062c-2.209,0-3.996-1.787-3.996-3.997v-55.96c0-2.21,1.787-3.997,3.996-3.997     c2.211,0,3.998,1.787,3.998,3.997v55.96C483.84,166.274,482.053,168.062,479.842,168.062z"></path></g></g><g><g><path d="M343.938,168.062c-2.209,0-3.996-1.787-3.996-3.997v-55.96c0-2.21,1.787-3.997,3.996-3.997     c2.211,0,3.998,1.787,3.998,3.997v55.96C347.936,166.274,346.148,168.062,343.938,168.062z"></path></g></g><g><g><path d="M359.928,168.062h-15.99c-2.209,0-3.996-1.787-3.996-3.997c0-2.209,1.787-3.997,3.996-3.997h15.99     c2.209,0,3.996,1.788,3.996,3.997C363.924,166.274,362.137,168.062,359.928,168.062z"></path></g></g><g><g><path d="M359.928,168.062c-2.211,0-3.998-1.787-3.998-3.997v-55.96c0-2.21,1.787-3.997,3.998-3.997     c2.209,0,3.996,1.787,3.996,3.997v55.96C363.924,166.274,362.137,168.062,359.928,168.062z"></path></g></g><g><g><path d="M359.928,112.102h-15.99c-2.209,0-3.996-1.788-3.996-3.997c0-2.21,1.787-3.997,3.996-3.997h15.99     c2.209,0,3.996,1.787,3.996,3.997C363.924,110.313,362.137,112.102,359.928,112.102z"></path></g></g><g><g><path d="M479.842,120.096h-111.92c-2.209,0-3.998-1.788-3.998-3.997s1.789-3.997,3.998-3.997h111.92     c2.211,0,3.998,1.788,3.998,3.997S482.053,120.096,479.842,120.096z"></path></g></g><g><g><path d="M479.842,160.067h-111.92c-2.209,0-3.998-1.788-3.998-3.997s1.789-3.997,3.998-3.997h111.92     c2.211,0,3.998,1.788,3.998,3.997S482.053,160.067,479.842,160.067z"></path></g></g><g><g><path d="M463.854,136.084h-87.938c-2.209,0-3.998-1.787-3.998-3.997c0-2.209,1.789-3.997,3.998-3.997h87.938     c2.209,0,3.998,1.788,3.998,3.997C467.852,134.297,466.062,136.084,463.854,136.084z"></path></g></g><g><g><path d="M327.949,136.084h-39.971c-2.211,0-3.998-1.787-3.998-3.997c0-2.209,1.787-3.997,3.998-3.997h39.971     c2.209,0,3.998,1.788,3.998,3.997C331.947,134.297,330.158,136.084,327.949,136.084z"></path></g></g><g><g><path d="M256,375.688c-2.21,0-3.998-1.787-3.998-3.997V196.042c0-2.209,1.788-3.997,3.998-3.997c2.208,0,3.998,1.788,3.998,3.997     v175.649C259.998,373.901,258.209,375.688,256,375.688z"></path></g></g></g></svg>
