<svg xmlns="http://www.w3.org/2000/svg" width="100" height="100" viewBox="0 0 100 100"><g transform="translate(50 50) scale(-1 1) rotate(0) translate(-50 -50)"><svg xmlns="http://www.w3.org/2000/svg" viewBox="0 0 100 100" x="0px" y="0px"><path d="M99.78,32.76l-1.42.14c-.6.06-14.47,1.61-19.07,13.18l-7.37-2.61-.78-2.18-7,.75c-7.21-.39-15.34-1.45-16.52-2.55-1.85-1.74-3.38-6.66-1.65-10.73l.78-1.85-1.95.49a27.47,27.47,0,0,0-8.29,3.67,17.41,17.41,0,0,0-6.18,9.58,62.08,62.08,0,0,0-26.43,5.1C3.21,46,.54,47,.5,49.06c0,1.65,1.59,3.06,5.13,4.43A57,57,0,0,0,11.34,57c.33.16,8.27,3.87,16.34,3.46A26.59,26.59,0,0,0,41.13,73.18l1.79.76L42.5,72c-.53-2.36-1.71-8.59-1.37-11.42a83.45,83.45,0,0,0,10.74-.8L60.41,63l2-5.27a85.26,85.26,0,0,0,12.78-4.3,30.84,30.84,0,0,1,3.77.43c1.06,1.69,5.46,8.16,11.93,10l1.37.39-.09-1.42a21.14,21.14,0,0,0-3.86-10.49c2.1-2.5,9.43-11.58,11.1-18.28ZM12.26,55.24a50.21,50.21,0,0,1-5.52-3.41l-.27-.15a13.68,13.68,0,0,1-3.14-1.57c2.06.55,5.48,1.43,9.69,2.4,5.74,1.32,11.18,2.94,12.86,3.45a23.89,23.89,0,0,0,.89,2.54C19.48,58.64,12.28,55.24,12.26,55.24Zm29.53,3.37a3.9,3.9,0,0,1,3.71-2.45A150,150,0,0,0,66.88,54c.82-.16,1.62-.27,2.4-.36A90.86,90.86,0,0,1,41.79,58.61Zm17.46,1.86-3.39-1.28c1.35-.24,2.76-.52,4.21-.85Zm27-8.72-.58.66.58.66A17.71,17.71,0,0,1,90,61.47c-5.7-2.47-9.46-8.89-9.5-9l-.22-.38-.42-.1a35.27,35.27,0,0,0-13.33,0,148.7,148.7,0,0,1-20.89,2.14c-2.89-.17-5.23,1.75-6.27,5.15-.75,2.45.18,8.11.78,11.18A25.7,25.7,0,0,1,27.69,54.95l-.13-.56-.26-.08L28,52.82l.12-.26v-.1l-.68-4.83-.64,4.55-1.32,1.56-.61-.18.75-1.41.13-.24,0-.11-.59-4.17-.55,3.9L23.08,53l-.66-.19L23,51.78l.15-.26,0-.12-.62-4.31-.58,4-1.31,1.27c-2.14-.58-4.62-1.23-7.18-1.82-4.4-1-7.93-1.93-9.93-2.46a6.56,6.56,0,0,1,1.1-.5,60.59,60.59,0,0,1,26.43-4.9l1,.08.09-1c.25-2.91,2.78-7.08,5.52-9.11a22.23,22.23,0,0,1,5.82-2.8c-.95,4.24.49,9,2.73,11.07s15.28,3,17.86,3.1h.08l5.62-.6L70.35,45l10.16,3.59.32-1c3-9,12.47-11.76,16.2-12.53C94.48,42.27,86.35,51.66,86.27,51.76Z"></path><ellipse cx="14.33" cy="48.02" rx="1.21" ry="2.27"></ellipse></svg></g></svg>
