<svg height='100px' width='100px' xmlns="http://www.w3.org/2000/svg" version="1.1" x="0px" y="0px" viewBox="0 0 512 512" enable-background="new 0 0 512 512" xml:space="preserve"><g><g><g><path d="M507.822,291.975H4.178c-2.218,0-3.997-1.787-3.997-3.996c0-2.211,1.779-3.998,3.997-3.998h503.645 c2.209,0,3.997,1.787,3.997,3.998C511.819,290.188,510.031,291.975,507.822,291.975z"></path></g></g><g><g><path d="M491.833,491.834H20.158c-2.209,0-3.997-1.787-3.997-3.998c0-2.209,1.788-3.996,3.997-3.996h471.675 c2.21,0,3.998,1.787,3.998,3.996C495.831,490.047,494.043,491.834,491.833,491.834z"></path></g></g><g><g><path d="M4.178,475.846c-2.218,0-3.997-1.789-3.997-3.998V287.979c0-2.211,1.779-3.998,3.997-3.998 c2.201,0,3.997,1.787,3.997,3.998v183.869C8.175,474.057,6.379,475.846,4.178,475.846z"></path></g></g><g><g><path d="M507.822,475.846c-2.21,0-3.997-1.789-3.997-3.998V287.979c0-2.211,1.787-3.998,3.997-3.998 c2.209,0,3.997,1.787,3.997,3.998v183.869C511.819,474.057,510.031,475.846,507.822,475.846z"></path></g></g><g><g><path d="M76.127,220.026c-1.015,0-2.038-0.387-2.818-1.164L8.955,154.908c-1.569-1.554-1.577-4.087-0.016-5.652 c1.562-1.562,4.091-1.569,5.652-0.016l64.354,63.955c1.569,1.553,1.569,4.087,0.016,5.652 C78.18,219.631,77.157,220.026,76.127,220.026z"></path></g></g><g><g><path d="M82.903,204.052c-1.015,0-2.038-0.386-2.818-1.163l-48.278-47.981c-1.569-1.554-1.569-4.087-0.016-5.652 c1.562-1.562,4.091-1.569,5.652-0.016l48.278,47.981c1.569,1.554,1.569,4.087,0.016,5.652 C84.956,203.658,83.934,204.052,82.903,204.052z"></path></g></g><g><g><path d="M435.67,220.026c-1.03,0-2.054-0.395-2.834-1.179c-1.554-1.565-1.546-4.099,0.016-5.652l64.36-63.955 c1.577-1.565,4.107-1.542,5.652,0.016c1.554,1.565,1.546,4.099-0.016,5.652l-64.36,63.955 C437.708,219.639,436.685,220.026,435.67,220.026z"></path></g></g><g><g><path d="M4.178,147.889c-2.21,0-3.997-1.788-3.997-3.997V64.135c0-2.209,1.787-3.997,3.997-3.997 c2.209,0,3.997,1.788,3.997,3.997v79.757C8.175,146.101,6.387,147.889,4.178,147.889z"></path></g></g><g><g><path d="M507.822,147.889c-2.21,0-3.997-1.788-3.997-3.997V64.135c0-2.209,1.787-3.997,3.997-3.997 c2.209,0,3.997,1.788,3.997,3.997v79.757C511.819,146.101,510.031,147.889,507.822,147.889z"></path></g></g><g><g><path d="M507.822,148.077L507.822,148.077L4.178,147.889c-2.21,0-3.997-1.792-3.997-3.997c0-2.21,1.795-3.998,3.997-3.998l0,0 l503.645,0.188c2.209,0,3.997,1.792,3.997,3.997C511.819,146.289,510.031,148.077,507.822,148.077z"></path></g></g><g><g><path d="M4.178,68.133c-2.21,0-3.997-1.788-3.997-3.998c0-24.244,19.72-43.969,43.969-43.969c2.209,0,3.997,1.788,3.997,3.997 c0,2.209-1.788,3.997-3.997,3.997c-19.838,0-35.975,16.138-35.975,35.975C8.175,66.345,6.387,68.133,4.178,68.133z"></path></g></g><g><g><path d="M507.822,68.133c-2.21,0-3.997-1.788-3.997-3.998c0-19.837-16.137-35.975-35.975-35.975c-2.21,0-3.998-1.788-3.998-3.997 c0-2.209,1.788-3.997,3.998-3.997c24.24,0,43.969,19.725,43.969,43.969C511.819,66.345,510.031,68.133,507.822,68.133z"></path></g></g><g><g><path d="M467.851,28.161H44.149c-2.21,0-3.997-1.788-3.997-3.997c0-2.209,1.787-3.997,3.997-3.997h423.701 c2.209,0,3.997,1.788,3.997,3.997C471.848,26.373,470.06,28.161,467.851,28.161z"></path></g></g><g><g><path d="M500.03,283.98c-1.022,0-2.037-0.391-2.818-1.164l-64.353-63.954c-1.562-1.553-1.569-4.087-0.016-5.652 c1.554-1.562,4.083-1.577,5.652-0.016l64.353,63.956c1.562,1.553,1.569,4.082,0.016,5.652 C502.084,283.59,501.062,283.98,500.03,283.98z"></path></g></g><g><g><path d="M11.766,283.98c-1.022,0-2.045-0.391-2.826-1.178c-1.562-1.57-1.554-4.1,0.016-5.652l64.361-63.956 c1.562-1.565,4.083-1.55,5.652,0.016c1.554,1.565,1.546,4.099-0.016,5.652l-64.361,63.954 C13.812,283.59,12.789,283.98,11.766,283.98z"></path></g></g><g><g><path d="M35.952,283.98c-1.03,0-2.054-0.391-2.834-1.178c-1.554-1.57-1.554-4.1,0.016-5.652l48.224-47.92 c1.562-1.562,4.091-1.554,5.652,0.016c1.562,1.565,1.546,4.099-0.016,5.652l-48.224,47.918 C37.989,283.59,36.967,283.98,35.952,283.98z"></path></g></g><g><g><g><path d="M116.099,267.992H76.127c-2.21,0-3.997-1.789-3.997-3.998s1.787-3.996,3.997-3.996h39.972 c2.209,0,3.997,1.787,3.997,3.996S118.308,267.992,116.099,267.992z"></path></g></g><g><g><path d="M68.133,275.986c-2.21,0-3.998-1.787-3.998-3.998c0-6.611,5.38-11.99,11.992-11.99c2.209,0,3.997,1.787,3.997,3.996 s-1.788,3.998-3.997,3.998c-2.202,0-3.997,1.795-3.997,3.996C72.13,274.199,70.342,275.986,68.133,275.986z"></path></g></g><g><g><path d="M124.093,275.979c-2.217,0-3.997-1.787-3.997-3.998c0-2.209-1.796-3.996-3.997-3.996c-2.217,0-3.997-1.789-3.997-3.998 s1.78-3.996,3.997-3.996c6.604,0,11.991,5.379,11.991,11.99C128.09,274.191,126.295,275.979,124.093,275.979z"></path></g></g></g><g><g><g><path d="M148.076,252.011h-39.972c-2.21,0-3.997-1.788-3.997-3.997s1.787-3.997,3.997-3.997h39.972 c2.209,0,3.997,1.788,3.997,3.997S150.285,252.011,148.076,252.011z"></path></g></g><g><g><path d="M100.109,260.006c-2.209,0-3.997-1.789-3.997-3.998c0-6.613,5.379-11.992,11.992-11.992 c2.209,0,3.997,1.788,3.997,3.997s-1.788,3.997-3.997,3.997c-2.202,0-3.997,1.792-3.997,3.998 C104.107,258.217,102.319,260.006,100.109,260.006z"></path></g></g><g><g><path d="M156.07,259.998c-2.217,0-3.997-1.789-3.997-3.998c0-2.206-1.796-3.998-3.997-3.998c-2.218,0-3.997-1.788-3.997-3.997 s1.779-3.997,3.997-3.997c6.604,0,11.991,5.379,11.991,11.992C160.067,258.209,158.271,259.998,156.07,259.998z"></path></g></g></g><g><g><g><path d="M180.054,236.022h-39.972c-2.218,0-3.998-1.788-3.998-3.997c0-2.209,1.78-3.997,3.998-3.997h39.972 c2.201,0,3.997,1.788,3.997,3.997C184.051,234.234,182.255,236.022,180.054,236.022z"></path></g></g><g><g><path d="M132.087,244.017c-2.217,0-3.997-1.788-3.997-3.998c0-6.612,5.371-11.991,11.992-11.991 c2.201,0,3.997,1.788,3.997,3.997c0,2.209-1.796,3.997-3.997,3.997c-2.21,0-3.998,1.792-3.998,3.997 C136.084,242.229,134.289,244.017,132.087,244.017z"></path></g></g><g><g><path d="M188.04,244.009c-2.209,0-3.997-1.788-3.997-3.998c0-2.205-1.788-3.997-3.997-3.997c-2.21,0-3.997-1.788-3.997-3.997 c0-2.209,1.787-3.997,3.997-3.997c6.612,0,11.991,5.379,11.991,11.991C192.037,242.221,190.249,244.009,188.04,244.009z"></path></g></g></g><g><g><g><path d="M212.031,220.034h-39.973c-2.217,0-3.997-1.788-3.997-3.998s1.78-3.997,3.997-3.997h39.973 c2.201,0,3.997,1.788,3.997,3.997S214.232,220.034,212.031,220.034z"></path></g></g><g><g><path d="M164.064,228.028c-2.217,0-3.997-1.788-3.997-3.997c0-6.613,5.371-11.992,11.991-11.992 c2.202,0,3.998,1.788,3.998,3.997s-1.796,3.998-3.998,3.998c-2.209,0-3.997,1.792-3.997,3.997 C168.062,226.24,166.267,228.028,164.064,228.028z"></path></g></g><g><g><path d="M220.018,228.02c-2.21,0-3.997-1.788-3.997-3.997c0-2.206-1.788-3.997-3.997-3.997c-2.21,0-3.997-1.788-3.997-3.998 s1.787-3.997,3.997-3.997c6.612,0,11.991,5.379,11.991,11.992C224.015,226.232,222.227,228.02,220.018,228.02z"></path></g></g></g><g><g><g><path d="M244.001,204.044h-39.973c-2.209,0-3.997-1.788-3.997-3.997c0-2.209,1.788-3.997,3.997-3.997h39.973 c2.209,0,3.997,1.788,3.997,3.997C247.998,202.257,246.21,204.044,244.001,204.044z"></path></g></g><g><g><path d="M196.034,212.039c-2.209,0-3.997-1.788-3.997-3.997c0-6.613,5.379-11.992,11.991-11.992c2.21,0,3.998,1.788,3.998,3.997 c0,2.209-1.788,3.997-3.998,3.997c-2.209,0-3.997,1.792-3.997,3.998C200.031,210.251,198.244,212.039,196.034,212.039z"></path></g></g><g><g><path d="M251.987,212.031c-2.202,0-3.997-1.788-3.997-3.997c0-2.206-1.788-3.998-3.997-3.998c-2.202,0-3.998-1.788-3.998-3.997 c0-2.209,1.796-3.997,3.998-3.997c6.62,0,11.991,5.379,11.991,11.992C255.984,210.244,254.204,212.031,251.987,212.031z"></path></g></g></g><g><g><g><path d="M275.993,188.056h-39.972c-2.209,0-3.997-1.788-3.997-3.997c0-2.21,1.788-3.998,3.997-3.998h39.972 c2.21,0,3.998,1.788,3.998,3.998C279.991,186.268,278.203,188.056,275.993,188.056z"></path></g></g><g><g><path d="M228.027,196.05c-2.209,0-3.997-1.788-3.997-3.997c0-6.612,5.379-11.992,11.991-11.992c2.21,0,3.997,1.788,3.997,3.998 c0,2.209-1.787,3.997-3.997,3.997c-2.209,0-3.997,1.792-3.997,3.997C232.024,194.262,230.236,196.05,228.027,196.05z"></path></g></g><g><g><path d="M283.979,196.042c-2.209,0-3.996-1.788-3.996-3.997c0-2.206-1.796-3.997-3.998-3.997c-2.209,0-3.997-1.788-3.997-3.997 c0-2.21,1.788-3.998,3.997-3.998c6.613,0,11.992,5.379,11.992,11.992C287.978,194.254,286.189,196.042,283.979,196.042z"></path></g></g></g><g><g><g><path d="M307.947,204.044h-39.972c-2.209,0-3.997-1.788-3.997-3.997c0-2.209,1.788-3.997,3.997-3.997h39.972 c2.21,0,3.997,1.788,3.997,3.997C311.944,202.257,310.157,204.044,307.947,204.044z"></path></g></g><g><g><path d="M259.981,212.039c-2.201,0-3.997-1.788-3.997-3.997c0-6.613,5.387-11.992,11.991-11.992 c2.209,0,3.997,1.788,3.997,3.997c0,2.209-1.788,3.997-3.997,3.997c-2.201,0-3.997,1.792-3.997,3.998 C263.979,210.251,262.198,212.039,259.981,212.039z"></path></g></g><g><g><path d="M315.942,212.031c-2.21,0-3.998-1.788-3.998-3.997c0-2.206-1.795-3.998-3.997-3.998c-2.209,0-3.997-1.788-3.997-3.997 c0-2.209,1.788-3.997,3.997-3.997c6.612,0,11.991,5.379,11.991,11.992C319.938,210.244,318.151,212.031,315.942,212.031z"></path></g></g></g><g><g><g><path d="M275.892,220.034H235.92c-2.209,0-3.997-1.788-3.997-3.998s1.788-3.997,3.997-3.997h39.972 c2.21,0,3.998,1.788,3.998,3.997S278.102,220.034,275.892,220.034z"></path></g></g><g><g><path d="M227.926,228.028c-2.209,0-3.997-1.788-3.997-3.997c0-6.613,5.379-11.992,11.991-11.992c2.21,0,3.997,1.788,3.997,3.997 s-1.787,3.998-3.997,3.998c-2.201,0-3.997,1.792-3.997,3.997C231.923,226.24,230.136,228.028,227.926,228.028z"></path></g></g><g><g><path d="M283.886,228.02c-2.209,0-3.996-1.788-3.996-3.997c0-2.206-1.796-3.997-3.998-3.997c-2.209,0-3.997-1.788-3.997-3.998 s1.788-3.997,3.997-3.997c6.613,0,11.992,5.379,11.992,11.992C287.884,226.232,286.096,228.02,283.886,228.02z"></path></g></g></g><g><g><g><path d="M339.753,220.034h-39.972c-2.209,0-3.997-1.788-3.997-3.998s1.788-3.997,3.997-3.997h39.972 c2.21,0,3.997,1.788,3.997,3.997S341.963,220.034,339.753,220.034z"></path></g></g><g><g><path d="M291.787,228.028c-2.21,0-3.997-1.788-3.997-3.997c0-6.613,5.379-11.992,11.991-11.992c2.21,0,3.997,1.788,3.997,3.997 s-1.787,3.998-3.997,3.998c-2.201,0-3.997,1.792-3.997,3.997C295.784,226.24,293.996,228.028,291.787,228.028z"></path></g></g><g><g><path d="M347.747,228.02c-2.209,0-3.997-1.788-3.997-3.997c0-2.206-1.795-3.997-3.997-3.997c-2.209,0-3.997-1.788-3.997-3.998 s1.788-3.997,3.997-3.997c6.613,0,11.992,5.379,11.992,11.992C351.745,226.232,349.957,228.02,347.747,228.02z"></path></g></g></g><g><g><g><path d="M244.001,236.022h-39.973c-2.209,0-3.997-1.788-3.997-3.997c0-2.209,1.788-3.997,3.997-3.997h39.973 c2.209,0,3.997,1.788,3.997,3.997C247.998,234.234,246.21,236.022,244.001,236.022z"></path></g></g><g><g><path d="M196.034,244.017c-2.209,0-3.997-1.788-3.997-3.998c0-6.612,5.379-11.991,11.991-11.991c2.21,0,3.998,1.788,3.998,3.997 c0,2.209-1.788,3.997-3.998,3.997c-2.209,0-3.997,1.792-3.997,3.997C200.031,242.229,198.244,244.017,196.034,244.017z"></path></g></g><g><g><path d="M251.987,244.009c-2.202,0-3.997-1.788-3.997-3.998c0-2.205-1.788-3.997-3.997-3.997c-2.202,0-3.998-1.788-3.998-3.997 c0-2.209,1.796-3.997,3.998-3.997c6.62,0,11.991,5.379,11.991,11.991C255.984,242.221,254.204,244.009,251.987,244.009z"></path></g></g></g><g><g><g><path d="M307.947,236.022h-39.972c-2.209,0-3.997-1.788-3.997-3.997c0-2.209,1.788-3.997,3.997-3.997h39.972 c2.21,0,3.997,1.788,3.997,3.997C311.944,234.234,310.157,236.022,307.947,236.022z"></path></g></g><g><g><path d="M259.981,244.017c-2.201,0-3.997-1.788-3.997-3.998c0-6.612,5.387-11.991,11.991-11.991 c2.209,0,3.997,1.788,3.997,3.997c0,2.209-1.788,3.997-3.997,3.997c-2.201,0-3.997,1.792-3.997,3.997 C263.979,242.229,262.198,244.017,259.981,244.017z"></path></g></g><g><g><path d="M315.942,244.009c-2.21,0-3.998-1.788-3.998-3.998c0-2.205-1.795-3.997-3.997-3.997c-2.209,0-3.997-1.788-3.997-3.997 c0-2.209,1.788-3.997,3.997-3.997c6.612,0,11.991,5.379,11.991,11.991C319.938,242.221,318.151,244.009,315.942,244.009z"></path></g></g></g><g><g><g><path d="M371.902,236.022h-39.972c-2.209,0-3.997-1.788-3.997-3.997c0-2.209,1.788-3.997,3.997-3.997h39.972 c2.21,0,3.997,1.788,3.997,3.997C375.899,234.234,374.112,236.022,371.902,236.022z"></path></g></g><g><g><path d="M323.937,244.017c-2.21,0-3.998-1.788-3.998-3.998c0-6.612,5.38-11.991,11.992-11.991c2.209,0,3.997,1.788,3.997,3.997 c0,2.209-1.788,3.997-3.997,3.997c-2.201,0-3.997,1.792-3.997,3.997C327.934,242.229,326.146,244.017,323.937,244.017z"></path></g></g><g><g><path d="M379.896,244.009c-2.209,0-3.997-1.788-3.997-3.998c0-2.205-1.795-3.997-3.997-3.997c-2.21,0-3.997-1.788-3.997-3.997 c0-2.209,1.787-3.997,3.997-3.997c6.612,0,11.991,5.379,11.991,11.991C383.894,242.221,382.106,244.009,379.896,244.009z"></path></g></g></g><g><g><g><path d="M212.031,252.011h-39.973c-2.209,0-3.997-1.788-3.997-3.997s1.788-3.997,3.997-3.997h39.973 c2.209,0,3.997,1.788,3.997,3.997S214.24,252.011,212.031,252.011z"></path></g></g><g><g><path d="M164.064,260.006c-2.209,0-3.997-1.789-3.997-3.998c0-6.613,5.379-11.992,11.991-11.992c2.21,0,3.998,1.788,3.998,3.997 s-1.788,3.997-3.998,3.997c-2.201,0-3.997,1.792-3.997,3.998C168.062,258.217,166.274,260.006,164.064,260.006z"></path></g></g><g><g><path d="M220.025,259.998c-2.218,0-3.997-1.789-3.997-3.998c0-2.206-1.796-3.998-3.997-3.998c-2.218,0-3.997-1.788-3.997-3.997 s1.779-3.997,3.997-3.997c6.604,0,11.991,5.379,11.991,11.992C224.022,258.209,222.227,259.998,220.025,259.998z"></path></g></g></g><g><g><g><path d="M275.985,252.011h-39.972c-2.209,0-3.997-1.788-3.997-3.997s1.788-3.997,3.997-3.997h39.972 c2.21,0,3.998,1.788,3.998,3.997S278.195,252.011,275.985,252.011z"></path></g></g><g><g><path d="M228.02,260.006c-2.209,0-3.997-1.789-3.997-3.998c0-6.613,5.379-11.992,11.991-11.992c2.21,0,3.997,1.788,3.997,3.997 s-1.787,3.997-3.997,3.997c-2.201,0-3.997,1.792-3.997,3.998C232.017,258.217,230.229,260.006,228.02,260.006z"></path></g></g><g><g><path d="M283.979,259.998c-2.209,0-3.996-1.789-3.996-3.998c0-2.206-1.796-3.998-3.998-3.998c-2.209,0-3.997-1.788-3.997-3.997 s1.788-3.997,3.997-3.997c6.613,0,11.992,5.379,11.992,11.992C287.978,258.209,286.189,259.998,283.979,259.998z"></path></g></g></g><g><g><g><path d="M339.94,252.011h-39.972c-2.21,0-3.997-1.788-3.997-3.997s1.787-3.997,3.997-3.997h39.972 c2.209,0,3.997,1.788,3.997,3.997S342.149,252.011,339.94,252.011z"></path></g></g><g><g><path d="M291.975,260.006c-2.21,0-3.997-1.789-3.997-3.998c0-6.613,5.379-11.992,11.991-11.992c2.21,0,3.997,1.788,3.997,3.997 s-1.787,3.997-3.997,3.997c-2.202,0-3.997,1.792-3.997,3.998C295.972,258.217,294.184,260.006,291.975,260.006z"></path></g></g><g><g><path d="M347.935,259.998c-2.209,0-3.997-1.789-3.997-3.998c0-2.206-1.796-3.998-3.997-3.998c-2.209,0-3.997-1.788-3.997-3.997 s1.788-3.997,3.997-3.997c6.612,0,11.992,5.379,11.992,11.992C351.933,258.209,350.145,259.998,347.935,259.998z"></path></g></g></g><g><g><g><path d="M403.896,252.011h-39.972c-2.21,0-3.997-1.788-3.997-3.997s1.787-3.997,3.997-3.997h39.972 c2.209,0,3.997,1.788,3.997,3.997S406.104,252.011,403.896,252.011z"></path></g></g><g><g><path d="M355.929,260.006c-2.209,0-3.996-1.789-3.996-3.998c0-6.613,5.379-11.992,11.991-11.992 c2.209,0,3.997,1.788,3.997,3.997s-1.788,3.997-3.997,3.997c-2.202,0-3.997,1.792-3.997,3.998 C359.927,258.217,358.139,260.006,355.929,260.006z"></path></g></g><g><g><path d="M411.89,259.998c-2.209,0-3.997-1.789-3.997-3.998c0-2.206-1.796-3.998-3.997-3.998c-2.209,0-3.997-1.788-3.997-3.997 s1.788-3.997,3.997-3.997c6.612,0,11.991,5.379,11.991,11.992C415.887,258.209,414.099,259.998,411.89,259.998z"></path></g></g></g><g><g><g><path d="M180.054,267.992h-39.972c-2.21,0-3.998-1.789-3.998-3.998s1.788-3.996,3.998-3.996h39.972 c2.209,0,3.997,1.787,3.997,3.996S182.263,267.992,180.054,267.992z"></path></g></g><g><g><path d="M132.087,275.986c-2.209,0-3.997-1.787-3.997-3.998c0-6.611,5.379-11.99,11.992-11.99c2.209,0,3.997,1.787,3.997,3.996 s-1.788,3.998-3.997,3.998c-2.202,0-3.998,1.795-3.998,3.996C136.084,274.199,134.297,275.986,132.087,275.986z"></path></g></g><g><g><path d="M188.048,275.979c-2.217,0-3.997-1.787-3.997-3.998c0-2.209-1.796-3.996-3.997-3.996c-2.218,0-3.997-1.789-3.997-3.998 s1.779-3.996,3.997-3.996c6.604,0,11.991,5.379,11.991,11.99C192.045,274.191,190.249,275.979,188.048,275.979z"></path></g></g></g><g><g><g><path d="M244.009,267.992h-39.973c-2.209,0-3.997-1.789-3.997-3.998s1.788-3.996,3.997-3.996h39.973 c2.209,0,3.997,1.787,3.997,3.996S246.218,267.992,244.009,267.992z"></path></g></g><g><g><path d="M196.042,275.986c-2.217,0-3.997-1.787-3.997-3.998c0-6.611,5.379-11.99,11.991-11.99c2.21,0,3.998,1.787,3.998,3.996 s-1.788,3.998-3.998,3.998c-2.201,0-3.997,1.795-3.997,3.996C200.039,274.199,198.244,275.986,196.042,275.986z"></path></g></g><g><g><path d="M251.995,275.979c-2.21,0-3.997-1.787-3.997-3.998c0-2.209-1.788-3.996-3.997-3.996c-2.21,0-3.998-1.789-3.998-3.998 s1.788-3.996,3.998-3.996c6.612,0,11.991,5.379,11.991,11.99C255.992,274.191,254.204,275.979,251.995,275.979z"></path></g></g></g><g><g><g><path d="M307.963,267.992h-39.972c-2.209,0-3.997-1.789-3.997-3.998s1.788-3.996,3.997-3.996h39.972 c2.21,0,3.997,1.787,3.997,3.996S310.173,267.992,307.963,267.992z"></path></g></g><g><g><path d="M259.989,275.986c-2.209,0-3.997-1.787-3.997-3.998c0-6.611,5.379-11.99,11.999-11.99c2.209,0,3.997,1.787,3.997,3.996 s-1.788,3.998-3.997,3.998s-4.005,1.795-4.005,3.996C263.986,274.199,262.198,275.986,259.989,275.986z"></path></g></g><g><g><path d="M315.942,275.979c-2.21,0-3.998-1.787-3.998-3.998c0-2.209-1.795-3.996-3.997-3.996c-2.209,0-3.997-1.789-3.997-3.998 s1.788-3.996,3.997-3.996c6.612,0,11.991,5.379,11.991,11.99C319.938,274.191,318.151,275.979,315.942,275.979z"></path></g></g></g><g><g><g><path d="M371.918,267.992h-39.972c-2.209,0-3.997-1.789-3.997-3.998s1.788-3.996,3.997-3.996h39.972 c2.21,0,3.997,1.787,3.997,3.996S374.128,267.992,371.918,267.992z"></path></g></g><g><g><path d="M323.937,275.986c-2.21,0-3.998-1.787-3.998-3.998c0-6.611,5.388-11.99,12.008-11.99c2.209,0,3.997,1.787,3.997,3.996 s-1.788,3.998-3.997,3.998s-4.013,1.795-4.013,3.996C327.934,274.199,326.146,275.986,323.937,275.986z"></path></g></g><g><g><path d="M379.896,275.979c-2.209,0-3.997-1.787-3.997-3.998c0-2.209-1.795-3.996-3.997-3.996c-2.21,0-3.997-1.789-3.997-3.998 s1.787-3.996,3.997-3.996c6.612,0,11.991,5.379,11.991,11.99C383.894,274.191,382.106,275.979,379.896,275.979z"></path></g></g></g><g><g><g><path d="M435.873,267.992h-39.972c-2.21,0-3.998-1.789-3.998-3.998s1.788-3.996,3.998-3.996h39.972 c2.209,0,3.997,1.787,3.997,3.996S438.082,267.992,435.873,267.992z"></path></g></g><g><g><path d="M387.892,275.986c-2.21,0-3.998-1.787-3.998-3.998c0-6.611,5.387-11.99,12.008-11.99c2.209,0,3.997,1.787,3.997,3.996 s-1.788,3.998-3.997,3.998c-2.21,0-4.014,1.795-4.014,3.996C391.888,274.199,390.101,275.986,387.892,275.986z"></path></g></g><g><g><path d="M443.852,275.979c-2.209,0-3.997-1.787-3.997-3.998c0-2.209-1.796-3.996-3.997-3.996c-2.21,0-3.997-1.789-3.997-3.998 s1.787-3.996,3.997-3.996c6.612,0,11.991,5.379,11.991,11.99C447.849,274.191,446.062,275.979,443.852,275.979z"></path></g></g></g><g><g><path d="M148.061,220.026H76.127c-2.21,0-3.997-1.788-3.997-3.998s1.787-3.997,3.997-3.997h71.934 c2.209,0,3.997,1.788,3.997,3.997S150.27,220.026,148.061,220.026z"></path></g></g><g><g><path d="M435.67,220.026h-71.746c-2.21,0-3.997-1.788-3.997-3.998s1.787-3.997,3.997-3.997h71.746 c2.209,0,3.997,1.788,3.997,3.997S437.879,220.026,435.67,220.026z"></path></g></g><g><g><path d="M20.166,491.834c-11.023,0-19.985-8.963-19.985-19.986c0-2.209,1.779-3.996,3.997-3.996c2.201,0,3.997,1.787,3.997,3.996 c0,6.613,5.371,11.992,11.991,11.992c2.202,0,3.997,1.787,3.997,3.996C24.163,490.047,22.368,491.834,20.166,491.834z"></path></g></g><g><g><path d="M491.833,491.834c-2.209,0-3.997-1.787-3.997-3.998c0-2.209,1.788-3.996,3.997-3.996c6.613,0,11.992-5.379,11.992-11.992 c0-2.209,1.787-3.996,3.997-3.996c2.209,0,3.997,1.787,3.997,3.996C511.819,482.871,502.856,491.834,491.833,491.834z"></path></g></g><g><g><path d="M180.054,204.052h-97.15c-2.21,0-3.997-1.788-3.997-3.997c0-2.209,1.787-3.997,3.997-3.997h97.15 c2.209,0,3.997,1.788,3.997,3.997C184.051,202.265,182.263,204.052,180.054,204.052z"></path></g></g><g><g><path d="M429.097,204.052c-1.031,0-2.054-0.394-2.834-1.179c-1.554-1.565-1.546-4.099,0.016-5.652l48.278-47.981 c1.562-1.558,4.091-1.55,5.652,0.016c1.554,1.565,1.546,4.099-0.016,5.652l-48.278,47.981 C431.134,203.666,430.119,204.052,429.097,204.052z"></path></g></g><g><g><path d="M429.097,204.052h-97.15c-2.209,0-3.997-1.788-3.997-3.997c0-2.209,1.788-3.997,3.997-3.997h97.15 c2.209,0,3.997,1.788,3.997,3.997C433.094,202.265,431.306,204.052,429.097,204.052z"></path></g></g><g><g><path d="M116.099,236.014H84.121c-2.209,0-3.997-1.788-3.997-3.997c0-2.209,1.788-3.997,3.997-3.997h31.978 c2.201,0,3.997,1.788,3.997,3.997C120.096,234.227,118.3,236.014,116.099,236.014z"></path></g></g><g><g><path d="M475.923,283.98c-1.023,0-2.038-0.391-2.818-1.164l-48.224-47.918c-1.562-1.554-1.577-4.087-0.016-5.652 c1.554-1.565,4.083-1.573,5.652-0.016l48.224,47.92c1.562,1.553,1.569,4.082,0.016,5.652 C477.976,283.59,476.953,283.98,475.923,283.98z"></path></g></g><g><g><path d="M427.754,236.014h-31.97c-2.21,0-3.997-1.788-3.997-3.997c0-2.209,1.787-3.997,3.997-3.997h31.97 c2.209,0,3.997,1.788,3.997,3.997C431.751,234.227,429.963,236.014,427.754,236.014z"></path></g></g><g><g><path d="M283.979,343.938c-2.209,0-3.996-1.787-3.996-3.996c0-13.225-10.759-23.982-23.983-23.982 c-13.226,0-23.983,10.758-23.983,23.982c0,2.209-1.788,3.996-3.997,3.996s-3.997-1.787-3.997-3.996 c0-17.629,14.35-31.979,31.978-31.979c17.636,0,31.978,14.35,31.978,31.979C287.978,342.15,286.189,343.938,283.979,343.938z"></path></g></g><g><g><path d="M267.991,343.938c-2.209,0-3.997-1.787-3.997-3.996c0-4.404-3.591-7.994-7.994-7.994c-4.411,0-7.994,3.59-7.994,7.994 c0,2.209-1.796,3.996-3.997,3.996c-2.218,0-3.998-1.787-3.998-3.996c0-8.822,7.167-15.988,15.989-15.988 c8.813,0,15.988,7.166,15.988,15.988C271.988,342.15,270.2,343.938,267.991,343.938z"></path></g></g><g><g><path d="M228.02,355.93c-2.209,0-3.997-1.787-3.997-3.996v-11.992c0-2.209,1.788-3.998,3.997-3.998s3.997,1.789,3.997,3.998 v11.992C232.017,354.143,230.229,355.93,228.02,355.93z"></path></g></g><g><g><path d="M283.979,355.93c-2.209,0-3.996-1.787-3.996-3.996v-11.992c0-2.209,1.787-3.998,3.996-3.998 c2.21,0,3.998,1.789,3.998,3.998v11.992C287.978,354.143,286.189,355.93,283.979,355.93z"></path></g></g><g><g><path d="M244.009,355.93c-2.21,0-3.998-1.787-3.998-3.996v-11.992c0-2.209,1.788-3.998,3.998-3.998 c2.209,0,3.997,1.789,3.997,3.998v11.992C248.006,354.143,246.218,355.93,244.009,355.93z"></path></g></g><g><g><path d="M267.991,355.93c-2.209,0-3.997-1.787-3.997-3.996v-11.992c0-2.209,1.788-3.998,3.997-3.998s3.997,1.789,3.997,3.998 v11.992C271.988,354.143,270.2,355.93,267.991,355.93z"></path></g></g><g><g><path d="M291.975,363.924h-71.949c-2.218,0-3.997-1.787-3.997-3.996c0-2.211,1.779-3.998,3.997-3.998h71.949 c2.209,0,3.997,1.787,3.997,3.998C295.972,362.137,294.184,363.924,291.975,363.924z"></path></g></g><g><g><path d="M291.975,419.885c-2.21,0-3.997-1.787-3.997-3.998v-55.959c0-2.211,1.787-3.998,3.997-3.998 c2.209,0,3.997,1.787,3.997,3.998v55.959C295.972,418.098,294.184,419.885,291.975,419.885z"></path></g></g><g><g><path d="M291.975,419.885h-71.949c-2.21,0-3.997-1.787-3.997-3.998c0-2.209,1.787-3.996,3.997-3.996h71.949 c2.209,0,3.997,1.787,3.997,3.996C295.972,418.098,294.184,419.885,291.975,419.885z"></path></g></g><g><g><path d="M220.025,419.885c-2.21,0-3.997-1.787-3.997-3.998v-55.959c0-2.211,1.787-3.998,3.997-3.998 c2.209,0,3.997,1.787,3.997,3.998v55.959C224.022,418.098,222.234,419.885,220.025,419.885z"></path></g></g><g><g><path d="M256,395.902c-6.612,0-11.991-5.379-11.991-11.992s5.379-11.992,11.991-11.992s11.991,5.379,11.991,11.992 S262.612,395.902,256,395.902z M256,379.912c-2.202,0-3.997,1.797-3.997,3.998s1.795,3.998,3.997,3.998 c2.201,0,3.997-1.797,3.997-3.998S258.201,379.912,256,379.912z"></path></g></g><g><g><path d="M256,403.896c-2.21,0-3.997-1.789-3.997-3.998v-7.994c0-2.209,1.787-3.996,3.997-3.996c2.209,0,3.997,1.787,3.997,3.996 v7.994C259.997,402.107,258.209,403.896,256,403.896z"></path></g></g><g><g><path d="M283.979,315.959c-2.209,0-3.996-1.789-3.996-3.998v-7.994c0-2.209,1.787-3.998,3.996-3.998 c2.21,0,3.998,1.789,3.998,3.998v7.994C287.978,314.17,286.189,315.959,283.979,315.959z"></path></g></g><g><g><path d="M228.02,315.959c-2.209,0-3.997-1.789-3.997-3.998v-7.994c0-2.209,1.788-3.998,3.997-3.998s3.997,1.789,3.997,3.998 v7.994C232.017,314.17,230.229,315.959,228.02,315.959z"></path></g></g><g><g><path d="M283.979,132.087c-2.209,0-3.996-1.788-3.996-3.997V48.147c0-2.209,1.787-3.997,3.996-3.997 c2.21,0,3.998,1.788,3.998,3.997v79.943C287.978,130.3,286.189,132.087,283.979,132.087z"></path></g></g><g><g><path d="M228.02,132.087c-2.209,0-3.997-1.788-3.997-3.997V48.147c0-2.209,1.788-3.997,3.997-3.997s3.997,1.788,3.997,3.997 v79.943C232.017,130.3,230.229,132.087,228.02,132.087z"></path></g></g><g><g><path d="M283.979,52.144h-55.96c-2.209,0-3.997-1.788-3.997-3.997c0-2.209,1.788-3.997,3.997-3.997h55.96 c2.21,0,3.998,1.788,3.998,3.997C287.978,50.356,286.189,52.144,283.979,52.144z"></path></g></g><g><g><path d="M256,92.116c-2.21,0-3.997-1.788-3.997-3.997V64.135c0-2.209,1.787-3.997,3.997-3.997c2.209,0,3.997,1.788,3.997,3.997 v23.983C259.997,90.328,258.209,92.116,256,92.116z"></path></g></g><g><g><path d="M68.188,132.087c-2.21,0-3.998-1.788-3.998-3.997V40.153c0-2.21,1.788-3.998,3.998-3.998 c2.209,0,3.997,1.788,3.997,3.998v87.938C72.185,130.3,70.396,132.087,68.188,132.087z"></path></g></g><g><g><path d="M116.099,132.087c-2.209,0-3.997-1.788-3.997-3.997V40.153c0-2.21,1.788-3.998,3.997-3.998s3.997,1.788,3.997,3.998 v87.938C120.096,130.3,118.308,132.087,116.099,132.087z"></path></g></g><g><g><path d="M92.115,76.127c-6.612,0-11.991-5.379-11.991-11.992c0-6.612,5.379-11.991,11.991-11.991s11.992,5.379,11.992,11.991 C104.107,70.748,98.728,76.127,92.115,76.127z M92.115,60.138c-2.201,0-3.997,1.792-3.997,3.997c0,2.206,1.796,3.998,3.997,3.998 c2.202,0,3.997-1.792,3.997-3.998C96.112,61.93,94.317,60.138,92.115,60.138z"></path></g></g><g><g><path d="M92.115,116.099c-6.612,0-11.991-5.379-11.991-11.992s5.379-11.992,11.991-11.992s11.992,5.379,11.992,11.992 S98.728,116.099,92.115,116.099z M92.115,100.11c-2.201,0-3.997,1.792-3.997,3.998s1.796,3.997,3.997,3.997 c2.202,0,3.997-1.792,3.997-3.997S94.317,100.11,92.115,100.11z"></path></g></g><g><g><path d="M68.188,475.846c-2.21,0-3.998-1.789-3.998-3.998V303.967c0-2.209,1.788-3.998,3.998-3.998 c2.209,0,3.997,1.789,3.997,3.998v167.881C72.185,474.057,70.396,475.846,68.188,475.846z"></path></g></g><g><g><path d="M116.099,475.846c-2.209,0-3.997-1.789-3.997-3.998V303.967c0-2.209,1.788-3.998,3.997-3.998s3.997,1.789,3.997,3.998 v167.881C120.096,474.057,118.308,475.846,116.099,475.846z"></path></g></g><g><g><path d="M92.115,339.941c-6.612,0-11.991-5.379-11.991-11.992c0-6.611,5.379-11.99,11.991-11.99s11.992,5.379,11.992,11.99 C104.107,334.562,98.728,339.941,92.115,339.941z M92.115,323.953c-2.201,0-3.997,1.795-3.997,3.996s1.796,3.998,3.997,3.998 c2.202,0,3.997-1.797,3.997-3.998S94.317,323.953,92.115,323.953z"></path></g></g><g><g><path d="M92.115,379.912c-6.612,0-11.991-5.379-11.991-11.99c0-6.613,5.379-11.992,11.991-11.992s11.992,5.379,11.992,11.992 C104.107,374.533,98.728,379.912,92.115,379.912z M92.115,363.924c-2.201,0-3.997,1.797-3.997,3.998s1.796,3.996,3.997,3.996 c2.202,0,3.997-1.795,3.997-3.996S94.317,363.924,92.115,363.924z"></path></g></g><g><g><path d="M92.115,419.885c-6.612,0-11.991-5.379-11.991-11.992c0-6.611,5.379-11.99,11.991-11.99s11.992,5.379,11.992,11.99 C104.107,414.506,98.728,419.885,92.115,419.885z M92.115,403.896c-2.201,0-3.997,1.795-3.997,3.996 c0,2.203,1.796,3.998,3.997,3.998c2.202,0,3.997-1.795,3.997-3.998C96.112,405.691,94.317,403.896,92.115,403.896z"></path></g></g><g><g><path d="M92.115,459.857c-6.612,0-11.991-5.381-11.991-11.992c0-6.613,5.379-11.992,11.991-11.992s11.992,5.379,11.992,11.992 C104.107,454.477,98.728,459.857,92.115,459.857z M92.115,443.867c-2.201,0-3.997,1.797-3.997,3.998s1.796,3.996,3.997,3.996 c2.202,0,3.997-1.795,3.997-3.996S94.317,443.867,92.115,443.867z"></path></g></g><g><g><path d="M395.925,475.846c-2.21,0-3.998-1.789-3.998-3.998V303.967c0-2.209,1.788-3.998,3.998-3.998 c2.209,0,3.997,1.789,3.997,3.998v167.881C399.922,474.057,398.134,475.846,395.925,475.846z"></path></g></g><g><g><path d="M443.836,475.846c-2.209,0-3.997-1.789-3.997-3.998V303.967c0-2.209,1.788-3.998,3.997-3.998 c2.21,0,3.997,1.789,3.997,3.998v167.881C447.833,474.057,446.046,475.846,443.836,475.846z"></path></g></g><g><g><path d="M419.853,339.941c-6.612,0-11.991-5.379-11.991-11.992c0-6.611,5.379-11.99,11.991-11.99 c6.613,0,11.992,5.379,11.992,11.99C431.845,334.562,426.466,339.941,419.853,339.941z M419.853,323.953 c-2.201,0-3.997,1.795-3.997,3.996s1.796,3.998,3.997,3.998c2.202,0,3.998-1.797,3.998-3.998S422.055,323.953,419.853,323.953z"></path></g></g><g><g><path d="M419.853,379.912c-6.612,0-11.991-5.379-11.991-11.99c0-6.613,5.379-11.992,11.991-11.992 c6.613,0,11.992,5.379,11.992,11.992C431.845,374.533,426.466,379.912,419.853,379.912z M419.853,363.924 c-2.201,0-3.997,1.797-3.997,3.998s1.796,3.996,3.997,3.996c2.202,0,3.998-1.795,3.998-3.996S422.055,363.924,419.853,363.924z"></path></g></g><g><g><path d="M419.853,419.885c-6.612,0-11.991-5.379-11.991-11.992c0-6.611,5.379-11.99,11.991-11.99 c6.613,0,11.992,5.379,11.992,11.99C431.845,414.506,426.466,419.885,419.853,419.885z M419.853,403.896 c-2.201,0-3.997,1.795-3.997,3.996c0,2.203,1.796,3.998,3.997,3.998c2.202,0,3.998-1.795,3.998-3.998 C423.851,405.691,422.055,403.896,419.853,403.896z"></path></g></g><g><g><path d="M419.853,459.857c-6.612,0-11.991-5.381-11.991-11.992c0-6.613,5.379-11.992,11.991-11.992 c6.613,0,11.992,5.379,11.992,11.992C431.845,454.477,426.466,459.857,419.853,459.857z M419.853,443.867 c-2.201,0-3.997,1.797-3.997,3.998s1.796,3.996,3.997,3.996c2.202,0,3.998-1.795,3.998-3.996S422.055,443.867,419.853,443.867z"></path></g></g><g><g><path d="M395.956,132.087c-2.21,0-3.998-1.788-3.998-3.997V40.153c0-2.21,1.788-3.998,3.998-3.998 c2.209,0,3.997,1.788,3.997,3.998v87.938C399.953,130.3,398.165,132.087,395.956,132.087z"></path></g></g><g><g><path d="M443.867,132.087c-2.209,0-3.997-1.788-3.997-3.997V40.153c0-2.21,1.788-3.998,3.997-3.998 c2.21,0,3.997,1.788,3.997,3.998v87.938C447.864,130.3,446.077,132.087,443.867,132.087z"></path></g></g><g><g><path d="M419.884,76.127c-6.612,0-11.991-5.379-11.991-11.992c0-6.612,5.379-11.991,11.991-11.991 c6.613,0,11.992,5.379,11.992,11.991C431.876,70.748,426.497,76.127,419.884,76.127z M419.884,60.138 c-2.201,0-3.997,1.792-3.997,3.997c0,2.206,1.796,3.998,3.997,3.998c2.202,0,3.998-1.792,3.998-3.998 C423.882,61.93,422.086,60.138,419.884,60.138z"></path></g></g><g><g><path d="M419.884,116.099c-6.612,0-11.991-5.379-11.991-11.992s5.379-11.992,11.991-11.992c6.613,0,11.992,5.379,11.992,11.992 S426.497,116.099,419.884,116.099z M419.884,100.11c-2.201,0-3.997,1.792-3.997,3.998s1.796,3.997,3.997,3.997 c2.202,0,3.998-1.792,3.998-3.997S422.086,100.11,419.884,100.11z"></path></g></g></g></svg>
