<svg height='100px' width='100px' xmlns="http://www.w3.org/2000/svg" viewBox="0 0 64 64" x="0px" y="0px"><path d="M62,31c0-6.5-14.427-10-28-10-9.523,0-19.458,1.727-24.545,5H2v2H7.144A4.743,4.743,0,0,0,6,31c0,.03.007.059.008.089A5.273,5.273,0,0,0,4,35c0,.045.008.089.009.134A5.225,5.225,0,0,0,2,39c0,4.64,7.388,7.562,15.267,8.951a3.947,3.947,0,0,1-.595.049H14v2h2.672a6.006,6.006,0,0,0,2.977-.791l3.367-1.923a4.016,4.016,0,0,1,3.968,0l2.039,1.164a6.016,6.016,0,0,0,5.954,0l2.039-1.164a4.014,4.014,0,0,1,3.968,0l3.367,1.923A6.006,6.006,0,0,0,47.328,50H50V48H47.328a4.021,4.021,0,0,1-1.985-.527l-.058-.033A29.193,29.193,0,0,0,54.458,44H62V42H56.8A4.7,4.7,0,0,0,58,39c0-.03-.007-.059-.008-.089A5.273,5.273,0,0,0,60,35c0-.045-.008-.089-.009-.133A5.232,5.232,0,0,0,62,31ZM42.648,45.933l-.671-.383a6.016,6.016,0,0,0-5.954,0l-2.039,1.164a4.019,4.019,0,0,1-3.968,0L27.977,45.55a6.016,6.016,0,0,0-5.954,0l-1.517.866C9.673,45.039,4,41.659,4,39a2.748,2.748,0,0,1,.679-1.656C7.68,42.334,20.163,45,32,45c8.789,0,17.931-1.471,23.287-4.271C53.592,42.839,48.945,44.8,42.648,45.933ZM32,43C16.678,43,6,38.784,6,35s10.678-8,26-8,26,4.216,26,8S47.322,43,32,43ZM59.321,32.656C56.32,27.666,43.837,25,32,25c-8.788,0-17.928,1.471-23.284,4.27C11.34,26.037,21,23,34,23c15.322,0,26,4.216,26,8A2.75,2.75,0,0,1,59.321,32.656Z"></path><path d="M32,27.833c-9.695,0-20,2.57-20,7.334S22.305,42.5,32,42.5s20-2.57,20-7.333S41.7,27.833,32,27.833ZM27.091,39.5c.47-.37,2.145-1,4.909-1s4.439.63,4.909,1c-.47.37-2.145,1-4.909,1S27.561,39.87,27.091,39.5Zm11.885.225A1.822,1.822,0,0,0,39,39.5c0-2.072-3.516-3-7-3s-7,.928-7,3a1.822,1.822,0,0,0,.024.225C22.394,39.057,21,38.108,21,37.5c0-1.019,3.883-3,11-3s11,1.981,11,3C43,38.108,41.606,39.057,38.976,39.725Zm5.595-.867A2.5,2.5,0,0,0,45,37.5c0-3.282-6.54-5-13-5s-13,1.718-13,5a2.5,2.5,0,0,0,.429,1.358C15.947,37.776,14,36.349,14,35.167c0-2.228,6.848-5.334,18-5.334s18,3.106,18,5.334C50,36.349,48.053,37.776,44.571,38.858Z"></path><path d="M23.016,15.286a4.016,4.016,0,0,1,3.968,0l2.039,1.164a6.016,6.016,0,0,0,5.954,0l2.039-1.164a4.014,4.014,0,0,1,3.968,0l3.367,1.923A6.006,6.006,0,0,0,47.328,18H50V16H47.328a4.021,4.021,0,0,1-1.985-.527L41.977,13.55a6.016,6.016,0,0,0-5.954,0l-2.039,1.164a4.019,4.019,0,0,1-3.968,0L27.977,13.55a6.016,6.016,0,0,0-5.954,0l-3.366,1.923A4.021,4.021,0,0,1,16.672,16H14v2h2.672a6.006,6.006,0,0,0,2.977-.791Z"></path><path d="M18.326,53.43l-1.239-.743a5.985,5.985,0,0,0-6.173,0l-1.241.743A4,4,0,0,1,7.615,54H5v2H7.615a5.993,5.993,0,0,0,3.086-.855l1.241-.744a4,4,0,0,1,4.117,0l1.239.744A6,6,0,0,0,20.385,56H25V54H20.385A4,4,0,0,1,18.326,53.43Z"></path><path d="M54.326,53.43l-1.239-.743a5.985,5.985,0,0,0-6.173,0l-1.241.743a4,4,0,0,1-2.058.57H39v2h4.615a5.993,5.993,0,0,0,3.086-.855l1.241-.744a4,4,0,0,1,4.117,0l1.239.744A6,6,0,0,0,56.385,56H59V54H56.385A4,4,0,0,1,54.326,53.43Z"></path><rect x="52" y="16" width="2" height="2"></rect><rect x="56" y="16" width="4" height="2"></rect><rect x="5" y="16" width="5" height="2"></rect></svg>
