<svg height='100px' width='100px' xmlns="http://www.w3.org/2000/svg" version="1.1" x="0px" y="0px" viewBox="0 0 66.875 69.102"><g><polyline fill="none" stroke="#000000" stroke-width="2" stroke-linecap="round" stroke-linejoin="round" stroke-miterlimit="10" points="   10.007,34.249 10.007,58.249 15.007,58.249 15.007,34.249  "></polyline><polyline fill="none" stroke="#000000" stroke-width="2" stroke-linecap="round" stroke-linejoin="round" stroke-miterlimit="10" points="24.012,34.249 24.012,58.249 29.012,58.249 29.012,34.249"></polyline><polyline fill="none" stroke="#000000" stroke-width="2" stroke-linecap="round" stroke-linejoin="round" stroke-miterlimit="10" points="   38.02,34.249 38.02,58.249 43.02,58.249 43.02,34.249  "></polyline><polyline fill="none" stroke="#000000" stroke-width="2" stroke-linecap="round" stroke-linejoin="round" stroke-miterlimit="10" points="  52.025,34.249 52.025,58.249 57.025,58.249 57.025,34.249  "></polyline><rect x="5.989" y="58.249" fill="none" stroke="#000000" stroke-width="2" stroke-linecap="round" stroke-linejoin="round" stroke-miterlimit="10" width="55.036" height="4.998"></rect><polyline fill="none" stroke="#000000" stroke-width="2" stroke-linecap="round" stroke-linejoin="round" stroke-miterlimit="10" points="  61.025,29.251 61.025,34.249 5.989,34.249 5.989,29.251  "></polyline><polyline fill="none" stroke="#000000" stroke-width="2" stroke-linecap="round" stroke-linejoin="round" stroke-miterlimit="10" points="  5.989,29.251 33.507,19.099 61.025,29.251  "></polyline><line fill="none" stroke="#000000" stroke-width="2" stroke-linecap="round" stroke-linejoin="round" stroke-miterlimit="10" x1="33.507" y1="19.099" x2="33.507" y2="5.91"></line><rect x="33.507" y="5.91" fill="none" stroke="#000000" stroke-width="2" stroke-linecap="round" stroke-linejoin="round" stroke-miterlimit="10" width="6" height="7.095"></rect><rect x="39.507" y="7.91" fill="none" stroke="#000000" stroke-width="2" stroke-linecap="round" stroke-linejoin="round" stroke-miterlimit="10" width="6" height="7.095"></rect></g></svg>
