<svg height='100px' width='100px' xmlns="http://www.w3.org/2000/svg" viewBox="0 0 32 32" version="1.1" x="0px" y="0px"><g transform="translate(1.5,-916) scale(0.90)"><path d="m 20,1033.8622 0,0.5 0,5 11,0 0.5,0 0.5,0 0,-5.5 -3,0 0,1 c 0,0.4202 -0.32986,0.75 -0.75,0.75 -0.42014,0 -0.75,-0.3298 -0.75,-0.75 l 0,-1 -3,0 0,1 c 0,0.4202 -0.32986,0.75 -0.75,0.75 -0.42014,0 -0.75,-0.3298 -0.75,-0.75 l 0,-1 z m 1,1 1,0 c 0,0.9606 0.78942,1.75 1.75,1.75 0.96058,0 1.75,-0.7894 1.75,-1.75 l 1,0 c 0,0.9606 0.78942,1.75 1.75,1.75 0.96058,0 1.75,-0.7894 1.75,-1.75 l 1,0 0,3.5 -10,0 z"></path><path d="m 0,1033.8622 0,0.5 0,5 11,0 0.5,0 0.5,0 0,-5.5 -3,0 0,1 c 0,0.4202 -0.32986,0.75 -0.75,0.75 -0.42014,0 -0.75,-0.3298 -0.75,-0.75 l 0,-1 -3,0 0,1 c 0,0.4202 -0.32986,0.75 -0.75,0.75 -0.42014,0 -0.75,-0.3298 -0.75,-0.75 l 0,-1 z m 1,1 1,0 c 0,0.9606 0.78942,1.75 1.75,1.75 0.96058,0 1.75,-0.7894 1.75,-1.75 l 1,0 c 0,0.9606 0.78942,1.75 1.75,1.75 0.96058,0 1.75,-0.7894 1.75,-1.75 l 1,0 0,3.5 -10,0 z"></path><path d="m 16,1023.0536 -6,7.6368 0,3.6718 1,0 0,-3.3261 5,-6.3633 5,6.3633 0,3.3261 1,0 0,-3.6718 z"></path><path d="m 9.5,1030.3622 0,1 13,0 0,-1 z"></path><path d="m 15.5,1020.3622 0,4 6.5,0 -2.66602,-2 2.66602,-2 z m 1,1 2.5,0 -1.33398,1 1.33203,1 -2.49805,0 z"></path><path d="m 1,1038.8622 0,13.5 30,0 0,-13.5 -1,0 0,12.5 -28,0 0,-12.5 z"></path><path d="m 16,1044.3622 c -1.93009,0 -3.5,1.5908 -3.5,3.5332 l 0,3.9668 1,0 0,-3.9668 c 0,-1.4079 1.11637,-2.5332 2.5,-2.5332 1.38363,0 2.5,1.1253 2.5,2.5332 l 0,3.9668 1,0 0,-3.9668 c 0,-1.9424 -1.56991,-3.5332 -3.5,-3.5332 z"></path><path d="m 16,1032.8622 c -1.11214,0 -2.00001,0.949 -2,2.0762 l 0,1.9238 0.5,0 3.5,0 0,-1.9238 c 0,-1.1272 -0.88786,-2.0762 -2,-2.0762 z m 0,1 c 0.54472,0 1,0.4636 1,1.0762 l 0,0.9238 -2,0 0,-0.9238 c -10e-6,-0.6126 0.45528,-1.0762 1,-1.0762 z"></path><path d="m 10,1038.8622 0,13 1,0 0,-13 z m 11,0 0,13 1,0 0,-13 z"></path><path d="m 16,1037.8622 c -1.11214,0 -2,0.949 -2,2.0762 l 0,1.9238 0.5,0 3.5,0 0,-1.9238 c 0,-1.1272 -0.88786,-2.0762 -2,-2.0762 z m 0,1 c 0.54472,0 1,0.4636 1,1.0762 l 0,0.9238 -2,0 0,-0.9238 c 0,-0.6126 0.45528,-1.0762 1,-1.0762 z"></path><path d="m 6,1041.3622 c -1.11214,0 -2,0.949 -2,2.0762 l 0,1.9238 0.5,0 3.5,0 0,-1.9238 c 0,-1.1272 -0.88786,-2.0762 -2,-2.0762 z m 0,1 c 0.54472,0 1,0.4636 1,1.0762 l 0,0.9238 -2,0 0,-0.9238 c 0,-0.6126 0.45528,-1.0762 1,-1.0762 z"></path><path d="m 26,1041.3622 c -1.11214,0 -2,0.949 -2,2.0762 l 0,1.9238 0.5,0 3.5,0 0,-1.9238 c 0,-1.1272 -0.88786,-2.0762 -2,-2.0762 z m 0,1 c 0.54472,0 1,0.4636 1,1.0762 l 0,0.9238 -2,0 0,-0.9238 c 0,-0.6126 0.45528,-1.0762 1,-1.0762 z"></path></g></svg>
