<svg height='100px' width='100px' xmlns="http://www.w3.org/2000/svg" viewBox="0 0 64 64" x="0px" y="0px"><g transform="scale(0.95) translate(1.5 2)"><path d="M11.09,36.55a.91.91,0,0,0,.91-.91V16.55H31.09v5.07l-1.17-1.17a.91.91,0,0,0-1.29,0,.89.89,0,0,0,0,1.28l2.73,2.73h0a1,1,0,0,0,.29.2.91.91,0,0,0,.7,0,1,1,0,0,0,.29-.2h0l2.73-2.73a.89.89,0,0,0,0-1.28.91.91,0,0,0-1.29,0l-1.17,1.17V4.73H51.09V8.9L49.92,7.72a.92.92,0,0,0-1.29,0,.91.91,0,0,0,0,1.29l2.73,2.72h0a1.12,1.12,0,0,0,.29.19.91.91,0,0,0,.7,0,1.12,1.12,0,0,0,.29-.19h0L55.37,9a.91.91,0,0,0,0-1.29.92.92,0,0,0-1.29,0L52.91,8.9V3.82A.91.91,0,0,0,52,2.91H32a.91.91,0,0,0-.91.91V14.73h-20a.91.91,0,0,0-.91.91v20A.91.91,0,0,0,11.09,36.55Z"></path><path d="M12,37.45c-2.13,0-9.09.2-9.09,2.73V58.36c0,2.53,7,2.73,9.09,2.73s9.09-.2,9.09-2.73V40.18C21.09,37.65,14.13,37.45,12,37.45Zm7.27,14.36c-.54.41-3.08,1.1-7.27,1.1s-6.73-.69-7.27-1.1V48.35a24.57,24.57,0,0,0,7.27.92,24.57,24.57,0,0,0,7.27-.92Zm0-5.45c-.54.4-3.08,1.09-7.27,1.09s-6.73-.69-7.27-1.09V42a24.29,24.29,0,0,0,7.27.93A24.29,24.29,0,0,0,19.27,42ZM12,39.27a20.42,20.42,0,0,1,6.92.91,20.42,20.42,0,0,1-6.92.91,20.42,20.42,0,0,1-6.92-.91A20.42,20.42,0,0,1,12,39.27ZM4.73,58.17V53.8a24.29,24.29,0,0,0,7.27.93,24.29,24.29,0,0,0,7.27-.93v4.37c-.54.41-3.08,1.1-7.27,1.1S5.27,58.58,4.73,58.17Z"></path><path d="M32,26.55c-2.13,0-9.09.19-9.09,2.72V58.36c0,2.53,7,2.73,9.09,2.73s9.09-.2,9.09-2.73V29.27C41.09,26.74,34.13,26.55,32,26.55Zm7.27,26.17c-.54.41-3.08,1.1-7.27,1.1s-6.73-.69-7.27-1.1V49.26a24.57,24.57,0,0,0,7.27.92,24.57,24.57,0,0,0,7.27-.92Zm0-5.45c-.54.4-3.08,1.09-7.27,1.09s-6.73-.69-7.27-1.09V42.89a24.29,24.29,0,0,0,7.27.93,24.29,24.29,0,0,0,7.27-.93Zm0-6.37c-.54.41-3.08,1.1-7.27,1.1s-6.73-.69-7.27-1.1V37.44a24.57,24.57,0,0,0,7.27.92,24.57,24.57,0,0,0,7.27-.92Zm0-5.45c-.54.4-3.08,1.1-7.27,1.1s-6.73-.7-7.27-1.1V31.08A24.57,24.57,0,0,0,32,32a24.57,24.57,0,0,0,7.27-.92ZM32,28.36a20.42,20.42,0,0,1,6.92.91,20.42,20.42,0,0,1-6.92.91,20.42,20.42,0,0,1-6.92-.91A20.42,20.42,0,0,1,32,28.36ZM24.73,58.17V54.71a24.62,24.62,0,0,0,7.27.93,24.62,24.62,0,0,0,7.27-.93v3.46c-.54.41-3.08,1.1-7.27,1.1S25.27,58.58,24.73,58.17Z"></path><path d="M52,14.73c-2.13,0-9.09.19-9.09,2.72V58.36c0,2.53,7,2.73,9.09,2.73s9.09-.2,9.09-2.73V17.45C61.09,14.92,54.13,14.73,52,14.73Zm7.27,37.08c-.54.41-3.08,1.1-7.27,1.1s-6.73-.69-7.27-1.1V48.35a24.57,24.57,0,0,0,7.27.92,24.57,24.57,0,0,0,7.27-.92Zm0-5.45c-.54.4-3.08,1.09-7.27,1.09s-6.73-.69-7.27-1.09V42.89a24.29,24.29,0,0,0,7.27.93,24.29,24.29,0,0,0,7.27-.93Zm0-5.46c-.54.41-3.08,1.1-7.27,1.1s-6.73-.69-7.27-1.1V37.44a24.57,24.57,0,0,0,7.27.92,24.57,24.57,0,0,0,7.27-.92Zm0-5.45c-.54.4-3.08,1.1-7.27,1.1s-6.73-.7-7.27-1.1V31.08A24.57,24.57,0,0,0,52,32a24.57,24.57,0,0,0,7.27-.92Zm0-6.37c-.54.41-3.08,1.1-7.27,1.1s-6.73-.69-7.27-1.1V25.62a24.62,24.62,0,0,0,7.27.93,24.62,24.62,0,0,0,7.27-.93Zm0-5.45c-.54.4-3.08,1.1-7.27,1.1s-6.73-.7-7.27-1.1V19.26a24.57,24.57,0,0,0,7.27.92,24.57,24.57,0,0,0,7.27-.92ZM52,16.55a20.51,20.51,0,0,1,6.92.9,20.42,20.42,0,0,1-6.92.91,20.42,20.42,0,0,1-6.92-.91A20.51,20.51,0,0,1,52,16.55ZM44.73,58.17V53.8a24.29,24.29,0,0,0,7.27.93,24.29,24.29,0,0,0,7.27-.93v4.37c-.54.41-3.08,1.1-7.27,1.1S45.27,58.58,44.73,58.17Z"></path></g></svg>
