<svg height='100px' width='100px' xmlns="http://www.w3.org/2000/svg" viewBox="0 0 60 60" version="1.1" x="0px" y="0px"><g stroke-width="1" fill="none"><g transform="translate(-960.000000, -351.000000)"><g transform="translate(961.000000, 352.000000)"><polygon stroke="#000000" stroke-width="2" stroke-linejoin="round" points="14 18 44 18 44 11 14 11"></polygon><polygon stroke="#000000" stroke-width="2" stroke-linejoin="round" points="14 58 44 58 44 18 14 18"></polygon><polygon stroke="#000000" stroke-width="2" stroke-linejoin="round" points="44 11.0005 14 11.0005 11 5.0005 47 5.0005"></polygon><polygon stroke="#000000" stroke-width="2" stroke-linejoin="round" points="11 5 15 5 15 -1.13686838e-13 11 -1.13686838e-13"></polygon><polygon stroke="#000000" stroke-width="2" stroke-linejoin="round" points="19 5 23 5 23 -1.13686838e-13 19 -1.13686838e-13"></polygon><polygon stroke="#000000" stroke-width="2" stroke-linejoin="round" points="35 5 39 5 39 -1.13686838e-13 35 -1.13686838e-13"></polygon><polygon stroke="#000000" stroke-width="2" stroke-linejoin="round" points="27 5 31 5 31 -1.13686838e-13 27 -1.13686838e-13"></polygon><polygon stroke="#000000" stroke-width="2" stroke-linejoin="round" points="43 5 47 5 47 -1.13686838e-13 43 -1.13686838e-13"></polygon><path d="M19,18.0005 L19,15.0005" stroke="#000000" stroke-width="2" stroke-linecap="round" stroke-linejoin="round"></path><path d="M2,43.0005 L2,40.0005" stroke="#000000" stroke-width="2" stroke-linecap="round" stroke-linejoin="round"></path><path d="M6,43.0005 L6,40.0005" stroke="#000000" stroke-width="2" stroke-linecap="round" stroke-linejoin="round"></path><path d="M10,43.0005 L10,40.0005" stroke="#000000" stroke-width="2" stroke-linecap="round" stroke-linejoin="round"></path><path d="M48,43.0005 L48,40.0005" stroke="#000000" stroke-width="2" stroke-linecap="round" stroke-linejoin="round"></path><path d="M52,43.0005 L52,40.0005" stroke="#000000" stroke-width="2" stroke-linecap="round" stroke-linejoin="round"></path><path d="M56,43.0005 L56,40.0005" stroke="#000000" stroke-width="2" stroke-linecap="round" stroke-linejoin="round"></path><path d="M24,18.0005 L24,15.0005" stroke="#000000" stroke-width="2" stroke-linecap="round" stroke-linejoin="round"></path><path d="M29,18.0005 L29,15.0005" stroke="#000000" stroke-width="2" stroke-linecap="round" stroke-linejoin="round"></path><path d="M34,18.0005 L34,15.0005" stroke="#000000" stroke-width="2" stroke-linecap="round" stroke-linejoin="round"></path><path d="M39,18.0005 L39,15.0005" stroke="#000000" stroke-width="2" stroke-linecap="round" stroke-linejoin="round"></path><path d="M32,58.0005 L26,58.0005 L26,48.0005 C26,46.3435 27.343,45.0005 29,45.0005 C30.657,45.0005 32,46.3435 32,48.0005 L32,58.0005 L32,58.0005 Z" stroke="#000000" stroke-width="2" stroke-linejoin="round"></path><path d="M31,37.0005 L27,37.0005 L27,31.0005 C27,29.8955 27.895,29.0005 29,29.0005 C30.105,29.0005 31,29.8955 31,31.0005 L31,37.0005 L31,37.0005 Z" stroke="#000000" stroke-width="2" stroke-linejoin="round"></path><path d="M22,43.0005 L18,43.0005 L18,37.0005 C18,35.8955 18.895,35.0005 20,35.0005 C21.105,35.0005 22,35.8955 22,37.0005 L22,43.0005 L22,43.0005 Z" stroke="#000000" stroke-width="2" stroke-linejoin="round"></path><path d="M40,30.0005 L36,30.0005 L36,24.0005 C36,22.8955 36.895,22.0005 38,22.0005 C39.105,22.0005 40,22.8955 40,24.0005 L40,30.0005 L40,30.0005 Z" stroke="#000000" stroke-width="2" stroke-linejoin="round"></path><path d="M26,23.0005 L22,23.0005" stroke="#000000" stroke-width="2" stroke-linecap="round" stroke-linejoin="round"></path><path d="M17,23.0005 C17,22.4485 17.448,22.0005 18,22.0005 C18.552,22.0005 19,22.4485 19,23.0005 C19,23.5525 18.552,24.0005 18,24.0005 C17.448,24.0005 17,23.5525 17,23.0005" fill="#000000"></path><path d="M32,41.0005 L36,41.0005" stroke="#000000" stroke-width="2" stroke-linecap="round" stroke-linejoin="round"></path><path d="M41,41.0005 C41,41.5525 40.552,42.0005 40,42.0005 C39.448,42.0005 39,41.5525 39,41.0005 C39,40.4485 39.448,40.0005 40,40.0005 C40.552,40.0005 41,40.4485 41,41.0005" fill="#000000"></path><polygon stroke="#000000" stroke-width="2" stroke-linejoin="round" points="0 58 14 58 14 43 0 43"></polygon><polygon stroke="#000000" stroke-width="2" stroke-linejoin="round" points="44 58 58 58 58 43 44 43"></polygon></g></g></g></svg>
