<svg height='100px' width='100px' xmlns="http://www.w3.org/2000/svg" viewBox="0 0 64 64" x="0px" y="0px"><g><path d="M61.36,42.07A80.73,80.73,0,0,0,41,37.38c-.09-1.87-.06-8.57,4.6-12.54a45.6,45.6,0,0,1,8.7,3.83,1,1,0,0,0,.5.28,48.93,48.93,0,0,1,5.62,3.83A1,1,0,0,0,61,33a1,1,0,0,0,.62-1.78A49.21,49.21,0,0,0,56,27.36V23.82A3,3,0,0,0,58,21V18a3,3,0,0,0-6,0v3a3,3,0,0,0,2,2.82v2.42a47.87,47.87,0,0,0-15.5-5.09,1,1,0,0,0-.74-.11,46.3,46.3,0,0,0-20.76,2V20.91A6,6,0,0,0,22,15V8A6,6,0,0,0,10,8v7a6,6,0,0,0,5,5.91v2.9A46.4,46.4,0,0,0,2.36,31.23a1,1,0,0,0,1.28,1.54A44.35,44.35,0,0,1,15,26v6a1,1,0,0,0,2,0V25.19a44.24,44.24,0,0,1,18.7-2.36,24.2,24.2,0,0,0-6.63,14c-1.63,0-3.25.08-4.87.19a1,1,0,0,0-.58,0,85.5,85.5,0,0,0-20.94,4A1,1,0,1,0,3.32,43a80.16,80.16,0,0,1,14.9-3.33c.45.64,7.85,11.15,8.78,21.47A1,1,0,0,0,28,62h.09A1,1,0,0,0,29,60.91c-.86-9.4-6.57-18.63-8.54-21.56,1.05-.11,2.1-.19,3.15-.27.22.25.52.62.88,1.09a1,1,0,0,0,.79.38,1,1,0,0,0,.62-.22,1,1,0,0,0,.17-1.39c.79,0,1.59-.08,2.38-.1A46.4,46.4,0,0,1,42,61.26,1,1,0,0,0,43,62l.26,0A1,1,0,0,0,44,60.74,48.91,48.91,0,0,0,31.4,38.83a85.22,85.22,0,0,1,29.24,5.1A.92.92,0,0,0,61,44a1,1,0,0,0,.36-1.93ZM54,18a1,1,0,0,1,2,0v3a1,1,0,0,1-2,0ZM12,15V8a4,4,0,0,1,8,0v7a4,4,0,0,1-8,0ZM31.09,36.85a22.57,22.57,0,0,1,7.16-13.71l1.15.17-.49.62a1,1,0,0,0,.19,1.4,1,1,0,0,0,1.41-.19,16.61,16.61,0,0,1,1.14-1.37c.56.13,1.13.26,1.69.41-4.27,4.4-4.48,10.68-4.39,13C38,37.11,37,37,36.05,37c0-.46,0-.91.1-1.36a1,1,0,1,0-2-.25c-.06.51-.08,1-.11,1.54C33.06,36.87,32.08,36.85,31.09,36.85Z"></path><path d="M33.54,51c-.29-.62-.59-1.23-.9-1.82a1,1,0,0,0-1.34-.44,1,1,0,0,0-.44,1.35c.3.57.59,1.16.87,1.76a1,1,0,0,0,.91.58.92.92,0,0,0,.42-.1A1,1,0,0,0,33.54,51Z"></path><path d="M29,43.05a1,1,0,0,0-1.38-.28,1,1,0,0,0-.28,1.39c.34.52.7,1.07,1.06,1.65a1,1,0,0,0,.85.48,1,1,0,0,0,.53-.15,1,1,0,0,0,.32-1.38C29.77,44.16,29.4,43.59,29,43.05Z"></path><path d="M35.49,55.72a1,1,0,0,0-1.89.67c.22.61.43,1.23.62,1.86a1,1,0,0,0,1,.71,1,1,0,0,0,.29-.05,1,1,0,0,0,.66-1.25C35.93,57,35.71,56.36,35.49,55.72Z"></path><path d="M36,31.59a1,1,0,0,0,.35.06,1,1,0,0,0,.94-.65A17.78,17.78,0,0,1,38,29.24a1,1,0,0,0-.48-1.34,1,1,0,0,0-1.33.48q-.45,1-.81,1.92A1,1,0,0,0,36,31.59Z"></path></g></svg>
