<svg height='100px' width='100px' xmlns="http://www.w3.org/2000/svg" version="1.1" x="0px" y="0px" viewBox="0 0 500 500"><g><circle cx="249.2" cy="250" r="29"></circle><path d="M442.1,240H421c-5.1-88.1-76.8-158.7-165.4-161.9V53.5c0-5.5-4.5-10-10-10s-10,4.5-10,10v25   C150.3,85.2,82.4,154.3,77.4,240H49.1c-5.5,0-10,4.5-10,10s4.5,10,10,10h28.4c4.9,85.7,72.9,154.8,158.1,161.5v25   c0,5.5,4.5,10,10,10s10-4.5,10-10v-24.6c88.6-3.2,160.3-73.8,165.4-161.9h21.1c5.5,0,10-4.5,10-10S447.6,240,442.1,240z    M255.6,401.9V380c0-5.5-4.5-10-10-10s-10,4.5-10,10v21.5c-74.2-6.6-133.2-66.8-138.1-141.4h18.1c5.5,0,10-4.5,10-10s-4.5-10-10-10   H97.5c4.9-74.7,63.9-134.8,138.1-141.4V120c0,5.5,4.5,10,10,10s10-4.5,10-10V98.1c77.6,3.2,140.3,64.8,145.4,141.9h-25.4   c-5.5,0-10,4.5-10,10s4.5,10,10,10h25.4C395.9,337.1,333.2,398.7,255.6,401.9z"></path></g></svg>
