<svg height='100px' width='100px' xmlns="http://www.w3.org/2000/svg" viewBox="0 0 100 100" x="0px" y="0px"><defs><style>.cls-1{fill:none;stroke:#000000;stroke-linecap:round;stroke-linejoin:round;stroke-width:2px;}</style></defs><path class="cls-1" d="M79.4,24.17H20.6L50,9.62ZM50,37H22.92V48.62H77.08V37Zm-4.49,15V94m0-28.94-14.63-13-9.2,40.54M45.51,68.14,24,82.2M54.49,52.05V94m23.83-1.4-9.2-40.54-14.63,13m0,3.09L76,82.2M45.51,55.49h9m-9,4.55h9m-9,4.54h9m-9,4.55h9m-9,4.54h9m-9,4.55h9m-9,4.54h9m-9,4.55h9m-9,4.55h9M29.9,19.57V13.52H27V21m1.93,3.17V37M24.84,24.17V37M75.16,24.17V37M71.07,24.17V37M50,9.62V6.12m23.73,42.5H26v3.43H73.73Z"></path></svg>
