<svg xmlns="http://www.w3.org/2000/svg" version="1.1" x="0px" y="0px" viewBox="0 0 100 100"><g transform="translate(0,-952.36218)"><path d="m 49.903401,959.36248 c -23.4756,0.0528 -42.6451994,18.99768 -42.9009994,42.54022 a 1.4943294,1.4943294 0 0 0 0,6e-4 c -0.2474,23.7379 18.8203994,43.2089 42.5486994,43.4564 23.7279,0.2475 43.1985,-18.82 43.4463,-42.548 0,-2e-4 0,-4e-4 0,-6e-4 0.2575,-23.72836 -18.8106,-43.19896 -42.5387,-43.44644 -0.1854,-0.002 -0.3704,-0.003 -0.5553,-0.002 z m 0.0066,2.98836 c 0.1722,-4e-4 0.3448,4e-4 0.5176,0.002 22.1132,0.23064 39.8217,18.31344 39.5815,40.42626 a 1.4943294,1.4943294 0 0 0 0,6e-4 c -0.2306,22.1132 -18.3137,39.8221 -40.427,39.5914 -22.1129,-0.2306 -39.8216994,-18.313 -39.5912994,-40.4362 0,-2e-4 0,-4e-4 0,-6e-4 0.2386004,-21.94048 18.0417994,-39.53534 39.9191994,-39.58364 z"></path><path d="m 49.565401,1006.102 c -8.2801,0.047 -15.7285,4.1839 -20.8454,10.67 a 1.4943294,1.4943294 0 1 0 2.3465,1.8509 c 4.7029,-5.9615 11.4224,-9.606 18.8618,-9.5319 0.001,0 0.0013,0 0.0019,0 7.4397,0.085 14.086,3.8698 18.6661,9.926 a 1.4943294,1.4943294 0 1 0 2.3831,-1.8023 c -5.062,-6.6936 -12.5798,-11.0168 -21.0174,-11.1121 a 1.4943294,1.4943294 0 0 0 -0.0019,0 c -0.1319,-0 -0.2633,-0 -0.3947,-6e-4 z"></path><path d="m 37.999801,987.85369 c -2.4563,-0.0298 -4.5007,1.96991 -4.5305,4.42465 a 1.4943294,1.4943294 0 0 0 0,0.009 c -0.0147,2.45049 1.9807,4.49188 4.4346,4.52145 2.4533,0.0297 4.5004,-1.97394 4.5202,-4.43461 l 0,0 c 0,-0.002 0,-0.004 0,-0.006 0,-0.001 0,-0.002 0,-0.003 0.0247,-2.45216 -1.979,-4.48185 -4.4246,-4.51149 z m -0.0361,2.98836 c 0.8384,0.0102 1.4824,0.66508 1.4724,1.49605 a 1.4943294,1.4943294 0 0 0 0,0.009 c -0.0051,0.84231 -0.6652,1.48339 -1.4961,1.47332 -0.8514,-0.0103 -1.4845,-0.65579 -1.482,-1.50974 0.012,-0.83065 0.676,-1.47872 1.5057,-1.46866 z"></path><path d="m 37.503001,978.22525 a 1.4943294,1.4943294 0 0 0 -0.4256,2.90618 l 7.6403,2.7493 a 1.4943294,1.4943294 0 1 0 1.0116,-2.81186 l -7.6402,-2.74929 a 1.4943294,1.4943294 0 0 0 -0.5861,-0.0943 z"></path><path d="m 62.306101,988.11268 c -2.4463,-0.0247 -4.4919,1.96774 -4.5215,4.42465 a 1.4943294,1.4943294 0 0 0 0,0.009 c -0.0149,2.44242 1.9739,4.49136 4.4346,4.51118 l 0,3e-4 c 0.0021,0 0.0041,0 0.0062,0 0.001,0 0.0019,-10e-6 0.0028,0 2.4462,0.0247 4.482,-1.97373 4.5115,-4.42465 0.0298,-2.45327 -1.969,-4.50031 -4.4247,-4.5202 l 0,-3e-4 c -0.002,0 -0.004,0 -0.0061,0 -10e-4,-10e-6 -0.0019,0 -0.0028,0 z m -0.0271,2.98836 a 1.4943294,1.4943294 0 0 0 0.0089,0 c 0.8275,0.005 1.4735,0.66516 1.4634,1.49605 -0.0102,0.85318 -0.659,1.48253 -1.496,1.47239 a 1.4943294,1.4943294 0 0 0 -0.009,0 c -0.8405,-0.005 -1.4754,-0.66059 -1.4731,-1.49978 0.0122,-0.84529 0.67,-1.47879 1.5058,-1.46866 z"></path><path d="m 62.962501,978.49421 a 1.4943294,1.4943294 0 0 0 -0.5432,0.0834 l -7.69,2.57995 a 1.4943294,1.4943294 0 1 0 0.9507,2.83335 l 7.69,-2.57995 a 1.4943294,1.4943294 0 0 0 -0.4075,-2.91677 z"></path></g></svg>
