<svg xmlns="http://www.w3.org/2000/svg" version="1.1" x="0px" y="0px" viewBox="0 0 100 100"><g transform="translate(0,-952.36218)"><path d="m 49.893397,959.36236 c -23.4756,0.053 -42.6450004,19.0076 -42.8908004,42.55024 0,2e-4 0,4e-4 0,6e-4 -0.2575,23.7281 18.8101004,43.1986 42.5379004,43.4464 0,0 0,0 10e-4,0 23.7282,0.2575 43.1983,-18.8104 43.4561,-42.5381 a 1.4943225,1.4943314 0 0 0 0,-6e-4 c 0.2476,-23.72824 -18.82,-43.19857 -42.5478,-43.45636 a 1.4943225,1.4943314 0 0 0 -10e-4,0 c -0.1854,-0.002 -0.3705,-0.003 -0.5554,-0.002 z m 0.0066,2.98836 c 0.172,-4e-4 0.3445,4e-4 0.5171,0.002 0,0 0,0 0.001,0 22.1128,0.24059 39.8215,18.32356 39.5912,40.43628 0,2e-4 0,4e-4 0,6e-4 -0.2406,22.1132 -18.3236,39.8217 -40.4361,39.5814 a 1.4943225,1.4943314 0 0 0 -10e-4,0 c -22.1131,-0.2306 -39.8215004,-18.3134 -39.5813004,-40.4262 a 1.4943225,1.4943314 0 0 0 0,-6e-4 C 10.219697,980.00375 28.022997,962.39898 49.899997,962.35053 z"></path><path d="m 32.018097,985.11427 c -3.0926,-0.0269 -5.6699,2.48265 -5.7005,5.58855 l 0,0 c 0,0.002 0,0.003 0,0.005 0,6e-4 0,10e-4 0,0.002 -0.0367,3.09963 2.4862,5.66029 5.5785,5.70062 a 1.4943225,1.4943314 0 0 0 0.0066,0 c 3.0993,0.027 5.6739,-2.49252 5.7009,-5.5951 0.0268,-3.09495 -2.484,-5.66056 -5.5786,-5.70092 a 1.4943225,1.4943314 0 0 0 -0.0066,0 z m -0.0326,2.98837 c 0.001,1e-5 0.0013,0 0.0019,0 1.4865,0.0204 2.6405,1.19985 2.6275,2.68641 -0.0128,1.47739 -1.2001,2.64227 -2.6798,2.63287 -10e-4,0 -0.0013,0 -0.0019,0 -1.4866,-0.0204 -2.6469,-1.20106 -2.6276,-2.67988 a 1.4943225,1.4943314 0 0 0 0,-0.006 c 0.013,-1.49078 1.1958,-2.64235 2.6799,-2.63286 z"></path><path d="m 68.326497,985.50276 c -3.0997,-0.0368 -5.6605,2.48613 -5.7008,5.57859 a 1.4943225,1.4943314 0 0 0 0,0.007 c -0.0269,3.09499 2.486,5.674 5.5951,5.70091 3.0949,0.0269 5.6605,-2.48388 5.7008,-5.57858 a 1.4943225,1.4943314 0 0 0 0,-0.007 c 0.0269,-3.09714 -2.489,-5.67005 -5.5885,-5.70061 l 0,-3e-4 c -0.0016,0 -0.0031,0 -0.0047,0 -10e-4,0 -0.0012,10e-6 -0.0019,0 z m -0.0326,2.98836 a 1.4943225,1.4943314 0 0 0 0.0065,0 c 1.4774,0.0129 2.6422,1.20012 2.6329,2.67988 0,6e-4 0,10e-4 0,0.002 -0.0203,1.48656 -1.1998,2.64051 -2.6864,2.62758 -1.4908,-0.0129 -2.6423,-1.1958 -2.6329,-2.67987 0,-6e-4 0,-10e-4 0,-0.002 0.0204,-1.48662 1.201,-2.64687 2.6799,-2.62759 z"></path><path d="m 29.936597,1015.4103 a 1.4943225,1.4943314 0 0 0 -1.2348,2.4113 c 5.0611,6.6925 12.5781,11.0267 21.0173,11.112 0.001,0 0.0013,0 0.0019,0 8.4302,0.095 16.0422,-4.0806 21.24,-10.6694 a 1.4943225,1.4943314 0 1 0 -2.3465,-1.8509 c -4.7032,5.9618 -11.4346,9.6159 -18.8617,9.5319 a 1.4943225,1.4943314 0 0 0 -0.0019,0 c -7.4381,-0.075 -14.0851,-3.8687 -18.666,-9.926 a 1.4943225,1.4943314 0 0 0 -1.1483,-0.6089 z"></path></g></svg>
