<svg xmlns="http://www.w3.org/2000/svg" version="1.1" x="0px" y="0px" viewBox="0 0 100 100"><g transform="translate(0,-952.36218)"><path d="m 49.893999,959.36229 c -23.4763,0.0429 -42.6460992,18.99824 -42.8915992,42.54111 -0.2475,23.7282 18.8199992,43.1985 42.5479992,43.4563 a 1.4943259,1.4943259 0 0 0 0.001,0 c 23.7281,0.2475 43.1987,-18.8203 43.4462,-42.5486 0.2475,-23.72756 -18.8104,-43.1985 -42.5479,-43.44632 0,0 0,0 -0.001,0 -0.1852,-0.002 -0.3701,-0.003 -0.5547,-0.002 z m 0.0053,2.98836 c 0.1722,-3e-4 0.3449,6e-4 0.5177,0.002 a 1.4943259,1.4943259 0 0 0 0.001,0 c 22.1234,0.23065 39.8219,18.31324 39.5913,40.42685 -0.2306,22.1129 -18.3134,39.8216 -40.4263,39.5913 0,0 0,0 -10e-4,0 C 27.468899,1042.1302 9.7600998,1024.047 9.9906998,1001.934 10.2196,979.99367 28.022599,962.38922 49.899299,962.35016 z"></path><path d="m 35.683699,985.82168 c -3.0927,-0.0269 -5.67,2.47901 -5.7006,5.57857 l 0,0 c 0,0.002 0,0.003 0,0.005 0,6e-4 0,10e-4 0,0.002 -0.0367,3.09764 2.4813,5.67004 5.5786,5.70059 l 0,3e-4 c 0.0016,0 0.0031,0 0.0047,0 0.001,0 0.0012,-1e-5 0.0019,0 3.0998,0.0368 5.6738,-2.48474 5.7008,-5.58511 0.0269,-3.09495 -2.4839,-5.66054 -5.5785,-5.7009 a 1.4943259,1.4943259 0 0 0 -0.0066,0 z m -0.0327,2.98835 c 0.001,0 0.0013,-10e-6 0.0019,0 1.4865,0.0204 2.6405,1.19984 2.6276,2.68641 -0.0129,1.47957 -1.2005,2.64219 -2.6799,2.6229 a 1.4943259,1.4943259 0 0 0 -0.0065,0 c -1.4796,-0.0129 -2.6422,-1.20049 -2.6229,-2.67987 a 1.4943259,1.4943259 0 0 0 0,-0.006 c 0.0128,-1.47735 1.1958,-2.63237 2.6798,-2.6229 z"></path><path d="m 64.660799,986.13047 c -3.0977,-0.0368 -5.67,2.48121 -5.7006,5.57857 l 0,0 c 0,0.002 0,0.003 0,0.005 0,6e-4 0,0.001 0,0.002 -0.0369,3.09982 2.4847,5.67394 5.5851,5.7009 3.0928,0.0269 5.67,-2.47901 5.7006,-5.57857 l 0,0 c 0,-0.002 0,-0.003 0,-0.005 0,-6e-4 0,-10e-4 0,-0.002 0.0368,-3.09764 -2.4812,-5.67005 -5.5786,-5.7006 l 0,-3e-4 c -0.0016,0 -0.003,0 -0.0046,0 -0.001,0 -0.0012,1e-5 -0.0019,0 z m -0.0327,2.98836 a 1.4943259,1.4943259 0 0 0 0.0066,0 c 1.4795,0.0129 2.6422,1.20049 2.6228,2.67986 a 1.4943259,1.4943259 0 0 0 0,0.007 c -0.0128,1.47953 -1.1992,2.63582 -2.6864,2.62289 -1.4795,-0.0129 -2.6422,-1.20049 -2.6229,-2.67986 a 1.4943259,1.4943259 0 0 0 0,-0.007 c 0.0129,-1.47957 1.2006,-2.64219 2.6799,-2.62289 z"></path><path d="m 71.966399,1006.9042 a 1.4943259,1.4943259 0 0 0 -0.3988,0.052 l -45.5524,11.6945 a 1.4943259,1.4943259 0 1 0 0.7433,2.8943 l 45.5525,-11.6944 a 1.4943259,1.4943259 0 0 0 -0.3446,-2.9467 z"></path></g></svg>
