<svg xmlns="http://www.w3.org/2000/svg" version="1.1" x="0px" y="0px" viewBox="0 0 100 100"><g transform="translate(0,-952.36218)"><path d="m 49.903402,959.3625 c -23.4756,0.0529 -42.6451992,18.99811 -42.9009992,42.5502 a 1.4943294,1.4943294 0 0 0 0,6e-4 c -0.2475,23.7282 18.8203992,43.1989 42.5486992,43.4464 23.7279,0.2475 43.1985,-18.82 43.4463,-42.548 0,-2e-4 0,-4e-4 0,-6e-4 0.2575,-23.72833 -18.8106,-43.19893 -42.5387,-43.44642 -0.1854,-0.002 -0.3704,-0.003 -0.5553,-0.002 z m 0.0066,2.98836 c 0.1722,-4e-4 0.3448,4e-4 0.5176,0.002 22.1132,0.23064 39.8217,18.31344 39.5815,40.42624 a 1.4943294,1.4943294 0 0 0 0,6e-4 c -0.2306,22.1132 -18.3137,39.8221 -40.427,39.5914 -22.1129,-0.2306 -39.821699,-18.3133 -39.591299,-40.4262 0,-2e-4 0,-4e-4 0,-6e-4 0.2387,-21.95072 18.041799,-39.54533 39.919199,-39.59363 z"></path><path d="m 29.936502,1016.1874 a 1.4943294,1.4943294 0 0 0 -1.2348,2.4113 c 5.062,6.6935 12.5798,11.0167 21.0174,11.112 a 1.4943294,1.4943294 0 0 0 0.0019,0 c 8.4287,0.085 16.0414,-4.0796 21.2401,-10.6694 a 1.4943294,1.4943294 0 1 0 -2.3465,-1.8509 c -4.7024,5.9607 -11.433,9.606 -18.8618,9.5319 -0.001,0 -0.0013,0 -0.0019,0 -7.4397,-0.085 -14.0861,-3.8698 -18.6661,-9.926 a 1.4943294,1.4943294 0 0 0 -1.1483,-0.6089 z"></path><path d="m 32.924502,985.84155 c -4.1925,-0.0369 -7.6689,3.31162 -7.7921,7.48678 a 1.4943294,1.4943294 0 1 0 2.9871,0.0881 c 0.076,-2.57709 2.1756,-4.60708 4.7745,-4.58651 0.0015,0 0.0029,0 0.0044,0 2.598,0.0328 4.6521,2.10764 4.6749,4.68519 a 1.4943294,1.4943294 0 1 0 2.9884,-0.0265 c -0.037,-4.17471 -3.4393,-7.5979 -7.6328,-7.64709 a 1.4943294,1.4943294 0 0 0 -0.0044,0 z"></path><path d="m 67.420202,986.21011 c -4.193,-0.0468 -7.6691,3.30312 -7.7922,7.47682 a 1.4943294,1.4943294 0 1 0 2.9872,0.0881 c 0.076,-2.57855 2.1759,-4.60704 4.7745,-4.57656 a 1.4943294,1.4943294 0 0 0 0.0044,0 c 2.5976,0.0229 4.6543,2.09813 4.6848,4.67959 a 1.4943294,1.4943294 0 1 0 2.9884,-0.0355 c -0.0492,-4.17078 -3.4489,-7.5932 -7.6428,-7.63246 -0.0015,0 -0.0028,10e-6 -0.0043,0 z"></path></g></svg>
