<svg xmlns="http://www.w3.org/2000/svg" version="1.1" x="0px" y="0px" viewBox="0 0 100 100"><g transform="translate(0,-952.36218)"><path d="m 49.903402,959.36247 c -23.4756,0.0529 -42.6451996,18.99811 -42.9009996,42.55023 a 1.4943294,1.4943294 0 0 0 0,6e-4 c -0.2475,23.7282 18.8203996,43.1989 42.5486996,43.4464 23.7279,0.2475 43.1985,-18.82 43.4463,-42.5481 0,-2e-4 0,-4e-4 0,-6e-4 0.2575,-23.72826 -18.8106,-43.19886 -42.5387,-43.44635 -0.1854,-0.002 -0.3704,-0.003 -0.5553,-0.002 z m 0.0066,2.98836 c 0.1722,-4e-4 0.3448,4e-4 0.5176,0.002 22.1132,0.23064 39.8217,18.31344 39.5815,40.42627 a 1.4943294,1.4943294 0 0 0 0,6e-4 c -0.2306,22.1132 -18.3137,39.8221 -40.427,39.5914 -22.1129,-0.2306 -39.8216996,-18.3133 -39.5912996,-40.4263 0,-2e-4 0,-4e-4 0,-6e-4 0.2386996,-21.95065 18.0417996,-39.54526 39.9191996,-39.59356 z"></path><path d="m 49.547002,1008.512 c -8.2827,0.037 -15.7393,4.1837 -20.8469,10.661 a 1.4943294,1.4943294 0 1 0 2.3464,1.8503 c 4.6929,-5.9512 11.424,-9.6057 18.8619,-9.5217 a 1.4943294,1.4943294 0 0 0 0.0019,0 c 7.4381,0.075 14.0846,3.869 18.6551,9.9251 a 1.4943294,1.4943294 0 1 0 2.3851,-1.8002 c -5.0517,-6.6937 -12.5692,-11.0279 -21.0085,-11.1133 -0.001,0 -0.0013,10e-5 -0.0019,0 -0.1312,0 -0.2622,0 -0.3931,0 z"></path><path d="m 34.936702,986.59857 c -3.0997,-0.0368 -5.6606,2.48613 -5.7009,5.57858 a 1.4943294,1.4943294 0 0 0 0,0.007 c -0.0269,3.09499 2.4825,5.67394 5.5851,5.70091 3.1015,0.0269 5.6705,-2.48388 5.7109,-5.57858 a 1.4943294,1.4943294 0 0 0 0,-0.007 c 0.0269,-3.09713 -2.489,-5.67004 -5.5885,-5.7006 l 0,-3e-4 c -0.0016,0 -0.0031,0 -0.0047,0 -0.001,-10e-6 -0.0012,0 -0.0019,0 z m -0.0327,2.98836 a 1.4943294,1.4943294 0 0 0 0.0066,0 c 1.4773,0.0128 2.6422,1.20012 2.6328,2.67987 0,6e-4 0,10e-4 0,0.002 -0.0203,1.48655 -1.1963,2.64057 -2.6964,2.62758 -1.4773,-0.0129 -2.6323,-1.1958 -2.6229,-2.67987 0,-6e-4 0,-10e-4 0,-0.002 0.0205,-1.48661 1.2011,-2.64686 2.6799,-2.62758 z"></path><path d="m 65.388102,986.91733 c -3.095,-0.0269 -5.6606,2.48388 -5.7009,5.57858 a 1.4943294,1.4943294 0 0 0 0,0.007 c -0.0269,3.09292 2.4791,5.67021 5.5788,5.70061 l 0,3e-4 c 0.0016,0 0.0031,0 0.0047,0 0,1e-5 0.0011,0 0.0016,0 3.1063,0.0369 5.6705,-2.48602 5.7109,-5.57858 a 1.4943294,1.4943294 0 0 0 0,-0.007 c 0.027,-3.09932 -2.4925,-5.67394 -5.5951,-5.70091 z m -0.0261,2.98836 c 1.4773,0.0128 2.6422,1.20011 2.6328,2.67987 0,6e-4 0,10e-4 0,0.002 -0.0203,1.48661 -1.1978,2.64696 -2.6901,2.62758 a 1.4943294,1.4943294 0 0 0 -0.0063,0 c -1.4773,-0.0129 -2.6323,-1.1958 -2.6229,-2.67987 0,-6e-4 0,-10e-4 0,-0.002 0.0204,-1.48655 1.1999,-2.6405 2.6865,-2.62757 z"></path></g></svg>
