<svg xmlns="http://www.w3.org/2000/svg" version="1.1" x="0px" y="0px" viewBox="0 0 512 512" enable-background="new 0 0 512 512" xml:space="preserve"><path d="M387.375,223.092c-4.281,2.088-6.061,7.251-3.973,11.533c26.297,53.944-4.559,135.362-49.713,172.12  c-3.695,3.008-4.252,8.44-1.244,12.135c1.703,2.094,4.188,3.18,6.693,3.18c1.914,0,3.84-0.634,5.439-1.936  c50.266-40.917,84.939-130.266,54.328-193.058C396.82,222.784,391.658,221.006,387.375,223.092z"></path><path d="M457.07,195.823c-21.898-44.922-51.744-72.818-88.707-82.914c-41.537-11.346-81.086,2.805-101.93,12.878  c3.66-16.948,10.506-31.221,20.439-42.306c14.904-16.635,36.523-25.795,60.875-25.795c4.764,0,8.625-3.861,8.625-8.625  c0-4.763-3.861-8.625-8.625-8.625c-29.322,0-55.502,11.199-73.723,31.534c-7.137,7.965-12.93,17.21-17.359,27.6  c-16.855-49.772-64.018-85.695-119.414-85.695c-4.763,0-8.625,3.862-8.625,8.625c0,33.626,13.24,64.217,34.779,86.838  c-35.118,3.436-77.515,22.968-108.478,86.486c-43.014,88.254,5.911,213.985,76.724,271.627  c42.663,34.729,87.616,40.152,124.35,15.333c15.17,10.251,31.738,15.343,48.973,15.341c24.494-0.001,50.33-10.288,75.371-30.672  C451.16,409.811,500.086,284.079,457.07,195.823z M243.508,116.554l-33.033-33.031c-3.369-3.368-8.83-3.367-12.197,0  c-1.685,1.685-2.526,3.892-2.526,6.1c0,2.207,0.843,4.415,2.526,6.099l33.025,33.023c-45.952-10.091-81.116-49.316-85.057-97.252  C194.189,35.434,233.418,70.6,243.508,116.554z M444.621,338.594c-14.695,45.961-42.795,89.131-75.164,115.48  c-22.324,18.171-66.061,43.789-108.182,11.244c-3.107-2.4-7.441-2.399-10.547,0c-42.128,32.549-85.864,6.925-108.187-11.246  c-32.37-26.35-60.469-69.52-75.163-115.48c-16.055-50.21-14.969-98.229,3.056-135.209c26.069-53.479,63.227-79.466,110.454-77.263  c0.662,0.032,1.309-0.019,1.936-0.132c18.236,12.695,39.968,20.698,63.438,22.25c-0.494,10.463-0.109,21.527,1.166,33.128  c0.02,0.177,0.053,0.35,0.084,0.523c-9.539-1.672-18.676-6.171-26.027-13.523c-3.368-3.368-8.83-3.368-12.197,0  c-3.369,3.369-3.369,8.83,0,12.197c12.881,12.881,29.795,19.319,46.715,19.319c16.916,0,33.836-6.44,46.715-19.319  c3.369-3.368,3.369-8.829,0-12.197c-3.367-3.368-8.828-3.369-12.197,0c-7.352,7.352-16.486,11.851-26.023,13.522  c0.133-0.778,0.17-1.585,0.078-2.409c-1.271-11.551-1.586-22.459-0.969-32.651c11.398-6.648,55.289-29.55,100.213-17.278  c31.961,8.73,58.119,33.571,77.746,73.833C459.59,240.364,460.674,288.383,444.621,338.594z"></path></svg>
