<svg xmlns="http://www.w3.org/2000/svg" version="1.1" x="0px" y="0px" viewBox="0 0 100 100" enable-background="new 0 0 100 100" xml:space="preserve"><path d="M42.435,99.336c0,0-1.524-23.277,4.806-43.112c0,0,1.29-0.845,2.578-0.961c1.29-0.119,1.78-1.773,2.196-2.663  c0,0-0.771,0.742-1.87,0.86c0,0-1.722,0.18-2.524,0.891c0,0-0.356-1.009-1.069-1.751c0,0-1.364-1.366-1.483-2.761  c0,0-0.92,2.879-0.089,3.949c0.831,1.068,1.247,1.599,1.276,2.062c0.03,0.463-7.025,28.132-4.446,44.151L42.435,99.336z"></path><path d="M48.296,53.172c0,0,0.527-0.487,2.169-0.782c0,0,1.875,0.274,3.281-3.654c0,0-0.513,0.354-1.73,0.47  C50.797,49.324,49.077,49.519,48.296,53.172z"></path><path d="M48.93,48.877c0,0-0.081-0.713-1.134-2.006c0,0-1.601-1.015-0.107-4.909c0,0,0.16,0.6,1.007,1.484  C49.543,44.329,50.72,45.597,48.93,48.877z"></path><path d="M47.632,52.995c0,0,2.031-3.282-0.274-5.391c0,0-1.055-0.704-1.211-1.583c0,0-0.703,1.914-0.625,2.714  c0.078,0.803,0.079,1.955,1.465,2.815C46.987,51.551,47.495,52,47.632,52.995z"></path><path d="M51.158,44.857c0,0,0.559-0.452,2.216-0.637c0,0,1.854,0.393,3.513-3.433c0,0-0.535,0.317-1.76,0.354  C53.905,41.179,52.176,41.262,51.158,44.857z"></path><path d="M50.508,44.638c0,0,2.239-3.142,0.077-5.398c0,0-1.007-0.769-1.105-1.658c0,0-0.825,1.865-0.8,2.67  c0.025,0.804-0.05,1.954,1.279,2.901C49.958,43.153,50.437,43.636,50.508,44.638z"></path><path d="M49.863,49.116c0,0,0.38-3.841,3.494-4.116c0,0,1.266,0.083,1.923-0.521c0,0-0.604,1.947-1.154,2.535  c-0.548,0.59-1.062,1.353-2.872,1.346C51.253,48.36,50.445,48.503,49.863,49.116z"></path><path d="M52.15,40.104c0,0-0.028-0.718-0.982-2.085c0,0-1.521-1.131,0.258-4.905c0,0,0.115,0.612,0.894,1.555  C53.099,35.613,54.179,36.967,52.15,40.104z"></path><path d="M55.026,36.356c0,0,0.512-0.505,2.142-0.852c0,0,1.884,0.212,3.162-3.758c0,0-0.501,0.369-1.715,0.525  C57.4,32.428,55.688,32.679,55.026,36.356z"></path><path d="M53.814,35.726c0,0,2.743-2.713,0.997-5.306c0,0-0.86-0.93-0.807-1.822c0,0-1.132,1.696-1.243,2.494  c-0.113,0.796-0.383,1.917,0.765,3.078C53.526,34.17,53.915,34.727,53.814,35.726z"></path><path d="M53.062,40.411c0,0,0.665-3.802,3.788-3.846c0,0,1.257,0.176,1.958-0.376c0,0-0.748,1.897-1.339,2.444  c-0.59,0.546-1.16,1.269-2.964,1.126C54.506,39.759,53.689,39.842,53.062,40.411z"></path><path d="M56.13,32.542c0,0,0.821-0.743,1.445-1.133c0.626-0.39,1.661-1.504,1.681-3.79c0,0-0.138-0.878-0.079-1.524  c0,0-0.613,0.551-1.23,0.86c-0.116,0.058-2.011,0.953-2.011,3.145C55.936,31.233,56.227,32.073,56.13,32.542z"></path><path d="M58.274,37.303c0.492-1.364,1.118-2.668,1.789-3.946c0.673-1.28,1.478-2.485,2.278-3.687  c0.806-1.199,1.65-2.375,2.569-3.492c0.935-1.099,1.928-2.18,3.138-2.979l0.035,0.05c-1.154,0.857-2.073,1.979-2.935,3.117  c-0.864,1.144-1.651,2.343-2.399,3.566c-0.75,1.223-1.416,2.494-2.158,3.722c-0.738,1.231-1.474,2.465-2.263,3.677L58.274,37.303z"></path><path d="M60.015,32.25c0.123-0.404,0.275-0.796,0.418-1.192c0.154-0.391,0.315-0.78,0.479-1.168  c0.328-0.774,0.695-1.533,1.077-2.284c0.767-1.499,1.684-2.918,2.636-4.305c0.952-1.389,1.972-2.732,3.086-3.996  c1.122-1.253,2.341-2.428,3.697-3.418l0.036,0.048c-1.303,1.051-2.453,2.274-3.504,3.567c-1.058,1.29-2.018,2.657-2.909,4.066  c-0.892,1.411-1.681,2.88-2.511,4.327c-0.828,1.449-1.632,2.911-2.45,4.38L60.015,32.25z"></path><path d="M58.781,31.258c0.236-0.537,0.497-1.061,0.749-1.59l0.797-1.566c0.537-1.041,1.107-2.065,1.687-3.082  c1.16-2.035,2.451-3.993,3.765-5.933c1.315-1.939,2.679-3.848,4.154-5.671c0.742-0.907,1.514-1.792,2.341-2.626  c0.83-0.825,1.706-1.625,2.732-2.206l0.03,0.053c-0.995,0.609-1.837,1.432-2.632,2.279c-0.792,0.855-1.528,1.761-2.234,2.688  c-1.42,1.85-2.728,3.786-3.986,5.75c-1.255,1.969-2.424,3.989-3.65,5.976l-1.839,2.982l-0.922,1.492l-0.938,1.484L58.781,31.258z"></path><path d="M51.35,33.605l-0.005,0.017l-0.001,0.004c-0.028-0.008,0.059,0.028-0.063-0.015l0.004-0.017l0.01-0.034l0.019-0.068  l0.037-0.134l0.08-0.269l0.157-0.535l0.328-1.064l0.677-2.117c0.45-1.409,0.983-2.791,1.426-4.203  c0.444-1.411,0.847-2.836,1.156-4.28c0.159-0.722,0.294-1.449,0.385-2.183c0.087-0.732,0.137-1.473,0.073-2.21l0.061-0.008  c0.104,0.74,0.097,1.491,0.047,2.235c-0.051,0.746-0.147,1.486-0.268,2.222c-0.253,1.47-0.6,2.921-0.988,4.36  c-0.394,1.437-0.785,2.876-1.321,4.267c-0.267,0.695-0.546,1.386-0.849,2.067c-0.15,0.34-0.309,0.679-0.47,1.014l-0.252,0.5  l-0.127,0.25l-0.066,0.123l-0.034,0.061l-0.017,0.032c0-0.001-0.005,0.012-0.002-0.001c-0.125-0.038-0.034-0.01-0.062-0.019  l0.003-0.003l0.008-0.016L51.35,33.605z"></path><path d="M53.837,28.963c0.659-1.582,1.326-3.149,1.965-4.725c0.64-1.577,1.32-3.135,1.896-4.737c0.57-1.602,1.068-3.231,1.445-4.89  c0.384-1.657,0.649-3.347,0.674-5.054l0.061-0.001c0.056,1.713-0.132,3.429-0.438,5.117c-0.32,1.686-0.766,3.348-1.284,4.984  c-0.518,1.636-1.08,3.262-1.799,4.822c-0.36,0.779-0.736,1.55-1.148,2.303c-0.207,0.377-0.415,0.75-0.631,1.122  c-0.225,0.367-0.442,0.735-0.688,1.09L53.837,28.963z"></path><path d="M55.281,29.306l0.624-1.641l0.64-1.633l1.279-3.261c0.854-2.173,1.766-4.321,2.586-6.506  c0.816-2.186,1.579-4.394,2.205-6.641c0.317-1.121,0.599-2.253,0.807-3.4c0.201-1.144,0.354-2.312,0.243-3.473l0.06-0.008  c0.152,1.168,0.038,2.351-0.124,3.511c-0.169,1.161-0.413,2.31-0.692,3.449c-0.571,2.274-1.279,4.511-2.042,6.727  c-0.762,2.214-1.554,4.422-2.481,6.573c-0.468,1.075-0.943,2.145-1.453,3.199l-0.774,1.577c-0.271,0.52-0.534,1.042-0.822,1.554  L55.281,29.306z"></path><g><path d="M42.324,88.978c-0.299-4.295,0.252-8.624,1.225-12.832c0.975-4.219,2.501-8.316,4.476-12.195   c1.019-1.923,2.132-3.8,3.373-5.589c1.271-1.768,2.604-3.495,4.112-5.063c2.972-3.169,6.413-5.897,10.226-7.878   c-3.154,2.908-6.049,5.962-8.609,9.26c-1.258,1.666-2.491,3.342-3.582,5.114c-1.121,1.749-2.165,3.549-3.101,5.406   c-1.934,3.683-3.502,7.558-4.857,11.524C44.264,80.705,43.15,84.774,42.324,88.978z"></path></g><g><path d="M42.586,82.918c0.258-2.321,1.067-4.531,2.098-6.606c1.026-2.087,2.353-4.03,3.897-5.786c1.55-1.75,3.333-3.311,5.32-4.548   c1.971-1.253,4.141-2.207,6.428-2.639c-1.807,1.462-3.524,2.85-5.142,4.331c-1.605,1.491-3.127,3.033-4.566,4.661   C47.726,75.587,45.191,79.116,42.586,82.918z"></path></g><g><path d="M42.189,82.391c-0.558-2.207-1.364-4.168-2.189-6.146c-0.864-1.945-1.463-4.042-2.438-6.017   c-0.957-1.975-2.067-3.895-3.277-5.76c-1.174-1.895-2.48-3.712-3.803-5.531l0.204-0.182c1.653,1.538,3.199,3.19,4.694,4.902   c1.457,1.742,2.833,3.565,4.08,5.5c1.224,1.935,2.556,3.911,3.122,6.22c0.285,1.146,0.487,2.322,0.498,3.52   c0.012,1.19-0.098,2.414-0.624,3.538L42.189,82.391z"></path></g><path d="M58.959,26.392c0.906-2.345,1.727-4.791,2.753-7.081c1.028-2.287,2.108-4.55,3.255-6.779  c1.148-2.228,2.361-4.424,3.675-6.558c1.315-2.133,2.727-4.211,4.323-6.141c-1.558,1.961-2.925,4.063-4.193,6.218  c-1.268,2.157-2.434,4.371-3.534,6.617c-1.099,2.246-2.131,4.524-3.109,6.825c-0.977,2.301-2.207,4.557-3.06,6.898H58.959z"></path></svg>
