<svg xmlns="http://www.w3.org/2000/svg" version="1.1" x="0px" y="0px" viewBox="0 0 100 100" enable-background="new 0 0 100 100" xml:space="preserve"><g><path d="M59.535,82.529H31.326c-0.601,0-1.088,0.487-1.088,1.088c0,0.601,0.487,1.088,1.088,1.088h28.209   c0.601,0,1.088-0.487,1.088-1.088C60.623,83.016,60.136,82.529,59.535,82.529z"></path><path d="M48.323,67.472c0.601,0,1.088-0.487,1.088-1.088v-1.11c0-0.601-0.487-1.088-1.088-1.088c-0.601,0-1.088,0.487-1.088,1.088   v1.11C47.235,66.985,47.722,67.472,48.323,67.472z"></path><path d="M48.323,59.439c0.601,0,1.088-0.487,1.088-1.088v-0.867c0-0.601-0.487-1.088-1.088-1.088c-0.601,0-1.088,0.487-1.088,1.088   v0.867C47.235,58.952,47.722,59.439,48.323,59.439z"></path><path d="M48.323,51.196c0.601,0,1.088-0.487,1.088-1.088v-0.87c0-0.601-0.487-1.088-1.088-1.088c-0.601,0-1.088,0.487-1.088,1.088   v0.87C47.235,50.709,47.722,51.196,48.323,51.196z"></path><path d="M53.981,73.478c-0.601,0-1.088,0.487-1.088,1.088v1.218c0,0.601,0.487,1.088,1.088,1.088c0.601,0,1.088-0.487,1.088-1.088   v-1.218C55.069,73.965,54.582,73.478,53.981,73.478z"></path><path d="M53.98,60.521c0.601,0,1.088-0.487,1.088-1.088v-5.19c0-0.601-0.487-1.088-1.088-1.088c-0.601,0-1.088,0.487-1.088,1.088   v5.19C52.892,60.034,53.379,60.521,53.98,60.521z"></path><path d="M37.008,76.872c0.601,0,1.088-0.487,1.088-1.088V63.072c0-0.601-0.487-1.088-1.088-1.088c-0.601,0-1.088,0.487-1.088,1.088   v12.712C35.921,76.385,36.408,76.872,37.008,76.872z"></path><path d="M37.008,51.272c0.601,0,1.088-0.487,1.088-1.088v-0.945c0-0.601-0.487-1.088-1.088-1.088c-0.601,0-1.088,0.487-1.088,1.088   v0.945C35.921,50.784,36.408,51.272,37.008,51.272z"></path><path d="M31.351,76.872c0.601,0,1.088-0.487,1.088-1.088v-24.37c0-0.601-0.487-1.088-1.088-1.088c-0.601,0-1.088,0.487-1.088,1.088   v24.37C30.263,76.385,30.75,76.872,31.351,76.872z"></path><path d="M31.351,48.152c0.601,0,1.088-0.487,1.088-1.088v-0.872c0-0.601-0.487-1.088-1.088-1.088c-0.601,0-1.088,0.487-1.088,1.088   v0.872C30.263,47.665,30.75,48.152,31.351,48.152z"></path><path d="M42.666,76.872c0.601,0,1.088-0.487,1.088-1.088v-1.289c0-0.601-0.487-1.088-1.088-1.088c-0.601,0-1.088,0.487-1.088,1.088   v1.289C41.578,76.385,42.065,76.872,42.666,76.872z"></path><path d="M42.666,71.558c0.601,0,1.088-0.487,1.088-1.088V59.748c0-0.601-0.487-1.088-1.088-1.088c-0.601,0-1.088,0.487-1.088,1.088   V70.47C41.578,71.071,42.065,71.558,42.666,71.558z"></path><path d="M42.666,48.351c0.601,0,1.088-0.487,1.088-1.088v-1.07c0-0.601-0.487-1.088-1.088-1.088c-0.601,0-1.088,0.487-1.088,1.088   v1.07C41.578,47.864,42.065,48.351,42.666,48.351z"></path><path d="M42.666,55.313c0.601,0,1.088-0.487,1.088-1.088v-1.07c0-0.601-0.487-1.088-1.088-1.088c-0.601,0-1.088,0.487-1.088,1.088   v1.07C41.578,54.826,42.065,55.313,42.666,55.313z"></path><path d="M59.638,71.334c-0.601,0-1.088,0.487-1.088,1.088v1.187c0,0.601,0.487,1.088,1.088,1.088c0.601,0,1.088-0.487,1.088-1.088   v-1.187C60.726,71.821,60.239,71.334,59.638,71.334z"></path><path d="M59.638,52.937c-0.601,0-1.088,0.487-1.088,1.088v12.844c0,0.601,0.487,1.088,1.088,1.088c0.601,0,1.088-0.487,1.088-1.088   V54.025C60.726,53.424,60.239,52.937,59.638,52.937z"></path><path d="M73.666,40.1h-6.772v-6.745h-0.023c3.307-1.997,5.386-5.474,5.386-9.356c0-6.119-5.23-11.097-11.659-11.097   c-1.008,0-2.01,0.124-2.977,0.367c-0.316,0.081-0.633-0.029-0.81-0.275c-2.777-3.873-7.375-6.185-12.3-6.185   c-6.367,0-12.026,3.846-14.081,9.572c-0.132,0.368-0.477,0.589-0.837,0.537c-0.462-0.066-0.932-0.1-1.398-0.1   c-5.289,0-9.591,4.1-9.591,9.139c0,3.592,2.192,6.698,5.364,8.191v49.261l-3.083,3.64c-0.968,1.143-1.172,2.79-0.521,4.196   c0.565,1.219,1.641,1.947,2.878,1.947H67.62c1.237,0,2.312-0.728,2.878-1.948c0.652-1.406,0.447-3.053-0.521-4.195l-3.083-3.64   V70.997h6.772c4.263,0,7.731-3.468,7.731-7.731V47.831C81.396,43.568,77.929,40.1,73.666,40.1z M66.894,47.741h6.205   c0.496,0,0.9,0.404,0.9,0.9v13.815c0,0.496-0.404,0.9-0.9,0.9h-6.205V47.741z M20.779,25.956c0-3.839,3.326-6.963,7.415-6.963   c0.363,0,0.729,0.026,1.089,0.078c1.373,0.197,2.717-0.626,3.194-1.956c1.746-4.863,6.582-8.131,12.033-8.131   c4.225,0,8.162,1.973,10.532,5.277c0.701,0.977,1.922,1.416,3.109,1.117c0.794-0.2,1.617-0.301,2.446-0.301   c5.229,0,9.484,4.002,9.484,8.921c0,3.922-2.671,7.344-6.642,8.514c-0.09,0.026-0.18,0.051-0.268,0.075   c-0.084,0.023-0.169,0.044-0.255,0.064l-0.144,0.033c-0.03,0.006-0.059,0.012-0.089,0.018v0c-2.28,0-4.134,1.855-4.134,4.134v1.306   v1.306v7.398c0,1.08-0.878,1.958-1.958,1.958c-1.08,0-1.958-0.878-1.958-1.958v-9.139v-0.87v-1.741c0-2.28-1.855-4.134-4.134-4.134   c-2.131,0-3.869,1.626-4.09,3.699h-0.044v0.435v2.611v1.306c0,1.08-0.878,1.958-1.958,1.958c-1.08,0-1.958-0.878-1.958-1.958V35.53   h-0.024c-0.122-1.458-1.334-2.612-2.823-2.613l-11.195-0.009c-0.049,0.001-0.099,0.004-0.148,0.008l-0.064,0.003   C24.106,32.919,20.779,29.796,20.779,25.956z M68.317,88.454c0.48,0.567,0.45,1.35,0.207,1.875   c-0.096,0.207-0.375,0.687-0.904,0.687H23.241c-0.528,0-0.808-0.48-0.904-0.687c-0.243-0.524-0.273-1.307,0.207-1.875l3.599-4.249   V34.879c0.662,0.138,1.347,0.216,2.052,0.216c0.07,0,0.139-0.004,0.208-0.009l0.032-0.003l11.165,0.01   c0.371,0,0.673,0.302,0.673,0.673v3.245c0,2.28,1.855,4.134,4.134,4.134c2.28,0,4.134-1.855,4.134-4.134v-1.306v-2.611   c0-1.08,0.878-1.958,1.958-1.958c1.08,0,1.958,0.878,1.958,1.958v1.741v0.87v9.139c0,2.28,1.855,4.134,4.134,4.134   c2.28,0,4.134-1.855,4.134-4.134v-7.398v-1.306v-1.306c0-0.859,0.556-1.591,1.327-1.854l0.19-0.021   c0.252-0.027,0.576-0.066,0.915-0.135l0.125-0.026c0.149-0.034,0.297-0.07,0.446-0.109c0.107-0.029,0.214-0.059,0.323-0.09   c0.227-0.067,0.447-0.146,0.666-0.225v49.829L68.317,88.454z M79.221,63.267c0,3.063-2.492,5.555-5.555,5.555h-6.772v-3.29h6.205   c1.696,0,3.076-1.38,3.076-3.076V48.641c0-1.696-1.38-3.076-3.076-3.076h-6.205v-3.29h6.772c3.063,0,5.555,2.492,5.555,5.555   V63.267z"></path></g></svg>
