<svg xmlns="http://www.w3.org/2000/svg" version="1.1" x="0px" y="0px" viewBox="0 0 100 100" style="enable-background:new 0 0 100 100;" xml:space="preserve"><g><g><g><path d="M69.04357,62.0855c-1.71587,0-3.3194-0.51407-4.65473-1.51528c-1.91875-1.43792-3.02827-3.68676-3.12226-6.3322     c-0.09055-2.53139,0.77025-5.14072,2.42307-7.34602c1.65282-2.20587,3.91544-3.76471,6.3706-4.38881     c2.5675-0.65219,5.03642-0.21893,6.95402,1.21899c1.91989,1.43791,3.02827,3.68676,3.12341,6.3322     c0.0894,2.53196-0.77139,5.14072-2.42422,7.34659c-1.65282,2.2053-3.91544,3.76413-6.37061,4.38824     C70.56344,61.9875,69.79204,62.0855,69.04357,62.0855z M72.34578,45.02598c-0.5135,0-1.04763,0.0682-1.59207,0.20689     c-1.83393,0.46651-3.54177,1.65512-4.81062,3.34806c-1.2677,1.69237-1.92905,3.66613-1.86143,5.5568     c0.06303,1.77776,0.77139,3.26152,1.99668,4.17849c1.22414,0.91753,2.84488,1.18402,4.57106,0.74331     c1.83392-0.46651,3.54177-1.65512,4.81062-3.34806c1.2677-1.69237,1.93021-3.66613,1.86258-5.5568     c-0.06419-1.77719-0.77254-3.26152-1.99783-4.17849v-0.00057C74.48689,45.34806,73.46218,45.02598,72.34578,45.02598z"></path><path d="M58.1042,76.6675c-1.67804,0-3.29533-0.48485-4.65244-1.50153c-1.91989-1.43848-3.02827-3.68791-3.12226-6.33335     c-0.0894-2.53139,0.7714-5.14015,2.42422-7.34602c3.47987-4.64614,9.45618-6.06571,13.32462-3.1704v0.00057     c3.86615,2.8976,4.17906,9.0338,0.69804,13.67936C64.51721,75.01009,61.20697,76.6675,58.1042,76.6675z M61.39839,59.616     c-2.22478,0-4.6811,1.27687-6.39123,3.55954c-1.26885,1.69294-1.93021,3.66671-1.86258,5.55737     c0.06304,1.77718,0.77139,3.26095,1.99669,4.17848c2.62137,1.96516,6.83023,0.79776,9.38168-2.60474     c2.54916-3.40193,2.48956-7.77011-0.1341-9.73643C63.52575,59.92376,62.48958,59.616,61.39839,59.616z"></path><path d="M71.86781,75.05537c-2.11016,0-4.22147-0.64761-6.01757-1.99325c-0.40575-0.30547-0.79202-0.64359-1.1462-1.00694     c-0.54444-0.55591-0.53413-1.44765,0.02178-1.99152c0.55476-0.54388,1.44765-0.53356,1.99095,0.02235     c0.25561,0.26077,0.53299,0.50433,0.82412,0.72269c3.27127,2.45402,8.00967,1.6769,10.55769-1.72446     c1.24019-1.65512,1.78349-3.6753,1.52789-5.68861c-0.25217-1.99554-1.26082-3.74636-2.83914-4.92868     c-0.2877-0.21663-0.59832-0.41378-0.92499-0.588c-0.68543-0.36678-0.94447-1.22013-0.57883-1.90614     c0.36564-0.68543,1.21956-0.94677,1.90614-0.57883c0.45275,0.24242,0.88602,0.51809,1.28834,0.81954     c2.19269,1.64365,3.59449,4.06902,3.94294,6.82908c0.3473,2.74229-0.38742,5.48802-2.0689,7.73115     C78.25675,73.57046,75.06229,75.05537,71.86781,75.05537z"></path><path d="M81.09361,65.94649c-0.63155,0-1.2058-0.42754-1.36513-1.06769c-0.18797-0.75478,0.27051-1.51929,1.02586-1.70727     c1.81902-0.4539,3.58303-1.6769,4.84156-3.35608c1.2677-1.69294,1.93021-3.66671,1.86258-5.55737     c-0.06304-1.77719-0.77139-3.26152-1.99668-4.17849c-1.62418-1.21784-4.01286-1.25624-6.23421-0.10201     c-0.69001,0.35704-1.5405,0.08998-1.89925-0.59889c-0.35876-0.69002-0.09055-1.5405,0.59946-1.89983     c3.18759-1.66085,6.72248-1.52674,9.2235,0.34615c1.91989,1.43848,3.02827,3.68791,3.12226,6.33335     c0.0894,2.53139-0.77139,5.14015-2.42422,7.34659c-1.66315,2.2202-3.9418,3.78305-6.41416,4.39913     C81.32056,65.93273,81.20593,65.94649,81.09361,65.94649z"></path><path d="M63.86273,88.34617c-1.71587,0.00057-3.31826-0.5135-4.65473-1.51471c-3.46841-2.60016-4.14467-7.76724-1.60583-12.28616     c0.38054-0.67798,1.2379-0.91868,1.9176-0.53871c0.67741,0.38111,0.91925,1.23962,0.53757,1.91759     c-1.83736,3.27184-1.48433,6.91103,0.84017,8.65327c1.223,0.91639,2.84832,1.18002,4.57106,0.74274     c1.83392-0.4665,3.54177-1.65569,4.81062-3.34806c1.83851-2.45345,2.37494-5.52126,1.36628-7.81538     c-0.31292-0.71179,0.01031-1.54279,0.72211-1.85628c0.71294-0.31177,1.54279,0.01089,1.85685,0.72268     c1.41097,3.20937,0.74732,7.38499-1.6918,10.63792c-1.65168,2.20529-3.91429,3.7647-6.36945,4.38881     C65.38374,88.24817,64.61234,88.34617,63.86273,88.34617z"></path><path d="M76.48129,85.48754c-1.71587,0-3.31826-0.5135-4.65473-1.51471c-0.3324-0.2493-0.65105-0.53356-0.94447-0.84361     c-0.53528-0.56451-0.51121-1.45625,0.05387-1.99096c0.56393-0.53413,1.45453-0.51178,1.99096,0.05387     c0.18453,0.19485,0.38283,0.37195,0.58914,0.52611c1.22415,0.91696,2.84946,1.18231,4.57106,0.74332     c1.83393-0.46651,3.54177-1.65512,4.81062-3.34749c1.26771-1.69352,1.93021-3.66728,1.86259-5.55795     c-0.06304-1.77718-0.7714-3.26152-1.99669-4.17848c-0.64989-0.48714-1.41098-0.79031-2.2626-0.90092     c-0.77025-0.10029-1.3147-0.80692-1.21383-1.57832c0.09972-0.77139,0.80692-1.31699,1.57832-1.21497     c1.31814,0.17193,2.55833,0.66938,3.58762,1.43963c1.91989,1.43849,3.02827,3.68791,3.12225,6.33335     c0.08941,2.53139-0.77139,5.14015-2.42422,7.34659c-1.65168,2.2053-3.91428,3.76414-6.36945,4.38824     C78.0023,85.38954,77.2309,85.48754,76.48129,85.48754z"></path><path d="M86.01082,73.57906c-0.50662,0-0.99605-0.27451-1.24821-0.75478c-0.36105-0.68829-0.09628-1.53992,0.59259-1.90098     c1.1932-0.62582,2.27406-1.55827,3.12684-2.69587c1.26885-1.69294,1.93021-3.6667,1.86259-5.55737     c-0.06304-1.77719-0.7714-3.26152-1.99669-4.17848c-0.15818-0.11863-0.32208-0.2258-0.49287-0.32209     c-0.67856-0.38226-0.91811-1.24134-0.53528-1.91874c0.38168-0.67798,1.24477-0.91525,1.91759-0.53528     c0.27853,0.15703,0.54559,0.33068,0.80006,0.52209c1.91988,1.43792,3.02827,3.68734,3.12225,6.33278     c0.08941,2.53139-0.77139,5.14015-2.42422,7.34602c-1.1015,1.47115-2.51019,2.68211-4.07132,3.50108     C86.45555,73.5269,86.23089,73.57906,86.01082,73.57906z"></path><path d="M53.92629,63.65294c-0.22466,0-0.4516-0.05387-0.66251-0.16677c-0.4367-0.23325-0.86423-0.50547-1.27229-0.80922     c-4.51719-3.38588-5.3585-9.9181-1.87748-14.56366c1.68033-2.24312,4.11029-3.71886,6.8394-4.15613     c2.74286-0.43842,5.46739,0.22351,7.66237,1.86889c0.40461,0.30317,0.78745,0.63844,1.13703,0.9949     c0.54445,0.55591,0.53528,1.44765-0.02063,1.99153c-0.55591,0.54502-1.44765,0.53413-1.9921-0.02006     c-0.24987-0.2556-0.52382-0.49516-0.8138-0.71294c-1.57947-1.18345-3.5475-1.66199-5.52699-1.34048     c-2.00471,0.32037-3.79164,1.40868-5.03183,3.0638c-2.54916,3.4025-1.96115,8.16555,1.31126,10.61843     c0.29228,0.21778,0.60061,0.41378,0.91238,0.58113c0.68658,0.36678,0.94447,1.22013,0.57883,1.90556     C54.91546,63.383,54.42947,63.65294,53.92629,63.65294z"></path><path d="M55.88859,47.05935c-0.75191,0-1.37545-0.59373-1.40639-1.35195c-0.10201-2.54572,0.75879-5.17052,2.42308-7.39187     c3.48102-4.64499,9.45847-6.06685,13.32462-3.1704c2.5056,1.87748,3.6243,5.23872,2.91938,8.77132     c-0.15244,0.76108-0.88831,1.25624-1.65627,1.10551c-0.76337-0.15245-1.25853-0.89404-1.10609-1.65684     c0.49058-2.45861-0.21663-4.74471-1.84653-5.96542c-2.62251-1.96689-6.83137-0.7989-9.38167,2.60475     c-1.25739,1.67976-1.93708,3.71714-1.86143,5.59061c0.03094,0.77713-0.57425,1.43218-1.35138,1.46313     C55.92641,47.05935,55.90808,47.05935,55.88859,47.05935z"></path><path d="M45.31945,74.43527c-1.69007,0-3.31482-0.49631-4.67995-1.51929c-1.91932-1.43791-3.02827-3.68676-3.12283-6.3322     c-0.08998-2.53197,0.77082-5.14072,2.42422-7.34659c2.43797-3.2535,6.26286-5.05705,9.73413-4.61061     c0.77139,0.1003,1.31584,0.8075,1.21497,1.57832c-0.10086,0.7714-0.8161,1.31412-1.57832,1.21498     c-2.48612-0.32552-5.27827,1.05279-7.11678,3.50624c-1.26885,1.69294-1.93021,3.6667-1.86316,5.55737     c0.06304,1.77719,0.77254,3.26152,1.99669,4.17849c2.3245,1.74223,5.91498,1.05909,8.54094-1.62302     c0.5433-0.55649,1.43619-0.56508,1.99096-0.02121c0.55591,0.54388,0.56622,1.43562,0.02178,1.99153     C50.68368,73.25583,47.92419,74.43527,45.31945,74.43527z"></path><path d="M41.55589,60.82754c-0.21492,0-0.43327-0.04929-0.63786-0.15359c-0.37825-0.19256-0.74102-0.41837-1.07858-0.67168     c-1.91932-1.43791-3.02827-3.68676-3.12226-6.3322c-0.08998-2.53139,0.77082-5.14072,2.42307-7.34659     c3.48217-4.64557,9.46191-6.06514,13.32576-3.16925c1.02585,0.76796,1.85226,1.81845,2.38869,3.03687     c0.31406,0.71122-0.00802,1.54279-0.71981,1.85685c-0.71179,0.31635-1.54394-0.00974-1.85685-0.72096     c-0.3473-0.78745-0.85278-1.43333-1.50153-1.91875c-2.6208-1.96574-6.83195-0.79833-9.38225,2.60475     c-1.2677,1.69237-1.92963,3.66613-1.86201,5.5568c0.06304,1.77719,0.77197,3.26152,1.99611,4.17848     c0.20861,0.15646,0.43327,0.2963,0.66766,0.4155c0.69345,0.35303,0.96912,1.20122,0.61609,1.8941     C42.5634,60.54615,42.06881,60.82754,41.55589,60.82754z"></path><path d="M47.18661,44.48497c-0.09227,0-0.18568-0.00917-0.2791-0.02808c-0.7628-0.15302-1.25681-0.89576-1.10322-1.65799     c0.3473-1.72847,1.11354-3.42027,2.21619-4.89199c3.48159-4.64442,9.45905-6.068,13.32519-3.16983     c0.2556,0.19141,0.4986,0.39888,0.72669,0.62239c0.55591,0.54387,0.56623,1.43562,0.02178,1.99153     c-0.5433,0.55648-1.43505,0.56565-1.99096,0.02235c-0.14098-0.13755-0.28999-0.26477-0.44702-0.38283     c-2.62251-1.96689-6.83138-0.79719-9.38168,2.60589c-0.85278,1.13761-1.44365,2.4374-1.70899,3.75726     C48.43139,44.02248,47.84339,44.48497,47.18661,44.48497z"></path><path d="M51.70036,85.23882c-1.69638,0-3.31998-0.49459-4.66906-1.50554c-3.12856-2.34456-4.01343-6.94772-2.15142-11.19325     c0.31234-0.71294,1.14391-1.03674,1.85513-0.72383c0.71236,0.31235,1.03674,1.14277,0.72383,1.85513     c-1.33361,3.04088-0.81495,6.25197,1.26197,7.80851c2.11761,1.58578,5.38659,1.14563,7.95293-1.07055     c0.588-0.50949,1.47746-0.44415,1.98637,0.14557c0.50777,0.58857,0.44358,1.47803-0.14557,1.98637     C56.45252,84.32185,54.00996,85.23882,51.70036,85.23882z"></path><path d="M78.15245,48.82106c-0.67397,0-1.27-0.48484-1.38691-1.17142c-0.13067-0.76681,0.38398-1.49465,1.15079-1.62532     c2.9297-0.50089,5.5247-2.08666,7.3082-4.46618c2.35774-3.14633,2.9446-7.2675,1.60239-10.93134     c-3.88907-0.25732-7.68301,1.46141-10.04189,4.60717c-1.78235,2.37952-2.57552,5.31609-2.2328,8.26871     c0.0894,0.77254-0.46421,1.47173-1.23676,1.56113c-0.77712,0.08883-1.47173-0.46307-1.56227-1.23676     c-0.42525-3.67186,0.56164-7.32367,2.7784-10.28202c3.13142-4.17791,8.29507-6.33392,13.47133-5.62843     c0.48255,0.06591,0.89748,0.37653,1.09577,0.82125c2.13079,4.77222,1.5107,10.33188-1.62074,14.50979     c-2.21676,2.95835-5.44447,4.93039-9.0871,5.55278C78.31062,48.81418,78.23039,48.82106,78.15245,48.82106z"></path><path d="M88.78349,54.72745c-0.69575,0-1.30094-0.51637-1.39378-1.22529c-0.10201-0.77082,0.44129-1.47803,1.21268-1.57947     c3.46268-0.45562,6.52992-2.46548,8.3478-5.43301c-2.10099-3.06151-5.49834-4.92008-9.2384-5.01349     c-0.77712-0.01949-1.39149-0.66595-1.372-1.44307c0.01834-0.77827,0.64761-1.38691,1.44307-1.37315     c4.9837,0.12494,9.47681,2.76808,12.02139,7.06978c0.24757,0.41951,0.26133,0.93645,0.03553,1.36857     c-2.16976,4.15957-6.2342,7.00732-10.8706,7.61652C88.90728,54.72343,88.84538,54.72745,88.78349,54.72745z"></path><path d="M64.4748,36.51198c-0.68199,0-1.28146-0.49745-1.3892-1.1932c-0.71638-4.61978,0.8757-9.31978,4.257-12.57214     c0.35188-0.33756,0.85506-0.46822,1.32386-0.34959c4.845,1.23446,8.64352,4.80546,10.16109,9.55246     c0.23727,0.74102-0.17078,1.53362-0.91238,1.77089c-0.73701,0.23554-1.53247-0.17193-1.76974-0.91238     c-1.13933-3.5624-3.87761-6.30125-7.40677-7.45835c-2.3371,2.57896-3.40422,6.08691-2.87009,9.53813     c0.11921,0.76853-0.4069,1.48835-1.176,1.60698C64.61922,36.50625,64.54701,36.51198,64.4748,36.51198z"></path></g><path d="M91.11028,47.90295h-8.59653c-0.77827,0-1.40868-0.63041-1.40868-1.40811s0.63041-1.40811,1.40868-1.40811h8.59653    c0.77827,0,1.40868,0.63041,1.40868,1.40811S91.88855,47.90295,91.11028,47.90295z"></path><path d="M72.48447,40.15404c-0.64417,0-1.22414-0.44415-1.37201-1.09806l-1.69408-7.48872    c-0.17194-0.75879,0.30374-1.51241,1.06253-1.68435c0.7542-0.17136,1.51184,0.30432,1.68377,1.0631l1.69409,7.48872    c0.17193,0.75879-0.30375,1.51242-1.06253,1.68435C72.69193,40.14258,72.58763,40.15404,72.48447,40.15404z"></path><path d="M76.65207,45.81915c-0.30489,0-0.61322-0.09858-0.87112-0.3026c-0.61092-0.48141-0.71523-1.36742-0.23383-1.97778    l5.60035-7.09844c0.48255-0.61093,1.36742-0.71695,1.97835-0.23325c0.61093,0.48141,0.71523,1.36742,0.23383,1.97778    L77.7593,45.2833C77.48077,45.63576,77.06814,45.81915,76.65207,45.81915z"></path></g><path d="M27.84328,47.49433c-0.68314,0-1.38519-0.0894-2.09526-0.26993c-2.22936-0.56737-4.28222-1.98122-5.78088-3.98077   c-3.16238-4.22147-2.86895-9.80405,0.65505-12.44491c1.75369-1.3147,4.00656-1.71071,6.3471-1.11583   c2.22937,0.5668,4.28222,1.98064,5.78145,3.98076c3.16238,4.22147,2.86895,9.80405-0.65506,12.44491   C30.87384,47.02381,29.40957,47.49433,27.84328,47.49433z M24.88837,32.23263c-0.96682,0-1.85341,0.27738-2.57667,0.81953   c-2.28152,1.71014-2.32164,5.52413-0.08998,8.50197c1.11411,1.4872,2.61277,2.53139,4.22032,2.94001   c1.49924,0.38111,2.90563,0.15359,3.96415-0.63958c2.28152-1.70956,2.32164-5.52356,0.08998-8.50139   c-1.11411-1.4872-2.61334-2.53139-4.2209-2.94059C25.80132,32.29223,25.33596,32.23263,24.88837,32.23263z"></path><path d="M36.33952,60.4258c-0.08654,0-0.17365-0.00802-0.26191-0.02464c-2.40531-0.45218-4.71147-1.94683-6.32647-4.10112   c-1.49923-2.0007-2.2798-4.36818-2.19785-6.66632c0.08597-2.41219,1.09921-4.46446,2.8529-5.77916   c1.98178-1.48491,4.71892-1.78693,7.32195-0.80807c0.72841,0.27337,1.09692,1.08545,0.82297,1.81329   c-0.27337,0.72841-1.08947,1.09577-1.81329,0.82298c-1.72389-0.64646-3.41683-0.49172-4.64212,0.42582   c-1.05909,0.79374-1.67231,2.08093-1.72733,3.62544c-0.05903,1.65741,0.52209,3.38932,1.63678,4.87653   c1.19721,1.59723,2.87124,2.69873,4.59284,3.02254c0.76452,0.14328,1.2677,0.87971,1.12385,1.64423   C37.59461,59.95356,37.00374,60.4258,36.33952,60.4258z"></path><path d="M25.32335,59.1025c-0.49803,0-1.00006-0.04012-1.50325-0.12035c-2.48038-0.39716-4.68683-1.73822-6.21414-3.7756   c-3.16295-4.22147-2.39614-10.15765,1.70842-13.23407c0.36564-0.27394,0.75993-0.52496,1.17027-0.74446   c0.686-0.36679,1.53935-0.1066,1.90614,0.57883c0.36621,0.68658,0.10717,1.53935-0.57883,1.90614   c-0.28426,0.1513-0.55534,0.3238-0.80693,0.51292c-2.86322,2.14569-3.37614,6.31329-1.14448,9.29113   c1.08603,1.44995,2.6506,2.40302,4.40486,2.68383c1.7365,0.27853,3.45294-0.13754,4.83239-1.17199   c0.25446-0.19027,0.49631-0.40232,0.71924-0.63041c0.54387-0.55534,1.43562-0.5668,1.99153-0.02235   c0.55591,0.5433,0.56623,1.43505,0.02235,1.99153c-0.32266,0.3301-0.67397,0.63844-1.04362,0.91524   C29.19351,58.47725,27.29482,59.1025,25.32335,59.1025z"></path><path d="M17.06266,50.94784c-0.1129,0-0.22752-0.01376-0.34214-0.04241c-2.24484-0.55935-4.31259-1.9772-5.82157-3.99165   c-3.16295-4.22032-2.86895-9.80291,0.65506-12.44376c2.28267-1.71185,5.50579-1.83622,8.40912-0.32265   c0.69002,0.35933,0.95765,1.20982,0.59832,1.89926c-0.35933,0.69001-1.21325,0.95651-1.89926,0.59832   c-1.93422-1.00694-4.00999-0.97714-5.41868,0.07851c-2.28152,1.71014-2.32221,5.52356-0.09055,8.50139   c1.10551,1.47574,2.65461,2.5503,4.24955,2.94804c0.7542,0.18798,1.21383,0.9525,1.02528,1.7067   C18.26847,50.52031,17.69365,50.94784,17.06266,50.94784z"></path><path d="M32.48942,70.97202c-2.84431,0-5.86054-1.53133-7.88817-4.23637c-2.21275-2.95262-2.81336-6.74713-1.53018-9.66594   c0.31291-0.71236,1.14506-1.03502,1.85628-0.72268c0.71179,0.31349,1.03559,1.14449,0.72268,1.85628   c-0.88143,2.00414-0.40805,4.69027,1.20523,6.84283c2.03738,2.7188,5.32755,3.85182,7.65034,2.63799   c0.69001-0.36048,1.53992-0.09285,1.90041,0.59602c0.36048,0.68944,0.09341,1.5405-0.59602,1.90041   C34.78469,70.71642,33.6511,70.97202,32.48942,70.97202z"></path><path d="M21.189,68.42916c-0.68256,0-1.38461-0.0894-2.09469-0.26993c-2.22937-0.5668-4.28222-1.98064-5.78145-3.98077   c-3.16238-4.22147-2.86895-9.80405,0.65506-12.4449c0.94103-0.70491,2.07463-1.15996,3.27986-1.31699   c0.76165-0.10316,1.47803,0.44358,1.57832,1.21497c0.10029,0.7714-0.44358,1.47803-1.21498,1.57832   c-0.73529,0.09571-1.39321,0.35704-1.95428,0.7777c-2.28094,1.70956-2.32106,5.52356-0.0894,8.50139   c1.11411,1.4872,2.61334,2.53139,4.22089,2.94059c1.49751,0.37939,2.90563,0.15359,3.96357-0.63958   c0.1811-0.13583,0.35016-0.28712,0.50318-0.45046c0.53299-0.56737,1.42416-0.59488,1.99096-0.06304   c0.5668,0.53242,0.59545,1.42358,0.06304,1.99096c-0.26477,0.28139-0.55648,0.54272-0.86768,0.77598   C24.22013,67.95922,22.75586,68.42916,21.189,68.42916z"></path><path d="M12.66296,57.7752c-0.22064,0-0.44415-0.05215-0.65276-0.16162c-1.41671-0.74274-2.69358-1.84023-3.69307-3.17384   c-1.49866-2.00013-2.27923-4.36761-2.19727-6.66632c0.08597-2.41219,1.09864-4.46446,2.85233-5.77859   c0.23383-0.17537,0.47797-0.33412,0.73185-0.47739c0.67798-0.38283,1.53763-0.1427,1.91817,0.53471   c0.38226,0.67741,0.1427,1.53648-0.5347,1.91817c-0.14786,0.08367-0.29056,0.17709-0.42696,0.27853   c-1.05795,0.79317-1.67117,2.08036-1.72618,3.62487c-0.05903,1.65741,0.52267,3.38932,1.63678,4.87652   c0.75019,1.00064,1.69982,1.8196,2.74688,2.36921c0.68887,0.36105,0.95479,1.21211,0.59316,1.90098   C13.65958,57.50069,13.16958,57.7752,12.66296,57.7752z"></path><path d="M44.76354,38.72759c-0.54502,0-1.06425-0.31865-1.29406-0.85106c-0.21835-0.50719-0.49745-0.9886-0.82813-1.42989   c-1.0866-1.44995-2.65117-2.40302-4.40543-2.68383c-1.73535-0.27681-3.45237,0.13812-4.83239,1.17199   c-0.24987,0.18683-0.48943,0.39659-0.71351,0.62411c-0.54502,0.55476-1.43619,0.56221-1.99153,0.01662   c-0.55476-0.54502-0.56221-1.43677-0.01662-1.99153c0.32266-0.32839,0.67053-0.63271,1.03273-0.90378   c1.99554-1.4958,4.46905-2.09755,6.96663-1.69868c2.48038,0.39716,4.68682,1.73822,6.21414,3.77559   c0.46364,0.61895,0.85392,1.29292,1.16111,2.00414c0.30775,0.71408-0.02178,1.54279-0.73586,1.85112   C45.13892,38.69034,44.94979,38.72759,44.76354,38.72759z"></path><path d="M39.61021,34.05165c-0.01949,0-0.0384,0-0.05731-0.00115c-0.77713-0.03095-1.38232-0.686-1.3508-1.46313   c0.06533-1.64251-0.53069-3.43116-1.63678-4.90633c-1.11411-1.4872-2.61277-2.53139-4.22032-2.94058   c-1.49981-0.38054-2.90563-0.15474-3.96415,0.64015c-1.41155,1.05737-2.02305,3.04604-1.59494,5.18886   c0.15244,0.7628-0.34271,1.50439-1.10551,1.65684c-0.75936,0.15187-1.50439-0.34157-1.65684-1.10551   c-0.64187-3.21682,0.37997-6.28005,2.66779-7.9942c1.75369-1.31584,4.00942-1.71128,6.34767-1.11583   c2.22937,0.5668,4.28222,1.98064,5.78088,3.98134c1.50898,2.01331,2.28897,4.39569,2.19613,6.70758   C40.98565,33.45792,40.36154,34.05165,39.61021,34.05165z"></path><path d="M41.6877,35.04312c-0.1897,0-0.38169-0.03839-0.56623-0.1192c-0.71179-0.31349-1.03559-1.14449-0.72268-1.85628   c0.48943-1.11296,1.24478-2.07348,2.18466-2.77725c2.60991-1.95485,6.32705-1.83221,9.47337,0.31578   c0.64188,0.43842,0.80693,1.3147,0.36908,1.95714c-0.44014,0.64244-1.31699,0.80635-1.95772,0.3685   c-2.13366-1.45625-4.5659-1.60755-6.1958-0.38742c-0.56049,0.42008-0.99605,0.97714-1.29464,1.65684   C42.74565,34.72906,42.22928,35.04312,41.6877,35.04312z"></path><path d="M47.39465,31.74836c-0.65678,0-1.24421-0.46192-1.37888-1.13073c-0.23325-1.15996-0.75306-2.30158-1.50267-3.30164   c-2.23166-2.97841-5.90295-4.01114-8.18447-2.301c-0.1364,0.10144-0.26477,0.21205-0.38627,0.33068   c-0.55706,0.54215-1.44765,0.53299-1.99153-0.02464c-0.5433-0.55648-0.53241-1.44823,0.02464-1.99153   c0.20975-0.2046,0.43097-0.39429,0.6648-0.56909c3.52285-2.63971,8.96331-1.35424,12.12741,2.86608   c0.99891,1.33418,1.69409,2.8678,2.00929,4.43523c0.15359,0.7628-0.34042,1.50497-1.10265,1.65856   C47.58033,31.73919,47.48692,31.74836,47.39465,31.74836z"></path><path d="M19.69435,35.62768c-0.07909,0-0.15875-0.00687-0.23898-0.02063c-3.29706-0.56336-6.21816-2.348-8.22401-5.02496   c-2.83284-3.78132-3.39448-8.81201-1.46542-13.12976c0.19887-0.44473,0.61322-0.75535,1.09577-0.82125   c4.69141-0.63901,9.35703,1.31355,12.1893,5.09315c2.00643,2.67696,2.89932,5.98146,2.5142,9.30431   c-0.08883,0.77254-0.78572,1.32558-1.56113,1.23675c-0.77254-0.0894-1.32616-0.78859-1.23675-1.56113   c0.30202-2.6036-0.39773-5.19288-1.96975-7.29043c-2.05973-2.74802-5.36194-4.26273-8.75757-4.06902   c-1.14162,3.20765-0.61379,6.79985,1.44536,9.54845c1.57202,2.09755,3.86099,3.49592,6.44453,3.93778   c0.76681,0.13066,1.28203,0.85851,1.15079,1.62532C20.96377,35.14284,20.36774,35.62768,19.69435,35.62768z"></path><path d="M10.18258,40.91168c-0.06132,0-0.12322-0.00401-0.18569-0.01261c-4.19511-0.5519-7.8727-3.12856-9.83672-6.89212   c-0.2258-0.43155-0.21205-0.94905,0.03611-1.36856c2.30215-3.89251,6.36888-6.28406,10.87805-6.39754   c0.76681,0.0063,1.42416,0.59545,1.44364,1.37258c0.01949,0.7777-0.59545,1.42416-1.37258,1.44364   c-3.26496,0.08138-6.2342,1.68893-8.09048,4.34124c1.60927,2.57094,4.28852,4.31087,7.30991,4.70861   c0.77082,0.10144,1.31355,0.80865,1.21211,1.58004C11.48409,40.39532,10.87889,40.91168,10.18258,40.91168z"></path><path d="M31.92835,24.61611c-0.07164,0-0.14442-0.00573-0.21778-0.01719c-0.76853-0.1192-1.29464-0.83902-1.17543-1.60755   c0.46708-3.01108-0.45046-6.07087-2.46663-8.33748c-3.0661,1.03674-5.44275,3.43517-6.43822,6.54539   c-0.23669,0.74102-1.03273,1.14678-1.77031,0.91238c-0.74102-0.23726-1.14907-1.02986-0.91181-1.77089   c1.3743-4.29597,4.81119-7.52712,9.1937-8.64352c0.47224-0.11978,0.97313,0.01204,1.32387,0.34902   c3.06094,2.94288,4.50114,7.19587,3.85239,11.37722C33.21038,24.11865,32.61092,24.61611,31.92835,24.61611z"></path><path d="M15.7921,34.80643H8.10222c-0.7777,0-1.40811-0.63041-1.40811-1.40811c0-0.7777,0.63041-1.40811,1.40811-1.40811h7.68988   c0.7777,0,1.40811,0.63041,1.40811,1.40811C17.20021,34.17602,16.5698,34.80643,15.7921,34.80643z"></path><path d="M24.76458,27.87419c-0.10258,0-0.20689-0.01146-0.31177-0.03496c-0.75879-0.17136-1.23446-0.92556-1.0631-1.68435   l1.51471-6.69956c0.17193-0.75821,0.92441-1.23389,1.68435-1.0631c0.75879,0.17136,1.23446,0.92556,1.0631,1.68435   l-1.51471,6.69956C25.9893,27.43003,25.40817,27.87419,24.76458,27.87419z"></path><path d="M21.03598,32.94213c-0.41665,0-0.8287-0.18339-1.10666-0.53585l-5.01006-6.34997   c-0.48198-0.61035-0.37767-1.49637,0.23325-1.97778c0.6115-0.48198,1.49694-0.3771,1.97777,0.23325l5.01006,6.34997   c0.48198,0.61035,0.37767,1.49637-0.23325,1.97777C21.64862,32.84356,21.34144,32.94213,21.03598,32.94213z"></path></g></svg>
