<svg height='100px' width='100px' xmlns="http://www.w3.org/2000/svg" version="1.1" x="0px" y="0px" viewBox="0 0 64 64"><g><path d="M52.226,33C54,30.73,55,27.92,55,25v-1h-1c-3.87,0-7.41,1.712-9.82,4.49C41.708,25.635,38.196,24,34.378,24h-1v1   c0,2.92,1,5.73,2.774,8h-2.201c-0.228-2.469-1.297-4.76-3.073-6.535l-0.894-0.894c-0.04-1.301-0.512-2.556-1.362-3.547   c-1.141-1.332-2.36-2.583-3.642-3.763C26.954,14.244,28,9.766,28,5.292V4h-2v1.292c0,3.641-0.745,7.283-2.156,10.641   c-0.783-5.058-2.74-9.907-5.717-14.075l-0.314-0.439l-1.627,1.162L16.5,3.021c2.663,3.728,4.461,8.037,5.262,12.543   c-1.511-1.144-3.098-2.193-4.756-3.14l-0.146-0.084C16.473,12.117,16.029,12,15.58,12C14.157,12,13,13.157,13,14.58v0.163   c0,0.278,0.044,0.553,0.132,0.816l0.577,1.731c0.08,0.239,0.171,0.474,0.26,0.709l-0.519,2.075C13.151,21.27,13,22.501,13,23.734   c0,2.989,0.876,5.884,2.534,8.369L16.132,33H7v1c0,9.494,5.32,17.768,13.136,22H20v7h24v-7h-0.136C51.68,51.768,57,43.494,57,34v-1   H52.226z M54.8,37H47v-2h7.979C54.949,35.675,54.886,36.341,54.8,37z M40,37c-1.654,0-3,1.346-3,3v3c0,0.552-0.449,1-1,1   s-1-0.448-1-1v-8h10v13c0,0.552-0.449,1-1,1s-1-0.448-1-1v-8C43,38.346,41.654,37,40,37z M47,39h7.446   c-0.151,0.679-0.332,1.345-0.542,2H47V39z M52.95,26.05c-0.255,2.643-1.469,5.117-3.414,6.95h-5.778   C45.258,29.146,48.811,26.443,52.95,26.05z M35.428,26.049c2.97,0.277,5.652,1.736,7.534,4.093   c-0.549,0.883-0.996,1.839-1.325,2.859h-2.795C36.897,31.166,35.682,28.692,35.428,26.049z M31.937,33h-5.214l2.523-4.415   c0.114-0.199,0.212-0.405,0.3-0.616C30.892,29.353,31.721,31.107,31.937,33z M17.198,30.994C15.76,28.838,15,26.327,15,23.734   c0-0.969,0.122-1.933,0.335-2.878c0.819,1.402,1.81,2.703,2.958,3.85l1.414-1.414c-1.854-1.854-3.271-4.147-4.1-6.635l-0.577-1.731   C15.01,14.868,15,14.806,15,14.743V14.58c0-0.422,0.503-0.712,0.868-0.504l0.147,0.084c4.207,2.404,7.938,5.487,11.089,9.164   C27.682,23.999,28,24.858,28,25.746c0,0.646-0.169,1.285-0.49,1.847L24.42,33h-5.885L17.198,30.994z M33,35v2H14v2h19v2H10.096   c-0.21-0.655-0.391-1.321-0.542-2H12v-2H9.2c-0.086-0.659-0.149-1.325-0.178-2H33z M42,61H22v-4.094C25.065,58.249,28.445,59,32,59   s6.935-0.751,10-2.094V61z M32,57c-9.489,0-17.649-5.779-21.159-14H33c0,1.654,1.346,3,3,3s3-1.346,3-3v-3c0-0.552,0.449-1,1-1   s1,0.448,1,1v8c0,1.654,1.346,3,3,3s3-1.346,3-3v-5h6.159C49.649,51.221,41.489,57,32,57z"></path><path d="M37,6.073v1.088c0,0.407-0.089,0.818-0.257,1.188l-1.806,3.973c-0.286,0.628-0.437,1.325-0.437,2.017   c0,2.003,1.256,3.831,3.125,4.55l0.767,0.295l0.718-1.867l-0.767-0.295C37.24,16.598,36.5,15.52,36.5,14.339   c0-0.407,0.089-0.818,0.257-1.188l1.806-3.973C38.849,8.55,39,7.853,39,7.161V6.073c0-1.633-0.812-3.149-2.17-4.056l-1.275-0.85   l-1.109,1.664l1.275,0.85C36.521,4.216,37,5.11,37,6.073z"></path><path d="M45,12.073v1.088c0,0.407-0.089,0.818-0.257,1.188l-1.806,3.973c-0.286,0.628-0.437,1.325-0.437,2.017   c0,2.003,1.256,3.831,3.125,4.55l0.767,0.295l0.718-1.867l-0.767-0.295C45.24,22.598,44.5,21.52,44.5,20.339   c0-0.407,0.089-0.818,0.257-1.188l1.806-3.973C46.849,14.55,47,13.853,47,13.161v-1.088c0-1.633-0.812-3.149-2.17-4.056   l-1.275-0.85l-1.109,1.664l1.275,0.85C44.521,10.216,45,11.11,45,12.073z"></path><path d="M53,6.073v1.088c0,0.407-0.089,0.818-0.257,1.188l-1.806,3.973c-0.286,0.628-0.437,1.325-0.437,2.017   c0,2.003,1.256,3.831,3.125,4.55l0.767,0.295l0.718-1.867l-0.767-0.295C53.24,16.598,52.5,15.52,52.5,14.339   c0-0.407,0.089-0.818,0.257-1.188l1.806-3.973C54.849,8.55,55,7.853,55,7.161V6.073c0-1.633-0.812-3.149-2.17-4.056l-1.275-0.85   l-1.109,1.664l1.275,0.85C52.521,4.216,53,5.11,53,6.073z"></path><rect x="23" y="23" width="2" height="2"></rect></g></svg>
