<svg xmlns="http://www.w3.org/2000/svg" viewBox="0 0 100 100" x="0px" y="0px"><title>Magic set RTE</title><path d="M61.53876,42.88135a1.05185,1.05185,0,0,0-.07978-.28784c-.00793-.01557-.00793-.0329-.01709-.0481a.70141.70141,0,0,0-.05853-.064.72888.72888,0,0,0-.10443-.11438.69228.69228,0,0,0-.394-.16845.70525.70525,0,0,0-.08612-.0174h-.42822v-.08642A27.0733,27.0733,0,0,0,58.06885,31.1665a26.48272,26.48272,0,0,0-6.1836-9.18847,18.79267,18.79267,0,0,1-5.99072-13.6836V8A.7501.7501,0,0,0,44.625,7.459l-4.42969,4.25293a4.31843,4.31843,0,0,0-.002,6.27588l2.1831,2.11048V79.53546l-2.5708,2.47284a4.31869,4.31869,0,0,0-.002,6.27979L44.2334,92.541A.7501.7501,0,0,0,45.50293,92v-.29443a18.43916,18.43916,0,0,1,1.56152-7.42432A19.04358,19.04358,0,0,1,51.53223,78.022a27.66523,27.66523,0,0,0,8.83838-20.1167v-.08642h.42822a.7502.7502,0,0,0,.75-.75V42.93115C61.54883,42.91351,61.54,42.89868,61.53876,42.88135Zm-1.48993,13.4375H57.61554l2.43329-1.46009ZM55.6582,43.68115h2.43329L55.6582,45.14124Zm0,6.74335,4.39063-2.63422V49.5755L55.6582,52.20972Zm4.39063-4.38318L55.6582,48.67554V46.89032l4.39063-2.63458ZM55.6582,53.95868l4.39063-2.63422v1.78522L55.6582,55.74426ZM40.34277,14.86084a2.84028,2.84028,0,0,1,.89161-2.06689l3.21093-3.083A20.33891,20.33891,0,0,0,50.86279,23.0752,25.07479,25.07479,0,0,1,56.69531,31.769a25.58124,25.58124,0,0,1,2.1753,10.32569v.08642h-2.415a24.95,24.95,0,0,0-7.51709-17.82568l-7.70606-7.44971A2.81253,2.81253,0,0,1,40.34277,14.86084Zm3.53369,6.6875L47.898,25.436a23.46072,23.46072,0,0,1,7.0506,16.74511H54.9082a.7502.7502,0,0,0-.75.75v14.1377c0,.01764.00885.03247.01007.0498a1.05185,1.05185,0,0,0,.07978.28784c.00793.01557.00793.0329.01709.0481.01111.01849.03167.02545.04406.04266a.73285.73285,0,0,0,.18958.18335.71764.71764,0,0,0,.07751.05231.73333.73333,0,0,0,.33191.08594h.03943a23.68461,23.68461,0,0,1-7.40417,16.74658l-3.667,3.52722ZM58.87061,57.90527a26.16091,26.16091,0,0,1-8.36084,19.019,20.53324,20.53324,0,0,0-4.81788,6.75244,19.9716,19.9716,0,0,0-1.63867,6.61181l-3.21045-3.08252a2.81836,2.81836,0,0,1,.00049-4.11425l2.79749-2.69086.02484-.02393,4.91693-4.72955a25.1753,25.1753,0,0,0,7.87256-17.82861h2.41553Z"></path></svg>