<svg xmlns="http://www.w3.org/2000/svg" version="1.1" x="0px" y="0px" viewBox="0 0 155.5 73.2" style="enable-background:new 0 0 155.5 73.2;" xml:space="preserve"><path d="M77.8,0C34.8,0,0,18.4,0,44.8c0,16.6,24.8,28.4,77.8,28.4s77.8-11.8,77.8-28.4C155.5,18.4,120.7,0,77.8,0z M134.3,59.7  c-12.6,4.9-32.2,7.6-56.6,7.6c-24.4,0-44-2.6-56.6-7.6C14.3,57,6,52.2,6,44.8c0-10.3,7-19.9,19.7-27.1c5.8-3.3,12.5-5.9,19.9-7.8  c0.6,7,0.2,19.3-6.9,32.8C52.8,33.6,54,17,53.6,8.2C61.2,6.7,69.3,6,77.8,6c0.5,0,1,0,1.4,0c1.4,7.9,2.2,22.5-6,36.7  c14.7-6,15.2-26.2,14.4-36.4c9.6,0.7,18.6,2.3,26.7,4.9c0.2,7-0.6,19-6.7,31.5c11.9-7.3,14.6-20.5,15-28.5c2.5,1.1,4.9,2.2,7.1,3.5  c12.7,7.1,19.7,16.8,19.7,27.1C149.5,52.2,141.2,57,134.3,59.7z"></path></svg>
