<svg height='100px' width='100px' fill="#000000" xmlns="http://www.w3.org/2000/svg" xml:space="preserve" version="1.1" viewBox="0 0 50000 50000" x="0px" y="0px" fill-rule="evenodd" clip-rule="evenodd"><g><path class="fil0" d="M3488.25 36609.4l0 -7474.16 1.56 0c-0.01,-1336.12 -0.01,-1949.39 366.04,-2380.19 317.65,-373.85 791,-478.68 1665.84,-672.44 173.24,-38.36 367.78,-81.46 695.32,-159.03l0.08 0.32 365.81 -101.52c-174.06,-107.41 -326.52,-238.42 -461.14,-409.13 -357.46,-453.29 -522.91,-1138.9 -544.47,-2359.16l-1.56 -6.25 0 -6986.42 1.56 0c-0.01,-1255.53 0,-1831.83 348.27,-2241.71 302.57,-356.11 748.07,-454.78 1571.43,-637.12 159.64,-35.35 338.74,-75.03 649.62,-148.65l0.08 0.32 22952.39 -6369.91c830.47,-230.48 1351.12,-333.8 1889.16,-305.99 537.53,27.78 1047.62,183.28 1861.64,470.78l9474.26 3346.06c720.41,254.44 1089.12,481.26 1300.03,932.55 191.32,409.35 193.6,923.7 196.05,1800.28l22.09 7865.64c1.71,605.94 -49.6,955.64 -231.01,1218.72 -199.79,289.72 -475.53,395.14 -926.27,521.68l-430.33 120.82 649.84 229.51c763.08,269.51 1153.17,508.81 1374.85,983.14 202.09,432.38 204.51,980.32 207.12,1914.19l23.63 8414.74c1.81,642.27 -51.98,1012.1 -242.22,1287.99 -208.62,302.54 -499.54,413.45 -975.55,547.08l-25173.41 7067.89c-148.6,41.71 -288.89,81.58 -421.93,119.36 -1941.67,551.54 -2423.57,688.43 -4577.59,-80.43l-9910.63 -3537.55c-799.26,-285.29 -1219,-491.56 -1471.32,-957.73 -233.57,-431.5 -249.24,-994.79 -249.24,-2013.68zm14717.95 -14012.8l-16.52 -4228.9c-603.56,-60.48 -1267.22,-270.15 -2389,-651.76l-9357.62 -3183.27c-68.88,264.43 -68.89,734.63 -68.89,1528.75l1.56 0 0 6986.42 -1.44 0c18.47,1020.76 132.57,1563.47 375.59,1871.65 210.7,267.19 581.82,395.84 1112.54,547.79l10343.78 -2870.68zm780.35 -4233.94l15.68 4013.02 11770.67 -3266.68c885.49,-245.75 1440.24,-355.94 2012.22,-326.37 571.45,29.53 1115.34,195.41 1983.75,502.11l8177.67 2888.14 1522.87 -427.57c273.33,-76.73 432.41,-128.86 485.63,-206.04 71.61,-103.85 91.61,-330.54 90.39,-765.6l-22.09 -7865.64c-1.51,-540.72 -2.85,-923.08 -45,-1189.28l-23817.54 6164.82c-989.53,256.14 -1625.78,420.82 -2174.25,479.09zm-11576.16 -4344.36l8646.55 2941.38c2372.82,807.18 2503.64,773.32 4903.86,152.01l23417.72 -6061.34c-92.7,-39.14 -198.82,-79.23 -320,-122.03l-9474.26 -3346.06c-744.18,-262.83 -1201.91,-404.55 -1636.64,-427.02 -434.21,-22.44 -890.35,70.92 -1636.04,277.87l-22968.09 6374.27 -15.62 4.68c-175.81,41.63 -431.06,98.17 -659,148.65 -92.06,20.39 -178.14,39.45 -258.48,57.59zm24892.79 7200.44c-206.24,-77.66 -310.47,-307.83 -232.81,-514.07 77.66,-206.24 307.83,-310.47 514.07,-232.81l7073.14 2658.69c206.24,77.66 310.47,307.83 232.81,514.07 -77.66,206.24 -307.83,310.47 -514.07,232.81l-7073.14 -2658.69zm-3110.18 827.7c-206.24,-77.66 -310.47,-307.83 -232.81,-514.07 77.66,-206.24 307.83,-310.47 514.07,-232.81l2670.98 1003.98c206.24,77.66 310.47,307.83 232.81,514.07 -77.66,206.24 -307.83,310.47 -514.07,232.81l-2670.98 -1003.98zm4225.18 1523.11c-204.51,-81.11 -304.54,-312.68 -223.43,-517.19 81.11,-204.51 312.68,-304.54 517.19,-223.43l2841.72 1132.45c204.51,81.11 304.54,312.68 223.43,517.19 -81.11,204.51 -312.68,304.54 -517.19,223.43l-2841.72 -1132.45zm-7360.44 -645.23c-206.24,-77.66 -310.47,-307.83 -232.81,-514.07 77.66,-206.24 307.83,-310.47 514.07,-232.81l7073.14 2658.69c206.24,77.66 310.47,307.83 232.81,514.07 -77.66,206.24 -307.83,310.47 -514.07,232.81l-7073.14 -2658.69zm-3110.17 827.7c-206.24,-77.66 -310.47,-307.83 -232.81,-514.07 77.66,-206.24 307.83,-310.47 514.07,-232.81l2670.97 1003.98c206.24,77.66 310.47,307.83 232.81,514.07 -77.66,206.24 -307.83,310.47 -514.07,232.81l-2670.97 -1003.98zm4225.17 1523.12c-204.51,-81.11 -304.54,-312.68 -223.43,-517.19 81.11,-204.51 312.68,-304.54 517.19,-223.43l2841.72 1132.45c204.51,81.11 304.54,312.68 223.43,517.19 -81.11,204.51 -312.68,304.54 -517.19,223.43l-2841.72 -1132.45zm-7159.77 -645.24c-206.24,-77.66 -310.47,-307.83 -232.81,-514.07 77.66,-206.24 307.83,-310.47 514.07,-232.81l7073.13 2658.7c206.24,77.66 310.47,307.83 232.81,514.07 -77.66,206.24 -307.83,310.47 -514.07,232.81l-7073.13 -2658.7zm-3110.18 827.71c-206.24,-77.66 -310.47,-307.83 -232.81,-514.07 77.66,-206.24 307.83,-310.47 514.07,-232.81l2670.97 1003.98c206.24,77.66 310.47,307.83 232.81,514.07 -77.66,206.24 -307.83,310.47 -514.07,232.81l-2670.97 -1003.98zm4225.18 1523.11c-204.51,-81.11 -304.54,-312.68 -223.43,-517.19 81.11,-204.51 312.68,-304.54 517.19,-223.43l2841.71 1132.45c204.51,81.11 304.54,312.68 223.43,517.19 -81.11,204.51 -312.68,304.54 -517.19,223.43l-2841.71 -1132.45zm-7166.05 -750.48c-205.38,-80.25 -306.82,-311.81 -226.57,-517.19 80.25,-205.38 311.81,-306.82 517.19,-226.57l6671.81 2625.82c205.38,80.25 306.82,311.81 226.57,517.19 -80.25,205.38 -311.81,306.82 -517.19,226.57l-6671.81 -2625.82zm-3423.73 859.26c-207.1,-74.21 -314.83,-302.28 -240.62,-509.38 74.21,-207.1 302.28,-314.83 509.38,-240.62l2796.38 1003.98c207.1,74.21 314.83,302.28 240.62,509.38 -74.21,207.1 -302.28,314.83 -509.38,240.62l-2796.38 -1003.98zm4290.62 1566.28c-206.24,-77.66 -310.47,-307.83 -232.81,-514.07 77.66,-206.24 307.83,-310.47 514.07,-232.81l2901.68 1090.85c206.24,77.66 310.47,307.83 232.81,514.07 -77.66,206.24 -307.83,310.47 -514.07,232.81l-2901.68 -1090.85zm2215.06 14158.45l-60.7 -11237.36c-651.02,-60.98 -1362,-285.31 -2575.13,-698l-10038.47 -3414.87c-82.86,283.14 -82.88,793.28 -82.88,1671.24l1.56 0 0 24.76 0 7449.4c0,888.27 9.58,1371.78 152.36,1635.56 124,229.11 431.77,366.71 1036.96,582.73l9910.63 3537.55c707.06,252.38 1212.02,394.69 1655.67,448.99zm736.17 -11242.71l60.75 11246.33c456.31,-51.45 943.86,-189.9 1640.62,-387.82 133.04,-37.78 273.33,-77.65 421.93,-119.36l25173.41 -7067.89c298.6,-83.82 472.86,-141.45 534.91,-231.44 80.44,-116.65 102.92,-363.47 101.6,-834.87l-23.63 -8414.74c-1.68,-599.64 -3.16,-1018.11 -53.58,-1306.86l-25509.59 6602.8c-1071.88,277.47 -1755.19,454.24 -2346.42,513.85zm-12458.99 -4627.28l9343.25 3178.37c2546.27,866.21 2686.64,829.87 5262.16,163.18l25130.51 -6504.68c-116.45,-52.59 -254.68,-105.89 -418.05,-163.59l-10135.67 -3579.66c-798.59,-282.04 -1290.09,-434.13 -1758.75,-458.35 -468.16,-24.2 -958.39,76.03 -1759.1,298.25l-24571.51 6819.26 -15.62 4.68c-193.14,45.74 -463.3,105.58 -704.7,159.03 -136.06,30.13 -259.99,57.59 -372.52,83.51z"></path></g></svg>
