<svg xmlns="http://www.w3.org/2000/svg" xmlns:xlink="http://www.w3.org/1999/xlink" version="1.1" x="0px" y="0px" viewBox="0 0 100 100" enable-background="new 0 0 100 100" xml:space="preserve">
  <defs>
    <path id="twig" d="M68.204,42.747c-1.648,2.308-4.444,3.434-6.203,5.566c0.528-1.525,0.962-3.083,1.246-4.694  c0.119-0.675-1.062-0.237-1.156,0.295c-0.725,4.114-2.414,7.888-4.209,11.623c0.418-2.889-0.316-5.887-0.22-8.796  c0.012-0.353-0.569-0.126-0.578,0.147c-0.114,3.438,0.979,7.017-0.146,10.365c-0.031,0.093-0.018,0.155,0.021,0.191  c-1.542,3.186-3.056,6.382-4.005,9.775c-0.989-13.766-0.405-27.661,1.142-41.376c0.363-3.219,0.78-6.432,1.241-9.639  c1.224-1.794,2.439-3.595,3.533-5.471C59.883,9,60.939,7.25,60.872,5.182c-0.011-0.355-0.587-0.126-0.578,0.147  c0.075,2.318-1.338,4.387-2.509,6.296c-0.732,1.195-1.507,2.364-2.292,3.525c0.414-2.817,0.859-5.63,1.335-8.438  c0.115-0.677-1.065-0.238-1.156,0.295C53.93,17.297,52.567,27.697,51.85,38.13c-0.846-2.469-2.004-4.812-3.203-7.138  c-0.267-1.526-0.713-3.018-0.742-4.589c-0.034-1.817,0.16-3.626-0.356-5.396c-0.089-0.306-0.647,0.001-0.569,0.27  c0.551,1.891,0.274,3.838,0.36,5.775c0.029,0.651,0.134,1.288,0.262,1.921c-1.585-3.071-3.106-6.169-3.941-9.545  c-0.152-0.614-1.272-0.004-1.138,0.54c0.493,1.993,1.225,3.888,2.068,5.739c-1.401-0.663-2.688-1.649-4.047-2.372  c-1.805-0.96-3.558-1.932-5.056-3.344c-0.216-0.204-0.723,0.185-0.519,0.377c1.527,1.441,3.298,2.444,5.142,3.425  c1.623,0.863,3.126,2.067,4.851,2.713c2.338,4.928,5.342,9.585,6.546,14.964c0.021,0.092,0.065,0.154,0.123,0.195  c-0.611,11.271-0.432,22.571,0.882,33.804c0.249,2.125,0.544,4.243,0.878,6.355c-1.753-2.401-3.812-4.561-5.897-6.699  c-2.401-5.216-1.49-11.191-3.316-16.569c-0.103-0.304-0.658,0.006-0.569,0.27c1.664,4.9,1.091,10.268,2.754,15.14  c-2.928-2.999-5.812-6.035-7.887-9.715c-0.281-0.499-1.331,0.235-1.038,0.755c0.721,1.279,1.542,2.48,2.427,3.629  c-2.967-1.394-6.315-2.467-8.066-5.318c-0.151-0.246-0.675,0.124-0.52,0.377c2.048,3.334,6.219,4.268,9.489,6.072  c4.266,5.153,9.698,9.374,13.145,15.165c0.589,3.292,1.284,6.565,2.089,9.813c0.152,0.613,1.273,0.004,1.138-0.54  c-0.695-2.802-1.303-5.619-1.831-8.447c0.185-0.185,0.293-0.432,0.177-0.646c-0.139-0.258-0.283-0.512-0.43-0.763  c-0.783-4.422-1.371-8.871-1.788-13.337c0.015-0.036,0.026-0.073,0.031-0.111c0.926-7.49,5.249-13.815,7.998-20.697  c0.09-0.043,0.17-0.106,0.203-0.185c1.363-3.265,5.197-4.366,7.188-7.155C68.931,42.52,68.379,42.502,68.204,42.747z"></path>
  </defs>
  <use xlink:href="#twig" transform="rotate(10) translate(-10 -10)"/>
  <use xlink:href="#twig" transform="rotate(30) translate(15 -30)"/>
  <use xlink:href="#twig" transform="rotate(50) translate(30 -55)"/>
</svg>
