<svg height='100px' width='100px' xmlns="http://www.w3.org/2000/svg" version="1.1" x="0px" y="0px" viewBox="0 0 64 64" enable-background="new 0 0 64 64"><g transform="scale(0.9) translate(4 5)"><g><g><path d="M10.993,26.492c-3.857,0-6.995-3.139-6.995-6.996S7.136,12.5,10.993,12.5c0.553,0,1,0.447,1,1s-0.447,1-1,1     c-2.754,0-4.995,2.241-4.995,4.996s2.241,4.996,4.995,4.996c0.553,0,1,0.447,1,1S11.546,26.492,10.993,26.492z"></path></g><g><path d="M62.985,15.494c-0.006,0-0.013,0-0.02,0L10.974,14.5c-0.552-0.011-0.991-0.467-0.98-1.02c0.011-0.545,0.456-0.98,1-0.98     c0.006,0,0.013,0,0.02,0l51.992,0.994c0.552,0.011,0.991,0.467,0.98,1.02C63.975,15.059,63.529,15.494,62.985,15.494z"></path></g><g><path d="M35.944,26.021c-0.544,0-0.989-0.436-1-0.98c-0.011-0.553,0.429-1.009,0.98-1.02l27.041-0.518     c0.597-0.011,1.008,0.43,1.02,0.98c0.011,0.553-0.429,1.009-0.98,1.02l-27.041,0.518C35.957,26.021,35.95,26.021,35.944,26.021z"></path></g><g><path d="M10.993,26.498c-0.544,0-0.989-0.436-1-0.98c-0.011-0.553,0.429-1.009,0.98-1.02l21.05-0.402c0.007,0,0.014,0,0.02,0     c0.544,0,0.989,0.436,1,0.98c0.011,0.553-0.429,1.009-0.98,1.02l-21.05,0.402C11.006,26.498,10.999,26.498,10.993,26.498z"></path></g><g><path d="M63.002,25.49c-0.553,0-1-0.447-1-1v-9.996c0-0.553,0.447-1,1-1s1,0.447,1,1v9.996     C64.002,25.043,63.555,25.49,63.002,25.49z"></path></g><g><path d="M2.998,23.492c-1.654,0-3-1.346-3-3s1.346-3,3-3s3,1.346,3,3S4.652,23.492,2.998,23.492z M2.998,19.492     c-0.552,0-1,0.448-1,1s0.448,1,1,1s1-0.448,1-1S3.55,19.492,2.998,19.492z"></path></g><g><path d="M0.998,42.496c-0.553,0-1-0.447-1-1V20.492c0-0.553,0.447-1,1-1s1,0.447,1,1v21.004     C1.998,42.049,1.551,42.496,0.998,42.496z"></path></g><g><path d="M34,28.49c-1.654,0-3-1.346-3-3s1.346-3,3-3s3,1.346,3,3S35.654,28.49,34,28.49z M34,24.49c-0.552,0-1,0.448-1,1     s0.448,1,1,1s1-0.448,1-1S34.552,24.49,34,24.49z"></path></g><g><path d="M43.029,42.496c-0.553,0-1-0.447-1-1V14.117c0-0.553,0.447-1,1-1s1,0.447,1,1v27.379     C44.029,42.049,43.582,42.496,43.029,42.496z"></path></g><g><path d="M29.001,42.496H15.006c-0.553,0-1-0.447-1-1s0.447-1,1-1h13.995c0.553,0,1,0.447,1,1S29.554,42.496,29.001,42.496z"></path></g><g><path d="M9.989,47.492c-3.289,0-5.978-2.676-5.994-5.966c-0.008-1.601,0.608-3.109,1.735-4.247     c1.127-1.139,2.629-1.77,4.23-1.777c3.319,0,6.008,2.676,6.024,5.966c0.017,3.306-2.66,6.008-5.966,6.024     C10.018,47.492,9.991,47.492,9.989,47.492z M9.991,37.502c-1.088,0.005-2.089,0.426-2.84,1.185     C6.4,39.444,5.99,40.45,5.995,41.517c0.011,2.192,1.803,3.976,3.994,3.976v1l0.021-1c2.203-0.011,3.986-1.812,3.976-4.015     C13.975,39.285,12.183,37.502,9.991,37.502z"></path></g><g><path d="M34.001,47.496c-3.309,0-6-2.691-6-6s2.691-6,6-6s6,2.691,6,6S37.31,47.496,34.001,47.496z M34.001,37.496     c-2.206,0-4,1.794-4,4s1.794,4,4,4s4-1.794,4-4S36.207,37.496,34.001,37.496z"></path></g><g><path d="M5,42.496H0.998c-0.553,0-1-0.447-1-1s0.447-1,1-1H5c0.553,0,1,0.447,1,1S5.553,42.496,5,42.496z"></path></g><g><path d="M43.029,42.496h-4.028c-0.553,0-1-0.447-1-1s0.447-1,1-1h4.028c0.553,0,1,0.447,1,1S43.582,42.496,43.029,42.496z"></path></g><g><path d="M46.485,51.504c-1.93,0-3.5-1.57-3.5-3.5s1.57-3.5,3.5-3.5s3.5,1.57,3.5,3.5S48.415,51.504,46.485,51.504z      M46.485,46.504c-0.827,0-1.5,0.673-1.5,1.5s0.673,1.5,1.5,1.5s1.5-0.673,1.5-1.5S47.313,46.504,46.485,46.504z"></path></g><g><path d="M53.485,51.504c-1.93,0-3.5-1.57-3.5-3.5s1.57-3.5,3.5-3.5s3.5,1.57,3.5,3.5S55.415,51.504,53.485,51.504z      M53.485,46.504c-0.827,0-1.5,0.673-1.5,1.5s0.673,1.5,1.5,1.5s1.5-0.673,1.5-1.5S54.313,46.504,53.485,46.504z"></path></g><g><path d="M53.485,39.502c-1.93,0-3.5-1.57-3.5-3.5s1.57-3.5,3.5-3.5s3.5,1.57,3.5,3.5S55.415,39.502,53.485,39.502z      M53.485,34.502c-0.827,0-1.5,0.673-1.5,1.5s0.673,1.5,1.5,1.5s1.5-0.673,1.5-1.5S54.313,34.502,53.485,34.502z"></path></g><g><path d="M49.987,45.502c-1.93,0-3.5-1.57-3.5-3.5s1.57-3.5,3.5-3.5s3.5,1.57,3.5,3.5S51.917,45.502,49.987,45.502z      M49.987,40.502c-0.827,0-1.5,0.673-1.5,1.5s0.673,1.5,1.5,1.5s1.5-0.673,1.5-1.5S50.814,40.502,49.987,40.502z"></path></g><g><path d="M56.987,45.502c-1.93,0-3.5-1.57-3.5-3.5s1.57-3.5,3.5-3.5s3.5,1.57,3.5,3.5S58.917,45.502,56.987,45.502z      M56.987,40.502c-0.827,0-1.5,0.673-1.5,1.5s0.673,1.5,1.5,1.5s1.5-0.673,1.5-1.5S57.814,40.502,56.987,40.502z"></path></g><g><path d="M60.485,51.504c-1.93,0-3.5-1.57-3.5-3.5s1.57-3.5,3.5-3.5s3.5,1.57,3.5,3.5S62.415,51.504,60.485,51.504z      M60.485,46.504c-0.827,0-1.5,0.673-1.5,1.5s0.673,1.5,1.5,1.5s1.5-0.673,1.5-1.5S61.313,46.504,60.485,46.504z"></path></g><g><path d="M60.001,26.498c-0.553,0-1-0.447-1-1V13.496c0-0.553,0.447-1,1-1s1,0.447,1,1v12.002     C61.001,26.051,60.554,26.498,60.001,26.498z"></path></g><g><path d="M10.999,26.492c-0.553,0-1-0.447-1-1V13.5c0-0.553,0.447-1,1-1s1,0.447,1,1v11.992     C11.999,26.045,11.552,26.492,10.999,26.492z"></path></g><g><path d="M24.003,26.236c-0.553,0-1-0.447-1-1V13.75c0-0.553,0.447-1,1-1s1,0.447,1,1v11.486     C25.003,25.789,24.556,26.236,24.003,26.236z"></path></g><g><path d="M24.001,33.5H1.002c-0.553,0-1-0.447-1-1s0.447-1,1-1h22.999c0.553,0,1,0.447,1,1S24.554,33.5,24.001,33.5z"></path></g><g><path d="M24.001,42.496c-0.553,0-1-0.447-1-1V32.5c0-0.553,0.447-1,1-1s1,0.447,1,1v8.996     C25.001,42.049,24.554,42.496,24.001,42.496z"></path></g><g><path d="M10.032,42.498c-0.553,0-1.005-0.447-1.005-1s0.442-1,0.994-1h0.011c0.552,0,1,0.447,1,1S10.584,42.498,10.032,42.498z"></path></g><g><path d="M34.031,42.498c-0.553,0-1.005-0.447-1.005-1s0.442-1,0.994-1h0.011c0.552,0,1,0.447,1,1S34.583,42.498,34.031,42.498z"></path></g></g></g></svg>
