<svg xmlns="http://www.w3.org/2000/svg" version="1.1" width="100" height="100" x="0px" y="0px" viewBox="0 0 64 64" xml:space="preserve"><path d="M59.9,31.7L59.9,31.7c0-0.1,0-0.1,0-0.2l-14-24c-0.1-0.3-0.4-0.4-0.7-0.5c-0.3-0.1-0.5,0-0.8,0.1l-40,24  c0,0-0.1,0.1-0.1,0.1l-0.1,0.1c-0.1,0.1-0.1,0.2-0.2,0.2v0.1C4,31.7,4,31.9,4,32l0,0v24c0,0.6,0.4,1,1,1h54c0.6,0,1-0.4,1-1V32l0,0  C60,31.9,60,31.8,59.9,31.7z M44.7,9.4L57.3,31H43.9c-0.6-3.3-3.7-5.4-6.9-4.9c-2.5,0.4-4.4,2.4-4.9,4.9H8.6L44.7,9.4z M42,32  c0,2.2-1.8,4-4,4s-4-1.8-4-4s1.8-4,4-4S42,29.8,42,32z M22,37c0,2.2-1.8,4-4,4s-4-1.8-4-4s1.8-4,4-4S22,34.8,22,37z M58,55H6V33h7.5  c-2.2,2.5-2,6.3,0.4,8.5s6.3,2,8.5-0.4c2.1-2.3,2.1-5.7,0-8h9.6c0.6,3.3,3.7,5.4,6.9,4.9c2.5-0.4,4.4-2.4,4.9-4.9H58V55z"></path><path d="M28,43c-2.2,0-4,1.8-4,4s1.8,4,4,4s4-1.8,4-4S30.2,43,28,43z M28,49c-1.1,0-2-0.9-2-2s0.9-2,2-2s2,0.9,2,2S29.1,49,28,49z"></path><path d="M41,44c0,2.8,2.2,5,5,5s5-2.2,5-5s-2.2-5-5-5S41,41.2,41,44z M49,44c0,1.7-1.3,3-3,3s-3-1.3-3-3s1.3-3,3-3S49,42.3,49,44z"></path><path d="M42,19c1.7,0,3-1.3,3-3s-1.3-3-3-3s-3,1.3-3,3S40.3,19,42,19z M42,15c0.6,0,1,0.4,1,1c0,0.6-0.4,1-1,1s-1-0.4-1-1  C41,15.4,41.4,15,42,15z"></path><path d="M27,29c1.7,0,3-1.3,3-3s-1.3-3-3-3s-3,1.3-3,3S25.3,29,27,29z M27,25c0.6,0,1,0.4,1,1s-0.4,1-1,1s-1-0.4-1-1S26.4,25,27,25z  "></path><path d="M17,45c-1.7,0-3,1.3-3,3s1.3,3,3,3s3-1.3,3-3S18.7,45,17,45z M17,49c-0.6,0-1-0.4-1-1s0.4-1,1-1s1,0.4,1,1S17.6,49,17,49z"></path><path d="M38,47c-1.7,0-3,1.3-3,3s1.3,3,3,3s3-1.3,3-3S39.7,47,38,47z M38,51c-0.6,0-1-0.4-1-1s0.4-1,1-1s1,0.4,1,1S38.6,51,38,51z"></path><path d="M44,26c0,1.7,1.3,3,3,3s3-1.3,3-3s-1.3-3-3-3S44,24.3,44,26z M47,25c0.6,0,1,0.4,1,1s-0.4,1-1,1s-1-0.4-1-1S46.4,25,47,25z"></path></svg>
