<svg xmlns="http://www.w3.org/2000/svg" width="100" height="100" viewBox="0 0 100 100"><g><g transform="translate(50 50) scale(-0.69 0.69) rotate(0) translate(-50 -50)"><svg xmlns="http://www.w3.org/2000/svg" version="1.1" x="0px" y="0px" viewBox="0 0 100 100"><g transform="translate(0,-952.36218)"><path style="text-indent:0;text-transform:none;direction:ltr;block-progression:tb;baseline-shift:baseline;color:#000000;enable-background:accumulate;" d="m 19.167297,955.23726 c -0.50774,0.6766 -0.95145,1.596 -1.37616,2.6256 -0.1089,-0.2594 -0.23107,-0.5128 -0.43788,-0.7814 -1.06611,-1.003 -2.04482,-1.0002 -2.90872,0.1563 -0.91164,1.3084 -1.21857,2.9454 -1.34489,4.4072 -0.7409,0.2341 -1.45353,0.448 -1.97042,0.8128 -1.9705597,1.5673 -1.4519697,3.8422 -0.43788,5.595 -1.8994697,1.1738 -3.7033497,2.8572 -5.4421197,4.5948 -0.57486,0.5556 -0.0801,1.738 0.71936,1.7192 3.10971,0 4.1719897,0.3745 5.6923397,0.719 -0.69095,1.9787 -1.6889397,4.1828 -1.6889397,6.2827 0.1293897,5.0825 3.9887097,7.3079 7.9755297,6.8454 0.19943,2.393 -0.5089,4.5009 -1.53255,7.0016 -1.12417,2.7463 -2.43958,5.94944 -2.43958,10.15864 0,5.865 3.10991,12.7521 8.13191,18.2856 2.60331,2.8685 5.74495,5.3774 9.25787,7.1266 l -2.68979,3.3758 c -3.86462,-1.8161 -7.6905,-2.8121 -11.44722,-3.7508 -0.44417,-0.1002 -0.94193,0.1467 -1.13088,0.5607 -0.18895,0.414 -0.0491,0.9514 0.31769,1.221 2.57134,1.7132 5.09381,3.5002 7.6002,5.7826 -2.91759,0.8865 -5.07383,1.8802 -7.6002,3.5633 -0.4161,0.2487 -0.59789,0.8255 -0.39958,1.2677 0.19832,0.4421 0.75012,0.6902 1.21277,0.5453 3.99451,-0.9981 6.86352,-1.9474 10.63403,-1.9693 2.3857,0.6018 4.45213,2.7303 8.4134,6.6891 0.54864,0.5667 1.71391,0.1008 1.72021,-0.6876 0,-2.8573 -1.539,-5.4766 -3.19021,-8.0019 l 1.18851,0 c 0.43384,0.011 0.8568,-0.2933 0.98344,-0.7081 0.12664,-0.4149 -0.0542,-0.9035 -0.42046,-1.1362 l -2.22064,-1.469 2.03298,-3.4071 c 1.81204,0.4636 3.69775,0.719 5.62978,0.719 4.39416,0 9.21439,-0.3443 13.91807,-1.2503 l -0.81319,8.3457 c -4.686,0.1202 -8.60917,1.0024 -12.35424,1.9379 -0.46727,0.1198 -0.80491,0.6166 -0.74414,1.0949 0.0608,0.4783 0.51194,0.8751 0.99435,0.8744 3.47696,0 6.77137,0.1122 9.41424,0.7189 -0.76456,1.2924 -1.54276,2.5313 -2.34574,4.9386 -0.14789,0.4247 0.0342,0.9402 0.41628,1.1779 0.382,0.2377 0.92522,0.1737 1.24138,-0.1464 2.83745,-2.8356 3.88021,-3.8336 6.47425,-5.595 3.70952,0.947 6.63724,1.8881 9.50808,2.8444 0.42502,0.1478 0.94081,-0.034 1.17867,-0.416 0.23785,-0.3818 0.17372,-0.9247 -0.14655,-1.2407 -1.73056,-1.7293 -4.17361,-3.2972 -6.72446,-4.4385 0.50469,-0.3001 0.94332,-0.6181 1.56383,-1.0315 0.67742,-0.4857 0.27057,-1.7958 -0.56298,-1.8129 l -2.87744,0 0.84446,-8.4708 c 1.65153,-0.4916 3.27469,-1.0745 4.8166,-1.7504 7.10931,-3.1162 12.7467,-8.5333 14.04317,-16.9414 3.05882,-0.6404 5.98393,-1.1264 8.757444,-2.1882 0.88349,-0.3201 1.38049,-1.0032 1.43872,-1.6565 -0.0878,-0.94 -0.69206,-1.4998 -1.28228,-2.0313 2.15236,-1.5592 4.40998,-2.9971 5.94254,-4.97 0.5889,-0.9076 0.21631,-1.60364 -0.31276,-2.40684 -0.55105,-0.4522 -1.21636,-0.71 -1.78277,-0.969 0.57682,-0.6863 1.20334,-1.4013 1.56383,-2.0317 0.82967,-1.5802 1.2611,-2.7371 -0.1251,-3.5946 l -2.43958,0 c 0.8258,-1.5592 1.33478,-3.0422 1.68894,-4.6573 -0.0177,-1.3413 -0.16272,-1.9189 -1.25106,-2.3444 -1.34401,0.1305 -2.31785,0.6475 -3.37787,1.1565 0.61972,-1.9531 1.19649,-3.7175 1.56382,-5.6263 0.0208,-1.4456 0.005,-2.0651 -1.18851,-2.5318 -1.299514,0.1255 -2.241594,0.7942 -3.221484,1.3753 -0.20297,-1.2457 -0.32982,-2.6441 -0.5317,-4.1572 -0.25116,-2.2614 -1.2199,-4.1741 -3.25277,-4.2198 -1.71329,-0.044 -2.72186,1.5521 -3.5968,2.6882 -4.15234,5.7187 -7.15002,12.3395 -10.91552,18.1917 -4.72217,-0.9868 -11.09237,-2.6936 -17.01446,-1.9066 -2.92158,-4.7965 -5.80223,-8.7423 -8.69488,-12.5968 -1.99344,-4.8616 -4.95565,-8.827 -8.75744,-12.6905 0.194,-1.9796 0.8592,-3.7051 1.18851,-5.5013 -0.0486,-1.268 -0.22511,-1.7869 -1.25106,-2.188 -1.53448,0 -2.67667,0.3141 -3.75319,0.6252 0.16978,-1.244 0.58643,-2.5444 0.75064,-3.6259 0.005,-0.677 -0.82955,-1.2025 -1.43873,-0.9064 -1.68632,0.8425 -2.84978,1.8553 -4.22233,3.1881 -0.13301,-0.3499 -0.25037,-0.5007 -0.37532,-0.9376 -0.31754,-1.3212 -0.93606,-2.3129 -1.97042,-2.3443 -1.01325,-0.011 -2.19244,1.0553 -2.81495,1.875 z m 2.62724,0.3126 c 0.0749,0.1895 0.13013,0.3771 0.21893,0.6876 0.2433,0.851 0.39679,1.9594 1.25106,2.8132 0.37209,0.3843 1.06664,0.3843 1.43873,0 1.14785,-1.1472 1.94724,-1.8697 2.75233,-2.5006 -0.2306,0.8361 -0.46914,1.7736 -0.46914,2.8132 0.008,0.582 0.61634,1.0781 1.18851,0.969 1.53267,-0.3065 2.69334,-0.7297 4.06595,-0.8752 -0.30521,1.4161 -0.82662,2.8803 -1.0634,4.1884 -2.67632,-1.5645 -5.47989,-2.5145 -8.50723,-2.2817 -3.28283,0.2523 -6.7332,1.9236 -10.47765,5.4074 -0.61963,-1.1725 -0.61006,-1.8923 0.0625,-2.6568 0.38315,-0.2703 1.04573,-0.5504 1.97043,-0.7814 0.42594,-0.1099 0.75084,-0.5294 0.75063,-0.969 0.0763,-1.3873 0.376,-2.5688 0.96958,-3.7197 0.42603,0.8444 0.7622,1.8377 1.31356,2.4069 0.49808,0.5082 1.52445,0.2232 1.68894,-0.4688 0.47187,-1.8865 1.19076,-3.2539 1.84532,-4.126 0.23372,-0.418 0.64766,-0.6328 1.0009,-0.9065 z m 9.53935,10.565 c 3.91207,3.92 6.79471,7.771 8.72616,12.5968 0.0297,0.089 0.072,0.1731 0.12511,0.25 2.44389,3.2565 4.89139,6.5257 7.31871,10.2836 -0.867,-0.3942 -1.85414,-0.7133 -2.72106,-0.8747 -0.49232,0.1047 -0.85578,0.6277 -0.78191,1.1253 l 0.81319,6.4077 -4.50383,-1.5003 c -0.66216,-0.2096 -1.42323,0.4768 -1.28234,1.1565 l 0.59426,3.0007 -8.19446,-4.0946 c -0.60918,-0.2961 -1.44335,0.2294 -1.43872,0.9064 l 0,3.0007 -6.4117,-4.8136 c -0.64577,-0.4591 -1.71043,0.2219 -1.56383,1.0002 l 0.43787,2.2505 -3.37787,-2.8131 c 0.71659,-1.9518 1.22461,-3.9821 0.96958,-6.2515 2.44807,-2.2259 3.46422,-5.4612 2.50212,-8.3458 -0.88835,-2.6634 -3.51607,-4.7813 -7.63148,-5.6575 0.66527,-0.6803 0.91097,-1.6611 1.0634,-2.3756 0.007,-0.1608 -0.0254,-0.3232 -0.0938,-0.4689 0,0 -0.93086,-1.3807 -2.40829,-2.563 3.54479,-3.3245 6.57711,-4.7904 9.32042,-5.0012 3.07442,-0.216 6.09009,0.7959 8.53845,2.7814 z m -8.35084,1.2503 c -1.65826,0 -3.00256,1.1195 -3.00256,2.5006 0,1.381 1.3443,2.5006 3.00256,2.5006 1.65825,0 3.00255,-1.1196 3.00255,-2.5006 0,-1.3811 -1.3443,-2.5006 -3.00255,-2.5006 z m -1.00085,2.0004 c 0.55274,0 1.00085,0.4479 1.00085,1.0003 0,0.5524 -0.44811,1.0002 -1.00085,1.0002 -0.55275,0 -1.00086,-0.4478 -1.00086,-1.0002 0,-0.5524 0.44811,-1.0003 1.00086,-1.0003 z m -10.00851,0.1251 c 1.13124,0.722 1.72278,1.7428 1.90787,2.063 -0.21898,0.7088 -0.79803,1.2098 -1.28234,1.7191 -1.36149,-0.2267 -2.59453,-0.5274 -4.3474397,-0.7189 1.29305,-1.2395 2.5457297,-2.3705 3.7219097,-3.0632 z m 70.05951,3.8759 c 1.06021,0.322 1.07905,1.5781 1.25107,2.5006 0.23635,1.7715 0.21781,4.0288 0.81319,5.8139 0.1891,0.5253 0.87287,0.8048 1.37617,0.5626 0.92925,-0.5437 1.94534,-1.1157 2.752334,-1.5316 -0.476174,2.5215 -1.603384,5.0144 -2.158084,7.4392 -0.13743,0.6987 0.68075,1.3833 1.34489,1.1252 1.333084,-0.5594 2.604994,-1.2141 3.815744,-1.6253 -0.31394,1.8494 -1.25605,3.5749 -2.09553,5.2512 -0.3257,0.6131 0.21262,1.4851 0.90702,1.4691 l 2.62724,0 c -0.44874,1.2072 -1.52186,2.4513 -2.34575,3.282 -0.41062,0.4178 -0.33021,1.2054 0.15639,1.5317 0.81355,0.4782 1.64743,0.8105 2.43957,1.21894 -1.85107,2.0527 -4.30953,3.7012 -6.442974,5.1263 -0.4866,0.3263 -0.56702,1.1138 -0.15639,1.5316 0.42594,0.3948 1.09723,0.8248 1.501234,1.0943 -2.914824,1.1609 -6.284004,1.6813 -8.976384,2.219 -0.41977,0.077 -0.7669,0.4511 -0.81319,0.8752 -0.95668,8.1269 -6.11537,13.03 -13.04233,16.0663 -6.92695,3.0363 -15.57086,4.0635 -22.98827,4.0635 -7.15052,0 -13.65434,-3.8458 -18.39062,-9.0647 -4.73629,-5.2188 -7.63149,-11.8038 -7.63149,-16.9415 0,-3.7925 1.18672,-6.62214 2.31447,-9.37724 1.59561,1.1369 3.43869,2.7723 5.06675,4.12654 0.63567,0.4878 1.73589,-0.18044 1.59511,-0.96904 l -0.50043,-2.438 5.94255,4.43844 c 0.58607,0.4324 1.57803,-0.054 1.59511,-0.7814 l 0,-3.40694 8.56978,4.28224 c 0.66411,0.3106 1.5453,-0.3744 1.40744,-1.0941 l -0.65681,-3.31324 4.37872,1.4691 c 0.6357,0.2138 1.3905,-0.3968 1.31362,-1.0628 l -0.78192,-6.3765 c 1.28605,0.4774 2.71538,1.1451 3.94085,1.4692 5.66714,-0.9442 12.59152,0.985 17.67126,2.0004 0.38931,0.076 0.81639,-0.105 1.03213,-0.4377 4.36361,-6.317 6.73559,-12.7864 11.16573,-18.6294 0.56298,-0.8074 1.22285,-1.4395 2.0018,-1.9071 z m -68.37057,2.0943 c 4.197,0.6168 6.31805,2.5324 7.00595,4.5948 0.70189,2.1044 -0.0378,4.5493 -2.06425,6.314 -3.2769,0.5828 -6.59097,-1.6478 -6.63064,-5.0012 0,-1.3801 0.97,-3.6771 1.68894,-5.9076 z m 24.33322,28.53794 c -3.6631,1.9966 -5.17294,6.3275 -4.34745,10.315 0.82849,4.0018 4.07579,7.7308 9.69574,8.5333 5.51916,0.2421 10.76033,-0.7463 15.26291,-2.0945 2.40338,-0.7366 4.52987,-1.6039 6.06766,-2.6256 0.76889,-0.5109 1.40332,-1.0638 1.84532,-1.7193 0.44199,-0.6553 0.67041,-1.4771 0.46914,-2.2817 -0.18697,-0.7475 -0.6834,-1.364 -1.28233,-1.7504 -0.59894,-0.3864 -1.29231,-0.5955 -2.03298,-0.719 -3.47269,-0.4166 -6.71629,0.2334 -10.07106,0.3129 -1.49928,0.03 -2.66753,-0.1935 -3.03382,-0.4377 -1.15964,-0.7725 -3.00507,-3.2846 -5.03553,-5.3137 -1.01523,-1.0147 -2.11409,-1.9234 -3.37787,-2.4381 -1.47988,-0.5143 -2.89146,-0.3594 -4.15973,0.2188 z m 3.40909,1.6254 c 0.84738,0.345 1.76587,1.0772 2.68979,2.0005 1.84783,1.8467 3.50538,4.3359 5.34829,5.5638 1.13498,0.7562 2.59396,0.8139 4.22234,0.7815 3.33193,0.053 6.45055,-0.8488 9.69573,-0.3439 0.83116,0.041 1.55652,0.4502 1.68894,0.969 -0.0349,0.8818 -0.89137,1.4001 -1.47,1.8755 -1.26146,0.838 -3.24784,1.6742 -5.53595,2.3755 -4.79934,1.0641 -9.29544,2.4538 -14.41845,2.0317 -4.86747,-0.7067 -7.36678,-3.7278 -8.03808,-6.9704 -0.67279,-3.2497 0.56437,-6.6441 3.37787,-8.1582 0.84765,-0.4712 1.64884,-0.329 2.43952,-0.125 z m 17.4836,25.8186 -0.87574,8.8146 c 0.0708,0.9019 0.69461,1.1137 1.68893,1.1252 -0.93797,0.6385 -0.83282,1.5671 0,1.938 0.93048,0.31 1.8399,0.8531 2.75234,1.344 -1.40422,-0.4199 -2.50903,-0.8299 -4.19106,-1.2503 -0.27232,-0.076 -0.5762,-0.029 -0.81319,0.1251 -1.33389,0.8889 -2.24581,1.5749 -3.15893,2.3443 0.20387,-0.352 0.41235,-0.6366 0.62553,-1.0627 0.26172,-0.5166 -0.0413,-1.2338 -0.59425,-1.4067 -1.01324,-0.3374 -2.20264,-0.4381 -3.3466,-0.5938 1.6067,-0.2227 3.21204,-0.4376 5.03553,-0.4376 0.49416,0 0.95446,-0.4147 1.00085,-0.9064 l 0.96957,-9.815 c 0.30334,-0.07 0.60552,-0.1432 0.90702,-0.2187 z m -25.6155,0.1875 c 0.38556,0.1556 0.76403,0.3011 1.15723,0.4376 l -2.28319,3.7822 c -0.13883,0.8345 -0.0174,1.1211 0.59425,1.5628 -0.60576,0.1582 -0.92755,0.9706 -0.59425,1.5004 1.22759,1.8403 2.34811,3.6394 3.0651,5.345 -2.48233,-2.4372 -4.58424,-4.3081 -7.00595,-4.8761 -1.02173,-0.033 -2.10539,0.2081 -2.97127,0.3125 1.37056,-0.2964 1.57156,-1.0651 1.47,-2.0317 -1.49004,-1.489 -2.99255,-2.7269 -4.47255,-3.8446 2.11326,0.6411 4.23212,1.3958 6.31786,2.438 0.39959,0.2024 0.93218,0.093 1.21979,-0.25 z"></path></g></svg></g></g></svg>
