<svg height='100px' width='100px'  fill="#000000" xmlns="http://www.w3.org/2000/svg" viewBox="0 0 64 64" x="0px" y="0px"><g><path d="M13,18a4,4,0,0,0,4,4H28v6H19a3,3,0,0,0,0,6V50.3A5.207,5.207,0,0,0,16,55v1H7a1,1,0,0,0-1,1v4a1,1,0,0,0,1,1H57a1,1,0,0,0,1-1V57a1,1,0,0,0-1-1H48V55a5.207,5.207,0,0,0-3-4.7V34a3,3,0,0,0,0-6H36.414l6.293-6.293a1,1,0,0,0,.273-.9L40,5.9V3a1,1,0,0,0-1-1H25a1,1,0,0,0-1,1V5.586L21.586,8H19a4,4,0,0,0-3.313,6.239A3.993,3.993,0,0,0,13,18Zm5,13a1,1,0,0,1,1-1h9a4,4,0,0,0,3,3.858v3.991a17.849,17.849,0,0,1-10.233-5.491l-.01.009A.981.981,0,0,0,20,32H19A1,1,0,0,1,18,31ZM56,60H8V58H56ZM46,31a1,1,0,0,1-1,1H44a1,1,0,0,0-1,1V51a1,1,0,0,0,.747.968A3.174,3.174,0,0,1,46,55v1H18V55a3.2,3.2,0,0,1,1.967-2.928C21.249,52.579,25.67,54,35,54V52c-8.369,0-12.593-1.183-14-1.679V39.232C23.08,42.569,27.323,46,36,46V44c-10.088,0-13.391-4.929-14.472-8.194a18.871,18.871,0,0,0,9.622,4.083A2.991,2.991,0,0,0,37,39V37.829A3,3,0,0,0,41,35V30h4A1,1,0,0,1,46,31Zm-7,4a1,1,0,0,1-2,0,1,1,0,0,0-2,0v4a1,1,0,0,1-2,0V33.858A4,4,0,0,0,36,30h3ZM25.707,6.707A1,1,0,0,0,26,6V4H38V6a.925.925,0,0,0,.02.2l2.895,14.475L36,25.586V22h2V20H35a1,1,0,0,0-1,1v9a2,2,0,0,1-4,0V21c0-.028-.022-.165-.03-.206a1.022,1.022,0,0,0-.061-.187,2.022,2.022,0,0,0-.178-.275,1.805,1.805,0,0,0-.337-.251L23,17.341V9.414ZM19,10h2v4H19a2,2,0,0,1,0-4Zm-2,6h4v2a1,1,0,0,0,.606.919L24.128,20H17a2,2,0,0,1,0-4Z"></path><path d="M8.105,30.783c-.515,2.258.572,4.6,3.23,6.964l1.33-1.494c-2.071-1.841-2.949-3.53-2.61-5.023.637-2.8,5.428-4.753,7.22-5.269l-.55-1.923C16.416,24.127,9.138,26.255,8.105,30.783Z"></path><path d="M50.431,35.178l1.138,1.644c4.191-2.9,5.968-5.53,5.433-8.038-.888-4.165-8.009-5.615-8.818-5.766l-.369,1.964c1.712.324,6.715,1.792,7.231,4.22C55.383,30.788,53.787,32.854,50.431,35.178Z"></path><path d="M5,33l-.99-.142c-.046.322-.99,7.912,10.727,11.107l.526-1.93c-9.936-2.71-9.3-8.65-9.272-8.9Z"></path><path d="M60.992,28.876C59.91,20.218,45.744,18.1,45.142,18.01l-.284,1.98c.133.019,13.255,1.975,14.15,9.134Z"></path><rect x="39" y="44" width="2" height="2"></rect><rect x="36" y="48" width="2" height="2"></rect></g></svg>