<svg xmlns="http://www.w3.org/2000/svg" version="1.1" x="0px" y="0px" viewBox="0 0 50 50" enable-background="new 0 0 50 50" xml:space="preserve"><g><path d="M32.5,11.6c0.8-0.2,1.4-1,1.4-1.9V3c0-1.1-0.9-2-2-2h-7.1c-0.7,0-1.3,0.4-1.7,1l-3.7,6.1l-3.1-6c-0.3-0.7-1-1.1-1.8-1.1h-7   c-1.1,0-2,0.9-2,2v7.2c0,0.7,0.5,1.3,1.2,1.4c1.1,0.2,3.7,0.9,3.7,3.3c0,2,0,10.2,0,10.3l0,1h8.7h2L17.9,49h8.7l4-16.1L35.1,49h9.4   l-4.9-33.4l-10.7,0.2C28.9,13.7,30.1,12.3,32.5,11.6z M12.4,24.2c0-0.3,0-0.6,0-0.9h9.1l-0.1,0.9h-0.2h-2.1H12.4z M42.2,47h-5.5   l-6.1-22l-5.5,22h-4.9l3.6-26.7L38.2,20L42.2,47z M37.9,18l-13.8,0.2l0.1-0.4l13.7-0.2L37.9,18z M22.4,15.9l-0.7,5.4h-9.3   c0-2.4,0-5.3,0-6.4c0-3.5-3.3-4.7-4.9-5.1l0-6.8l7,0l3.3,6.3c0.3,0.6,0.9,0.9,1.5,1c0.6,0,1.3-0.3,1.6-0.9L24.8,3L32,3l0,6.7   c-3.3,1-5.1,3.2-5.1,6.2L22.4,15.9z"></path></g></svg>
