<svg xmlns="http://www.w3.org/2000/svg" viewBox="0 0 48 48" x="0px" y="0px"><path d="M47.33,27.89,40,26.21a.89.89,0,0,0-.75.18l-5.88,5a.84.84,0,0,0-.26.93l1.45,4.27a.9.9,0,0,0,.49.52L39.81,39a1,1,0,0,0,.33.06,1,1,0,0,0,.35-.07l5.62-2.52a.85.85,0,0,0,.49-.63l1.38-7A.86.86,0,0,0,47.33,27.89Z"></path><path d="M34.31,25.62,32.48,15.5a.86.86,0,0,0-.48-.63L25.81,12a1,1,0,0,0-.37-.08H19.26L10.21,9a.87.87,0,0,0-.9.24L2.48,16.68a.75.75,0,0,0-.2.37L0,26.16A.85.85,0,0,0,.29,27l9.91,8.87a.88.88,0,0,0,.46.21l5.93.81,7.24,2.16.24,0a.85.85,0,0,0,.69-.34l9.39-12.46A.89.89,0,0,0,34.31,25.62ZM22.53,30.84a.85.85,0,0,1-.5-.16.87.87,0,0,1-.2-1.21l3-4.2A.88.88,0,0,1,26,25.06a.87.87,0,0,1,.2,1.21l-3,4.2A.87.87,0,0,1,22.53,30.84ZM30,26.27l-4.61,6.51a.85.85,0,0,1-.7.36.89.89,0,0,1-.5-.15.88.88,0,0,1-.21-1.21l4.61-6.51a.88.88,0,0,1,1.21-.21A.87.87,0,0,1,30,26.27Z"></path></svg>
