<svg xmlns="http://www.w3.org/2000/svg" viewBox="0 0 100 100" x="0px" y="0px"><g><path d="M95,28.99715V18.50276h-.02247c-.54189-8.745-36.36374-9.00186-40.48126-9.00186-4.10807,0-39.93.25686-40.47378,9.00186h-.02063V28.99715a3.33311,3.33311,0,0,0,.32257,1.40064c-6.10877,1.53-9.15574,3.53631-9.30949,6.09945H5V46.99347c.00753,2.82747,3.61874,5.04,9.00186,6.69368v9.80821a3.29883,3.29883,0,0,0,.29249,1.34809c-3.09748,1.28061-4.665,2.82-4.76813,4.65749H9.49627V79.99718c.01494,4.98752,11.25,8.08506,23.73183,9.53628a1.77054,1.77054,0,0,0,.27008.05063c.03,0,.05242-.015.08057-.015,2.40939.27187,4.85632.48378,7.27317.63753.05057,0,.09558.02994.14622.02994.03,0,.05254-.01494.0807-.01494,3.06932.18191,6.0937.27749,8.92116.27749s5.8519-.09558,8.92122-.27749c.02816,0,.05064.01494.08064.01494a1.016,1.016,0,0,0,.14635-.02994c2.41679-.15375,4.86365-.36566,7.2731-.63753a.30148.30148,0,0,0,.08058.02254,1.17107,1.17107,0,0,0,.27-.05816c12.48186-1.44375,23.71689-4.54122,23.73183-9.52868V69.50094h-.02241a3.4058,3.4058,0,0,0-.2063-.93c2.93065-1.4062,4.71751-3.08439,4.725-5.0681V52.99906h-.01494c-.14621-2.52-3.09007-4.49621-8.98692-6.02059V36.49724h-.02063a3.36252,3.36252,0,0,0-.13312-.7538C91.31569,34.08032,94.99253,31.84722,95,28.99715Zm-78.00377-6.21a22.20882,22.20882,0,0,0,4.50566,2.05873v7.14a14.77942,14.77942,0,0,1-3.56811-1.845l-.54942-.42561-.04309.00747a1.19459,1.19459,0,0,1-.345-.73126ZM12.5,50.02532c-2.91558-1.09124-4.49621-2.19-4.49621-3.03185v-6.21A22.16657,22.16657,0,0,0,12.5,42.84779Zm-4.48312-13.425c.16881-.62252,1.94252-2.21816,8.65874-3.66943.08632.0581.19691.11818.29249.17628.16882.10312.35066.21185.52694.315.16122.08811.3075.1819.46871.27.37313.19882.77627.3882,1.19442.57942.10879.04316.22691.09565.33558.14628.39.16875.79881.3375,1.22443.49872.08811.02809.16875.06564.25686.09379.50434.18376,1.02374.36745,1.56563.5438.18375.058.38245.10861.57182.16684.30756.09551.62252.19122.95256.2868,7.02371,2.00631,17.12441,3.30193,28.02187,3.47068q1.23192.0225,2.40938.02247c1.10624,0,2.24249-.015,3.39189-.0431,1.8825-.045,3.74247-.12565,5.58188-.2287.01309,0,.02063.00747.0281.00747.02253,0,.03754-.01309.05816-.01309,2.55-.15375,5.03994-.36758,7.43432-.63759h.00754c.015,0,.02254-.00747.03754-.00747,3.51562-.40314,6.81748-.93,9.79869-1.56748.60944-.13127,1.21689-.2644,1.80187-.40314.10311-.03.21383-.05063.315-.07311a.2313.2313,0,0,1,.02994.08812c-.17616,1.01059-2.47495,2.35875-6.5624,3.61873-5.31009,1.64065-13.61632,3.14058-24.13318,3.60942-.54189.02247-1.07623.045-1.62558.06-.45563.01316-.90193.02816-1.35563.04317-1.245.02994-2.5051.043-3.80071.043-1.30494,0-2.565-.01309-3.8025-.043-.46124-.015-.90747-.02254-1.36118-.03755-.54188-.02062-1.08376-.0431-1.62-.06557-10.52433-.46884-18.83063-1.96877-24.14065-3.6038C10.46377,38.974,8.15743,37.61841,8.01684,36.60035Zm16.47941-3.6038V25.7684q2.10939.55969,4.50566,1.03313v7.3088C27.36126,33.75782,25.84435,33.38462,24.49625,32.99655Zm7.5,1.69314V27.33594q2.18812.35158,4.50559.63v7.41185C34.91944,35.17161,33.425,34.93723,31.99627,34.68969Zm7.5,1.04628V28.29405q2.22174.2109,4.50566.36758v7.47C42.44941,36.02278,40.9475,35.88218,39.49629,35.736Zm7.5.57183V28.83038c1.50944.06557,3.01875.1086,4.52628.13868l.24192.00747c.41061.0076.82122.015,1.23936.015V36.484c-.54379,0-1.09129-.00747-1.62756-.01494-.16121-.00754-.3225-.00754-.48186-.015-1.0406-.02247-2.0662-.05063-3.07686-.09564a.18075.18075,0,0,0-.0581-.00754C47.5025,36.33589,47.25318,36.3228,46.99625,36.3078Zm9.00193.17622V28.99153c.41808,0,.82875-.0074,1.23751-.015h.24186c1.50931-.02995,3.01869-.08058,4.51874-.14615v7.485C60.02753,36.411,58.01936,36.46154,55.99818,36.484ZM65,36.12411V28.66163c1.52247-.10318,3.02438-.227,4.49621-.36758V35.736C68.03189,35.88972,66.52251,36.01537,65,36.12411Zm7.5-.74633V27.96593c1.545-.18375,3.047-.3956,4.49627-.63v7.36683c-.16122.03-.32058.06-.48933.08812-.82876.13874-1.67813.27193-2.54251.39566-.18938.03-.37313.05817-.56442.08058C73.10752,35.31221,72.8,35.3403,72.5,35.37778ZM80,34.12533v-7.3238c1.59-.315,3.09754-.66,4.49627-1.03313v7.24316c-.51181.14621-1.05375.3-1.61811.4387-.74626.19882-1.52246.38252-2.32121.557C80.37315,34.04469,80.18378,34.08032,80,34.12533Zm3.00382,6.65818v6.21c-.0076.05063-.02261.09558-.03.14622l-.10318.16875c-.48934.82683-2.01378,1.75877-4.37247,2.66624V42.84779A22.50986,22.50986,0,0,0,83.00384,40.78351Zm-7.5,2.9793v7.22253c-1.34069.38814-2.84246.76874-4.50565,1.12871V44.80341C72.59571,44.48844,74.09755,44.14539,75.50381,43.76281Zm-7.50008,1.57494V52.6915c-.57176.10318-1.12871.20629-1.72116.30009a.4692.4692,0,0,0-.10312.015c-.86444.13121-1.75877.26433-2.68131.3806V45.96781C65.04314,45.78591,66.54505,45.57221,68.00373,45.33775Zm-7.5.95256V53.7397a.7203.7203,0,0,1-.12565.015c-.18931.02056-.38814.0431-.585.05811-.91687.09564-1.85429.17628-2.81253.24939-.20623.01315-.40307.02815-.60937.05063-.12373.00747-.24747.01507-.37306.02247V46.65591C57.52256,46.55471,59.02255,46.43659,60.50377,46.29031Zm-7.5.53441v7.49249a1.36757,1.36757,0,0,0-.17635.00753q-1.62555.07863-3.31871.12559c-.10873,0-.21932,0-.33.00747-.70878.01316-1.44936.02063-2.175.02816V46.99347c.41061-.00753.82122-.00753,1.23751-.015.075-.00754.1556-.00754.23624-.00754C49.985,46.94284,51.49437,46.89776,53.00381,46.82472Zm-9.00186.16875v7.485c-2.02885-.02063-4.02941-.07311-5.99818-.16876V46.82472c1.5.073,3.00937.11812,4.51868.14621l.242.00754C43.1732,46.98594,43.58381,46.98594,44.002,46.99347ZM35,46.65591v7.472c-.56442-.04514-1.14186-.07324-1.70628-.11819a1.0969,1.0969,0,0,0-.15375-.015c-.90186-.08064-1.76618-.1669-2.63624-.26254V46.29031C31.97558,46.43659,33.47756,46.55471,35,46.65591Zm-7.5-.6881v7.41185c-.38813-.05057-.78374-.09367-1.1644-.14622-.39561-.0581-.79875-.11626-1.19435-.17628-.68056-.1012-1.34063-.21932-1.99878-.32812-.05248-.0074-.09564-.02247-.14621-.02994V45.33775C24.45309,45.57221,25.955,45.78591,27.5,45.96781ZM16.15439,51.19719c-.21932-.06564-.43877-.12374-.65815-.1819V43.76281c1.4062.38258,2.90625.72563,4.5038,1.0406v7.31633c-.11633-.02069-.24186-.05064-.35819-.07317-.38807-.08626-.77058-.16684-1.14371-.255C17.69377,51.60033,16.90244,51.40342,16.15439,51.19719Zm5.3475,8.15249v7.14751a13.40867,13.40867,0,0,1-3.83066-2.06435l-.50625-.44623a.95348.95348,0,0,1-.16875-.49125V57.28348A22.40053,22.40053,0,0,0,21.50189,59.34968ZM16.99623,83.02909C14.0825,81.93785,12.5,80.83909,12.5,79.98977V73.7853a22.59725,22.59725,0,0,0,4.49627,2.06626Zm7.5,2.09435c-1.65374-.35059-3.16312-.72557-4.49621-1.11377V76.76658c1.39867.37313,2.90811.7181,4.49621,1.03313Zm7.5,1.26752c-1.58069-.21185-3.08247-.44068-4.49627-.68816V78.33412c1.44936.23432,2.95127.44624,4.49627.63746Zm7.5.74626Q37.16748,86.974,35,86.74162V79.29408c1.47937.13874,2.98121.26255,4.49627.35813Zm9.00187.35251c-2.07189-.015-4.07251-.08064-5.99812-.17628v-7.485q2.25287.09844,4.52628.14628h.23433c.41814.00753.8269.01506,1.23751.01506ZM57.5,87.321q-2.8885.14337-5.99811.16875V79.99718c.41061-.00741.81936-.01494,1.23751-.02247h.23439c1.51678-.03,3.02437-.07311,4.52621-.14628Zm7.5-.57936q-2.16561.23063-4.49627.3956V79.65974c1.51506-.10311,3.0169-.22692,4.49627-.36566Zm7.5-1.03882c-1.41367.24748-2.91558.47631-4.49627.68816V78.97158c1.545-.18375,3.047-.3956,4.49627-.63746ZM80,84.00967c-1.33309.3882-2.84247.76318-4.49621,1.11377V77.79971c1.58817-.3075,3.09748-.66,4.49621-1.03313Zm-23.2181-7.16245c-.54188.02247-1.08377.04309-1.63318.06563-.44624.015-.89248.02995-1.3481.03748-1.23751.0281-2.505.05063-3.80064.05063s-2.55566-.02253-3.80058-.04316c-.45562-.015-.90939-.02994-1.35569-.045-.54935-.015-1.08377-.03562-1.62558-.05816C32.69369,76.386,24.38752,74.884,19.085,73.24348,14.99,71.976,12.68371,70.62972,12.5225,69.61721c.09373-.3806.90754-1.32562,3.87374-2.37938.13128.09565.29249.18376.43877.27755.1556.10306.315.20617.48372.30182.13319.0807.27186.15936.41061.24a40.346,40.346,0,0,0,10.89937,3.54563c.10133.02248.20445.045.31509.06564.46872.09564.94311.18376,1.42683.27187,2.34374.4387,4.87131.8193,7.5375,1.12686.02815,0,.0581.01494.08811.01494h.02815q3.59445.40789,7.45693.65259h.02809c2.10936.12374,4.27121.20438,6.46121.24186.85684.015,1.70628.02056,2.52565.02056.62252,0,1.26,0,1.89758-.01309,2.40185-.02994,4.77554-.11812,7.10429-.24933h.00753A109.53362,109.53362,0,0,0,83.47248,70.8922c.24754-.0581.4894-.12374.73132-.18937.16128-.03755.3225-.08811.48378-.13313.42562-.11627.84191-.23432,1.24492-.35812.0507-.015.09571-.03.14634-.045.47618-.14628.93742-.3,1.38372-.45377C87.17761,70.716,84.88443,72.021,80.915,73.24348,75.61255,74.884,67.30631,76.386,56.78192,76.84722ZM24.49625,67.50785V60.26469c1.40626.37313,2.90811.72564,4.50566,1.03313v7.3238Q26.50722,68.09565,24.49625,67.50785Zm7.5,1.69313V61.83217q2.18812.36288,4.50559.63753v7.41938C34.91185,69.6847,33.41,69.45031,31.99627,69.201Zm7.5,1.0406V62.7922c1.48116.14627,2.98121.26248,4.50566.36566v7.47741c-.3375-.02055-.675-.05056-1.00319-.0731-.21376-.01309-.43315-.03557-.65246-.05057C41.37127,70.431,40.4281,70.33538,39.49629,70.24158Zm7.5.57v-7.485c1.50191.06557,3.01875.118,4.52628.13874l.23624.00747c.41629.00753.8269.015,1.23751.02254v7.49249c-.54188-.00754-1.09123-.00754-1.6275-.02248-.21938-.0076-.43876-.0076-.65808-.015-.93008-.02069-1.83941-.05064-2.747-.08626C47.64125,70.8491,47.31875,70.8341,46.99625,70.81162Zm9.00193.17623V63.49536c.41808-.00754.82875-.015,1.23751-.02254h.24186c1.50931-.02816,3.01869-.07311,4.51874-.14621v7.485c-.80436.045-1.61817.07311-2.43007.10312l-.25686.00747c-.67494.02247-1.3631.03556-2.0512.05057-.1238,0-.25686.00753-.38807.00753C56.585,70.98785,56.29067,70.98785,55.99818,70.98785ZM65,70.63527V63.15786c1.52247-.10318,3.02438-.21939,4.49621-.36566v7.44938c-.10126.01309-.21185.02063-.32058.03563-.14813.015-.30188.03-.45563.04316C67.50507,70.43843,66.26,70.54154,65,70.63527Zm7.5-.74619V62.4697c1.545-.18376,3.047-.39561,4.49627-.63753V69.201C75.58439,69.45031,74.08255,69.67723,72.5,69.88908ZM80,68.62162V61.30536c1.59-.315,3.09754-.66,4.49627-1.04067v7.24316c-.04316.015-.09379.03-.13874.045-.1819.05063-.37307.10305-.55682.15375Q82.06532,68.179,80,68.62162Zm7.50009,11.37556c0,.84191-1.58255,1.94067-4.49627,3.03191V75.85156a22.59778,22.59778,0,0,0,4.49627-2.06626Zm4.4962-16.50182c0,.75373-1.26566,1.71369-3.62435,2.68687l-.015-.01315-.85684.32811V59.34968a22.06031,22.06031,0,0,0,4.4962-2.0662ZM91.98316,53.0947c-.13312,1.01813-2.43933,2.37376-6.56247,3.64683-5.31,1.64072-13.61625,3.14256-24.14065,3.61134-.53626.02247-1.07067.04494-1.62.058-.4537.015-.89994.03008-1.36124.04508-1.23745.028-2.4975.0431-3.8025.0431-.97311,0-1.91813-.01507-2.86315-.02816-.37307-.00747-.7462-.01494-1.11371-.02247-.34312-.00747-.68063-.02254-1.01807-.03-11.36636-.3656-20.31759-1.94061-25.9201-3.67691a27.59372,27.59372,0,0,1-4.43811-1.72876,116.28469,116.28469,0,0,0,17.32132,2.21254c.01494,0,.02241.00754.03741.00754h.02063c1.905.11058,3.83818.19122,5.80127.22679,1.07623.03007,2.13937.04507,3.18.04507.9,0,1.82255-.015,2.7601-.03747,2.12437-.03755,4.19619-.11627,6.23244-.23439h.015a116.47948,116.47948,0,0,0,16.98566-2.15253c.40308-.08057.79868-.16875,1.18688-.25686.12367-.03.24748-.05816.37313-.08064,5.295-1.21682,9.54368-2.85,11.59309-4.92188a.79961.79961,0,0,0,.08064-.06564C90.29756,51.11655,91.81441,52.53035,91.98316,53.0947ZM85.42069,22.24531C80.11067,23.886,71.80444,25.3878,61.28,25.8491c-.53626.02063-1.07067.0431-1.62.06558-.4537.015-.89994.03-1.36124.03562-1.23745.03-2.4975.05255-3.8025.05255-1.29561,0-2.55566-.02254-3.80058-.05255-.45383-.00562-.9-.02062-1.35569-.03562-.54935-.02248-1.08376-.045-1.62558-.06558-10.51686-.4613-18.82316-1.96315-24.13318-3.60379-4.07251-1.26-6.37872-2.60068-6.56247-3.61874.23432-2.23317,12.74434-6.12186,37.4775-6.12186,24.73508,0,37.245,3.88869,37.47942,6.12186C91.79941,19.64463,89.49128,20.98532,85.42069,22.24531Zm6.57562,6.75184c0,.84376-1.58063,1.94253-4.4962,3.03376v-7.185a21.8741,21.8741,0,0,0,4.4962-2.05873Z"></path></g></svg>
