<svg xmlns="http://www.w3.org/2000/svg" viewBox="0 0 100 100" x="0px" y="0px"><defs><style>.cls-1{fill:none;stroke:#000;stroke-linecap:round;stroke-linejoin:round;stroke-width:2px;}</style></defs><path class="cls-1" d="M10.55,58C5,53.35,7.89,45.45,14.4,42.26c5.63-2.75,16.4-4.47,32.48-4.47,34.83,0,44.48,16.24,43.78,21.66S85.48,78.27,61.47,78.27s-23.3-9.18-29.89-11.76C27.07,64.73,16.16,62.77,10.55,58Zm-2.93-6.6V66.59S8.11,75,18.06,76.94s11.73.9,21.35,10.11S91,97,92.38,73.19M65.57,58.44c-5,0-9.13,2.32-9.13,5.18s4.09,5.19,9.13,5.19,9.13-2.32,9.13-5.19S70.61,58.44,65.57,58.44Zm0,3.17c-2.77,0-5,.9-5,2s2.24,2,5,2,5-.9,5-2S68.34,61.61,65.57,61.61ZM17.4,50.7l21.93-7.17m-11,9.87,21.93-7.17M36.48,58.6l21.93-7.17M33.7,17a5.47,5.47,0,0,1,2.37,4.89c0,3.58-3.75,4.89-3.75,7.9s2.73,2.57,3.75,1.55M54.5,17a5.47,5.47,0,0,1,2.36,4.89c0,3.58-3.75,4.89-3.75,7.9s2.73,2.57,3.75,1.55M45.93,7.67a5.13,5.13,0,0,1,3.23,4.81c0,3.66-6.9,9.61-6.9,14.58a6.15,6.15,0,0,0,2.82,5"></path></svg>
