<svg height='100px' width='100px' xmlns="http://www.w3.org/2000/svg" version="1.1" x="0px" y="0px" viewBox="0 0 66 66"><g><path d="M54.3,36.5c-0.4,0.4-0.4,1,0,1.4c0.4,0.4,1,0.4,1.4,0c0.4-0.4,0.4-1,0-1.4C55.4,36.2,54.7,36.2,54.3,36.5z"></path><path d="M64.4,42.4l-3.7-1.7l3.7-1.7c0.3-0.1,0.5-0.4,0.6-0.7s-0.1-0.7-0.3-0.9c-17.5-17.1-36-17.2-53.4-0.2l-8.6-5.4   c-0.3-0.2-0.8-0.2-1.1,0c-0.3,0.2-0.5,0.7-0.4,1.1c1.5,5.5,1.2,6.5,0.7,7.7c-0.5,1.3-1.1,3-0.7,8.3c0,0.3,0.2,0.7,0.5,0.8   c0.3,0.2,0.7,0.1,1,0l8.6-5.4c17.4,17,35.9,17,53.4-0.2c0.2-0.2,0.3-0.6,0.3-0.9S64.7,42.5,64.4,42.4z M12.1,42.2   c-0.2-0.2-0.4-0.3-0.7-0.3c-0.2,0-0.4,0.1-0.5,0.2L3,47c-0.1-3.5,0.3-4.8,0.7-5.8c0.6-1.5,0.9-2.7,0-6.5l7.1,4.5   c0.4,0.2,0.9,0.2,1.2-0.1C25.2,26,38.4,23,51.6,29.9c-3.2,2.6-5.1,6.5-5.1,10.7c0,4.2,1.9,8.1,5.1,10.7   C38.4,58.2,25.2,55.2,12.1,42.2z M53.5,50.2c-3.2-2.2-5-5.8-5-9.6c0-3.9,1.9-7.4,5-9.6c2.9,1.7,5.8,4,8.7,6.7l-4.3,2   c-0.4,0.2-0.6,0.5-0.6,0.9s0.2,0.7,0.6,0.9l4.3,2C59.3,46.3,56.4,48.5,53.5,50.2z"></path><path d="M42.7,39.2h-1.9c0.1-2.6,0.7-5.1,1.7-7.1c0.3-0.5,0.1-1.1-0.4-1.4c-0.5-0.3-1.1-0.1-1.4,0.4c-1.2,2.2-1.8,5.1-1.9,8h-3.9   c0.1-1.8,0.5-3.6,1.2-5c0.3-0.5,0.1-1.1-0.4-1.4c-0.5-0.3-1.1-0.1-1.4,0.4c-0.9,1.7-1.4,3.8-1.5,5.9h-3.9c0.1-1,0.4-2,0.8-2.8   c0.3-0.5,0.1-1.1-0.4-1.3c-0.5-0.3-1.1-0.1-1.3,0.4c-0.6,1.1-0.9,2.4-1,3.8H23c0.1-0.2,0.1-0.5,0.2-0.7c0.3-0.5,0.1-1.1-0.4-1.4   c-0.5-0.3-1.1-0.1-1.4,0.4c-0.2,0.5-0.4,1-0.5,1.6h-3.2c-0.6,0-1,0.4-1,1s0.4,1,1,1h3.2c0.1,0.6,0.2,1.1,0.5,1.6   c0.3,0.5,0.9,0.7,1.3,0.4c0.5-0.3,0.7-0.9,0.4-1.3c-0.1-0.2-0.2-0.4-0.2-0.7h3.9c0.1,1.4,0.4,2.7,1,3.8c0.3,0.5,0.9,0.7,1.3,0.4   c0.5-0.3,0.7-0.9,0.4-1.3c-0.4-0.8-0.7-1.8-0.8-2.8h3.9c0.1,2.1,0.6,4.2,1.5,5.9c0.3,0.5,0.9,0.7,1.4,0.4c0.5-0.3,0.7-0.9,0.4-1.4   c-0.7-1.4-1.1-3.1-1.2-5h3.9c0.1,2.9,0.8,5.8,1.9,8c0.3,0.5,0.9,0.7,1.4,0.4c0.5-0.3,0.7-0.9,0.4-1.4c-1-2-1.6-4.5-1.7-7.1h1.9   c0.6,0,1-0.4,1-1S43.2,39.2,42.7,39.2z"></path><path d="M38.8,21.2c0.5-0.2,0.8-0.7,0.6-1.3c-0.9-2.6-0.6-3.3-0.2-4.4c0.4-1.1,0.8-2.4,0.3-5.6c-0.1-0.5-0.6-0.9-1.2-0.8   c-0.5,0.1-0.9,0.6-0.8,1.2c0.5,2.6,0.1,3.6-0.2,4.6c-0.5,1.5-0.8,2.6,0.2,5.6C37.7,21.1,38.3,21.3,38.8,21.2z"></path><path d="M33.5,21.2c0.5-0.2,0.8-0.7,0.6-1.3c-0.9-2.6-0.6-3.3-0.2-4.4c0.4-1.1,0.8-2.4,0.3-5.6c-0.1-0.5-0.6-0.9-1.2-0.8   c-0.5,0.1-0.9,0.6-0.8,1.2c0.5,2.6,0.1,3.6-0.2,4.6c-0.5,1.5-0.8,2.6,0.2,5.6C32.4,21.1,33,21.3,33.5,21.2z"></path><path d="M28.2,21.2c0.5-0.2,0.8-0.7,0.6-1.3c-0.9-2.6-0.6-3.3-0.2-4.4c0.4-1.1,0.8-2.4,0.3-5.6c-0.1-0.5-0.6-0.9-1.2-0.8   c-0.5,0.1-0.9,0.6-0.8,1.2c0.5,2.6,0.1,3.6-0.2,4.6c-0.5,1.5-0.8,2.6,0.2,5.6C27.1,21.1,27.7,21.3,28.2,21.2z"></path></g></svg>
