<svg xmlns="http://www.w3.org/2000/svg" version="1.1" x="0px" y="0px" viewBox="0 0 100 100" enable-background="new 0 0 100 100" xml:space="preserve"><g><path d="M84.741,45.322c-0.46,2.635-1.494,5.721-3.065,8.851c-1.571,3.13-3.428,5.802-5.267,7.745   c2.329-1.009,4.836-3.588,6.59-7.081C84.753,51.344,85.324,47.793,84.741,45.322z"></path><path d="M17.126,56.607c-1.698-2.593-2.941-5.218-3.651-7.516c-0.181,2.289,0.734,5.391,2.629,8.285   c1.895,2.895,4.305,4.871,6.373,5.465C20.703,61.345,18.823,59.2,17.126,56.607z"></path><path d="M20.176,26.181c-1.456,3.627-1.729,7.213-0.941,9.627c0.239-2.664,1.011-5.825,2.316-9.076   c1.304-3.25,2.931-6.068,4.601-8.158C23.914,19.774,21.632,22.554,20.176,26.181z"></path><path d="M47.491,31.378c-2.643,1.835-4.453,4.178-5.004,6.193c1.37-1.724,3.332-3.548,5.699-5.192   c2.367-1.644,4.761-2.845,6.855-3.527C52.961,28.664,50.134,29.543,47.491,31.378z"></path><path d="M66.03,15.098c-2.724-1.713-5.588-2.461-7.659-2.178c2.123,0.585,4.57,1.675,7.01,3.209   c2.441,1.534,4.483,3.266,5.931,4.926C70.669,19.066,68.754,16.809,66.03,15.098z"></path></g><g><path d="M92.723,47.193c0-7.369-3.472-13.923-8.865-18.13c3.121-3.865,3.087-9.529-0.322-13.365   c-2.774-3.122-7.013-4.168-10.761-3.024c-2.831-4.202-7.464-7.136-12.904-7.609c-5.526-0.48-10.669,1.687-14.186,5.445   C35.33,4.102,21.663,6.874,14.68,17.013c-4.506,6.542-5.16,14.594-2.456,21.47c-5.112,4.62-7.185,12.05-4.649,18.907   c2.609,7.056,9.317,11.402,16.43,11.345c-0.223,0.287-0.432,0.602-0.625,0.948c-3.11,5.558,2.641,9.335,4.843,7.065   c-4.752-2.321,0.29-7.544,5.068-4.837c4.017,2.278,6.217,5.72,11.652,6.693c2.845,5.58-1.207,16.385-1.207,16.385l6.056-0.41   c0,0,2.497-9.065,0.843-16.165c9.802-1.568,10.741-7.733,15.541-6.714c3.959,0.841,3.257,5.316,0.163,6.764   c3.825,0.331,7.906-1.993,5.818-8.184c-0.026-0.077-0.059-0.145-0.087-0.219C83.668,68.894,92.723,59.101,92.723,47.193z    M82.352,16.751c3.047,3.429,3.395,8.317,1.205,12.076c-2.362-1.78-5.077-3.115-8.023-3.88c0.055-0.356,0.103-0.714,0.135-1.077   c0.331-3.816-0.601-7.45-2.445-10.492C76.522,12.931,79.975,14.075,82.352,16.751z M71.802,69.482   c-2.688-4.979-12.045-0.978-12.045-0.978s2.321-3.662,0.787-8.51c-0.381,4.605-7.029,9.122-8.449,8.589   c-1.42-0.533-4.176-9.112,4.28-12.02c-9.515-3.863-10.735,8.865-10.735,8.865s-8.045-9.558-13.897-1.256   c1.57-0.717,6.322-2.754,8.331,4.489c-5.502-2.003-11.541-3.897-15.116-0.911c-6.524-0.529-12.471-4.737-14.891-11.281   c-2.178-5.889-0.956-12.2,2.67-16.791c1.67,3.63,4.304,6.872,7.833,9.303c0.488,0.336,0.987,0.644,1.49,0.937   c-9.267-7.475-11.349-20.943-4.483-30.909c6.282-9.119,17.969-12.274,27.791-8.155c-2.389,2.693-3.965,6.149-4.3,10.011   c-0.039,0.446-0.055,0.888-0.059,1.329c1.453-8.877,9.524-15.271,18.633-14.479c9.024,0.783,15.824,8.337,15.854,17.222   c-1.84-0.475-3.769-0.727-5.757-0.727c-0.592,0-1.178,0.03-1.759,0.074c11.872,0.899,21.226,10.809,21.226,22.911   C89.206,57.961,81.797,66.988,71.802,69.482z"></path><path d="M57.237,20.188c-9.513-1.221-18.214,5.501-19.435,15.014c-0.057,0.444-0.091,0.885-0.114,1.325   c1.815-8.81,10.141-14.868,19.21-13.703c9.07,1.164,15.596,9.127,15.128,18.11c0.089-0.431,0.167-0.867,0.225-1.311   C73.473,30.11,66.751,21.408,57.237,20.188z"></path></g></svg>
