<svg xmlns="http://www.w3.org/2000/svg" viewBox="0 0 101.3532 63.42743" x="0px" y="0px"><g><g><path d="M99.71454,37.28127a1.67876,1.67876,0,0,1,.103-.93083l.2073-.49618a3.19525,3.19525,0,0,0-.17654-2.80319l-.67271-1.16621,1.871-3.14824a2.024,2.024,0,0,0-1.75066-3.06h-.03076a12.0408,12.0408,0,0,0-5.82437,2.295,1.35746,1.35746,0,0,0,.60852,2.4354,1.34294,1.34294,0,0,0,1.0084-.25143,10.5358,10.5358,0,0,1,2.84064-1.44305l-1.46713,2.46483a1.36365,1.36365,0,0,0-.008,1.37351l1.06992,1.85631a.45545.45545,0,0,1,.02407.40122l-.2073.49751a4.42776,4.42776,0,0,0-.27417,2.43942l1.59418,9.11839a.45561.45561,0,0,1-.22067.47076l-1.63831.92816a.45986.45986,0,0,1-.5363-.06553,1.36541,1.36541,0,0,0-.36645-.25678A21.02089,21.02089,0,0,1,89.79772,43.765a27.4946,27.4946,0,0,1-3.75007-4.80661A12.932,12.932,0,0,1,84.515,32.83709a1.3606,1.3606,0,0,0-1.3588-1.37217A1.3629,1.3629,0,0,0,81.7974,32.809a14.7995,14.7995,0,0,0,.428,3.66982l-9.17322-.34772c-.05751-.00267-.115-.004-.17119-.004a2.89984,2.89984,0,0,0-2.65741,1.77874L67.63166,43.864a1.33181,1.33181,0,0,0-.115.48681l-.67,16.36041h-3.076L61.73908,41.03936a1.33733,1.33733,0,0,0-.26481-.67806l-3.62168-4.816a4.46423,4.46423,0,0,0-3.40769-1.59685H30.57367a4.93384,4.93384,0,0,0-3.14155,1.1301L15.29923,45.11308a1.35135,1.35135,0,0,0-.49216,1.04718v14.5509h-3.3649V40.594a2.56065,2.56065,0,0,1,.36912-1.3267l4.89756-8.07522a1.34593,1.34593,0,0,0,.17386-.95624L13.90165,14.51606a2.93033,2.93033,0,0,1,.01872-1.19162L16.226,3.26586a12.69146,12.69146,0,0,1,5.39507-.42262,1.36472,1.36472,0,0,0,.19794.01471c6.79131.02274,24.91976.00936,35.75136.00134,3.718-.004,6.6442-.00535,8.08057-.00535a4.30919,4.30919,0,0,1,3.8477,1.79746L88.8923,27.53029a1.35929,1.35929,0,0,0,.96025.47879l1.55272.08693c.03076.00134.06152.00267.09228.00267a1.33246,1.33246,0,0,0,1.23308-.82518,5.70971,5.70971,0,0,1,1.70652-2.22409,1.34514,1.34514,0,0,0,.90408.34371,1.35929,1.35929,0,0,0,1.35746-1.35746,2.02357,2.02357,0,0,0-3.09608-1.71856,8.67665,8.67665,0,0,0-2.93425,3.01717l-.08292-.00535L71.57164,2.8954A6.8956,6.8956,0,0,0,65.52927.143H21.93139A15.843,15.843,0,0,0,7.79375,5.64777C4.794,9.466,4.39809,13.842,4.40745,17.62016a26.6511,26.6511,0,0,1-.21532,3.78751c-.23939.17119-.46809.34371-.68207.50554l-.09228.06954A9.387,9.387,0,0,0,.418,26.25174a8.58375,8.58375,0,0,0-.337,3.91056,10.98925,10.98925,0,0,0,.29155,1.49655l.012.04948c.06954.28219.14176.57374.1859.864a1.75272,1.75272,0,0,0,1.09132,1.431,1.66183,1.66183,0,0,0,.58979.10833,3.13271,3.13271,0,0,0,1.871-.884,4.86982,4.86982,0,0,1,.90943-.56037,7.06952,7.06952,0,0,0,1.34007-.83855,8.77359,8.77359,0,0,0,2.79383-5.5355,1.35956,1.35956,0,0,0-1.1622-1.53,1.3454,1.3454,0,0,0-1.53,1.16086,6.13337,6.13337,0,0,1-1.84427,3.81961,4.77417,4.77417,0,0,1-.84791.51089c-.24341.12572-.539.27818-.84122.4721a6.57674,6.57674,0,0,1-.15781-.84925,5.8335,5.8335,0,0,1,.19526-2.71091,6.66431,6.66431,0,0,1,2.01011-2.965c.40523-.3076.78773-.59915,1.18226-.85059a1.36794,1.36794,0,0,0,.60718-.90274,26.80034,26.80034,0,0,0,.34772-4.832c-.00669-3.31408.321-7.12834,2.80453-10.28995A11.36652,11.36652,0,0,1,13.134,4.59256L11.26965,12.732a5.61433,5.61433,0,0,0-.03745,2.28829L14.117,30.22916,9.49091,37.859a5.254,5.254,0,0,0-.76633,2.735V61.25549a2.1755,2.1755,0,0,0,2.17327,2.17194h4.4522a2.1755,2.1755,0,0,0,2.17327-2.17194V46.79954l3.32076-2.74836L26.46384,59.5824a1.955,1.955,0,0,0,1.8309,1.28123h3.89718a1.94152,1.94152,0,0,0,1.54871-.76767,1.91612,1.91612,0,0,0,.33435-1.66372l-3.49329-13.362,5.72006-8.40555h13.7284l-3.74606,21.928a1.94169,1.94169,0,0,0,1.91783,2.2709h4.34788A1.94193,1.94193,0,0,0,54.3874,59.557l5.042-14.45194,1.70117,16.49013a1.76606,1.76606,0,0,0,.535,1.23576,2.02225,2.02225,0,0,0,1.42433.59648h4.479a1.966,1.966,0,0,0,1.96464-1.96063l.68742-16.75093,2.49425-5.72541a.25674.25674,0,0,1,.234-.14444l10.0666.38116c.11769.1966.234.37848.3504.56037.06954.11234.14043.22335.2073.33034a19.07191,19.07191,0,0,0,4.39068,5.6465,23.31039,23.31039,0,0,0,6.55593,4.54047,3.17619,3.17619,0,0,0,3.59092.321l1.641-.92949a3.18319,3.18319,0,0,0,1.5554-3.29669ZM58.16956,40.483a.28809.28809,0,0,0-.02274.04547l-6.14535,17.6189H49.11537L52.7852,36.66473h1.65971a1.71957,1.71957,0,0,1,1.29728.58712ZM27.98714,44.05787a1.3472,1.3472,0,0,0-.18991,1.10469l3.39566,12.98481H28.83371l-5.74948-15.891a.18776.18776,0,0,0-.01872-.04012l6.0972-5.04467a2.21188,2.21188,0,0,1,1.411-.50687H33.0171Z"></path></g></g></svg>
