<svg xmlns="http://www.w3.org/2000/svg" x="0px" y="0px" viewBox="0 0 100 100" enable-background="new 0 0 100 100" xml:space="preserve"><path d="M85.009,26.127c0.002-0.124-0.004-0.249-0.02-0.375c-0.134-1.023-0.884-1.859-1.887-2.104l-37.843-9.217  c-0.549-0.134-1.124-0.079-1.635,0.157L16.806,26.905c-0.879,0.404-1.432,1.273-1.451,2.223l-0.005,0l-0.846,42.82  c-0.021,1.098,0.675,2.081,1.717,2.425l40.997,13.502C57.474,87.959,57.737,88,58,88c0.508,0,1.01-0.154,1.436-0.453L83.1,70.945  c0.653-0.458,1.048-1.2,1.064-1.997l0.846-42.821H85.009z M44.92,19.495l30.724,7.483l-6.594,3.601l-21.336,2.706l-22.082-4.931  L44.92,19.495z M58.722,46.125l-6.474-8.375l12.686-1.609L58.722,46.125z M20.288,32.284l25.881,5.78l10.252,13.261l-0.829,30.751  L19.54,70.201L20.288,32.284z M60.633,80.599l0.792-29.354l10.184-16.367l8.316-4.541L79.189,67.58L60.633,80.599z"></path></svg>
