<svg xmlns="http://www.w3.org/2000/svg" version="1.1" x="0px" y="0px" viewBox="0 0 64 64" style="enable-background:new 0 0 64 64;" xml:space="preserve"><path d="M41,4c-4.5,0-9,3.3-12.8,9.4C26.6,12.5,24.8,12,23,12C12,12,4,31.1,4,41c0,10.5,8.5,19,19,19c6.2,0,12-3,15.6-8.1  c0.8,0.1,1.6,0.2,2.4,0.2c10.5,0,19-8.5,19-19C60,23.1,52,4,41,4z M23,58c-9.4,0-17-7.6-17-17l0,0c0-9.1,7.7-27,17-27  c1.8,0,3.5,0.6,5,1.7l0,0c6.9,4.7,12,17.9,12,25.3C40,50.4,32.4,58,23,58L23,58z M41,50c-0.4,0-0.8,0-1.3,0c1.5-2.8,2.3-5.9,2.3-9  c0-7.7-4.8-20.9-12.1-26.5C32,11,36,6,41,6c9.3,0,17,17.9,17,27C58,42.4,50.4,50,41,50L41,50z"></path></svg>
