<svg xmlns="http://www.w3.org/2000/svg" version="1.1" x="0px" y="0px" viewBox="0 0 100 100" enable-background="new 0 0 100 100" xml:space="preserve"><path d="M91.5,44.4c-0.4-0.4-0.9-0.7-1.5-0.9c-0.1,0-0.2-0.1-0.3-0.1l-0.3-0.1c0,0,0,0,0,0l-5.6-1.4l4.3-4.3  c2.8-2.8,3.7-6.5,2.3-9.9c-1.6-3.9-5.9-6.3-11.1-6.3H50.1c-1.1,0-2.1,0.4-2.9,1.2l-34,34c-0.2,0.2-0.3,0.3-0.5,0.5l-0.2,0.2l0,0  c-2.5,2.8-4.1,6.4-4.1,10.4c0,8.5,6.9,15.5,15.5,15.5h32.9c1.1,0,2.1-0.4,2.9-1.2l31.9-31.9c0.8-0.8,1.2-1.8,1.2-2.9  C92.7,46.2,92.3,45.2,91.5,44.4z M84.9,45.3L55,75.2H23.8c-4,0-7.3-3.3-7.3-7.3s3.3-7.3,7.3-7.3h24.8c1.2,0,2.1,0.9,2.1,2.1  s-0.9,2.1-2.1,2.1H25.2c-2.2,0-4.1,1.8-4.1,4.1s1.8,4.1,4.1,4.1h23.4c2.8,0,5.3-1.1,7.2-3l0,0l25.5-25.5L84.9,45.3z M49.3,24.8  c0.2-0.2,0.5-0.3,0.8-0.3h29.2c4,0,7.2,1.7,8.3,4.5c0.9,2.2,0.3,4.7-1.6,6.6L58.9,62.6c0-5.6-4.5-10.2-10.1-10.2l-25,0  c-0.8,0-1.6,0.1-2.3,0.2L49.3,24.8z M89.4,48.1L57.5,80c-0.2,0.2-0.5,0.3-0.8,0.3H23.8c-6.9,0-12.5-5.6-12.5-12.5  c0-3.3,1.3-6.3,3.4-8.5l0.5-0.5c2.2-2.1,5.2-3.4,8.5-3.4l24.9,0c3.9,0,7.2,3.3,7.2,7.2c0,2-0.8,3.8-2.1,5.1l0,0  c-1.3,1.3-3.1,2.1-5.1,2.1H25.2c-0.6,0-1.1-0.5-1.1-1.1c0-0.6,0.5-1.1,1.1-1.1h23.4c2.8,0,5.1-2.3,5.1-5.1s-2.3-5.1-5.1-5.1H23.8  c-5.7,0-10.3,4.6-10.3,10.3s4.6,10.3,10.3,10.3h32.5l31.6-31.6c0.4-0.4,1.1-0.4,1.5,0c0.2,0.2,0.3,0.5,0.3,0.8  C89.7,47.6,89.6,47.9,89.4,48.1z"></path></svg>
