<svg xmlns="http://www.w3.org/2000/svg" version="1.1" x="0px" y="0px" viewBox="0 0 64 64" enable-background="new 0 0 64 64" xml:space="preserve"><path d="M62.587,31.875c0.008-0.168-0.042-0.325-0.138-0.459c-1.315-3.255-7.004-8.357-15.288-10.851  c-0.053-0.026-0.107-0.04-0.163-0.053c-2.294-0.678-4.781-1.153-7.428-1.333c-1.375-1.953-3.819-4.163-7.937-4.313  c-0.127-0.006-12.706-0.316-13.371,2.911c-0.304,1.473,1.683,2.448,3.447,3.133c0.506,0.196,0.964,0.372,1.399,0.538  c-4.484,1.683-7.944,4.191-9.886,7.292c-0.209-2.166-0.761-5.08-2.207-6.538c-0.857-0.866-1.944-1.144-3.146-0.801  c-0.676,0.193-1.402,0.287-2.22,0.287c-0.644,0-1.233-0.057-1.752-0.107c-0.41-0.04-0.765-0.073-1.048-0.073  c-0.25,0-1.012,0-1.333,0.639c-0.383,0.762,0.065,1.677,2.283,4.663c1.86,2.504,3.557,4.199,5.076,5.095  c-1.519,0.895-3.215,2.589-5.076,5.094c-2.218,2.986-2.666,3.901-2.283,4.663c0.321,0.639,1.083,0.639,1.333,0.639  c0.284,0,0.638-0.032,1.048-0.072c0.52-0.051,1.108-0.108,1.752-0.108c0.817,0,1.543,0.095,2.22,0.287  c0.332,0.096,0.66,0.144,0.973,0.144c0.821,0,1.553-0.317,2.173-0.943c1.457-1.47,2.006-4.422,2.212-6.593  c1.991,3.174,5.57,5.728,10.211,7.408c-0.525,0.199-1.095,0.418-1.73,0.664c-1.764,0.685-3.75,1.659-3.447,3.133  c0.554,2.688,9.38,2.921,12.381,2.921c0.601,0,0.968-0.01,0.99-0.01c4.298-0.156,6.784-2.559,8.12-4.569  c2.587-0.189,5.015-0.667,7.261-1.332c0.047-0.012,0.091-0.022,0.135-0.043c8.291-2.492,13.983-7.598,15.3-10.854  C62.545,32.2,62.595,32.044,62.587,31.875z M22.253,19.513c-2.257-0.876-2.502-1.423-2.522-1.423  c0.373-0.838,5.822-1.941,11.849-1.724c2.854,0.104,4.767,1.374,6.017,2.741c-0.126-0.001-0.245-0.014-0.371-0.014  c-4.333,0-8.34,0.573-11.854,1.602C24.519,20.383,23.505,19.999,22.253,19.513z M5.004,25.918c-1.04-1.4-1.699-2.372-1.967-2.902  c0.207,0.01,0.448,0.035,0.717,0.061c0.526,0.051,1.181,0.115,1.897,0.115c0.958,0,1.819-0.113,2.632-0.345  c0.667-0.19,1.194-0.064,1.668,0.414c1.5,1.512,1.869,5.805,1.897,7.74c-0.18,0.104-0.392,0.157-0.634,0.158  c-0.001,0-0.001,0-0.002,0s-0.002,0-0.003,0C10.342,31.156,8.387,30.471,5.004,25.918z M9.952,40.553  c-0.475,0.479-1.002,0.605-1.669,0.415c-0.813-0.232-1.673-0.346-2.632-0.346c-0.717,0-1.372,0.064-1.897,0.115  c-0.269,0.026-0.51,0.051-0.717,0.061c0.269-0.53,0.927-1.502,1.967-2.902c3.386-4.559,5.343-5.238,6.208-5.238  c0.243,0,0.457,0.053,0.637,0.157C11.821,34.748,11.454,39.038,9.952,40.553z M13.406,31.875  c1.747-5.479,9.857-11.281,23.819-11.281c2.927,0,5.677,0.409,8.213,1.064c-2.397,2.832-3.713,6.409-3.713,10.217  s1.315,7.384,3.712,10.216c-2.536,0.656-5.285,1.064-8.212,1.064C23.264,43.156,15.152,37.354,13.406,31.875z M31.579,47.634  c-6.028,0.213-11.487-0.888-11.846-1.675c0.001-0.006,0.172-0.561,2.52-1.472c1.359-0.528,2.448-0.94,3.34-1.265  c0.042-0.016,0.072-0.045,0.11-0.067c3.433,0.968,7.327,1.501,11.521,1.501c0.201,0,0.394-0.019,0.594-0.021  C36.579,46.096,34.613,47.523,31.579,47.634z M47.042,41.634c-2.457-2.635-3.817-6.075-3.817-9.758c0-3.684,1.361-7.125,3.819-9.759  c7.516,2.352,12.755,6.895,13.972,9.759C59.799,34.739,54.559,39.282,47.042,41.634z"></path><path d="M50.628,28.097c-2.083,0-3.778,1.695-3.778,3.778s1.695,3.778,3.778,3.778s3.778-1.694,3.778-3.778  S52.711,28.097,50.628,28.097z M50.628,34.153c-1.256,0-2.278-1.021-2.278-2.278s1.022-2.278,2.278-2.278s2.278,1.022,2.278,2.278  S51.884,34.153,50.628,34.153z"></path><path d="M33.939,24.381c-0.346,0.228-0.442,0.692-0.215,1.039c0.756,1.15,0.756,2.636,0,3.786c-0.228,0.346-0.131,0.811,0.215,1.039  c0.127,0.083,0.271,0.123,0.411,0.123c0.244,0,0.483-0.119,0.628-0.338c1.084-1.65,1.084-3.783,0-5.433  C34.751,24.25,34.286,24.153,33.939,24.381z"></path><path d="M33.939,33.318c-0.346,0.228-0.442,0.692-0.215,1.039c0.756,1.149,0.756,2.636,0,3.785  c-0.228,0.347-0.131,0.812,0.215,1.039c0.127,0.083,0.271,0.123,0.411,0.123c0.244,0,0.483-0.119,0.628-0.338  c1.084-1.65,1.084-3.783,0-5.434C34.751,33.188,34.286,33.092,33.939,33.318z"></path><path d="M27.378,24.381c-0.346,0.228-0.443,0.692-0.215,1.039c0.755,1.15,0.755,2.636,0,3.786c-0.228,0.346-0.131,0.811,0.215,1.039  c0.127,0.083,0.27,0.123,0.411,0.123c0.244,0,0.483-0.119,0.627-0.338c1.084-1.65,1.084-3.783,0-5.433  C28.189,24.25,27.724,24.153,27.378,24.381z"></path><path d="M27.378,33.318c-0.346,0.228-0.443,0.692-0.215,1.039c0.755,1.149,0.755,2.636,0,3.785  c-0.228,0.347-0.131,0.812,0.215,1.039c0.127,0.083,0.27,0.123,0.411,0.123c0.244,0,0.483-0.119,0.627-0.338  c1.083-1.65,1.083-3.783,0-5.434C28.189,33.188,27.724,33.092,27.378,33.318z"></path></svg>
