<svg xmlns="http://www.w3.org/2000/svg" version="1.2" width="100" height="100" x="0px" y="0px" viewBox="0 0 100 100"><g><path d="M76.7,59.5c0-7.9,2.6-12.1,5.1-16.1c2.1-3.4,4.1-6.6,4.1-11.5c0-9.2-6.7-11-9.1-11.3c-0.3-4.1-3.8-7.4-8-7.4   c-0.2,0-0.4,0-0.7,0c-0.6-3.8-3.9-6.7-7.9-6.7c-4,0-7.3,2.9-7.9,6.7c-0.3,0-0.6-0.1-0.9-0.1c-0.6,0-1.2,0.1-1.8,0.2   c0.7-1.2,1-2.5,1-3.9c0-4.4-3.6-8-8-8s-8,3.6-8,8s3.6,8,8,8c0.6,0,1.2-0.1,1.8-0.2c-0.5,1-0.9,2-1,3.2h-6.3c-0.4-4.1-3.8-7.3-8-7.3   c-4.3,0-7.9,3.5-8,7.8c-3,0.9-7.2,3.5-7.2,10.9c0,4.8,2,8.1,4.1,11.5c2.5,4,5.1,8.2,5.1,16.1s-2.6,12.1-5.1,16.1   c-2.1,3.4-4.1,6.6-4.1,11.5c0,11.2,9.9,11.4,10,11.4H50h25.9c0.1,0,10-0.1,10-11.4c0-4.8-2-8.1-4.1-11.5   C79.3,71.5,76.7,67.4,76.7,59.5z M73.8,20.5h-9.9c0.4-2.4,2.4-4.3,4.9-4.3S73.4,18.1,73.8,20.5z M60.3,9.5c2.6,0,4.7,2,5,4.6   c-2.4,1.2-4.1,3.6-4.4,6.4h-1.4c-0.2-2.7-1.9-5.1-4.2-6.3C55.5,11.6,57.6,9.5,60.3,9.5z M37.7,9.5c0-2.8,2.2-5,5-5s5,2.2,5,5   s-2.2,5-5,5S37.7,12.3,37.7,9.5z M51.5,16.2c2.5,0,4.6,1.9,4.9,4.3H50h-3.4C46.9,18.1,49,16.2,51.5,16.2z M29.3,16.2   c2.5,0,4.6,1.9,4.9,4.3h-9.9C24.7,18.1,26.8,16.2,29.3,16.2z M75.9,95.5H50H24.1c-0.3,0-7-0.1-7-8.4c0-4,1.7-6.7,3.7-9.9   c2.6-4.2,5.6-9,5.6-17.7s-3-13.5-5.6-17.7c-2-3.2-3.7-5.9-3.7-9.9c0-8.1,6.3-8.4,7-8.4H50h25.9c0.3,0,7,0.1,7,8.4   c0,4-1.7,6.7-3.7,9.9c-2.6,4.2-5.6,9-5.6,17.7s3,13.5,5.6,17.7c2,3.2,3.7,5.9,3.7,9.9C82.9,95.1,76.6,95.5,75.9,95.5z"></path><path d="M64.9,73.5C64.9,73.5,64.9,73.5,64.9,73.5c-0.4-0.1-10.1-2.6-23,4.6c-1.5-2.6-5.2-7.5-11.6-7.5h-1.8l1.9,9.6l-1.9,9.6h1.8   c6.5,0,10.1-4.9,11.6-7.5c7.6,4.2,14.1,5.1,18.2,5.1c2.9,0,4.6-0.4,4.8-0.5c0,0,0,0,0,0c4-0.9,6.4-3.4,6.4-6.7   C71.3,76.9,68.9,74.4,64.9,73.5z M32.1,86.6l1.2-6.1c0,0,0,0,0,0l0,0c0,0,0,0,0,0c0-0.1,0-0.2,0-0.3c0-0.1,0-0.2,0-0.3c0,0,0,0,0,0   l0,0c0,0,0,0,0,0l-1.2-6.1c4.2,0.9,6.7,4.9,7.5,6.4C38.8,81.7,36.4,85.7,32.1,86.6z M64.2,84C64.1,84,64.1,84,64.2,84   C64.1,84,64.1,84,64.2,84c-0.2,0-8.5,2.1-19.8-3.8c11.3-5.9,19.7-3.9,19.8-3.8c0,0,0,0,0,0c0,0,0,0,0,0c1.5,0.3,4.1,1.3,4.1,3.8   C68.3,82.8,65.7,83.7,64.2,84z"></path></g></svg>
