<svg xmlns="http://www.w3.org/2000/svg" version="1.1" x="0px" y="0px" viewBox="0 0 50.02 50.01" enable-background="new 0 0 50.02 50.01" xml:space="preserve"><g><circle cx="29.88" cy="7.87" r="1.13"></circle><circle cx="23.08" cy="7.87" r="1.13"></circle><circle cx="26.48" cy="5.61" r="1.13"></circle><path d="M35.14,30.6h-2.49c-1.05,0-2.03,0.26-2.91,0.71c0.09-0.43,0.14-0.88,0.14-1.33c0-1.69-0.66-3.29-1.86-4.48l-1.76-1.76   c-0.39-0.39-1.02-0.39-1.41,0l-1.76,1.76c-1.2,1.2-1.86,2.79-1.86,4.48c0,0.45,0.05,0.89,0.14,1.33c-0.87-0.45-1.85-0.7-2.89-0.7   h-2.49c-0.55,0-1,0.45-1,1v2.49c0,3.5,2.84,6.34,6.34,6.34h2.49c0.55,0,1-0.45,1-1v-2.49c0-0.27-0.02-0.54-0.06-0.8l0.08,0.08   c0.2,0.2,0.45,0.29,0.71,0.29s0.51-0.1,0.71-0.29l0.1-0.1c-0.03,0.27-0.06,0.54-0.06,0.82v2.49c0,0.55,0.45,1,1,1h2.49   c3.5,0,6.34-2.84,6.34-6.34V31.6C36.14,31.04,35.69,30.6,35.14,30.6z M22.82,38.43h-1.49c-2.39,0-4.34-1.95-4.34-4.34V32.6h1.49   c2.39,0,4.34,1.95,4.34,4.34V38.43z M25.56,34.1l-1.05-1.05c-0.82-0.82-1.27-1.91-1.27-3.07c0-1.16,0.45-2.25,1.27-3.07l1.05-1.05   l1.05,1.05c0.82,0.82,1.27,1.91,1.27,3.07c0,1.16-0.45,2.25-1.27,3.07L25.56,34.1z M34.14,34.09c0,2.39-1.95,4.34-4.34,4.34h-1.49   v-1.49c0-2.39,1.95-4.34,4.34-4.34h1.49V34.09z"></path><path d="M49.29,44.72l-2.81-2.81c0-0.09-0.01-0.18-0.02-0.27l-2.7-22.29c1.21-0.31,2.08-1.18,2.08-2.24v-0.2   c0-2.76-2.75-5.21-6.17-5.78C38.56,9.21,33.4,1.07,24.64,0.01L24.51,0l-0.12,0.01C15.67,1.07,10.51,9.14,9.37,11.11   c-3.5,0.51-6.35,3-6.35,5.8v0.2c0,1.23,1.15,2.2,2.67,2.34L3.53,41.69c-0.01,0.08-0.01,0.16-0.02,0.24l-2.79,2.79   c-0.71,0.71-0.92,1.74-0.53,2.66c0.43,1.03,1.44,1.65,2.61,1.49L8,48.13c0.05,0.02,0.1,0.03,0.16,0.04   c5.48,1.22,11.1,1.83,16.71,1.83c5.32,0,10.66-0.56,15.87-1.65l1.03-0.22c0.04-0.01,0.07-0.02,0.11-0.03l5.34,0.76   c0.12,0.02,0.24,0.03,0.36,0.03c0.98,0,1.87-0.59,2.25-1.52C50.21,46.45,50.01,45.43,49.29,44.72z M24.51,2.01   c6.49,0.84,10.91,6.32,12.71,8.99H11.8C13.59,8.33,18,2.86,24.51,2.01z M5.03,17.11v-0.2c0-1.8,2.46-3.9,5.64-3.9h27.52   c3.18,0,5.64,2.1,5.64,3.9l0,0.18c-0.02,0.07-0.2,0.2-0.47,0.29L35,18.61c-0.49,0.07-1.06,0.14-1.68,0.19   c-2.35,0.22-5.53,0.35-8.94,0.35c-4.5,0-8.63-0.22-11.07-0.59l-7.43-1.13l0,0.02C5.37,17.41,5.06,17.19,5.03,17.11z M47.98,46.62   c-0.03,0.07-0.11,0.26-0.48,0.28l-5.77-0.82l-0.2,0.05c-0.06,0.02-0.12,0.04-0.18,0.06l-1.03,0.22   c-10.42,2.19-21.3,2.15-31.77-0.19c-0.06-0.02-0.12-0.04-0.18-0.06l-0.21-0.06L2.44,46.9c-0.26,0-0.37-0.21-0.4-0.28   c-0.05-0.12-0.08-0.31,0.1-0.48l3.37-3.37l0-0.57c0-0.09,0-0.18,0.01-0.29l2.16-22.17l5.34,0.81c2.52,0.38,6.77,0.62,11.36,0.62   c3.77,0,7.18-0.15,9.65-0.42c0.45-0.05,0.88-0.1,1.27-0.16l6.49-0.95l2.7,22.23c0.01,0.1,0.01,0.2,0.01,0.29l0,0.58l3.4,3.4   C48.05,46.31,48.03,46.49,47.98,46.62z"></path></g></svg>
