<svg xmlns="http://www.w3.org/2000/svg" viewBox="0 0 512 512" x="0px" y="0px"><path d="M134.171,160.442c0-.1,0-.2,0-.3l-2.091-55.636a7.872,7.872,0,0,0-7.947-7.551L106.553,97h-.048a7.873,7.873,0,0,0-7.989,7.455l-3.26,65.57a.777.777,0,0,1-.808.732.824.824,0,0,1-.807-.787L90.39,104.539A7.944,7.944,0,0,0,82.4,97H64.608a7.937,7.937,0,0,0-7.99,7.528l-3.259,65.46a.793.793,0,0,1-.809.75.815.815,0,0,1-.807-.778l-3.26-65.5A7.88,7.88,0,0,0,40.494,97h-.049l-17.584-.04a7.938,7.938,0,0,0-7.946,7.629l-2.082,55.636c0,.1-.005.181-.005.28,0,31,15.956,60.51,38.636,72.724L43.982,385.47c-.026.48-.039.891-.039,1.371C43.943,402.533,57.2,415.3,73.5,415.3a30.151,30.151,0,0,0,21.782-9.232,27.679,27.679,0,0,0,7.738-20.6l-7.482-152.3C118.223,221.17,134.171,191.681,134.171,160.442ZM84.382,220.7a8,8,0,0,0-5.09,7.848l7.747,157.7a11.822,11.822,0,0,1-3.346,8.783A14.085,14.085,0,0,1,73.5,399.3c-7.476,0-13.557-5.589-13.557-12.458,0-.169.005-.314.017-.535l7.747-157.646a8.01,8.01,0,0,0-5.106-7.852c-19.224-7.79-33.72-33.618-33.773-60.173l1.79-47.863,2.265-.014,2.879,57.989a16.812,16.812,0,0,0,33.578.076L72.22,113h2.567l2.874,57.818a16.809,16.809,0,0,0,33.575-.054l2.88-58.007,2.259.009,1.8,47.825C118.118,187.4,103.61,213.224,84.382,220.7Z"></path><path d="M491.083,96.7a31.932,31.932,0,0,0-31.524,26.561L434.59,267.275a8.008,8.008,0,0,0,4.51,8.617l5.607,2.723A14.606,14.606,0,0,1,453,291.988v97.719a23,23,0,0,0,46,0v-285A7.93,7.93,0,0,0,491.083,96.7Zm-8.083,293a6.791,6.791,0,0,1-6.77,6.856h-.187A7.026,7.026,0,0,1,469,389.707V291.988a30.657,30.657,0,0,0-17.52-27.872l-.173-.134L475.223,126A16.024,16.024,0,0,1,483,114.829Z"></path><path d="M274.965,98.632C188.192,98.632,117.6,169.227,117.6,256s70.6,157.368,157.368,157.368S432.333,342.773,432.333,256,361.738,98.632,274.965,98.632Zm0,298.736C197.015,397.368,133.6,333.951,133.6,256s63.418-141.368,141.368-141.368S416.333,178.049,416.333,256,352.916,397.368,274.965,397.368Z"></path><path d="M274.965,169.029A86.971,86.971,0,1,0,361.936,256,87.069,87.069,0,0,0,274.965,169.029Zm0,157.942A70.971,70.971,0,1,1,345.936,256,71.051,71.051,0,0,1,274.965,326.971Z"></path></svg>
