<svg xmlns="http://www.w3.org/2000/svg" version="1.1" x="0px" y="0px" viewBox="0 0 100 100" enable-background="new 0 0 100 100" xml:space="preserve"><g><g><path d="M77.1,58.9c2.7-20-15.4-41.8-23.1-51.1c-0.8-1-2-1.5-3.1-1.5c-0.6,0-1.2,0.1-1.7,0.4c-1.7,0.8-2.6,2.6-2.3,4.5    c2.6,13.8,1.3,21.4-0.8,24c-0.3,0.3-0.6,0.7-1,0.7c-0.3,0-1-0.3-1.6-1.1c-1.2-1.5-1.7-3.9-1.2-6.3c0.1-0.3,0.1-0.6,0.1-1    c0-2.2-1.8-4-3.9-4.1c-0.1,0-0.1,0-0.2,0c-0.1,0-0.2,0-0.3,0c-0.7,0-1.4,0.3-2,0.7c-0.3,0.2-0.5,0.4-0.8,0.7c0,0-0.1,0.1-0.1,0.1    c-9.4,11.4-13.7,24.3-12,35.5c1,6.7,4.2,12.4,9.1,16.7c-4.4,0.2-7.9,3.9-7.9,8.3c0,4.6,3.7,8.3,8.3,8.3h35.6    c4.6,0,8.3-3.7,8.3-8.3c0-4.6-3.7-8.3-8.3-8.3h-0.9C72.9,71.9,76.2,65.8,77.1,58.9z M38.2,27.4c-1.4,7,2.7,12.4,6.8,12.4    c4.9,0,10-7.7,5.9-29.5C62.4,24.3,88.8,57.2,61,76.7c0,0,10.3-11.5-4.6-26.4c1.9,15.1-4.6,23.9-10.4,23.9c-3.7,0-7.1-3.6-7.9-11.4    c-2.6,8.4-1.6,10.1-0.5,13.3C22.5,66.3,23.4,45.4,38.2,27.4z M72.3,85.3c0,2.3-1.9,4.2-4.2,4.2H32.5c-2.3,0-4.2-1.9-4.2-4.2    c0-2.3,1.9-4.2,4.2-4.2h35.6C70.4,81.1,72.3,83,72.3,85.3z M51.1,77c1.4-0.8,2.7-1.8,3.9-3.2c2.4-2.7,4.1-6.3,5-10.4    c1.7,6.3-1.8,10.3-2,10.5c-0.8,0.9-1.1,2-1,3.1H51.1z"></path><circle cx="33.6" cy="85.3" r="3.3"></circle><circle cx="44.7" cy="85.3" r="3.3"></circle><circle cx="55.8" cy="85.3" r="3.3"></circle><circle cx="66.9" cy="85.3" r="3.3"></circle></g></g></svg>
