<svg xmlns="http://www.w3.org/2000/svg" version="1.1" x="0px" y="0px" viewBox="0 0 100 100" style="enable-background:new 0 0 100 100;" xml:space="preserve"><g><g><path d="M38.8,10.4c1.1-1.6,1.6-3.5,1.8-5.4c6.3,0,12.5,0,18.8,0c0.2,2.4,1.1,4.7,2.7,6.5c1.2,1.3,2.8,2.1,4.5,2.3    c2.5,0.2,5-0.5,7.3-1.5c1.8-0.8,3.4-1.7,5.1-2.8c2.9,4.2,5.9,8.3,8.8,12.5c-1.8,1.1-3.4,2.6-4.8,4.2c-2.9,3.2-5.2,7-6.6,11.1    c-1.8,5-2.3,10.5-1.8,15.8c0.5,4.8,2,9.5,4.9,13.3c2.2,2.8,5.1,5.3,8.5,6.4c-2.9,4.4-5.9,8.8-8.8,13.2c-2.2-1-4.6-1.4-7-1.4    c-4-0.1-8.1,1-11.5,3.2c-2.9,1.9-5.3,4.4-7.2,7.2c-2.3,0-4.6,0-6.8,0c-2.2-3.2-5-6.1-8.5-8c-4.7-2.5-10.3-3-15.4-1.6    c-0.6,0.2-1.2,0.4-1.8,0.6c-2.9-4.4-5.9-8.8-8.8-13.2c1.5-0.5,3-1.2,4.3-2.2C20,68,22.6,64.2,24,60c1.7-4.9,1.9-10.2,1.3-15.4    c-0.9-7.2-4.1-14.1-9.2-19.2c-1.2-1.2-2.5-2.3-3.9-3.1C15.1,18,18,13.7,21,9.4c2.1,1.3,4.3,2.6,6.7,3.4c2.2,0.8,4.6,1.3,6.9,0.7    C36.3,13.1,37.8,11.9,38.8,10.4z M38.9,14c0.3,0.5,0.2,1.2-0.3,1.5c-0.5,0.2-1,0-1.4-0.3c-0.9,0.5-2,0.8-3,1    c-0.1,0.3-0.3,0.6-0.6,0.7c-0.5,0.2-0.9-0.1-1.1-0.5c-1.2,0-2.5-0.2-3.7-0.5c0,0.3,0,0.6-0.3,0.8c-0.6,0.4-1.4,0-1.6-0.6    c0-0.2,0.1-0.4,0.2-0.7c-1.9-0.6-3.6-1.5-5.3-2.5c-1.2,1.8-2.4,3.6-3.7,5.3c0.5,0.1,1,0.4,1.1,1c0.1,0.4-0.3,0.8-0.7,0.9    c-0.5,0.1-0.9-0.3-1.2-0.6c-0.5,0.8-1,1.5-1.6,2.3c3.7,3,6.6,6.9,8.8,11.1c0.5,0.2,1.1,0.5,1.2,1.1c0.1,0.3-0.2,0.6-0.4,0.8    c0.5,1.3,1,2.6,1.4,3.9c0.8-0.3,1.7,0.3,1.8,1.1c0,0.7-0.6,1.1-1.3,1.1c0.9,4.1,1.1,8.3,0.8,12.4c-0.4,4.9-1.9,9.8-4.8,13.9    c0.2,0.2,0.5,0.6,0.4,0.9c-0.2,0.6-0.9,0.8-1.4,0.5c-1.8,2.2-3.9,4.1-6.4,5.5c2,3,4.1,6.1,6.1,9.1c2.1-0.6,4.2-0.9,6.4-0.9    c-0.1-0.3-0.1-0.7,0.1-1c0.3-0.5,1-0.6,1.5-0.4c0.5,0.3,0.8,0.9,0.5,1.5c1.7,0.1,3.3,0.4,4.9,0.9c0.2-0.2,0.4-0.4,0.7-0.4    c0.7,0,1.4,0.5,1.5,1.3c4.2,1.8,7.7,4.9,10.4,8.6c1.4,0,2.8,0,4.3,0c1.6-2.1,3.4-4.1,5.5-5.7c3.1-2.4,6.9-4,10.8-4.5    c0.2-0.3,0.3-0.6,0.7-0.7c0.5-0.2,1.1,0.2,1.4,0.5c2.5-0.1,5.1,0.2,7.5,0.9c0.9-1.3,1.8-2.7,2.6-4c-0.2-0.4-0.6-0.9-0.3-1.3    c0.3-0.4,0.9-0.4,1.3-0.3c0.8-1.2,1.6-2.4,2.4-3.6c-2.1-1.2-4-2.8-5.7-4.6c-0.3,0.5-0.9,0.7-1.4,0.6c-0.5-0.3-0.8-1-0.6-1.6    c0.1-0.3,0.5-0.4,0.8-0.5c-3.1-4.1-4.8-9.2-5.3-14.3c-0.5-5.5,0-11.1,1.7-16.4c-0.4-0.1-0.8-0.3-0.9-0.7c-0.2-0.4,0-0.9,0.4-1    c0.4-0.2,0.8,0,1.1,0.2c2.1-5.4,5.5-10.4,10-14.1c-0.4-0.6-0.8-1.1-1.2-1.7c-0.7,0.4-1.7-0.1-1.8-0.9c0-0.4,0.3-0.6,0.6-0.8    c-1.2-1.8-2.5-3.5-3.7-5.3c-2.6,1.5-5.4,2.8-8.4,3.3c0,0.4-0.1,0.9-0.5,1.1c-0.7,0.6-1.9,0-2-0.9c-1.8,0-3.7-0.5-5.3-1.5    c-1.6-1.1-2.9-2.6-3.8-4.4c-0.6,0.3-1.3,0-1.5-0.5c-0.3-0.6,0.1-1.3,0.8-1.4c-0.1-0.3-0.2-0.7-0.3-1c-4.9,0-9.7,0-14.6,0    C42.1,9.9,40.9,12.3,38.9,14z"></path></g><path d="M45.1,8.2c0.7-0.4,1.6,0.2,1.7,0.9c0,0.4-0.4,0.8-0.8,0.8c-0.5,0.1-1-0.1-1.3-0.6   C44.6,9,44.7,8.4,45.1,8.2z"></path><path d="M52,9.1c0.6-0.3,1.4,0.4,1.1,1c-0.3,0.6-1.2,0.6-1.5,0C51.4,9.7,51.6,9.2,52,9.1z"></path><path d="M42.4,11.5c0.6-0.2,1.3,0.2,1.6,0.7s0,1.1-0.5,1.3c-0.6,0.3-1.5-0.1-1.7-0.7   C41.5,12.3,41.9,11.7,42.4,11.5z"></path><path d="M47.9,11.9c0.6-0.3,1.5,0.1,1.6,0.8c0.1,0.8-1.2,1.3-1.7,0.7C47.3,13,47.2,12.1,47.9,11.9z"></path><path d="M53.6,12.9c0.5-0.2,1.2,0.2,1.3,0.7c0.1,0.7-0.8,1.1-1.3,0.8C53,14.1,53,13.1,53.6,12.9z"></path><path d="M57.6,13.6c0.8-0.5,1.8,0.4,1.5,1.3c-0.2,0.5-0.8,0.6-1.3,0.5C57.1,15.1,57,14,57.6,13.6z"></path><path d="M77.8,14.5c0.7-0.2,1.4,0.2,1.7,0.8c0.1,0.4,0,1-0.5,1.2c-0.7,0.3-1.6-0.1-1.8-0.8   C77.1,15.2,77.4,14.6,77.8,14.5z"></path><path d="M47.5,14.8c0.4-0.2,1,0,1.3,0.3c0.3,0.4,0.4,1.1,0,1.4c-0.3,0.2-0.8,0.3-1.2,0.3   C47,16.3,46.7,15.2,47.5,14.8z"></path><path d="M44.5,15.5c0.8-0.1,1.9,0.7,1.5,1.6c-0.4,0.7-1.5,0.7-2,0.1C43.5,16.7,43.8,15.7,44.5,15.5z"></path><path d="M59.7,16c0.7-0.3,1.7,0.5,1.3,1.3c-0.3,0.6-1.2,0.8-1.7,0.3C58.9,17.1,59.1,16.2,59.7,16z"></path><path d="M36.6,16.1c0.5-0.2,1.3,0,1.5,0.6c0.2,0.5-0.1,1.1-0.7,1.3c-0.6,0.2-1.3-0.2-1.4-0.8   C35.9,16.7,36.2,16.2,36.6,16.1z"></path><path d="M54.4,17.1c1-0.4,2,0.7,1.7,1.7c-0.2,0.6-1,0.9-1.6,0.6c-0.4-0.2-0.8-0.6-0.9-1.1   C53.6,17.8,53.9,17.3,54.4,17.1z"></path><path d="M21.8,17.2c0.6-0.2,1.3,0.1,1.5,0.7c0.1,0.4-0.3,0.8-0.6,0.9c-0.7,0.1-1.3-0.5-1.2-1.2   C21.4,17.5,21.6,17.3,21.8,17.2z"></path><path d="M41,17.6c0.4-0.2,0.9-0.2,1.3,0c0.6,0.4,0.8,1.3,0.4,1.9c-0.7,0.7-2,0.2-2.1-0.7   C40.3,18.4,40.6,17.9,41,17.6z"></path><path d="M62.2,18.8c0.6-0.2,1.3,0.3,1.6,0.8c0.2,0.5-0.1,1-0.6,1.1c-0.6,0.2-1.3-0.2-1.5-0.8   C61.5,19.5,61.7,19,62.2,18.8z"></path><path d="M25,19c0.7-0.3,1.6,0.6,1.3,1.3c-0.3,0.6-1.2,0.5-1.5,0C24.4,19.9,24.6,19.3,25,19z"></path><path d="M73.1,19c0.4-0.1,0.8-0.1,1.2,0.1c0.4,0.2,0.6,0.8,0.3,1.2c-0.3,0.6-1.2,0.7-1.6,0.1   C72.6,20,72.5,19.2,73.1,19z"></path><path d="M32.3,20.6c0.8-0.3,1.8,0.6,1.4,1.4c-0.4,0.7-1.5,0.3-1.8-0.3C31.7,21.2,31.9,20.7,32.3,20.6z"></path><path d="M37,20.5c0.7-0.1,1.5,0.5,1.4,1.3c-0.2,0.8-1.4,1-1.9,0.3C36,21.6,36.4,20.7,37,20.5z"></path><path d="M27.2,21c0.5-0.2,1.1,0,1.4,0.3c0.7,0.7-0.1,2.2-1.1,1.9c-0.4-0.1-0.8-0.5-0.9-0.9   C26.5,21.8,26.7,21.2,27.2,21z"></path><path d="M67.8,21.2c0.7-0.3,1.5,0.3,1.6,1c-0.1,0.8-1.2,1.1-1.8,0.6C67,22.4,67.1,21.4,67.8,21.2z"></path><path d="M41.1,21.4c0.7-0.4,1.6,0.2,1.7,1c-0.1,0.4-0.3,0.7-0.6,0.9c-0.6,0.3-1.5-0.1-1.6-0.8   C40.5,22.1,40.7,21.6,41.1,21.4z"></path><path d="M79.8,21.6c0.7-0.3,1.4,0.2,1.5,0.9c0.1,0.5-0.4,1-0.9,1c-0.4-0.1-0.7-0.3-1-0.6   C79.2,22.5,79.3,21.8,79.8,21.6z"></path><path d="M46.1,21.7c0.8-0.5,1.9,0.5,1.5,1.3c-0.4,0.6-1.3,0.4-1.7-0.1C45.6,22.6,45.6,21.9,46.1,21.7z"></path><path d="M56.2,22c0.4-0.2,0.9,0,1.2,0.2c0.6,0.4,0.5,1.6-0.3,1.8c-0.6,0.3-1.2-0.2-1.5-0.7   C55.3,22.9,55.7,22.3,56.2,22z"></path><path d="M74.6,22.1c0.6-0.3,1.3,0.4,1,1s-1.2,0.6-1.5,0C73.9,22.8,74.2,22.2,74.6,22.1z"></path><path d="M19,22.6c0.7-0.3,1.5,0.2,1.6,0.9c0.1,0.5-0.4,0.9-0.9,1c-0.3,0-0.7-0.2-0.9-0.5   C18.4,23.7,18.5,22.9,19,22.6z"></path><path d="M53.6,22.7c0.6-0.2,1.1,0.4,1.3,0.9c0,0.7-0.9,1.1-1.4,0.7C53,23.9,52.9,22.9,53.6,22.7z"></path><path d="M22.1,23.5c0.5-0.2,1.1,0.1,1.4,0.5c0.5,0.6-0.1,1.5-0.7,1.5c-0.7,0-1.2-0.7-1.2-1.3   C21.5,23.9,21.8,23.6,22.1,23.5z"></path><path d="M51.3,24.4c0.7-0.3,1.7,0.2,1.6,1c0,0.7-0.8,1.2-1.4,0.8C51,25.8,50.6,24.7,51.3,24.4z"></path><path d="M65,24.5c0.8-0.2,2,0.7,1.6,1.6c-0.3,0.8-1.6,0.8-2.1,0.1C64,25.7,64.3,24.7,65,24.5z"></path><path d="M70.5,24.9c0.7-0.3,1.6,0.2,1.6,1s-1.3,1.2-1.7,0.5C69.8,26,69.8,25.1,70.5,24.9z"></path><path d="M27.3,25.4c0.8-0.4,1.6,0.7,1.3,1.4c-0.3,0.5-1.1,0.5-1.5,0C26.6,26.4,26.7,25.6,27.3,25.4z"></path><path d="M41.1,25.5c0.5-0.3,1.3-0.1,1.6,0.5c0.2,0.7-0.7,1.3-1.3,0.9C40.9,26.7,40.6,25.9,41.1,25.5z"></path><path d="M76.1,25.9c0.5-0.3,1.2,0.1,1.3,0.7c0.1,0.7-0.8,1.2-1.3,0.8C75.6,27.1,75.6,26.3,76.1,25.9z"></path><path d="M34.1,26.3c1-0.4,2.2,0.6,1.8,1.6c-0.5,1-2.2,0.6-2.4-0.4C33.4,27.1,33.5,26.4,34.1,26.3z"></path><path d="M60.1,26.5c0.4-0.1,0.9-0.1,1.1,0.2c0.2,0.2,0.4,0.5,0.4,0.8c0,0.5-0.3,1-0.8,1s-1-0.2-1.3-0.6   C59.2,27.4,59.5,26.6,60.1,26.5z"></path><path d="M70.1,27.8c0.4-0.1,0.9,0,1.2,0.2c0.4,0.4,0.5,1.3-0.1,1.5c-0.4,0.2-1,0.4-1.3,0   C69.5,29.1,69.4,28.1,70.1,27.8z"></path><path d="M49.9,28.1c0.7-0.2,1.6,0.5,1.3,1.2c-0.3,0.6-1.2,0.6-1.6,0.1C49.3,28.9,49.5,28.3,49.9,28.1z"></path><path d="M55.4,28.4c0.5-0.2,1.3,0.2,1.2,0.8c-0.1,0.7-1.1,0.9-1.5,0.4C54.8,29.2,54.9,28.5,55.4,28.4z"></path><path d="M39.6,28.5c0.8-0.3,2,0.5,1.7,1.4c-0.1,0.5-0.7,0.7-1.1,0.7C39.5,30.5,39,30,39,29.3   C39,29,39.3,28.6,39.6,28.5z"></path><path d="M66.9,28.6c0.9-0.3,2.1,0.7,1.6,1.6c-0.4,0.7-1.4,0.6-1.9,0C66.2,29.8,66.3,28.9,66.9,28.6z"></path><path d="M29.9,29.1c0.8-0.3,1.8,0.3,1.8,1.2c0,0.7-0.7,1.2-1.4,1.1c-0.6-0.1-1.1-0.6-1.1-1.2   C29.2,29.8,29.4,29.3,29.9,29.1z"></path><path d="M59.1,29.1c0.6-0.3,1.5,0.1,1.6,0.8c0.1,0.8-0.9,1.4-1.6,1C58.4,30.6,58.4,29.4,59.1,29.1z"></path><path d="M44.3,30.3c0.6-0.3,1.4,0.1,1.6,0.7c0.1,0.6-0.7,1.2-1.2,0.8C44.1,31.6,43.7,30.7,44.3,30.3z"></path><path d="M63.6,30.6c0.5-0.2,1.3-0.1,1.6,0.4c0.3,0.5,0.3,1.2-0.1,1.6c-0.7,0.6-1.9,0.1-2.1-0.7   C62.8,31.5,63.1,30.9,63.6,30.6z"></path><path d="M73.2,30.6c0.8-0.4,1.9,0.6,1.4,1.4c-0.5,0.7-1.6,0.2-1.8-0.5C72.6,31.2,72.8,30.8,73.2,30.6z"></path><path d="M47.6,32c0.7-0.3,1.5,0.6,1.3,1.2c-0.2,0.6-1.1,0.6-1.5,0.2C46.9,33.1,47.1,32.3,47.6,32z"></path><path d="M34.8,33.1c0.6-0.2,1.5-0.2,1.7,0.5c0.3,0.8-0.7,1.5-1.4,1C34.6,34.4,34.2,33.4,34.8,33.1z"></path><path d="M59.4,33.6c0.7-0.3,1.8,0.5,1.5,1.3c-0.2,0.7-1.2,0.9-1.7,0.4c-0.2-0.2-0.5-0.5-0.4-0.9   C58.9,34.1,59.1,33.8,59.4,33.6z"></path><path d="M49.7,34.1c0.7-0.4,1.8,0.1,1.8,0.9c-0.1,0.5-0.4,1.1-1,1.2c-0.5,0.1-1-0.3-1.3-0.7S49.2,34.4,49.7,34.1z"></path><path d="M63.7,34.4c0.7-0.3,1.6,0.2,1.7,1c-0.1,0.5-0.5,1.1-1,1c-0.6,0-1.2-0.4-1.2-1C63.1,35,63.3,34.6,63.7,34.4   z"></path><path d="M68.8,34.6c0.8-0.2,1.7,0.6,1.3,1.4c-0.5,0.8-1.8,0.2-1.9-0.6C68.2,35.1,68.5,34.7,68.8,34.6z"></path><path d="M29.5,35.2c0.7-0.4,1.6,0.2,1.7,1c-0.1,0.8-1.3,1.1-1.8,0.6C28.9,36.4,29,35.5,29.5,35.2z"></path><path d="M41.6,35.6c0.7-0.3,1.5,0.2,1.5,0.9c0.1,0.5-0.4,1-0.9,1c-0.3-0.1-0.7-0.3-0.9-0.5   C41,36.6,41.1,35.9,41.6,35.6z"></path><path d="M36.4,36.1c0.6-0.3,1.3,0.4,1,1s-1.1,0.6-1.5,0C35.7,36.8,36,36.3,36.4,36.1z"></path><path d="M44.7,36.5c0.5-0.2,1.1,0.1,1.4,0.5c0.5,0.7-0.3,1.7-1.1,1.4c-0.5-0.2-1-0.8-0.9-1.4   C44.1,36.8,44.4,36.6,44.7,36.5z"></path><path d="M49.8,38.4c0.8-0.4,1.7,0.6,1.4,1.3c-0.3,0.5-1.1,0.6-1.5,0.1C49.2,39.5,49.3,38.7,49.8,38.4z"></path><path d="M63.7,38.5c0.5-0.3,1.3,0,1.6,0.5c0.2,0.7-0.7,1.2-1.3,0.9C63.4,39.7,63.2,38.9,63.7,38.5z"></path><path d="M32.4,38.9c0.6-0.2,1.4,0.2,1.4,0.9c0.1,0.8-1,1.3-1.6,0.8c-0.4-0.3-0.6-0.8-0.4-1.3   C32,39.1,32.2,39,32.4,38.9z"></path><path d="M56.6,39.4c0.9-0.5,2.2,0.5,1.9,1.6c-0.3,0.8-1.6,0.8-2.1,0.2C55.8,40.7,55.9,39.6,56.6,39.4z"></path><path d="M70.1,39.4c0.8-0.3,1.8,0.6,1.4,1.4c-0.4,0.6-1.4,0.3-1.8-0.3C69.5,40.1,69.7,39.6,70.1,39.4z"></path><path d="M38,39.9c0.5-0.2,1.2,0.2,1.2,0.8c0,0.7-0.8,1.1-1.4,0.7C37.4,41.1,37.4,40.2,38,39.9z"></path><path d="M42,40.6c0.8-0.5,1.8,0.5,1.5,1.3c-0.2,0.5-0.8,0.6-1.3,0.4C41.5,42.1,41.3,41,42,40.6z"></path><path d="M62.2,41.5c0.6-0.2,1.2,0.1,1.5,0.6c0.4,0.4,0.2,1.2-0.3,1.4c-0.7,0.4-1.6-0.1-1.8-0.8   C61.4,42.2,61.7,41.7,62.2,41.5z"></path><path d="M31.8,41.9c0.6-0.3,1.6,0.1,1.6,0.9c0.2,0.8-0.8,1.2-1.4,1.1C31.4,43.4,31.1,42.3,31.8,41.9z"></path><path d="M52.5,42.2c0.9-0.3,2.1,0.6,1.7,1.6c-0.3,0.7-1.3,0.9-1.9,0.4C51.6,43.7,51.6,42.4,52.5,42.2z"></path><path d="M28.7,42.6c0.9-0.3,2.1,0.7,1.6,1.6c-0.5,0.8-1.9,0.5-2.2-0.4C28.1,43.4,28.3,42.8,28.7,42.6z"></path><path d="M44.1,43c0.7-0.4,1.7,0.4,1.4,1.2c-0.2,0.7-1.2,0.9-1.7,0.4C43.3,44.3,43.4,43.3,44.1,43z"></path><path d="M66.9,43.3c0.6-0.3,1.5,0.1,1.6,0.8c0,0.6-0.8,1.1-1.3,0.7C66.6,44.6,66.3,43.6,66.9,43.3z"></path><path d="M38.9,44.1c1-0.3,1.9,0.9,1.5,1.8c-0.3,0.7-1.2,0.8-1.8,0.4c-0.4-0.3-0.7-0.7-0.7-1.1   C38.1,44.8,38.4,44.3,38.9,44.1z"></path><path d="M70.2,45c0.7-0.3,1.5,0.7,1.2,1.4c-0.3,0.5-1.1,0.5-1.5,0C69.5,46,69.7,45.3,70.2,45z"></path><path d="M46.6,45.9c0.7-0.2,1.5,0.5,1.6,1.2c-0.1,0.9-1.4,1.1-1.9,0.4C45.8,47,45.9,46,46.6,45.9z"></path><path d="M57.6,46c0.6-0.2,1.4,0,1.6,0.6c0.2,0.8-1,1.4-1.6,0.9C57,47.2,56.9,46.2,57.6,46z"></path><path d="M52,48.3c0.7-0.5,1.7,0.2,1.8,0.9c-0.1,0.8-1.2,1.1-1.8,0.6C51.5,49.4,51.5,48.6,52,48.3z"></path><path d="M30.6,48.7c0.8-0.3,1.8,0.7,1.3,1.4c-0.5,0.7-1.8,0.2-1.9-0.6C30,49.1,30.3,48.8,30.6,48.7z"></path><path d="M64.3,48.6c0.6-0.2,1.3,0.3,1.4,1c0.1,0.5-0.4,1-0.9,1c-0.5-0.1-1.2-0.5-1.1-1.1   C63.7,49.1,63.9,48.7,64.3,48.6z"></path><path d="M40.5,49.1c0.4-0.2,0.8,0,1.2,0.1c0.7,0.3,0.7,1.4,0.1,1.8c-0.3,0.2-0.8,0.3-1.1,0   c-0.3-0.2-0.7-0.5-0.7-0.9C39.9,49.7,40.1,49.4,40.5,49.1z"></path><path d="M58.9,49.2c0.6-0.4,1.3,0.3,1.1,0.9c-0.2,0.6-1,0.7-1.4,0.3C58.3,50,58.5,49.4,58.9,49.2z"></path><path d="M67.4,49.5c0.7-0.1,1.6,0.5,1.4,1.3c-0.1,0.4-0.6,0.9-1.1,0.8c-0.6-0.1-1-0.7-1.1-1.3   C66.7,49.8,67.1,49.6,67.4,49.5z"></path><path d="M37.8,49.8c0.6-0.4,1.3,0.2,1.5,0.8c0,0.6-0.7,1-1.3,0.7C37.4,51.1,37.3,50.2,37.8,49.8z"></path><path d="M35.9,51.3c0.6-0.2,1.3,0.2,1.4,0.8c0.1,0.6-0.4,1.2-1,1.1c-0.5,0-0.9-0.5-1-1   C35.2,51.9,35.5,51.4,35.9,51.3z"></path><path d="M49.3,51.6c0.8-0.3,2,0.6,1.6,1.5c-0.3,0.8-1.5,0.8-2,0.2C48.4,52.8,48.6,51.8,49.3,51.6z"></path><path d="M54.8,52c0.6-0.3,1.5,0.1,1.6,0.8c0.1,0.8-1.2,1.3-1.7,0.7C54.3,53.1,54.1,52.2,54.8,52z"></path><path d="M60.5,53c0.5-0.2,1.2,0.1,1.3,0.7c0,0.7-0.8,1.1-1.4,0.8C60,54.1,60,53.3,60.5,53z"></path><path d="M44.3,53.6c0.4-0.1,0.8-0.2,1.2,0c0.3,0.2,0.5,0.6,0.6,0.9c0,0.5-0.4,1-0.9,1s-1-0.2-1.3-0.7   C43.7,54.5,43.9,53.9,44.3,53.6z"></path><path d="M64.5,53.7c0.8-0.5,1.8,0.4,1.6,1.2c-0.1,0.5-0.8,0.7-1.3,0.5C64.1,55.2,63.9,54.1,64.5,53.7z"></path><path d="M54.4,54.9C55,54.6,56,55,56,55.7c0.2,0.8-0.8,1.2-1.4,1.1C54,56.5,53.7,55.3,54.4,54.9z"></path><path d="M34.3,55.1c0.7-0.2,1.6,0.5,1.3,1.3c-0.3,0.6-1.2,0.5-1.6,0C33.6,56,33.9,55.3,34.3,55.1z"></path><path d="M39.7,55.5c0.5-0.3,1.4,0.1,1.3,0.8c-0.1,0.7-1.1,0.9-1.5,0.4C39.2,56.3,39.3,55.6,39.7,55.5z"></path><path d="M51.4,55.6c0.8-0.2,1.9,0.7,1.5,1.6c-0.3,0.7-1.4,0.7-1.9,0.2C50.5,56.9,50.7,55.8,51.4,55.6z"></path><path d="M66.7,56.1c0.8-0.3,1.7,0.5,1.4,1.3c-0.3,0.6-1.2,0.8-1.7,0.3C65.8,57.2,66,56.3,66.7,56.1z"></path><path d="M43.5,56.2c0.6-0.3,1.5,0.1,1.6,0.9c0.1,0.8-1,1.4-1.6,0.9C42.8,57.6,42.8,56.4,43.5,56.2z"></path><path d="M61.5,57.2c0.9-0.2,1.8,0.9,1.5,1.8c-0.2,0.7-1.2,0.9-1.8,0.5c-0.4-0.3-0.7-0.7-0.7-1.1   C60.6,57.8,61,57.3,61.5,57.2z"></path><path d="M28.8,57.3c0.6-0.2,1.3,0.2,1.4,0.8c0.1,0.7-0.7,1.2-1.3,0.8C28.4,58.6,28.1,57.5,28.8,57.3z"></path><path d="M48,57.7c0.6-0.2,1.3-0.1,1.6,0.5c0.2,0.5,0.3,1.2-0.2,1.6c-0.7,0.6-1.9,0-2-0.8   C47.2,58.5,47.5,57.9,48,57.7z"></path><path d="M69.2,58.9c0.7-0.1,1.5,0.5,1.5,1.2c-0.1,0.9-1.4,1.1-1.9,0.4C68.3,60,68.5,59,69.2,58.9z"></path><path d="M31.9,59.1c0.8-0.4,1.7,0.7,1.3,1.4c-0.5,0.6-1.5,0.3-1.6-0.4C31.5,59.7,31.6,59.3,31.9,59.1z"></path><path d="M43.8,60.7c0.7-0.3,1.7,0.4,1.5,1.2c-0.1,0.5-0.6,0.8-1.1,0.8s-0.9-0.4-1.1-0.9   C43.2,61.3,43.4,60.9,43.8,60.7z"></path><path d="M39.2,61c0.8-0.2,1.7,0.7,1.3,1.4c-0.5,0.7-1.6,0.3-1.9-0.4C38.4,61.6,38.7,61.1,39.2,61z"></path><path d="M34.1,61.1c0.7-0.4,1.8,0.1,1.8,1c-0.1,0.5-0.5,1.1-1,1.2c-0.5,0.1-0.9-0.3-1.1-0.7   C33.3,62.2,33.6,61.4,34.1,61.1z"></path><path d="M48.1,61.4c0.7-0.3,1.5,0.3,1.6,1.1c-0.1,0.4-0.3,0.8-0.7,1c-0.6,0.2-1.4-0.2-1.5-0.8   C47.4,62.1,47.7,61.6,48.1,61.4z"></path><path d="M53.1,61.7c0.8-0.4,1.9,0.6,1.4,1.4c-0.5,0.7-1.6,0.2-1.8-0.5C52.6,62.3,52.8,61.9,53.1,61.7z"></path><path d="M63.1,62.2c0.4-0.2,0.9,0,1.3,0.2c0.7,0.4,0.5,1.6-0.3,1.8c-0.6,0.2-1.1-0.2-1.4-0.6   C62.3,63.1,62.6,62.4,63.1,62.2z"></path><path d="M26.1,62.6c0.7-0.2,1.3,0.4,1.4,1c0.1,0.5-0.4,1-0.9,1c-0.5-0.1-1.2-0.5-1.1-1.1   C25.5,63.1,25.7,62.7,26.1,62.6z"></path><path d="M67.6,62.7c0.8-0.3,1.8,0.6,1.4,1.4c-0.5,0.7-1.6,0.3-1.9-0.4C67,63.3,67.2,62.9,67.6,62.7z"></path><path d="M60.5,62.8c0.6-0.3,1.2,0.3,1.4,0.9c0,0.6-0.8,1.1-1.3,0.7C59.9,64.1,59.9,63.1,60.5,62.8z"></path><path d="M29.1,63.6c0.7-0.2,1.7,0.4,1.5,1.3c-0.2,0.4-0.6,0.9-1.1,0.8c-0.6-0.1-1.1-0.8-1.1-1.4   C28.5,63.9,28.8,63.7,29.1,63.6z"></path><path d="M58.4,64.4c0.6-0.2,1.4,0.1,1.5,0.8c0.1,0.6-0.4,1.2-0.9,1.1c-0.5,0-0.9-0.5-1.1-1   C57.7,64.9,58,64.5,58.4,64.4z"></path><path d="M71.8,64.7c0.6-0.3,1.4,0.1,1.7,0.7c0.3,0.5-0.1,1.2-0.6,1.4c-0.6,0.2-1.4-0.2-1.6-0.8   C71.1,65.4,71.3,64.9,71.8,64.7z"></path><path d="M34.2,65.5c0.8-0.4,1.7,0.6,1.3,1.3c-0.3,0.5-1.1,0.6-1.5,0.1C33.6,66.6,33.6,65.7,34.2,65.5z"></path><path d="M48.3,65.5c0.5-0.1,1.3,0.1,1.4,0.7c0,0.7-0.9,1.1-1.4,0.7C47.7,66.7,47.6,65.7,48.3,65.5z"></path><path d="M41,66.4c0.9-0.4,2.2,0.5,1.8,1.6c-0.3,0.9-1.6,0.8-2.2,0.2C40.2,67.7,40.3,66.6,41,66.4z"></path><path d="M67,66.6c0.3-0.1,0.7-0.1,1,0.1s0.5,0.6,0.6,0.9c0,0.5-0.4,1-0.9,1s-1.1-0.2-1.3-0.7   C66.2,67.5,66.5,66.8,67,66.6z"></path><path d="M26.4,67.6c0.8-0.4,1.7,0.5,1.5,1.3c-0.2,0.5-0.8,0.6-1.3,0.5C25.9,69.2,25.7,68,26.4,67.6z"></path><path d="M56.8,68.2c0.7-0.3,1.7,0.5,1.3,1.2c-0.3,0.6-1.3,0.5-1.6,0C56.2,69,56.4,68.4,56.8,68.2z"></path><path d="M62.3,68.5c0.6-0.2,1.3,0.2,1.3,0.8c-0.1,0.7-1.1,0.9-1.5,0.4C61.7,69.3,61.8,68.6,62.3,68.5z"></path><path d="M46.5,68.6c0.8-0.4,2.1,0.5,1.7,1.4c-0.1,0.4-0.6,0.7-1,0.6c-0.6,0-1.1-0.5-1.2-1   C45.8,69.2,46.1,68.8,46.5,68.6z"></path><path d="M73.8,68.7c0.9-0.4,2.1,0.6,1.7,1.5c-0.4,0.7-1.4,0.6-1.9,0.1C73.1,70,73.2,69,73.8,68.7z"></path><path d="M37,69.2c0.9-0.2,1.9,0.7,1.6,1.6c-0.3,0.8-1.4,0.9-2,0.4C35.9,70.7,36.1,69.3,37,69.2z"></path><path d="M66.1,69.2c0.6-0.3,1.5,0.2,1.5,0.9c0.1,0.8-0.9,1.4-1.6,0.9C65.3,70.6,65.3,69.4,66.1,69.2z"></path><path d="M28.6,70.1c0.7-0.2,1.6,0.6,1.3,1.4c-0.3,0.7-1.3,0.8-1.7,0.2C27.6,71.1,27.9,70.2,28.6,70.1z"></path><path d="M51.2,70.4c0.6-0.3,1.4,0.1,1.6,0.7c0.1,0.6-0.6,1.2-1.2,0.9C51.1,71.8,50.6,70.8,51.2,70.4z"></path><path d="M70.5,70.7c0.6-0.3,1.5-0.1,1.7,0.6c0.2,0.5,0.2,1.2-0.3,1.5c-0.7,0.5-1.8,0-2-0.9   C69.8,71.5,70.1,71,70.5,70.7z"></path><path d="M23.2,71.2c1-0.4,2,0.8,1.6,1.7c-0.2,0.5-0.8,0.7-1.3,0.7c-0.4-0.1-0.8-0.4-1-0.8   C22.2,72.3,22.6,71.5,23.2,71.2z"></path><path d="M54.5,72.1c0.7-0.4,1.6,0.6,1.3,1.3c-0.3,0.5-1.2,0.5-1.5,0C53.9,73.1,54.1,72.4,54.5,72.1z"></path><path d="M79,72.4c0.8-0.2,1.7,0.7,1.3,1.4c-0.5,0.8-2,0.1-1.9-0.8C78.5,72.7,78.7,72.4,79,72.4z"></path><path d="M30.9,73c0.6-0.3,1.3,0.2,1.6,0.8c0.2,0.5-0.1,1-0.6,1.1c-0.7,0.2-1.5-0.3-1.5-1   C30.3,73.5,30.5,73.1,30.9,73z"></path><path d="M41.9,73.1c0.6-0.2,1.4-0.1,1.6,0.5c0.3,0.8-0.8,1.5-1.5,1C41.5,74.4,41.2,73.4,41.9,73.1z"></path><path d="M18.7,73.6c0.8-0.3,1.8,0.6,1.4,1.4c-0.4,0.6-1.4,0.3-1.8-0.3C18.1,74.4,18.3,73.8,18.7,73.6z"></path><path d="M66.3,73.7c0.7-0.4,1.9,0.5,1.6,1.3c-0.1,0.4-0.6,0.7-1,0.6c-0.5,0-0.9-0.4-1.1-0.9   C65.8,74.4,66,74,66.3,73.7z"></path><path d="M56.8,74.1c0.7-0.2,1.6,0.3,1.6,1.1c-0.1,0.5-0.4,1.1-1,1.2s-1.1-0.4-1.3-0.9   C55.9,74.9,56.3,74.2,56.8,74.1z"></path><path d="M70.7,74.5c0.7-0.2,1.5,0.3,1.6,1.1c-0.1,0.4-0.3,0.8-0.7,0.9c-0.6,0.2-1.4-0.2-1.5-0.8   C69.9,75.2,70.3,74.6,70.7,74.5z"></path><path d="M75.7,74.7c0.8-0.3,1.8,0.6,1.4,1.4c-0.5,0.7-1.5,0.3-1.8-0.4C75.1,75.4,75.3,74.9,75.7,74.7z"></path><path d="M36.5,75.3c0.7-0.3,1.6,0.3,1.7,1c-0.1,0.8-1.3,1.1-1.8,0.5C35.8,76.4,35.9,75.6,36.5,75.3z"></path><path d="M48.6,75.7c0.8-0.3,1.7,0.6,1.5,1.4c-0.2,0.6-1,0.8-1.5,0.4C47.9,77.1,47.9,76,48.6,75.7z"></path><path d="M25,76.1c0.4-0.1,0.8,0.1,1.1,0.3c0.7,0.4,0.5,1.7-0.3,1.8c-0.6,0.2-1.1-0.2-1.4-0.6   C24,77.1,24.5,76.3,25,76.1z"></path><path d="M43.4,76.2c0.6-0.3,1.3,0.5,1,1.1c-0.3,0.5-1.1,0.5-1.4,0C42.7,76.9,42.9,76.3,43.4,76.2z"></path><path d="M51.6,76.6c0.5-0.2,1.1,0.1,1.5,0.5c0.5,0.7-0.3,1.8-1.1,1.5c-0.5-0.2-0.9-0.8-0.9-1.4   C51.1,76.9,51.4,76.7,51.6,76.6z"></path><path d="M22.2,76.9c0.6-0.4,1.3,0.3,1.5,0.8c0,0.6-0.7,1-1.2,0.7C21.8,78.2,21.6,77.2,22.2,76.9z"></path><path d="M20.2,78.4c0.7-0.3,1.6,0.3,1.5,1.1c0,0.7-1,1.2-1.5,0.7C19.7,79.8,19.4,78.7,20.2,78.4z"></path><path d="M56.8,78.5c0.8-0.4,1.7,0.7,1.3,1.4c-0.3,0.5-1.1,0.5-1.5,0C56.1,79.6,56.2,78.7,56.8,78.5z"></path><path d="M70.8,78.6c0.5-0.2,1.2,0.1,1.4,0.6c0.2,0.7-0.8,1.3-1.4,0.8C70.3,79.7,70.2,78.9,70.8,78.6z"></path><path d="M33.6,78.7c0.6-0.3,1.4,0.1,1.7,0.7c0.3,0.5-0.1,1.2-0.6,1.4c-0.7,0.3-1.6-0.2-1.7-1   C32.9,79.3,33.2,78.9,33.6,78.7z"></path><path d="M75.4,78.6c0.8-0.2,1.7,0.7,1.3,1.4c-0.5,0.7-1.6,0.2-1.8-0.4C74.8,79.2,75,78.7,75.4,78.6z"></path><path d="M39.3,79c0.6-0.2,1.4,0.2,1.5,0.9c0.1,0.7-0.7,1-1.3,0.9c-0.6-0.2-1-0.9-0.8-1.4   C38.9,79.2,39.1,79.1,39.3,79z"></path><path d="M63.8,79.4c0.9-0.2,1.9,0.8,1.5,1.7c-0.4,0.8-1.6,0.8-2.1,0.1C62.7,80.6,62.9,79.4,63.8,79.4z"></path><path d="M44.9,80c0.5-0.2,1.2,0.2,1.3,0.7c0,0.6-0.8,1.1-1.3,0.8C44.3,81.2,44.3,80.3,44.9,80z"></path><path d="M49,80.7c0.8-0.4,1.7,0.5,1.4,1.3c-0.2,0.5-0.9,0.6-1.3,0.4C48.4,82.2,48.3,81,49,80.7z"></path><path d="M38.7,82c0.6-0.3,1.6,0.1,1.7,0.8c0.2,0.8-0.7,1.2-1.4,1.1C38.4,83.6,38,82.4,38.7,82z"></path><path d="M59.4,82.3c0.9-0.3,2.1,0.5,1.8,1.5c-0.3,0.7-1.3,1-1.9,0.5C58.5,83.8,58.6,82.6,59.4,82.3z"></path><path d="M51,83.2c0.7-0.4,1.8,0.4,1.5,1.2c-0.2,0.6-1.1,0.9-1.6,0.4C50.3,84.4,50.3,83.4,51,83.2z"></path><path d="M45.7,84.3c0.9-0.4,2,0.6,1.8,1.6c-0.1,0.5-0.7,0.8-1.2,0.8s-0.9-0.4-1.2-0.8C44.8,85.3,45.1,84.6,45.7,84.3   z"></path><path d="M53.5,86c0.7-0.2,1.4,0.3,1.6,1c0.2,0.5-0.3,1-0.8,1c-0.7,0.2-1.4-0.4-1.4-1C52.9,86.5,53.1,86.1,53.5,86z"></path><path d="M47.4,89.2c0.4-0.3,0.9-0.1,1.3,0.1c0.7,0.4,0.6,1.6-0.2,1.8c-0.6,0.3-1.2-0.2-1.5-0.6S47,89.5,47.4,89.2z"></path></g></svg>
