<svg height='100px' width='100px' xmlns="http://www.w3.org/2000/svg" version="1.1" x="0px" y="0px" viewBox="0 0 100 100" style="enable-background:new 0 0 100 100;"><path d="M63.342,65.446c-0.002-0.014,0.003-0.028-0.001-0.042c-0.002-0.008-0.007-0.013-0.009-0.021  c-0.026-0.111-0.072-0.216-0.135-0.313c-0.017-0.026-0.036-0.047-0.055-0.071c-0.024-0.031-0.044-0.065-0.072-0.092L48.486,50.322  c-0.03-0.03-0.065-0.05-0.098-0.076c-0.021-0.017-0.04-0.034-0.063-0.048c-0.097-0.063-0.202-0.11-0.313-0.136  c-0.008-0.002-0.015-0.008-0.023-0.01c-0.016-0.004-0.032,0.002-0.048-0.001c-0.096-0.016-0.194-0.018-0.293-0.005  c-0.027,0.004-0.055,0.002-0.081,0.008c-0.005,0.001-0.011,0-0.016,0.002l-19.437,4.556c-0.033,0.008-0.061,0.025-0.093,0.036  c-0.032,0.011-0.062,0.022-0.093,0.036c-0.107,0.049-0.207,0.11-0.29,0.193c-0.001,0.001-0.002,0.001-0.002,0.002  s-0.001,0.002-0.002,0.002c-0.082,0.083-0.143,0.183-0.193,0.29c-0.014,0.031-0.025,0.061-0.036,0.093  c-0.011,0.032-0.028,0.06-0.036,0.093l-4.557,19.438c-0.002,0.009-0.001,0.017-0.003,0.026c-0.004,0.018-0.003,0.037-0.006,0.056  c-0.016,0.106-0.014,0.211,0.004,0.315c0.002,0.014-0.003,0.028,0.001,0.042c0.002,0.008,0.007,0.015,0.009,0.023  c0.024,0.101,0.062,0.198,0.116,0.287c0.01,0.017,0.024,0.03,0.036,0.046c0.034,0.049,0.066,0.098,0.109,0.141l14.585,14.584  c0.021,0.021,0.049,0.029,0.071,0.047c0.05,0.043,0.104,0.076,0.163,0.109c0.06,0.033,0.118,0.06,0.183,0.08  c0.029,0.009,0.051,0.029,0.081,0.035c0.071,0.015,0.14,0.022,0.209,0.022c0,0,0.001,0,0.001,0c0,0,0,0,0,0s0,0,0,0  c0.001,0,0.001,0,0.002,0c0.075,0,0.15-0.009,0.226-0.026l19.437-4.556c0.033-0.008,0.061-0.025,0.093-0.036  c0.032-0.011,0.062-0.022,0.093-0.036c0.107-0.05,0.207-0.11,0.29-0.193c0.001-0.001,0.002-0.001,0.002-0.001  s0.001-0.002,0.002-0.002c0.082-0.083,0.143-0.183,0.193-0.29c0.014-0.031,0.025-0.061,0.036-0.093  c0.011-0.032,0.028-0.06,0.036-0.093l4.557-19.437c0.002-0.008,0.001-0.017,0.003-0.026c0.004-0.019,0.003-0.038,0.006-0.056  C63.362,65.655,63.36,65.55,63.342,65.446z M57.244,83.073L51.7,77.529l2.446-9.129l6.884-1.477L57.244,83.073z M25.792,75.615  l6.697-1.438l6.727,6.727L37.779,87.6L25.792,75.615z M28.906,57.563l5.544,5.545l-2.446,9.128l-6.884,1.478L28.906,57.563z   M60.358,65.022l-6.697,1.437l-6.728-6.727l1.438-6.697L60.358,65.022z M49.769,77.012l-9.161,2.454l-6.681-6.68l2.455-9.161  l9.161-2.455l6.681,6.68L49.769,77.012z M44.993,59.247l-9.128,2.446l-5.544-5.545l16.15-3.785L44.993,59.247z M41.158,81.389  l9.128-2.445l5.544,5.544l-16.15,3.785L41.158,81.389z"></path><path d="M45.046,64.292c-0.242-0.242-0.595-0.346-0.926-0.269l-5.028,1.129c-0.539,0.121-0.878,0.656-0.757,1.194  c0.121,0.539,0.658,0.879,1.194,0.757l4.491-1.008l2.957,2.956c0.195,0.195,0.451,0.293,0.707,0.293s0.512-0.098,0.707-0.293  c0.391-0.391,0.391-1.023,0-1.414L45.046,64.292z"></path><path d="M10.043,26.222c0.002,0.042-0.002,0.083,0.005,0.125l2.893,17.306c0.007,0.042,0.024,0.08,0.036,0.12  c0.007,0.025,0.013,0.049,0.022,0.073c0.042,0.11,0.102,0.21,0.179,0.297c0.005,0.006,0.006,0.013,0.011,0.018  c0.009,0.01,0.021,0.012,0.03,0.021c0.083,0.085,0.18,0.157,0.29,0.208c0.01,0.005,0.019,0.012,0.03,0.017  c0.003,0.001,0.005,0.004,0.008,0.005l15.71,6.449c0.005,0.002,0.011,0.001,0.016,0.003c0.114,0.045,0.236,0.072,0.363,0.072  c0,0,0,0,0.001,0c0,0,0,0,0,0c0,0,0,0,0.001,0c0.054,0,0.109-0.004,0.164-0.014c0.03-0.005,0.052-0.023,0.081-0.031  c0.07-0.018,0.135-0.043,0.2-0.076c0.052-0.026,0.1-0.053,0.145-0.087c0.022-0.016,0.048-0.023,0.069-0.041L43.056,39.48  c0.02-0.018,0.034-0.04,0.052-0.059c0.026-0.027,0.051-0.054,0.074-0.083c0.037-0.048,0.067-0.098,0.094-0.151  c0.011-0.021,0.028-0.038,0.037-0.06c0.003-0.008,0.002-0.017,0.005-0.025c0.043-0.106,0.066-0.218,0.071-0.334  c0.001-0.027-0.002-0.052-0.003-0.079c-0.002-0.042,0.002-0.083-0.005-0.125L40.49,21.258c-0.007-0.042-0.024-0.08-0.036-0.12  c-0.007-0.025-0.013-0.049-0.022-0.073c-0.042-0.11-0.102-0.21-0.179-0.297c-0.005-0.006-0.006-0.013-0.011-0.018  c-0.009-0.01-0.023-0.014-0.032-0.024c-0.074-0.075-0.159-0.138-0.255-0.187c-0.018-0.009-0.033-0.021-0.051-0.029  c-0.007-0.003-0.013-0.009-0.021-0.012l-15.71-6.449c-0.027-0.011-0.056-0.013-0.083-0.021c-0.04-0.013-0.079-0.024-0.121-0.031  c-0.231-0.042-0.465-0.001-0.668,0.116c-0.03,0.017-0.057,0.036-0.085,0.056c-0.027,0.019-0.057,0.032-0.083,0.054l-12.76,11.208  c-0.006,0.005-0.01,0.012-0.015,0.017c-0.016,0.015-0.028,0.032-0.042,0.048c-0.071,0.075-0.129,0.158-0.173,0.25  c-0.007,0.014-0.02,0.023-0.026,0.038c-0.003,0.008-0.002,0.017-0.005,0.025c-0.043,0.106-0.066,0.218-0.071,0.334  C10.039,26.17,10.042,26.195,10.043,26.222z M41.106,37.081l-5.02-2.173l-1.308-7.821l4.042-3.688L41.106,37.081z M25.416,24.683  l7.396,2.768l1.297,7.756l-6.095,5.021l-7.395-2.768l-1.297-7.756L25.416,24.683z M19.949,39.345l7.364,2.755l1.041,6.229  l-12.588-5.168L19.949,39.345z M29.286,41.77l6.067-4.999l5.196,2.249L30.327,48L29.286,41.77z M33.48,25.565l-7.364-2.755  l-1.041-6.229l12.588,5.168L33.48,25.565z M24.144,23.14l-6.066,4.999l-5.197-2.249l10.223-8.98L24.144,23.14z M17.345,30.002  l1.307,7.821l-4.041,3.688l-2.287-13.681L17.345,30.002z"></path><path d="M25.789,28.615l3.534,1.489l0.572,3.427c0.082,0.488,0.505,0.835,0.985,0.835c0.055,0,0.11-0.004,0.166-0.014  c0.545-0.091,0.912-0.606,0.821-1.151l-0.663-3.97c-0.057-0.338-0.282-0.623-0.598-0.757l-4.041-1.703  c-0.508-0.211-1.096,0.024-1.311,0.533C25.042,27.813,25.28,28.4,25.789,28.615z"></path><path d="M90.125,22.994c0-0.067-0.025-0.129-0.038-0.193c-0.011-0.053-0.006-0.107-0.026-0.159  c-0.002-0.005-0.006-0.008-0.008-0.013c-0.027-0.068-0.075-0.124-0.116-0.185c-0.033-0.049-0.057-0.104-0.097-0.146  c-0.003-0.003-0.004-0.007-0.007-0.01L77.776,10.231c0,0-0.001-0.001-0.001-0.001l0,0c-0.095-0.095-0.207-0.168-0.328-0.218  c-0.001,0-0.001-0.001-0.002-0.001c-0.051-0.021-0.104-0.018-0.156-0.03c-0.074-0.017-0.145-0.044-0.221-0.044h-0.006  c-0.004,0-0.008,0-0.013,0H60.016c-0.005,0-0.009,0.003-0.015,0.003c-0.061,0.001-0.12,0.024-0.18,0.036  c-0.069,0.014-0.14,0.02-0.204,0.048c-0.006,0.003-0.013,0.002-0.02,0.005c-0.053,0.025-0.09,0.067-0.136,0.1  c-0.05,0.035-0.108,0.058-0.152,0.102L47.251,22.287c-0.005,0.005-0.006,0.012-0.011,0.016c-0.042,0.044-0.068,0.101-0.102,0.152  c-0.039,0.06-0.083,0.114-0.109,0.18c-0.003,0.008-0.01,0.013-0.013,0.021c-0.019,0.053-0.014,0.106-0.023,0.16  c-0.011,0.059-0.035,0.116-0.035,0.177v17.052c0,0.004,0.002,0.007,0.002,0.01c0.001,0.06,0.024,0.118,0.035,0.178  c0.014,0.07,0.019,0.142,0.047,0.207c0.002,0.005,0.001,0.01,0.003,0.015c0.048,0.106,0.115,0.195,0.19,0.275  c0.006,0.007,0.008,0.016,0.015,0.022l12.048,12.048c0.001,0.001,0.002,0.002,0.003,0.003l0.007,0.007  c0.059,0.059,0.133,0.094,0.203,0.136c0.041,0.025,0.071,0.06,0.117,0.079c0.001,0,0.002,0,0.003,0.001  c0.121,0.05,0.251,0.078,0.385,0.078h17.052c0.115,0,0.233-0.02,0.348-0.062c0.006-0.002,0.01-0.007,0.016-0.01  c0.068-0.027,0.124-0.073,0.185-0.114c0.049-0.033,0.105-0.057,0.146-0.098c0.004-0.004,0.009-0.005,0.013-0.008l12.058-12.058  c0.005-0.005,0.006-0.012,0.011-0.017c0.073-0.076,0.138-0.162,0.185-0.263c0.003-0.007,0.002-0.015,0.006-0.023  c0.029-0.066,0.037-0.137,0.052-0.208c0.012-0.06,0.034-0.117,0.035-0.177c0-0.007,0.004-0.013,0.004-0.02V22.994z M77.463,50.294  l-3.33-8.977l4.929-4.929l8.352,3.954L77.463,50.294z M49.69,40.364l8.866-3.986l4.918,4.918l-3.804,9.049L49.69,40.364z   M48.958,24.414l8.817,3.156v6.965L48.958,38.5V24.414z M59.709,12.657l3.747,8.114l-4.94,4.94l-8.735-3.127L59.709,12.657z   M87.322,22.605l-8.218,3.098l-4.956-4.956l3.276-8.039L87.322,22.605z M72.559,40.063H65.07l-5.295-5.295V27.28l5.295-5.295h7.488  l5.295,5.295v7.488L72.559,40.063z M72.301,19.985h-7.005l-3.717-8.049h14.001L72.301,19.985z M65.321,42.063h6.956l3.353,9.04  H61.521L65.321,42.063z M79.854,34.549v-6.992l8.271-3.118v14.026L79.854,34.549z"></path><path d="M72.416,24.9c-0.404-0.378-1.037-0.356-1.413,0.048c-0.377,0.403-0.355,1.036,0.048,1.413l2.97,2.773v4.774  c0,0.553,0.447,1,1,1s1-0.447,1-1V28.7c0-0.277-0.115-0.542-0.317-0.73L72.416,24.9z"></path></svg>
