<svg xmlns="http://www.w3.org/2000/svg" version="1.1" x="0px" y="0px" viewBox="0 0 100 100" enable-background="new 0 0 100 100" xml:space="preserve"><g transform="scale(0.75) translate(35 35)"><path d="M79.918,36.377c-2.321,0-4.488-0.656-6.345-1.774c1.118,1.857,1.773,4.023,1.772,6.344   c0.001,2.322-0.654,4.486-1.772,6.344c1.857-1.118,4.023-1.773,6.344-1.774c2.321,0.001,4.486,0.656,6.343,1.774   c-1.117-1.857-1.771-4.022-1.771-6.343c-0.001-2.321,0.654-4.487,1.772-6.344C84.403,35.721,82.238,36.377,79.918,36.377z"></path><path d="M77.084,48.274l3.991,20.02l-7.643,15.325L28.758,51.062l7.972-31.987l36.136,8.045l0.982,4.924l0.93,0.561   c0.552,0.332,1.13,0.605,1.727,0.825l-1.646-8.257l-39.358-8.763l-21.785,21.84L5.046,77.372L27.025,95H61.56l13.208-8.826   l8.754-17.553L79.383,47.87C78.604,47.913,77.832,48.049,77.084,48.274z M15.846,39.417L33.72,21.498L26.34,51.109L8.169,74.065   L15.846,39.417z M60.852,92.666H27.846L8.364,77.042l19.052-24.069l44.406,32.361L60.852,92.666z"></path><path d="M82.338,17.776c-0.245,0.985-0.745,1.919-1.513,2.687c-0.768,0.769-1.702,1.269-2.687,1.513   c0.984,0.245,1.918,0.745,2.686,1.513c0.769,0.768,1.269,1.702,1.514,2.686c0.244-0.985,0.745-1.918,1.512-2.687   c0.769-0.769,1.702-1.268,2.687-1.513c-0.984-0.244-1.918-0.745-2.686-1.513C83.082,19.696,82.582,18.762,82.338,17.776z"></path><path d="M66.854,33.151c-0.769-0.768-1.268-1.702-1.513-2.687c-0.245,0.985-0.744,1.918-1.513,2.686   c-0.768,0.769-1.702,1.269-2.687,1.513c0.984,0.245,1.918,0.745,2.687,1.513s1.268,1.702,1.513,2.686   c0.245-0.985,0.745-1.918,1.513-2.687c0.769-0.769,1.702-1.268,2.687-1.513C68.556,34.419,67.623,33.919,66.854,33.151z"></path><path d="M65.342,44.333c-1.502,0.001-2.903-0.422-4.105-1.147c0.724,1.202,1.147,2.603,1.147,4.104   c0.001,1.502-0.424,2.905-1.147,4.106c1.202-0.724,2.604-1.147,4.105-1.147c1.501,0,2.902,0.423,4.105,1.147   c-0.724-1.202-1.148-2.604-1.148-4.105c0-1.502,0.425-2.903,1.148-4.104C68.244,43.911,66.843,44.334,65.342,44.333z"></path><circle cx="80.195" cy="7.115" r="2.115"></circle><circle cx="92.845" cy="57.891" r="2.109"></circle></g><text x="4" y="35" font-family="sans-serif" font-size="40px" fill="black">Au</text></svg>
