<svg xmlns="http://www.w3.org/2000/svg" viewBox="0 0 67.37012 96.67981" x="0px" y="0px"><g><g><path d="M67.37012,50.61981a13.268,13.268,0,0,0-12.8003-13.24,12.73278,12.73278,0,0,0,.39014-3.17,13.2374,13.2374,0,0,0-22.33105-9.63208A24.19617,24.19617,0,0,1,32.79,20.88318c.08154-.40534.148-.80829.188-1.20538A25.62444,25.62444,0,0,1,42.686,3.60822,1.99946,1.99946,0,0,0,40.31738.38635,29.21629,29.21629,0,0,0,31.21484,11.921,12.92578,12.92578,0,0,0,29.27,9.39984a12.77849,12.77849,0,0,0-8.98-3.76h-.31983c-6.55029.17-14.87011,5.2-17.31054,28.18l-.25977,2.46,2.46-.26c1.64014-.17005,3.18994-.38,4.64991-.61005a13.90019,13.90019,0,0,0-.13965,1.95,12.80318,12.80318,0,0,0,.17968,2.16,13.24237,13.24237,0,0,0,3.19,25.95,12.68807,12.68807,0,0,0-.21973,2.4,13.28807,13.28807,0,0,0,10.88965,13.04,13.25095,13.25095,0,1,0,26.26025,2.52,12.98426,12.98426,0,0,0-.3501-3.01,13.29344,13.29344,0,0,0,9.32032-12.66,13.05533,13.05533,0,0,0-.77-4.43A13.263,13.263,0,0,0,67.37012,50.61981ZM41.71,24.95984a9.261,9.261,0,0,1,9.25,9.25,9.27131,9.27131,0,0,1-6.64014,8.87,12.83416,12.83416,0,0,0-1.23-1.1,13.30571,13.30571,0,0,0-7.35986-2.72,13.1916,13.1916,0,0,0-2.18018-9.39A9.24127,9.24127,0,0,1,41.71,24.95984Zm2.56006,27.53a9.13021,9.13021,0,0,1-.24023,2.1,8.91067,8.91067,0,0,1-.84961,2.25995,9.16447,9.16447,0,0,1-2.5503,2.98,7.52488,7.52488,0,0,1-.81982.57,9.53076,9.53076,0,0,1-2.33008,1.02l-.12012.03a9.92744,9.92744,0,0,1-2.33984.29,9.23757,9.23757,0,0,1-2.25-.27,3.48422,3.48422,0,0,1-.46-.14,9.04729,9.04729,0,0,1-3.83985-2.31,8.225,8.225,0,0,1-.57031-.61005,9.3221,9.3221,0,0,1-1.87988-3.79c-.04-.16-.07031-.32-.1001-.49a8.84581,8.84581,0,0,1-.1499-1.64,9.58,9.58,0,0,1,.2998-2.35,9.2845,9.2845,0,0,1,8.40039-6.88c.17969-.01.36963-.02.54981-.02a9.31661,9.31661,0,0,1,6.33984,2.51,8.79854,8.79854,0,0,1,1.37989,1.67A9.121,9.121,0,0,1,44.27,52.48981Zm-37.33984-20.74c1.8999-14.31,6.41992-21.93,13.13964-22.11a8.8457,8.8457,0,0,1,8.97022,8.75v.21a8.72274,8.72274,0,0,1-2.7002,6.04,17.78224,17.78224,0,0,1-5.71972,3.69c-.78028.35-1.62012.67-2.52.97a52.24947,52.24947,0,0,1-7.16992,1.82C9.65967,31.34979,8.33008,31.55981,6.93018,31.74982Zm20.11962-2.5a9.15944,9.15944,0,0,1,4.82032,8.11,9.03484,9.03484,0,0,1-.3003,2.34,13.26968,13.26968,0,0,0-8.41015,6.89c-.17969.00995-.35987.02-.53955.02a9.229,9.229,0,0,1-9.1001-7.61,8.84592,8.84592,0,0,1-.1499-1.64,9.31375,9.31375,0,0,1,.41992-2.76C19.87012,33.25983,24.12012,31.37982,27.0498,29.24982Zm-12.85986,32.19h-.00976c-.3003.03-.61036.05-.93018.05a9.25175,9.25175,0,0,1-2.46-18.17,13.22022,13.22022,0,0,0,11.11963,7.26,13.33373,13.33373,0,0,0-.13965,1.91,12.91979,12.91979,0,0,0,.17969,2.17c.03027.17.06006.34.10009.5-.00976,0-.02.01-.02978.01A13.26674,13.26674,0,0,0,14.18994,61.43982ZM25.77,77.11981c-.33008,0-.6499-.02-.97022-.05a9.26541,9.26541,0,0,1-8.27978-9.2,9.11885,9.11885,0,0,1,.48-2.92,9.24632,9.24632,0,0,1,6.44971-6.03A13.1923,13.1923,0,0,0,34.75,65.7298h.02a9.41479,9.41479,0,0,1,.25,2.14,9.33029,9.33029,0,0,1-1.7002,5.34A9.2657,9.2657,0,0,1,25.77,77.11981Zm10.6499,15.56a9.261,9.261,0,0,1-9.25-9.25,8.90088,8.90088,0,0,1,.33008-2.43,13.23074,13.23074,0,0,0,8.12988-4.28,13.2421,13.2421,0,0,0,9.72022,4.29,9.25765,9.25765,0,0,1-8.93018,11.67Zm11.3999-15.99a9.305,9.305,0,0,1-2.42968.32,9.49547,9.49547,0,0,1-2.73047-.41,9.34009,9.34009,0,0,1-3.48975-2,8.9414,8.9414,0,0,1-1.27-1.41,13.07472,13.07472,0,0,0,1.12012-5.32,12.96186,12.96186,0,0,0-.27-2.66,13.2378,13.2378,0,0,0,7.27979-5.36005,11.79448,11.79448,0,0,0,.73-1.24,9.25417,9.25417,0,0,1,1.06,18.08Zm8.07032-16.99a13.257,13.257,0,0,0-7.83008-4.92,12.37744,12.37744,0,0,0,.21-2.29,13.15725,13.15725,0,0,0-1.47022-6.05,13.30509,13.30509,0,0,0,5.99024-4.97,8.42236,8.42236,0,0,1,1.33008-.1,9.25052,9.25052,0,0,1,1.77,18.33Z"></path><circle cx="43.32495" cy="30.44733" r="2.38501"></circle><circle cx="36.69995" cy="48.99481" r="2.38501"></circle><circle cx="56.69995" cy="46.91148" r="2.38501"></circle></g></g></svg>
