<svg xmlns="http://www.w3.org/2000/svg" version="1.1" x="0px" y="0px" viewBox="0 0 100 100" enable-background="new 0 0 100 100" xml:space="preserve"><g><path d="M73,46.249H27c-1.746,0-3.166-1.42-3.166-3.167s1.42-3.167,3.166-3.167h46c1.747,0,3.168,1.42,3.168,3.167   S74.747,46.249,73,46.249z M27,41.916c-0.643,0-1.166,0.523-1.166,1.167s0.523,1.167,1.166,1.167h46   c0.644,0,1.168-0.523,1.168-1.167S73.644,41.916,73,41.916H27z"></path></g><g><path d="M73,53.582H27c-1.746,0-3.166-1.421-3.166-3.167c0-1.746,1.42-3.167,3.166-3.167h46c1.747,0,3.168,1.42,3.168,3.167   C76.168,52.161,74.747,53.582,73,53.582z M27,49.249c-0.643,0-1.166,0.523-1.166,1.167s0.523,1.167,1.166,1.167h46   c0.644,0,1.168-0.523,1.168-1.167S73.644,49.249,73,49.249H27z"></path></g><g><path d="M73,60.915H27c-1.746,0-3.167-1.421-3.167-3.167s1.421-3.166,3.167-3.166h46c1.747,0,3.168,1.42,3.168,3.166   S74.747,60.915,73,60.915z M27,56.582c-0.644,0-1.167,0.523-1.167,1.166c0,0.644,0.523,1.167,1.167,1.167h46   c0.644,0,1.168-0.523,1.168-1.167c0-0.643-0.524-1.166-1.168-1.166H27z"></path></g><g><path d="M73,68.248H27c-1.746,0-3.166-1.42-3.166-3.166s1.42-3.167,3.166-3.167h46c1.747,0,3.168,1.421,3.168,3.167   S74.747,68.248,73,68.248z M27,63.915c-0.643,0-1.166,0.523-1.166,1.167c0,0.643,0.523,1.166,1.166,1.166h46   c0.644,0,1.168-0.523,1.168-1.166c0-0.644-0.524-1.167-1.168-1.167H27z"></path></g><g><path d="M32.324,96.749c-0.339,0-0.659-0.173-0.844-0.464c-1.445-2.276-2.422-5.542-2.953-7.686   c-3.022,3.72-6.676,6.14-6.854,6.256c-0.372,0.244-0.862,0.213-1.199-0.077c-0.339-0.29-0.443-0.77-0.259-1.175   c2.626-5.741,4.28-17.262,5.032-23.617c0.036-0.307,0.211-0.578,0.475-0.738c0.262-0.159,0.585-0.19,0.873-0.079   c0.141,0.053,0.273,0.079,0.404,0.079h46c0.131,0,0.264-0.026,0.405-0.08c0.29-0.108,0.61-0.08,0.873,0.081   c0.264,0.159,0.438,0.432,0.475,0.737c0.752,6.355,2.407,17.876,5.031,23.617c0.186,0.405,0.08,0.885-0.258,1.175   c-0.339,0.29-0.827,0.321-1.2,0.077c-0.177-0.116-3.83-2.536-6.852-6.256c-0.531,2.144-1.508,5.409-2.954,7.686   c-0.211,0.332-0.596,0.508-0.988,0.453c-0.39-0.057-0.71-0.338-0.817-0.717c-0.015-0.052-1.05-3.701-2.062-6.913   c-0.676,2.631-1.916,5.916-4.082,7.455c-0.307,0.219-0.711,0.246-1.045,0.07s-0.54-0.524-0.534-0.901   c0.001-0.048,0.048-3.805-0.912-6.793c-0.631,1.945-1.536,4.746-2.296,7.115c-0.143,0.443-0.576,0.74-1.037,0.69   c-0.464-0.039-0.84-0.395-0.905-0.856c-0.228-1.607-0.675-3.88-1.245-5.779c-0.23,1.746-0.711,3.878-1.684,6.049   c-0.161,0.359-0.519,0.591-0.913,0.591c-0.394,0-0.751-0.231-0.912-0.591c-0.973-2.17-1.453-4.302-1.684-6.049   c-0.569,1.899-1.018,4.172-1.244,5.779c-0.065,0.462-0.441,0.817-0.905,0.856c-0.47,0.05-0.894-0.247-1.037-0.69   c-0.761-2.369-1.667-5.171-2.298-7.116c-0.962,2.99-0.912,6.746-0.91,6.793c0.006,0.378-0.201,0.727-0.534,0.902   c-0.334,0.175-0.738,0.147-1.046-0.069c-2.166-1.54-3.406-4.825-4.082-7.456c-1.012,3.213-2.047,6.861-2.062,6.913   c-0.107,0.379-0.427,0.66-0.817,0.717C32.42,96.745,32.372,96.749,32.324,96.749z M35.617,84.182c0.042,0,0.084,0.003,0.127,0.008   c0.459,0.06,0.817,0.425,0.867,0.884c0.184,1.663,0.94,5.652,2.5,8.182c0.188-2.246,0.713-5.492,2.162-7.586   c0.217-0.313,0.586-0.473,0.968-0.42c0.376,0.055,0.688,0.318,0.806,0.681c0,0,0.885,2.722,1.869,5.771   c0.557-2.393,1.432-5.187,2.64-6.332c0.301-0.285,0.749-0.355,1.124-0.174c0.374,0.181,0.598,0.576,0.561,0.99   c-0.004,0.036-0.254,3.043,0.761,6.633c1.021-3.6,0.765-6.595,0.761-6.632c-0.039-0.414,0.184-0.81,0.559-0.991   s0.824-0.111,1.125,0.174c1.208,1.146,2.082,3.939,2.64,6.331c0.984-3.049,1.869-5.771,1.869-5.771   c0.117-0.361,0.43-0.625,0.806-0.68c0.381-0.053,0.752,0.107,0.968,0.42c1.45,2.093,1.975,5.34,2.163,7.586   c1.559-2.529,2.315-6.519,2.498-8.182c0.051-0.459,0.409-0.824,0.867-0.883c0.451-0.059,0.896,0.203,1.062,0.635   c0.761,1.996,1.894,5.749,2.621,8.227c1.342-3.169,2.04-6.945,2.048-6.992c0.073-0.401,0.383-0.718,0.781-0.801   c0.404-0.08,0.81,0.085,1.035,0.425c1.465,2.197,3.359,4.065,4.894,5.388c-1.789-5.62-3.023-13.455-3.806-19.823H27.11   c-0.782,6.367-2.017,14.201-3.806,19.82c1.536-1.324,3.433-3.193,4.894-5.385c0.226-0.338,0.63-0.505,1.034-0.425   c0.4,0.083,0.709,0.399,0.781,0.801c0.01,0.047,0.707,3.823,2.049,6.992c0.728-2.478,1.86-6.23,2.621-8.226   C34.832,84.435,35.207,84.182,35.617,84.182z"></path></g><g><path d="M73.155,38.932c-0.021,0-0.04,0-0.061-0.002c-0.021-0.001-0.109-0.011-0.13-0.014H27c-0.279,0.024-0.596-0.067-0.801-0.256   s-0.365-0.449-0.365-0.728c0.004-0.198,0.242-13.175-3.622-27.076c-0.126-0.454,0.081-0.935,0.499-1.153   c0.416-0.22,0.931-0.117,1.232,0.246c0.16,0.192,3,3.663,5.305,10.494c0.213-4.35,0.885-9.589,2.664-13.887   c0.178-0.43,0.629-0.678,1.087-0.604c0.458,0.076,0.805,0.457,0.835,0.921c0.008,0.11,0.603,8.96,1.754,16.436   c0.663-4.118,1.388-10.384,1.227-17.5c-0.011-0.441,0.27-0.837,0.689-0.974c0.418-0.137,0.879,0.017,1.131,0.38   c0.121,0.173,2.336,3.447,3.345,10.907c0.401-2.843,0.751-6.367,0.837-10.358c0.011-0.505,0.396-0.923,0.899-0.974   c0.499-0.044,0.964,0.282,1.075,0.775c0.016,0.065,0.929,4.153,1.651,9.59c0.579-3.874,1.423-8.071,2.622-11.259   c0.146-0.39,0.52-0.648,0.936-0.648c0.417,0,0.789,0.258,0.937,0.648c1.199,3.188,2.043,7.384,2.622,11.259   c0.723-5.438,1.637-9.525,1.651-9.59c0.11-0.491,0.579-0.816,1.068-0.775c0.5,0.046,0.888,0.457,0.906,0.958   c0.152,4.121,0.483,7.561,0.849,10.287c1.015-7.398,3.213-10.647,3.333-10.82c0.253-0.363,0.714-0.516,1.131-0.38   c0.42,0.137,0.7,0.532,0.69,0.974c-0.162,7.116,0.562,13.383,1.226,17.5c1.151-7.475,1.746-16.326,1.753-16.437   c0.031-0.464,0.377-0.845,0.836-0.921c0.443-0.075,0.908,0.174,1.086,0.604c1.78,4.298,2.453,9.538,2.666,13.888   c2.304-6.831,5.144-10.302,5.304-10.494c0.302-0.363,0.815-0.463,1.233-0.246c0.417,0.219,0.625,0.7,0.499,1.154   c-3.869,13.915-3.627,26.877-3.624,27.006c0.006,0.282-0.106,0.576-0.311,0.77C73.666,38.814,73.415,38.932,73.155,38.932z    M27.836,36.916h44.328c0.02-2.687,0.251-10.64,2.116-19.941c-1.342,2.952-2.775,7.034-3.642,12.225   c-0.089,0.53-0.576,0.9-1.112,0.827c-0.533-0.067-0.917-0.544-0.87-1.08c0.01-0.106,0.744-8.831-0.921-16.658   c-0.436,4.764-1.207,11.734-2.323,16.585c-0.104,0.45-0.502,0.771-0.963,0.776c-0.462-0.012-0.867-0.306-0.98-0.753   c-0.092-0.358-1.961-7.825-2.264-18.192c-0.849,2.848-1.678,7.175-1.678,13.217c0,0.495-0.362,0.916-0.853,0.989   c-0.492,0.073-0.959-0.224-1.104-0.697c-0.06-0.192-1.104-3.675-1.817-10.33c-0.518,3.555-0.995,7.892-1.058,12.092   c-0.008,0.538-0.44,0.973-0.979,0.984c-0.008,0-0.015,0-0.021,0c-0.529,0-0.968-0.413-0.998-0.943   C52.691,25.896,52.057,15.209,50,7.562c-2.057,7.649-2.689,18.333-2.697,18.455c-0.03,0.538-0.516,0.931-1.02,0.943   c-0.537-0.012-0.971-0.447-0.979-0.985c-0.063-4.146-0.527-8.421-1.037-11.948c-0.689,6.135-1.77,9.952-1.833,10.17   c-0.138,0.479-0.604,0.786-1.101,0.714c-0.493-0.069-0.86-0.492-0.86-0.99c0-6.041-0.829-10.369-1.678-13.217   c-0.304,10.368-2.173,17.834-2.264,18.192c-0.114,0.447-0.498,0.732-0.981,0.753c-0.461-0.005-0.859-0.326-0.963-0.776   c-1.115-4.852-1.887-11.823-2.322-16.587c-1.668,7.831-0.931,16.553-0.922,16.66c0.048,0.535-0.336,1.012-0.869,1.08   c-0.533,0.068-1.025-0.298-1.113-0.828c-0.865-5.191-2.299-9.273-3.641-12.226C27.583,26.261,27.816,34.205,27.836,36.916z"></path></g></svg>
