<svg xmlns="http://www.w3.org/2000/svg" version="1.1" x="0px" y="0px" viewBox="0 0 128 128" style="enable-background:new 0 0 128 128;" xml:space="preserve"><path d="M54.5,17c2.5,0,4.7-0.3,4.7-0.3c2.2,0,2.3-4,2.3-4V0c-11.7,3.8-13,15.3-13,15.3C49.3,16.7,52,17,54.5,17z M59.5,3v9.7  c0,0.7-0.3,1.7-0.5,2c0,0-0.1,0-0.1,0c0,0-2.1,0.3-4.4,0.3c-2.1,0-3.2-0.3-3.8-0.5C51.2,12.1,53.2,6.2,59.5,3z"></path><path d="M68.8,16.7c0,0,2.2,0.3,4.7,0.3c2.5,0,5.1-0.3,6-1.7c0,0-1.3-11.6-13-15.3v12.7C66.5,12.7,66.6,16.7,68.8,16.7z M68.5,3  c6.3,3.2,8.3,9.1,8.8,11.5c-0.6,0.2-1.7,0.5-3.8,0.5c-2.3,0-4.4-0.3-4.4-0.3c0,0-0.1,0-0.1,0c-0.2-0.3-0.5-1.3-0.5-2V3z"></path><path d="M51.5,24.4c3,0,7.4,0.3,9.1,2l0.2,3.8c0,0-0.3,0.6-0.6,1.3c-0.3,0.7,0,2,0.7,2.9c0.4,0.6,0.8,1.4,1,2.2  c0.1,0.4,0.4,0.5,0.5,0.5c0,0,0,0,0,0H65c0,0,0,0,0,0c0.1,0,0.3,0,0.5-0.5c0.2-0.5,0.5-1.5,1-2.4c0.6-1,1-2.1,0.7-2.7l-0.5-1.2v-3.6  c0,0,1.9-2.3,10.3-2.3c0.8,0,1.6,0,2.5,0.1V18c0,0-2.6,1.6-7.7,1.6c-0.8,0-1.7,0-2.6-0.1c0,0-4.7,1.4-5.4,5.9c0,0.2-0.1,0.2-0.1,0.2  c0,0-0.1-0.1-0.1-0.3c-0.1-2-1.5-6-5.1-6c-0.1,0-0.1,0-0.2,0c0,0-0.7,0-1.8,0c-2.4,0-6.4-0.1-8.1-1.1l0.1,6.1  C48.6,24.5,49.8,24.4,51.5,24.4z"></path><path d="M113.9,82c-0.1-1.1-1-2-2-2c0,0-0.1,0-0.1,0c-0.2,0-0.3,0-0.5,0.1l-2.4-13.8c0.1-0.4,0.2-0.9,0.1-1.3l-0.8-5.1  c1.3-1.2,1.8-2.5,1.8-2.5c-1.7-13-9.2-15.4-14.4-15.4c-3,0-5.3,0.8-5.3,0.8c-1.1,0.5-2.2,0.7-3.3,0.7c-0.5,0-1,0-1.4-0.1  c-0.1,0-0.2,0-0.3,0c-0.3,0-0.5,0.1-0.7,0.1c-2.3-1.1-3.6-3.2-4.2-4.5c1.2-4.3,0-9.9-0.4-11.2c-0.1-0.4-0.5-0.8-1-0.8h-2.6  c-0.3,0-0.6,0.1-0.8,0.3c-0.2,0.2-0.3,0.5-0.2,0.8c1.1,7-3.5,9.3-3.7,9.4c-0.3,0.2-0.6,0.5-0.6,0.9L71,44c0,0.3,0.1,0.6,0.3,0.8  c0.2,0.2,0.4,0.3,0.7,0.3c0,0,0.1,0,0.1,0c1.5-0.1,5.2-1.6,5.6-1.8c0.1,0,0.2-0.1,0.2-0.1c0.6-0.5,1.1-1.1,1.6-1.7  c0.4,0.7,0.9,1.4,1.6,2c-1.7,0.8-8,3.6-17.5,3.6c-7.7,0-15-1.4-18.3-2.2c1.5-1,2.6-2.2,3.3-3.4c0.4,0.7,0.9,1.3,1.6,1.7  c0.1,0.1,0.1,0.1,0.2,0.1c0.4,0.2,4.1,1.7,5.6,1.8c0,0,0.1,0,0.1,0c0.3,0,0.5-0.1,0.7-0.3c0.2-0.2,0.3-0.5,0.3-0.8l-0.3-5.5  c0-0.4-0.2-0.7-0.6-0.9c0,0-4.8-2.3-3.7-9.4c0-0.3,0-0.6-0.2-0.8C52,27.1,51.8,27,51.5,27h-2.6c-0.5,0-0.9,0.3-1,0.8  c-0.4,1.4-1.6,6.9-0.4,11.2c-0.6,1.4-1.9,3.4-4.2,4.5c-0.2-0.1-0.4-0.1-0.7-0.1c-0.1,0-0.2,0-0.3,0c-0.4,0.1-0.9,0.1-1.4,0.1  c-1,0-2.2-0.2-3.3-0.7c0,0-2.3-0.8-5.3-0.8c-5.2,0-12.6,2.4-14.4,15.4c0,0,0.5,1.3,1.8,2.5L19,64.9c-0.1,0.4,0,0.9,0.1,1.3  l-2.4,13.8c-0.2,0-0.3,0-0.5-0.1c0,0-0.1,0-0.1,0c-1,0-2,1-2,2c-0.1,2.3-0.2,6.1,0.6,9.2l5.8,23.6c-0.9,0.7-1.5,1.8-1.5,3.1v6  c0,2.2,1.8,4,4,4h5c2.2,0,4-1.8,4-4v-6c0-1.3-0.7-2.5-1.7-3.3l0.7-21c0-1.1-0.8-2.1-1.9-2.5c-1.7-0.6-4.1-2.2-4.9-5.6  c0,0-0.4-1.1-1.4-2.3l5.6-0.5c1-0.1,2.1-1,2.3-2.1l1.2-5.7c0.2-1.1-0.3-2.3-1.3-2.8L26.5,70c0.4,0,0.7,0,1.1,0c1.5,0,3.2-0.3,4.9-1  c1-0.4,2.1-1.8,2.5-2.9l2.9-8.2l0,0.1c0,0,0.2,0,0.4,0c1.2,0,4.8-0.3,8-4.2c-0.1,1.4-0.7,6.7-7.4,13.1c-0.8,0.8-1.5,2.2-1.5,3.3  c0,4.9,0.5,18.1,4.8,29.7c0.4,1,0.3,2.7-0.1,3.7c-1.6,3.7-5.1,13.7-6,24.4h56c-1-10.6-4.4-20.6-6-24.4c-0.4-1-0.5-2.6-0.1-3.7  c4.3-11.6,4.7-24.8,4.8-29.7c0-1.1-0.7-2.6-1.5-3.3c-7.8-7.5-7.4-13.5-7.4-13.5c0,0,0,0,0,0c3.1,4.2,6.8,4.6,8,4.6  c0.2,0,0.3,0,0.4,0l0-0.1l2.9,8.2c0.4,1.1,1.5,2.4,2.5,2.9c1.7,0.7,3.3,1,4.9,1c0.4,0,0.7,0,1.1,0l-4.2,2.2  c-0.9,0.5-1.5,1.8-1.3,2.8l1.2,5.7c0.2,1.1,1.3,2,2.3,2.1l5.6,0.5c-1,1.2-1.4,2.3-1.4,2.3c-0.8,3.5-3.2,5-4.9,5.6  c-1,0.4-1.9,1.4-1.9,2.5l0.7,21c-1,0.7-1.7,1.9-1.7,3.3v6c0,2.2,1.8,4,4,4h5c2.2,0,4-1.8,4-4v-6c0-1.2-0.6-2.3-1.5-3.1l5.8-23.6  C114.1,88.2,114.1,84.3,113.9,82z M76.8,41.4c-1,0.4-2.6,1-3.7,1.3l0.2-3.7c1.4-0.9,4.9-3.8,4.4-10.1h0.7  C79.2,32.8,79.7,39,76.8,41.4z M49.7,29h0.7c-0.5,6.3,3,9.2,4.4,10.1l0.2,3.7c-1.1-0.3-2.7-0.9-3.7-1.3C48.3,39,48.8,32.8,49.7,29z   M91.1,44.7c0.4-0.1,2.2-0.7,4.6-0.7c6.8,0,11,4.4,12.3,13c-0.6,0.9-2.2,3-5.3,3c-1.7,0-3.6-0.6-5.7-1.7c0,0-0.1,0-0.1-0.1  c-0.1,0-8.4-3.9-10.7-12.8c0.3,0,0.6,0,0.8,0C88.5,45.5,89.9,45.2,91.1,44.7z M63.5,49c2.4,0,4.5-0.2,6.5-0.5V51H57v-2.3  c1.9,0.2,4,0.3,6.1,0.3C63.2,49,63.4,49,63.5,49z M32.4,44c2.3,0,4.2,0.6,4.6,0.7c1.2,0.5,2.5,0.8,4,0.8c0.3,0,0.6,0,0.8,0  c-2.2,8.9-10.6,12.8-10.7,12.8c0,0-0.1,0-0.1,0.1c-2.1,1.1-4,1.7-5.7,1.7c-3.1,0-4.7-2.1-5.3-3C21.4,48.4,25.5,44,32.4,44z M28,124  h-5v-6h5V124z M28.4,93.2c0.4,0.1,0.6,0.4,0.6,0.5L28.3,114c-0.1,0-0.2,0-0.3,0h-5c-0.2,0-0.5,0-0.7,0.1l-5.7-23.3  c-0.8-2.9-0.7-6.7-0.6-8.6c0,0,0-0.1,0.1-0.1c4.2,0.3,5.9,3.6,6.2,4.3C23.1,89.5,25.3,92,28.4,93.2z M28.2,80.9l-7.4,0.7  c-0.6-0.4-1.3-0.8-2.2-1.1l0.9-5c0.9,0.5,2.2,1.2,3.9,1.8c2.2,0.9,4.5,1.4,5.7,1.6l-0.3,1.5C28.7,80.6,28.4,80.8,28.2,80.9z   M30,74.6l-0.5,2.3c-1.1-0.2-3.3-0.7-5.3-1.5c-2-0.8-3.5-1.6-4.3-2.1l0.8-4.3l9.1,4.9C29.9,74,30,74.4,30,74.6z M33.1,65.4  c-0.3,0.7-1.1,1.6-1.5,1.8c-1.3,0.6-2.6,0.9-4,0.9c-2.6,0-4.8-0.9-6.2-1.7c-0.2-0.1-0.4-0.7-0.4-1.1l0.6-4.1c0.8,0.4,1.9,0.7,3,0.8  c0.8,0.2,1.6,0.3,2.3,0.3c3,0,6-1.5,8.4-3.2L33.1,65.4z M38.6,56l0.5-1.3c1.9-2.1,3.6-4.8,4.5-8.2c1.8,0.5,6,1.5,11.4,2.1V51h-9.6  c-1.1,0-1.5,0.7-0.5,1.2c0,0,0.1,0,0.1,0C42.5,55.4,39.7,55.9,38.6,56z M63.6,104c0.2,0,0.4,0,0.5,0c6.3,0,13.7-1,17.5-1.6  c0.1,1,0.3,2,0.7,2.8c0.1,0.2,0.2,0.5,0.3,0.8c-1.4,0.2-11.8,2-20,2c-6.5-0.1-13.9-1.1-17.4-1.6c0.2-0.4,0.3-0.8,0.5-1.1  c0.4-0.8,0.6-1.8,0.7-2.8C50,103,57.3,103.9,63.6,104z M44.5,108.3c3.4,0.5,11.2,1.7,18.1,1.7c0.2,0,0.4,0,0.5,0c8.9,0,19.9-2,20-2  c0.1,0,0.1,0,0.2-0.1c0.4,1.2,0.9,2.7,1.4,4.3c-3.3,0.5-13.8,1.9-21.1,1.8c-7.3-0.1-17.2-1.4-20.4-1.8  C43.7,110.7,44.1,109.4,44.5,108.3z M40.5,124c0.5-3.5,1.3-6.9,2.1-9.9c2.9,0.4,13.3,1.8,20.9,1.9c0.2,0,0.4,0,0.5,0  c7.7,0,18.2-1.5,21.2-1.9c0.8,3,1.6,6.3,2.1,9.9H40.5z M86.4,69.8c0.1,0.1,0.2,0.4,0.3,0.6c0,4.9-0.5,17.3-4.5,28.2  c-0.2,0.6-0.3,1.2-0.4,1.8c-3.7,0.6-11.6,1.7-18.1,1.6c-6.4-0.1-13.8-1.1-17.3-1.6c-0.1-0.6-0.2-1.2-0.4-1.8  c-4-10.9-4.5-23.3-4.5-28.2c0-0.2,0.2-0.5,0.3-0.5c6.6-6.3,8.2-12,8.5-14.8h27.7C78.2,57.8,79.8,63.5,86.4,69.8z M83.3,52.1  c0.8-0.5,0.4-1.1-0.6-1.1H72v-2.8c6.5-1.2,10.3-3.2,10.5-3.4c0.1,0,0.1-0.1,0.2-0.2c0.4,0.3,0.9,0.5,1.4,0.8  c0.9,3.9,2.8,6.9,4.8,9.2l0.5,1.3C88.3,55.9,85.6,55.4,83.3,52.1z M96.3,67.1c-0.4-0.2-1.2-1-1.5-1.8l-2.2-6.3  c2.5,1.7,5.4,3.2,8.4,3.2c0.7,0,1.5-0.1,2.3-0.3c1.2-0.1,2.2-0.4,3-0.8l0.6,4.1c0.1,0.4-0.2,0.9-0.4,1.1c-1.4,0.8-3.7,1.7-6.2,1.7  C99,68,97.6,67.7,96.3,67.1z M98.3,74l9.1-4.9l0.8,4.3c-0.8,0.5-2.3,1.3-4.3,2.1c-2.1,0.8-4.3,1.3-5.3,1.5L98,74.6  C98,74.4,98.1,74,98.3,74z M99.2,80.3l-0.3-1.5c1.2-0.2,3.4-0.7,5.7-1.6c1.7-0.7,3-1.3,3.9-1.8l0.9,5c-0.8,0.3-1.6,0.6-2.2,1.1  l-7.4-0.7C99.6,80.8,99.3,80.6,99.2,80.3z M105,124h-5v-6h5V124z M111.3,90.8l-5.7,23.3c-0.2,0-0.4-0.1-0.7-0.1h-5  c-0.1,0-0.2,0-0.3,0L99,93.7c0-0.1,0.2-0.4,0.6-0.5c3.2-1.2,5.3-3.6,6.1-6.9c0.3-0.7,2-3.9,6.2-4.3c0,0,0.1,0.1,0.1,0.1  C112,84.1,112.1,87.9,111.3,90.8z"></path></svg>
