<svg xmlns="http://www.w3.org/2000/svg" version="1.1" width="100" height="100" viewBox="0 0 265 258" x="0px" y="0px"><g><path class="fil0" d="M108 247c4,-3 16,-9 24,-12 -5,0 -11,-2 -16,-3 -64,17 -98,-20 -116,-76 26,10 48,14 68,23 -16,-11 -28,-27 -47,-44 27,-4 51,-3 70,8 -24,-20 -29,-49 -45,-83 41,9 69,26 78,58 3,-12 -1,-29 -5,-40 -4,-4 -10,-8 -18,-12 6,3 12,6 18,9 -1,-3 -2,-6 -3,-9 -4,-4 -12,-9 -20,-13 6,3 12,6 18,10 -1,-4 -3,-8 -4,-11 -6,-2 -11,-6 -17,-10 5,3 10,6 16,8 -2,-5 -4,-10 -6,-14 -5,-2 -10,-5 -15,-9 4,3 8,5 14,7 -5,-9 -10,-17 -14,-22 5,4 10,11 15,19 1,-4 0,-7 -1,-12 2,4 3,10 2,15 3,4 5,8 7,12 3,-5 3,-9 4,-15 0,5 0,12 -3,18 2,4 4,8 5,12 4,-6 5,-10 6,-16 0,4 -2,12 -5,18 2,5 4,11 6,16 4,-7 5,-13 6,-20 0,6 -2,16 -6,23 2,5 3,10 3,14 15,-44 -4,-71 -44,-91 8,39 3,68 40,93l0 3c-41,-27 -35,-58 -44,-101 44,21 70,53 49,103 0,6 0,20 -1,26 1,6 1,11 1,18 1,-4 2,-7 3,-11 -7,-54 21,-77 70,-88 -19,40 -20,71 -67,88 -3,10 -3,15 -7,26 2,5 3,9 4,13 2,-3 4,-6 7,-10 12,-53 52,-64 101,-56 -20,18 -33,36 -51,47 21,-5 46,-2 72,6 -28,19 -47,39 -72,48 27,-2 52,13 77,39 -50,5 -82,24 -126,-12 -8,2 -24,11 -29,14l-2 -4zm25 -117c12,-30 41,-64 56,-73 -15,14 -43,48 -53,75 41,-16 43,-44 60,-79 -43,10 -67,31 -63,77zm-12 27c-1,-3 -2,-6 -3,-9l0 0 0 0c-15,-29 -43,-64 -59,-78 18,10 52,50 65,84 5,-53 -23,-78 -72,-90 19,42 21,74 69,93zm-21 -7c10,9 18,23 22,41l3 4 0 0c0,-4 1,-8 2,-12 0,-7 -2,-16 -4,-22 -8,-3 -16,-7 -23,-11zm-18 37c12,8 23,21 33,41 0,0 15,-15 15,-17 2,-1 -25,-34 -30,-35 -5,-1 -13,-1 -22,0 6,-1 13,-2 20,-2 -10,-8 -21,-15 -32,-21 -5,1 -11,1 -17,1 5,0 10,0 15,-2 -11,-6 -21,-11 -28,-13 11,1 30,10 48,21 0,-7 -2,-10 -5,-16 3,4 6,11 8,17 11,8 22,16 31,25 -15,-45 -45,-56 -90,-49 29,27 40,53 84,52l2 3c-14,1 -23,-1 -32,-5zm51 19c8,-20 20,-33 34,-42 -7,2 -16,3 -25,2 -17,19 -8,27 -10,40l1 0zm63 -80c5,2 10,2 15,1 -6,1 -12,1 -17,0 -10,6 -22,13 -32,21 7,0 14,1 20,2 -8,-1 -17,-1 -22,0 -6,4 -11,9 -16,13 46,2 59,-25 88,-52 -44,-7 -75,4 -89,49 8,-9 19,-17 30,-25 2,-6 5,-13 8,-17 -3,5 -5,9 -5,16 18,-11 37,-20 48,-21 -7,2 -17,7 -28,13zm-56 105c9,-7 18,-12 27,-16 -9,1 -20,1 -33,-2 -6,5 -11,11 -14,16 7,2 15,3 20,2zm52 -50c7,3 13,5 20,6 -8,-1 -16,-2 -22,-5 -5,2 -9,4 -14,6 9,1 17,4 25,7 -12,-4 -22,-6 -29,-5 -3,1 -6,3 -10,5 8,2 16,4 23,7 -10,-3 -19,-6 -26,-5 -8,4 -15,9 -21,13 54,10 74,-19 114,-46 -52,-17 -90,-9 -115,42 4,-3 9,-7 14,-10 4,-9 10,-20 15,-25 -5,7 -9,13 -11,23 5,-3 11,-6 18,-9 2,-8 7,-16 10,-21 -3,6 -6,11 -8,19 5,-2 10,-4 15,-6 2,-7 8,-14 12,-18 -4,6 -8,9 -9,17 5,-2 11,-4 16,-5 3,-5 10,-9 14,-11 -4,3 -8,5 -11,10 12,-4 23,-6 30,-5 -8,1 -19,4 -31,8 6,3 12,4 18,5 -7,0 -14,-1 -20,-4 -6,2 -11,4 -17,7zm-137 20c-1,-8 -4,-14 -7,-20 4,7 7,14 9,21 4,2 8,5 12,7 -3,-8 -6,-16 -8,-24 4,11 8,21 12,26 4,2 7,4 10,5 -3,-7 -6,-15 -8,-22 4,9 8,18 12,24 8,3 16,7 23,9 -24,-50 -59,-49 -104,-65 17,51 46,78 101,68 -5,-1 -11,-3 -16,-6 -10,3 -22,4 -29,4 9,-1 16,-1 25,-5 -6,-3 -12,-6 -18,-9 -7,3 -17,4 -23,3 7,-1 13,-1 21,-5 -5,-2 -10,-5 -14,-8 -7,2 -16,2 -21,1 6,0 11,1 18,-3 -5,-3 -9,-6 -14,-9 -5,0 -13,-3 -17,-5 5,1 9,3 15,2 -10,-7 -18,-14 -22,-20 6,5 15,12 25,19 -1,-6 -4,-12 -6,-17 4,6 7,12 8,19 5,3 10,6 16,10zm89 31c36,-7 87,1 105,11 -22,-7 -73,-13 -106,-7 41,32 70,16 115,10 -36,-36 -72,-46 -114,-14z"></path></g></svg>
