<svg xmlns="http://www.w3.org/2000/svg" width="100" height="100" viewBox="0 0 128 128" x="0px" y="0px"><path d="M18.04492,67.74969l-.08319.00043a7.25778,7.25778,0,0,1-2.40875-.39984L6.65283,64.22845l3.94238,8.56836c.26917.5849,6.01318,12.73749,23.59271,25.60663q-.26431-.03049-.52985-.06714L23.45575,96.92847l6.57758,7.92493C30.81775,105.79852,49.66949,128,86.61963,128a98.81594,98.81594,0,0,0,17.01794-1.523l3.36237-.59-.04193-2.642c8.734-23.05933,6.27521-42.12738,2.64331-54.11218-.13519-.44617-.27765-.87183-.41791-1.30359l16.80945-39.36658A20.02264,20.02264,0,0,0,115.45337,2.21539,19.77732,19.77732,0,0,0,107.64429.61548,20.00415,20.00415,0,0,0,89.20612,12.75482l-8.2547,19.332a53.46339,53.46339,0,0,0-9.00836-9.40747l-4.95435-3.69366-1.34119,6.03241c-.2702,1.21545-.53558,2.29626-.787,3.24329A86.185,86.185,0,0,0,28.38068,4.476,81.42391,81.42391,0,0,0,6.05383.00079L5.98169-.00067l-.0722.00116L5.8728.001,2.63647.05182,2.011,3.2276A81.30985,81.30985,0,0,0,1.6369,26.09143,84.93388,84.93388,0,0,0,18.04492,67.74969Zm85.58276,52.96985c-2.34424-3.70514-6.97424-10.88281-13.26648-19.97339a19.93419,19.93419,0,0,0,8.92834-9.74609l7.40924-17.35193C109.71875,85.63654,110.55542,101.744,103.62769,120.71954ZM92.88477,14.32562a16.05785,16.05785,0,0,1,14.75952-9.71014A15.8493,15.8493,0,0,1,113.88257,5.894a16.047,16.047,0,0,1,8.43158,20.9978L95.61084,89.42926A16.05777,16.05777,0,0,1,80.85138,99.1394,15.85067,15.85067,0,0,1,74.613,97.86084,16.04706,16.04706,0,0,1,66.18146,76.863ZM5.93555,4.00055,5.97223,4s36.33.74146,60.01111,31.89209a.21013.21013,0,0,0,.03668.00317c.84406,0,2.40088-4.92065,3.53217-10.009,0,0,4.24426,3.17743,9.5882,10.44183L65.778,67.62213C51.55261,49.81671,34.87482,31.35236,18.11719,18.21289a1.00023,1.00023,0,0,0-1.23437,1.57422C33.77582,33.03265,50.603,51.749,64.88794,69.70654L62.50281,75.2923A19.98578,19.98578,0,0,0,80.85138,103.1394a20.1039,20.1039,0,0,0,7.678-1.52917c6.877,9.92615,11.79163,17.60413,13.92847,21.002A94.224,94.224,0,0,1,86.61963,124c-35.49664,0-53.50836-21.70123-53.50836-21.70123a26.31344,26.31344,0,0,0,3.59888.25378c5.35913,0,8.27216-1.77283,8.27216-1.77283C21.29449,86.48083,14.229,71.12482,14.229,71.12482a11.25056,11.25056,0,0,0,3.73273.62531c3.66852,0,6.56891-1.69257,6.588-2.33282C-1.13416,39.8963,5.93555,4.00055,5.93555,4.00055Z"></path><path d="M82.96631,47.73975l22.07227,9.4248a.99974.99974,0,0,0,.78516-1.83887l-22.07227-9.4248a.99974.99974,0,0,0-.78516,1.83887Z"></path></svg>
