<svg xmlns="http://www.w3.org/2000/svg" version="1.1" x="0px" y="0px" viewBox="0 0 100 100" enable-background="new 0 0 100 100" xml:space="preserve"><path d="M80.712,47.475l-0.052-1.718c-0.012-0.399-0.396-9.367-9.825-18c0.132-0.106,0.251-0.221,0.347-0.354  c0.313-0.44,0.389-0.995,0.204-1.522c-0.878-2.524-12.153-7.331-18.614-7.331c-0.424,0-0.83,0.019-1.217,0.057  c-1.09-0.728-4.405-3.327-3.153-7.322l0.326-1.04l-5.884-2.771l-0.497,1.223c-0.088,0.217-1.895,4.825,1.003,10.025  c-3.316,0.396-9.656,2.252-14.481,10.254l-0.602,0.999l0.954,0.67c0.045,0.032,0.344,0.238,0.842,0.529  c-2.167,2.286-5.833,7.655-4.266,16.71c-0.683,1.813-3.583,10.56,0.853,17.903l0.481,0.796l0.901-0.231  c0.019-0.006,0.09-0.025,0.191-0.063c0.748,2.988,2.928,9.177,8.829,14.083l0.769,0.639l0.792-0.608  c0.05-0.038,0.445-0.351,1.017-0.942c1.284,2.871,4.36,8.147,10.908,12.415l0.849,0.554l0.717-0.716  c0.207-0.205,4.504-4.554,6.396-10.777c0.861,1.02,1.859,2.082,3.053,3.195l0.678,0.632l0.802-0.464  c0.319-0.186,7.204-4.294,8.269-12.855c0.649,0.525,1.328,1.031,2.041,1.494l0.977,0.633l0.701-0.928  c0.226-0.299,5.407-7.363,2.047-19.078c0.439-1.896,0.55-4.361-0.303-7.278c0.752,0.244,1.518,0.483,2.301,0.711L80.712,47.475z   M45.494,21.141l2.981,0.344l-1.855-2.358c-2.589-3.291-2.571-6.473-2.287-8.188l1.419,0.668c-0.852,4.731,2.735,8.167,4.902,9.383  l0.369,0.208l0.42-0.06c0.402-0.058,0.85-0.087,1.328-0.087c5.17,0,12.44,3.129,15.226,4.898c-0.149,0.005-0.313,0.008-0.494,0.008  c-2.996,0-7.599-0.733-7.644-0.74l-3.393-0.543l2.248,2.596c3.225,3.723-0.732,9.844-2.263,11.928c-7.246-3.265-7.972-9.429-8-9.694  l-0.228-2.396l-1.829,1.564c-2.063,1.765-4.459,2.66-7.124,2.66c-3.231,0-6.122-1.313-7.591-2.119  C37.579,20.427,45.314,21.124,45.494,21.141z M59.801,51.261C48.772,47.547,46.2,42.764,45.629,41.149  c1.306-1.252,2.505-2.698,3.529-4.359c1.551,1.886,3.845,3.767,7.24,5.095l0.834,0.327l0.578-0.686  c0.166-0.198,2.195-2.652,3.516-5.819C63.79,42.297,60.975,48.951,59.801,51.261z M66.771,52.891  c0.373,5.543-2.775,11.883-4.144,14.34c-5.694-3.573-11.045-10.227-12.611-12.262c0.682-1.307,1.333-2.756,1.93-4.367  c2.143,1.172,4.787,2.32,8.074,3.361l0.926,0.294l0.513-0.825c0.106-0.172,1.09-1.787,1.97-4.268  C64.158,50.192,65.227,51.445,66.771,52.891z M49.129,75.41c-5.157-4.964-6.51-9.506-6.851-11.176  c1.913-1.354,4.233-3.521,6.392-6.926c1.404,1.773,3.979,4.842,7.111,7.729C53.998,70.927,50.627,74.196,49.129,75.41z   M32.27,48.286c3.253-0.871,7.558-2.489,11.367-5.427c0.773,1.619,2.456,4.004,6.116,6.428c-3.685,10.262-9.616,13.568-11.571,14.4  C31.8,56.953,31.994,50.423,32.27,48.286z M32.426,32.349c1.794,0.758,4.195,1.482,6.846,1.482c2.606,0,5.002-0.694,7.146-2.066  c0.243,0.77,0.617,1.708,1.172,2.712C42.744,43.494,31.716,46.02,28.124,46.61C26.963,38.164,30.951,33.69,32.426,32.349z   M27.998,49.164c0.428-0.059,1.006-0.15,1.708-0.286c-0.125,1.972,0.031,5.279,1.678,9.106c-0.868,3.313-2.262,4.836-3.151,5.485  C25.47,57.803,27.299,51.229,27.998,49.164z M37.823,77.727c-5.339-4.886-6.964-10.966-7.363-12.896  c0.842-0.797,1.76-2.006,2.523-3.788c1.009,1.629,2.308,3.307,3.985,4.98l0.506,0.506l0.692-0.18c0.101-0.026,0.8-0.223,1.859-0.752  c0.306,1.154,0.874,2.772,1.927,4.672C40.817,74.177,38.879,76.626,37.823,77.727z M51.023,89.184  c-6.497-4.571-8.958-10.209-9.593-11.94c0.767-1.111,1.571-2.533,2.253-4.272c1.148,1.582,2.613,3.27,4.511,4.988l0.695,0.629  l0.798-0.49c0.149-0.092,2.282-1.443,4.518-4.408c0.414,1.281,1.131,2.867,2.355,4.696C55.563,83.439,52.427,87.552,51.023,89.184z   M62.544,81.619c-5.951-5.831-6.385-10.016-6.401-10.947c0.615-1.138,1.193-2.418,1.691-3.854c1.484,1.219,3.046,2.34,4.637,3.22  l1.03,0.569l0.63-0.994c0.09-0.144,0.932-1.487,1.91-3.526c0.719,0.897,1.707,2.047,2.902,3.235  C68.895,76.261,64.393,80.271,62.544,81.619z M73.65,70.107c-3.118-2.314-5.561-5.41-6.465-6.635  c0.987-2.481,1.877-5.455,2.078-8.441c1.209,0.963,2.59,1.981,4.226,3.063l0.94,0.624l0.717-0.874  c0.022-0.029,0.114-0.144,0.246-0.336C76.407,63.869,74.661,68.236,73.65,70.107z M73.811,55.295  c-7.375-5.089-9.093-8.618-9.433-9.519c0.271-1.317,0.45-2.749,0.465-4.252c1.905,0.912,5.074,2.336,8.902,3.725  C75.813,50.135,74.643,53.684,73.811,55.295z M64.656,38.648c-0.305-2.151-1.014-4.381-2.313-6.58  c0.182-1.349,0.133-2.72-0.328-4.028c1.639,0.202,3.771,0.416,5.485,0.416c0.113,0,0.212-0.004,0.317-0.006  c7.242,6.032,9.429,12.508,10.072,15.575C71.609,42.022,66.363,39.502,64.656,38.648z"></path></svg>
