<svg xmlns="http://www.w3.org/2000/svg" width="100" height="100" viewBox="0 0 100 100"><g><g transform="translate(50 50) scale(-1.1 1.2) translate(-51.5 -50)"><svg xmlns="http://www.w3.org/2000/svg" version="1.1" x="0px" y="0px" viewBox="0 0 100 100" enable-background="new 0 0 100 100" xml:space="preserve"><path d="M93.431,47.648l0.783-0.621c-4.642,0.027-3.313-4.682-8.766-7.677c-4.19-2.303-8.881-2.93-10.501-3.011  c-1.169-0.058-2.492-0.178-3.345-0.392c-2.731-2.541-6.183-3.729-11.215-3.959c-2.612-0.123-4.642,0.273-6.602,0.652  c-1.989,0.385-3.9,0.751-6.399,0.618c-0.155-0.036-0.33-0.069-0.53-0.098c-2.271-0.272-3.532-3.156-5.745-4.11  c-2.213-0.954-3.774-2.967-5.291-4.382c-1.113-1.033-1.896-2.055-1.862-3.554c-0.282,0.282-0.487,0.753-0.583,1.305l-0.847-1.578  c0,0-0.069,1.033-0.119,1.812c-1.236-0.604-2.434-1.157-3.015-1.573c-0.56-0.401-1.683-0.819-2.931-1.142  c-1.173-1.167-2.53-1.81-2.53-1.81l0.324,1.03c-0.859-0.484-1.796-1.086-2.459-1.246c0.097,0.161,0.364,0.861,0.633,1.462  c-0.04,0.001-0.083,0-0.122,0.002c-1.787,0.093-3.126,0.67-4.559,0.618c-1.379-0.147-2.864-0.531-3.949-1.618  c0.117,0.526,0.206,1.009,0.357,1.477l-1.182,0.067l0.68,0.736c-0.117,0.072-0.22,0.141-0.312,0.208  c-1.211-0.515-2.471-0.87-3.766-0.808c-0.156,0.007-0.306,0.063-0.428,0.16c-1.158,0.914-0.19,2.266,0.617,3.367  c-0.528,0.367-1.242,1.023-1.652,2.036c0.653-0.282,1.112-0.16,1.501,0.039l-0.353,0.597l0.589,0.284  c-0.249,0.369-0.467,0.892-0.454,1.665c0.011,1.134-1.054,3.576-1.626,4.888l-0.174,0.399c-0.562,1.3-0.883,2.127-1.107,2.855  c-0.278,0.899-0.004,2.139,0.667,3.015c0.531,0.693,1.26,1.098,2.08,1.162c0.499,0.391,1.286,0.5,2.064-0.019l0.299-0.197  c0.9-0.592,1.626-1.069,1.708-2.331c0.152-0.146,0.336-0.319,0.536-0.508c1.051-0.991,1.866-1.775,2.281-2.345  c1.189-0.271,2.258-0.978,2.906-1.937c0.099-0.146,0.195-0.32,0.288-0.507c0.369-0.157,0.875-0.077,1.082,0.141  c0.455,0.481,3.3,4.469,3.92,7.741c0.231,0.9,0.266,1.912,0.302,2.983c0.069,2.03,0.166,4.312,1.735,6.15  c-0.368,0.514-0.97,1.108-1.761,1.719c-1.083,0.837-1.917,1.438-2.887,2.136l-0.545,0.393c-1.029,0.743-1.712,2.261-1.662,3.69  c0.058,1.64,1.244,5.295,3.369,8.394l-0.213,0.395c-0.869,1.611-2.441,4.526-3.225,5.8c-1.902,0.657-3.306,2.311-3.612,4.288  c-0.006,0.038-0.009,0.076-0.009,0.115c0.001,0.746,0.001,0.746,3.449,0.76l2.702,0.012h0.003c0.205,0,0.4-0.083,0.542-0.231  c0.142-0.148,0.217-0.349,0.208-0.554c-0.04-0.849,0.527-1.64,1.128-2.478c0.212-0.297,0.424-0.593,0.612-0.893  c0.252-0.4,0.719-1.21,1.187-2.021c0.306-0.53,0.606-1.049,0.848-1.458c0.347,0.233,0.703,0.45,1.073,0.631  c0.96,0.47,2.688,1.014,3.384,1.151c0.184,0.037,0.392,0.064,0.603,0.064c0.396,0,0.802-0.097,1.086-0.407  c0.261-0.285,0.342-0.684,0.214-1.118c-0.111-0.332-1.097-3.271-1.577-4.135c-0.076-0.136-0.193-0.245-0.334-0.312  c-0.903-0.428-1.603-0.264-2.115-0.146c-0.192,0.045-0.319,0.069-0.418,0.079c2.11-3.993,4.961-10.726,5.287-11.498  c0.006-0.016,0.004-0.031,0.009-0.047c0.082-0.043,0.162-0.085,0.239-0.127c1.01,0.249,2.078,0.334,3.168,0.334  c1.023,0,2.063-0.071,3.086-0.142c1.098-0.075,2.234-0.158,3.332-0.144c3.733,0.032,9.826,0.085,13.861-1.473  c-0.016,0.14-0.027,0.287-0.048,0.416c-0.493,3.126-1.869,7.338-3.2,9.798c-1.536,2.845-3.906,6.725-6.019,9.223  c-2.047,0.563-3.789,2.679-3.789,4.668c0,0.414,0.335,0.749,0.749,0.75l5.495,0.012c0.001,0,0.001,0,0.002,0  c0.219,0,0.427-0.096,0.569-0.262c0.143-0.167,0.206-0.388,0.172-0.604c-0.1-0.631,0.539-1.468,1.052-2.141  c0.243-0.318,0.473-0.62,0.584-0.828l0.49-0.653c1.512-2.018,5.526-7.377,6.295-8.055c1.053-0.931,1.315-1.531,1.507-2.524  c0.227-1.169,0.827-3.44,2.296-5.516c0.4-0.565,1.051-1.194,1.794-1.828c0.356,0.351,0.799,0.808,1.296,1.322  c0.923,0.957,1.969,2.041,2.924,2.922c0.674,0.621,1.332,1.136,1.968,1.635c0.99,0.775,1.845,1.445,2.421,2.261  c0.998,1.414,0.998,5.186,0.998,6.425c0,1.637-0.201,1.958-0.711,2.104c-2.205,0.726-3.867,2.886-3.867,5.025  c0,0.41,0.329,0.744,0.739,0.75c0.252,0.004,1.782,0.025,3.014,0.025c0.665,0,1.243-0.007,1.483-0.025  c0.633,0,1.013-0.251,1.22-0.462c0.493-0.501,0.481-1.199,0.475-1.665c0-0.076,0.009-0.118,0.006-0.128  c0.028-0.012,0.113-0.039,0.298-0.039c0.715,0,1.264-0.215,1.632-0.64c0.563-0.649,0.52-1.579,0.401-2.403  c-0.156-1.087-0.399-8.51-0.371-9.835l0.017-0.461c0.042-0.996,0.079-1.857-1.097-2.745c-2.254-1.706-3.886-4.503-3.886-5.556  c0-1.322,0.271-2.042,0.616-2.953c0.2-0.53,0.428-1.131,0.606-1.898c0.41-1.766,1.223-5.295-1.213-9.321  c0.774-0.076,1.49,0.071,2.158,1.568c0.675,1.511,2.91,5.771,6.552,8.176c1.002,0.663,2.814,1.372,4.779,2.202  c1.331,0.732,2.324,2.581,2.635,4.132c0.29-0.63,0.543-1.571,0.593-2.528c0.685,0.626,1.152,1.342,1.382,1.847  c0.054-0.348,0.117-0.746,0.176-1.104c1.697,1.038,3.059,2.243,3.503,3.693C97.178,53.37,95.375,48.462,93.431,47.648z   M24.348,70.472c-0.456,0.79-0.911,1.58-1.157,1.971c-0.173,0.275-0.368,0.546-0.562,0.817c-0.298,0.416-0.607,0.859-0.864,1.335  L19.7,73.758c0.145-0.061,0.275-0.139,0.433-0.184c0.175-0.05,0.325-0.161,0.424-0.314c0.725-1.125,2.362-4.153,3.316-5.923  c0.446,0.536,0.924,1.036,1.432,1.491C25.045,69.264,24.698,69.865,24.348,70.472z M27.225,64.602  c-0.434-0.562-0.805-1.232-1.119-1.926c0.08-0.158,0.163-0.317,0.254-0.492c0.702-1.338,1.726-3.318,1.797-5.716  c1.087-0.4,2.342-0.921,3.505-1.45C30.667,57.328,28.767,61.642,27.225,64.602z M25.39,60.793c-0.291-0.907-0.48-1.699-0.574-2.131  c-0.071-0.331-0.239-1.106,1.708-1.65c0.033-0.009,0.071-0.021,0.105-0.031C26.476,58.45,25.923,59.736,25.39,60.793z   M74.062,48.249c-0.156,0.669-0.355,1.197-0.549,1.708c-0.366,0.97-0.713,1.886-0.713,3.483c0,1.759,2.136,4.977,4.481,6.752  c0.548,0.414,0.54,0.599,0.502,1.484c-0.007,0.153-0.014,0.316-0.018,0.493c-0.025,1.206,0.207,8.828,0.387,10.08  c0.116,0.816,0.037,1.107-0.05,1.208c-0.067,0.077-0.249,0.122-0.499,0.122c-0.817,0-1.391,0.33-1.648,0.905  c-0.563-0.348-1.342-0.836-1.888-1.181c0.197-0.107,0.398-0.203,0.608-0.272c1.771-0.504,1.771-2.33,1.771-3.538  c0-2.555-0.145-5.691-1.273-7.29c-0.702-0.995-1.683-1.764-2.721-2.576c-0.612-0.48-1.246-0.977-1.876-1.558  c-0.923-0.851-1.953-1.918-2.861-2.859c-0.448-0.465-0.854-0.883-1.202-1.231c0.749-0.578,1.519-1.136,2.194-1.624  c0.522-0.378,1.005-0.727,1.409-1.034c0.329-0.25,0.394-0.721,0.143-1.05c-0.25-0.331-0.721-0.395-1.051-0.144  c-0.396,0.301-0.868,0.643-1.38,1.012c-1.956,1.414-4.39,3.174-5.507,4.751c-1.631,2.306-2.294,4.81-2.544,6.099  c-0.125,0.649-0.215,0.966-1.027,1.685c-0.776,0.685-3.584,4.384-6.502,8.279l-0.541,0.731c-0.114,0.2-0.314,0.463-0.526,0.74  c-0.3,0.394-0.623,0.834-0.885,1.306l-2.104-1.257c0.164-0.066,0.33-0.121,0.498-0.156c0.161-0.033,0.307-0.119,0.415-0.244  c2.807-3.246,5.577-8.224,6.359-9.672c1.399-2.588,2.845-7.006,3.362-10.277c0.165-1.052,0.174-2.356,0.183-3.619  c0.004-0.695,0.009-1.371,0.041-1.962c0.022-0.414-0.295-0.767-0.708-0.79c-0.408-0.01-0.768,0.295-0.79,0.708  c-0.033,0.613-0.038,1.314-0.043,2.035c-0.003,0.437-0.009,0.875-0.019,1.305c-3.682,1.734-10.105,1.68-13.947,1.646  c-1.157-0.021-2.321,0.069-3.447,0.147c-1.488,0.101-2.912,0.188-4.237,0.081c1.361-1.013,2.293-2.082,2.663-3.086  c0.736-1.998,0.045-4.434-1.641-5.794c-0.322-0.26-0.794-0.208-1.055,0.113c-0.26,0.322-0.209,0.794,0.113,1.055  c1.182,0.953,1.687,2.718,1.175,4.107c-0.347,0.942-1.571,2.124-3.274,3.161c-1.667,1.019-5.781,2.795-7.722,3.336  c-2.878,0.805-2.972,2.483-2.771,3.412c0.469,2.168,1.599,6.058,3.961,7.8c0.546,0.323,1.045,0.322,1.46,0.255l-0.57,1.998  c-4.462-2.201-7.125-9.443-7.196-11.45c-0.032-0.928,0.416-1.97,1.042-2.422l0.542-0.392c0.984-0.708,1.831-1.317,2.928-2.166  c1.183-0.913,1.993-1.778,2.408-2.571c0.144-0.276,0.1-0.6-0.086-0.826c-0.035-0.097-0.087-0.188-0.163-0.267  c-1.415-1.467-1.48-3.398-1.55-5.443c-0.038-1.104-0.077-2.246-0.338-3.257c-0.683-3.613-3.699-7.818-4.295-8.447  c-0.428-0.451-1.071-0.683-1.721-0.692c0.07-0.634,0.043-1.374-0.16-2.241c-0.094-0.403-0.497-0.656-0.901-0.559  c-0.403,0.094-0.653,0.498-0.559,0.901c0.302,1.289,0.181,2.349-0.359,3.149c-0.712,1.053-1.892,1.307-2.236,1.36  c-0.245,0.037-0.456,0.193-0.563,0.417c-0.179,0.373-1.526,1.643-2.174,2.253c-0.32,0.302-0.601,0.566-0.783,0.751  c-0.143,0.145-0.222,0.341-0.217,0.544c0.015,0.667-0.089,0.757-1.039,1.381l-0.308,0.204c-0.166,0.111-0.279,0.107-0.297,0.097  c-0.146-0.21-0.389-0.338-0.645-0.323c-0.479,0.022-0.869-0.178-1.179-0.582c-0.436-0.569-0.527-1.329-0.425-1.659  c0.208-0.672,0.513-1.456,1.052-2.704l0.172-0.395c0.893-2.048,1.764-4.16,1.751-5.507c-0.011-0.653,0.219-0.874,0.484-1.129  c0.112-0.107,0.208-0.205,0.282-0.301c0.194-0.256,0.243-0.595,0.322-1.43c0.02-0.208,0.035-0.399,0.055-0.509  c0.076-0.207,0.058-0.438-0.054-0.633c-0.292-0.506-0.64-0.98-0.977-1.439c-0.262-0.357-0.625-0.851-0.793-1.182  c1.405,0.097,2.853,0.769,4.222,1.496c0.146,0.079,0.315,0.105,0.476,0.078c4.233-0.711,6.054-0.805,13.078,2.167  c2.744,1.161,4.759,2.63,6.671,4.078c0.046,0.434,0.104,0.909,0.188,1.388l-0.01-0.017c0.114,1.113,0.228,3.633,1.067,4.428  c-0.042-0.359,0.156-1.297,0.659-1.335l0,0c0.167,0.482,0.612,1.374,1.316,1.698c-0.159-0.341-0.227-1.226,0.295-1.113l-0.061-0.03  c2.02,0.642,4.969,1.329,6.669,1.052c0.874-0.077,1.856-0.354,2.563-0.696c2.673,0.136,4.723-0.258,6.717-0.645  c1.96-0.379,3.811-0.733,6.248-0.627c5.936,0.272,9.332,1.858,12.114,5.659C75.276,43.029,74.486,46.425,74.062,48.249z   M12.843,28.363c-0.417,0-0.756,0.339-0.756,0.756c0,0.417,0.338,0.756,0.756,0.756c0.417,0,0.755-0.339,0.755-0.756  C13.598,28.702,13.26,28.363,12.843,28.363z"></path></svg></g></g></svg>
