<svg height='100px' width='100px' xmlns="http://www.w3.org/2000/svg" version="1.1" x="0px" y="0px" viewBox="0 0 64 64" style="enable-background:new 0 0 64 64;"><g><path d="M24.325,30.233l3.899-5.199L23.535,18h-11.07l-4.689,7.034l3.899,5.199C5.427,32.749,1,38.862,1,46c0,9.374,7.626,17,17,17   s17-7.626,17-17C35,38.862,30.573,32.749,24.325,30.233z M21.344,29.334L22.677,26H25l-2.682,3.577   C21.994,29.492,21.674,29.4,21.344,29.334z M16.704,29.066L15.477,26h5.046l-1.227,3.066C18.867,29.033,18.438,29,18,29   S17.133,29.033,16.704,29.066z M15.618,24l2-4h0.764l2,4H15.618z M25.132,24h-2.514l-2-4h1.847L25.132,24z M13.535,20h1.847l-2,4   h-2.514L13.535,20z M11,26h2.323l1.333,3.334c-0.33,0.066-0.651,0.158-0.974,0.243L11,26z M18,61C9.729,61,3,54.271,3,46   s6.729-15,15-15s15,6.729,15,15S26.271,61,18,61z"></path><path d="M18,33c-7.168,0-13,5.832-13,13s5.832,13,13,13s13-5.832,13-13S25.168,33,18,33z M18,57c-6.065,0-11-4.935-11-11   s4.935-11,11-11s11,4.935,11,11S24.065,57,18,57z"></path><path d="M63,30c0-1.516-0.858-2.822-2.104-3.5C62.142,25.822,63,24.516,63,23c0-2.017-1.506-3.673-3.45-3.944   C60.428,18.321,61,17.232,61,16c0-2.017-1.506-3.673-3.45-3.944C58.428,11.321,59,10.232,59,9c0-2.206-1.794-4-4-4   c-0.756,0-1.456,0.223-2.06,0.589C52.969,5.395,53,5.202,53,5c0-2.206-1.794-4-4-4s-4,1.794-4,4c0,0.202,0.031,0.395,0.06,0.589   C44.456,5.223,43.756,5,43,5c-2.206,0-4,1.794-4,4c0,1.232,0.572,2.321,1.45,3.056C38.506,12.327,37,13.983,37,16   c0,1.232,0.572,2.321,1.45,3.056C36.506,19.327,35,20.983,35,23c0,1.516,0.858,2.822,2.104,3.5C35.858,27.178,35,28.484,35,30   s0.858,2.822,2.104,3.5C35.858,34.178,35,35.484,35,37c0,2.017,1.506,3.673,3.45,3.944C37.572,41.679,37,42.768,37,44   c0,2.017,1.506,3.673,3.45,3.944C39.572,48.679,39,49.768,39,51c0,2.206,1.794,4,4,4c0.756,0,1.456-0.223,2.06-0.589   C45.031,54.605,45,54.798,45,55c0,2.206,1.794,4,4,4s4-1.794,4-4c0-0.202-0.031-0.395-0.06-0.589C53.544,54.777,54.244,55,55,55   c2.206,0,4-1.794,4-4c0-1.232-0.572-2.321-1.45-3.056C59.494,47.673,61,46.017,61,44c0-1.232-0.572-2.321-1.45-3.056   C61.494,40.673,63,39.017,63,37c0-1.516-0.858-2.822-2.104-3.5C62.142,32.822,63,31.516,63,30z M57.104,33.5   C55.858,34.178,55,35.484,55,37c0,1.232,0.572,2.321,1.45,3.056C54.506,40.327,53,41.983,53,44c0,1.232,0.572,2.321,1.45,3.056   C52.506,47.327,51,48.983,51,51c0,0.202,0.031,0.395,0.06,0.589C50.456,51.223,49.756,51,49,51s-1.456,0.223-2.06,0.589   C46.969,51.395,47,51.202,47,51c0-2.017-1.506-3.673-3.45-3.944C44.428,46.321,45,45.232,45,44c0-2.017-1.506-3.673-3.45-3.944   C42.428,39.321,43,38.232,43,37c0-1.516-0.858-2.822-2.104-3.5C42.142,32.822,43,31.516,43,30s-0.858-2.822-2.104-3.5   C42.142,25.822,43,24.516,43,23c0-1.232-0.572-2.321-1.45-3.056C43.494,19.673,45,18.017,45,16c0-1.232-0.572-2.321-1.45-3.056   C45.494,12.673,47,11.017,47,9c0-0.202-0.031-0.395-0.06-0.589C47.544,8.777,48.244,9,49,9s1.456-0.223,2.06-0.589   C51.031,8.605,51,8.798,51,9c0,2.017,1.506,3.673,3.45,3.944C53.572,13.679,53,14.768,53,16c0,2.017,1.506,3.673,3.45,3.944   C55.572,20.679,55,21.768,55,23c0,1.516,0.858,2.822,2.104,3.5C55.858,27.178,55,28.484,55,30S55.858,32.822,57.104,33.5z M61,23   c0,1.103-0.897,2-2,2s-2-0.897-2-2s0.897-2,2-2S61,21.897,61,23z M59,16c0,1.103-0.897,2-2,2s-2-0.897-2-2s0.897-2,2-2   S59,14.897,59,16z M55,7c1.103,0,2,0.897,2,2s-0.897,2-2,2s-2-0.897-2-2S53.897,7,55,7z M49,3c1.103,0,2,0.897,2,2s-0.897,2-2,2   s-2-0.897-2-2S47.897,3,49,3z M43,7c1.103,0,2,0.897,2,2s-0.897,2-2,2s-2-0.897-2-2S41.897,7,43,7z M41,14c1.103,0,2,0.897,2,2   s-0.897,2-2,2s-2-0.897-2-2S39.897,14,41,14z M39,21c1.103,0,2,0.897,2,2s-0.897,2-2,2s-2-0.897-2-2S37.897,21,39,21z M39,28   c1.103,0,2,0.897,2,2s-0.897,2-2,2s-2-0.897-2-2S37.897,28,39,28z M37,37c0-1.103,0.897-2,2-2s2,0.897,2,2s-0.897,2-2,2   S37,38.103,37,37z M39,44c0-1.103,0.897-2,2-2s2,0.897,2,2s-0.897,2-2,2S39,45.103,39,44z M43,53c-1.103,0-2-0.897-2-2s0.897-2,2-2   s2,0.897,2,2S44.103,53,43,53z M49,57c-1.103,0-2-0.897-2-2s0.897-2,2-2s2,0.897,2,2S50.103,57,49,57z M55,53c-1.103,0-2-0.897-2-2   s0.897-2,2-2s2,0.897,2,2S56.103,53,55,53z M57,46c-1.103,0-2-0.897-2-2s0.897-2,2-2s2,0.897,2,2S58.103,46,57,46z M59,39   c-1.103,0-2-0.897-2-2s0.897-2,2-2s2,0.897,2,2S60.103,39,59,39z M59,32c-1.103,0-2-0.897-2-2s0.897-2,2-2s2,0.897,2,2   S60.103,32,59,32z"></path></g></svg>
