<svg xmlns="http://www.w3.org/2000/svg" version="1.1" x="0px" y="0px" viewBox="0 0 100 100" style="enable-background:new 0 0 100 100;" xml:space="preserve"><path d="M48.8,95c-0.4,0-0.8,0-1.1,0l-0.6,0l-0.4-0.5c-4.3-6-9.6-9.3-16-9.8c-4.8-0.4-8.3,1-8.3,1l-0.9,0.4l-8.8-13.1l1.5-0.5  c0,0,3.1-1.2,6.1-4.6c4-4.5,6-10.6,6-18.2c0-9.5-3.3-16.1-6.2-20.1c-3.1-4.3-6.2-6.4-6.2-6.4l-1-0.7l0.7-1c0.1-0.1,5.8-8.5,7.4-10.8  l0.7-0.9l1,0.6c5.9,3.6,10.5,4.6,13.8,3c3.9-1.9,4.6-7.1,4.6-7.2L41.1,5h18.7L60,6.2c0,0,0.8,5.2,4.7,7.1c1.4,0.7,3.2,0.9,5.2,0.6  c2.5-0.4,5.4-1.6,8.6-3.5l1-0.6l0.7,0.9c1.4,2,7.4,10.5,7.4,10.5l0.7,1l-1,0.7c0,0-3.1,2.1-6.2,6.5c-2.8,4-6.2,10.7-6.2,20.2  c0,7.5,2,13.6,6,18.2c3,3.4,6,4.6,6.1,4.6l1.4,0.6l-0.8,1.3l-7.9,11.9l-0.9-0.4c0,0-3.6-1.4-8.4-1c-6.3,0.5-11.7,3.8-15.9,9.8  L53.9,95h-0.6c-0.6,0-1.3,0-2.1,0C50.3,95,49.5,95,48.8,95z M48.3,92.6c0.8,0,1.8,0,2.8,0c0.5,0,1,0,1.5,0  c5.8-7.8,12.7-9.9,17.5-10.3c3.8-0.3,7,0.4,8.4,0.8l6.1-9.1c-1.3-0.7-3.4-2.1-5.6-4.5c-3.1-3.5-6.8-9.7-6.8-19.9  c0-10.2,3.6-17.4,6.7-21.7c2.3-3.2,4.5-5.2,5.8-6.2c-1.4-2-4.5-6.4-6-8.6c-6.2,3.5-11.2,4.5-15.1,2.7c-3.9-1.9-5.3-5.7-5.8-7.7H43.2  c-0.5,2-1.9,5.9-5.8,7.7c-3.9,1.8-8.9,0.9-15.1-2.6c-1.6,2.4-4.7,6.8-6,8.8c1.3,1,3.5,3,5.8,6.2c3,4.2,6.7,11.4,6.7,21.6  c0,10.2-3.7,16.5-6.8,19.9c-2.1,2.3-4.2,3.7-5.6,4.5l6.1,9.1c1.5-0.4,4.6-1.2,8.4-0.8C35.7,82.6,42.6,84.8,48.3,92.6z"></path></svg>
