<svg xmlns="http://www.w3.org/2000/svg" version="1.1" x="0px" y="0px" viewBox="0 0 64 64" style="enable-background:new 0 0 64 64;" xml:space="preserve"><g><path d="M46.419,24.894c0.692-1.614,1.136-3.294,1.374-5.012L60,17.847v-3.722c0-1.545-0.365-3.092-1.056-4.473   C57.518,6.8,54.789,4.784,51.644,4.26l-1.238-0.206L47.667,2c-0.86-0.645-1.925-1-3-1h-4.411L39.48,3.585   C39.337,4.062,39.175,4.531,39.01,5H24.99c-0.165-0.469-0.327-0.939-0.47-1.415L23.744,1h-4.411c-1.075,0-2.14,0.355-3,1   l-2.738,2.054L12.356,4.26C9.211,4.784,6.482,6.8,5.056,9.652C4.365,11.033,4,12.58,4,14.125v4.795l12.216,1.018   c0.24,1.698,0.681,3.36,1.365,4.956C18.522,27.091,19,29.417,19,31.808V39c-1.103,0-2,0.897-2,2v2c0,1.078,0.858,1.953,1.927,1.993   c-0.158,1.408-0.633,2.763-1.439,3.972C17.169,49.445,17,50.003,17,50.578c0,1.296,0.834,2.416,2.074,2.788l1.665,0.5   c4.039,1.212,7.141,4.354,8.299,8.408L29.246,63h5.509l0.207-0.726c1.158-4.054,4.261-7.196,8.299-8.408l1.665-0.5   C46.166,52.994,47,51.874,47,50.578c0-0.575-0.169-1.133-0.504-1.637c-0.793-1.19-1.266-2.542-1.423-3.949   C46.142,44.953,47,44.078,47,43v-2c0-1.103-0.897-2-2-2v-7.192C45,29.417,45.478,27.091,46.419,24.894z M50.647,6.122l0.667,0.111   c2.516,0.419,4.7,2.032,5.841,4.314c0.27,0.54,0.476,1.113,0.618,1.701l-7.99,1.776l0.434,1.952L58,14.246v1.906l-10.032,1.672   C47.975,17.613,48,17.404,48,17.192v-0.828c0-2.112,0.376-4.186,1.118-6.163L50.647,6.122z M41.396,4.16L41.744,3h2.922   c0.645,0,1.285,0.213,1.8,0.6l2.334,1.751l-1.556,4.148C46.419,11.701,46,14.011,46,16.364v0.828c0,1.285-0.149,2.55-0.423,3.788   c-3.222-0.21-5.89-2.783-6.162-6.038l-0.406-4.876C39.982,8.177,40.784,6.2,41.396,4.16z M35,12.835V7h3.239   C37.364,9.051,36.272,11.004,35,12.835z M32,16.563c-0.344-0.367-0.673-0.747-1-1.129V7h2v8.434   C32.673,15.816,32.344,16.196,32,16.563z M29,7v5.835C27.728,11.004,26.636,9.051,25.761,7H29z M6,17.08v-1.963l7.89,0.877   l0.221-1.987L6.07,13.113c0.114-0.891,0.374-1.764,0.775-2.566c1.141-2.282,3.325-3.895,5.841-4.314l0.667-0.111l1.53,4.08   C15.624,12.178,16,14.252,16,16.364v0.828c0,0.243,0.027,0.482,0.036,0.724L6,17.08z M16.755,9.499l-1.556-4.148l2.333-1.75   C18.049,3.213,18.688,3,19.333,3h2.922l0.348,1.16c0.612,2.04,1.414,4.018,2.387,5.906l-0.406,4.876   c-0.271,3.255-2.94,5.828-6.162,6.038C18.149,19.742,18,18.477,18,17.192v-0.828C18,14.011,17.581,11.701,16.755,9.499z M19,41h7v2   h-7V41z M44.351,51.45l-1.665,0.5c-4.45,1.336-7.923,4.689-9.419,9.05h-2.532c-1.496-4.36-4.969-7.714-9.419-9.05l-1.666-0.5   C19.261,51.334,19,50.983,19,50.578c0-0.18,0.053-0.354,0.168-0.527c1.013-1.519,1.616-3.248,1.781-5.051h5.329   c0.347,0.595,0.985,1,1.722,1h8c0.737,0,1.375-0.405,1.722-1h5.329c0.165,1.803,0.771,3.536,1.795,5.072   C44.947,50.224,45,50.398,45,50.578C45,50.983,44.739,51.334,44.351,51.45z M28,44v-4h8l0.001,4H28z M38,41h7v2h-7V41z    M44.581,24.106C43.532,26.553,43,29.145,43,31.808V39h-5.278c-0.347-0.595-0.985-1-1.722-1h-8c-0.737,0-1.375,0.405-1.722,1H21   v-7.192c0-2.664-0.532-5.255-1.581-7.702c-0.165-0.384-0.297-0.778-0.433-1.17c4-0.468,7.251-3.735,7.592-7.829l0.17-2.042   c1.316,2.028,2.831,3.928,4.545,5.642L32,19.414l0.707-0.707c1.714-1.714,3.229-3.614,4.545-5.642l0.17,2.042   c0.341,4.094,3.592,7.361,7.592,7.829C44.878,23.328,44.746,23.721,44.581,24.106z"></path><path d="M33,24v-1h-2v1c0,1.654-1.346,3-3,3h-3v2h3c1.641,0,3.088-0.806,4-2.031C32.912,28.194,34.359,29,36,29h3v-2h-3   C34.346,27,33,25.654,33,24z"></path><path d="M33,31v-1h-2v1c0,1.654-1.346,3-3,3h-3v2h3c1.641,0,3.088-0.806,4-2.031C32.912,35.194,34.359,36,36,36h3v-2h-3   C34.346,34,33,32.654,33,31z"></path></g></svg>
