<svg xmlns="http://www.w3.org/2000/svg" version="1.1" x="0px" y="0px" viewBox="0 0 5 5" enable-background="new 0 0 5 5" xml:space="preserve"><g><path d="M3.228,1.668c-0.056-0.04-0.12-0.062-0.186-0.062C2.946,1.604,2.86,1.64,2.796,1.707   C2.733,1.772,2.699,1.859,2.697,1.955c-0.001,0.122,0.054,0.234,0.146,0.3c0.054,0.038,0.119,0.059,0.186,0.06   c0.204,0.005,0.358-0.136,0.361-0.326C3.393,1.862,3.33,1.74,3.228,1.668z M3.032,2.224c-0.05-0.002-0.097-0.017-0.136-0.045   C2.828,2.131,2.789,2.048,2.79,1.956c0.002-0.149,0.11-0.26,0.251-0.258c0.046,0.001,0.092,0.018,0.133,0.046   C3.251,1.799,3.3,1.894,3.298,1.986C3.295,2.125,3.185,2.226,3.032,2.224z"></path><path fill="#000000" d="M3.172,1.797c-0.026-0.019-0.061-0.029-0.104-0.03C2.948,1.766,2.854,1.85,2.853,1.958   C2.851,2.025,2.884,2.089,2.938,2.127c0.034,0.024,0.074,0.037,0.115,0.038c0.057,0.001,0.105-0.023,0.139-0.07   C3.22,2.056,3.235,2.005,3.233,1.95C3.235,1.878,3.215,1.827,3.172,1.797z M3.055,2.073c-0.021,0-0.043-0.007-0.063-0.021   c-0.03-0.021-0.047-0.056-0.046-0.093c0-0.063,0.062-0.1,0.121-0.102C3.09,1.859,3.107,1.863,3.119,1.872   C3.125,1.876,3.145,1.89,3.144,1.948C3.142,1.985,3.133,2.017,3.115,2.041C3.1,2.063,3.081,2.072,3.055,2.073z"></path><path fill="#000000" d="M3.022,1.029C3.021,1.151,3.075,1.265,3.168,1.33c0.053,0.038,0.119,0.06,0.188,0.06   c0.202,0.003,0.355-0.138,0.358-0.327c0.002-0.124-0.06-0.248-0.162-0.32c-0.056-0.04-0.12-0.061-0.186-0.062   c-0.095,0-0.182,0.035-0.247,0.102C3.059,0.846,3.024,0.936,3.022,1.029z M3.188,0.845c0.047-0.047,0.108-0.072,0.178-0.072   c0.046,0,0.093,0.017,0.134,0.045c0.077,0.055,0.126,0.15,0.124,0.244C3.622,1.2,3.509,1.3,3.357,1.297   c-0.051,0-0.097-0.015-0.136-0.042C3.153,1.206,3.114,1.123,3.115,1.032C3.116,0.96,3.142,0.894,3.188,0.845z"></path><path fill="#000000" d="M3.265,1.203C3.298,1.227,3.338,1.24,3.379,1.24c0.055,0.001,0.104-0.025,0.138-0.071   C3.544,1.13,3.559,1.08,3.561,1.025c0-0.071-0.021-0.124-0.062-0.153c-0.028-0.02-0.062-0.029-0.104-0.03   c-0.055-0.001-0.106,0.018-0.146,0.05C3.203,0.927,3.179,0.978,3.179,1.032C3.177,1.1,3.209,1.164,3.265,1.203z M3.306,0.963   c0.022-0.02,0.054-0.029,0.087-0.029c0.022,0.001,0.04,0.005,0.052,0.014C3.45,0.951,3.469,0.964,3.468,1.024   c0,0.035-0.01,0.069-0.025,0.092C3.427,1.138,3.406,1.149,3.38,1.147c-0.022,0-0.044-0.008-0.062-0.02   C3.288,1.106,3.269,1.07,3.27,1.033C3.271,0.999,3.29,0.977,3.306,0.963z"></path><path fill="#000000" d="M4.338,2.156L4.34,2.154H4.339c0.09-0.091,0.146-0.215,0.148-0.353c0.001-0.171-0.08-0.333-0.22-0.432   C4.182,1.309,4.08,1.276,3.976,1.275C3.915,1.274,3.856,1.283,3.8,1.302c0.045-0.073,0.065-0.158,0.067-0.247   c0.004-0.17-0.078-0.333-0.219-0.433c-0.085-0.06-0.188-0.093-0.291-0.095C3.216,0.525,3.086,0.579,2.99,0.68   c-0.001,0-0.001,0-0.002,0.001L2.579,1.037l0,0L1.987,1.553l0,0L0.664,2.704L0.66,2.706L0.656,2.711   c-0.069,0.091-0.11,0.204-0.111,0.32C0.542,3.152,0.58,3.268,0.649,3.358L0.339,3.63L0.335,3.634L0.332,3.638   C0.261,3.727,0.22,3.841,0.219,3.955C0.217,4.138,0.301,4.297,0.435,4.392C0.514,4.448,0.612,4.48,0.72,4.483   c0.057,0.001,0.115-0.009,0.169-0.026l0.01-0.003l0.385-0.326c0.028,0.031,0.059,0.06,0.095,0.085   C1.457,4.27,1.555,4.304,1.661,4.306C1.72,4.308,1.777,4.297,1.832,4.279l0.009-0.003l1.971-1.672l0,0l0,0l0.452-0.386   C4.291,2.2,4.315,2.18,4.338,2.156z M3.973,1.373C4.058,1.374,4.14,1.4,4.21,1.45C4.323,1.53,4.391,1.661,4.388,1.8   C4.387,1.91,4.343,2.01,4.272,2.083L4.203,2.142C4.135,2.189,4.051,2.216,3.961,2.214c-0.082,0-0.161-0.026-0.228-0.073   C3.621,2.062,3.557,1.93,3.558,1.786C3.56,1.701,3.587,1.614,3.636,1.545l0.101-0.099C3.804,1.397,3.887,1.371,3.973,1.373z    M3.33,2.26L3.259,2.321C3.189,2.368,3.104,2.393,3.018,2.393c-0.082-0.002-0.16-0.027-0.227-0.074   C2.679,2.239,2.612,2.107,2.616,1.965c0-0.106,0.044-0.213,0.115-0.289l0.06-0.051C2.86,1.576,2.943,1.549,3.03,1.551   C3.116,1.553,3.198,1.58,3.268,1.629c0.112,0.08,0.18,0.21,0.177,0.35C3.443,2.085,3.403,2.185,3.33,2.26z M2.313,1.776   C2.332,1.738,2.35,1.689,2.37,1.632c0.056-0.154,0.134-0.367,0.275-0.522l0.21-0.184C2.849,0.963,2.843,0.999,2.842,1.04   C2.841,1.085,2.848,1.132,2.858,1.174c0.001,0.002,0.001,0.002,0,0.005c0.055,0.227,0.024,0.261-0.014,0.303   C2.844,1.483,2.843,1.485,2.841,1.487C2.774,1.514,2.716,1.552,2.665,1.604C2.664,1.605,2.664,1.605,2.664,1.605l-0.529,0.46   C2.226,1.954,2.296,1.813,2.313,1.776z M3.356,0.626c0.085,0.001,0.166,0.028,0.234,0.076C3.705,0.783,3.773,0.914,3.77,1.054   C3.769,1.159,3.728,1.259,3.656,1.335L3.584,1.396C3.515,1.443,3.431,1.469,3.343,1.467C3.261,1.465,3.182,1.44,3.115,1.394   C3.004,1.314,2.939,1.183,2.94,1.04c0.001-0.107,0.044-0.212,0.117-0.289L3.116,0.7C3.186,0.65,3.269,0.625,3.356,0.626z    M0.648,3.115C0.682,3.08,0.779,2.988,0.925,2.987c0.193-0.002,0.279-0.162,0.313-0.224C1.24,2.759,1.243,2.755,1.245,2.75   c0.013-0.013,0.018-0.032,0.012-0.049c-0.009-0.026-0.036-0.04-0.062-0.032C1.174,2.677,1.164,2.691,1.15,2.717   C1.121,2.773,1.059,2.889,0.923,2.89C0.801,2.892,0.706,2.94,0.646,2.986c0.008-0.076,0.038-0.149,0.086-0.21L1.944,1.72   L1.92,1.855c-0.004,0.019,0.004,0.038,0.02,0.049C1.944,1.908,1.953,1.911,1.96,1.912c0.025,0.005,0.053-0.013,0.056-0.038   l0.049-0.258l0.318-0.277C2.337,1.432,2.307,1.521,2.278,1.598C2.259,1.653,2.242,1.7,2.226,1.734   c-0.071,0.148-0.191,0.33-0.284,0.374c-0.03,0.016-0.072,0.016-0.115,0.017c-0.085,0.001-0.201,0-0.242,0.145   c-0.045,0.153-0.165,0.269-0.167,0.27c-0.02,0.018-0.021,0.049-0.002,0.069C1.417,2.61,1.42,2.612,1.423,2.614   C1.441,2.628,1.467,2.627,1.484,2.61C1.49,2.604,1.625,2.477,1.678,2.295c0.02-0.068,0.061-0.073,0.149-0.072   c0.049,0,0.104,0,0.155-0.022L0.725,3.295C0.686,3.241,0.66,3.181,0.648,3.115z M0.85,4.367C0.809,4.379,0.765,4.386,0.721,4.385   c-0.021,0-0.039-0.002-0.059-0.004C0.728,4.265,0.854,4.068,0.97,4.012c0.074-0.038,0.119-0.033,0.163-0.03   C1.188,3.986,1.25,3.99,1.33,3.915C1.382,3.865,1.4,3.81,1.419,3.759c0.032-0.09,0.069-0.193,0.278-0.334   C1.971,3.24,2.066,3.119,2.124,3.048C2.139,3.027,2.15,3.013,2.161,3.003C2.194,2.972,2.268,2.934,2.315,2.91   C2.356,2.889,2.37,2.882,2.38,2.872C2.401,2.853,2.4,2.821,2.383,2.803c-0.02-0.02-0.049-0.021-0.068-0.005   C2.308,2.802,2.287,2.813,2.271,2.821c-0.057,0.029-0.136,0.069-0.179,0.11C2.077,2.946,2.062,2.966,2.047,2.985   C1.993,3.054,1.904,3.168,1.644,3.344C1.408,3.503,1.361,3.627,1.326,3.726C1.311,3.773,1.297,3.812,1.262,3.844   C1.214,3.89,1.19,3.888,1.142,3.884c-0.048-0.005-0.117-0.009-0.216,0.04C0.843,3.965,0.753,4.056,0.66,4.197   C0.618,4.259,0.586,4.315,0.566,4.353C0.439,4.298,0.348,4.184,0.324,4.042c0.032-0.037,0.129-0.129,0.273-0.13   C0.793,3.911,0.88,3.75,0.913,3.689C0.915,3.685,0.918,3.679,0.92,3.677c0.013-0.014,0.019-0.033,0.013-0.05   C0.924,3.6,0.896,3.586,0.871,3.595c-0.021,0.006-0.03,0.023-0.046,0.048C0.797,3.698,0.733,3.813,0.598,3.814   C0.477,3.815,0.382,3.865,0.32,3.911C0.33,3.835,0.36,3.763,0.406,3.7L1.62,2.646L1.595,2.779c-0.004,0.02,0.006,0.039,0.021,0.05   c0.006,0.004,0.013,0.006,0.02,0.008c0.026,0.005,0.052-0.013,0.057-0.039l0.047-0.257l0.317-0.276   C2.013,2.356,1.98,2.446,1.953,2.523C1.933,2.578,1.916,2.625,1.9,2.658C1.829,2.809,1.709,2.99,1.617,3.034   C1.587,3.05,1.545,3.05,1.5,3.05C1.416,3.049,1.299,3.051,1.259,3.194C1.215,3.347,1.094,3.461,1.092,3.463   c-0.019,0.02-0.021,0.05-0.001,0.07C1.092,3.536,1.095,3.538,1.097,3.54c0.02,0.013,0.046,0.012,0.063-0.005   C1.164,3.53,1.301,3.401,1.354,3.221c0.02-0.07,0.061-0.073,0.148-0.072c0.05-0.001,0.106-0.002,0.159-0.025   c0.155-0.076,0.3-0.365,0.327-0.421c0.019-0.038,0.036-0.089,0.059-0.146c0.055-0.154,0.13-0.367,0.274-0.521l0.21-0.184   C2.522,1.887,2.518,1.925,2.518,1.963C2.517,2.012,2.522,2.057,2.532,2.101c0,0.001,0,0.001,0,0.002   C2.589,2.331,2.559,2.365,2.52,2.407C2.514,2.414,2.506,2.422,2.499,2.432C2.467,2.473,2.334,2.54,2.257,2.573   c-0.024,0.011-0.035,0.04-0.024,0.063c0.003,0.01,0.01,0.017,0.017,0.021C2.262,2.668,2.28,2.67,2.297,2.662   c0.208-0.09,0.27-0.157,0.279-0.17c0.006-0.007,0.012-0.013,0.018-0.021c0.034-0.037,0.06-0.073,0.064-0.139   c0.024,0.024,0.048,0.046,0.076,0.066C2.816,2.457,2.913,2.488,3.017,2.49c0.016,0,0.03-0.001,0.045-0.002L2.804,2.706   C2.767,2.741,2.623,2.754,2.532,2.755C2.506,2.754,2.484,2.776,2.483,2.802c0,0.017,0.008,0.033,0.021,0.042   C2.512,2.85,2.522,2.852,2.533,2.853c0.016,0,0.056-0.001,0.106-0.005L1.882,3.49l-0.26,0.047c-0.026,0.004-0.043,0.03-0.039,0.058   c0.001,0.012,0.009,0.022,0.021,0.03c0.01,0.008,0.022,0.012,0.037,0.008l0.093-0.016L0.85,4.367z M1.792,4.188   C1.75,4.203,1.706,4.207,1.663,4.207c-0.02,0-0.039-0.001-0.058-0.006c0.063-0.115,0.19-0.311,0.308-0.369   c0.075-0.035,0.119-0.031,0.164-0.029C2.131,3.81,2.192,3.813,2.272,3.737c0.051-0.05,0.07-0.104,0.089-0.157   C2.394,3.49,2.431,3.389,2.64,3.247c0.273-0.185,0.369-0.306,0.427-0.379c0.015-0.018,0.026-0.032,0.037-0.044   C3.138,2.793,3.21,2.757,3.257,2.731c0.04-0.021,0.057-0.028,0.066-0.037c0.019-0.02,0.02-0.05,0-0.07   C3.305,2.605,3.275,2.604,3.257,2.621C3.251,2.626,3.229,2.636,3.213,2.645C3.156,2.674,3.079,2.713,3.034,2.754   C3.02,2.77,3.006,2.787,2.988,2.809C2.936,2.877,2.845,2.989,2.586,3.165C2.35,3.324,2.305,3.447,2.269,3.547   c-0.015,0.048-0.03,0.087-0.065,0.12c-0.046,0.045-0.069,0.044-0.118,0.04c-0.05-0.005-0.118-0.011-0.216,0.039   C1.786,3.788,1.695,3.879,1.603,4.019c-0.042,0.062-0.074,0.12-0.094,0.156C1.45,4.148,1.399,4.111,1.358,4.063l1.51-1.281   l0.001-0.001l0,0l0.45-0.382c0.023-0.018,0.046-0.036,0.067-0.056c0.077-0.077,0.129-0.172,0.149-0.276   c0.035,0.06,0.083,0.113,0.14,0.153c0.082,0.059,0.181,0.09,0.283,0.092c0.015,0,0.03,0,0.046-0.002L3.747,2.529   C3.708,2.562,3.564,2.577,3.476,2.577c-0.027-0.001-0.05,0.021-0.049,0.049c0,0.016,0.009,0.03,0.021,0.038   c0.009,0.007,0.018,0.009,0.026,0.01c0.018,0.001,0.059,0,0.108-0.004L2.825,3.312L2.564,3.359   C2.538,3.364,2.521,3.389,2.526,3.416c0.001,0.012,0.01,0.023,0.021,0.031c0.01,0.007,0.021,0.009,0.036,0.009l0.093-0.018   L1.792,4.188z"></path><path fill="#000000" d="M3.641,1.778C3.639,1.9,3.692,2.01,3.786,2.076c0.055,0.039,0.118,0.06,0.187,0.062   C4.175,2.141,4.33,2,4.332,1.81C4.335,1.686,4.271,1.562,4.17,1.491c-0.057-0.04-0.12-0.062-0.186-0.062   C3.889,1.427,3.803,1.462,3.74,1.529C3.678,1.594,3.642,1.683,3.641,1.778z M3.806,1.593C3.852,1.545,3.915,1.52,3.983,1.521   C4.03,1.521,4.076,1.536,4.117,1.565c0.076,0.054,0.125,0.149,0.125,0.242c-0.003,0.141-0.114,0.24-0.268,0.238   C3.924,2.045,3.879,2.029,3.84,2.002C3.771,1.953,3.731,1.87,3.732,1.779C3.733,1.706,3.76,1.642,3.806,1.593z"></path><path fill="#000000" d="M3.882,1.95c0.033,0.023,0.073,0.036,0.115,0.037C4.101,1.989,4.177,1.9,4.178,1.772   C4.18,1.7,4.156,1.648,4.115,1.619C4.089,1.601,4.054,1.59,4.012,1.589C3.956,1.588,3.904,1.605,3.864,1.64   C3.821,1.676,3.796,1.725,3.795,1.78C3.795,1.847,3.827,1.911,3.882,1.95z M3.923,1.71c0.023-0.02,0.056-0.029,0.088-0.029   C4.033,1.682,4.05,1.686,4.062,1.693c0.005,0.004,0.023,0.018,0.022,0.078c0,0.099-0.056,0.124-0.087,0.123   C3.975,1.896,3.955,1.888,3.936,1.874C3.904,1.853,3.888,1.817,3.888,1.781C3.889,1.747,3.907,1.724,3.923,1.71z"></path></g></svg>
