<svg height='100px' width='100px' xmlns="http://www.w3.org/2000/svg" version="1.1" x="0px" y="0px" viewBox="0 0 512 512" enable-background="new 0 0 512 512"><g><g><g><path d="M24.163,112.102c-13.225,0-23.982-10.758-23.982-23.983s10.758-23.983,23.982-23.983c2.21,0,3.997,1.788,3.997,3.998 s-1.787,3.997-3.997,3.997c-8.821,0-15.988,7.17-15.988,15.989s7.167,15.989,15.988,15.989c2.21,0,3.997,1.788,3.997,3.997 S26.373,112.102,24.163,112.102z"></path></g></g><g><g><path d="M4.178,435.873c-2.21,0-3.997-1.787-3.997-3.996V88.119c0-2.209,1.787-3.997,3.997-3.997 c2.209,0,3.997,1.788,3.997,3.997v343.758C8.175,434.086,6.387,435.873,4.178,435.873z"></path></g></g><g><g><path d="M52.144,112.102h-27.98c-2.209,0-3.997-1.788-3.997-3.998s1.788-3.997,3.997-3.997h27.98c2.21,0,3.997,1.788,3.997,3.997 S54.354,112.102,52.144,112.102z"></path></g></g><g><g><path d="M487.836,72.13H24.163c-2.209,0-3.997-1.788-3.997-3.997s1.788-3.998,3.997-3.998h463.673 c2.21,0,3.997,1.788,3.997,3.998S490.046,72.13,487.836,72.13z"></path></g></g><g><g><path d="M52.144,455.859h-27.98c-2.209,0-3.997-1.787-3.997-3.998c0-2.209,1.788-3.996,3.997-3.996h27.98 c2.21,0,3.997,1.787,3.997,3.996C56.141,454.072,54.354,455.859,52.144,455.859z"></path></g></g><g><g><path d="M355.929,415.887H68.133c-2.21,0-3.998-1.787-3.998-3.996s1.788-3.998,3.998-3.998h287.796 c2.21,0,3.998,1.789,3.998,3.998S358.139,415.887,355.929,415.887z"></path></g></g><g><g><path d="M24.163,455.859c-13.225,0-23.982-10.758-23.982-23.982c0-2.211,1.787-3.998,3.997-3.998 c2.209,0,3.997,1.787,3.997,3.998c0,8.82,7.167,15.988,15.988,15.988c2.21,0,3.997,1.787,3.997,3.996 C28.16,454.072,26.373,455.859,24.163,455.859z"></path></g></g><g><g><path d="M52.144,455.859c-2.209,0-3.997-1.787-3.997-3.998V108.104c0-2.209,1.788-3.997,3.997-3.997 c2.21,0,3.997,1.788,3.997,3.997v343.757C56.141,454.072,54.354,455.859,52.144,455.859z"></path></g></g><g><g><path d="M487.836,72.13c-2.209,0-3.997-1.788-3.997-3.997s1.788-3.998,3.997-3.998c8.822,0,15.989-7.17,15.989-15.988 c0-8.818-7.167-15.989-15.989-15.989c-2.209,0-3.997-1.788-3.997-3.998c0-2.209,1.788-3.997,3.997-3.997 c13.226,0,23.983,10.758,23.983,23.983C511.819,61.372,501.062,72.13,487.836,72.13z"></path></g></g><g><g><path d="M487.836,32.158h-27.979c-2.21,0-3.998-1.788-3.998-3.998c0-2.209,1.788-3.997,3.998-3.997h27.979 c2.21,0,3.997,1.788,3.997,3.997C491.833,30.371,490.046,32.158,487.836,32.158z"></path></g></g><g><g><path d="M459.856,56.141c-2.21,0-3.998-1.788-3.998-3.997V28.161c0-2.209,1.788-3.997,3.998-3.997 c2.209,0,3.996,1.788,3.996,3.997v23.983C463.853,54.354,462.065,56.141,459.856,56.141z"></path></g></g><g><g><path d="M507.822,347.936c-2.21,0-3.997-1.787-3.997-3.998V48.147c0-2.209,1.787-3.997,3.997-3.997 c2.209,0,3.997,1.788,3.997,3.997v295.791C511.819,346.148,510.031,347.936,507.822,347.936z"></path></g></g><g><g><g><path d="M253.813,363.502L253.813,363.502c-9.969,0-19.018-4.012-28.479-12.607c-17.082-15.527-40.144-23.477-58.662-29.861 c-20.618-7.105-36.903-12.727-38.551-25.904c-1.022-8.174-4.278-12.195-7.144-15.738c-4.848-5.988-7.689-11.055-0.148-21.703 c5.637-7.964,15.786-10.638,25.584-13.226c13.42-3.54,21.648-6.226,21.648-16.441c0-4.712-6.425-7.545-16.23-11.324 c-12.296-4.743-29.144-11.238-23.569-29.795c8.885-29.624,100.663-58.811,123.741-58.811 c20.735,0,137.052,25.064,147.708,58.752c2.779,8.767,7.229,14.532,11.944,20.638c10.228,13.236,20.798,26.922,12.148,69.303 c-4.7,22.99-66.859,59.035-107.065,67.076c-12.538,2.516-23.108,6.996-32.438,10.961 C273.323,359.475,263.846,363.502,253.813,363.502z M252.003,136.084c-23.733,0-108.814,28.855-116.09,53.111 c-3.092,10.336,3.685,14.213,18.799,20.041c10.492,4.048,21.345,8.232,21.345,18.784c0,16.895-14.662,20.759-27.605,24.174 c-8.424,2.221-17.129,4.516-21.095,10.114c-4.63,6.535-3.771,7.588-0.164,12.055c3.193,3.934,7.557,9.336,8.86,19.781 c1.031,8.229,15.95,13.375,33.227,19.33c19.214,6.621,43.126,14.865,61.426,31.502c7.9,7.189,15.247,10.531,23.108,10.531l0,0 c8.4,0,17.191-3.73,27.363-8.049c9.674-4.113,20.65-8.768,34-11.438c39.605-7.916,97.064-42.602,100.788-60.832 c7.925-38.796-1.093-50.468-10.633-62.823c-4.935-6.386-10.04-12.994-13.241-23.112 C383.815,163.117,278.055,136.084,252.003,136.084z"></path></g></g><g><g><path d="M108.104,240.011c-2.21,0-3.997-1.788-3.997-3.997v-31.978c0-2.209,1.787-3.997,3.997-3.997 c2.209,0,3.997,1.788,3.997,3.997v31.978C112.102,238.224,110.313,240.011,108.104,240.011z"></path></g></g><g><g><path d="M116.099,224.023h-15.989c-2.209,0-3.997-1.788-3.997-3.997c0-2.21,1.788-3.998,3.997-3.998h15.989 c2.209,0,3.997,1.788,3.997,3.998C120.096,222.235,118.308,224.023,116.099,224.023z"></path></g></g><g><g><path d="M108.104,248.006c-11.023,0-19.986-8.966-19.986-19.986c0-2.209,1.788-3.997,3.997-3.997 c2.21,0,3.997,1.788,3.997,3.997c0,6.612,5.379,11.991,11.992,11.991c2.209,0,3.997,1.788,3.997,3.998 S110.313,248.006,108.104,248.006z"></path></g></g><g><g><path d="M108.104,248.006c-2.21,0-3.997-1.788-3.997-3.997s1.787-3.998,3.997-3.998c6.612,0,11.991-5.379,11.991-11.991 c0-2.209,1.788-3.997,3.997-3.997c2.21,0,3.997,1.788,3.997,3.997C128.09,239.04,119.128,248.006,108.104,248.006z"></path></g></g><g><g><path d="M212.031,256c-0.844,0-1.679-0.262-2.397-0.801c-1.771-1.323-2.131-3.829-0.804-5.594l11.991-15.988 c1.327-1.765,3.834-2.116,5.598-0.8c1.772,1.323,2.132,3.83,0.805,5.594L215.231,254.4C214.443,255.45,213.249,256,212.031,256z "></path></g></g><g><g><path d="M232.017,250.676c-1.218,0-2.412-0.55-3.201-1.6l-7.994-10.665c-1.327-1.764-0.968-4.271,0.805-5.594 c1.764-1.327,4.271-0.968,5.598,0.8l7.994,10.664c1.327,1.765,0.968,4.271-0.805,5.594 C233.695,250.415,232.86,250.676,232.017,250.676z"></path></g></g><g><g><path d="M228.02,256c-0.843,0-1.679-0.262-2.396-0.801c-1.772-1.323-2.132-3.829-0.805-5.594l23.983-31.977 c1.327-1.764,3.833-2.124,5.598-0.8c1.772,1.323,2.131,3.829,0.804,5.594L231.221,254.4C230.432,255.45,229.237,256,228.02,256z "></path></g></g><g><g><path d="M275.985,256c-1.218,0-2.412-0.551-3.201-1.601l-23.982-31.978c-1.327-1.765-0.968-4.271,0.804-5.594 c1.757-1.331,4.271-0.972,5.598,0.8l23.983,31.977c1.327,1.765,0.968,4.271-0.805,5.594 C277.664,255.739,276.829,256,275.985,256z"></path></g></g><g><g><path d="M355.929,232.017c-2.209,0-3.996-1.788-3.996-3.997v-15.989c0-2.209,1.787-3.997,3.996-3.997 c2.21,0,3.998,1.788,3.998,3.997v15.989C359.927,230.229,358.139,232.017,355.929,232.017z"></path></g></g><g><g><path d="M355.929,216.028c-2.076,0-3.825-1.592-3.98-3.685c-0.016-0.074-0.406-3.786-2.701-5.195 c-2.093-1.272-5.396-0.387-7.808,0.593c-2.046,0.824-4.372-0.164-5.199-2.206c-0.828-2.049,0.156-4.376,2.201-5.203 c6.027-2.439,11.102-2.42,15.06,0.051c5.707,3.556,6.363,10.574,6.41,11.363c0.164,2.201-1.499,4.114-3.701,4.27 C356.116,216.024,356.022,216.028,355.929,216.028z"></path></g></g><g><g><path d="M355.929,216.028c-0.094,0-0.187-0.004-0.28-0.012c-2.202-0.156-3.864-2.069-3.7-4.27 c0.047-0.789,0.702-7.808,6.409-11.363c3.958-2.475,9.024-2.494,15.06-0.051c2.045,0.827,3.029,3.154,2.201,5.203 c-0.819,2.05-3.154,3.033-5.199,2.206c-2.42-0.976-5.754-1.877-7.83-0.574c-2.271,1.417-2.67,5.109-2.678,5.148 C359.771,214.42,358.014,216.028,355.929,216.028z"></path></g></g><g><g><path d="M387.907,256c-2.21,0-3.998-1.788-3.998-3.998v-15.989c0-2.209,1.788-3.997,3.998-3.997 c2.209,0,3.996,1.788,3.996,3.997v15.989C391.903,254.212,390.116,256,387.907,256z"></path></g></g><g><g><path d="M387.907,240.011c-2.077,0-3.826-1.592-3.982-3.685c-0.016-0.074-0.405-3.786-2.701-5.195 c-2.092-1.273-5.402-0.383-7.807,0.593c-2.045,0.832-4.372-0.16-5.199-2.205c-0.828-2.05,0.156-4.376,2.201-5.204 c6.027-2.439,11.102-2.42,15.06,0.051c5.707,3.556,6.362,10.575,6.409,11.363c0.164,2.202-1.498,4.114-3.7,4.27 C388.094,240.007,388.001,240.011,387.907,240.011z"></path></g></g><g><g><path d="M387.907,240.011c-0.094,0-0.188-0.004-0.281-0.012c-2.202-0.156-3.865-2.068-3.701-4.27 c0.047-0.789,0.703-7.807,6.41-11.363c3.958-2.475,9.024-2.494,15.06-0.051c2.045,0.828,3.029,3.154,2.201,5.204 c-0.827,2.045-3.138,3.041-5.199,2.205c-2.42-0.979-5.762-1.885-7.83-0.573c-2.272,1.417-2.671,5.109-2.679,5.148 C391.748,238.403,389.991,240.011,387.907,240.011z"></path></g></g><g><g><g><path d="M159.771,281.592c-0.53,0-1.069-0.109-1.576-0.328l-3.74-1.623c-2.021-0.891-2.928-3.248-2.037-5.27 c0.89-2.008,3.247-2.928,5.27-2.039l3.661,1.594c2.03,0.873,2.967,3.217,2.093,5.246 C162.784,280.686,161.316,281.592,159.771,281.592z"></path></g></g><g><g><path d="M249.114,305.012c-0.062,0-0.117,0-0.18-0.008c-2.568-0.115-5.207-0.295-7.908-0.537 c-2.194-0.203-3.811-2.156-3.607-4.357c0.203-2.186,2.14-3.801,4.341-3.605c2.576,0.232,5.09,0.404,7.534,0.514 c2.209,0.102,3.911,1.969,3.817,4.17C253.01,303.334,251.237,305.012,249.114,305.012z M264.571,304.826 c-2.076,0-3.833-1.602-3.98-3.701c-0.164-2.201,1.49-4.123,3.692-4.279c2.553-0.188,5.02-0.451,7.409-0.787 c2.186-0.32,4.215,1.209,4.527,3.395c0.305,2.188-1.218,4.217-3.404,4.521c-2.561,0.367-5.215,0.648-7.955,0.844 C264.759,304.826,264.665,304.826,264.571,304.826z M226.067,302.396c-0.226,0-0.46-0.023-0.694-0.062 c-2.521-0.443-5.098-0.943-7.736-1.506c-2.155-0.461-3.529-2.584-3.068-4.746c0.46-2.156,2.568-3.545,4.738-3.068 c2.53,0.539,5.013,1.021,7.456,1.451c2.178,0.383,3.63,2.459,3.24,4.631C229.659,301.031,227.973,302.396,226.067,302.396z M287.329,300.625c-1.694,0-3.271-1.086-3.81-2.787c-0.664-2.1,0.491-4.348,2.6-5.02c2.396-0.766,4.685-1.617,6.854-2.561 c2.037-0.883,4.388,0.047,5.262,2.076c0.883,2.014-0.047,4.371-2.076,5.254c-2.42,1.055-4.958,2.006-7.62,2.85 C288.134,300.562,287.728,300.625,287.329,300.625z M203.459,297.213c-0.359,0-0.719-0.047-1.077-0.148 c-2.468-0.686-4.981-1.42-7.526-2.201c-2.107-0.648-3.295-2.889-2.646-4.996c0.647-2.107,2.896-3.287,4.996-2.646 c2.476,0.758,4.919,1.475,7.315,2.146c2.132,0.586,3.373,2.795,2.787,4.918C206.815,296.051,205.208,297.213,203.459,297.213z M307.939,290.227c-1.21,0-2.412-0.555-3.2-1.602c-1.32-1.764-0.969-4.27,0.796-5.598c1.96-1.467,3.771-3.035,5.457-4.691 c1.577-1.553,4.099-1.521,5.652,0.039c1.546,1.578,1.53,4.107-0.047,5.66c-1.937,1.904-4.044,3.717-6.261,5.387 C309.618,289.961,308.774,290.227,307.939,290.227z M181.357,290.133c-0.445,0-0.898-0.078-1.351-0.234 c-2.413-0.875-4.856-1.779-7.331-2.732c-2.061-0.797-3.092-3.107-2.303-5.168c0.796-2.061,3.114-3.092,5.168-2.295 c2.42,0.928,4.81,1.826,7.167,2.67c2.076,0.74,3.154,3.029,2.412,5.105C184.534,289.117,182.997,290.133,181.357,290.133z M323.163,272.941c-0.663,0-1.335-0.164-1.959-0.516c-1.921-1.076-2.607-3.512-1.522-5.441 c1.163-2.061,2.193-4.242,3.067-6.479c0.812-2.059,3.139-3.076,5.185-2.27c2.053,0.809,3.067,3.127,2.264,5.182 c-1.015,2.584-2.201,5.105-3.544,7.486C325.919,272.207,324.561,272.941,323.163,272.941z M330.143,250.98 c-0.148,0-0.304-0.008-0.452-0.023c-2.194-0.25-3.771-2.229-3.521-4.423c0.25-2.206,0.375-4.438,0.367-6.69 c-0.008-2.194,1.756-4.267,3.95-4.29c2.553,0.027,3.997,1.437,4.036,3.626c0.016,3.205-0.125,5.742-0.406,8.252 C333.882,249.474,332.149,250.98,330.143,250.98z M328.667,227.93c-1.818,0-3.466-1.249-3.888-3.096 c-0.546-2.354-1.218-4.703-2.022-7.034c-0.718-2.084,0.391-4.36,2.476-5.078c2.061-0.714,4.364,0.387,5.082,2.479 c0.897,2.588,1.647,5.204,2.257,7.831c0.491,2.151-0.844,4.298-2.998,4.797C329.276,227.899,328.964,227.93,328.667,227.93z M320.149,206.434c-1.381,0-2.732-0.718-3.474-2.006c-1.21-2.112-2.529-4.185-3.95-6.21c-1.28-1.807-0.844-4.298,0.96-5.57 c1.804-1.269,4.302-0.839,5.566,0.964c1.577,2.229,3.029,4.512,4.356,6.835c1.108,1.917,0.438,4.36-1.468,5.457 C321.509,206.262,320.829,206.434,320.149,206.434z M306.011,188.115c-1.015,0-2.029-0.387-2.81-1.16 c-1.733-1.713-3.561-3.373-5.466-4.961c-1.701-1.413-1.936-3.931-0.53-5.629c1.421-1.694,3.935-1.939,5.637-0.522 c2.093,1.744,4.091,3.56,5.979,5.438c1.578,1.553,1.578,4.083,0.031,5.652C308.072,187.72,307.042,188.115,306.011,188.115z"></path></g></g><g><g><path d="M287.462,173.98c-0.68,0-1.366-0.172-1.998-0.539c-1.094-0.632-2.202-1.245-3.342-1.838 c-1.952-1.027-2.709-3.443-1.687-5.399c1.022-1.952,3.45-2.701,5.402-1.682c1.233,0.647,2.444,1.315,3.63,2.002 c1.913,1.105,2.569,3.549,1.461,5.461C290.179,173.266,288.844,173.98,287.462,173.98z"></path></g></g></g><g><g><path d="M267.991,184.051c-1.022,0-2.045-0.391-2.826-1.171l-23.982-23.983c-1.562-1.562-1.562-4.091,0-5.652 c1.561-1.562,4.091-1.562,5.651,0l23.983,23.983c1.562,1.561,1.562,4.091,0,5.652 C270.036,183.661,269.014,184.051,267.991,184.051z"></path></g></g><g><g><path d="M244.009,184.051c-1.023,0-2.046-0.391-2.826-1.171c-1.562-1.561-1.562-4.091,0-5.652l23.982-23.983 c1.562-1.562,4.091-1.562,5.652,0s1.562,4.091,0,5.652l-23.983,23.983C246.054,183.661,245.031,184.051,244.009,184.051z"></path></g></g></g><g><g><path d="M116.099,104.107c-2.209,0-3.997-1.788-3.997-3.998V68.133c0-2.209,1.788-3.998,3.997-3.998s3.997,1.788,3.997,3.998 v31.977C120.096,102.32,118.308,104.107,116.099,104.107z"></path></g></g><g><g><path d="M156.07,80.125c-2.209,0-3.997-1.788-3.997-3.997v-7.995c0-2.209,1.788-3.998,3.997-3.998s3.997,1.788,3.997,3.998v7.995 C160.067,78.336,158.279,80.125,156.07,80.125z"></path></g></g><g><g><path d="M475.845,40.153c-2.209,0-3.997-1.788-3.997-3.998v-7.995c0-2.209,1.788-3.997,3.997-3.997s3.997,1.788,3.997,3.997 v7.995C479.842,38.365,478.054,40.153,475.845,40.153z"></path></g></g><g><g><path d="M411.89,112.102c-2.209,0-3.997-1.788-3.997-3.998V68.632c0-2.209,1.788-3.997,3.997-3.997s3.997,1.788,3.997,3.997 v39.472C415.887,110.314,414.099,112.102,411.89,112.102z"></path></g></g><g><g><path d="M275.985,88.119c-2.209,0-3.997-1.788-3.997-3.997V68.133c0-2.209,1.788-3.998,3.997-3.998 c2.21,0,3.998,1.788,3.998,3.998v15.989C279.983,86.331,278.195,88.119,275.985,88.119z"></path></g></g><g><g><path d="M92.115,415.887c-2.209,0-3.997-1.787-3.997-3.996v-31.979c0-2.209,1.788-3.996,3.997-3.996 c2.21,0,3.997,1.787,3.997,3.996v31.979C96.112,414.1,94.325,415.887,92.115,415.887z"></path></g></g><g><g><path d="M132.087,415.887c-2.209,0-3.997-1.787-3.997-3.996v-15.988c0-2.211,1.788-3.998,3.997-3.998 c2.21,0,3.997,1.787,3.997,3.998v15.988C136.084,414.1,134.297,415.887,132.087,415.887z"></path></g></g><g><g><path d="M236.014,415.887c-2.209,0-3.997-1.787-3.997-3.996v-7.994c0-2.209,1.788-3.998,3.997-3.998 c2.21,0,3.997,1.789,3.997,3.998v7.994C240.011,414.1,238.224,415.887,236.014,415.887z"></path></g></g><g><g><path d="M323.952,415.887c-2.21,0-3.998-1.787-3.998-3.996v-31.979c0-2.209,1.788-3.996,3.998-3.996 c2.209,0,3.997,1.787,3.997,3.996v31.979C327.949,414.1,326.161,415.887,323.952,415.887z"></path></g></g><g><g><g><path d="M440.104,403.896c-2.202,0-4.028-1.789-4.028-3.998s1.749-3.996,3.95-3.996h0.078c2.217,0,3.997,1.787,3.997,3.996 S442.321,403.896,440.104,403.896z"></path></g></g><g><g><path d="M439.87,471.848c-39.676,0-71.949-32.273-71.949-71.949c0-39.674,32.273-71.949,71.949-71.949 c39.675,0,71.949,32.275,71.949,71.949C511.819,439.574,479.545,471.848,439.87,471.848z M439.87,335.943 c-35.264,0-63.955,28.691-63.955,63.955s28.691,63.955,63.955,63.955s63.955-28.691,63.955-63.955 S475.134,335.943,439.87,335.943z"></path></g></g><g><g><path d="M439.87,487.836c-39.676,0-71.949-32.273-71.949-71.949c0-2.209,1.787-3.996,3.997-3.996s3.997,1.787,3.997,3.996 c0,35.266,28.691,63.955,63.955,63.955s63.955-28.689,63.955-63.955c0-2.209,1.787-3.996,3.997-3.996 c2.209,0,3.997,1.787,3.997,3.996C511.819,455.562,479.545,487.836,439.87,487.836z"></path></g></g><g><g><path d="M419.884,403.896c-0.554,0-1.116-0.109-1.654-0.359c-2.015-0.914-2.896-3.279-1.983-5.293l19.985-43.969 c0.906-2,3.264-2.904,5.294-1.984c2.014,0.914,2.896,3.279,1.982,5.293l-19.985,43.971 C422.851,403.021,421.398,403.896,419.884,403.896z"></path></g></g><g><g><path d="M459.856,403.896c-1.516,0-2.967-0.875-3.639-2.342l-19.986-43.971c-0.913-2.014-0.031-4.379,1.983-5.293 c2.03-0.92,4.388-0.016,5.293,1.984l19.986,43.969c0.913,2.014,0.031,4.379-1.983,5.293 C460.973,403.787,460.41,403.896,459.856,403.896z"></path></g></g><g><g><path d="M439.87,447.865c-0.555,0-1.116-0.109-1.655-0.359c-2.015-0.914-2.896-3.279-1.983-5.293l19.986-43.969 c0.906-2.006,3.264-2.904,5.293-1.982c2.015,0.912,2.896,3.277,1.983,5.293l-19.986,43.969 C442.837,446.99,441.385,447.865,439.87,447.865z"></path></g></g><g><g><path d="M439.87,447.865c-1.515,0-2.967-0.875-3.639-2.342l-19.985-43.969c-0.913-2.016-0.031-4.381,1.983-5.293 c2.029-0.922,4.387-0.023,5.293,1.982l19.985,43.969c0.914,2.014,0.031,4.379-1.982,5.293 C440.986,447.756,440.425,447.865,439.87,447.865z"></path></g></g><g><g><path d="M371.918,419.885c-2.21,0-3.997-1.787-3.997-3.998v-15.988c0-2.209,1.787-3.996,3.997-3.996s3.997,1.787,3.997,3.996 v15.988C375.915,418.098,374.128,419.885,371.918,419.885z"></path></g></g><g><g><path d="M507.822,419.885c-2.21,0-3.997-1.787-3.997-3.998v-15.988c0-2.209,1.787-3.996,3.997-3.996 c2.209,0,3.997,1.787,3.997,3.996v15.988C511.819,418.098,510.031,419.885,507.822,419.885z"></path></g></g></g></g></svg>
