<svg xmlns="http://www.w3.org/2000/svg" viewBox="0 0 64 64" version="1.1" xml:space="preserve" x="0px" y="0px" ><rect x="0" y="0" width="64" height="64" fill="none"></rect><path d="M18.279,40.065c-0.11,-0.369 -0.2,-0.744 -0.272,-1.123c-0.327,-1.714 -0.307,-3.478 -0.116,-5.215c0.209,-1.896 0.625,-3.765 1.158,-5.594c0.617,-2.119 1.396,-4.193 2.287,-6.21c1.126,-2.551 2.43,-5.023 3.92,-7.371c0.926,-1.46 1.925,-2.876 3.047,-4.198c0.513,-0.604 1.053,-1.187 1.629,-1.73c1.9,-1.788 4.193,-3.159 6.675,-3.977c1.814,-0.599 3.721,-0.904 5.631,-0.908c0.014,0 0.027,0 0.041,0c2.674,0.003 5.317,0.598 7.716,1.737c2.939,1.396 5.488,3.613 7.287,6.33c1.018,1.538 1.793,3.228 2.296,5.001c0.809,2.854 0.901,5.902 0.264,8.804c-0.491,2.242 -1.415,4.383 -2.709,6.275c-0.783,1.145 -1.702,2.195 -2.721,3.135c-1.267,1.17 -2.661,2.205 -4.1,3.163c-2.067,1.377 -4.232,2.588 -6.466,3.665c-2.567,1.238 -5.229,2.301 -7.958,3.097c-1.47,0.429 -2.963,0.781 -4.477,1.013c-1.555,0.239 -3.131,0.356 -4.701,0.246c-0.938,-0.066 -1.876,-0.215 -2.775,-0.483l-5.064,5.065c0.584,0.825 0.96,1.8 1.072,2.812c0.134,1.208 -0.108,2.458 -0.689,3.528c-0.523,0.963 -1.314,1.777 -2.264,2.327c-1.164,0.676 -2.554,0.944 -3.905,0.741c-1.47,-0.221 -2.844,-1.007 -3.784,-2.178c-0.518,-0.644 -0.9,-1.397 -1.115,-2.201c0,0 -0.028,-0.008 -0.059,-0.016c-1.185,-0.33 -2.259,-1.032 -3.042,-1.992c-0.76,-0.931 -1.227,-2.098 -1.325,-3.294c-0.111,-1.352 0.245,-2.735 1.015,-3.866c0.769,-1.132 1.934,-1.987 3.247,-2.378c0.55,-0.163 1.122,-0.247 1.698,-0.249c0.009,0 0.018,0 0.027,0c1.235,0.002 2.463,0.396 3.468,1.108l5.064,-5.064Zm0.842,1.987l-5.14,5.14c-0.065,0.058 -0.079,0.075 -0.152,0.124c-0.039,0.026 -0.079,0.049 -0.122,0.069c-0.045,0.022 -0.093,0.041 -0.142,0.056c-0.267,0.081 -0.567,0.044 -0.806,-0.099l-0.001,-0.001l-0.001,-0.001l-0.003,-0.001l-0.003,-0.002l-0.001,-0.001l-0.005,-0.003l-0.003,-0.002l-0.002,-0.001l-0.006,-0.004l-0.002,-0.001l-0.002,-0.001l-0.001,-0.001l-0.003,-0.002l-0.006,-0.004l-0.001,-0.001l-0.001,0l0,0l0,0c-0.078,-0.053 -0.093,-0.067 -0.17,-0.143c-0.639,-0.63 -1.484,-1.034 -2.384,-1.129c-0.834,-0.089 -1.696,0.089 -2.426,0.511c-0.854,0.493 -1.516,1.315 -1.813,2.255c-0.319,1.013 -0.221,2.152 0.286,3.098c0.384,0.718 0.995,1.317 1.727,1.685c0.387,0.195 0.81,0.325 1.235,0.386l0.097,0.019c0.084,0.025 0.107,0.028 0.187,0.066c0.268,0.126 0.475,0.376 0.546,0.666c0.022,0.091 0.031,0.185 0.048,0.278c0.221,1.172 0.985,2.221 2.053,2.788c1.08,0.574 2.427,0.615 3.546,0.103c0.755,-0.346 1.394,-0.933 1.805,-1.652c0.41,-0.718 0.587,-1.565 0.505,-2.386c-0.091,-0.909 -0.504,-1.779 -1.151,-2.427l-0.066,-0.073c-0.052,-0.07 -0.068,-0.086 -0.109,-0.163c-0.049,-0.093 -0.083,-0.193 -0.101,-0.295c-0.011,-0.058 -0.017,-0.117 -0.017,-0.176c0,-0.056 0.005,-0.112 0.015,-0.168c0.007,-0.041 0.017,-0.083 0.029,-0.123c0.012,-0.04 0.026,-0.078 0.043,-0.116c0.037,-0.081 0.084,-0.158 0.14,-0.227c0.021,-0.026 0.044,-0.049 0.066,-0.073l5.14,-5.14c-0.155,-0.09 -0.308,-0.184 -0.458,-0.285c-0.961,-0.643 -1.768,-1.509 -2.352,-2.513l-0.018,-0.03Zm1.245,-2.044c0.177,0.476 0.401,0.934 0.682,1.36c0.49,0.741 1.154,1.355 1.928,1.796c0.868,0.493 1.844,0.777 2.834,0.93c1.504,0.233 3.044,0.178 4.558,-0.009c2.22,-0.274 4.401,-0.839 6.536,-1.553c2.602,-0.869 5.131,-1.966 7.573,-3.236c2.022,-1.051 3.984,-2.216 5.841,-3.545c1.592,-1.139 3.108,-2.387 4.343,-3.897c1.052,-1.286 1.904,-2.747 2.502,-4.276c0.993,-2.54 1.328,-5.338 0.943,-8.081c-0.382,-2.718 -1.466,-5.303 -3.116,-7.463c-1.456,-1.906 -3.339,-3.483 -5.49,-4.573c-1.954,-0.989 -4.116,-1.568 -6.299,-1.695c-0.316,-0.018 -0.634,-0.027 -0.948,-0.027c-2.71,0.003 -5.384,0.69 -7.744,1.999c-1.337,0.741 -2.567,1.679 -3.64,2.767c-1.056,1.071 -1.983,2.267 -2.848,3.502c-1.516,2.167 -2.831,4.474 -3.988,6.853c-1.077,2.214 -2.017,4.501 -2.763,6.846c-0.597,1.874 -1.075,3.79 -1.332,5.752c-0.212,1.62 -0.279,3.266 -0.009,4.874c0.095,0.564 0.233,1.122 0.43,1.656c0.002,0.007 0.005,0.014 0.007,0.02Zm21.92,-32.27c1.77,0.004 3.534,0.341 5.178,0.997c1.717,0.685 3.298,1.722 4.613,3.014c0.029,0.029 0.058,0.058 0.087,0.087l0.066,0.072c0.02,0.027 0.041,0.052 0.059,0.079c0.182,0.273 0.218,0.636 0.093,0.938c-0.113,0.272 -0.35,0.489 -0.634,0.575c-0.312,0.095 -0.669,0.026 -0.924,-0.183c-0.051,-0.042 -0.096,-0.089 -0.142,-0.135c-1.219,-1.199 -2.699,-2.138 -4.308,-2.723c-2.215,-0.804 -4.668,-0.938 -6.968,-0.378c-2.062,0.503 -3.978,1.561 -5.516,3.06c-0.032,0.032 -0.064,0.064 -0.096,0.096l-0.014,0.014l-0.073,0.066c-0.07,0.051 -0.086,0.067 -0.163,0.108c-0.345,0.185 -0.797,0.145 -1.106,-0.109c-0.202,-0.166 -0.335,-0.414 -0.36,-0.675c-0.026,-0.26 0.055,-0.529 0.222,-0.732c0.037,-0.046 0.08,-0.087 0.122,-0.129c1.421,-1.405 3.155,-2.51 5.042,-3.197c1.477,-0.537 3.044,-0.822 4.612,-0.843c0.07,-0.001 0.14,-0.002 0.21,-0.002Z"></path></svg>
