<svg xmlns="http://www.w3.org/2000/svg" version="1.1" x="0px" y="0px" viewBox="0 0 100 100" style="enable-background:new 0 0 100 100;" xml:space="preserve"><g><path d="M43.9091797,31.5058594c0.2958984,0.3632812,0.7275391,0.5507812,1.1621094,0.5507812   c0.3339844,0,0.6699219-0.1113281,0.9482422-0.3388672c0.6416016-0.5244141,0.7363281-1.46875,0.2119141-2.1103516   c-0.1494141-0.1835938-3.6269531-4.5419922,0.0244141-9.0927734c4.1787109-5.2080078,1.7744141-10.1884766-0.0800781-12.09375   c-0.5771484-0.59375-1.5283203-0.6054688-2.1210938-0.0292969c-0.59375,0.578125-0.6064453,1.5283203-0.0292969,2.1210938   c0.1435547,0.1474609,3.4726562,3.6611328-0.109375,8.125C39.7910156,23.7763672,42.1074219,29.3017578,43.9091797,31.5058594z"></path><path d="M54.6728516,33.5634766c0.2958984,0.3632812,0.7275391,0.5507812,1.1621094,0.5507812   c0.3339844,0,0.6699219-0.1103516,0.9482422-0.3388672c0.6416016-0.5234375,0.7363281-1.46875,0.2119141-2.1103516   c-0.0791016-0.0976562-1.9248047-2.4101562,0.0185547-4.8310547c2.8115234-3.5039062,1.1728516-6.8769531-0.0859375-8.1699219   c-0.5771484-0.5947266-1.5283203-0.6054688-2.1210938-0.0292969c-0.59375,0.578125-0.6064453,1.5283203-0.0292969,2.1210938   c0.0732422,0.0751953,1.7695312,1.8671875-0.1035156,4.2001953C51.9160156,28.3916016,53.4667969,32.0888672,54.6728516,33.5634766   z"></path><path d="M90.057373,52.2421265c0-0.0015869,0.0002441-0.0032349,0.0002441-0.0048218   c0.0009766-1.3225098-0.0050049-4.0390625-16.9423828-5.7874146l1.3457031-2.3327026   c0.3378906-0.5986328,0.9980469-0.9667969,1.8115234-1.0087891c2.0761719-0.1054688,3.8037109-1.4755859,4.4013672-3.4882812   c0.5195312-1.7421875-0.0146484-3.6591797-1.3613281-4.8847656c-1.1132812-1.0117188-2.5908203-1.4589844-4.0517578-1.2207031   c-0.1054688,0.0166016-0.2099609,0.0371094-0.3134766,0.0605469c-0.0332031-0.1005859-0.0693359-0.2011719-0.109375-0.2998047   c-0.5546875-1.3720703-1.7001953-2.4052734-3.1425781-2.8339844c-1.7451172-0.5214844-3.6601562,0.015625-4.8837891,1.3623047   c-1.4111328,1.5527344-1.6894531,3.7392578-0.7080078,5.5703125c0.3857422,0.71875,0.4130859,1.4746094,0.0771484,2.0712891   l-3.5258789,6.2318115c-0.0141602-0.0010986-0.0272217-0.0055542-0.0415039-0.0062256   c-4.0507812-0.1972656-8.2910156-0.3007812-12.6035156-0.3076172c-3.4089355-0.0057373-6.7727051,0.0531616-10.0351562,0.1688232   c-1.4172363-1.8026733-2.670166-3.1366577-3.484375-3.9442139c1.2285156-1.9951172,3.3789062-6.3984375,2.5791016-11.7900391   c-0.1142578-0.7744141-0.8164062-1.3457031-1.5859375-1.2763672c-0.2363281,0.015625-5.5234375,0.4423828-9.1933594,5.9042969   c-6.3867188-1.5644531-10.5839844,1.6816406-10.7695312,1.8291016c-0.6132812,0.4863281-0.75,1.3623047-0.3134766,2.0117188   c3.0419922,4.5244141,7.5986328,6.3291016,9.8496094,6.9765625c-0.015625,0.319519-0.0268555,0.7091675-0.034668,1.1297607   C9.9960938,48.0682373,9.9443359,50.7869263,9.9423828,52.1138306c0,0.0001221,0,0.0003052,0,0.0004272   c0,0.0002441,0,0.0027466,0,0.0030518c0,0.0015259,0,0.0032349,0,0.0047607c0,0.0004883,0,0.0009155,0,0.0014038   C9.9412842,52.571228,10.128418,82.0588989,36.8789062,89.3916016c0.1015625,0.0751953,0.2871094,0.2578125,0.4150391,0.3828125   c0.4560547,0.4462891,1.0224609,1.0019531,1.8095703,1.171875c3.3046875,0.7158203,6.9033203,1.0810547,10.6962891,1.0869141   c0.0273438,0,0.0546875,0,0.0830078,0c3.453125,0,6.7529297-0.2998047,9.8066406-0.890625   c0.7910156-0.1533203,1.3457031-0.7021484,1.7910156-1.1435547c0.1103516-0.1083984,0.2675781-0.2646484,0.3613281-0.3398438   C79.1779785,85.3701782,85.8647461,71.916748,88.442627,62.3737183c0.2202148-0.3896484,0.2999268-0.7807617,0.3005371-1.1686401   c0-0.0018921-0.0004883-0.0036011-0.0004883-0.0054932c1.2484131-5.1116333,1.314209-8.8484497,1.3149414-8.9544678   C90.0576172,52.2440796,90.057373,52.2431641,90.057373,52.2421265z M85.9179688,60.5319824   c-0.0614014,0.1210327-0.1196289,0.244812-0.1464844,0.3820801c-1.6972656,1.6191406-14.9716797,3.8710938-35.3808594,3.8710938   c-0.1318359,0-0.2646484,0-0.3964844,0c-20.6318359-0.0302734-34.0615234-2.3408203-35.7646484-3.9746094   c-0.0455322-0.2369995-0.1618652-0.4411011-0.3048096-0.6242065c-0.4094238-1.8771362-0.6499023-3.5435791-0.7884521-4.8700562   c1.8779297,0.7303467,4.8056641,1.4307251,9.387207,2.069458c7.3466797,1.0234375,17.1015625,1.5957031,27.4667969,1.6103516   c0.1367188,0,0.2734375,0,0.4101562,0c10.2128906,0,19.8095703-0.5419922,27.0605469-1.53125   c4.5571289-0.6217651,7.4787598-1.3093262,9.3604736-2.0297852C86.6589355,56.8170776,86.3828125,58.5645752,85.9179688,60.5319824   z M27.6779785,54.9667969c-0.5437012-0.0549927-1.0725098-0.1117554-1.5892334-0.1697388   c0.5032959-0.0605469,1.0130615-0.1196899,1.5303955-0.1773071C27.637207,54.7338257,27.6589355,54.8515015,27.6779785,54.9667969z    M45.0541992,53.4627686c1.6081543-0.0358276,3.2161865-0.0580444,4.7944336-0.0623779   c1.986084,0.0031128,5.5598145,0.1342773,8.2988281,0.2434692l-1.2878418,2.2761841   c-2.0664062,0.048645-4.2163086,0.0760498-6.4543457,0.0760498c-0.1367188,0-0.2734375,0-0.4111328,0   c-1.2784424-0.0018311-2.5297852-0.012207-3.7536621-0.0302734C45.859375,55.0983887,45.4633789,54.2625732,45.0541992,53.4627686z    M68.5491943,54.3654785c1.791626,0.1657104,3.4588623,0.34375,5.026001,0.5354614   c-1.7285156,0.1848145-3.6069336,0.3531494-5.6230469,0.4997559L68.5491943,54.3654785z M71.5810547,49.3105469   c9.5107422,0.9101562,13.7617188,2.1699219,15.1201172,2.9326172c-0.6547852,0.3825684-1.8825684,0.7890625-3.621582,1.1881104   c-3.6195068-0.7946777-7.7607422-1.4137573-12.8826904-1.9221191l1.2801514-2.2192383   C71.512207,49.2957764,71.545166,49.3071289,71.5810547,49.3105469z M68.7929688,40.9199219   c0.8398438-1.4902344,0.8222656-3.3466797-0.0449219-4.9638672c-0.2841797-0.5283203-0.3798828-1.4052734,0.2832031-2.1347656   c0.4472656-0.4902344,1.1748047-0.6923828,1.8085938-0.5048828c0.5703125,0.1699219,1.0029297,0.5546875,1.2167969,1.0830078   c0.1269531,0.3164062,0.1640625,0.6533203,0.1113281,0.9785156c-0.1259766,0.1689453-0.2421875,0.3466797-0.3476562,0.5322266   c-0.4052734,0.7197266-0.1533203,1.6318359,0.5644531,2.0410156l0.1337891,0.0761719   c0.3476562,0.1972656,0.7568359,0.25,1.1425781,0.1416016c0.3837891-0.1054688,0.7099609-0.3613281,0.90625-0.7080078   c0.1054688-0.1875,0.1972656-0.3789062,0.2763672-0.5742188c0.2509766-0.2128906,0.5585938-0.3564453,0.8945312-0.4111328   c0.5634766-0.0888672,1.1152344,0.0800781,1.5556641,0.4794922c0.4912109,0.4472656,0.6943359,1.1738281,0.5048828,1.8105469   c-0.28125,0.9453125-1.0800781,1.3164062-1.6806641,1.3466797c-1.8339844,0.0957031-3.4306641,1.0410156-4.2636719,2.5185547   L64.355957,55.630249c-1.2828369,0.0705566-2.6147461,0.1315308-3.9892578,0.1831665L68.7929688,40.9199219z    M50.0058594,48.3632812c3.7490234,0.0059814,7.4346924,0.090332,10.9925537,0.2415771l-1.1904297,2.1040039   c-2.7867432-0.1148682-7.5097656-0.3047485-9.9554443-0.3084717c-2.1102295,0.0009766-4.2919922,0.0321045-6.4484863,0.1000977   c-0.4287109-0.7103271-0.859375-1.3845215-1.2883301-2.022583C44.7016602,48.4088135,47.3256836,48.366333,50.0058594,48.3632812z    M20.6767578,37.8710938c1.5117188-0.6806641,4.2587891-1.4248047,7.8300781-0.2675781   c0.6738281,0.2207031,1.4121094-0.0664062,1.7646484-0.6835938c1.859375-3.2597656,4.3916016-4.5625,5.9658203-5.0771484   c0.1123047,5.1445312-2.8486328,8.9873047-2.8789062,9.0263672c-0.4990234,0.6289062-0.4150391,1.5390625,0.1914062,2.0654297   c0.0583496,0.0501099,5.4520264,4.7955322,9.3616943,12.9609985c-4.4870605-0.1222534-8.5494385-0.3500366-12.1390381-0.6462402   c-1.1485596-6.2894897-0.6413574-10.9465332-0.6357422-10.9944458c0.0908203-0.7958984-0.4589844-1.5253906-1.25-1.6533203   C28.8339844,42.5927734,24.0742188,41.7783203,20.6767578,37.8710938z M27.074707,49.3825073   c0.0349121,0.7023315,0.0893555,1.4555054,0.1673584,2.2603149c-3.9361572,0.4401245-7.5089111,0.9677124-10.3856201,1.5388184   c-0.0906982,0.0180664-0.1763916,0.0465698-0.2595215,0.0794678c-1.5704346-0.3798828-2.6845703-0.7634277-3.2980957-1.1243896   C14.5915527,51.4174805,18.5119629,50.2540894,27.074707,49.3825073z M61.0136719,86.7734375   c-0.7158203,0.1748047-1.2304688,0.6845703-1.6435547,1.09375c-0.1142578,0.1132812-0.2783203,0.2753906-0.3779297,0.3544922   c-2.8310547,0.5390625-5.8945312,0.8115234-9.109375,0.8115234c-0.0253906,0-0.0527344,0-0.0791016,0   c-3.5439453-0.0058594-6.8974609-0.3408203-9.9707031-0.9980469c-0.109375-0.0800781-0.3046875-0.2714844-0.4394531-0.4033203   c-0.4404297-0.4316406-0.9384766-0.9199219-1.640625-1.1113281c-13.8339844-3.7602539-19.954834-13.7728271-22.6630859-22.0367432   c1.8266602,0.6150513,4.4832764,1.2037354,8.3632812,1.744751c7.0986328,0.9892578,16.5224609,1.5419922,26.5371094,1.5566406   c0.1328125,0,0.2646484,0,0.3964844,0c9.8662109,0,19.1386719-0.5244141,26.1455078-1.4804688   c3.7719727-0.5144043,6.3828125-1.0775757,8.2060547-1.668396C81.8647461,73.0530396,75.4304199,83.2511597,61.0136719,86.7734375z   "></path></g></svg>
