<svg xmlns="http://www.w3.org/2000/svg" viewBox="0 0 32 32.000001" version="1.1" x="0px" y="0px"><g transform="translate(0,-1020.3622)"><path d="m 12,1028.3613 c -0.683855,0 -1.25,0.5662 -1.25,1.25 l 0,0.5 c 0,0.4709 0.291229,0.9453 0.712891,1.1465 -0.08716,0.4844 -0.592405,0.9576 -1.230469,1.3301 C 9.1937849,1033.1941 8.5,1034.3237 8.5,1035.6113 l 0,11 c 0,0.6284 0.1649741,1.2219 0.4550781,1.7325 0.1593451,0.2804 0.2548947,0.8118 0.1933594,0.996 l -0.3730469,1.1133 c -0.1079796,0.3239 0.1331919,0.6584 0.4746094,0.6582 l 13.5,0 c 0.341417,2e-4 0.582589,-0.3343 0.474609,-0.6582 l -0.298828,-0.8926 c -0.100787,-0.3018 0.0354,-1.0167 0.242188,-1.457 0.212632,-0.4527 0.332031,-0.96 0.332031,-1.4922 l 0,-11 c 0,-1.4337 -0.860953,-2.67 -2.099609,-3.209 -0.505837,-0.22 -0.887329,-0.6266 -0.900391,-1.0253 l -0.0039,-0.1192 c 0.470626,-0.1848 0.7539,-0.6568 0.7539,-1.1465 l 0,-0.5 c 0,-0.6838 -0.566145,-1.25 -1.25,-1.25 z m 0,1 8,0 c 0.147163,0 0.25,0.1029 0.25,0.25 l 0,0.5 c 0,0.1472 -0.102837,0.25 -0.25,0.25 -0.276131,0 -0.499972,0.2239 -0.5,0.5 l 0,0.5157 c 0,0.9656 0.76534,1.6209 1.501953,1.9414 0.882733,0.384 1.498047,1.2578 1.498047,2.2929 l 0,11 c 0,0.3843 -0.08475,0.7457 -0.236328,1.0684 -0.27758,0.5909 -0.54899,1.4131 -0.28711,2.1973 l 0.07813,0.2343 -12.1093755,0 0.1503905,-0.4531 c 0.220139,-0.6591 0.0072,-1.3182 -0.2714842,-1.8086 C 9.6173251,1047.4855 9.5,1047.065 9.5,1046.6113 l 0,-11 c 0,-0.9296 0.4955257,-1.7277 1.236328,-2.1601 0.815393,-0.476 1.763672,-1.2576 1.763672,-2.4258 l 0,-0.1641 c -2.8e-5,-0.2761 -0.223869,-0.5 -0.5,-0.5 -0.147163,0 -0.25,-0.1028 -0.25,-0.25 l 0,-0.5 c 0,-0.1471 0.102837,-0.25 0.25,-0.25 z" style="color:#000000;font-style:normal;font-variant:normal;font-weight:normal;font-stretch:normal;font-size:medium;line-height:normal;font-family:sans-serif;text-indent:0;text-align:start;text-decoration:none;text-decoration-line:none;text-decoration-style:solid;text-decoration-color:#000000;letter-spacing:normal;word-spacing:normal;text-transform:none;direction:ltr;block-progression:tb;writing-mode:lr-tb;baseline-shift:baseline;text-anchor:start;white-space:normal;clip-rule:nonzero;display:inline;overflow:visible;visibility:visible;opacity:1;isolation:auto;mix-blend-mode:normal;color-interpolation:sRGB;color-interpolation-filters:linearRGB;solid-color:#000000;solid-opacity:1;fill:#000000;fill-opacity:1;fill-rule:evenodd;stroke:none;stroke-width:1px;stroke-linecap:round;stroke-linejoin:round;stroke-miterlimit:4;stroke-dasharray:none;stroke-dashoffset:0;stroke-opacity:1;color-rendering:auto;image-rendering:auto;shape-rendering:auto;text-rendering:auto;enable-background:accumulate"></path><path style="color:#000000;font-style:normal;font-variant:normal;font-weight:normal;font-stretch:normal;font-size:medium;line-height:normal;font-family:sans-serif;text-indent:0;text-align:start;text-decoration:none;text-decoration-line:none;text-decoration-style:solid;text-decoration-color:#000000;letter-spacing:normal;word-spacing:normal;text-transform:none;direction:ltr;block-progression:tb;writing-mode:lr-tb;baseline-shift:baseline;text-anchor:start;white-space:normal;clip-rule:nonzero;display:inline;overflow:visible;visibility:visible;opacity:1;isolation:auto;mix-blend-mode:normal;color-interpolation:sRGB;color-interpolation-filters:linearRGB;solid-color:#000000;solid-opacity:1;fill:#000000;fill-opacity:1;fill-rule:nonzero;stroke:none;stroke-width:1;stroke-linecap:butt;stroke-linejoin:round;stroke-miterlimit:4;stroke-dasharray:none;stroke-dashoffset:0;stroke-opacity:1;color-rendering:auto;image-rendering:auto;shape-rendering:auto;text-rendering:auto;enable-background:accumulate" d="m 12.25,1021.6113 c -0.545352,0 -1,0.4547 -1,1 l 0,1.25 c 0,0.5454 0.454648,1 1,1 l 7.5,0 c 0.545352,0 1,-0.4546 1,-1 l 0,-1.25 c 0,-0.5453 -0.454648,-1 -1,-1 l -7.5,0 z m 0,1 7.5,0 0,1.25 -7.5,0 0,-1.25 z"></path><path style="color:#000000;font-style:normal;font-variant:normal;font-weight:normal;font-stretch:normal;font-size:medium;line-height:normal;font-family:sans-serif;text-indent:0;text-align:start;text-decoration:none;text-decoration-line:none;text-decoration-style:solid;text-decoration-color:#000000;letter-spacing:normal;word-spacing:normal;text-transform:none;direction:ltr;block-progression:tb;writing-mode:lr-tb;baseline-shift:baseline;text-anchor:start;white-space:normal;clip-rule:nonzero;display:inline;overflow:visible;visibility:visible;opacity:1;isolation:auto;mix-blend-mode:normal;color-interpolation:sRGB;color-interpolation-filters:linearRGB;solid-color:#000000;solid-opacity:1;fill:#000000;fill-opacity:1;fill-rule:evenodd;stroke:none;stroke-width:1px;stroke-linecap:butt;stroke-linejoin:miter;stroke-miterlimit:4;stroke-dasharray:none;stroke-dashoffset:0;stroke-opacity:1;color-rendering:auto;image-rendering:auto;shape-rendering:auto;text-rendering:auto;enable-background:accumulate" d="m 11.527344,1022.6641 -0.72461,0.3632 c -0.618265,0.3092 -1.082308,0.8609 -1.279296,1.5235 l -2.03711,6.8515 c -0.338547,1.1388 -0.07587,2.3734 0.697266,3.2754 l 0.4375,0.5098 0.757812,-0.6504 -0.435547,-0.5098 c -0.552943,-0.6451 -0.740174,-1.5254 -0.498046,-2.3398 l 2.037109,-6.8516 c 0.1183,-0.3979 0.396282,-0.7284 0.767578,-0.914 l 0.722656,-0.3633 -0.445312,-0.8945 z"></path><path style="color:#000000;font-style:normal;font-variant:normal;font-weight:normal;font-stretch:normal;font-size:medium;line-height:normal;font-family:sans-serif;text-indent:0;text-align:start;text-decoration:none;text-decoration-line:none;text-decoration-style:solid;text-decoration-color:#000000;letter-spacing:normal;word-spacing:normal;text-transform:none;direction:ltr;block-progression:tb;writing-mode:lr-tb;baseline-shift:baseline;text-anchor:start;white-space:normal;clip-rule:nonzero;display:inline;overflow:visible;visibility:visible;opacity:1;isolation:auto;mix-blend-mode:normal;color-interpolation:sRGB;color-interpolation-filters:linearRGB;solid-color:#000000;solid-opacity:1;fill:#000000;fill-opacity:1;fill-rule:evenodd;stroke:none;stroke-width:1px;stroke-linecap:butt;stroke-linejoin:miter;stroke-miterlimit:4;stroke-dasharray:none;stroke-dashoffset:0;stroke-opacity:1;color-rendering:auto;image-rendering:auto;shape-rendering:auto;text-rendering:auto;enable-background:accumulate" d="m 20.472656,1022.6641 0.72461,0.3632 c 0.618265,0.3092 1.082308,0.8609 1.279296,1.5235 l 2.03711,6.8515 c 0.338547,1.1388 0.07587,2.3734 -0.697266,3.2754 l -0.4375,0.5098 -0.757812,-0.6504 0.435547,-0.5098 c 0.552943,-0.6451 0.740174,-1.5254 0.498046,-2.3398 l -2.037109,-6.8516 c -0.1183,-0.3979 -0.396282,-0.7284 -0.767578,-0.914 l -0.722656,-0.3633 0.445312,-0.8945 z"></path><path d="m 16,1026.3613 c -1.236718,0 -2.25,1.0133 -2.25,2.25 l 1,0 c 0,-0.6963 0.553722,-1.25 1.25,-1.25 0.696278,0 1.25,0.5537 1.25,1.25 l 1,0 c 0,-1.2367 -1.013282,-2.25 -2.25,-2.25 z" style="color:#000000;font-style:normal;font-variant:normal;font-weight:normal;font-stretch:normal;font-size:medium;line-height:normal;font-family:sans-serif;text-indent:0;text-align:start;text-decoration:none;text-decoration-line:none;text-decoration-style:solid;text-decoration-color:#000000;letter-spacing:normal;word-spacing:normal;text-transform:none;direction:ltr;block-progression:tb;writing-mode:lr-tb;baseline-shift:baseline;text-anchor:start;white-space:normal;clip-rule:nonzero;display:inline;overflow:visible;visibility:visible;opacity:1;isolation:auto;mix-blend-mode:normal;color-interpolation:sRGB;color-interpolation-filters:linearRGB;solid-color:#000000;solid-opacity:1;fill:#000000;fill-opacity:1;fill-rule:nonzero;stroke:none;stroke-width:1;stroke-linecap:butt;stroke-linejoin:round;stroke-miterlimit:4;stroke-dasharray:none;stroke-dashoffset:0;stroke-opacity:1;color-rendering:auto;image-rendering:auto;shape-rendering:auto;text-rendering:auto;enable-background:accumulate"></path></g></svg>
