<svg xmlns="http://www.w3.org/2000/svg" version="1.1" x="0px" y="0px" viewBox="0 0 100 100"><g transform="translate(0,-952.36218)"><path d="m 49.71692,958.17828 c 18.105484,0.3633 35.510279,8.71906 44.1563,31.4375 0.46088,1.77077 0.46779,3.42177 -0.2813,4.81248 -0.74902,1.39072 -2.19242,2.16571 -3.59369,2.43752 -2.79121,0.54134 -5.971716,-0.28067 -9.312523,-1.5625 -0.014,-0.005 -0.01701,-0.0259 -0.031,-0.0312 -10.770094,-3.87556 -17.365677,-6.50586 -23.625,-7.53126 -1.9862,18.54888 -1.004881,35.24508 3.406217,52.93748 0.09801,0.4965 0.100984,0.8178 0.094,1.2188 -0.10102,0.8298 -0.498898,1.5958 -0.999992,2.125 -0.643713,0.6796 -1.375831,1.1142 -2.187603,1.4375 -1.623401,0.6466 -3.553299,0.9129 -5.500027,0.9375 -1.946587,0.025 -3.894768,-0.1917 -5.593677,-0.8125 -0.849402,-0.3104 -1.654724,-0.7332 -2.34372,-1.375 -0.571678,-0.5325 -1.027772,-1.2962 -1.218792,-2.1563 -3.692799,-9.0393 -4.82648,-12.6721 -6.031204,-20.5937 -1.53078,-0.5293 -2.918906,-0.9732 -4.124977,-1.25 -0.714401,7.849 -0.221208,14.928 1.656178,22.5 0.117815,0.4792 0.031,0.7884 -0.06201,1.1875 -0.129189,0.4893 -0.345402,0.9517 -0.624969,1.25 -0.453012,0.4833 -0.942023,0.7208 -1.406303,0.9063 -0.928417,0.3709 -1.889114,0.4877 -2.875004,0.4999 -0.985819,0.012 -1.948819,-0.087 -2.90622,-0.4374 -0.478701,-0.1752 -0.973382,-0.4106 -1.437484,-0.8438 -0.4483,-0.4844 -0.617315,-0.932 -0.843697,-1.4062 -3.344915,-8.1991 -4.109207,-15.4152 -1.437589,-23.125 -2.004732,0.5086 -4.366134,1.2351 -7.343716,2.2187 -1.360807,0.4733 -2.944807,0.7959 -4.531287,0.6563 -0.7997252,-0.07 -1.6792092,-0.2099 -2.5000162,-0.9688 -0.818114,-0.7565 -1.103492,-2.2176 -0.81241,-3.25 2.6627962,-9.4876 11.2653072,-14.7421 20.0312012,-14.9688 0.274004,-0.01 0.537909,0 0.812515,0 2.61939,0.027 5.273008,0.5003 7.78128,1.4375 0.09503,-6.72513 1.635626,-11.8985 4.562433,-17.31246 -5.292,1.12213 -11.73522,3.00529 -20.312433,5.84376 -2.73848,0.94468 -6.1245,1.62737 -9.062574,1.37498 -1.4734142,-0.12656 -2.9222012,-0.45251 -4.0937252,-1.53124 -1.169291,-1.07663 -1.603098,-2.99593 -1.125,-4.68751 l 0.031,0 c 5.5671022,-19.91004 23.5086022,-30.89666 41.9687002,-31.37501 0.577028,-0.0149 1.140697,-0.006 1.718717,0 z m -0.031,3.99997 c -0.53061,-0.005 -1.063701,-0.0137 -1.593815,0 -16.960574,0.43951 -33.150475,10.32633 -38.2186802,28.46877 -0.20909,0.73404 -0.139323,0.55673 -0.031,0.65626 0.108213,0.0995 0.7219842,0.41435 1.7187872,0.5 1.993607,0.17124 5.129611,-0.39962 7.406221,-1.18751 0.01,0 0.02098,0 0.031,0 28.32229,-10.37027 36.473491,-10.47699 63.062467,0.93749 0.01003,0 0.02101,0 0.031,0 3.007417,1.15682 5.88791,1.62099 7.15631,1.37502 0.63421,-0.12303 0.72159,-0.23751 0.81251,-0.40628 0.089,-0.16437 0.2165,-0.68513 -0.062,-1.81247 -7.32159,-19.3848 -23.893495,-28.38579 -40.312506,-28.53128 z m -3.968791,25.46876 c -4.167709,6.73788 -5.93922,11.80999 -5.687398,20.18749 4.886681,3.2888 7.854201,7.2561 9.249981,11.5938 0.255011,0.9625 0.296114,2.0332 -0.2188,3 -0.514878,0.9667 -1.526385,1.4885 -2.375007,1.6562 -1.675595,0.3312 -3.208004,-0.1167 -4.812485,-0.7499 -0.341397,-0.1225 -0.583405,-0.2273 -0.906307,-0.3438 1.030111,6.192 2.08552,9.402 5.312587,17.3125 0.125433,0.3507 0.278114,0.7553 0.343701,0.9688 0.134007,0.1247 0.493901,0.3462 1.000027,0.5312 1.012287,0.3699 2.621374,0.6136 4.18748,0.5938 1.566107,-0.02 3.11152,-0.29 4.031221,-0.6563 0.318295,-0.1267 0.526996,-0.2827 0.656291,-0.375 -4.459004,-18.019 -5.44989,-35.1928 -3.437504,-54.03127 -2.476382,-0.14755 -5.206393,0.0401 -7.343787,0.31248 z m -17.500004,20.78129 c -0.227196,0 -0.460311,-0.01 -0.687401,0 -6.995197,0.1808 -13.616291,4.0467 -16.031303,11.2187 20.130484,-6.1914 18.801602,-4.5718 33.749999,0.4688 -3.241417,-8.012 -10.138499,-11.6307 -17.031295,-11.6875 z m 0.343808,11.3437 c -0.434304,0.01 -0.871725,0.047 -1.3438,0.094 -2.872523,9.8273 -2.368027,13.8722 0.531284,22.5313 0.298984,0.091 0.880689,0.1632 1.437484,0.1562 0.307311,0 0.585602,-0.019 0.843803,-0.062 -1.748374,-7.5732 -2.188594,-14.8583 -1.468771,-22.7187 z"></path></g></svg>
