<svg height='100px' width='100px' xmlns="http://www.w3.org/2000/svg" version="1.1" x="0px" y="0px" viewBox="0 0 100 100" style="enable-background:new 0 0 100 100;" xml:space="preserve"><path d="M90.4331055,34.7807617L76.3129883,20.6606445c-0.390625-0.390625-1.0234375-0.390625-1.4140625,0l-2.3535156,2.3535156  c-0.2680664,0.2675781-0.3613281,0.6640625-0.2416992,1.0234375l2.1582031,6.4736328L54.328125,50.6450195V21.7744141  l6.1035156-3.0517578c0.3388672-0.1694336,0.5527344-0.515625,0.5527344-0.8945312V14.5c0-0.5522461-0.4477539-1-1-1h-19.96875  c-0.5522461,0-1,0.4477539-1,1v3.328125c0,0.3789062,0.2138672,0.7250977,0.5527344,0.8945312l6.1035156,3.0517578v28.8706055  L25.5380859,30.5112305l2.1582031-6.4736328c0.1196289-0.359375,0.0263672-0.7558594-0.2416992-1.0234375l-2.3535156-2.3535156  c-0.390625-0.390625-1.0234375-0.390625-1.4140625,0L9.5668945,34.7807617c-0.390625,0.390625-0.390625,1.0234375,0,1.4140625  l2.3535156,2.3535156c0.2670898,0.2685547,0.6630859,0.3608398,1.0234375,0.2416992l6.4736328-2.1582031L43.8793945,61.09375  l-9.7714844,9.7714844c-0.1098633,0.1098633-0.1923828,0.2436523-0.2416992,0.390625l-2.3535156,7.0600586  c-0.1196289,0.359375-0.0263672,0.7558594,0.2416992,1.0234375c0.1904297,0.190918,0.4462891,0.2929688,0.7070312,0.2929688  c0.105957,0,0.2124023-0.0166016,0.3164062-0.0512695l7.0600586-2.3535156  c0.1469727-0.0493164,0.2807617-0.1318359,0.390625-0.2416992l5.4433594-5.4433594V78.84375  c0,0.1552734,0.0361328,0.3085938,0.1054688,0.4472656l3.328125,6.65625C49.2749023,86.2861328,49.6210938,86.5,50,86.5  s0.7250977-0.2138672,0.8945312-0.5527344l3.328125-6.65625c0.0693359-0.1386719,0.1054688-0.2919922,0.1054688-0.4472656  v-7.3012695l5.4433594,5.4433594c0.1098633,0.1098633,0.2436523,0.1923828,0.390625,0.2416992l7.0600586,2.3535156  c0.1040039,0.034668,0.2104492,0.0512695,0.3164062,0.0512695c0.2607422,0,0.5166016-0.1025391,0.7070312-0.2929688  c0.2680664-0.2675781,0.3613281-0.6640625,0.2416992-1.0234375l-2.3535156-7.0600586  c-0.0493164-0.1469727-0.1318359-0.2807617-0.2416992-0.390625L56.1206055,61.09375l24.4619141-24.4619141l6.4736328,2.1582031  c0.3598633,0.1196289,0.7553711,0.0263672,1.0234375-0.2416992l2.3535156-2.3535156  C90.8237305,35.8041992,90.8237305,35.1713867,90.4331055,34.7807617z M41.015625,17.2099609V15.5h17.96875v1.7099609  l-6.1035156,3.0517578c-0.3388672,0.1694336-0.5527344,0.515625-0.5527344,0.8945312v31.4887695l-4.65625,4.65625V21.15625  c0-0.3789062-0.2138672-0.7250977-0.5527344-0.8945312L41.015625,17.2099609z M20.3945312,34.7807617  c-0.2685547-0.2685547-0.6650391-0.3618164-1.0234375-0.2416992l-6.4736328,2.1582031l-1.2094727-1.2094727L24.394043,22.7817383  l1.2094727,1.2094727l-2.1582031,6.4736328c-0.1196289,0.359375-0.0263672,0.7558594,0.2416992,1.0234375L45.671875,53.4731445  v5.828125l-0.378418,0.378418L20.3945312,34.7807617z M52.328125,78.6079102L50,83.2641602l-2.328125-4.65625v-9.0654297  l4.65625-4.65625V78.6079102z M64.3110352,72.1123047l1.6464844,4.9389648l-4.9389648-1.6464844l-6.6904297-6.6904297v-5.828125  l0.378418-0.378418L64.3110352,72.1123047z M87.1025391,36.6972656l-6.4736328-2.1582031  c-0.359375-0.1191406-0.7558594-0.0263672-1.0234375,0.2416992L52.6213989,61.7648315  c-0.0001831,0.0001831-0.0004272,0.0004272-0.0006104,0.0006104l-6.6556396,6.6556396  c-0.0001831,0.0001831-0.0004272,0.0004272-0.0006104,0.0006104l-6.9830933,6.9830933l-4.9389648,1.6464844l1.6464844-4.9389648  l11.6896362-11.6896362c0.0001831-0.0001831,0.0004272-0.0004272,0.0006104-0.0006104l6.6556396-6.6556396  c0.0001831-0.0001831,0.0004272-0.0004272,0.0006104-0.0006104l22.2775269-22.2775269  c0.2680664-0.2675781,0.3613281-0.6640625,0.2416992-1.0234375l-2.1582031-6.4736328l1.2094727-1.2094727L88.3120117,35.487793  L87.1025391,36.6972656z"></path></svg>
