<svg height='100px' width='100px'  fill="#000000" xmlns="http://www.w3.org/2000/svg" version="1.1" x="0px" y="0px" viewBox="0 0 64 64" enable-background="new 0 0 64 64" xml:space="preserve"><path d="M62,29c0-1.793-0.684-2.923-1.436-3.617c0.988-2.15,1.43-4.069,1.43-5.379c0-3.955-3.271-5-5-5H7.002c-1.729,0-5,1.045-5,5  c0,1.313,0.443,3.236,1.435,5.391C2.676,26.097,2,27.217,2,29c0,1.842,0.842,18,30.02,18c0.337,0,0.653-0.01,0.98-0.015V48  c0,1.206,0.799,3,3,3s3-1.794,3-3v-1.36c0.796-0.082,1.567-0.179,2.314-0.293C41.72,47.222,42.552,48,44,48  c2.138,0,2.946-1.688,2.991-2.891C61.256,40.872,62,30.971,62,29z M7.002,17.003h49.986c0.502,0.006,3.006,0.177,3.006,3  c0,2.953-5.162,19.002-27.994,19.002c-22.835,0-27.998-16.049-27.998-19.002C4.002,17.181,6.505,17.009,7.002,17.003z M32.02,45  C4.786,45,4,30.638,4,29c0-0.689,0.157-1.237,0.44-1.683C8.157,33.668,16.5,41.006,32,41.006c0.34,0,0.666-0.015,1-0.022v4.001  C32.673,44.99,32.357,45,32.02,45z M37,47.988C36.988,48.45,36.806,49,36,49s-0.988-0.55-1-1v-7.1  c1.089-0.071,2.145-0.172,3.157-0.315C37.337,41.213,37,42.225,37,43V47.988z M39,43.012C39.012,42.55,39.194,42,40,42  s0.988,0.55,1,1v1.372c-0.646,0.099-1.313,0.184-2,0.258V43.012z M44,46c-0.806,0-0.988-0.55-1-1v-2  c0-1.039-0.599-2.507-2.169-2.896c1.478-0.318,2.869-0.709,4.169-1.168v6.053C44.988,45.45,44.806,46,44,46z M47,43.022v-4.874  c6.291-2.72,10.29-6.958,12.558-10.834C59.842,27.763,60,28.312,60,29C60,30.694,59.355,39.105,47,43.022z M39.5,20  c0-0.828,0.672-1.5,1.5-1.5c0.828,0,1.5,0.672,1.5,1.5s-0.672,1.5-1.5,1.5C40.172,21.5,39.5,20.828,39.5,20z M44.503,23.002  c0-0.828,0.672-1.5,1.5-1.5s1.5,0.672,1.5,1.5s-0.672,1.5-1.5,1.5S44.503,23.83,44.503,23.002z M48.505,20  c0-0.828,0.672-1.5,1.5-1.5s1.5,0.672,1.5,1.5s-0.672,1.5-1.5,1.5S48.505,20.828,48.505,20z M52.007,24.504  c0.828,0,1.5,0.672,1.5,1.5s-0.672,1.5-1.5,1.5s-1.5-0.672-1.5-1.5S51.178,24.504,52.007,24.504z M53.508,21.001  c0-0.828,0.672-1.5,1.5-1.5s1.5,0.672,1.5,1.5s-0.672,1.5-1.5,1.5S53.508,21.829,53.508,21.001z"></path></svg>
