<svg height='100px' width='100px' xmlns="http://www.w3.org/2000/svg" version="1.1" x="0px" y="0px" viewBox="0 0 64 64"><g transform="translate(3 3) scale(0.9)"><path d="M63,7V6c0-2.757-2.243-5-5-5s-5,2.243-5,5v1h2v2h-2v2h-4.414L47,12.586L45.414,11H31.382L30,13.764L28.618,11h-8.032   L19,12.586L17.414,11H11V9H9V7h2V6c0-2.757-2.243-5-5-5S1,3.243,1,6v1h2v2H1v46h2v2H1v1c0,2.757,2.243,5,5,5s5-2.243,5-5v-1H9v-2h2   v-2h4.414L17,51.414L18.586,53h19.032L39,50.236L40.382,53h3.032L45,51.414L46.586,53H53v2h2v2h-2v1c0,2.757,2.243,5,5,5   s5-2.243,5-5v-1h-2v-2h2V9h-2V7H63z M58,3c1.304,0,2.416,0.836,2.829,2h-5.657C55.584,3.836,56.696,3,58,3z M6,3   c1.304,0,2.416,0.836,2.829,2H3.171C3.584,3.836,4.696,3,6,3z M5,7h2v2H5V7z M6,61c-1.304,0-2.416-0.836-2.829-2h5.657   C8.416,60.164,7.304,61,6,61z M7,57H5v-2h2V57z M9,53H3V11h6V53z M47.414,51L45,48.586L42.586,51h-0.968L39,45.764L36.382,51   H19.414L17,48.586L14.586,51H11V13h5.586L19,15.414L21.414,13h5.968L30,18.236L32.618,13h11.968L47,15.414L49.414,13H53v38H47.414z    M58,61c-1.304,0-2.416-0.836-2.829-2h5.657C60.416,60.164,59.304,61,58,61z M59,57h-2v-2h2V57z M61,53h-6V11h6V53z M59,9h-2V7h2V9   z"></path><rect x="13" y="21" width="38" height="2"></rect><rect x="13" y="25" width="38" height="2"></rect><rect x="49" y="41" width="2" height="2"></rect><rect x="13" y="41" width="34" height="2"></rect><rect x="17" y="29" width="13" height="2"></rect><rect x="13" y="29" width="2" height="2"></rect><rect x="13" y="33" width="17" height="2"></rect><rect x="13" y="37" width="17" height="2"></rect><rect x="34" y="29" width="17" height="2"></rect><rect x="34" y="33" width="17" height="2"></rect><rect x="34" y="37" width="17" height="2"></rect></g></svg>
