<svg height='100px' width='100px'  fill="#000000" xmlns="http://www.w3.org/2000/svg" version="1.1" x="0px" y="0px" viewBox="0 0 100 100" style="enable-background:new 0 0 100 100;" xml:space="preserve"><g><path d="M90.8,63.4c-1.3-1.3-2.7-1.8-4.4-1.6C83,53.6,69,48.7,49.1,48.7c-19.8,0-33.7,4.8-37.3,12.9c-1.5-0.2-3,0.3-4.4,1.7   c-0.9,0.9-1.2,2.2-0.8,3.9c0.8,3.5,3.5,6.3,7,7.1l5.9,11.6c0.9,2.2,2.9,3.6,5.2,3.7h42.6h6.3c2.3-0.1,4.4-1.5,5.2-3.7l5.9-11.7   c3.5-0.9,6.2-3.7,7-7.2C92,65.6,91.7,64.3,90.8,63.4z M49.2,51.2c18.5,0,31.9,4.4,35,11.5c-0.7,0.4-1.4,0.8-2.1,1.2L81.8,64   c-1.7,1-3.5,2.1-5.4,2.1c-4.6,0-6.6-0.9-8.2-1.7l-0.1,0c-1.4-0.6-2.9-1.3-5.3-1.3c-3.6,0-5.5,0.8-7.1,1.6c-1.5,0.7-3,1.4-6.5,1.4   c-3,0-4.6-0.7-6.2-1.4l-0.1,0C41,63.8,39.2,63,35.5,63C31.2,63,29,64,27,64.8l-0.2,0.1c-1.5,0.6-2.7,1.2-5,1.2   c-2.3,0-4.1-1.2-5.9-2.4l-0.1,0c-0.6-0.4-1.2-0.8-1.8-1.1C17.4,55.5,30.8,51.2,49.2,51.2z M76.6,85.2l-0.1,0.1v0.1   c-0.5,1.2-1.6,2.1-2.9,2.1H69l2.6-7.9c0.1-0.3,0.1-0.6-0.1-0.9c-0.1-0.3-0.4-0.5-0.7-0.6c-0.3-0.1-0.6-0.1-0.9,0.1   c-0.3,0.1-0.5,0.4-0.6,0.7l-2.8,8.7h-6.8l1.3-8.1c0.1-0.3,0-0.7-0.2-0.9c-0.2-0.3-0.5-0.4-0.8-0.5c-0.3-0.1-0.7,0-0.9,0.2   c-0.3,0.2-0.4,0.5-0.5,0.8l-1.4,8.5h-6.9v-8.3c0-0.7-0.6-1.2-1.2-1.2c-0.7,0-1.2,0.6-1.2,1.2v8.3h-6.9l-1.4-8.5   c-0.1-0.3-0.3-0.6-0.5-0.8c-0.3-0.2-0.6-0.2-0.9-0.2c-0.3,0.1-0.6,0.3-0.8,0.5c-0.2,0.3-0.2,0.6-0.2,0.8l1.3,8.1h-6.8L29,78.7   l-0.2-0.4c-0.3-0.4-0.8-0.5-1.2-0.4l-0.1,0c-0.3,0.1-0.5,0.3-0.7,0.6c-0.1,0.3-0.2,0.6-0.1,0.9l2.5,7.9h-4.5   c-1.4-0.1-2.6-0.9-3-2.1c0-0.1,0-0.1-0.1-0.2l-5.2-10.3h65.3L76.6,85.2z M89.3,66.8L89.3,66.8c-0.7,3.3-3.7,5.6-7,5.6   c0,0-0.1,0-0.1,0H16c0,0-0.1,0-0.1,0c-3.3,0-6.2-2.3-7-5.5c-0.2-1.1,0-1.5,0.2-1.7c0.8-0.8,1.4-1.1,2-1.1c0.9,0,2,0.7,3.4,1.6   l0.2,0.1c1.8,1.2,4.1,2.7,7.1,2.7c2.9,0,4.6-0.8,6.1-1.4l0.1,0c1.8-0.8,3.6-1.5,7.5-1.5c3,0,4.6,0.6,6.2,1.3l0.3,0.1   c1.8,0.8,3.6,1.6,7.1,1.6c3.9,0,5.8-0.9,7.5-1.7c1.5-0.7,3-1.4,6.1-1.4c2,0,3.1,0.5,4.4,1.1l0.1,0.1c1.9,0.8,4.2,1.8,9.1,1.8   c2.7,0,4.9-1.4,6.9-2.6l0.1-0.1c2.7-1.7,4.1-2.4,5.8-0.8C89.4,65.4,89.5,66,89.3,66.8z"></path><path d="M60,33.1c-1.8,3.1-4.1,7,0,11.7c0.2,0.3,0.5,0.4,0.9,0.4c0.3,0,0.6-0.1,0.8-0.3c0.2-0.2,0.4-0.5,0.4-0.8   c0-0.3-0.1-0.7-0.3-0.9c-2.9-3.3-1.6-5.6,0.2-8.8l0.1-0.2c2-3.5,4.3-7.5-0.3-12.6c-0.2-0.2-0.5-0.4-0.8-0.4c-0.3,0-0.7,0.1-0.9,0.3   c-0.2,0.2-0.4,0.5-0.4,0.8c0,0.3,0.1,0.7,0.3,0.9C63.4,27,61.9,29.6,60,33.1L60,33.1z"></path><path d="M48,22.3c-1.8,3.1-4.1,7,0,11.7c0.2,0.3,0.5,0.4,0.9,0.4c0.3,0,0.6-0.1,0.8-0.3c0.2-0.2,0.4-0.5,0.4-0.8   c0-0.3-0.1-0.7-0.3-0.9c-2.9-3.3-1.6-5.6,0.2-8.8l0.1-0.2c2-3.5,4.3-7.5-0.3-12.6c-0.2-0.2-0.5-0.4-0.8-0.4c-0.3,0-0.7,0.1-0.9,0.3   c-0.2,0.2-0.4,0.5-0.4,0.8c0,0.3,0.1,0.7,0.3,0.9C51.4,16.2,49.9,18.8,48,22.3L48,22.3z"></path><path d="M37.2,33.1c-1.8,3.1-4.1,7,0,11.7c0.2,0.3,0.5,0.4,0.9,0.4c0.3,0,0.6-0.1,0.8-0.3c0.2-0.2,0.4-0.5,0.4-0.8   c0-0.3-0.1-0.7-0.3-0.9c-2.9-3.3-1.6-5.6,0.2-8.8l0.1-0.2c2-3.5,4.3-7.5-0.3-12.6c-0.2-0.2-0.5-0.4-0.8-0.4c-0.3,0-0.7,0.1-0.9,0.3   c-0.2,0.2-0.4,0.5-0.4,0.8c0,0.3,0.1,0.7,0.3,0.9C40.6,27,39.1,29.6,37.2,33.1L37.2,33.1z"></path></g></svg>
