<svg xmlns="http://www.w3.org/2000/svg" version="1.1" x="0px" y="0px" viewBox="0 0 100 100" enable-background="new 0 0 100 100" xml:space="preserve"><path d="M5.062,56.786v6.137l0.5,0.833l27.012,14.39l0.006-0.001c0.133,0.07,0.285,0.113,0.44,0.113  c0.155,0,0.313-0.039,0.459-0.121l61.1-34.088l0.483-0.825v-6.015c0-0.356-0.205-0.654-0.493-0.815v-0.016l-27.012-14.6  l-0.909,0.006L5.545,55.875c-0.335,0.186-0.509,0.548-0.478,0.908L5.062,56.786z M7.892,56.725l39.982-22.306  c-4.958,8.574-16.278,15.095-23.335,17.139c-7.565,2.19-10.355,3.604-14.547,6.284L7.892,56.725z M73.166,26.956  c-2.078,1.684-4.081,2.508-7.24,3.792c-0.772,0.313-1.612,0.654-2.539,1.043c-8.88,3.723-13.565,8.414-14.133,11.766  c-0.465,2.738-9.891,6.268-17.568,9.087c-6.241,2.295-11.633,4.273-12.808,5.925c-1.185,1.662-1.988,2.381-2.468,2.692l-5.463-2.909  c3.569-2.267,6.375-3.724,13.856-5.888c7.565-2.192,19.918-9.437,24.581-18.887l17.729-9.892L73.166,26.956z M29.23,68.091  c3.398-1.451,11.509-5.084,13.382-7.423c1.339-1.678,5.249-0.896,7.64-0.068l-17.133,9.563L29.23,68.091z M21.181,63.803  c0.785-0.834,2.307-2.096,4.698-2.661c6.548-1.546,28.233-13.043,28.479-13.161c1.565-0.766,1.225-1.863,0.952-2.747  c-0.366-1.172-0.741-2.384,1.798-4.152c1.733-1.208,7.612-3.497,11.193-1.742c0.465,0.229,0.704,0.608,0.725,1.164  c0.074,1.8-2.023,4.669-4.495,6.141c-1.033,0.617-3.026,1.498-4.747,0.477c-0.499-0.298-0.533-0.606-0.506-0.84  c0.168-1.467,3.696-5.151,4.824-5.511c-1.354,0.433-5.533,3.425-5.763,5.403c-0.057,0.509,0.062,1.225,0.964,1.758  c1.585,0.944,3.615,0.775,5.712-0.476c2.762-1.646,5.022-4.83,4.954-6.964c1.408-0.451,7.593-2.635,11.894-8.834l5.813,3.144  c-0.89,1.417-3.305,2.381-6.049,3.471c-3.414,1.358-7.28,2.897-9.711,5.859c-0.853,1.039,0.31,2.691,1.216,3.708l-16.455,9.181  l-4.698-1.256l2.854,2.286l-3.485,1.942c-1.873-0.816-6.66-2.549-8.685-0.021c-1.863,2.328-11.661,6.405-14.495,7.553L21.181,63.803  z M56.866,57.899l-0.727,3.113l-0.201-2.527l-0.642-0.592c-0.007-0.012-0.016-0.019-0.027-0.025l-1.226-1.132L56.866,57.899z   M17.328,61.75c0.607-0.493,1.37-1.302,2.319-2.636c1.008-1.41,6.018-3.54,11.603-5.594c8.737-3.208,18.535-6.52,18.941-9.851  c0.453-3.722,5.017-7.428,13.559-11.009c0.924-0.388,4.512-1.872,5.28-2.184c3.389-1.378,2.927-1.168,5.041-3.031l6.056,3.274  c-3.897,5.597-8.958,8.17-10.39,8.814c-0.208-0.445-0.54-0.805-1.021-1.041c-3.984-1.957-10.219,0.473-12.147,1.814  c-3.107,2.161-2.54,3.994-2.161,5.206c0.272,0.881,0.375,1.209-0.466,1.619C53.7,47.249,29.457,59.026,25.597,60.243  c-2.713,0.853-4.412,2.278-5.237,3.122L17.328,61.75z M92.159,37.222L73.98,47.363c-0.896-0.982-1.692-2.198-1.336-2.635  c2.276-2.773,6.074-4.753,9.383-6.068c2.905-1.157,5.436-1.837,6.467-3.42L92.159,37.222z M93.174,42.669L33.962,75.706v-3.854  l21.425-11.954l0.753,2.648l1.437-3.924l35.598-19.808V42.669z M6.95,58.358l25.124,13.385v3.998L6.95,62.357V58.358z"></path></svg>
