<svg height='100px' width='100px' fill="#000000" xmlns="http://www.w3.org/2000/svg" version="1.1" x="0px" y="0px" viewBox="0 0 67 67" enable-background="new 0 0 67 67" xml:space="preserve"><g><path d="M33.4999504,65.5c15.1841011,0,31.3217964-3.5825005,31.3217964-10.221199v-6.0552025 c0-0.0047989-0.0027008-0.0087967-0.0027008-0.0135994c-0.0080948-3.025898-3.570797-5.7012978-10.0635948-7.5932007 c1.281498-2.8428001,1.9764977-5.9437981,1.9764977-9.1602974c0-0.9423008-0.0653992-1.9150009-0.2011986-2.9814014 c-0.6562004-4.8330002-2.8174019-9.2803001-6.2533989-12.8642998c-0.6480026-0.6683998-0.9766006-1.5848999-0.9766006-2.7250996 V8.4540997c0-0.0434999-0.002903-0.0864-0.0083008-0.1283998V8.3252001C49.2968483,8.2451,49.3007507,8.165,49.3007507,8.085 c0-4.1231003-5.9043007-6.585-15.7938995-6.585c-9.8896885,0-15.7940006,2.4619-15.7940006,6.585 c0,0.0795002,0.0039005,0.1596003,0.0083122,0.2391996c-0.005312,0.0425005-0.0083122,0.0860004-0.0083122,0.1299v5.4180002 h-0.0034008c0,1.2651005-0.4012871,2.1486998-0.9764996,2.7417002c-4.0997,4.2635994-6.3954992,9.8857002-6.4649,15.842701 c0,3.2639999,0.7096004,6.3634987,1.9733,9.1610985C5.7473507,43.5102997,2.185163,46.1867981,2.1801629,49.2140007 c0,0.0033989-0.0019121,0.0061989-0.0019121,0.0095978v6.0552025C2.1782508,61.9174995,18.3159504,65.5,33.4999504,65.5z M62.8217506,55.278801c0,3.8886986-12.0419998,8.221199-29.3218002,8.221199 c-17.2796993,0-29.3216991-4.3325005-29.3216991-8.221199v-2.2612c5.8874002,5.1675987,21.4550991,6.4272003,29.3216991,6.4272003 c7.7849998,0,23.2910995-1.2693024,29.2268982-6.3535995c0.0293999-0.0251999,0.0662003-0.0484009,0.094902-0.0736008V55.278801z M19.7128506,8.085c0-2.6992998,5.6723995-4.5840001,13.7940006-4.5840001S47.3007507,5.3857002,47.3007507,8.085 c0,2.7245998-5.6650009,5.7601995-13.7938995,5.7601995S19.7128506,10.8095999,19.7128506,8.085z M18.1713505,18.0034008 c0.2448997-0.2524014,0.4591999-0.5293007,0.6471996-0.8249016c2.2912998,3.2879009,7.9244995,5.5627003,14.6883011,5.5627003v-2 c-7.4626884,0-13.7672005-3.1318989-13.7948017-6.8449993c-0.0007992-0.1007004-0.0000992-2.0853004,0.0008011-1.9846001 c2.676899,2.3646002,7.7904987,3.9335995,13.7940006,3.9335995s11.1170998-1.5689993,13.7938995-3.9335995v1.9741001 c0,1.6542997,0.5326996,3.0781994,1.5370979,4.1133003c3.1371994,3.2724991,5.1123161,7.3339996,5.7099991,11.7367992 c0.1240005,0.9736996,0.1841011,1.8633003,0.1841011,2.7207012c0,11.1324005-9.0196991,20.3334999-20.3320007,20.3334999 c-0.3649979-0.0797005-13.2896976,1.4309006-19.7658978-10.8351021c-1.5050001-2.8350983-2.3660002-6.0612984-2.3660002-9.486599 C12.3310509,27.0337009,14.42875,21.8955002,18.1713505,18.0034008z M13.1567507,43.4341011 C20.0596504,55.6907005,33.9894485,54.7030983,34.39645,54.7919998c8.3778,0,15.6887131-4.6306,19.4492989-11.357399 c5.5576019,1.5703011,8.974102,3.7602005,8.974102,5.7855988c0,3.8876991-12.0410004,8.2196999-29.3199005,8.2196999 c-17.2787876,0-29.3202991-4.3320007-29.3202991-8.2196999C4.1796508,47.1948013,7.5976505,45.0038986,13.1567507,43.4341011z"></path><path d="M42.1879501,21.3129997l-0.6826019-1.8799c-1.5140991,0.5503006-3.1903992,0.9330997-4.9833984,1.1382008 l0.2276001,1.987299C38.6977501,22.3353996,40.5273514,21.9165001,42.1879501,21.3129997z"></path><path d="M45.1743507,44.7168007c-2.9706993,2.6264992-6.7974014,4.0732002-10.7744026,4.0732002v2 c4.4653015,0,8.7625999-1.625,12.0996017-4.5751991L45.1743507,44.7168007z"></path><path d="M52.72995,32.4599991h-2c0,3.2103996-0.921402,6.3027-2.6645012,8.9433022l1.6688995,1.1016006 C51.6943512,39.5365982,52.72995,36.0629997,52.72995,32.4599991z"></path></g></svg>
