<svg xmlns="http://www.w3.org/2000/svg" version="1.1" width="100" height="100" x="0px" y="0px" viewBox="0 0 41 41"><g transform="translate(43 -2) scale(-1.1 1.1)"><path d="M38.251,18.342c0-0.936-0.567-1.779-1.459-2.24c0.115-0.279,0.174-0.576,0.174-0.879c0-1.361-1.201-2.48-2.725-2.592  c-0.045-1.4-1.361-2.527-2.971-2.527c-0.339,0-0.672,0.051-0.988,0.146c-0.373-1.066-1.5-1.83-2.839-1.83  c-0.757,0-1.475,0.252-2.017,0.689c-0.521-0.797-1.494-1.303-2.579-1.303c-1.086,0-2.06,0.506-2.58,1.303  c-0.542-0.438-1.26-0.689-2.017-0.689c-1.257,0-2.32,0.678-2.754,1.645c-0.224-0.59-0.761-1.084-1.48-1.328  c-0.026-1.1-1.148-1.809-2.874-1.809c-1.313,0-2.844,0.475-2.874,1.809c-0.81,0.275-1.39,0.867-1.55,1.553  c-0.912,0.031-2.924,0.264-3.886,1.707c-0.081,0.123-0.105,0.273-0.065,0.414c0.04,0.141,0.139,0.256,0.271,0.318  c0.077,0.035,1.715,0.787,2.898,1.006c0.192,1.125,0.888,4.41,2.685,6.195c-0.083,0.102-0.166,0.203-0.253,0.297  c-0.313,0.42-0.486,0.916-0.486,1.424c0,1.16,0.859,2.15,2.076,2.482c-0.02,0.121-0.029,0.244-0.029,0.365  c0,1.436,1.333,2.604,2.973,2.604c0.13,0,0.259-0.008,0.388-0.023c0.058,0.287,0.173,0.557,0.329,0.805  c-0.068,0.578-0.256,2.197-0.358,3.279c-0.129,1.377-0.251,2.676,1.047,2.881c0.113,0.018,0.218,0.025,0.316,0.025  c0.413,0,0.698-0.148,0.913-0.375c0.185,0.168,0.426,0.289,0.747,0.348c0.108,0.021,0.213,0.031,0.314,0.031  c0.875,0,1.508-0.752,1.885-2.24c0.11-0.436,0.259-1.094,0.417-1.822c0.459,0.252,0.998,0.4,1.571,0.4  c0.96,0,1.825-0.393,2.373-1.031c0.548,0.639,1.414,1.031,2.374,1.031c1.087,0,2.05-0.521,2.568-1.305  c0.121,0.693,0.411,2.367,0.59,3.385c0.144,0.82,0.548,1.205,0.862,1.381c0.256,0.145,0.529,0.199,0.776,0.199  c0.214,0,0.408-0.041,0.555-0.098c0.21-0.082,0.383-0.209,0.535-0.352c0.256,0.279,0.597,0.449,1.072,0.449  c1.645,0,1.975-1.15,1.975-3.008v-4.254c0.956-0.434,1.611-1.305,1.611-2.311c0-0.121-0.01-0.244-0.03-0.365  c1.217-0.332,2.075-1.322,2.075-2.48c0-0.51-0.172-1.004-0.486-1.426C37.907,19.742,38.251,19.059,38.251,18.342z M8.899,9.605  c0.136-0.023,0.256-0.102,0.332-0.217c0.076-0.117,0.101-0.258,0.068-0.393C9.279,8.91,9.269,8.84,9.269,8.775  c0-0.621,1.12-0.848,1.874-0.848s1.874,0.227,1.874,0.848c0,0.064-0.01,0.137-0.03,0.219c-0.033,0.135-0.009,0.277,0.067,0.393  s0.196,0.195,0.333,0.219c0.721,0.125,1.272,0.627,1.23,1.119c-0.043,0.496-0.705,0.852-1.455,0.762  c-0.259-0.035-0.482,0.119-0.712,0.295c-0.301,0.229-0.712,0.539-1.307,0.539c-0.595,0-1.006-0.313-1.307-0.539  C9.624,11.619,9.44,11.48,9.197,11.48c-0.021,0-0.053,0.002-0.072,0.004c-0.758,0.094-1.412-0.264-1.455-0.76  C7.627,10.232,8.178,9.73,8.899,9.605z M6.871,13.225c-0.031-0.234-0.224-0.416-0.46-0.434C5.81,12.748,4.8,12.383,4.088,12.092  c0.825-0.67,2.109-0.787,2.71-0.805c0.321,0.779,1.227,1.291,2.319,1.203c0.034,0.025,0.072,0.055,0.115,0.088  c0.342,0.26,0.979,0.742,1.911,0.742c0.931,0,1.568-0.482,1.91-0.742c0.043-0.033,0.082-0.063,0.115-0.088  c1.086,0.086,1.996-0.424,2.319-1.201c0.601,0.016,1.885,0.133,2.71,0.803c-0.711,0.291-1.722,0.656-2.323,0.699  c-0.237,0.018-0.429,0.199-0.46,0.434c-0.009,0.068-0.922,6.732-4.249,6.891C7.798,19.959,6.88,13.293,6.871,13.225z M14.464,33.055  c-0.207-0.033-0.371-0.059-0.207-1.799c0.07-0.75,0.183-1.762,0.268-2.5c0.211,0.129,0.437,0.24,0.684,0.318  c-0.038,0.402-0.072,0.775-0.096,1.082l-0.021,0.264c-0.067,0.826-0.127,1.574-0.047,2.178  C14.825,33.105,14.735,33.098,14.464,33.055z M17.515,31.586c-0.267,1.057-0.615,1.555-1.045,1.473  c-0.511-0.096-0.54-0.602-0.381-2.559l0.021-0.264c0.023-0.287,0.054-0.633,0.089-1.006c0.007,0,0.014,0.002,0.021,0.002  c0.551,0,1.077-0.131,1.535-0.373c0.077,0.15,0.174,0.291,0.281,0.426C17.838,30.205,17.646,31.066,17.515,31.586z M30.21,33.041  c-0.052,0.018-0.283,0.07-0.478-0.041c-0.183-0.104-0.307-0.332-0.368-0.682c-0.162-0.918-0.414-2.371-0.551-3.156  c0.214,0.043,0.434,0.07,0.66,0.07c0.169,0,0.334-0.016,0.496-0.039c0.089,0.684,0.174,1.283,0.244,1.664l0.05,0.279  c0.099,0.551,0.196,1.088,0.346,1.551C30.496,32.838,30.361,32.982,30.21,33.041z M33.153,31.063c0,2.008-0.409,2.008-0.975,2.008  c-0.503,0-0.663-0.611-0.932-2.109l-0.051-0.281c-0.072-0.398-0.163-1.045-0.259-1.789c0.758-0.377,1.311-1.035,1.465-1.813  c0.129,0.016,0.258,0.023,0.388,0.023c0.123,0,0.244-0.01,0.363-0.021V31.063z M36.324,19.695c-0.15,0.076-0.251,0.225-0.269,0.393  c-0.018,0.166,0.05,0.332,0.18,0.439c0.37,0.303,0.574,0.703,0.574,1.125c0,0.818-0.756,1.502-1.759,1.592  c-0.162,0.014-0.307,0.105-0.388,0.246c-0.082,0.141-0.09,0.313-0.022,0.461c0.083,0.178,0.124,0.363,0.124,0.547  c0,0.885-0.885,1.604-1.974,1.604c-0.237,0-0.475-0.037-0.705-0.109c-0.16-0.049-0.334-0.016-0.465,0.09  c-0.13,0.107-0.198,0.271-0.181,0.438c0.004,0.037,0.008,0.072,0.008,0.109c0,0.885-0.885,1.604-1.974,1.604  c-0.556,0-1.089-0.195-1.464-0.535c-0.137-0.125-0.331-0.162-0.505-0.102c-0.174,0.063-0.299,0.217-0.326,0.398  c-0.118,0.807-0.959,1.416-1.958,1.416c-0.881,0-1.663-0.484-1.9-1.176c-0.069-0.203-0.259-0.338-0.473-0.338  s-0.404,0.135-0.473,0.338c-0.237,0.691-1.019,1.176-1.9,1.176c-0.999,0-1.84-0.609-1.958-1.416  c-0.026-0.182-0.152-0.336-0.326-0.398c-0.172-0.061-0.368-0.023-0.504,0.102c-0.376,0.34-0.91,0.535-1.465,0.535  c-1.088,0-1.974-0.719-1.974-1.604c0-0.037,0.004-0.074,0.008-0.113c0.015-0.166-0.054-0.33-0.184-0.436  c-0.13-0.105-0.304-0.137-0.464-0.088c-0.229,0.072-0.465,0.109-0.704,0.109c-1.088,0-1.973-0.719-1.973-1.604  c0-0.186,0.041-0.369,0.123-0.549c0.067-0.146,0.059-0.318-0.023-0.459c-0.082-0.141-0.226-0.232-0.388-0.246  c-1.002-0.09-1.758-0.773-1.758-1.594c0-0.404,0.192-0.787,0.536-1.086c0.51,0.316,1.089,0.52,1.746,0.549  c3.702-0.172,4.917-5.828,5.182-7.379c1.184-0.219,2.821-0.971,2.898-1.006c0.133-0.063,0.232-0.178,0.271-0.318  c0.04-0.141,0.016-0.291-0.065-0.414c-0.712-1.068-2.001-1.473-2.992-1.623c0.31-0.559,1-0.953,1.791-0.953  c0.734,0,1.404,0.33,1.75,0.863c0.109,0.168,0.308,0.256,0.507,0.221c0.198-0.035,0.355-0.186,0.4-0.383  c0.013-0.055,0.027-0.109,0.048-0.166c0.247-0.678,1.025-1.148,1.892-1.148s1.645,0.471,1.893,1.148  c0.02,0.055,0.034,0.111,0.047,0.166c0.044,0.197,0.202,0.348,0.4,0.383c0.2,0.035,0.398-0.053,0.507-0.221  c0.345-0.533,1.015-0.863,1.75-0.863c1.052,0,1.935,0.695,1.969,1.549c0.007,0.174,0.104,0.332,0.255,0.416  c0.152,0.086,0.336,0.086,0.488,0.002c0.331-0.186,0.717-0.283,1.115-0.283c1.087,0,1.972,0.719,1.972,1.602  c0,0.105-0.013,0.211-0.039,0.314c-0.039,0.158,0.001,0.324,0.108,0.447s0.27,0.186,0.429,0.17c0.083-0.01,0.167-0.016,0.252-0.016  c1.088,0,1.973,0.719,1.973,1.602c0,0.293-0.1,0.58-0.29,0.83c-0.099,0.131-0.127,0.303-0.075,0.459  c0.052,0.156,0.178,0.277,0.335,0.322c0.786,0.229,1.314,0.834,1.314,1.508C37.251,18.891,36.905,19.398,36.324,19.695z"></path></g></svg>
