<svg xmlns="http://www.w3.org/2000/svg" viewBox="0 0 100 100" version="1.1" xml:space="preserve" style="" x="0px" y="0px" fill-rule="evenodd" clip-rule="evenodd" stroke-linejoin="round" stroke-miterlimit="1.41421"><rect x="0" y="0" width="100" height="100" style="" fill="none"></rect><path d="M62.65,58.2c2,-2.5 3.5,-9.1 3.6,-12.1c0,-0.1 0,-0.3 -0.1,-0.4c-4.7,-12.1 -10.3,-26.3 -16.4,-40.3c-0.2,-0.4 -0.6,-0.6 -1,-0.6c-0.4,0 -0.8,0.3 -0.9,0.7c-1.6,5.4 -3.6,10.5 -5.7,16c-2.9,7.6 -6,15.5 -8.4,25c0,0.1 0,0.2 0,0.4c0.4,3.9 2.5,9.7 4.7,12.3c-0.2,0.8 -0.1,1.9 0.1,2.4l0,0.1c-1.1,1.2 -2.2,3.4 -1.7,4.9c-0.2,0.5 -0.2,1.1 0.2,1.6c0.5,0.8 1.8,1.3 3.1,1.4c0,0.8 0.2,1.4 0.2,1.5c0.1,0.2 0.3,0.4 0.5,0.5l2.9,1.3l0,20.8c0,0.6 0.4,1 1,1c0.6,0 1,-0.4 1,-1l0,-0.6l1.4,-0.7l0,2.4c0,0.2 0.2,0.4 0.4,0.4c0.2,0 0.4,-0.2 0.4,-0.4l0,-2.7l1.8,-0.8c0.2,-0.1 0.3,-0.3 0.2,-0.5c-0.1,-0.2 -0.3,-0.3 -0.5,-0.2l-1.5,0.7l0,-4.2l1.8,-0.8c0.2,-0.1 0.3,-0.3 0.2,-0.5c-0.1,-0.2 -0.3,-0.3 -0.5,-0.2l-1.5,0.7l0,-4.2l1.8,-0.8c0.2,-0.1 0.3,-0.3 0.2,-0.5c-0.1,-0.2 -0.3,-0.3 -0.5,-0.2l-1.5,0.7l0,-4.2l1.8,-0.8c0.2,-0.1 0.3,-0.3 0.2,-0.5c-0.1,-0.2 -0.3,-0.3 -0.5,-0.2l-1.5,0.7l0,-4.2l1.8,-0.8c0.2,-0.1 0.3,-0.3 0.2,-0.5c-0.1,-0.2 -0.3,-0.3 -0.5,-0.2l-1.5,0.7l0,-1.8l7.4,0l0,24c0,0.6 0.4,1 1,1c0.6,0 1,-0.4 1,-1l0,-21.4c0.1,0 0.1,0 0.2,0l3.5,-0.7c0.4,-0.1 0.7,-0.4 0.8,-0.7l0.6,-2.5c0.1,-0.3 0,-0.6 -0.2,-0.9c0.1,-0.1 0.1,-0.2 0.2,-0.2l0.6,-1.3c0.1,-0.3 0.1,-0.7 -0.1,-1l-0.6,-1l0.9,-1.6c0.8,-1.2 0.6,-2.6 -0.6,-4Zm-15.5,33.5l-1.4,0.6l0,-4.2l1.4,-0.7l0,4.3Zm0,-5.1l-1.4,0.7l0,-4.2l1.4,-0.7l0,4.2Zm0,-5l-1.4,0.7l0,-4.2l1.4,-0.7l0,4.2Zm0,-5l-1.4,0.6l0,-4.2l1.4,-0.7l0,4.3Zm0,-5l-1.4,0.6l0,-2.8l1.4,0l0,2.2Zm-5.1,-1.7c0,-0.2 0,-0.3 0,-0.6c0.5,0.1 1.1,0.1 1.7,0.1l0,1.2l-1.7,-0.7Zm0.395,-3.486c-0.095,0.298 -0.09,0.691 0.205,0.986c0.2,0.1 1.2,0.1 1.7,0.1l11.9,0c0.6,0 1,0.4 1,1l0,1.6l2.7,-0.5l0.5,-1.4c-0.6,-0.6 -1.3,-1.2 -1.6,-1.3c-0.8,-0.2 -10.2,-0.4 -16.4,-0.5l-0.005,0.014Zm-3.595,0.786c0.2,-0.4 0.2,-0.9 -0.1,-1.2c-0.2,-0.3 0.1,-1.5 0.9,-2.6l1.1,1.5l0,0.1c-0.3,0.5 -0.6,1.6 -0.4,2.6c-0.7,-0.1 -1.3,-0.3 -1.5,-0.4Zm20.5,-2.2c-0.8,-0.3 -9.1,-0.5 -16.4,-0.6l-1.2,-1.5l18.7,1.8l0.5,0.8l-0.2,0.4c-0.5,-0.4 -1,-0.7 -1.4,-0.9Zm1.3,-2.3l-6.1,-0.6c0.1,0 0.2,0 0.3,-0.1c2,-0.4 3.4,-0.7 4.4,-0.5c0.4,0.1 1.1,0.4 1.6,0.7l-0.2,0.5Zm-1,-3.2c-1.3,-0.2 -2.9,0.1 -5.1,0.6c-1.4,0.3 -3.1,0.6 -5.2,0.9c-2.7,0.4 -7.2,-0.1 -9,-0.3c0,-0.3 -0.1,-0.5 0,-0.7c1.9,0.3 5,0 8.4,-0.3c0.9,-0.1 1.9,-0.2 2.8,-0.2l1.5,-0.1c2.9,-0.2 7,-0.6 7.7,-0.1c0.5,0.4 0.7,0.8 0.8,1c-0.5,-0.4 -1.2,-0.7 -1.9,-0.8Zm-15.6,-37.3c1.8,-4.6 3.5,-9 5,-13.6c5.6,13.2 10.8,26.3 15.2,37.6c-0.2,3.6 -1.9,9.7 -3.3,11c-0.8,-0.2 -1.9,-0.2 -3.4,-0.1l0,-1.1c0,-0.4 -0.2,-0.7 -0.5,-0.9l-1.5,-0.8l-2.8,-3.6c-0.2,-0.2 -0.4,-0.3 -0.6,-0.4l-7.2,-1.3c-0.3,-0.1 -0.6,0 -0.8,0.2c-0.2,0.2 -0.4,0.5 -0.4,0.8l0,8c-1.4,0.1 -2.5,0 -3.3,-0.1c-0.1,0 -0.3,0 -0.4,0c-1.8,-2.1 -3.8,-7.2 -4.3,-11.1c2.4,-9.3 5.4,-17.1 8.3,-24.6Zm1.7,35.7c0.219,0 0.418,-0.019 0.616,-0.041l0.168,-0.018c0.198,-0.022 0.397,-0.041 0.616,-0.041l0,-4.3c0,-0.2 0.2,-0.4 0.4,-0.4c0.2,0 0.4,0.2 0.4,0.4l0,4.2c0.2,-0.1 6.7,-0.5 7.5,-0.6l0,-0.6l-1.1,-0.6c-0.1,-0.1 -0.2,-0.2 -0.3,-0.3l-2.7,-3.4l-5.6,-1l0,6.7Zm8.055,-29.06c0.086,0.002 0.133,0.073 -0.055,0.26c3,4.5 6.7,13 6.2,15.2c0,0.1 -0.1,0.2 -0.1,0.3c1.1,1.4 0.4,5 -0.3,6.7c-0.3,0.9 -0.6,1.3 -1,1.3c-0.2,0 -0.5,-0.1 -0.6,-0.6l-1.3,-5.3c0,-0.2 0.1,-0.4 0.3,-0.5c0.2,0 0.4,0.1 0.5,0.3l1.3,5.1c0.4,-0.8 1,-2.8 1.1,-4.6c0.1,-1.1 -0.1,-1.9 -0.5,-2.2c-0.1,-0.1 -0.1,-0.2 -0.1,-0.3c0,-0.1 0.1,-0.2 0.2,-0.3c0,-0.044 0.019,-0.068 0.041,-0.091l0.018,-0.018c0.022,-0.023 0.041,-0.047 0.041,-0.091c0.5,-1.8 -2.9,-10 -6,-14.6c-0.1,-0.2 -0.1,-0.4 0.1,-0.5c0.036,-0.036 0.098,-0.059 0.148,-0.06l0.007,0Zm-10.855,18.66l3.4,-10.2l-2.2,-1.6c-0.1,-0.1 -0.1,-0.2 -0.1,-0.4c0,-0.1 3,-10.6 4.1,-14.5c0.1,-0.2 0.3,-0.4 0.5,-0.3c0.2,0.1 0.4,0.3 0.3,0.5c-1,3.6 -3.5,12.7 -4,14.3l2.2,1.6c0.1,0.1 0.2,0.2 0.1,0.4l-3.6,10.7c-0.1,0.2 -0.2,0.3 -0.4,0.3l-4,0c-0.2,0 -0.4,-0.2 -0.4,-0.4c0,-0.2 0.2,-0.4 0.4,-0.4l3.7,0Zm9.1,-5.6l3,1.8c0.1,0 0.1,0.1 0.2,0.1c0.1,0 0.3,-0.1 0.3,-0.2c0.1,-0.2 0,-0.4 -0.1,-0.5l-2.8,-1.7l-1.7,-13.2c0,-0.2 -0.2,-0.4 -0.4,-0.3c-0.2,0 -0.4,0.2 -0.3,0.4l1.8,13.4c-0.1,0.1 -0.1,0.2 0,0.2Z"></path></svg>
