<svg xmlns="http://www.w3.org/2000/svg" version="1.1" x="0px" y="0px" viewBox="0 0 100 100" enable-background="new 0 0 100 100" xml:space="preserve"><path d="M90.26,27.63h-0.006v-0.193l-0.086,0.178l-4.357-0.793l-0.145,0.796l4.135,0.752L64.4,80.583L42.001,73.09  l0.043-0.809l18.954-19.839l7.479,1.298l21.777-35.422v-2.761l-26.16-1.969L7.741,34.927v8.993L32,48.232l-0.03,2.552L11.548,64.89  l-0.119-0.025l0.007,0.103l-0.055,0.038l0.058,0.013l0.664,9.293l53.742,16.621l24.408-57.317v-5.956L90.26,27.63z M64.371,15.502  l23.996,1.807v0.328L68.186,43.368l-56.756-7.82L64.371,15.502z M13.895,72.889l-0.404-5.654l20.123,4.292l0.292-24.872  L9.628,42.338V36.23l0.22-0.083l57.896,7.977l0.211,6.861l-0.416,0.677l-26.034-4.521L40.1,73.279l0.31,0.017l-0.035,0.103  l24.674,8.255l0.191,5.886l-0.463,1.087L13.895,72.889z"></path></svg>
