<svg xmlns="http://www.w3.org/2000/svg" version="1.1" x="0px" y="0px" viewBox="0 0 600 600" enable-background="new 0 0 600 600" xml:space="preserve"><g><g><path d="M422.215,239.609c-2.497,0-4.875-0.181-6.99-0.615l1.121-5.457c11.054,2.269,31.882-3.708,32.092-3.768l1.553,5.351    C449.237,235.338,434.345,239.609,422.215,239.609z"></path></g><g><path d="M403.26,232.728c-0.153-0.186-15.073-18.912,5.07-43.035l4.275,3.571c-17.219,20.621-5.165,35.776-5.041,35.927    L403.26,232.728z"></path></g><g><rect x="416.287" y="168.602" transform="matrix(0.444 -0.896 0.896 0.444 84.3958 478.7823)" width="23.394" height="5.571"></rect></g><g><path d="M467.543,129.412l-3.707-4.159c22.157-19.747,49.614-29.816,50.771-30.235l1.896,5.239    C516.23,100.355,488.874,110.4,467.543,129.412z"></path></g><g><path d="M440.919,170.739l-5.543-0.562c2.366-23.341,19.764-36.124,20.504-36.656l3.26,4.518    C458.979,138.156,443.025,149.959,440.919,170.739z"></path></g><g><path d="M476.231,106.55l-3.004-4.692c14.842-9.5,36.402-16.981,37.313-17.295l1.815,5.267    C512.14,89.905,490.506,97.413,476.231,106.55z"></path></g><g><path d="M423.208,146.726l-4.215-3.644c10.89-12.598,37.953-29.759,39.101-30.483l2.975,4.71    C460.795,117.482,433.557,134.753,423.208,146.726z"></path></g><g><path d="M355.995,188.213c-1.486,0-2.949-0.083-4.389-0.248l0.635-5.535c25.062,2.875,52.76-25.019,53.036-25.301l3.977,3.902    c-0.301,0.307-7.49,7.588-18.114,14.583C378.426,183.987,366.626,188.213,355.995,188.213z"></path></g><g><path d="M345.131,186.109c-15.164-6.346-21.253-27.089-21.504-27.969l5.355-1.535c0.055,0.19,5.619,19.058,18.299,24.364    L345.131,186.109z"></path></g><g><path d="M334.896,205.801l-5.562-0.294c0.521-9.867-9.492-34.65-13.394-43.367l5.084-2.276    C321.62,161.193,335.597,192.576,334.896,205.801z"></path></g><g><path d="M471.006,251.642c-11.941-5.935-23.986-5.438-24.105-5.431l-0.277-5.564c0.543-0.026,13.564-0.603,26.863,6.006    L471.006,251.642z"></path></g><g><path d="M442.037,273.981c-33.247,0-85.797-15.944-88.199-16.679l1.629-5.328c0.628,0.192,63.107,19.149,93.981,16.104    l0.547,5.544C447.508,273.868,444.84,273.981,442.037,273.981z"></path></g><g><path d="M406.479,329.323c-8.229,0-17.064-0.673-20.812-5.405c-1.166-1.474-2.364-4.037-1.449-7.885    c1.625-6.831,5.826-9.419,8.567-10.393l0.054-1.357c-3.55-0.76-9.86-2.839-14.217-8.374c-4.072-5.172-5.441-12.02-4.072-20.351    l5.498,0.904c-1.103,6.703-0.119,12.074,2.923,15.964c4.683,5.988,12.882,6.715,12.964,6.722l2.665,0.215l-0.429,11.09    l-2.501,0.165c-0.427,0.044-4.587,0.627-6.032,6.703c-0.432,1.816,0.02,2.66,0.397,3.138c1.729,2.185,7.284,3.292,16.512,3.292    c0.077,0,0.155,0,0.233,0c8.751-0.018,9.778-7.36,9.866-8.197l0.214-2.022l1.993-0.433c1.665-0.345,8.145-1.683,12.348-2.482    c-0.927-3.951,0.151-7.115,0.621-8.494c0.034-0.103,0.065-0.19,0.088-0.263l0.243-1.329l1.306-0.608    c8.876-4.133,8.964-13.633,8.964-13.729l-0.003-1.719l4.978-2.508l-0.522-12.515l12.039-8.528    c2.521-5.578,4.576-5.548,5.452-5.538c0.003,0,0.007,0,0.01,0c6.99-7.912,19.077-31.162,24.494-42.192    c-1.835-1.335-3.554-2.561-4.006-2.836l-3.255-1.565l2.444-2.76c5.249-5.926,9.472-7.75,13.007-7.993    c-0.206-4.885,2.257-9.421,5.001-11.599c0.812-5.838,4.292-10.571,7.984-12.963c-0.611-12.644,7.409-24.704,10.742-29.136    c-5.825-15.528-1.935-44.056-0.543-52.774l-5.411-1.421l0.323-2.436c0.21-1.579,0.434-2.818,0.657-3.794    c-8.077-2.017-22.691-2.978-27.039-3.228l-5.955,6.15l-1.887-3.024c-0.44-0.706-0.988-1.466-1.445-2.028    c-6.534,3.508-15.851,4.253-20.182,3.989c-4.511,2.811-16.58,5.843-22.192,6.182c-2.665,3.719-5.369,5.728-8.237,6.128    c-2.37,0.329-4.394-0.53-5.809-1.425c-5.136,3.52-10.096,3.458-13.108,2.912c-0.588,1.22-1.511,2.562-2.938,3.496    c-0.905,0.592-2.291,1.184-4.102,1.13c-13.348,17.028-35.505,22.718-42.514,24.14l-1.081,11.084l-1.788,0.539    c-2.611,0.786-5.499,1.67-6.661,2.047l-1.286,1.327l-1.973-1.537c-1.999-1.557-3.315-3.29-4.145-5.019    c-5.348,7.363-15.1,18.159-27.121,19.639l-1.322,0.163l-2.958-2.864l-6.094,0.971l-1.674,5.305l-9.085-0.217l-6.174,6.375    l-0.786,15.895l5.319-0.317l11.909,7.312l-0.936,2.207c-0.01,0.024-1.609,4.024,0.206,7.45c1.355,2.559,4.352,4.343,8.906,5.303    l0.31,0.084c1.229,0.413,3.095,0.271,5.07,0.124c4.91-0.368,12.315-0.926,16.514,8.019c1.62,3.157,5.933,20.247,7.229,25.46    l-5.406,1.344c-2.649-10.66-5.902-22.636-6.76-24.225l-0.084-0.166c-2.444-5.251-5.802-5.276-11.074-4.876    c-2.379,0.18-4.84,0.364-7.094-0.343c-6.205-1.337-10.434-4.09-12.57-8.184c-1.91-3.66-1.597-7.456-1.082-9.816l-6.559-4.026    l-9.77,0.582l1.196-24.194l9.329-9.634l7.337,0.175l1.45-4.595l12.246-1.951l3.003,2.908    c14.664-2.872,25.976-23.256,26.092-23.468l5.037,2.354c-0.135,0.374-1.203,3.702,1.886,6.873c0.938-0.299,2.266-0.702,4.18-1.279    l1.133-11.623l2.149-0.321c0.276-0.042,27.953-4.422,42.007-23.645l1.112-1.521l1.826,0.467c1.017,0.257,1.433-0.008,1.59-0.108    c0.837-0.539,1.346-2.045,1.461-2.69l0.627-3.508l3.257,1.433c0.22,0.093,6.002,2.463,11.943-2.606l1.827-1.56l1.812,1.578    c1.737,1.513,2.672,1.584,3.218,1.507c0.823-0.115,2.593-0.905,5.194-4.904l0.919-1.414l1.68,0.16    c4.007,0.378,18.747-3.743,20.633-5.458l0.987-1.019l1.388,0.214c2.635,0.371,13.404-0.122,19.16-3.997l0.51-0.343l0.607-0.097    c0.697-0.112,2.137-0.341,4.424,2.306l2.924-3.019l1.258,0.06c0.963,0.046,23.692,1.162,32.578,4.416l4.025,1.474l-2.773,2.863    c-0.153,0.402-0.354,1.234-0.545,2.216l5.542,1.456l-0.462,2.538c-0.068,0.375-6.746,37.712,0.363,53.625l0.697,1.56l-1.075,1.329    c-5.533,6.837-11.579,18.323-10.404,28.192l0.246,2.065l-1.91,0.823c-2.536,1.092-6.259,5.105-6.594,10.604l-0.101,1.659    l-1.508,0.699c-1.556,0.722-4.354,5.308-2.783,9.541l1.748,4.708l-4.92-1.01c-1.785-0.367-4.627-0.952-9.489,3.629    c0.903,0.647,2.081,1.503,3.621,2.639l1.859,1.371l-1.004,2.081c-0.76,1.575-18.713,38.686-28.055,47.3l-2.992,2.759l-0.014-0.035    c-0.041,0.093-0.081,0.186-0.119,0.276l-0.309,0.731l-10.846,7.683l0.546,13.078l-5.248,2.644    c-0.438,3.631-2.376,11.871-10.936,16.445c-0.476,1.486-1.067,4.061,0.506,7.085l1.884,3.621l-4.058,0.435    c-1.082,0.116-8.187,1.541-13.445,2.621c-1.224,4.701-5.352,11.127-15.025,11.146    C406.688,329.323,406.583,329.323,406.479,329.323z M431.896,301.938c-0.001,0.004-0.001,0.008-0.002,0.011L431.896,301.938z     M521.679,83.673L521.679,83.673z"></path></g><g><polygon points="96.45,555.59 74.095,537.965 78.294,533.628 77.27,531.95 70.148,534.796 63.175,519.656 98.115,480.398     105.431,479.312 105.468,472.076 121.56,465.946 157.188,431.133 219.751,370.156 220.791,364.489 256.642,324.755     260.779,328.487 225.986,367.048 224.912,372.906 124.625,470.741 111.02,475.924 110.977,484.121 100.933,485.612 69.76,520.637     72.995,527.659 79.574,525.03 85.295,534.407 82.388,537.408 95.948,548.1 100.731,543.16 106.037,547.046 165.862,473.578     229.581,400.09 283.49,340.41 287.624,344.145 233.752,403.782 170.126,477.162 107.015,554.669 101.356,550.523   "></polygon></g><g><path d="M348.76,245.589c-3.693-28.781,4.842-105.36,5.207-108.606l5.537,0.623c-0.089,0.788-8.826,79.157-5.219,107.274    L348.76,245.589z"></path></g><g><path d="M341.5,243.562l-5.422-1.28c6.022-25.504,10.427-102.068,10.471-102.838l5.562,0.316    C351.932,142.925,347.634,217.585,341.5,243.562z"></path></g><g><polygon points="413.155,131.001 407.585,130.916 407.815,115.91 417.143,106.278 420.346,92.529 425.771,93.792 422.219,109.045     413.353,118.201   "></polygon></g><g><polygon points="402.448,140.306 399.189,130.642 399.767,123.792 405.317,124.259 404.838,129.957 407.728,138.526   "></polygon></g><g><polygon points="389.78,151.249 384.315,150.161 385.716,143.126 400.013,128.362 404.015,132.237 390.86,145.823   "></polygon></g><g><path d="M468.002,155.108l-0.973-5.485l23.991-4.256l15.781,3.923c1.849-0.271,9.266-1.629,15.408-6.663l3.531,4.309    c-8.39,6.877-18.413,7.916-18.835,7.957l-0.477,0.046l-15.603-3.879L468.002,155.108z"></path></g><g><rect x="506.493" y="151.001" transform="matrix(0.6957 -0.7184 0.7184 0.6957 43.8804 412.9272)" width="5.571" height="7.35"></rect></g><g><path d="M492.173,181.403l-2.494-4.982c13.316-6.665,23.55-4.175,23.979-4.065l-1.359,5.403    C512.211,177.736,503.52,175.722,492.173,181.403z"></path></g><g><path d="M397.364,123.665l-4.484-3.308c6.504-8.817,6.027-18.874,6.021-18.975l5.562-0.332    C404.493,101.541,405.105,113.169,397.364,123.665z"></path></g><g><path d="M405.303,312.533c-5.814,0-10.599-1.998-10.91-2.132l2.188-5.123l-1.094,2.562l1.088-2.564    c0.095,0.04,9.545,3.94,16.312-0.269l2.943,4.73C412.424,311.855,408.688,312.533,405.303,312.533z"></path></g><g><path d="M304.973,175.099l-5.174-2.066c3.104-7.772-0.008-14.617-0.04-14.685l5.033-2.39    C304.966,156.322,309.009,164.994,304.973,175.099z"></path></g><g><path d="M317.664,181.411l-5.076-2.296c2.965-6.557-3.201-11.287-3.466-11.485l3.311-4.481    C315.935,165.723,321.535,172.852,317.664,181.411z"></path></g><g><path d="M384.44,245.767c-4.351-2.569-7.468-7.861-9.267-15.727c-1.269-5.551-1.401-10.382-1.407-10.585l-0.021-0.834    l17.512-28.124l4.729,2.944l-16.617,26.689c0.279,5.332,2.084,17.401,7.905,20.839L384.44,245.767z"></path></g><g><path d="M372.404,222.31c-3.685,0-8.871-0.309-12.438-1.801l2.15-5.14c3.822,1.599,11.565,1.437,14.228,1.239l0.415,5.556    C376.338,222.195,374.65,222.31,372.404,222.31z"></path></g><g><path d="M335.552,301.993l-29.436-17.605l-2.188,2.852l-4.42-3.392l5.208-6.789l0.972,0.581l3.201-6.13l37.779,19.002    L335.552,301.993z M310.478,280.505l24.145,14.44l2.771-2.862l-26.105-13.13L310.478,280.505z"></path></g><g><rect x="342.837" y="245.584" transform="matrix(0.8967 -0.4426 0.4426 0.8967 -81.3961 180.2786)" width="5.571" height="37.96"></rect></g><g><polygon points="318.827,317.807 317.081,312.516 323.189,310.499 300.769,288.527 290.587,299.041 286.585,295.165     300.665,280.625 333.621,312.921   "></polygon></g><g><path d="M310.799,327.772l-33.304-24.848l7.656-11.204l37.043,22.777L310.799,327.772z M285.11,301.655l24.851,18.541l3.753-4.372    l-26.958-16.577L285.11,301.655z"></path></g><g><rect x="269.348" y="318.91" transform="matrix(0.5038 -0.8638 0.8638 0.5038 -153.8687 401.0444)" width="5.571" height="31.078"></rect></g><g><polygon points="292.252,347.143 283.375,345.1 284.624,339.67 289.752,340.85 296.487,330.752 272.06,313.249 259.868,321.922     261.306,325.609 256.115,327.633 253.101,319.9 272.072,306.403 304.111,329.361   "></polygon></g><g><rect x="323.671" y="301.09" transform="matrix(0.6335 -0.7737 0.7737 0.6335 -113.9354 367.2127)" width="13.976" height="5.571"></rect></g><g><rect x="299.455" y="324.235" transform="matrix(0.8566 -0.516 0.516 0.8566 -124.9576 204.4682)" width="11.768" height="5.571"></rect></g><g><rect x="271.965" y="304.017" transform="matrix(0.6212 -0.7837 0.7837 0.6212 -135.2244 333.8652)" width="11.519" height="5.572"></rect></g><g><rect x="277.059" y="307.325" transform="matrix(0.5196 -0.8544 0.8544 0.5196 -144.5158 395.9458)" width="5.571" height="38.322"></rect></g><g><rect x="341.074" y="285.489" transform="matrix(0.8182 -0.575 0.575 0.8182 -102.7785 251.564)" width="10.517" height="5.571"></rect></g><g><path d="M352.022,289.633l-31.062-21.851l-4.62,4.165l2.714,5.275l-4.955,2.549l-4.675-9.089l11.106-10.012l1.582,1.113    l2.775-7.654l7.067-0.086l24.077,24.397L352.022,289.633z M326.835,265.103l22.41,15.764l0.362-1.01l-19.952-20.217l-0.843,0.01    L326.835,265.103z"></path></g><g><polygon points="361.763,259.023 349.932,246.25 341.302,244.723 340.287,249.739 332.953,258.615 328.658,255.066     335.104,247.267 336.919,238.289 352.746,241.089 365.851,255.237   "></polygon></g><g><path d="M449.512,286.331c-0.592-0.164-59.39-16.346-79.701-11.316l-1.708,0.423l-25.56-31.178l4.309-3.532l23.368,28.506    c22.926-4.191,78.372,11.061,80.78,11.729L449.512,286.331z"></path></g><g><polygon points="366.355,281.349 342.233,263.308 345.569,258.846 365.029,273.399 366.838,270.743 371.443,273.88   "></polygon></g><g><rect x="352.39" y="274.276" transform="matrix(0.9182 -0.3962 0.3962 0.9182 -80.4983 164.3573)" width="10.528" height="5.571"></rect></g></g></svg>
