<svg xmlns="http://www.w3.org/2000/svg" viewBox="0 0 71 53" version="1.1" x="0px" y="0px"><g stroke="none" stroke-width="1" fill="none" fill-rule="evenodd"><g transform="translate(-590.000000, -173.000000)" fill="#000000"><path d="M603.79,182 C605.66,180.08 607.79,178.14 610.37,177.62 L632.7,173.26 C633.554982,173.021614 634.444891,172.933638 635.33,173 C636.109196,173.162794 636.85821,173.446204 637.55,173.84 L652.34,181.31 C652.802696,181.510155 653.22599,181.791221 653.59,182.14 C653.973266,182.615526 654.249539,183.168072 654.4,183.76 L660.4,201.93 C661.01,203.79 659.86,205.74 658.75,207.36 L650.37,219.62 C649.988654,220.282561 649.462139,220.850103 648.83,221.28 C648.272227,221.552409 647.668606,221.718574 647.05,221.77 C638.043333,223.103333 629.003333,224.196667 619.93,225.05 C618.800303,225.221962 617.649017,225.191487 616.53,224.96 C615.583187,224.651845 614.689404,224.199895 613.88,223.62 C604.46,217.62 594.52,210.94 590.14,200.62 C589.73,199.62 590.34,198.57 590.94,197.69 C594.769408,192.104134 599.068326,186.855106 603.79,182 L603.79,182 Z M649.48,196.81 C648.468149,201.859412 649.46548,207.104371 652.26,211.43 C655.7,208.85 656.18,203.79 655.16,199.61 C654.14,195.43 651.96,191.61 651.16,187.38 C650.71,185.12 648.44,183.77 646.39,182.71 L636.58,177.63 C636.138601,177.360248 635.64385,177.189644 635.13,177.13 C634.03,177.13 633.13,178.01 632.45,178.84 C629.642354,182.093432 626.49441,185.036877 623.06,187.62 C622.44,188.08 621.37,188.44 621.06,187.73 L630.83,177.51 C630.987487,177.386538 631.082597,177.199975 631.09,177 C631.03,176.66 630.56,176.63 630.23,176.68 L622.23,177.87 C618.680858,178.237943 615.190956,179.04408 611.84,180.27 C604.35,183.39 599.29,190.36 594.9,197.18 L611.11,194 C613.11,193.6 615.25,193.12 616.56,191.57 C617.05,190.99 617.46,190.24 618.2,190.04 C618.94,189.84 619.8,190.88 619.2,191.31 C618.841185,191.643027 618.637289,192.110454 618.637289,192.6 C618.637289,193.089546 618.841185,193.556973 619.2,193.89 C619.966761,194.51211 620.897914,194.897774 621.88,195 L644,199.44 C645.86,199.82 647.16,197.59 647.49,195.72 C647.82,193.85 648.09,191.58 649.8,190.72 C650.64,192.6 649.92,194.72 649.51,196.77 L649.48,196.81 Z M628.18,207.38 L640.92,201.38 C632.194665,200.463967 623.565501,198.791 615.13,196.38 C613.336189,196.035548 611.484063,196.156039 609.75,196.73 L597.34,199.73 C596.862135,199.778853 596.425002,200.020902 596.13,200.4 C595.978404,200.785637 595.978404,201.214363 596.13,201.6 C597.5,207 602.29,210.7 606.77,214 L616.58,221.21 C616.757243,221.370394 616.98191,221.468685 617.22,221.49 C617.61,221.49 617.86,221.09 618.03,220.74 C619.75,217.17 620.54,212.97 623.44,210.27 C624.865898,209.071569 626.468053,208.100157 628.19,207.39 L628.18,207.38 Z M628.79,209.78 C627.455538,210.449531 626.220428,211.300982 625.12,212.31 C622.97,214.47 622.23,217.61 621.57,220.58 C621.46,221.07 621.42,221.7 621.85,221.94 C622.067796,222.031923 622.308181,222.05631 622.54,222.01 L639.9,220.28 C643.48,219.93 647.46,219.36 649.69,216.54 C650.63,215.35 651.12,213.54 650.25,212.34 C648.653668,210.08017 647.431377,207.578189 646.63,204.93 C646.19,203.48 645.49,201.66 643.98,201.64 C643.385381,201.684427 642.812901,201.88445 642.32,202.22 L628.79,209.78 Z"></path></g></g></svg>
