<svg xmlns="http://www.w3.org/2000/svg" version="1.1" x="0px" y="0px" viewBox="0 0 100 100" style="enable-background:new 0 0 100 100;" xml:space="preserve"><path d="M28.9,74.7c0.2,0,0.4-0.1,0.5-0.2l1.7-1.7c0.3-0.3,0.3-0.7,0-1c-0.3-0.3-0.7-0.3-1,0l-1.7,1.7c-0.3,0.3-0.3,0.7,0,1  C28.6,74.6,28.7,74.7,28.9,74.7z"></path><path d="M39.4,58.5c0.2,0,0.4-0.1,0.5-0.2L51,47.2c0.3-0.3,0.3-0.7,0-1s-0.7-0.3-1,0L38.9,57.3c-0.3,0.3-0.3,0.7,0,1  C39.1,58.4,39.3,58.5,39.4,58.5z"></path><path d="M76,33.8c0.7-0.8,1.6-2.2,1.7-4c0.1-1.8-0.7-3.6-2.3-5.2c-1.6-1.6-3.4-2.4-5.2-2.3c-1.8,0.1-3.2,1-4,1.7  C41.7,2.3,25.1,7.5,24.4,7.8c0,0-0.1,0-0.1,0.1c-0.1,0-0.1,0.1-0.2,0.1C24.1,8,24,8,24,8.1c0,0-0.1,0.1-0.1,0.1c0,0,0,0,0,0  c0,0.1-0.1,0.1-0.1,0.2c0,0.1,0,0.1-0.1,0.2c0,0.1,0,0.1,0,0.2c0,0.1,0,0.2,0,0.2c0,0,0,0,0,0c0,0,0,0.1,0.1,0.1  c0,0.1,0.1,0.1,0.1,0.2c0,0.1,0.1,0.1,0.1,0.1c0,0,0.1,0.1,0.1,0.1c0.2,0.1,21.4,13.5,32.3,24l-7.5,7.5L7.4,82.8l0,0  c-0.1,0.1-0.2,0.2-0.2,0.3c-0.1,0.1-0.1,0.3-0.1,0.4c0,7.3,6.1,9.3,9.4,9.4c0,0,0,0,0,0c0.1,0,0.1,0,0.2,0c0.1,0,0.2,0,0.2,0  c0.1-0.1,0.2-0.1,0.3-0.2c0,0,0,0,0,0l49.1-49.1c10.5,10.9,23.9,32.1,24,32.3c0,0,0.1,0.1,0.1,0.1c0,0.1,0.1,0.1,0.2,0.2  c0.1,0,0.1,0.1,0.2,0.1c0,0,0.1,0.1,0.1,0.1c0,0,0,0,0.1,0c0,0,0.1,0,0.1,0c0,0,0.1,0,0.1,0c0,0,0.1,0,0.1,0c0,0,0.1,0,0.1,0  c0.1,0,0.2-0.1,0.3-0.1c0,0,0,0,0.1,0c0,0,0,0,0,0c0.1-0.1,0.2-0.2,0.3-0.3c0,0,0-0.1,0-0.1c0-0.1,0.1-0.1,0.1-0.2  C92.5,74.9,97.6,58.3,76,33.8z M70.3,24.5c1.2-0.1,2.4,0.5,3.6,1.7c1.2,1.2,1.8,2.4,1.7,3.6c-0.1,1.4-0.9,2.4-1.4,2.9  c-5.9-0.2-6.8-5.2-6.9-6.7C67.8,25.4,68.9,24.5,70.3,24.5z M9.2,84l41.2-41.2l0,0c0.3-0.3,0.7-0.7,1.3-1.2l5.5-5.5  c0.9,4.2,4.1,6.1,6.9,6.7l-48,48c-0.5,0-1.4-0.2-2.4-0.5l13.9-13.9c0.3-0.3,0.3-0.7,0-1c-0.3-0.3-0.7-0.3-1,0L12.3,89.6c0,0,0,0,0,0  C10.8,88.6,9.4,87,9.2,84z M67.2,41.4c-0.2-0.3-0.5-0.5-0.9-0.5c-0.3,0-7.3-0.1-7.3-7.2c0,0,0,0,0,0c0,0,0,0,0,0l3.6-3.6  c0.3-0.3,0.3-0.7,0-1c-0.3-0.3-0.7-0.3-1,0l-3.4,3.4c-8.8-8.6-24.7-19.3-30.6-23.1C33.1,8.8,46.9,9.6,65.2,26c0.2,3,2,7.7,7.6,8.6  L70,37.3c-0.3,0.3-0.3,0.7,0,1c0.1,0.1,0.3,0.2,0.5,0.2s0.4-0.1,0.5-0.2l3.3-3.3C90.4,53.2,91.2,67,90.6,72.4  c-3.9-5.9-14.6-22-23.2-30.8C67.3,41.5,67.3,41.5,67.2,41.4z"></path><path d="M41.6,13.6c-0.4-0.1-0.8,0.2-0.8,0.5s0.2,0.8,0.5,0.8c0.1,0,7.2,1.7,12.6,7.1c0.1,0.1,0.3,0.2,0.5,0.2s0.4-0.1,0.5-0.2  c0.3-0.3,0.3-0.7,0-1C49.2,15.3,41.9,13.7,41.6,13.6z"></path><path d="M83.2,55.3c-6.2-9.7-9.5-12.4-9.6-12.5c-0.3-0.2-0.7-0.2-1,0.1c-0.2,0.3-0.2,0.7,0.1,1c0,0,3.3,2.8,9.3,12.2  c0.1,0.2,0.4,0.3,0.6,0.3c0.1,0,0.3,0,0.4-0.1C83.3,56.1,83.4,55.7,83.2,55.3z"></path><path d="M67.4,34.5l-3.8,3.8c-0.3,0.3-0.3,0.7,0,1c0.1,0.1,0.3,0.2,0.5,0.2c0.2,0,0.4-0.1,0.5-0.2l3.8-3.8c0.3-0.3,0.3-0.7,0-1  C68.1,34.3,67.7,34.3,67.4,34.5z"></path><path d="M70.5,29.8c0.2,0,0.4-0.1,0.5-0.2c0.3-0.3,0.3-0.7,0-1c-1.4-1.4-0.8-2.3-0.6-2.5c0.3-0.3,0.2-0.7,0-1c-0.3-0.3-0.7-0.3-1,0  c-0.6,0.7-1.3,2.5,0.6,4.5C70.1,29.7,70.3,29.8,70.5,29.8z"></path></svg>
