<svg xmlns="http://www.w3.org/2000/svg" version="1.1" x="0px" y="0px" viewBox="0 0 600 600" enable-background="new 0 0 600 600" xml:space="preserve"><g><g><path d="M454.504,326.381l-27.792-27.869c-1.259-1.262-4.205-4.218-3.438-8.037c0.181-0.898,0.532-1.625,0.814-2.21    c0.116-0.239,0.291-0.601,0.316-0.729c-0.034-0.104-0.268-0.53-1.203-1.528l-13.702-14.6c-4.167-4.441-8.891-9.474-14.703-11.618    c-4.96-1.828-11.693-1.007-14.371,3.536l-1.881,3.19l-7.056-6.139l4.043-4.646l1.828,1.591c5.066-4.997,13.374-5.595,19.567-3.31    c7.178,2.646,12.43,8.243,17.063,13.181l13.703,14.601c1.027,1.096,3.164,3.375,2.831,6.429c-0.125,1.136-0.567,2.052-0.892,2.721    c-0.124,0.257-0.294,0.608-0.32,0.742c-0.028,0.14,0.017,0.727,1.76,2.476l24.867,24.935    c22.156-9.732,40.171-27.947,49.614-50.254l0.964-2.276l2.431,0.448c6.132,1.13,12.391,1.429,18.604,0.891l0.533,6.136    c-5.948,0.516-11.938,0.326-17.837-0.564c-10.588,23.389-30.09,42.302-53.843,52.115L454.504,326.381z"></path></g><g><path d="M536.75,270.783l-4.486-4.22c1.824-1.94,3.868-3.604,5.845-5.212c1.903-1.549,3.7-3.012,5.244-4.653    c0.398-0.424,0.802-0.846,1.205-1.267c1.127-1.177,2.19-2.289,3.165-3.461c0.723-0.869,1.718-2.176,2.031-3.508    c0.231-0.986,0.006-2.091-0.71-3.478c-0.742-1.434-1.62-2.824-2.55-4.295c-0.274-0.434-0.548-0.867-0.818-1.301    c-2.491-4.005-5.086-8.013-7.712-11.914c-2.631-3.907-5.368-7.819-8.138-11.627c-2.761-3.799-5.639-7.61-8.552-11.327    c-0.31-0.396-0.617-0.794-0.926-1.193c-1.133-1.466-2.203-2.851-3.375-4.103c-1.169-1.248-2.47-2.029-4.216-2.532    c-0.336-0.097-0.673-0.188-1.009-0.281c-1.826-0.5-3.896-1.065-5.819-2.349c-2.347-1.566-4.088-3.705-5.536-5.585    c-2.016-2.62-4.01-5.257-6.004-7.894l-13.884-18.295l4.906-3.724l13.89,18.304c1.983,2.623,3.968,5.246,5.973,7.852    c1.201,1.561,2.505,3.172,4.073,4.218c1.094,0.729,2.453,1.101,4.026,1.532c0.363,0.099,0.727,0.199,1.089,0.303    c2.796,0.806,5.088,2.193,7.005,4.24c1.373,1.466,2.584,3.033,3.755,4.548l0.899,1.159c2.959,3.775,5.882,7.646,8.687,11.504    c2.812,3.868,5.593,7.841,8.265,11.809c2.667,3.962,5.303,8.033,7.833,12.101c0.262,0.421,0.527,0.842,0.794,1.263    c0.959,1.517,1.951,3.086,2.814,4.758c1.41,2.728,1.814,5.251,1.235,7.715c-0.611,2.6-2.172,4.69-3.292,6.037    c-1.111,1.337-2.3,2.58-3.45,3.781c-0.391,0.409-0.782,0.817-1.169,1.229c-1.824,1.939-3.867,3.603-5.843,5.21    C540.093,267.678,538.294,269.141,536.75,270.783z"></path></g><g><path d="M527.004,274.126l-0.193-6.156l0.097,3.078l-0.1-3.078c0.689-0.037,2.851-0.985,4.012-1.495    c1.213-0.532,2.358-1.035,3.36-1.347l1.832,5.881c-0.675,0.21-1.713,0.666-2.718,1.106    C531.004,273.119,528.842,274.068,527.004,274.126z"></path></g><g><path d="M508.653,273.942c-10.639-8.721-21.745-17.143-33.011-25.031l-2.062-1.444l1.005-2.308    c4.239-9.74,2.685-21.901-3.869-30.261c-0.725-0.924-1.511-1.818-2.344-2.763c-1.831-2.08-3.726-4.231-5.096-6.9    c-0.012-0.023-0.023-0.046-0.035-0.069c-2.653,1.895-6.118,2.962-10.318,3.176l-0.314-6.151c3.331-0.169,5.879-0.992,7.576-2.445    c1.492-1.279,2.539-3.667,1.706-5.449l-1.382-2.956l3.031-1.208c2.049-0.817,3.454-0.082,4.11,0.428    c2.055,1.599,1.707,4.242,1.304,7.302c-0.177,1.348-0.508,3.857-0.195,4.567c1.017,1.979,2.58,3.755,4.236,5.635    c0.853,0.969,1.734,1.971,2.568,3.034c7.387,9.423,9.511,22.85,5.589,34.159c10.714,7.573,21.27,15.613,31.404,23.921    L508.653,273.942z"></path></g><g><path d="M545.504,262.882l-5.498-2.776c1.289-2.552,3.035-9.153,2.956-11.93c-0.142-4.902-5.272-8.517-7.472-9.843    c-3.925-2.367-8.286-3.957-12.902-5.639c-6.043-2.203-12.292-4.48-17.585-8.672c-0.244-0.193-0.486-0.391-0.729-0.589    c-0.854-0.696-1.659-1.354-2.437-1.686c-2.334-0.998-4.939,0.316-8.952,2.597c-3.713,2.111-7.922,4.503-12.678,3.791l0.914-6.091    c2.65,0.401,5.598-1.279,8.719-3.054c4.268-2.427,9.104-5.18,14.419-2.906c1.575,0.674,2.815,1.685,3.908,2.577    c0.22,0.179,0.438,0.358,0.659,0.533c4.514,3.575,10.03,5.586,15.87,7.714c4.689,1.709,9.538,3.476,13.975,6.151    c6.479,3.907,10.286,9.353,10.447,14.94C549.23,251.938,547.225,259.474,545.504,262.882z"></path></g><g><path d="M503.714,219.361l-5.939-1.632c2.688-9.783,3.747-19.879,3.148-30.008l6.148-0.363    C507.71,198.16,506.58,208.928,503.714,219.361z"></path></g><g><path d="M472.875,310.559c-0.539-10.81-4.247-22.433-9.918-31.092l5.152-3.374c6.244,9.535,10.325,22.305,10.918,34.16    L472.875,310.559z"></path></g><g><path d="M453.407,294.22l-1.267-1.758c-2.133-3.133-1.426-7.826-0.678-12.794c0.41-2.721,1.097-7.275,0.322-8.412l5.09-3.467    c2.135,3.133,1.428,7.827,0.679,12.796c-0.286,1.903-0.708,4.702-0.671,6.602c2.995-0.526,8.671-1.54,10.67-2.437l2.521,5.62    c-2.559,1.147-7.551,2.081-12.444,2.939c-0.891,0.156-1.9,0.333-2.141,0.393L453.407,294.22z"></path></g><g><path d="M468.17,278.185l-4.568-4.13c7.015-7.76,11.762-16.83,13.73-26.228l6.027,1.263    C481.169,259.555,475.916,269.616,468.17,278.185z"></path></g><g><path d="M463.525,280.73c-2.779-4.967-8.618-7.441-13.027-8.642c-2.801-0.763-5.655-1.248-8.679-1.762    c-3.097-0.526-6.3-1.07-9.452-1.942l1.643-5.936c2.851,0.789,5.761,1.283,8.841,1.806c3.036,0.516,6.176,1.049,9.267,1.891    c5.546,1.511,12.96,4.746,16.783,11.577L463.525,280.73z"></path></g><g><path d="M426.739,281.595l-5.949-1.594c0.457-1.709,2.185-4.705,4.965-9.45c1.607-2.743,4.036-6.889,4.328-7.927l5.949,1.594    c-0.457,1.708-2.184,4.703-4.964,9.447C429.461,276.41,427.031,280.556,426.739,281.595z"></path></g><g><path d="M428.483,267.006c-2.764-5.031-5.764-10.144-8.666-15.087c-2.924-4.981-5.947-10.132-8.753-15.239    c-0.583-1.062-1.381-2.515-1.497-4.296l6.146-0.4c0.027,0.416,0.428,1.145,0.749,1.731c2.764,5.03,5.764,10.143,8.666,15.087    c2.924,4.981,5.947,10.132,8.753,15.239L428.483,267.006z"></path></g><g><path d="M468.578,243.956c-8.713-5-18.574-8.392-28.518-9.809l-2.3-0.328l-1.19-8.653l-8.242,8.122l-4.322-4.388l16.992-16.743    l2.236,16.254c9.923,1.699,19.699,5.205,28.41,10.204L468.578,243.956z"></path></g><g><path d="M441.197,219.466l-6.152-0.304c0.383-7.756-1.112-19.077-5.3-25.603l5.184-3.326    C439.874,197.941,441.641,210.469,441.197,219.466z"></path></g><g><path d="M453.571,197.947c-2.814,0-5.407-1.61-6.765-4.444c-1.998-4.169-0.61-10.181,5.905-13.603l2.863,5.453    c-3.226,1.694-3.938,3.977-3.214,5.489c0.29,0.607,0.854,1.238,1.892,0.787l2.455,5.648    C455.666,197.73,454.604,197.947,453.571,197.947z"></path></g><g><path d="M439.688,164.677c-0.709-5.792-3.127-11.477-6.81-16.006l4.779-3.886c4.404,5.417,7.296,12.215,8.144,19.144    L439.688,164.677z"></path></g><g><path d="M418.155,133.674c-6.236-2.236-13.109-5.178-15.729-11.827c-0.302-0.766-0.535-1.539-0.761-2.286    c-0.415-1.376-0.886-2.936-1.518-3.202c-0.358-0.151-1.192-0.102-1.931-0.058c-1.545,0.091-3.66,0.214-5.588-1.057l-1.108-0.73    l-0.229-1.308c-2.403-13.691-0.19-28.022,6.23-40.352l5.463,2.845c-5.495,10.551-7.577,22.725-5.935,34.493    c0.283-0.008,0.574-0.025,0.805-0.039c1.338-0.079,3.005-0.177,4.686,0.532c3.3,1.391,4.295,4.689,5.021,7.097    c0.198,0.658,0.386,1.279,0.595,1.809c1.675,4.251,6.884,6.424,12.076,8.286L418.155,133.674z"></path></g><g><path d="M370.008,125.319c-1.556-6.394,0.928-13.796,6.039-18.001c2.86-2.353,6.285-3.504,9.971-3.438    c-1.62-1.656-3.497-3.144-4.912-3.921l-1.341-0.736l-0.225-1.513c-0.5-3.388-2.373-4.529-3.854-4.891    c-1.801-0.438-3.197,0.192-3.423,0.505c0.012-0.016,0.046-0.079,0.061-0.172l-6.086-0.952c0.525-3.353,3.901-5.687,8.219-5.687    c0.018,0,0.033,0,0.051,0c4.438,0.019,9.318,2.768,10.836,8.824c3.685,2.446,9.278,7.68,10.172,12.681l1.04,5.816l-5.363-2.479    c-4.34-2.006-8.223-1.756-11.231,0.72c-3.301,2.715-4.97,7.672-3.968,11.788L370.008,125.319z"></path></g><g><path d="M361.523,94.852c-2.218-2.608-4.655-4.939-7.235-7.407c-2.58-2.466-5.247-5.017-7.67-7.867l4.691-3.99    c2.218,2.608,4.655,4.938,7.234,7.406c2.58,2.467,5.248,5.018,7.671,7.869L361.523,94.852z"></path></g><g><path d="M390.233,151.566l-5.91-1.73c0.441-1.508,1.052-2.981,1.807-4.374l-21.077-8.319l2.262-5.729l28.518,11.256l-2.644,3.262    C391.852,147.58,390.83,149.528,390.233,151.566z"></path></g><g><path d="M413.91,175.638c-0.858-2.212-4.886-9.554-5.836-11.074c-3.244-2.869-6.209-6.077-9.079-9.182    c-2.973-3.216-5.781-6.254-8.888-8.969l4.053-4.638c3.354,2.932,6.406,6.233,9.357,9.426c2.974,3.217,5.782,6.255,8.89,8.971    c1.291,1.129,6.645,11.691,7.245,13.238L413.91,175.638z"></path></g><g><path d="M379.803,189.596l-6.143-0.457c0.156-2.104-0.285-4.296-1.243-6.175c-0.136-0.265-0.281-0.528-0.427-0.792    c-0.59-1.066-1.322-2.393-1.57-4.004c-0.541-3.522,1.369-6.274,2.903-8.485c0.917-1.321,1.783-2.569,1.99-3.693l6.057,1.117    c-0.447,2.428-1.797,4.372-2.987,6.087c-1.271,1.833-2.032,3.018-1.875,4.038c0.081,0.527,0.466,1.224,0.873,1.961    c0.178,0.322,0.355,0.645,0.521,0.97C379.388,183.076,380.045,186.337,379.803,189.596z"></path></g><g><path d="M374.768,168.245c-0.066-1.826-1.874-5.316-3.326-8.121c-1.176-2.27-2.286-4.414-2.847-6.231l5.887-1.814    c0.396,1.29,1.43,3.284,2.429,5.213c1.915,3.698,3.896,7.521,4.012,10.729L374.768,168.245z"></path></g><g><path d="M356.6,150.012l-5.961-1.53c0.553-2.601,1.501-6.109,2.418-9.501c0.748-2.767,1.517-5.612,2.052-7.894L321.087,81.62    l5.074-3.49l35.533,51.666l-0.274,1.295c-0.103,0.48-0.218,0.991-0.344,1.525l3.384,3.534    C361.596,138.892,357.817,145.976,356.6,150.012z"></path></g><g><path d="M352.264,201.315c-0.113-1.288-0.888-3.643-1.51-5.535c-0.275-0.836-0.541-1.645-0.769-2.399    c-5.763-2.526-10.64-5.92-15.642-10.858l4.328-4.383c4.865,4.805,9.364,7.834,15.044,10.13l1.483,0.6l0.362,1.56    c0.202,0.872,0.61,2.113,1.043,3.427c0.796,2.42,1.619,4.923,1.794,6.921L352.264,201.315z"></path></g><g><path d="M355.25,190.788l-6.025-1.274c0.873-4.131-0.553-8.528-2.062-13.183c-0.306-0.944-0.611-1.885-0.896-2.822    c-2.623-8.616-1.906-15.564,2.073-20.093l4.627,4.065c-3.156,3.591-2.182,9.723-0.808,14.233c0.274,0.901,0.568,1.807,0.862,2.716    C354.714,179.65,356.464,185.047,355.25,190.788z"></path></g><g><path d="M345.83,172.032c-9.93-12.745-20.535-25.207-31.521-37.042l4.514-4.19c11.106,11.964,21.827,24.563,31.866,37.447    L345.83,172.032z"></path></g><g><path d="M333.268,207.204c-0.072-0.329-0.734-2.188-6.669-6.467l-0.618-0.443c-2.446-1.749-5.22-3.731-6.781-6.896    c-1.173-2.38-1.274-5.365-0.265-7.79c0.555-1.331,1.409-2.423,2.482-3.2l-22.598-45.683c-1.129-2.284-2.409-4.872-2.685-7.876    c-0.184-2.003,0.118-3.919,0.384-5.61c0.19-1.205,0.369-2.343,0.368-3.401c-0.004-5.051-3.904-9.491-8.249-13.971l4.422-4.288    c5.049,5.207,9.98,10.906,9.986,18.253c0.001,1.542-0.225,2.978-0.443,4.365c-0.23,1.465-0.448,2.849-0.335,4.088    c0.171,1.864,1.138,3.818,2.073,5.708l26.95,54.48l-2.816,1.347c-0.945,0.452-2.49,0.839-4.056-0.255    c0.04,0.394,0.143,0.778,0.306,1.108c0.877,1.778,2.801,3.153,4.839,4.609l0.638,0.458c5.631,4.06,8.432,7.186,9.083,10.138    L333.268,207.204z"></path></g><g><path d="M440.36,120.808c-0.517-0.124-1.15-0.22-1.821-0.321c-2.616-0.397-6.193-0.94-8.585-4.054    c-1.164-1.418-1.546-2.761-1.825-3.745c-0.125-0.44-0.225-0.789-0.355-1.003c-3.538-5.764-8.277-10.375-13.295-15.257    c-2.37-2.306-4.821-4.691-7.157-7.225c-0.7-0.761-1.494-1.622-2.212-1.917c-0.631-0.259-1.623-0.291-2.674-0.324    c-2.032-0.064-4.815-0.152-6.9-2.274l4.393-4.317c0.354,0.361,1.603,0.4,2.703,0.436c1.479,0.047,3.156,0.1,4.817,0.782    c1.983,0.814,3.382,2.333,4.402,3.441c2.222,2.41,4.611,4.735,6.923,6.984c5.068,4.931,10.309,10.03,14.25,16.452    c0.574,0.938,0.827,1.826,1.03,2.541c0.217,0.766,0.328,1.122,0.677,1.541l0.093,0.116c0.821,1.087,2.301,1.381,4.641,1.736    c0.767,0.116,1.559,0.237,2.326,0.419L440.36,120.808z"></path></g><g><path d="M399.169,78.697c-5.48-4.833-10.972-9.997-16.282-14.992c-5.273-4.959-10.727-10.087-16.131-14.854    c-0.062-0.055-0.181-0.159-0.297-0.255c-0.026,0.011-0.049,0.021-0.065,0.029c-7.63,3.396-14.478,8.59-19.806,15.023    c-0.365,1.045,0.468,4.883,1.477,5.98l-4.391,4.319c-2.496-2.531-4.907-10.497-1.91-14.131    c5.942-7.205,13.594-13.021,22.127-16.819c0.576-0.255,1.653-0.722,2.932-0.675c1.938,0.086,3.283,1.271,4.007,1.908    c5.479,4.833,10.969,9.995,16.277,14.987c5.275,4.961,10.73,10.091,16.137,14.859L399.169,78.697z M366.804,48.459L366.804,48.459    L366.804,48.459z"></path></g><g><path d="M293.951,108.265l-4.311-4.399c15.616-15.302,32.904-28.987,51.384-40.675l3.293,5.205    C326.203,79.852,309.258,93.266,293.951,108.265z"></path></g><g><path d="M390.818,254.906l-5.623-2.512c19.624-43.94,34.646-90.087,44.646-137.159l6.025,1.28    C425.775,164.01,410.619,210.571,390.818,254.906z"></path></g><g><path d="M399.404,257.73l-5.676-2.394c17.946-42.553,32.351-91.127,41.654-140.473l6.053,1.142    C432.052,165.773,417.518,214.781,399.404,257.73z"></path></g><g><path d="M424.048,190.366c-1.982,0-3.629-0.841-4.63-2.491l5.268-3.193c-0.184-0.302-0.525-0.459-0.659-0.473    c0.198,0.024,0.977-0.125,1.983-0.692c16.027-9.024,35.315-17.193,57.328-24.279l1.887,5.862    c-21.619,6.96-40.525,14.962-56.193,23.784C427.268,189.876,425.561,190.366,424.048,190.366z"></path></g><g><path d="M428.185,174.727l-2.693-5.539c13.388-6.511,27.177-12.636,40.983-18.205l2.305,5.712    C455.104,162.21,441.445,168.277,428.185,174.727z"></path></g><g><path d="M338.294,209.746l-1.227-6.035c27.536-5.6,53.479-16.15,77.105-31.36l3.334,5.179    C393.234,193.154,366.583,203.994,338.294,209.746z"></path></g><g><path d="M332.976,223.681l3.961-7.041c-0.029-0.223-0.25-0.7-0.61-1c-0.325-0.271-0.675-0.521-1.023-0.774    c-1.181-0.856-2.651-1.922-3.576-3.669c-0.744-1.407-0.618-3.083,0.336-4.486c1.386-2.038,4.602-3.533,7.024-3.263l-0.673,6.063    c0.162,0.121,0.332,0.244,0.504,0.369c0.46,0.333,0.919,0.669,1.35,1.028c0.893,0.743,1.667,1.752,2.18,2.888    c10.497-3.719,21.029-7.474,31.562-11.229c11.807-4.209,23.613-8.418,35.369-12.577l2.055,5.807    c-11.751,4.157-23.554,8.365-35.355,12.572c-11.807,4.209-23.613,8.418-35.369,12.577L332.976,223.681z"></path></g><g><path d="M387.541,256.313c-6.787-2.326-12.965-8.346-16.483-13.205l-7.276-10.045l3.026-3.133c2.523-2.627,4.706-4.899,7.778-7.31    c0.592-0.535,1.252-1.118,2.294-1.244l0.74,6.114c0.795-0.096,1.286-0.475,1.34-0.518c-0.069,0.056-0.149,0.13-0.21,0.186    c-0.136,0.123-0.247,0.216-0.3,0.258c-2.553,1.998-4.5,3.973-6.654,6.212l4.25,5.868c3.053,4.215,8.408,9.249,13.491,10.991    L387.541,256.313z"></path></g><g><path d="M378.938,229.306c-0.838-1.118-2.518-1.696-4.463-2.365c-1.379-0.475-2.806-0.965-4.188-1.733    c-5.13-2.853-7.55-8.428-9.317-12.5l5.65-2.452c1.836,4.23,3.604,7.869,6.66,9.569c0.907,0.504,2.02,0.887,3.197,1.292    c2.538,0.873,5.415,1.863,7.388,4.495L378.938,229.306z"></path></g><g><path d="M480.05,161.975c-0.262-0.784-1.198-2.481-1.95-3.845c-0.537-0.974-1.058-1.919-1.494-2.788    c-1.042,0.137-2.268,0.463-3.396,0.763c-1.439,0.383-2.929,0.779-4.374,0.919l-3.745,0.365l0.383-3.743    c0.444-4.349-1.011-8.122-4.209-10.912c-2.158-1.884-4.605-3.439-7.197-5.086c-1.862-1.184-3.789-2.408-5.631-3.783    c-5.01-3.74-9.316-8.573-12.453-13.978l5.326-3.092c2.724,4.691,6.462,8.887,10.811,12.133c1.657,1.236,3.402,2.346,5.251,3.521    c2.671,1.698,5.433,3.453,7.942,5.643c3.659,3.192,5.822,7.379,6.297,12.063c0.006-0.001,0.012-0.003,0.017-0.004    c2.354-0.626,5.02-1.335,7.522-0.901l1.812,0.314l0.583,1.744c0.262,0.784,1.198,2.481,1.95,3.845    c1.008,1.827,1.959,3.553,2.398,4.868L480.05,161.975z"></path></g><g><path d="M475.545,155.309l-1.963-5.838c1.009-0.339,1.522-0.639,1.766-0.814c-0.275-0.639-1.164-1.766-1.725-2.476    c-0.741-0.94-1.507-1.912-2.052-2.942c-4.798-9.082-9.665-17.829-16.435-25.005l4.48-4.227c7.3,7.738,12.396,16.882,17.4,26.355    c0.282,0.534,0.872,1.282,1.442,2.005c1.714,2.174,3.847,4.878,2.898,8.063C480.391,153.681,476.743,154.906,475.545,155.309z"></path></g><g><path d="M478.889,153.865c-0.52,0-1.043-0.052-1.564-0.159l1.23-6.035c0.575,0.118,1.171-0.087,1.772-0.608    c1.052-0.911,1.73-2.492,1.651-3.846c-0.172-2.957-2.218-5.772-4.672-8.882l-16.132-20.438c-0.366-0.463-0.669-0.812-0.919-1.075    c-0.197,0.999-0.249,2.181-0.04,2.646c-0.001-0.003-0.05-0.109-0.189-0.246l-4.314,4.396c-2.483-2.438-1.978-7.449-0.824-10.23    c1.275-3.076,3.25-3.509,4.376-3.508c3.459,0.036,5.679,2.849,6.745,4.201l16.132,20.437c2.4,3.042,5.688,7.207,5.986,12.34    c0.188,3.235-1.29,6.713-3.767,8.859C482.733,153.128,480.833,153.865,478.889,153.865z"></path></g><g><path fill="none" stroke="#000000" stroke-width="6.159" stroke-miterlimit="10" d="M438.588,114.76"></path></g><g><path fill="none" stroke="#000000" stroke-width="6.159" stroke-miterlimit="10" d="M443.737,114.828"></path></g><g><path d="M442.022,121.223c0.06-0.033,0.105-0.068,0.143-0.096l-3.701-4.923c0.911-0.685,2.509-1.269,7.216-2.896    c3.623-1.252,8.585-2.968,10.476-4.088l3.141,5.299c-2.429,1.438-7.304,3.124-11.604,4.611    C445.438,119.908,442.635,120.877,442.022,121.223z"></path></g><g><path d="M486.934,124.257l-4.454-4.238l6.611-7.863c0.111-0.131,0.355-0.422,0.505-0.639c-0.167-0.264-0.477-0.637-0.597-0.781    l-5.04-6.065c-1.749,2.223-3.706,4.862-5.618,7.441c-2.159,2.913-4.198,5.665-5.877,7.736l-1.654,2.042l-2.276-1.313    c-1.117-0.644-1.853-1.697-2.07-2.966c-0.548-3.183,2.372-6.896,6.557-11.796c0.738-0.864,1.436-1.681,1.783-2.154    c2.056-2.795,2.889-4.935,2.623-6.733c-0.119-0.801-0.811-1.704-1.607-2.099c-0.141-0.069-0.31-0.137-0.479-0.165    c-4.007,5.906-8.546,11.496-13.503,16.627l-4.43-4.279c4.961-5.135,9.48-10.751,13.433-16.694l0.418-0.628l0.661-0.364    c2.007-1.104,4.427-1.11,6.635-0.015c2.5,1.239,4.396,3.719,4.909,6.385l0.535-0.616l9.739,11.721    c0.332,0.399,0.785,0.945,1.186,1.624l0.896-0.833l4.193,4.512L486.934,124.257z M489.706,111.328L489.706,111.328    L489.706,111.328z"></path></g><g><path d="M486.204,149.011l-4.777-3.888c5.81-7.137,15.034-15.268,23.132-20.535c-3.808-3.453-8.424-8.079-10.769-11.564    l5.111-3.438c2.549,3.79,9.032,9.929,12.821,13.078l3.447,2.864l-3.909,2.191C503.027,132.334,492.49,141.289,486.204,149.011z"></path></g><g><path d="M380.379,259.515c-2.937-2.265-6.615-5.005-10.511-7.905c-10.25-7.631-23.007-17.129-30.285-24.039l4.24-4.467    c7.012,6.656,19.604,16.032,29.723,23.565c3.917,2.917,7.617,5.671,10.595,7.969L380.379,259.515z"></path></g><g><path d="M367.932,237.552c-10.188-3.732-18.417-9.188-27.517-18.241l4.344-4.366c8.429,8.385,15.993,13.417,25.292,16.824    L367.932,237.552z"></path></g><g><path d="M340.611,230.262c-0.312,0-0.636-0.038-0.971-0.118c-1.838-0.442-3.003-1.987-3.462-4.594l5.727-1.01    c-0.186-0.139-0.425-0.271-0.722-0.358c-0.762-0.22-1.364,0.019-1.516,0.12c0.457-0.306,1.504-1.692,2.129-2.521    c1.262-1.671,2.258-2.992,3.564-3.622l2.678,5.546c0.164-0.079,0.251-0.149,0.252-0.15c-0.306,0.251-1.071,1.266-1.578,1.937    C344.939,227.842,343.112,230.262,340.611,230.262z"></path></g><g><path d="M354.942,283.473l0.083-7.005c0.089-7.562-3.661-15.772-6.969-23.016l-0.853-1.871c-2.046-4.514-4.347-9.866-6.571-15.042    c-2.213-5.151-4.502-10.478-6.524-14.938l5.609-2.543c2.047,4.516,4.349,9.871,6.574,15.049c2.213,5.149,4.5,10.473,6.521,14.931    l0.845,1.855c2.6,5.691,5.451,11.935,6.775,18.354c0.708-0.818,1.463-1.628,2.315-2.393c0.562-0.503,1.411-1.265,1.535-1.75    l0.016-0.059l-0.424-1.302c-0.369-1.136-1.234-3.795,0.371-5.777c1.508-1.862,3.747-1.626,5.542-1.436    c1.575,0.165,3.205,0.338,4.459-0.508l3.443,5.107c-2.43,1.637-5.031,1.78-7.027,1.66c0.269,1.265-0.071,2.545-0.32,3.484    l-0.091,0.348c-0.586,2.303-2.275,3.817-3.393,4.819c-1.068,0.957-2.02,2.114-3.026,3.339c-1.109,1.351-2.257,2.747-3.675,4.017    L354.942,283.473z"></path></g><g><path d="M364.274,266.583c-1.538-6.401-4.457-11.722-7.549-17.355c-2.076-3.785-4.224-7.698-6.025-12.093l5.699-2.336    c1.67,4.073,3.732,7.832,5.727,11.466c3.149,5.741,6.406,11.677,8.137,18.88L364.274,266.583z"></path></g><g><path d="M352.854,264.029l-1.134-0.837c-8.4-6.192-10.711-8.406-19.323-28.161l5.646-2.461    c8.279,18.991,10.017,20.272,17.331,25.664l1.146,0.846L352.854,264.029z"></path></g><g><path fill="none" stroke="#000000" stroke-width="6.159" stroke-miterlimit="10" d="M335.757,231.696"></path></g><g><path d="M331.746,311.22l-0.218-8.671c-0.209-8.307-7.347-18.931-13.84-24.011l3.795-4.851    c6.016,4.706,12.282,13.21,14.919,21.564c7.029-8.628,14.646-16.841,22.704-24.479l4.236,4.47    c-9.475,8.98-18.323,18.775-26.298,29.11L331.746,311.22z"></path></g><g><path d="M340.634,296.076c-11.444-11.685-24.17-22.178-37.823-31.187l-3.861-2.548l3.84-2.579    c5.154-3.461,10.042-7.39,14.529-11.678l2.329-2.225l2.118,2.425c10.112,11.579,22.69,21.399,36.373,28.401l-2.805,5.483    c-13.433-6.874-25.851-16.333-36.089-27.468c-2.963,2.678-6.075,5.209-9.303,7.568c12.604,8.667,24.393,18.575,35.091,29.498    L340.634,296.076z"></path></g><g><path fill="none" stroke="#000000" stroke-width="6.159" stroke-miterlimit="10" d="M322.95,249.205"></path></g><g><path d="M350.221,279.053c-3.454-4.956-7.517-11.247-11.446-17.331c-3.9-6.039-7.934-12.284-11.325-17.15l5.053-3.521    c3.454,4.956,7.517,11.247,11.446,17.331c3.9,6.039,7.934,12.284,11.325,17.15L350.221,279.053z"></path></g><g><path d="M320.673,253.38l-3.912-4.757c5.044-4.148,9.888-8.875,14.572-13.446l1.602-1.562l4.38,4.329l-1.811,1.903l-0.069-0.067    C330.72,244.381,325.846,249.126,320.673,253.38z"></path></g><g><path d="M273.362,371.91l-5.12-3.422c16.8-25.136,35.842-53.624,63.347-71.481l3.354,5.166    C308.501,319.34,289.833,347.27,273.362,371.91z"></path></g><g><path fill="none" stroke="#000000" stroke-width="6.159" stroke-miterlimit="10" d="M266.382,375.234"></path></g><g><path fill="none" stroke="#000000" stroke-width="6.159" stroke-miterlimit="10" d="M267.281,366.955"></path></g><g><path d="M234.122,426.254l0.151-6.638c0.408-17.9-6.163-39.092-17.147-55.304l5.099-3.455    c10.552,15.573,17.105,34.753,18.095,52.474l5.069-4.093c1.825-1.474,3.712-2.997,5.132-4.723c3.253-3.95,4.8-9.505,5.015-18.009    c0.115-4.521,2.524-6.316,4.74-6.488l1.181-0.092l2.043,1.575c0.949-0.624,1.832-2.024,2.949-3.914    c0.385-0.651,0.766-1.293,1.156-1.891c1.113-1.705,0.214-4.658-2.673-8.778l-0.627-0.896l5.046-3.531l0.624,0.891    c1.668,2.381,6.743,9.623,2.787,15.682c-0.342,0.523-0.674,1.087-1.011,1.658c-1.695,2.866-4.016,6.793-8.554,7.256l-1.221,0.125    l-0.321-0.248c-0.241,6.111-1.293,14.399-6.379,20.576c-1.818,2.208-3.953,3.932-6.017,5.598L234.122,426.254z"></path></g><g><path d="M253.769,399.371c-8.404-14.844-17.222-36.981-22.234-52.337l5.855-1.91c4.757,14.574,13.588,36.817,21.738,51.212    L253.769,399.371z"></path></g><g><path d="M263.228,383.732c-4.295-5.187-9.535-11.666-14.602-17.933c-5.045-6.239-10.262-12.691-14.525-17.841l4.744-3.928    c4.287,5.177,9.515,11.643,14.571,17.896c5.056,6.252,10.283,12.718,14.555,17.877L263.228,383.732z"></path></g><g><path d="M264.876,366.838c-5.236-7.996-8.753-11.776-13.622-17.008c-1.988-2.137-4.232-4.549-6.873-7.554l-8.474,6.58    l-3.777-4.865l8.724-6.773c0.689-0.534,2.296-1.778,4.41-1.473c1.819,0.269,2.935,1.542,3.471,2.154    c2.702,3.085,5,5.555,7.029,7.734c4.885,5.25,8.743,9.396,14.266,17.831L264.876,366.838z"></path></g><g><path d="M246.663,340.558l-4.69-3.992c19.769-23.226,42.971-49.765,68.192-70.794l3.943,4.73    C289.261,291.22,266.266,317.526,246.663,340.558z"></path></g><g><path d="M309.329,293.87l-4.91-3.717c4.186-5.53,8.867-10.749,13.915-15.512l4.227,4.479    C317.761,283.649,313.31,288.612,309.329,293.87z"></path></g><g><rect x="317.181" y="286.68" transform="matrix(0.7304 -0.683 0.683 0.7304 -110.9579 298.4041)" width="10.692" height="6.159"></rect></g><g><path d="M116.73,562.702l-2.777-1.105c-6.908-2.752-13.302-6.568-19.002-11.345c-0.51-0.426-1.576-1.317-1.928-2.849    c-0.387-1.695,0.339-3.069,0.688-3.729l4.936-9.335l-5.808,5.02c-0.257,0.735-0.776,1.379-1.508,1.782    c-1.358,0.749-3.414,0.592-4.502-0.973c-0.801-1.151-0.73-2.666,0.107-3.758l-0.359-0.358c0.536-0.536,1.21-0.908,1.926-1.086    l16.403-14.178c1.309-1.133,3.243-1.171,4.599-0.094c1.356,1.078,1.752,2.973,0.943,4.504l-10.991,20.788    c4.296,3.518,9.01,6.445,14.055,8.73c5.291-11.585,11.98-22.495,19.911-32.47c3.87-4.865,9.461-8.444,14.377-7.021    c6.856-9.165,14.229-17.016,22.001-25.292c2.747-2.925,5.587-5.948,8.387-9.021l4.552,4.148c-2.832,3.106-5.688,6.147-8.449,9.088    c-8.222,8.754-15.987,17.022-23.045,26.785l-1.876,2.595l-2.52-1.976c-2.126-1.672-6.313,1.644-8.607,4.527    c-8.229,10.349-15.066,21.747-20.324,33.879L116.73,562.702z M87.296,536.77c-0.47,0.774-0.576,1.756-0.208,2.627    c0.339,0.802,1.074,1.401,1.917,1.565c0.427,0.082,1.25,0.122,1.93-0.559L87.296,536.77z M91.433,540.575l-0.004,0.003    C91.43,540.577,91.431,540.576,91.433,540.575z"></path></g><g><path d="M96.937,542.564c-1.125-0.789-2.919-1.9-5.511-2.436l1.246-6.031c2.786,0.575,5.338,1.695,7.803,3.426L96.937,542.564z"></path></g><g><path d="M88.967,541.873c-9.224-6.964-17.651-16.275-23.729-26.219l-1.661-2.718l2.772-1.569    c19.696-11.145,35.88-27.995,51.532-44.291c7.698-8.015,15.658-16.302,23.999-23.893c0.003-0.023,0.021-0.105,0.043-0.179    c0.23-0.763,0.932-3.081,4.143-3.335l0.484,6.141c0.421-0.062,1.11-0.591,1.314-1.173l-0.047,0.15    c-0.192,0.637-0.551,1.82-1.793,2.95c-8.188,7.452-16.075,15.663-23.702,23.604C107.1,487.193,91.38,503.56,72.185,515.094    c5.508,8.294,12.697,15.978,20.494,21.863L88.967,541.873z"></path></g><g><path d="M175.564,485.222c-7.941-13.781-19.982-28.566-33.036-40.562l-1.346-1.237l0.441-1.773c0.858-3.451,4.026-6.83,8.07-8.61    c0.251-0.11,0.503-0.214,0.753-0.309c0.022-0.729,0.241-1.488,0.654-2.271c0.959-1.814,2.457-3.051,3.967-3.951    c-0.062-0.292-0.104-0.591-0.125-0.896c-0.257-3.611,2.386-7.441,4.727-9.625l10.525-9.816c5.146-4.8,8.887-4.296,11.117-3.031    c0.727,0.412,1.293,0.92,1.749,1.327c0.07,0.062,0.152,0.137,0.234,0.209c0.122-0.146,0.273-0.354,0.447-0.641    c1.86-3.064,3.014-6.57,3.337-10.14l0.052-0.571l0.254-0.516c3.766-7.624,8.545-14.706,14.206-21.051l1.271-1.426l1.842,0.506    c0.926,0.255,2.49,0.685,3.994,1.574c5.718-9.406,13.24-17.46,20.542-25.277c1.3-1.393,2.602-2.786,3.894-4.188l4.528,4.176    c-1.301,1.41-2.611,2.813-3.921,4.216c-8.323,8.91-16.184,17.327-21.695,27.621l-3.204,5.984l-2.393-6.352    c-0.188-0.501-0.829-0.902-1.583-1.22c-4.597,5.396-8.531,11.329-11.712,17.669c-0.477,4.294-1.904,8.496-4.146,12.188    c-2.244,3.699-4.896,3.977-6.279,3.814c-1.792-0.212-2.986-1.282-3.777-1.99c-0.248-0.221-0.528-0.473-0.678-0.558    c-0.383-0.216-1.736,0.18-3.878,2.178l-10.525,9.816c-2.038,1.9-2.966,4.197-2.772,4.765l4.532,3.157l-5.013,2.226    c-1.069,0.463-2.09,0.93-2.868,1.467c0.481,0.259,1.01,0.573,1.568,0.966l-3.24,5.226c-0.839-0.455-2.333-0.311-3.901,0.38    c-1.55,0.682-2.977,1.823-3.829,2.983c12.858,12.118,24.65,26.77,32.555,40.488L175.564,485.222z"></path></g><g><path d="M233.816,413.885c-6.795-16.213-13.283-32.808-19.283-49.324l5.789-2.104c5.966,16.424,12.417,32.926,19.174,49.047    L233.816,413.885z"></path></g><g><path d="M234.369,420.263c-1.422-2.196-2.835-5.393-4.331-8.777c-1.967-4.452-4.197-9.497-6.25-11.622    c-1.627-1.685-3.385-3.37-5.085-5c-5.633-5.402-11.458-10.988-14.792-18.425l5.62-2.52c2.844,6.342,7.988,11.275,13.436,16.499    c1.741,1.67,3.542,3.396,5.251,5.166c2.814,2.912,5.173,8.25,7.454,13.412c1.394,3.154,2.71,6.133,3.867,7.917L234.369,420.263z"></path></g><g><path d="M220.639,442.633c-0.02,0-0.04-0.001-0.06-0.001l-3.457-0.029l0.427-3.431c0.667-5.351-1.906-10.714-5.08-16.668    c-6.424-12.052-13.017-24.244-19.594-36.239l5.4-2.961c6.589,12.016,13.193,24.23,19.629,36.304    c1.935,3.629,4.356,8.172,5.395,13.146c0.005-0.02,0.01-0.04,0.015-0.061c0.135-0.528,0.253-1.071,0.374-1.615    c0.601-2.728,1.281-5.819,3.749-8.133c1.437-1.346,3.236-2.188,4.824-2.932c1.376-0.644,3.088-1.445,3.093-2.028l6.159,0.057    c-0.042,4.461-3.856,6.246-6.642,7.55c-1.229,0.576-2.5,1.171-3.223,1.848c-1.075,1.007-1.498,2.929-1.946,4.963    c-0.134,0.609-0.268,1.216-0.418,1.809C227.981,439.334,224.592,442.633,220.639,442.633z"></path></g><g><path d="M215.111,444.333c-0.045,0-0.091-0.001-0.137-0.003c-0.632-0.021-2.215-0.271-3.263-2.119l-0.109-0.212    c-7.447-15.876-15.529-31.706-24.021-47.051l5.389-2.982c7.953,14.37,15.549,29.163,22.606,44.023    c1.265-1.574,3.238-3.227,5.786-1.849l-2.928,5.418c0.942,0.511,1.925,0.189,2.24-0.095c-0.221,0.198-0.714,0.944-1.009,1.391    C218.639,442.407,217.367,444.332,215.111,444.333z"></path></g><g><path fill="none" stroke="#000000" stroke-width="6.159" stroke-miterlimit="10" d="M215.55,433.667"></path></g><g><path d="M194.269,472.74l-2.573-2.103c-3.666-2.996-6.687-7.591-8.979-13.655c-3.679-9.727-11.935-17.283-19.918-24.59    c-2.007-1.837-4.082-3.736-6.061-5.647l4.278-4.43c1.92,1.854,3.964,3.725,5.94,5.533c8.517,7.795,17.323,15.855,21.521,26.956    c1.349,3.566,2.941,6.473,4.756,8.684c2.972-4.129,5.532-7.065,10.703-10.383l0.973-0.617c2.574-1.624,5.006-3.158,5.79-5.314    c0.081-0.222,0.147-0.45,0.216-0.679c0.272-0.91,0.611-2.043,1.47-3.103c0.658-0.812,1.408-1.313,2.011-1.716    c0.26-0.174,0.554-0.37,0.659-0.482c-0.194,0.207-0.356,0.47-0.218,0.981c0.173,0.639,0.715,1.18,1.383,1.378l1.755-5.904    c1.375,0.409,2.424,1.5,2.808,2.919c0.449,1.662-0.037,3.562-1.237,4.841c-0.586,0.625-1.219,1.048-1.727,1.388    c-0.225,0.15-0.565,0.378-0.652,0.477c-0.095,0.13-0.25,0.646-0.352,0.987c-0.103,0.343-0.207,0.686-0.328,1.018    c-1.503,4.136-5.11,6.411-8.292,8.419l-0.933,0.592c-5.273,3.384-7.193,6.136-11.017,11.618L194.269,472.74z"></path></g><g><path d="M212.01,446.862c-4.934-6.258-10.516-12.676-15.914-18.882c-5.309-6.104-10.799-12.415-15.572-18.471l4.837-3.812    c4.682,5.938,10.122,12.192,15.383,18.241c5.446,6.262,11.077,12.735,16.103,19.109L212.01,446.862z"></path></g><g><path d="M183.017,484.417l-6.145-0.428c0.309-4.443,4.847-9.072,8.726-10.446c0.323-0.115,0.652-0.228,0.982-0.342    c1.442-0.495,2.833-0.973,3.854-1.624l-2.449-4.009l5.256-3.211l4.681,7.663l-1,1.611c-1.995,3.215-5.515,4.424-8.342,5.395    l-0.926,0.321C185.725,480.032,183.124,482.874,183.017,484.417z"></path></g><g><path d="M189.069,469.29c-10.145-12.559-24.597-25.66-37.716-34.193l3.358-5.162c13.624,8.861,28.625,22.458,39.149,35.484    L189.069,469.29z"></path></g></g></svg>
