<svg xmlns="http://www.w3.org/2000/svg" version="1.1" x="0px" y="0px" viewBox="0 0 100 100" style="enable-background:new 0 0 100 100;" xml:space="preserve"><path d="M90.9,9.1c-0.4-0.4-0.9-0.5-1.4-0.4l-7,1.5c-0.3,0.1-0.5,0.2-0.8,0.4L31,61.3l-4.1-4.1c-0.6-0.6-1.5-0.6-2.1,0l-3.6,3.6  c-0.6,0.6-0.6,1.5,0,2.1l4.9,4.9l-11,11l-0.5-0.5c-0.6-0.6-1.5-0.6-2.1,0l-3.4,3.4c-0.6,0.6-0.6,1.5,0,2.1l7.1,7.1  c0.3,0.3,0.7,0.4,1.1,0.4s0.8-0.1,1.1-0.4l3.4-3.4c0.6-0.6,0.6-1.5,0-2.1L21.1,85l11-11l4.9,4.9c0.3,0.3,0.7,0.4,1.1,0.4  s0.8-0.1,1.1-0.4l3.6-3.6c0.6-0.6,0.6-1.5,0-2.1L38.7,69l50.8-50.8c0.2-0.2,0.3-0.5,0.4-0.8l1.5-7C91.5,9.9,91.3,9.4,90.9,9.1z   M17.2,87.8l-4.9-4.9l1.3-1.2l0.5,0.5c0,0,0,0,0,0l3.9,3.9c0,0,0,0,0,0l0.5,0.5L17.2,87.8z M19,82.8L17.2,81l11-11l1.8,1.8L19,82.8z   M38.1,75.7L24.3,61.9l1.5-1.5l4.1,4.1l5.6,5.6l4.1,4.1L38.1,75.7z M87,16.4L36.5,66.9l-3.4-3.4L83.6,13L88,12L87,16.4z"></path></svg>
