<svg xmlns="http://www.w3.org/2000/svg" version="1.1" x="0px" y="0px" viewBox="0 0 100 100"><g transform="translate(5,-935)"><path d="m 53.818352,975.36216 c -0.18923,0.043 -0.36537,0.1417 -0.50008,0.2812 l -33.0055,32.00004 c -0.10662,0.095 -0.19252,0.2131 -0.25004,0.3438 l -8.00133,20 c -0.2457,0.6074 0.28236,1.3818 0.93765,1.375 l 42.00699,0 c 0.26849,0 0.53429,-0.1176 0.71888,-0.3125 l 32.005315,-34.00004 c 0.26957,-0.2849 0.34683,-0.7354 0.18754,-1.0937 l -8.00134,-18 c -0.15508,-0.3487 -0.5247,-0.5909 -0.9064,-0.5938 -8.391955,0 -16.813835,0 -25.191685,0 z m 0.59385,2 22.222445,0 -3.9069,4.0312 -27.035745,4.4063 z m 24.285285,0.75 7.12619,16.0625 -30.505075,32.37504 -7.15744,-16.9687 z m -8.313875,5.6562 -5.40715,5.625 -27.59835,4.5 5.81347,-5.6562 z m -7.72004,8 -3.46933,3.5938 -28.03591,4.5312 3.71937,-3.5937 z m -5.81347,6 -10.28296,10.59384 -24.12901,0 6.21978,-6.0312 z m -35.56842,12.59384 25.06668,0 7.15744,17 -39.03775,0 z"></path></g><text x="4" y="35" font-family="sans-serif" font-size="40px" fill="black">Sn</text></svg>
