<svg xmlns="http://www.w3.org/2000/svg" version="1.1" x="0px" y="0px" viewBox="0 0 100 100" style="enable-background:new 0 0 100 100;" xml:space="preserve"><g><path d="M48.6259766,35.0449219c0.296875,0.3623047,0.7285156,0.5507812,1.1630859,0.5507812   c0.3339844,0,0.6699219-0.1103516,0.9482422-0.3378906c0.6416016-0.5244141,0.7363281-1.4697266,0.2128906-2.1113281   c-0.1503906-0.1835938-3.6279297-4.5429688,0.0234375-9.0927734c4.1796875-5.2080078,1.7753906-10.1884766-0.0800781-12.0947266   c-0.5791016-0.5927734-1.5273438-0.6044922-2.1220703-0.0283203c-0.5927734,0.578125-0.6054688,1.5283203-0.0283203,2.1220703   c0.1435547,0.1464844,3.4736328,3.6601562-0.109375,8.1240234C44.5097656,27.3144531,46.8261719,32.8408203,48.6259766,35.0449219z   "></path><path d="M59.3896484,37.1025391c0.2958984,0.3613281,0.7236328,0.5478516,1.15625,0.5478516   c0.3300781,0,0.6630859-0.109375,0.9414062-0.3330078c0.6425781-0.515625,0.7441406-1.4580078,0.2333984-2.1044922   c-0.1962891-0.2480469-1.8681641-2.4980469,0.0107422-4.8388672c2.8125-3.5048828,1.1738281-6.8779297-0.0869141-8.171875   c-0.5771484-0.5927734-1.5263672-0.6054688-2.1210938-0.0273438c-0.5927734,0.5771484-0.6054688,1.5273438-0.0273438,2.1210938   c0.0722656,0.0742188,1.7695312,1.8662109-0.1044922,4.2001953C56.6347656,31.9306641,58.1855469,35.6279297,59.3896484,37.1025391   z"></path><path d="M37.2539062,37.1025391c0.2958984,0.3632812,0.7275391,0.5507812,1.1621094,0.5507812   c0.3339844,0,0.6699219-0.1103516,0.9482422-0.3388672c0.6416016-0.5234375,0.7363281-1.46875,0.2119141-2.1103516   c-0.0791016-0.0976562-1.9248047-2.4101562,0.0185547-4.8310547c2.8115234-3.5039062,1.1728516-6.8769531-0.0859375-8.1699219   c-0.5771484-0.5947266-1.5273438-0.6054688-2.1210938-0.0292969c-0.59375,0.578125-0.6064453,1.5283203-0.0292969,2.1210938   c0.0732422,0.0751953,1.7695312,1.8671875-0.1035156,4.2001953C34.4970703,31.9306641,36.0478516,35.6279297,37.2539062,37.1025391   z"></path><path d="M90.0576172,48.6982422c0.0009155-1.2990723-0.0064087-3.9439697-16.0579834-5.692688l13.6888428-15.4528198   c1.1240234-1.2695312,1.6630859-2.8994141,1.515625-4.5898438s-0.9599609-3.2021484-2.2880859-4.2587891   c-1.3300781-1.0546875-2.9853516-1.5029297-4.6650391-1.2685547c-1.6796875,0.2373047-3.1464844,1.1289062-4.1298828,2.5117188   L62.3458862,42.1204834c-3.9771118-0.1898804-8.1240234-0.2895508-12.3361206-0.2952881c-0.1416016,0-0.28125,0-0.4228516,0   c-10.2070312,0-19.7988281,0.5419922-27.0478516,1.53125c-11.0296631,1.5048828-12.5827637,3.3920898-12.5956421,5.2098389   c-0.000061,0.0033569-0.0010376,0.0064697-0.0010376,0.0098877c0,0.0005493,0.000061,0.0060425,0.000061,0.0068359   c0,0.0003052-0.000061,0.0006714-0.000061,0.0009766c0,0.0004883,0.000061,0.0009155,0.000061,0.0014038   c-0.0011597,0.4476929,0.1907959,29.9315186,26.937439,37.2681274c0.1015625,0.0761719,0.2880859,0.2578125,0.4150391,0.3828125   c0.4550781,0.4462891,1.0214844,1.0009766,1.8095703,1.171875c3.3056641,0.7148438,6.9042969,1.0800781,10.6953125,1.0859375   c0.0273438,0,0.0546875,0,0.0830078,0c3.453125,0,6.7529297-0.2998047,9.8066406-0.890625   c0.7910156-0.1533203,1.3457031-0.7021484,1.7910156-1.1435547c0.1103516-0.1083984,0.2675781-0.2646484,0.3613281-0.3398438   c25.12323-6.2150879,27.7606201-31.578064,28.0340576-36.482666   C90.0056152,49.3237915,90.0571289,49.0100098,90.0576172,48.6982422z M71.5810547,45.7724609   c9.5107422,0.9091797,13.7617188,2.1689453,15.1201172,2.9316406c-0.6552124,0.3829956-1.883606,0.789917-3.6234741,1.189209   c-3.5858154-0.7848511-8.2615967-1.4874878-13.3960571-2.0133057l1.8718262-2.1130371   C71.5629272,45.7680664,71.5715332,45.7715454,71.5810547,45.7724609z M67.1289062,50.7617188l0.0934448-0.1054688   c0.00177,0.0001831,0.003418,0.0007935,0.005188,0.0009766c2.2243042,0.2010498,4.3786011,0.4365845,6.4143677,0.6984863   c-2.2095337,0.2373047-4.6652222,0.4476929-7.3435669,0.619751C66.5271606,51.5415649,66.8013916,51.1312256,67.1289062,50.7617188   z M80.5654297,21.6865234c0.5019531-0.7050781,1.2490234-1.1591797,2.1054688-1.2802734   c0.859375-0.1230469,1.7021484,0.1083984,2.3779297,0.6464844c0.6767578,0.5380859,1.0908203,1.3095703,1.1660156,2.1708984   s-0.1992188,1.6923828-0.7724609,2.3398438L64.8837891,48.7724609c-0.8690186,0.9797974-1.5020752,2.1414185-1.885437,3.3892212   c-3.067688,0.1496582-6.3873291,0.248291-9.9342041,0.2815552c0.9271851-0.9246216,2.1071167-1.5489502,3.4182739-1.7449951   c2.4482422-0.3662109,4.6748047-1.7314453,6.109375-3.7480469L80.5654297,21.6865234z M50.2246094,51.0878906l-1.0107422,1.2714844   c-0.0236206,0.0297241-0.0392456,0.0628052-0.0602417,0.093689c-9.2351074-0.0404663-17.0358887-0.5200806-23.0164795-1.1889648   c6.487793-0.7728882,14.7999878-1.383728,23.7114868-1.402771c0.506958,0.0007935,1.0232544,0.0128784,1.5341187,0.0177002   C50.9645386,50.2434692,50.5757446,50.6463013,50.2246094,51.0878906z M49.5820312,44.8251953c0.140625,0,0.2832031,0,0.4238281,0   c3.4901733,0.0048218,6.9295654,0.0773926,10.2666016,0.2096558l-0.1259766,0.177063   c-0.555542,0.7807007-1.291687,1.4102783-2.1280518,1.8562012c-0.0861816-0.0192261-0.1741943-0.0340576-0.2655029-0.0378418   c-2.6416016-0.1083984-5.2988281-0.1650391-7.9003906-0.1689453c-0.0898438,0-0.1787109,0-0.2685547,0   c-13.8193359,0-26.2529297,1.4951172-32.7285156,2.7822266c-0.0906982,0.0180664-0.1763916,0.0466309-0.2593994,0.0795288   c-1.585144-0.3833008-2.7041626-0.7703857-3.3138428-1.1342163C16.0722656,46.9335938,29.4658203,44.8251953,49.5820312,44.8251953   z M61.0136719,83.234375c-0.7158203,0.1748047-1.2304688,0.6845703-1.6435547,1.09375   c-0.1142578,0.1132812-0.2783203,0.2753906-0.3779297,0.3544922c-2.8544922,0.5439453-5.9091797,0.7929688-9.1884766,0.8115234   c-3.5429688-0.0058594-6.8974609-0.3408203-9.9697266-0.9970703c-0.109375-0.0800781-0.3046875-0.2714844-0.4394531-0.4033203   c-0.4404297-0.4316406-0.9404297-0.9208984-1.6416016-1.1113281C17.8643188,77.5755615,13.9171753,59.2530518,13.1361084,51.77771   c1.8779907,0.7303467,4.8057861,1.4306641,9.3873291,2.0689697c7.3476562,1.0234375,17.1015625,1.5957031,27.4667969,1.6103516   c0.1416016,0,0.28125,0,0.4228516,0c10.2070312,0,19.7988281-0.5419922,27.0478516-1.53125   c4.4281616-0.604187,7.3112793-1.2705078,9.1982422-1.968689C85.7452393,59.4721069,81.4249268,78.2473755,61.0136719,83.234375z"></path><path d="M61.3115234,61.5234375c-0.2929688-0.1513672-7.2773438-3.6289062-14.4365234,1.0742188   c-7.1621094,4.7041016-6.7421875,12.4931641-6.7207031,12.8232422c0.0005493,0.0084229,0.0039673,0.0161133,0.0046387,0.0244751   c-1.2178345,1.7247925-1.6347656,2.9694214-1.6716309,3.0858765c-0.2480469,0.7861328,0.1865234,1.6191406,0.9707031,1.8730469   c0.1523438,0.0488281,0.3066406,0.0722656,0.4589844,0.0722656c0.6308594,0,1.21875-0.4023438,1.4287109-1.0332031   c0.0068359-0.0211792,0.3050537-0.864502,1.1610718-2.1056519c1.114624,0.4036865,2.7302246,0.8234253,4.6973267,0.8234253   c2.3603516,0,5.2021484-0.6064453,8.2001953-2.5761719c7.6357422-5.0166016,6.7529297-12.5986328,6.7109375-12.9189453   C62.0527344,62.1757812,61.7519531,61.7490234,61.3115234,61.5234375z M53.7578125,73.0771484   c-3.6990356,2.430603-7.0475464,2.2801514-9.1328125,1.776062c1.6036377-1.5661011,3.9239502-3.291687,7.2578125-4.7692261   c0.7578125-0.3349609,1.0996094-1.2216797,0.7636719-1.9785156c-0.3359375-0.7587891-1.2246094-1.1015625-1.9785156-0.7636719   c-2.9952393,1.3271484-5.272644,2.8445435-7.0101929,4.3253784c0.6129761-2.0742798,1.9484863-4.6470947,4.8637085-6.5617065   c4.4960938-2.9550781,8.9023438-1.8671875,10.6464844-1.2353516C59.1328125,65.6601562,58.5136719,69.953125,53.7578125,73.0771484   z"></path></g></svg>
