<svg xmlns="http://www.w3.org/2000/svg" version="1.1" x="0px" y="0px" viewBox="0 0 100 100" enable-background="new 0 0 100 100" xml:space="preserve"><g><path d="M49.896,42.414l3.536-3.536c1.884-1.884,2.922-4.395,2.922-7.07s-1.038-5.187-2.922-7.07l-3.536-3.536l-3.536,3.536   c-1.884,1.884-2.922,4.395-2.922,7.07s1.038,5.187,2.922,7.07L49.896,42.414z M47.774,26.151l2.122-2.122l2.121,2.122   c1.507,1.507,2.336,3.515,2.336,5.656s-0.829,4.149-2.336,5.656l-2.121,2.122l-2.122-2.122c-1.506-1.507-2.336-3.515-2.336-5.656   S46.269,27.658,47.774,26.151z"></path><rect x="39" y="4.986" width="2" height="31.129"></rect><rect x="58.999" y="4.986" width="2" height="31.129"></rect><rect x="48.999" y="1" width="2" height="17.927"></rect><rect x="44" y="3" width="2" height="19.984"></rect><rect x="54.001" y="3" width="2" height="19.926"></rect><path d="M50,45.669C48.382,42.321,44.962,40,41,40h-5V45c0,2.82,1.178,5.367,3.063,7.187H36v5c0,2.922,1.267,5.545,3.27,7.375H36v5   c0,2.955,1.295,5.605,3.338,7.438H36v5c0,5.514,4.485,10,9.999,10H49h0.001v7h2v-7h3c5.514,0,10-4.486,10-10v-5h-3.338   c2.043-1.832,3.338-4.482,3.338-7.438v-5h-3.27c2.003-1.83,3.27-4.453,3.27-7.375v-5h-3.063c1.885-1.82,3.063-4.367,3.063-7.187V40   H59C55.038,40,51.618,42.321,50,45.669z M38,45V42h3c4.411,0,8,3.589,8,8v3h-3.001c-0.475,0-0.938-0.049-1.391-0.129   c-0.552-0.215-1.123-0.385-1.717-0.5C40.02,51.156,38,48.31,38,45z M51,55h1.063c-0.847,0.818-1.545,1.785-2.063,2.857   c-0.518-1.072-1.216-2.039-2.063-2.857H49H51z M38,57.188v-3h3c0.476,0,0.939,0.049,1.392,0.129c0.552,0.215,1.123,0.385,1.716,0.5   C46.979,56.031,49,58.877,49,62.188v3h-3.001C41.588,65.188,38,61.6,38,57.188z M51,67.188h1.271   c-0.939,0.857-1.712,1.889-2.271,3.045c-0.559-1.156-1.332-2.188-2.271-3.045H49H51z M38,69.563v-3h3c4.411,0,8,3.588,8,8v3h-3.001   C41.588,77.563,38,73.975,38,69.563z M51,79.563h1.338c-0.97,0.869-1.766,1.922-2.338,3.107c-0.572-1.186-1.369-2.238-2.338-3.107   H49H51z M49,90h-3.001C41.588,90,38,86.412,38,82v-3h3c4.411,0,8,3.588,8,8V90z M62.001,82c0,4.412-3.589,8-8,8h-3v-1.045H51V87   c0-4.412,3.589-8,8-8h3.001V82z M62.001,69.563c0,4.412-3.589,8-8,8H51v-3c0-4.412,3.589-8,8-8h3.001V69.563z M59,54.188h3.001v3   c0,4.412-3.589,8-8,8H51v-3c0-3.311,2.021-6.156,4.893-7.371c0.593-0.115,1.165-0.285,1.716-0.5   C58.062,54.236,58.524,54.188,59,54.188z M62.001,45c0,3.31-2.021,6.156-4.893,7.371c-0.594,0.115-1.165,0.285-1.717,0.5   C54.938,52.951,54.476,53,54.001,53H51v-3c0-4.411,3.589-8,8-8h3.001V45z"></path><path d="M16.896,54.414l3.536-3.536c1.884-1.884,2.922-4.396,2.922-7.07c0-2.676-1.038-5.188-2.922-7.071l-3.536-3.536   l-3.535,3.536c-3.899,3.898-3.899,10.243,0,14.142L16.896,54.414z M14.774,38.151l2.121-2.122l2.122,2.122   c1.506,1.507,2.336,3.516,2.336,5.657c0,2.141-0.83,4.149-2.336,5.656l-2.122,2.122l-2.121-2.122   c-1.507-1.506-2.336-3.516-2.336-5.656C12.438,41.667,13.268,39.657,14.774,38.151z"></path><rect x="6" y="16.986" width="2" height="31.129"></rect><rect x="25.999" y="16.986" width="2" height="31.129"></rect><rect x="15.999" y="13" width="2" height="17.927"></rect><rect x="11" y="15.107" width="2" height="19.878"></rect><rect x="21" y="15" width="2" height="19.902"></rect><path d="M17,57.67C15.382,54.322,11.961,52,8,52H2.999v5c0,3.055,1.381,5.789,3.546,7.625H2.999v5c0,2.889,1.238,5.486,3.202,7.313   H2.999v5c0,5.514,4.486,10,10,10H16V92l0,0v6.545h2V92h3c5.514,0,10-4.486,10-10v-5h-3.271C29.733,75.17,31,72.547,31,69.625v-5   h-3.546C29.62,62.789,31,60.055,31,57v-5h-5.001C22.038,52,18.617,54.322,17,57.67z M17.015,82.639   c-0.546-1.141-1.3-2.16-2.216-3.014H16h2h1.27C18.34,80.475,17.572,81.494,17.015,82.639z M4.999,57v-3H8c4.411,0,8,3.588,8,8v3   h-3.001C8.588,65,4.999,61.412,4.999,57z M18,67h1.545c-1.064,0.902-1.932,2.025-2.545,3.295c-0.613-1.27-1.48-2.393-2.545-3.295   H16H18z M4.999,69.625v-3H8c4.411,0,8,3.588,8,8v3h-3.001C8.588,77.625,4.999,74.037,4.999,69.625z M12.999,89.938   c-4.411,0-8-3.588-8-8v-3H8c4.411,0,8,3.588,8,8V87v2.938H12.999z M29,82c0,4.412-3.589,8-8,8h-3v-1.5l0,0V87   c0-4.412,3.588-8,7.999-8H29V82z M29,69.625c0,4.412-3.589,8-8,8h-3v-3c0-4.412,3.588-8,7.999-8H29V69.625z M29,57   c0,4.412-3.589,8-8,8h-3v-3c0-4.412,3.588-8,7.999-8H29V57z"></path><path d="M82.896,54.414l3.536-3.536c3.899-3.898,3.899-10.243,0-14.142l-3.536-3.536l-3.535,3.536   c-1.885,1.884-2.923,4.395-2.923,7.071c0,2.676,1.038,5.187,2.923,7.07L82.896,54.414z M80.775,38.151l2.121-2.122l2.122,2.122   c1.506,1.506,2.336,3.516,2.336,5.657c0,2.141-0.83,4.15-2.336,5.656l-2.122,2.122l-2.121-2.122   c-1.507-1.507-2.336-3.516-2.336-5.656C78.439,41.667,79.269,39.658,80.775,38.151z"></path><rect x="72.001" y="16.986" width="2" height="31.129"></rect><rect x="91.999" y="16.986" width="2" height="31.129"></rect><rect x="81.999" y="13" width="2" height="17.927"></rect><rect x="77.002" y="15" width="2" height="19.985"></rect><rect x="87.001" y="15" width="2" height="19.928"></rect><path d="M97.001,57v-5H92c-3.961,0-7.382,2.322-9,5.67C81.383,54.322,77.962,52,74.001,52H69v5c0,2.926,1.271,5.555,3.281,7.385H69   v5.002c0,2.965,1.305,5.625,3.362,7.457H69v5c0,5.514,4.486,10,10,10h3h0.001v6.701h2v-6.701h3c5.514,0,10-4.486,10-10v-5h-3.362   c2.058-1.832,3.362-4.492,3.362-7.457v-5.002H93.72C95.729,62.555,97.001,59.926,97.001,57z M92,54h3.001v3c0,4.412-3.589,8-8,8H84   v-3C84,57.588,87.589,54,92,54z M85.281,67c-0.943,0.859-1.72,1.895-2.281,3.055c-0.561-1.16-1.337-2.195-2.28-3.055H82h2H85.281z    M71,57v-3h3.001C78.412,54,82,57.588,82,62v3h-3C74.589,65,71,61.412,71,57z M71,69.387v-3.002h3.001c4.411,0,7.999,3.59,7.999,8   v3h-3C74.589,77.385,71,73.797,71,69.387z M84,79.385h1.362c-0.98,0.873-1.785,1.934-2.362,3.129   c-0.577-1.195-1.382-2.256-2.362-3.129H82H84z M82,89.844h-3c-4.411,0-8-3.588-8-8v-3h3.001c4.411,0,7.999,3.588,7.999,8V89.844z    M95.001,81.844c0,4.412-3.589,8-8,8h-3V88.5H84v-1.656c0-4.412,3.589-8,8-8h3.001V81.844z M95.001,69.387   c0,4.41-3.589,7.998-8,7.998H84v-3c0-4.41,3.589-8,8-8h3.001V69.387z"></path></g></svg>
