<svg xmlns="http://www.w3.org/2000/svg" version="1.1" x="0px" y="0px" viewBox="0 0 512 512" style="enable-background:new 0 0 512 512;" xml:space="preserve"><path d="M454.2675781,325.1972656h-1.2939453c4.4277344-44.8601074,3.9238281-91.4169922-1.5019531-138.6796875h2.7958984  c2.8916016,0,5.640625-1.2509766,7.5400391-3.4316406c1.8994141-2.1796875,2.7617188-5.0751953,2.3652344-7.9384766  l-6.53125-47.2021484c-0.6835938-4.9462891-4.9121094-8.6298828-9.9052734-8.6298828h-7.2524414  c-11.3400879-53.3278809-24.6901855-86.3314209-25.2749023-87.7626953  c-0.1286621-0.3149414-0.2722168-0.6193848-0.4282227-0.9135742c-1.1469727-4.2587891-5.0251465-7.3979492-9.6459961-7.3979492  H106.8652344c-4.6206055,0-8.4987793,3.138916-9.645752,7.3974609c-0.15625,0.2944336-0.2998047,0.598877-0.4284668,0.9140625  c-0.5891113,1.4433594-13.9382324,34.4506836-25.2744141,87.7626953h-7.2529297  c-4.9931641,0-9.2216797,3.6835938-9.9052734,8.6298828l-6.53125,47.2021484  c-0.3964844,2.8632812,0.4658203,5.7587891,2.3652344,7.9384766c1.8994141,2.1806641,4.6484375,3.4316406,7.5400391,3.4316406  h2.8015137c-5.4265137,47.2584229-5.9318848,93.814209-1.5029297,138.6796875h-1.298584  c-2.8916016,0-5.640625,1.2509766-7.5400391,3.4316406c-1.8994141,2.1796875-2.7617188,5.0751953-2.3652344,7.9384766  l6.53125,47.2021484c0.6835938,4.9462891,4.9121094,8.6298828,9.9052734,8.6298828h5.3781738  c6.6328125,30.1444092,15.751709,59.5212402,27.1501465,87.421875c0.0539551,0.1322021,0.1296387,0.2480469,0.1884766,0.376709  c0.6994629,4.838623,4.8522949,8.560791,9.8847656,8.560791h298.2695312c5.0319824,0,9.1845703-3.7214355,9.8845215-8.5595703  c0.0593262-0.1293945,0.135498-0.2458496,0.1896973-0.3789062c11.3986816-27.90271,20.5224609-57.2835693,27.1525879-87.4208984  h5.3747559c4.9931641,0,9.2216797-3.6835938,9.9052734-8.6298828l6.53125-47.2021484  c0.3964844-2.8632812-0.4658203-5.7587891-2.3652344-7.9384766  C459.9082031,326.4482422,457.1591797,325.1972656,454.2675781,325.1972656z M439.0244141,372.3994141H72.9755859  l-3.7646484-27.2021484h373.578125L439.0244141,372.3994141z M266.3752441,468.7587891l-0.3171387-76.359375h68.7021484  c-3.4924316,26.2722168-8.1369629,51.8764648-13.8339844,76.359375H266.3752441z M191.0739746,468.7587891  c-5.697998-24.4829102-10.3425293-50.0866699-13.8342285-76.359375h68.8178711l0.3173828,76.359375H191.0739746z   M171.809082,186.5175781h73.8527832l0.2111816,19.7071533c-24.6816406,4.748291-43.3896484,26.4967041-43.3896484,52.5428467  c0,26.1337891,18.8352051,47.9384766,43.6401367,52.5876465l0.1748047,13.842041h-75.4523926  C168.2036133,280.4505615,168.5288086,233.875,171.809082,186.5175781z M340.1955566,186.5175781  c3.2805176,47.357666,3.6008301,93.9243164,0.9572754,138.6796875h-74.8535156l-0.1750488-13.8863525  c24.6828613-4.7473145,43.392334-26.4963379,43.392334-52.543335c0-26.1350098-18.8369141-47.9404297-43.6435547-52.5883789  l-0.2106934-19.6616211H340.1955566z M255.1259766,225.2731934c0.2783203,0.0231934,0.5583496,0.0422363,0.8427734,0.0422363  c0.0361328,0,0.0722656,0,0.109375-0.0009766c0.2399902-0.0025635,0.4750977-0.024292,0.7104492-0.043457  c18.1174316,0.421875,32.7280273,15.279541,32.7280273,33.496582c0,18.4814453-15.0351562,33.5166016-33.5166016,33.5166016  s-33.5166016-15.0351562-33.5166016-33.5166016C222.4833984,240.5793457,237.0480957,225.739624,255.1259766,225.2731934z   M432.8642578,325.1972656h-71.6726074c2.5927734-44.8085938,2.2736816-91.3642578-0.9477539-138.6796875h71.0803223  C436.9182129,233.847168,437.4372559,280.4245605,432.8642578,325.1972656z M420.0241699,119.3154297h-66.2780762  c-4.4272461-35.2766113-9.3623047-61.7004395-12.324707-76.0742188h56.8540039  C401.9711914,53.1723633,411.5131836,80.5219727,420.0241699,119.3154297z M245.6306152,43.2412109l0.314209,76.0742188h-67.5322266  c4.7011719-36.7512207,9.9851074-63.7102051,12.6118164-76.0742188H245.6306152z M265.9453125,119.3154297l-0.3144531-76.0742188  h55.3447266c2.626709,12.3640137,7.9106445,39.3223877,12.6115723,76.0742188H265.9453125z M113.7243652,43.2412109h56.8540039  c-2.9621582,14.3737793-7.8972168,40.7972412-12.3251953,76.0742188H91.9790039  C100.4892578,80.5274658,110.0283203,53.1729736,113.7243652,43.2412109z M72.9755859,139.3154297h6.6518555  c0.0131836,0,0.0263672,0.0019531,0.0395508,0.0019531c0.0148926,0,0.0297852-0.0019531,0.0446777-0.0019531h359.3127441  l3.7646484,27.2021484H69.2109375L72.9755859,139.3154297z M80.6689453,186.5175781h71.0895996  c-3.2216797,47.3155518-3.5439453,93.8796387-0.9516602,138.6796875H79.1416016  C74.5666504,280.4187012,75.0749512,233.8439941,80.6689453,186.5175781z M90.1386719,392.3994141h66.9379883  c3.4030762,26.2037354,7.902832,51.8134766,13.4558105,76.359375h-56.6306152  C104.123291,444.2905273,96.1489258,418.6699219,90.1386719,392.3994141z M398.0986328,468.7587891h-56.6313477  c5.5524902-24.5445557,10.0522461-50.154541,13.4560547-76.359375h66.9343262  C415.8505859,418.6643066,407.8774414,444.2885742,398.0986328,468.7587891z"></path></svg>
