<svg xmlns="http://www.w3.org/2000/svg" version="1.1" x="0px" y="0px" viewBox="0 0 66 66" enable-background="new 0 0 66 66" xml:space="preserve"><g><g><path d="M6.589,34.058H4.618c-0.553,0-1-0.447-1-1s0.447-1,1-1h1.971c0.553,0,1,0.447,1,1S7.142,34.058,6.589,34.058z"></path></g><g><g><path d="M32.993,7.944c0.553,0,1-0.447,1-1V4.974c0-0.553-0.447-1-1-1s-1,0.447-1,1v1.971C31.993,7.497,32.44,7.944,32.993,7.944     z"></path></g><g><path d="M32.702,58.461c-0.553,0-1,0.447-1,1v1.971c0,0.553,0.447,1,1,1s1-0.447,1-1v-1.971     C33.702,58.908,33.255,58.461,32.702,58.461z"></path></g><g><path d="M33,1C15.355,1,1,15.355,1,33s14.355,32,32,32s32-14.355,32-32S50.645,1,33,1z M33,63C16.458,63,3,49.542,3,33     S16.458,3,33,3s30,13.458,30,30S49.542,63,33,63z"></path></g><g><path d="M32.996,9.247c-13.096,0-23.75,10.654-23.75,23.75s10.654,23.75,23.75,23.75s23.75-10.654,23.75-23.75     S46.092,9.247,32.996,9.247z M49.66,19.039c1.938,2.309,3.401,5.026,4.25,8.001h-4.25V19.039z M41.83,13.129     c2.148,0.959,4.116,2.252,5.83,3.82V27.04h-4.245c-0.447-0.78-0.981-1.501-1.585-2.159V13.129z M26.16,12.354     c2.151-0.714,4.448-1.107,6.836-1.107c2.387,0,4.683,0.392,6.834,1.106v10.773c-1.941-1.349-4.293-2.145-6.83-2.145     c-2.541,0-4.896,0.798-6.84,2.148V12.354z M18.33,16.951c1.714-1.568,3.682-2.862,5.83-3.821v11.754     c-0.604,0.657-1.137,1.378-1.584,2.156H18.33V16.951z M16.33,19.042v7.998h-4.248C12.93,24.066,14.394,21.351,16.33,19.042z      M11.246,32.997c0-1.352,0.13-2.673,0.367-3.957h10.051c-0.435,1.242-0.684,2.571-0.684,3.96c0,1.385,0.247,2.711,0.68,3.95     H11.613C11.376,35.667,11.246,34.347,11.246,32.997z M16.33,46.953c-1.937-2.31-3.401-5.027-4.249-8.002h4.249V46.953z      M24.16,52.864c-2.148-0.959-4.116-2.253-5.83-3.821V38.95h4.24c0.448,0.783,0.984,1.506,1.59,2.166V52.864z M39.83,53.641     c-2.151,0.714-4.447,1.106-6.834,1.106c-2.388,0-4.685-0.392-6.836-1.107V42.872c1.943,1.351,4.299,2.149,6.84,2.149     c2.537,0,4.889-0.796,6.83-2.146V53.641z M33,43.021c-5.524,0-10.02-4.495-10.02-10.021c0-5.524,4.495-10.02,10.02-10.02     c5.52,0,10.01,4.495,10.01,10.02C43.01,38.525,38.52,43.021,33,43.021z M47.66,49.045c-1.714,1.568-3.682,2.861-5.83,3.82V41.119     c0.607-0.661,1.143-1.385,1.591-2.169h4.239V49.045z M49.66,46.955V38.95h4.251C53.063,41.926,51.598,44.644,49.66,46.955z      M44.33,36.95c0.433-1.239,0.68-2.565,0.68-3.95c0-1.389-0.249-2.718-0.684-3.96h10.053c0.237,1.284,0.367,2.605,0.367,3.957     c0,1.35-0.13,2.67-0.367,3.953H44.33z"></path></g><g><path d="M32.999,27.064c-3.272,0-5.936,2.663-5.936,5.937c0,3.272,2.663,5.935,5.936,5.935c3.269,0,5.928-2.662,5.928-5.935     C38.927,29.728,36.268,27.064,32.999,27.064z M32.999,36.936c-2.17,0-3.936-1.765-3.936-3.935c0-2.171,1.766-3.937,3.936-3.937     c2.166,0,3.928,1.766,3.928,3.937C36.927,35.171,35.165,36.936,32.999,36.936z"></path></g><g><path d="M18.979,10.89c0.277,0.48,0.89,0.641,1.366,0.366c0.479-0.276,0.643-0.889,0.366-1.366l-0.986-1.707     c-0.276-0.479-0.89-0.643-1.366-0.366c-0.479,0.276-0.643,0.889-0.366,1.366L18.979,10.89z"></path></g><g><path d="M7.973,19.829l1.707,0.985c0.473,0.273,1.087,0.116,1.366-0.366c0.276-0.479,0.112-1.09-0.366-1.366l-1.707-0.985     c-0.479-0.276-1.09-0.112-1.366,0.366S7.494,19.553,7.973,19.829z"></path></g><g><path d="M9.534,45.34l-1.706,0.985c-0.479,0.276-0.643,0.888-0.366,1.366c0.277,0.48,0.89,0.641,1.366,0.366l1.706-0.985     c0.479-0.276,0.643-0.888,0.366-1.366C10.623,45.227,10.01,45.063,9.534,45.34z"></path></g><g><path d="M20.093,55.004c-0.478-0.276-1.09-0.112-1.366,0.366l-0.985,1.707c-0.276,0.479-0.112,1.09,0.366,1.366     c0.473,0.273,1.087,0.116,1.366-0.366l0.985-1.707C20.735,55.892,20.571,55.28,20.093,55.004z"></path></g><g><path d="M46.717,55.516c-0.277-0.479-0.891-0.643-1.366-0.366c-0.479,0.276-0.643,0.888-0.366,1.366l0.985,1.707     c0.279,0.482,0.892,0.64,1.366,0.366c0.479-0.276,0.643-0.888,0.366-1.366L46.717,55.516z"></path></g><g><path d="M57.722,46.577l-1.706-0.985c-0.479-0.276-1.09-0.113-1.366,0.366c-0.276,0.479-0.112,1.09,0.366,1.366l1.706,0.985     c0.477,0.275,1.09,0.113,1.366-0.366C58.364,47.465,58.2,46.854,57.722,46.577z"></path></g><g><path d="M61.077,32.349h-1.972c-0.553,0-1,0.447-1,1s0.447,1,1,1h1.972c0.553,0,1-0.447,1-1S61.63,32.349,61.077,32.349z"></path></g><g><path d="M56.16,21.065l1.707-0.985c0.479-0.276,0.643-0.888,0.366-1.366c-0.276-0.478-0.89-0.644-1.366-0.366l-1.707,0.985     c-0.479,0.276-0.643,0.888-0.366,1.366C55.073,21.181,55.686,21.339,56.16,21.065z"></path></g><g><path d="M45.603,11.401c0.473,0.273,1.087,0.116,1.366-0.366l0.985-1.707c0.276-0.479,0.112-1.09-0.366-1.366     s-1.09-0.112-1.366,0.366l-0.985,1.707C44.96,10.514,45.124,11.125,45.603,11.401z"></path></g><g><path d="M16.98,30.058c-1.654,0-3,1.346-3,3s1.346,3,3,3s3-1.346,3-3S18.635,30.058,16.98,30.058z M16.98,34.058     c-0.552,0-1-0.448-1-1s0.448-1,1-1s1,0.448,1,1S17.532,34.058,16.98,34.058z"></path></g><g><path d="M48.66,30.058c-1.654,0-3,1.346-3,3s1.346,3,3,3s3-1.346,3-3S50.314,30.058,48.66,30.058z M48.66,34.058     c-0.552,0-1-0.448-1-1s0.448-1,1-1s1,0.448,1,1S49.212,34.058,48.66,34.058z"></path></g><g><path d="M35.702,16.034c0-1.654-1.346-3-3-3s-3,1.346-3,3s1.346,3,3,3S35.702,17.688,35.702,16.034z M32.702,17.034     c-0.552,0-1-0.448-1-1s0.448-1,1-1s1,0.448,1,1S33.254,17.034,32.702,17.034z"></path></g><g><path d="M29.996,50.247c0,1.654,1.346,3,3,3s3-1.346,3-3s-1.346-3-3-3S29.996,48.593,29.996,50.247z M33.996,50.247     c0,0.552-0.448,1-1,1s-1-0.448-1-1s0.448-1,1-1S33.996,49.695,33.996,50.247z"></path></g></g></g></svg>
