<svg height='100px' width='100px' xmlns="http://www.w3.org/2000/svg" viewBox="0 0 12.7 12.7" version="1.1" x="0px" y="0px"><g transform="translate(0,-284.29998)"><path style="" d="m 5.3293193,285.97414 a 4.677449,4.677449 0 1 0 4.4466602,5.67556 2.3582336,2.3582336 0 0 0 1.2445395,-2.83841 1.0650968,1.0650968 0 0 1 1.03421,-1.47805 0.11060808,0.11060808 0 1 0 0.0099,-0.22099 1.28626,1.28626 0 0 0 -1.252681,1.77416 2.1370705,2.1370705 0 0 1 -0.9847206,2.48722 4.677449,4.677449 0 0 0 -4.4980086,-5.39949 z m -0.3499505,0.23037 a 4.4550862,4.4550862 0 0 1 0.4457238,0 2.2612798,2.2612798 0 0 0 -0.2172206,1.50623 7.8573246,7.8573246 0 0 0 -0.8826973,0.54339 3.5355975,3.5355975 0 0 1 0.1533719,-1.99516 4.4550862,4.4550862 0 0 1 0.5008222,-0.0545 z m 0.6898686,0.0188 a 4.4550862,4.4550862 0 0 1 1.9438312,0.68174 7.8573246,7.8573246 0 0 0 -2.1992585,0.70115 2.0389168,2.0389168 0 0 1 0.2554273,-1.38289 z m -1.4442271,0.0852 a 3.7579607,3.7579607 0 0 0 -0.095165,2.08905 7.8573246,7.8573246 0 0 0 -0.5984866,0.50208 3.7477278,3.7477278 0 0 1 -0.2410357,-2.26747 4.4550862,4.4550862 0 0 1 0.9346873,-0.32366 z m -1.1838315,0.45262 a 3.9700909,3.9700909 0 0 0 0.3192761,2.30128 7.8573246,7.8573246 0 0 0 -0.6598352,0.73808 2.4658593,2.4658593 0 0 1 -0.6654765,-2.27561 4.4550862,4.4550862 0 0 1 1.0060356,-0.76375 z m 4.8385676,0.32929 a 4.4550862,4.4550862 0 0 1 0.6692268,0.61914 7.205975,7.205975 0 0 0 -6.4844058,6.10377 4.4550862,4.4550862 0 0 1 -0.6435525,-0.80883 7.6349614,7.6349614 0 0 1 6.4587315,-5.91408 z m -6.1150313,0.73432 a 2.6882222,2.6882222 0 0 0 0.7994245,2.15354 7.8573246,7.8573246 0 0 0 -0.6266608,0.99225 2.2713725,2.2713725 0 0 1 -0.9227629,-1.82674 4.4550862,4.4550862 0 0 1 0.7499992,-1.31905 z m 6.9583037,0.0939 a 4.4550862,4.4550862 0 0 1 0.4432238,0.69489 6.7792187,6.7792187 0 0 0 -6.1532381,5.91847 4.4550862,4.4550862 0 0 1 -0.7487172,-0.53275 6.9836121,6.9836121 0 0 1 6.4587315,-6.08061 z m 0.5471384,0.90962 a 4.4550862,4.4550862 0 0 1 0.3355589,1.12684 5.2059997,5.2059997 0 0 0 -5.4045209,5.03954 4.4550862,4.4550862 0 0 1 -0.9772204,-0.35058 6.5568555,6.5568555 0 0 1 6.0461824,-5.8158 z m -8.41570448,0.86955 a 2.4937354,2.4937354 0 0 0 0.98036158,1.47241 7.8573246,7.8573246 0 0 0 -0.5746716,1.55193 4.4550862,4.4550862 0 0 1 -0.40568998,-3.02434 z m 8.78193768,0.48141 a 4.4550862,4.4550862 0 0 1 -0.1033053,1.53878 2.7989962,2.7989962 0 0 1 -2.2430426,-1.07301 4.9836369,4.9836369 0 0 1 2.3463479,-0.46577 z m -2.5491771,0.56657 a 3.0213592,3.0213592 0 0 0 2.3845227,1.19445 4.4550862,4.4550862 0 0 1 -0.3662332,0.86893 3.6110778,3.6110778 0 0 1 -2.8139958,-1.54379 4.9836369,4.9836369 0 0 1 0.7957063,-0.51959 z m -0.9659699,0.66295 a 3.833441,3.833441 0 0 0 2.8571707,1.61641 4.4550862,4.4550862 0 0 1 -0.5095726,0.66296 5.575293,5.575293 0 0 1 -2.9110191,-1.69967 4.9836369,4.9836369 0 0 1 0.563421,-0.5797 z m -0.7024011,0.75687 a 5.7976561,5.7976561 0 0 0 2.8665621,1.7078 4.4550862,4.4550862 0 0 1 -0.7581086,0.58346 6.2875943,6.2875943 0 0 1 -2.6030255,-1.48181 4.9836369,4.9836369 0 0 1 0.494572,-0.80945 z m -0.5915952,1.02293 a 6.509957,6.509957 0 0 0 2.4308708,1.41983 4.4550862,4.4550862 0 0 1 -2.8359199,0.43133 4.9836369,4.9836369 0 0 1 0.4050491,-1.85116 z"></path></g></svg>
