<svg xmlns="http://www.w3.org/2000/svg" width="100" height="100" viewBox="0 0 100 100"><g><g><svg xmlns="http://www.w3.org/2000/svg" version="1.1" x="0px" y="0px" viewBox="-260 142.5 90 89.7" style="enable-background:new -260 142.5 90 89.7;" xml:space="preserve"><path d="M-179.6,191.6c-0.6-4.9-1.4-8.1-2.3-11.5c-0.8-3.2-1.7-6.9-2.6-12.6c-0.8-5.2-0.1-9,0.6-12c0.5-2.6,1-4.9,0.1-7.1  c-0.7-1.6-2.2-2-3.4-2.4c-0.7-0.2-1.4-0.4-1.9-0.8c-3.5-2.8-7.7-3.3-11.6-1.5c-2.8,1.3-4.4,2.9-4.9,5c-0.3,1.2-0.1,2.3,0.2,3.1  c-1.6,1.3-3.3,3.4-2.7,6.1c0.6,3.2,6.1,6.2,9,7.5c-0.3,3.3-1.4,12.9-3.6,20.6c-1.7,5.8-1.8,10.3-1.4,13.3c-4.9-3.3-13.7-8.2-23.6-9  c-14-1.1-20.9,5.2-21.2,5.4c-0.7,0.6-0.7,1.7-0.1,2.4c0.6,0.7,1.7,0.7,2.4,0.1c0.1-0.1,6.1-5.5,18.6-4.5c13.7,1.1,25.6,11,25.7,11.1  l2.6-2.1c0-0.1-2.8-5.4,0.3-15.9c2.8-9.7,3.8-22,3.8-22.5l0.1-1.2l-1.1-0.5c-3.6-1.6-7.9-4.2-8.1-5.6c-0.2-1,0.5-1.8,1.2-2.4  c1.1,0.8,2.8,1.8,4.5,1.8c0,0,0.1,0,0.1,0c0.8,0,2.6-0.3,3.3-3c0.3-1,0.3-2,0.3-2.2c0-0.9-0.8-1.7-1.7-1.7c0,0,0,0,0,0  c-0.9,0-1.7,0.8-1.7,1.8c0,0.6-0.2,1.5-0.2,1.6c-0.6,0-1.3-0.4-2.1-0.8l-0.8-1c0,0-0.6-0.9-0.4-1.8c0.2-0.9,1.3-1.9,3-2.7  c3.5-1.6,6.3-0.3,8,1.1c1,0.8,2.1,1.1,3,1.4c0.4,0.1,1.1,0.3,1.2,0.5c0.5,1.2,0.2,2.8-0.3,5c-0.6,3.1-1.5,7.4-0.6,13.3  c0.9,5.8,1.9,9.6,2.7,12.9c0.9,3.4,1.6,6.4,2.2,11.1c1.1,8.4,1.4,13,0.3,16.5c-0.6,1.8-0.8,3.7-1,5.6c-0.3,2.8-0.6,5.3-2.1,6.9  c-0.8,0.9-2.4,1.2-3.9,1.4c-1.1,0.2-2.3,0.4-3.3,0.9c-5.9,2.7-12.6,2.2-17.4,1.8c-3.5-0.3-6.1-0.5-7.7,0.5  c-9.8,6.3-25.5,1.5-30.1-1.4c-0.8-0.5-1.9-0.3-2.4,0.5c-0.5,0.8-0.3,1.9,0.5,2.4c3.4,2.1,11.5,5,19.9,5c4.9,0,9.8-1,14-3.6  c0.6-0.4,3.4-0.2,5.6,0c5.2,0.4,12.4,1,19.1-2.1c0.6-0.3,1.6-0.5,2.5-0.6c2-0.4,4.2-0.8,5.8-2.4c2.4-2.4,2.8-5.7,3.1-8.9  c0.2-1.7,0.4-3.4,0.8-4.9C-178.1,205.5-178.4,200.5-179.6,191.6z"></path></svg></g></g></svg>
