<svg height='100px' width='100px' xmlns="http://www.w3.org/2000/svg" version="1.1" x="0px" y="0px" viewBox="0 0 140 140" style="enable-background:new 0 0 140 140;"><path d="M134,9.512207H6c-0.5522461,0-1,0.4477539-1,1v13.8603516c0,0.5522461,0.4477539,1,1,1h3.1293945v89.2548828H6  c-0.5522461,0-1,0.4477539-1,1v13.8603516c0,0.5522461,0.4477539,1,1,1h128c0.5522461,0,1-0.4477539,1-1v-13.8603516  c0-0.5522461-0.4477539-1-1-1h-3.8071289V25.3725586H134c0.5522461,0,1-0.4477539,1-1V10.512207  C135,9.9599609,134.5522461,9.512207,134,9.512207z M133,116.6274414v11.8603516H7v-11.8603516h3.1004028  c0.0101929,0.0003052,0.0186768,0.0058594,0.0289917,0.0058594h13.2641602c0.0103149,0,0.0187988-0.0055542,0.0289917-0.0058594  H42.128418c0.006897,0.0001221,0.0125732,0.0039062,0.0195312,0.0039062c0.0067749,0,0.0123901-0.0037842,0.019165-0.0039062  h18.255249c0.006897,0.0001221,0.0125732,0.0039062,0.0195312,0.0039062c0.0067749,0,0.0123901-0.0037842,0.019165-0.0039062  h18.255249c0.006897,0.0001221,0.0125732,0.0039062,0.0195312,0.0039062c0.0067749,0,0.0123901-0.0037842,0.019165-0.0039062  h18.255249c0.006897,0.0001221,0.0125732,0.0039062,0.0195312,0.0039062c0.0067749,0,0.0123901-0.0037842,0.019165-0.0039062  h18.850769c0.0101929,0.0003052,0.0186768,0.0058594,0.0289917,0.0058594h13.2641602  c0.0103149,0,0.0187988-0.0055542,0.0289917-0.0058594H133z M11.1293945,114.6274414V25.3725586h11.2641602v89.2548828H11.1293945z   M24.5556641,103.6069336l36.5911255-36.871521c0.0012817-0.0012817,0.0024414-0.0025024,0.0037231-0.0037842l18.281311-18.4213257  c0.0065918-0.0064087,0.0125122-0.0125122,0.0189209-0.019104l22.7443848-22.9186401h12.7335815V38.331604L96.3253174,56.7559814  c-0.0014648,0.0014648-0.0028076,0.0028076-0.0042725,0.0042725L78.0412598,74.8640747  c-0.007019,0.006897-0.0136719,0.0133057-0.0205688,0.0203247L59.7572632,92.9721069  c-0.0128174,0.012146-0.0247192,0.0236816-0.0368652,0.036499l-21.8289185,21.6188354H24.3935547v-10.9123535  C24.4477539,103.678772,24.5078735,103.6549683,24.5556641,103.6069336z M24.3935547,100.9302979V25.3725586h16.7543945v58.6749878  L24.3935547,100.9302979z M43.1479492,82.0322266v-56.659668h16.2939453v40.2408447L43.1479492,82.0322266z M61.4418945,63.5980835  V25.3725586h16.2939453v21.8067017L61.4418945,63.5980835z M79.7358398,45.1639404V25.3725586h16.2939453v3.3726196  L79.7358398,45.1639404z M98.0297852,26.7297974v-1.3572388h1.3469238L98.0297852,26.7297974z M114.9287109,41.1461792v73.4812622  H98.0297852V57.8825073L114.9287109,41.1461792z M96.0297852,59.8632202v54.7642212H79.7358398V76.0003662L96.0297852,59.8632202z   M77.7358398,77.9811401v36.6463013H61.4418945V94.1182861L77.7358398,77.9811401z M59.4418945,96.098999v18.5284424H43.1479492  v-2.3912964L59.4418945,96.098999z M41.1479492,114.2169189v0.4105225h-0.4145508L41.1479492,114.2169189z M116.9287109,114.6274414  V25.3725586h11.2641602v89.2548828H116.9287109z M133,23.3725586h-3.8071289h-13.2641602h-14.1542358  c-0.0002441,0-0.0003662,0-0.0006104,0H23.3935547H10.1293945H7V11.512207h126V23.3725586z"></path><path d="M106.2998047,34.699707c0.2602539,0,0.5200195-0.0996094,0.7001953-0.2900391  c0.1899414-0.1796875,0.2998047-0.4399414,0.2998047-0.7099609c0-0.2597656-0.1098633-0.5200195-0.2998047-0.699707  c-0.3701172-0.3701172-1.0400391-0.3701172-1.4101562,0c-0.1899414,0.1796875-0.2900391,0.4399414-0.2900391,0.699707  c0,0.2700195,0.1000977,0.5302734,0.2900391,0.7099609C105.7797852,34.6000977,106.0297852,34.699707,106.2998047,34.699707z"></path><path d="M32.7197266,108.1196289c0.1298828,0.050293,0.2602539,0.0703125,0.3901367,0.0703125  c0.2597656,0,0.5200195-0.1000977,0.7001953-0.2900391c0.1899414-0.1899414,0.2998047-0.4399414,0.2998047-0.7099609  c0-0.2602539-0.1098633-0.5200195-0.2998047-0.7001953c-0.2802734-0.2797852-0.7202148-0.3701172-1.090332-0.2197266  c-0.1201172,0.0498047-0.2299805,0.1196289-0.3198242,0.2197266c-0.1899414,0.1801758-0.2900391,0.4399414-0.2900391,0.7001953  c0,0.2700195,0.1000977,0.5297852,0.2900391,0.7099609C32.4897461,107.9897461,32.5996094,108.0698242,32.7197266,108.1196289z"></path></svg>
