<svg xmlns="http://www.w3.org/2000/svg" width="100" height="100" viewBox="0 0 120 100">
  <g transform="scale(0.9) translate(16 5)">
    <path d="M93.19,41.01l-7.48-0.7c-0.83-3.05-2.03-5.97-3.61-8.71l4.8-5.78c0.66-0.79,0.61-1.96-0.12-2.69l-9.9-9.9  c-0.73-0.73-1.9-0.78-2.69-0.12l-5.78,4.8c-2.74-1.57-5.66-2.78-8.71-3.61l-0.7-7.48C58.9,5.79,58.03,5,57,5H43  c-1.03,0-1.9,0.79-1.99,1.81l-0.7,7.48c-3.05,0.82-5.97,2.03-8.71,3.61l-5.78-4.8c-0.8-0.66-1.96-0.6-2.69,0.12l-9.9,9.9  c-0.73,0.73-0.78,1.9-0.12,2.69l4.8,5.78c-1.57,2.74-2.78,5.66-3.61,8.71l-7.48,0.7C5.79,41.1,5,41.97,5,43v14  c0,1.03,0.79,1.9,1.81,1.99l7.48,0.7c0.82,3.05,2.03,5.97,3.61,8.71l-4.8,5.78c-0.66,0.79-0.61,1.96,0.12,2.69l9.9,9.9  c0.73,0.73,1.9,0.78,2.69,0.12l5.78-4.8c2.74,1.58,5.66,2.78,8.71,3.61l0.7,7.48C41.1,94.21,41.97,95,43,95h14  c1.03,0,1.9-0.79,1.99-1.81l0.7-7.48c3.05-0.83,5.97-2.03,8.71-3.61l5.78,4.8c0.79,0.66,1.96,0.61,2.69-0.12l9.9-9.9  c0.73-0.73,0.78-1.9,0.12-2.69l-4.8-5.78c1.58-2.74,2.78-5.66,3.61-8.71l7.48-0.7C94.21,58.9,95,58.03,95,57V43  C95,41.97,94.21,41.1,93.19,41.01z M91,55.18l-7.08,0.66c-0.86,0.08-1.57,0.7-1.76,1.55c-0.82,3.6-2.24,7.01-4.2,10.14  c-0.46,0.73-0.4,1.68,0.15,2.34l4.54,5.47l-7.32,7.32l-5.47-4.54c-0.67-0.55-1.61-0.61-2.34-0.15c-3.13,1.96-6.54,3.38-10.14,4.2  c-0.84,0.19-1.47,0.9-1.55,1.76L55.18,91H44.82l-0.66-7.08c-0.08-0.86-0.7-1.57-1.55-1.76c-3.6-0.82-7.01-2.24-10.14-4.2  c-0.73-0.46-1.68-0.4-2.34,0.15l-5.47,4.54l-7.32-7.32l4.54-5.47c0.55-0.67,0.61-1.61,0.15-2.34c-1.96-3.13-3.38-6.54-4.2-10.14  c-0.19-0.84-0.9-1.47-1.76-1.55L9,55.18V44.82l7.07-0.66c0.86-0.08,1.57-0.7,1.76-1.55c0.82-3.6,2.24-7.01,4.2-10.14  c0.46-0.73,0.4-1.68-0.15-2.34l-4.54-5.47l7.32-7.32l5.47,4.54c0.67,0.55,1.61,0.62,2.34,0.15c3.13-1.96,6.54-3.38,10.14-4.2  c0.84-0.19,1.47-0.9,1.55-1.76L44.82,9h10.35l0.66,7.07c0.08,0.86,0.7,1.57,1.55,1.76c3.6,0.82,7.01,2.24,10.14,4.2  c0.73,0.46,1.67,0.4,2.34-0.15l5.47-4.54l7.32,7.32l-4.54,5.47c-0.55,0.67-0.61,1.61-0.15,2.34c1.96,3.13,3.38,6.54,4.2,10.14  c0.19,0.84,0.9,1.47,1.76,1.55L91,44.82V55.18z M50,26c-13.23,0-24,10.77-24,24c0,7.32,3.3,13.88,8.48,18.28  c0.16,0.18,0.34,0.34,0.55,0.46C39.14,72.03,44.34,74,50,74c5.66,0,10.86-1.97,14.97-5.26c0.21-0.12,0.4-0.27,0.55-0.46  C70.7,63.88,74,57.32,74,50C74,36.77,63.23,26,50,26z M38,65.96V64c0-4.41,3.59-8,8-8h8c4.41,0,8,3.59,8,8v1.96  C58.65,68.48,54.51,70,50,70C45.5,70,41.35,68.48,38,65.96z M50,52c-3.31,0-6-2.69-6-6s2.69-6,6-6s6,2.69,6,6S53.31,52,50,52z   M65.84,62.16c-0.71-4.56-3.97-8.28-8.29-9.62C59.07,50.78,60,48.5,60,46c0-5.51-4.49-10-10-10c-5.51,0-10,4.49-10,10  c0,2.5,0.93,4.78,2.45,6.54c-4.32,1.34-7.59,5.06-8.29,9.62C31.56,58.78,30,54.58,30,50c0-11.03,8.97-20,20-20  c11.03,0,20,8.97,20,20C70,54.58,68.44,58.78,65.84,62.16z"></path>
  </g>
  <path d="M5,45 C10,-20 110,-20 115,45" stroke="black" stroke-width="5" fill="none"/>
  <polygon points="115.5,49 109,40 119,39" style="fill:black;stroke:black;stroke-width:1"/>
  <path d="M5,55 C10,120 110,120 115,55" stroke="black" stroke-width="5" fill="none"/>
  <polygon points="5,50 10,60 0,60" style="fill:black;stroke:black;stroke-width:1"/>
  <line x1="5" y1="-5" x2="115" y2="105" style="stroke:rgb(139,0,0);stroke-width:6"/>
  <line x1="115" y1="-5" x2="5" y2="105" style="stroke:rgb(139,0,0);stroke-width:6"/>
</svg>
