<svg xmlns="http://www.w3.org/2000/svg" xml:space="preserve" version="1.1" viewBox="0 0 183 160" x="0px" y="0px" fill-rule="evenodd" clip-rule="evenodd"><g><path class="fil0" d="M144 51c-18,3 -34,23 -34,41 -1,17 15,26 31,26l0 -6 -18 -13 3 -5 15 12 0 -21 6 0 0 13 11 -10 3 4 -14 14 0 12c15,0 32,-8 31,-26 0,-18 -17,-38 -34,-41zm-95 57c0,2 21,5 23,5l-34 0 0 23c11,4 22,5 33,7 -23,0 -47,0 -70,0 11,-2 22,-3 33,-7l0 -23 -13 0c4,0 9,-1 13,-2l0 -1c-18,-1 -35,-11 -34,-29 0,-12 8,-27 18,-34 -10,-18 10,-44 28,-47 16,2 29,18 31,34 5,-5 12,-8 18,-9 6,1 12,4 17,7 3,-15 15,-29 30,-31 16,2 30,20 30,35 1,9 -3,15 -9,19 12,9 20,23 20,37 1,20 -18,31 -36,32 0,10 0,19 0,29 11,4 23,5 35,7 -25,0 -51,0 -76,0 12,-2 24,-3 35,-7l0 -29c-18,-1 -35,-11 -37,-29 -2,0 -4,1 -6,1 0,9 0,17 0,26 11,4 21,5 32,7 -23,0 -46,0 -70,0 11,-2 23,-3 33,-7l0 -26c-8,-1 -16,-3 -22,-7 -3,10 -12,16 -22,19zm-11 2c2,0 4,0 5,-1 -1,0 -3,1 -5,1l0 0zm104 -105c-13,2 -25,17 -26,30 5,5 9,11 12,17 2,-1 5,-2 7,-3l-10 -7 3 -4 12 9 0 0 0 -16 4 0 0 10 9 -7 2 3 -10 9c5,1 10,3 15,6 5,-3 9,-8 8,-15 0,-14 -13,-29 -26,-32zm-47 25c-14,2 -26,16 -30,30 5,7 8,15 7,24 5,4 13,6 21,7l0 -6 -17 -12 3 -4 14 10 0 -19 5 0 0 13 10 -10 3 4 -13 12 0 12c2,0 4,-1 7,-1 1,-13 8,-26 19,-35 -5,-11 -16,-23 -29,-25zm-73 14c4,-3 9,-4 14,-5l0 0 -3 -3 3 -3 8 7 0 -10 4 0 0 13c1,1 2,1 2,1l10 -7 3 4 -9 6c3,2 5,5 8,8 2,-6 11,-18 11,-18 0,-14 -13,-31 -27,-33 -15,4 -32,25 -24,40zm-17 37c-1,15 14,23 29,24l0 -6 -17 -12 2 -4 15 10 0 -19 4 0 0 13 11 -10 3 4 -14 12 0 12c15,-1 30,-9 29,-24 0,-16 -15,-35 -31,-37 -19,4 -30,21 -31,37z"></path></g></svg>
