<svg xmlns="http://www.w3.org/2000/svg" version="1.1" x="0px" y="0px" viewBox="0 0 64 64" enable-background="new 0 0 64 64" xml:space="preserve"><g><path d="M60.407,31.722c0,2.485-2.02,4.502-4.502,4.502c-2.486,0-4.498-2.018-4.498-4.502c0-2.482,2.012-4.498,4.498-4.498   C58.388,27.224,60.407,29.24,60.407,31.722z"></path><path d="M57.01,53.107c0,2.479-2.018,4.495-4.502,4.495c-2.486,0-4.498-2.017-4.498-4.495c0-2.486,2.012-4.505,4.498-4.505   C54.992,48.603,57.01,50.621,57.01,53.107z"></path><circle cx="52.947" cy="9.549" r="4.5"></circle><path d="M12.671,37.025c0,3.31-2.691,5.997-6.009,5.997c-3.31,0-5.995-2.688-5.995-5.997c0-3.314,2.685-6.005,5.995-6.005   C9.98,31.02,12.671,33.711,12.671,37.025z"></path><path d="M36.452,31.628c0,3.311-2.688,5.998-6.009,5.998c-3.31,0-5.994-2.688-5.994-5.998c0-3.314,2.684-6.006,5.994-6.006   C33.764,25.622,36.452,28.313,36.452,31.628z"></path><g><rect x="19.279" y="22.38" transform="matrix(0.2942 0.9558 -0.9558 0.2942 45.6211 4.4777)" width="0.999" height="21.49"></rect></g><g><polygon points="33.329,27.25 32.984,25.979 47.603,12.5 47.947,13.772   "></polygon></g><g><polygon points="47.037,49.844 32.931,34.157 33.344,33.125 47.45,48.812   "></polygon></g><g><rect x="30" y="31" width="20" height="1"></rect></g><circle fill="none" stroke="#000000" stroke-width="1.5" stroke-miterlimit="10" cx="52.947" cy="9.546" r="6.723"></circle><circle fill="none" stroke="#000000" stroke-width="1.5" stroke-miterlimit="10" cx="55.907" cy="31.634" r="6.723"></circle><circle fill="none" stroke="#000000" stroke-width="1.5" stroke-miterlimit="10" cx="52.51" cy="53.104" r="6.723"></circle></g></svg>
