<svg xmlns="http://www.w3.org/2000/svg" viewBox="0 0 100 100" x="0px" y="0px"><path d="M79.14,22.38a6,6,0,0,0-6-6H59.61V12.23a6,6,0,0,0-6-6H46.39a6,6,0,0,0-6,6v4.15H26.86a6,6,0,0,0-6,6v13.2a6,6,0,0,0,6,6H40.39v50.2a2,2,0,0,0,2,2H57.61a2,2,0,0,0,2-2V41.58H73.14a6,6,0,0,0,6-6Zm-23.5-2L50,26l-5.64-5.64ZM44.39,12.23a2,2,0,0,1,2-2h7.21a2,2,0,0,1,2,2v4.15H44.39ZM24.86,35.58V22.38a2,2,0,0,1,2-2H38.7l8.47,8.47-8.73,8.73H26.86A2,2,0,0,1,24.86,35.58Zm19.24,2,5.9-5.9,5.9,5.9Zm11.51,52.2H44.39V41.58H55.61Zm19.53-54.2a2,2,0,0,1-2,2H61.56l-8.73-8.73,8.47-8.47H73.14a2,2,0,0,1,2,2Z"></path></svg>
