<svg xmlns="http://www.w3.org/2000/svg" version="1.1" x="0px" y="0px" viewBox="0 0 100 100" enable-background="new 0 0 100 100" xml:space="preserve"><path transform="scale(1.8) translate(-22, -22)" d="M67.83,48.874H57.176v-1.061c3.939-0.495,7-3.858,7-7.931c0-4.411-3.588-8-8-8c-4.41,0-8,3.589-8,8  c0,4.072,3.06,7.436,7,7.931v1.061H32.17l-7.813,19.243h51.285L67.83,48.874z M50.176,39.883c0-3.309,2.691-6,6-6s6,2.691,6,6  c0,2.967-2.166,5.432-5,5.91v-5.469h-2v5.469C52.344,45.314,50.176,42.85,50.176,39.883z M33.516,50.874h21.66v4.009h2v-4.009h9.309  l6.188,15.243H27.329L33.516,50.874z"></path></svg>
