<svg xmlns="http://www.w3.org/2000/svg" version="1.1" x="0px" y="0px" viewBox="0 0 24 24" enable-background="new 0 0 24 24" xml:space="preserve"><path d="M23.374,19.576l-7.507-9.447l3.855-3.855l1.573-0.649c0.097-0.04,0.173-0.115,0.215-0.21l0.704-1.622  c0.065-0.15,0.032-0.326-0.084-0.442l-0.916-0.917c-0.117-0.116-0.294-0.15-0.442-0.084l-1.622,0.705  c-0.096,0.041-0.171,0.118-0.211,0.214l-0.649,1.574l-3.69,3.69L12.12,5.414c1.645-0.788,3.462-1.406,5.153-1.42  c0.166-0.001,0.313-0.104,0.372-0.26c0.058-0.155,0.014-0.33-0.11-0.44c-0.058-0.052-5.882-5.034-14.28,0.601L2.806,3.331  C2.74,3.248,2.644,3.194,2.538,3.182C2.433,3.171,2.327,3.2,2.244,3.267l-1.81,1.438C0.261,4.842,0.232,5.094,0.37,5.267  l4.652,5.854c0.066,0.083,0.162,0.136,0.268,0.148c0.015,0.001,0.03,0.002,0.045,0.002c0.09,0,0.178-0.03,0.249-0.087l1.81-1.438  c0.173-0.137,0.202-0.389,0.064-0.562L7.006,8.616c0.306-0.24,0.838-0.64,1.52-1.106l3.142,3.954l-1.464,1.464l-0.383-0.383  c-0.435-0.435-1.178-0.399-1.658,0.08c-0.349,0.35-0.459,0.833-0.324,1.243l-5.693,5.693c-0.556,0.556-0.516,1.501,0.09,2.106  l0.661,0.661c0.287,0.287,0.66,0.457,1.049,0.479c0.029,0.002,0.059,0.003,0.088,0.003c0.373,0,0.714-0.138,0.97-0.394l5.688-5.688  c0.111,0.037,0.228,0.057,0.347,0.057c0.318,0,0.646-0.132,0.902-0.387c0.479-0.479,0.515-1.223,0.08-1.657l-0.383-0.383l1.3-1.3  l7.214,9.079c0.312,0.392,0.773,0.596,1.239,0.596c0.344,0,0.691-0.112,0.981-0.342l0.749-0.596c0.33-0.263,0.539-0.639,0.587-1.059  C23.755,20.319,23.637,19.906,23.374,19.576z M5.399,10.31L1.245,5.083l1.184-0.941l4.154,5.228L5.399,10.31z M3.757,4.528  C9.823,0.484,14.309,2.202,16.126,3.28c-4.121,0.565-8.424,3.764-9.619,4.709L3.757,4.528z M9.194,7.066  c0.65-0.421,1.393-0.864,2.195-1.285l2.64,3.322l-1.792,1.792L9.194,7.066z M11.374,15.834c-0.154,0.154-0.382,0.199-0.508,0.097  c-0.026-0.021-0.056-0.031-0.085-0.045c-0.009-0.004-0.017-0.011-0.027-0.014c-0.039-0.015-0.078-0.021-0.119-0.023  c-0.011-0.001-0.022-0.003-0.033-0.003c-0.037,0.001-0.072,0.01-0.107,0.021c-0.015,0.005-0.03,0.007-0.045,0.014  c-0.029,0.013-0.053,0.032-0.078,0.052c-0.014,0.011-0.031,0.016-0.044,0.029l-5.891,5.892c-0.111,0.112-0.266,0.16-0.446,0.158  c-0.193-0.012-0.381-0.1-0.529-0.248l-0.047-0.047L9.75,15.38c0.156-0.156,0.156-0.41,0-0.566s-0.409-0.156-0.565,0l-6.336,6.336  l-0.048-0.048c-0.293-0.293-0.333-0.73-0.089-0.975l5.891-5.891c0.013-0.013,0.019-0.031,0.03-0.045  c0.019-0.024,0.037-0.048,0.05-0.075c0.007-0.017,0.01-0.034,0.016-0.051c0.01-0.033,0.018-0.066,0.02-0.101  c0-0.014-0.003-0.027-0.004-0.041c-0.003-0.038-0.008-0.074-0.021-0.111c-0.005-0.012-0.012-0.023-0.018-0.034  c-0.013-0.027-0.022-0.055-0.041-0.079c-0.102-0.125-0.059-0.354,0.095-0.508c0.164-0.165,0.405-0.203,0.526-0.08l0.666,0.666  l0.866,0.866c0,0,0.001,0.001,0.001,0.001l0.665,0.665C11.574,15.43,11.538,15.67,11.374,15.834z M10.77,13.494l8.14-8.14  c0,0,0,0,0,0l0.002-0.002c0.018-0.018,0.026-0.04,0.04-0.06c0.016-0.023,0.036-0.043,0.047-0.07l0.617-1.498l1.224-0.531  l0.531,0.531L20.84,4.947l-1.494,0.617c-0.001,0-0.002,0.001-0.003,0.001l0,0c-0.006,0.002-0.009,0.007-0.015,0.01  c-0.042,0.019-0.082,0.043-0.116,0.077l-8.142,8.142L10.77,13.494z M22.622,21.17l-0.749,0.596c-0.335,0.271-0.83,0.212-1.097-0.125  l-7.271-9.15l1.792-1.792l7.451,9.375c0.13,0.163,0.188,0.367,0.164,0.573C22.889,20.855,22.786,21.04,22.622,21.17z"></path></svg>
