<svg xmlns="http://www.w3.org/2000/svg" viewBox="0 0 100 100" x="0px" y="0px">  <g><path d="M60.41748,17.00879a1.03955,1.03955,0,0,0-1.77832,0L42.3075,48.75726l-8.639-16.79437a1.03955,1.03955,0,0,0-1.77832,0L22.01837,51.15332l-.00049.001L6.11084,82.07715a.99974.99974,0,1,0,1.77832.91406L23.14136,53.342l2.551,2.87866a.95867.95867,0,0,0,.78467.33594,1.00046,1.00046,0,0,0,.7583-.3916l2.04-2.667,3.44385,7.32031a1,1,0,0,0,.90479.57422c.01318,0,.02637,0,.04-.001a.99932.99932,0,0,0,.896-.64648l2.66455-7.08105L39.02,56.11035a1.02149,1.02149,0,0,0,.875.40625,1.00219,1.00219,0,0,0,.811-.52246l1.57581-2.915L57.66895,82.99121a.99974.99974,0,1,0,1.77832-.91406L43.43176,50.94281l4.23492-8.23242.81964,3.22028a.99988.99988,0,0,0,1.63184.502l2.97852-2.63379L56.417,52.63574a1.00019,1.00019,0,0,0,.87158.64648c.02148.001.043.002.06445.002a1.0004,1.0004,0,0,0,.88281-.53027l4.73145-8.90234,3.95508,5.42676a.9826.9826,0,0,0,.89355.40723.99793.99793,0,0,0,.811-.55273l2.97241-6.015L92.11084,82.99121a.99974.99974,0,1,0,1.77832-.91406ZM39.69775,53.65332l-1.95264-2.66016a1.00066,1.00066,0,0,0-1.74219.23926l-2.48145,6.59375-3.13672-6.667a1.0002,1.0002,0,0,0-1.69922-.18164l-2.30127,3.00879L24.1228,51.43408,32.7793,34.60645l8.3938,16.31732Zm27.86816-6.8877-3.92383-5.38379a1.00037,1.00037,0,0,0-1.69092.11914L57.50977,49.8584,54.458,41.73633a.99961.99961,0,0,0-1.59863-.39746l-2.83887,2.51074-.97284-3.82367,10.48065-20.3736L70.46143,40.90576Z"></path></g></svg>
