<svg height='100px' width='100px'  fill="#000000" xmlns="http://www.w3.org/2000/svg" version="1.1" x="0px" y="0px" viewBox="0 0 512 512"><g><g><path d="M172.289,0H24.062C10.867,0,0.133,10.75,0.133,23.953v464.094C0.133,501.25,10.867,512,24.062,512h148.227    c13.195,0,23.93-10.75,23.93-23.953V23.953C196.219,10.75,185.484,0,172.289,0z M178.016,493.766H18.336V18.234h159.68V493.766z"></path></g><g><path d="M487.938,0H339.711c-13.195,0-23.93,10.75-23.93,23.953v464.094c0,13.203,10.734,23.953,23.93,23.953h148.227    c13.195,0,23.93-10.75,23.93-23.953V23.953C511.867,10.75,501.133,0,487.938,0z M493.664,493.766h-159.68V18.234h159.68V493.766z"></path></g></g></svg>
