<svg xmlns="http://www.w3.org/2000/svg" version="1.1" x="0px" y="0px" viewBox="0 0 100 100" xml:space="preserve"><symbol viewBox="-12.754 -31.378 25.509 59.818"><g><path d="M6.112,10.396H-6.112 c-2.003,0-3.643-1.639-3.643-3.643V-8.43c0-1.816,1.486-3.302,3.302-3.302h0.36v-13.344c0-1.816,1.486-3.302,3.302-3.302H2.79 c1.816,0,3.302,1.486,3.302,3.302v13.344h0.36c1.816,0,3.302,1.486,3.302,3.302V6.754C9.754,8.757,8.115,10.396,6.112,10.396z" fill="#FFFFFF" stroke="#F1F2F2" stroke-width="6" stroke-miterlimit="3"></path><g><path d="M-0.646,18.281c-1.252,0-2.271,1.019-2.271,2.271v2.617c0,1.252,1.019,2.271,2.271,2.271h1.292 c1.252,0,2.271-1.019,2.271-2.271v-2.617c0-1.252-1.019-2.271-2.271-2.271H-0.646z" fill="#FFFFFF"></path><path d="M0.646,28.44h-1.292c-2.899,0-5.271-2.372-5.271-5.271v-2.617c0-2.899,2.372-5.271,5.271-5.271 h1.292c2.899,0,5.271,2.372,5.271,5.271v2.617C5.917,26.068,3.545,28.44,0.646,28.44L0.646,28.44z" fill="#F1F2F2"></path></g></g><g><path d="M6.112,10.396H-6.112c-2.003,0-3.643-1.639-3.643-3.643V-8.43 c0-1.816,1.486-3.302,3.302-3.302h0.36v-13.344c0-1.816,1.486-3.302,3.302-3.302H2.79c1.816,0,3.302,1.486,3.302,3.302v13.344 h0.36c1.816,0,3.302,1.486,3.302,3.302V6.754C9.754,8.757,8.115,10.396,6.112,10.396z" stroke="#000000" stroke-miterlimit="3"></path><g><path d="M-0.646,15.781c-2.631,0-4.771,2.14-4.771,4.771v2.617c0,2.631,2.14,4.771,4.771,4.771h1.292 c2.631,0,4.771-2.14,4.771-4.771v-2.617c0-2.631-2.14-4.771-4.771-4.771H-0.646z"></path><path d="M0.646,27.44c2.355,0,4.271-1.916,4.271-4.271v-2.617c0-2.355-1.916-4.271-4.271-4.271h-1.292 c-2.355,0-4.271,1.916-4.271,4.271v2.617c0,2.355,1.916,4.271,4.271,4.271H0.646 M0.646,28.44h-1.292 c-2.899,0-5.271-2.372-5.271-5.271v-2.617c0-2.899,2.372-5.271,5.271-5.271h1.292c2.899,0,5.271,2.372,5.271,5.271v2.617 C5.917,26.068,3.545,28.44,0.646,28.44L0.646,28.44z"></path></g></g></symbol><symbol viewBox="-12.754 -31.379 25.509 59.819"><g><path d="M6.112,10.396H-6.112 c-2.003,0-3.643-1.639-3.643-3.643V-8.431c0-1.816,1.486-3.302,3.302-3.302h0.36v-13.344c0-1.816,1.486-3.302,3.302-3.302H2.79 c1.816,0,3.302,1.486,3.302,3.302v13.344h0.36c1.816,0,3.302,1.486,3.302,3.302V6.753C9.754,8.757,8.115,10.396,6.112,10.396z" fill="#FFFFFF" stroke="#F1F2F2" stroke-width="6" stroke-miterlimit="3"></path><g><path d="M-0.646,18.281c-1.252,0-2.271,1.019-2.271,2.271v2.617c0,1.252,1.019,2.271,2.271,2.271h1.292 c1.252,0,2.271-1.019,2.271-2.271v-2.617c0-1.252-1.019-2.271-2.271-2.271H-0.646z" fill="#FFFFFF"></path><path d="M0.646,28.44h-1.292c-2.899,0-5.271-2.372-5.271-5.271v-2.617c0-2.899,2.372-5.271,5.271-5.271 h1.292c2.899,0,5.271,2.372,5.271,5.271v2.617C5.917,26.068,3.545,28.44,0.646,28.44L0.646,28.44z" fill="#F1F2F2"></path></g></g><g><path d="M6.112,10.396H-6.112 c-2.003,0-3.643-1.639-3.643-3.643V-8.431c0-1.816,1.486-3.302,3.302-3.302h0.36v-13.344c0-1.816,1.486-3.302,3.302-3.302H2.79 c1.816,0,3.302,1.486,3.302,3.302v13.344h0.36c1.816,0,3.302,1.486,3.302,3.302V6.753C9.754,8.757,8.115,10.396,6.112,10.396z" fill="#FFFFFF" stroke="#000000" stroke-width="3" stroke-miterlimit="3"></path><g><path d="M-0.646,16.656c-2.148,0-3.896,1.748-3.896,3.896v2.617c0,2.148,1.748,3.896,3.896,3.896h1.292 c2.148,0,3.896-1.748,3.896-3.896v-2.617c0-2.148-1.748-3.896-3.896-3.896H-0.646z" fill="#FFFFFF"></path><path d="M0.646,25.69c1.39,0,2.521-1.131,2.521-2.521v-2.617c0-1.39-1.131-2.521-2.521-2.521h-1.292 c-1.39,0-2.521,1.131-2.521,2.521v2.617c0,1.39,1.131,2.521,2.521,2.521H0.646 M0.646,28.44h-1.292 c-2.899,0-5.271-2.372-5.271-5.271v-2.617c0-2.899,2.372-5.271,5.271-5.271h1.292c2.899,0,5.271,2.372,5.271,5.271v2.617 C5.917,26.068,3.545,28.44,0.646,28.44L0.646,28.44z"></path></g></g></symbol><symbol viewBox="-14.821 -32.984 29.644 65.967"><g><path d="M3.372,9.536h-6.744 c-4.372,0-7.95-3.577-7.95-7.95v-11.902c0-2.108,1.725-3.832,3.832-3.832h0.418v-11.503c0-2.108,1.725-3.832,3.832-3.832h6.478 c2.108,0,3.832,1.725,3.832,3.832v11.503H7.49c2.108,0,3.832,1.725,3.832,3.832V1.586C11.322,5.959,7.745,9.536,3.372,9.536z" fill="#FFFFFF" stroke="#F2F2F2" stroke-width="7" stroke-miterlimit="3"></path><path d="M0.75,14.209h-1.5 c-3.365,0-6.118,2.753-6.118,6.118v3.038c0,3.365,2.753,6.118,6.118,6.118h1.5c3.365,0,6.118-2.753,6.118-6.118v-3.038 C6.868,16.962,4.115,14.209,0.75,14.209z" fill="#FFFFFF" stroke="#F2F2F2" stroke-width="7" stroke-miterlimit="3"></path></g><g><g><path d="M-3.238-28.483c-1.562,0-2.833,1.271-2.833,2.832v12.503h-1.418c-1.562,0-2.833,1.271-2.833,2.833V1.586 c0,3.832,3.118,6.95,6.95,6.95h6.744c3.832,0,6.95-3.118,6.95-6.95v-11.901c0-1.563-1.271-2.833-2.833-2.833H6.072v-12.503 c0-1.562-1.271-2.832-2.833-2.832H-3.238z"></path><path d="M3.372,7.536c3.281,0,5.95-2.669,5.95-5.95v-11.902c0-1.01-0.822-1.833-1.832-1.833H7.072h-2v-2v-11.503 c0-1.01-0.822-1.833-1.833-1.833h-6.478c-1.01,0-1.832,0.822-1.832,1.833v11.503v2h-2h-0.418c-1.01,0-1.832,0.822-1.832,1.833 V1.586c0,3.281,2.669,5.95,5.95,5.95H3.372 M3.372,9.536h-6.744c-4.372,0-7.95-3.577-7.95-7.95v-11.902 c0-2.108,1.725-3.833,3.832-3.833h0.418v-11.503c0-2.108,1.725-3.833,3.832-3.833h6.478c2.108,0,3.833,1.725,3.833,3.833v11.503 H7.49c2.108,0,3.832,1.725,3.832,3.833V1.586C11.322,5.959,7.745,9.536,3.372,9.536L3.372,9.536z"></path></g><g><path d="M-0.75,15.209c-2.822,0-5.118,2.296-5.118,5.118v3.038c0,2.821,2.296,5.117,5.118,5.117h1.5 c2.822,0,5.118-2.296,5.118-5.117v-3.038c0-2.822-2.296-5.118-5.118-5.118H-0.75z"></path><path d="M0.75,27.483c2.271,0,4.118-1.847,4.118-4.118v-3.038c0-2.271-1.847-4.118-4.118-4.118h-1.5 c-2.271,0-4.118,1.847-4.118,4.118v3.038c0,2.271,1.847,4.118,4.118,4.118H0.75 M0.75,29.483h-1.5 c-3.365,0-6.118-2.753-6.118-6.118v-3.038c0-3.365,2.753-6.118,6.118-6.118h1.5c3.365,0,6.118,2.753,6.118,6.118v3.038 C6.868,26.73,4.115,29.483,0.75,29.483L0.75,29.483z"></path></g></g></symbol><symbol viewBox="-13.754 -32.379 27.509 60.818"><g><path d="M6.112,10.396H-6.112 c-2.003,0-3.643-1.639-3.643-3.643V-8.431c0-1.816,1.486-3.302,3.302-3.302h0.36v-13.344c0-1.816,1.486-3.302,3.302-3.302H2.79 c1.816,0,3.302,1.486,3.302,3.302v13.344h0.36c1.816,0,3.302,1.486,3.302,3.302V6.753C9.755,8.757,8.115,10.396,6.112,10.396z" fill="#FFFFFF" stroke="#F1F2F2" stroke-width="8" stroke-miterlimit="3"></path><g><path d="M-0.646,19.28c-0.689,0-1.271,0.582-1.271,1.271v2.617c0,0.689,0.582,1.271,1.271,1.271h1.292 c0.689,0,1.271-0.582,1.271-1.271v-2.617c0-0.689-0.582-1.271-1.271-1.271H-0.646z" fill="#FFFFFF"></path><path d="M0.646,28.439h-1.292c-2.899,0-5.271-2.372-5.271-5.271v-2.617c0-2.899,2.372-5.271,5.271-5.271 h1.292c2.899,0,5.271,2.372,5.271,5.271v2.617C5.917,26.068,3.545,28.439,0.646,28.439L0.646,28.439z" fill="#F1F2F2"></path></g></g><g><path d="M6.112,10.396H-6.112c-2.003,0-3.643-1.639-3.643-3.643V-8.431 c0-1.816,1.486-3.302,3.302-3.302h0.36v-13.344c0-1.816,1.486-3.302,3.302-3.302H2.79c1.816,0,3.302,1.486,3.302,3.302v13.344 h0.36c1.816,0,3.302,1.486,3.302,3.302V6.753C9.755,8.757,8.115,10.396,6.112,10.396z" stroke="#FFFFFF" stroke-miterlimit="10"></path><g><path d="M-0.646,15.78c-2.631,0-4.771,2.14-4.771,4.771v2.617c0,2.631,2.14,4.771,4.771,4.771h1.292 c2.631,0,4.771-2.14,4.771-4.771v-2.617c0-2.631-2.14-4.771-4.771-4.771H-0.646z"></path><path d="M0.646,27.439c2.355,0,4.271-1.916,4.271-4.271v-2.617c0-2.355-1.916-4.271-4.271-4.271h-1.292 c-2.355,0-4.271,1.916-4.271,4.271v2.617c0,2.355,1.916,4.271,4.271,4.271H0.646 M0.646,28.439h-1.292 c-2.899,0-5.271-2.372-5.271-5.271v-2.617c0-2.899,2.372-5.271,5.271-5.271h1.292c2.899,0,5.271,2.372,5.271,5.271v2.617 C5.917,26.068,3.545,28.439,0.646,28.439L0.646,28.439z" fill="#FFFFFF"></path></g></g></symbol><symbol viewBox="-14.822 -32.984 29.644 65.967"><g><path d="M3.372,9.536h-6.744 c-4.372,0-7.95-3.577-7.95-7.95v-11.902c0-2.108,1.725-3.832,3.832-3.832h0.418v-11.503c0-2.108,1.725-3.832,3.832-3.832h6.478 c2.108,0,3.832,1.725,3.832,3.832v11.503h0.418c2.108,0,3.832,1.725,3.832,3.832V1.586C11.322,5.959,7.745,9.536,3.372,9.536z" fill="#FFFFFF" stroke="#F2F2F2" stroke-width="7" stroke-miterlimit="3"></path><path d="M0.75,14.209h-1.5 c-3.365,0-6.118,2.753-6.118,6.118v3.038c0,3.365,2.753,6.118,6.118,6.118h1.5c3.365,0,6.118-2.753,6.118-6.118v-3.038 C6.868,16.962,4.115,14.209,0.75,14.209z" fill="#FFFFFF" stroke="#F2F2F2" stroke-width="7" stroke-miterlimit="3"></path></g><g><g><path d="M-3.238-27.483c-1.011,0-1.833,0.822-1.833,1.832v13.503h-2.418c-1.01,0-1.832,0.822-1.832,1.833 V1.586c0,3.281,2.669,5.95,5.949,5.95h6.744c3.281,0,5.95-2.669,5.95-5.95v-11.901c0-1.011-0.822-1.833-1.833-1.833H5.071 v-13.503c0-1.01-0.822-1.832-1.832-1.832H-3.238z" fill="#FFFFFF"></path><path d="M3.372,5.536c2.178,0,3.95-1.772,3.95-3.95v-11.734h-0.25h-4v-4v-11.336h-6.143v11.336v4h-4h-0.251V1.586 c0,2.178,1.772,3.95,3.95,3.95H3.372 M3.372,9.536h-6.744c-4.372,0-7.95-3.577-7.95-7.95v-11.902 c0-2.108,1.725-3.832,3.833-3.832h0.418v-11.503c0-2.108,1.725-3.832,3.833-3.832h6.478c2.108,0,3.833,1.725,3.833,3.832v11.503 H7.49c2.108,0,3.832,1.725,3.832,3.832V1.586C11.322,5.959,7.745,9.536,3.372,9.536L3.372,9.536z"></path></g><g><path d="M-0.75,16.209c-2.271,0-4.117,1.848-4.117,4.118v3.038c0,2.271,1.847,4.118,4.117,4.118h1.5 c2.271,0,4.118-1.848,4.118-4.118v-3.038c0-2.271-1.848-4.118-4.118-4.118H-0.75z" fill="#FFFFFF"></path><path d="M0.75,25.483c1.148,0,2.118-0.97,2.118-2.118v-3.038c0-1.148-0.97-2.118-2.118-2.118h-1.5 c-1.148,0-2.118,0.97-2.118,2.118v3.038c0,1.148,0.97,2.118,2.118,2.118H0.75 M0.75,29.483h-1.5 c-3.365,0-6.118-2.753-6.118-6.118v-3.038c0-3.365,2.753-6.118,6.118-6.118h1.5c3.365,0,6.118,2.753,6.118,6.118v3.038 C6.868,26.73,4.115,29.483,0.75,29.483L0.75,29.483z"></path></g></g></symbol><symbol viewBox="-14.321 -32.483 28.644 64.967"><g><path d="M3.373,9.536h-6.744 c-4.372,0-7.95-3.577-7.95-7.95v-11.902c0-2.108,1.725-3.832,3.832-3.832h0.418v-11.503c0-2.108,1.725-3.832,3.832-3.832h6.478 c2.108,0,3.832,1.725,3.832,3.832v11.503H7.49c2.108,0,3.832,1.725,3.832,3.832V1.586C11.323,5.959,7.745,9.536,3.373,9.536z" fill="#FFFFFF" stroke="#F2F2F2" stroke-width="6" stroke-miterlimit="3"></path><path d="M0.75,14.209h-1.5 c-3.365,0-6.118,2.753-6.118,6.118v3.038c0,3.365,2.753,6.118,6.118,6.118h1.5c3.365,0,6.118-2.753,6.118-6.118v-3.038 C6.868,16.962,4.115,14.209,0.75,14.209z" fill="#FFFFFF" stroke="#F2F2F2" stroke-width="6" stroke-miterlimit="3"></path></g><g><g><path d="M-3.238-27.483c-1.01,0-1.832,0.822-1.832,1.832v13.504h-2.418c-1.011,0-1.833,0.822-1.833,1.832V1.587 c0,3.28,2.669,5.949,5.95,5.949h6.744c3.28,0,5.949-2.669,5.949-5.949v-11.902c0-1.01-0.822-1.832-1.832-1.832H5.072v-13.504 c0-1.01-0.822-1.832-1.833-1.832H-3.238z"></path><path d="M3.373,5.536c2.178,0,3.95-1.772,3.95-3.95v-11.734H7.072h-4v-4v-11.336h-6.143v11.336v4h-4h-0.25V1.586 c0,2.178,1.772,3.95,3.95,3.95H3.373 M3.373,9.536h-6.744c-4.372,0-7.95-3.577-7.95-7.95v-11.902 c0-2.108,1.725-3.832,3.833-3.832h0.418v-11.503c0-2.108,1.725-3.833,3.833-3.833H3.24c2.108,0,3.832,1.725,3.832,3.833v11.503 H7.49c2.108,0,3.833,1.725,3.833,3.832V1.586C11.323,5.959,7.745,9.536,3.373,9.536L3.373,9.536z"></path></g><g><path d="M-0.674,16.974c-1.934,0-3.507,1.572-3.507,3.506v2.734c0,1.934,1.573,3.506,3.507,3.506h1.35 c1.934,0,3.506-1.572,3.506-3.506v-2.734c0-1.934-1.572-3.506-3.506-3.506H-0.674z"></path><path d="M0.676,24.719c0.816,0,1.506-0.69,1.506-1.506v-2.734c0-0.816-0.69-1.506-1.506-1.506h-1.35 c-0.816,0-1.506,0.69-1.506,1.506v2.734c0,0.816,0.69,1.506,1.506,1.506H0.676 M0.676,28.719h-1.35 c-3.028,0-5.506-2.478-5.506-5.506v-2.734c0-3.028,2.478-5.506,5.506-5.506h1.35c3.028,0,5.506,2.478,5.506,5.506v2.734 C6.182,26.242,3.704,28.719,0.676,28.719L0.676,28.719z"></path></g></g></symbol><symbol viewBox="-13.754 -32.378 27.509 60.818"><g><path d="M6.112,10.396H-6.112 c-2.003,0-3.643-1.639-3.643-3.643V-8.43c0-1.816,1.486-3.302,3.302-3.302h0.36v-13.344c0-1.816,1.486-3.302,3.302-3.302h5.581 c1.816,0,3.302,1.486,3.302,3.302v13.344h0.36c1.816,0,3.302,1.486,3.302,3.302V6.754C9.755,8.757,8.116,10.396,6.112,10.396z" fill="#FFFFFF" stroke="#F1F2F2" stroke-width="8" stroke-miterlimit="3"></path><g><path d="M-0.646,19.281c-0.689,0-1.271,0.582-1.271,1.271v2.618c0,0.688,0.582,1.271,1.271,1.271h1.292 c0.688,0,1.271-0.582,1.271-1.271v-2.618c0-0.689-0.582-1.271-1.271-1.271H-0.646z" fill="#FFFFFF"></path><path d="M0.646,28.44h-1.292c-2.899,0-5.271-2.372-5.271-5.271v-2.617c0-2.899,2.372-5.271,5.271-5.271 h1.292c2.899,0,5.271,2.372,5.271,5.271v2.617C5.917,26.068,3.545,28.44,0.646,28.44L0.646,28.44z" fill="#F1F2F2"></path></g></g><g><path d="M6.112,10.396H-6.112 c-2.003,0-3.643-1.639-3.643-3.643V-8.43c0-1.816,1.486-3.302,3.302-3.302h0.36v-13.344c0-1.816,1.486-3.302,3.302-3.302h5.581 c1.816,0,3.302,1.486,3.302,3.302v13.344h0.36c1.816,0,3.302,1.486,3.302,3.302V6.754C9.755,8.757,8.116,10.396,6.112,10.396z" fill="#FFFFFF" stroke="#000000" stroke-width="2" stroke-miterlimit="3"></path><g><path d="M-0.646,16.281c-2.355,0-4.271,1.916-4.271,4.271v2.618c0,2.355,1.916,4.271,4.271,4.271h1.292 c2.354,0,4.271-1.916,4.271-4.271v-2.618c0-2.355-1.916-4.271-4.271-4.271H-0.646z" fill="#FFFFFF"></path><path d="M0.646,26.44c1.804,0,3.271-1.467,3.271-3.271v-2.617c0-1.804-1.467-3.271-3.271-3.271h-1.292 c-1.804,0-3.271,1.467-3.271,3.271v2.617c0,1.804,1.467,3.271,3.271,3.271H0.646 M0.646,28.44h-1.292 c-2.899,0-5.271-2.372-5.271-5.271v-2.617c0-2.899,2.372-5.271,5.271-5.271h1.292c2.899,0,5.271,2.372,5.271,5.271v2.617 C5.917,26.068,3.545,28.44,0.646,28.44L0.646,28.44z"></path></g></g></symbol><g></g><g><g><path d="M40.72,23.404c2.106,2.845,5.476,4.701,9.28,4.701c3.804,0,7.173-1.856,9.28-4.7c1.88,3.005,5.21,5.014,9.009,5.014 c5.862,0,10.63-4.769,10.63-10.63s-4.768-10.63-10.63-10.63c-3.279,0-6.215,1.494-8.166,3.835C58.155,7.425,54.357,5,50.001,5 c-4.357,0-8.155,2.425-10.123,5.995c-1.951-2.342-4.887-3.836-8.167-3.836c-5.862,0-10.63,4.768-10.63,10.63 s4.768,10.63,10.63,10.63C35.51,28.419,38.84,26.41,40.72,23.404z M68.289,10.512c4.013,0,7.277,3.264,7.277,7.277 c0,4.013-3.264,7.277-7.277,7.277c-3.471,0-6.373-2.447-7.095-5.704c0.226-0.901,0.36-1.839,0.36-2.81 c0-0.427-0.027-0.847-0.072-1.261C62.506,12.511,65.158,10.512,68.289,10.512z M50.001,8.353c4.522,0,8.2,3.678,8.2,8.2 c0,4.521-3.679,8.2-8.2,8.2c-4.521,0-8.2-3.679-8.2-8.2C41.801,12.031,45.479,8.353,50.001,8.353z M24.434,17.789 c0-4.012,3.265-7.277,7.277-7.277c3.132,0,5.785,2,6.809,4.781c-0.045,0.414-0.072,0.833-0.072,1.259 c0,0.97,0.133,1.907,0.359,2.808c-0.722,3.258-3.624,5.706-7.096,5.706C27.698,25.066,24.434,21.801,24.434,17.789z"></path><path d="M27.894,89.97h7.634c1.287,0,2.482-0.39,3.485-1.049c0.422,3.417,3.31,6.08,6.839,6.08h8.297 c3.529,0,6.416-2.663,6.839-6.079c1.003,0.659,2.197,1.048,3.484,1.048h7.634c3.513,0,6.371-2.858,6.371-6.371v-18.03 c2.861-0.625,5.01-3.178,5.01-6.224V42.959c0-6.189-5.035-11.224-11.223-11.224h-7.949c-1.743,0-3.387,0.411-4.86,1.123 c-1.563-0.729-3.298-1.148-5.133-1.148h-8.64c-1.835,0-3.571,0.419-5.133,1.148c-1.473-0.712-3.118-1.123-4.861-1.123h-7.949 c-6.189,0-11.223,5.035-11.223,11.224v16.386c0,3.046,2.148,5.599,5.01,6.224v18.03C21.523,87.112,24.381,89.97,27.894,89.97z M64.314,35.088h7.949c4.34,0,7.87,3.531,7.87,7.871v16.386c0,1.408-0.998,2.648-2.372,2.948l-2.637,0.576v2.7v18.03 c0,1.664-1.354,3.018-3.018,3.018h-7.634c-1.664,0-3.018-1.354-3.018-3.018V68.362c2.913-0.818,5.064-3.476,5.064-6.646V43.908 c0-3.392-1.394-6.462-3.635-8.675C63.348,35.147,63.823,35.088,64.314,35.088z M45.68,35.062h8.64 c4.877,0,8.845,3.968,8.845,8.846v17.808c0,1.666-1.181,3.134-2.807,3.489l-2.637,0.576v2.7v19.595 c0,1.969-1.602,3.571-3.571,3.571h-8.297c-1.969,0-3.571-1.602-3.571-3.571V68.481v-2.7l-2.638-0.576 c-1.627-0.355-2.808-1.823-2.808-3.489V43.908C36.835,39.03,40.803,35.062,45.68,35.062z M19.866,59.345V42.959 c0-4.34,3.531-7.871,7.87-7.871h7.949c0.49,0,0.966,0.059,1.432,0.145c-2.242,2.213-3.635,5.283-3.635,8.675v17.808 c0,3.171,2.151,5.829,5.063,6.647v15.236c0,1.664-1.354,3.018-3.018,3.018h-7.634c-1.664,0-3.018-1.354-3.018-3.018v-18.03v-2.7 l-2.637-0.576C20.864,61.993,19.866,60.753,19.866,59.345z"></path></g></g></svg>
