<svg xmlns="http://www.w3.org/2000/svg" viewBox="0 0 100 100" x="0px" y="0px"><path d="M49.54,69.58A19.58,19.58,0,1,0,30,50,19.6,19.6,0,0,0,49.54,69.58Zm0-36.16A16.58,16.58,0,1,1,33,50,16.6,16.6,0,0,1,49.54,33.42Z"></path><path d="M45.65,46.91a1.5,1.5,0,0,0,1.5-1.5A2.23,2.23,0,0,1,51.56,45a2.25,2.25,0,0,1-1.15,2.43,4.86,4.86,0,0,0-2.53,4.34V53a1.5,1.5,0,0,0,3,0V51.72A1.89,1.89,0,0,1,51.82,50a5.22,5.22,0,1,0-7.67-4.62A1.5,1.5,0,0,0,45.65,46.91Z"></path><path d="M49.38,55.83A2.19,2.19,0,1,0,51.57,58,2.19,2.19,0,0,0,49.38,55.83Z"></path></svg>
