<svg xmlns="http://www.w3.org/2000/svg" width="100" height="100"><g transform="translate(50 50) scale(-1 1) translate(-50 -50)"><svg xmlns="http://www.w3.org/2000/svg" viewBox="0 0 1024 1024" x="0px" y="0px"><path d="M929.683983 464.630987a420.570958 420.570958 0 0 0-417.679332-372.698481l36.305972-35.020805A32.129179 32.129179 0 1 0 503.972356 10.645682l-88.355243 85.463617a32.129179 32.129179 0 0 0 0 45.302143l85.142325 88.033952A32.129179 32.129179 0 0 0 546.382873 184.785835l-27.309803-28.273678a356.633891 356.633891 0 0 1 254.141809 598.887903 32.129179 32.129179 0 1 0 47.229894 43.695684 420.89225 420.89225 0 0 0 109.23921-334.464757zM556.985502 795.561535a32.129179 32.129179 0 1 0-44.659559 46.266018L539.957037 869.137355A356.633891 356.633891 0 0 1 236.657583 285.350166 32.129179 32.129179 0 1 0 186.536064 244.224816 421.213542 421.213542 0 0 0 510.398192 933.395714c13.172964 0 26.667219 0 40.161474-2.249042l-36.305973 38.233723a32.129179 32.129179 0 0 0 46.266019 44.659559l85.142325-88.033951a32.129179 32.129179 0 0 0 0-45.302143z"></path></svg></g></svg>
