<svg height='100px' width='100px' xmlns="http://www.w3.org/2000/svg" version="1.1" x="0px" y="0px" viewBox="0 0 100 100"><path d="M93.2,17.4L82.5,6.8C81.4,5.6,79.9,5,78.3,5c-1.6,0-3.1,0.6-4.3,1.8l-57,57c-0.2,0.2-0.4,0.5-0.4,0.9V76  l-10,10c-0.2,0.2-0.5,0.5-0.7,0.8c0,0,0,0,0,0c-0.1,0.1-0.2,0.3-0.2,0.4c0,0,0,0,0,0.1c-0.1,0.1-0.1,0.3-0.2,0.4c0,0,0,0,0,0.1  c-0.1,0.1-0.1,0.3-0.2,0.4c0,0,0,0,0,0.1c0,0.1-0.1,0.3-0.1,0.4c0,0,0,0,0,0c0,0.1-0.1,0.3-0.1,0.4c0,0,0,0,0,0  c-0.2,1.1,0,2.3,0.6,3.3c0,0,0,0,0,0c0.1,0.1,0.1,0.2,0.2,0.4c0,0,0,0.1,0.1,0.1c0,0,0,0,0,0.1c0,0,0.1,0.1,0.1,0.1  c0.1,0.1,0.1,0.1,0.2,0.2c0,0,0,0,0.1,0.1c0.1,0.1,0.1,0.1,0.2,0.2c0.1,0.1,0.1,0.1,0.2,0.2c0.1,0.1,0.2,0.1,0.2,0.2  c0.1,0,0.1,0.1,0.2,0.1c0.1,0.1,0.2,0.1,0.3,0.2c0.1,0,0.1,0.1,0.2,0.1c0.1,0.1,0.2,0.1,0.3,0.2c0,0,0.1,0,0.2,0.1  c0.1,0.1,0.2,0.1,0.4,0.1c0.1,0,0.1,0,0.2,0.1c0.1,0,0.2,0.1,0.4,0.1c0.1,0,0.2,0,0.3,0c0.1,0,0.2,0,0.3,0c0.2,0,0.4,0,0.6,0  c0,0,0,0,0,0c1.4,0,2.7-0.5,3.7-1.5L24,83.4h11.4c0.3,0,0.6-0.1,0.9-0.4l4.1-4.1c0,0,0,0,0,0c0,0,0,0,0,0l11.2-11.2c0,0,0,0,0,0  c0,0,0,0,0,0l2.8-2.8c0,0,0,0,0,0c0,0,0,0,0,0l2.8-2.8c0,0,0,0,0,0c0,0,0,0,0,0l5.6-5.6c0,0,0,0,0,0c0,0,0,0,0,0L74,45.2  c0,0,0,0,0,0c0,0,0,0,0,0l2.8-2.8c0,0,0,0,0,0c0,0,0,0,0,0l2.8-2.8c0,0,0,0,0,0s0,0,0,0L93.2,26C95.6,23.7,95.6,19.8,93.2,17.4z   M12,92c-0.5,0.4-1.1,0.6-1.8,0.6c-0.1,0-0.2,0-0.3,0c0,0,0,0-0.1,0c-0.1,0-0.2,0-0.3,0c0,0,0,0-0.1,0c-0.1,0-0.2,0-0.3-0.1  c0,0,0,0-0.1,0c-0.1,0-0.2-0.1-0.2-0.1c0,0,0,0-0.1,0c-0.1,0-0.1-0.1-0.2-0.1c0,0,0,0-0.1,0c-0.1,0-0.1-0.1-0.2-0.1c0,0,0,0-0.1-0.1  c-0.1,0-0.1-0.1-0.2-0.1c0,0-0.1-0.1-0.1-0.1c0,0,0-0.1-0.1-0.1c-0.1-0.1-0.2-0.2-0.2-0.3c0,0-0.1-0.1-0.1-0.1  c-0.1-0.1-0.1-0.2-0.2-0.4c0,0,0-0.1,0-0.1c0-0.2-0.1-0.3-0.1-0.5c0,0,0,0,0,0c0-0.2,0-0.3,0-0.5c0,0,0,0,0,0c0-0.2,0-0.3,0.1-0.5  c0,0,0,0,0,0c0-0.2,0.1-0.3,0.2-0.5c0,0,0,0,0,0C7.8,88.3,8,88,8.3,87.7l10.1-10.1l4.5-1.2c0.2-0.1,0.4-0.2,0.5-0.3L74.5,25  c0.4-0.4,0.5-1,0.2-1.4c-1-1.8-0.7-4.1,0.7-5.5c0.9-0.9,2-1.3,3.2-1.3c1.2,0,2.4,0.5,3.2,1.3c1.8,1.8,1.8,4.7,0,6.5  c-0.9,0.9-2,1.3-3.2,1.3c-0.8,0-1.6-0.2-2.3-0.6c-0.5-0.3-1.1-0.2-1.4,0.2l-51,51c-0.2,0.2-0.3,0.3-0.3,0.5l-1.2,4.5L12.2,91.8  C12.1,91.8,12.1,91.9,12,92z M91.5,24.3l-9.9,9.9L77.3,30c-0.5-0.5-1.2-0.5-1.7,0c-0.5,0.5-0.5,1.2,0,1.7l4.2,4.2l-1.1,1.1l-2.4-2.4  c-0.5-0.5-1.2-0.5-1.7,0c-0.5,0.5-0.5,1.2,0,1.7l2.4,2.4L76,39.9l-2.4-2.4c-0.5-0.5-1.2-0.5-1.7,0c-0.5,0.5-0.5,1.2,0,1.7l2.4,2.4  l-1.1,1.1l-4.2-4.2c-0.5-0.5-1.2-0.5-1.7,0c-0.5,0.5-0.5,1.2,0,1.7l4.2,4.2l-1.1,1.1L68,43.1c-0.5-0.5-1.2-0.5-1.7,0  c-0.5,0.5-0.5,1.2,0,1.7l2.4,2.4l-1.1,1.1l-2.4-2.4c-0.5-0.5-1.2-0.5-1.7,0c-0.5,0.5-0.5,1.2,0,1.7l2.4,2.4l-1.1,1.1l-4.2-4.2  c-0.5-0.5-1.2-0.5-1.7,0c-0.5,0.5-0.5,1.2,0,1.7l4.2,4.2l-1.1,1.1l-2.4-2.4c-0.5-0.5-1.2-0.5-1.7,0c-0.5,0.5-0.5,1.2,0,1.7l2.4,2.4  l-1.1,1.1l-2.4-2.4c-0.5-0.5-1.2-0.5-1.7,0c-0.5,0.5-0.5,1.2,0,1.7l2.4,2.4l-1.1,1.1L52,55.3c-0.5-0.5-1.2-0.5-1.7,0  c-0.5,0.5-0.5,1.2,0,1.7l4.2,4.2l-1.1,1.1L51.1,60c-0.5-0.5-1.2-0.5-1.7,0c-0.5,0.5-0.5,1.2,0,1.7l2.4,2.4l-1.1,1.1l-2.4-2.4  c-0.5-0.5-1.2-0.5-1.7,0c-0.5,0.5-0.5,1.2,0,1.7l2.4,2.4L47.9,68l-4.2-4.2c-0.5-0.5-1.2-0.5-1.7,0c-0.5,0.5-0.5,1.2,0,1.7l4.2,4.2  l-1.1,1.1l-2.4-2.4c-0.5-0.5-1.2-0.5-1.7,0c-0.5,0.5-0.5,1.2,0,1.7l2.4,2.4l-1.1,1.1l-2.4-2.4c-0.5-0.5-1.2-0.5-1.7,0  c-0.5,0.5-0.5,1.2,0,1.7l2.4,2.4l-1.1,1.1l-4.2-4.2c-0.5-0.5-1.2-0.5-1.7,0c-0.5,0.5-0.5,1.2,0,1.7l4.2,4.2L34.8,81h-9.8l0.8-3  L76,27.8c0.8,0.3,1.7,0.5,2.6,0.5c1.9,0,3.6-0.7,4.9-2c2.7-2.7,2.7-7.2,0-9.9c-1.3-1.3-3.1-2-4.9-2c-1.9,0-3.6,0.7-4.9,2  c-2,2-2.6,5-1.5,7.6L22,74.2l-3,0.8v-9.8L75.7,8.5c0.7-0.7,1.6-1.1,2.6-1.1c1,0,1.9,0.4,2.6,1.1l10.7,10.7  C92.9,20.6,92.9,22.9,91.5,24.3z"></path></svg>
