<svg height='100px' width='100px' xmlns="http://www.w3.org/2000/svg" version="1.1" x="0px" y="0px" viewBox="0 0 100 100" enable-background="new 0 0 100 100"><g><rect x="14.282" y="31.323" fill="none" width="53.617" height="55.075"></rect><path d="M66.776,28.816h-51.37c-2.005,0-3.631,1.626-3.631,3.631v52.829c0,2.005,1.626,3.631,3.631,3.631h51.37   c2.005,0,3.631-1.626,3.631-3.631V32.446C70.407,30.441,68.781,28.816,66.776,28.816z M67.899,86.398H14.282V31.323h53.617V86.398z   "></path><path d="M92.596,85.766l-4.848,4.849V26.58l4.953,4.953c0.489,0.489,1.283,0.489,1.773,0c0.489-0.49,0.489-1.284,0-1.773   l-7.094-7.094c-0.49-0.489-1.283-0.489-1.774,0l-7.094,7.094c-0.489,0.489-0.489,1.283,0,1.773c0.49,0.489,1.284,0.489,1.774,0   l4.953-4.954v64.244l-5.058-5.058c-0.49-0.49-1.283-0.49-1.773,0c-0.49,0.489-0.49,1.283,0,1.773l7.094,7.094   c0.489,0.49,1.284,0.49,1.774,0l7.093-7.094c0.49-0.49,0.49-1.284,0-1.773C93.88,85.276,93.087,85.276,92.596,85.766z"></path><path d="M78.851,12.568l-7.094-7.094c-0.489-0.49-1.283-0.49-1.773,0c-0.49,0.49-0.49,1.284,0,1.773l4.848,4.849H9.437l4.955-4.956   c0.49-0.49,0.49-1.284,0-1.773c-0.489-0.49-1.283-0.49-1.773,0l-7.093,7.094c-0.49,0.489-0.49,1.283,0,1.773l7.093,7.093   c0.49,0.489,1.284,0.489,1.773,0c0.49-0.49,0.49-1.284,0-1.773l-4.949-4.95h65.598l-5.057,5.058c-0.49,0.489-0.49,1.283,0,1.773   c0.49,0.489,1.284,0.489,1.773,0l7.094-7.094C79.341,13.852,79.341,13.058,78.851,12.568z"></path></g></svg>
