<svg xmlns="http://www.w3.org/2000/svg" width="100" height="100" viewBox="0 0 100 100" x="0px" y="0px"><path d="M23.11,64.75h7.7L50.6,81.66a3.1,3.1,0,0,0,2,.75,3.14,3.14,0,0,0,1.32-.29,3.09,3.09,0,0,0,1.81-2.83V20.71a3.12,3.12,0,0,0-5.15-2.37L30.81,35.25h-7.7a6.51,6.51,0,0,0-6.5,6.5V58.25A6.51,6.51,0,0,0,23.11,64.75Zm-3.5-23a3.5,3.5,0,0,1,3.5-3.5h8.25a1.5,1.5,0,0,0,1-.36L52.55,20.62a.11.11,0,0,1,.13,0,.1.1,0,0,1,.07.11V79.29a.12.12,0,0,1-.2.09L32.34,62.11a1.5,1.5,0,0,0-1-.36H23.11a3.5,3.5,0,0,1-3.5-3.5Zm61.22-2.4A1.5,1.5,0,0,1,83,41.46L74.41,50,83,58.54a1.5,1.5,0,1,1-2.12,2.12l-8.54-8.54-8.54,8.54a1.5,1.5,0,0,1-2.12-2.12L70.17,50l-8.54-8.54a1.5,1.5,0,0,1,2.12-2.12l8.54,8.54Z"></path></svg>
