<svg xmlns="http://www.w3.org/2000/svg" width="100" height="100" viewBox="0 0 100 100" x="0px" y="0px"><path d="M23.6,64.75h7.7L51.08,81.66a3.1,3.1,0,0,0,2,.75,3.14,3.14,0,0,0,1.32-.29,3.09,3.09,0,0,0,1.81-2.83V20.71a3.12,3.12,0,0,0-5.15-2.37L31.3,35.25H23.6a6.51,6.51,0,0,0-6.5,6.5V58.25A6.51,6.51,0,0,0,23.6,64.75Zm-3.5-23a3.5,3.5,0,0,1,3.5-3.5h8.25a1.5,1.5,0,0,0,1-.36L53,20.62a.11.11,0,0,1,.13,0,.1.1,0,0,1,.07.11V79.29a.12.12,0,0,1-.2.09L32.83,62.11a1.5,1.5,0,0,0-1-.36H23.6a3.5,3.5,0,0,1-3.5-3.5ZM82.9,50A30.82,30.82,0,0,1,68.65,76,1.5,1.5,0,1,1,67,73.52a27.92,27.92,0,0,0,0-47A1.5,1.5,0,1,1,68.65,24,30.82,30.82,0,0,1,82.9,50Zm-15,0a15.8,15.8,0,0,0-6.26-12.63A1.5,1.5,0,1,1,63.45,35a18.87,18.87,0,0,1,0,30,1.5,1.5,0,1,1-1.82-2.38A15.8,15.8,0,0,0,67.89,50Z"></path></svg>
