<svg xmlns="http://www.w3.org/2000/svg" version="1.1" x="0px" y="0px" viewBox="0 0 100 100" enable-background="new 0 0 100 100" xml:space="preserve"><path d="M48.65,93.65c5.786,0,11.408-1.114,16.71-3.313c0.718-0.298,1.06-1.122,0.762-1.84c-0.298-0.72-1.122-1.061-1.84-0.762  c-4.958,2.056-10.218,3.098-15.632,3.098C26.134,90.834,7.816,72.517,7.816,50S26.134,9.166,48.65,9.166S89.485,27.483,89.485,50  c0,5.414-1.042,10.673-3.098,15.63c-1.397,3.368-3.239,6.519-5.478,9.398l-0.978-10.856c-0.07-0.775-0.754-1.346-1.528-1.275  L78.4,62.897c-0.774,0.07-1.345,0.755-1.275,1.53l1.267,14.037c0.07,0.775,0.749,1.301,1.516,1.175l13.911-2.284  c0.767-0.126,1.288-0.851,1.162-1.617v-0.002c-0.126-0.768-0.85-1.287-1.617-1.162l-9.794,1.61c2.196-2.922,4.016-6.097,5.417-9.477  c2.198-5.301,3.313-10.922,3.313-16.708c0-24.069-19.582-43.65-43.651-43.65C24.582,6.35,5,25.931,5,50S24.582,93.65,48.65,93.65z"></path><path d="M74.538,24.112c-0.55-0.55-1.441-0.55-1.991,0L52.529,44.13c-1.113-0.737-2.446-1.17-3.879-1.17  c-1.433,0-2.766,0.433-3.878,1.17L30.387,29.745c-0.55-0.55-1.441-0.55-1.991,0c-0.55,0.55-0.55,1.441,0,1.991l14.385,14.385  c-0.738,1.113-1.17,2.446-1.17,3.879c0,3.882,3.158,7.04,7.04,7.04s7.041-3.158,7.041-7.04c0-1.433-0.433-2.766-1.17-3.879  l20.018-20.018C75.088,25.554,75.088,24.663,74.538,24.112z M48.65,54.225c-2.329,0-4.224-1.896-4.224-4.225  s1.895-4.225,4.224-4.225c2.33,0,4.225,1.896,4.225,4.225S50.98,54.225,48.65,54.225z"></path><path d="M50.059,19.257v-6.571c0-0.777-0.63-1.408-1.408-1.408s-1.408,0.631-1.408,1.408v6.571c0,0.777,0.63,1.408,1.408,1.408  S50.059,20.034,50.059,19.257z"></path><path d="M47.243,80.743v6.571c0,0.777,0.63,1.408,1.408,1.408s1.408-0.631,1.408-1.408v-6.571c0-0.777-0.63-1.408-1.408-1.408  S47.243,79.966,47.243,80.743z"></path><path d="M85.965,51.408c0.778,0,1.408-0.631,1.408-1.408s-0.63-1.408-1.408-1.408h-6.571c-0.778,0-1.408,0.631-1.408,1.408  s0.63,1.408,1.408,1.408H85.965z"></path><path d="M11.336,48.592c-0.778,0-1.408,0.631-1.408,1.408s0.63,1.408,1.408,1.408h6.571c0.778,0,1.408-0.631,1.408-1.408  s-0.63-1.408-1.408-1.408H11.336z"></path></svg>
