<svg xmlns="http://www.w3.org/2000/svg" width="100" height="100" viewBox="0 0 100 100"><g><g transform="translate(50 50) scale(-1 1) rotate(0) translate(-50 -50)"><g transform="translate(0,-952.36218)"><path d="m 56.762,958.3393 c -0.533378,0.052 -1.041197,0.32934 -1.373633,0.75019 L 44.3993,973.09313 c -0.467405,0.58478 -0.564903,1.44201 -0.240779,2.11703 0.324122,0.67502 1.053683,1.13413 1.801726,1.13382 l 4.99503,0 0,19.00494 c -2.1e-5,1.05794 0.972744,2.01695 2.029232,2.00052 2.635093,-0.0267 5.292626,-0.005 7.960829,0 1.046128,-10e-5 1.997907,-0.95308 1.998012,-2.00052 l 0,-19.00494 4.995031,0 c 0.748042,3.1e-4 1.477604,-0.4588 1.801726,-1.13382 0.324124,-0.67502 0.226626,-1.53225 -0.240779,-2.11703 L 58.510261,959.08949 c -0.410272,-0.51864 -1.09022,-0.81041 -1.748261,-0.75019 z m -27.97217,4.00104 c -0.98219,0.0927 -1.814952,1.01275 -1.810698,2.00052 l 0,19.00494 -4.99503,0 c -0.737347,0.009 -1.452041,0.46266 -1.774064,1.12686 -0.322023,0.6642 -0.236167,1.50727 0.213117,2.09273 l 10.989066,14.00361 c 0.745632,0.9342 2.376262,0.9342 3.121894,0 l 10.989067,-14.00361 c 0.449284,-0.58546 0.53514,-1.42853 0.213117,-2.09273 -0.322024,-0.6642 -1.036718,-1.11816 -1.774064,-1.12686 l -4.99503,0 0,-19.00494 c -1.05e-4,-1.04744 -0.951884,-2.00042 -1.998012,-2.00052 -2.865422,-10e-4 -5.705875,0.0212 -8.179363,0 z m 28.159484,1.21906 6.899386,8.78354 -2.903362,0 c -1.046128,10e-5 -1.997907,0.95308 -1.998012,2.00052 l 0,19.00494 c -1.326944,-0.005 -2.660862,-0.003 -3.996024,0 l 0,-19.00494 c -1.05e-4,-1.04744 -0.951884,-2.00042 -1.998012,-2.00052 l -2.903362,0 z m -25.974158,2.78198 c 1.335163,0.003 2.669081,0.005 3.996024,0 l 0,19.00494 c 1.05e-4,1.04744 0.951884,2.00042 1.998013,2.00052 l 2.872142,0 -6.868167,8.75228 -6.868166,-8.75228 2.872142,0 c 1.046128,-1e-4 1.997907,-0.95308 1.998012,-2.00052 z m -18.981115,35.00912 c -1.85965,0 -3.5453331,0.8298 -4.5267464,2.0943 -0.9814134,1.2643 -1.342179,2.7934 -1.4360713,4.2823 -0.1843225,2.9231 0.5766005,5.9075 2.4662963,7.9083 0.031063,0.036 0.062451,0.089 0.093657,0.1251 4.2032736,4.8751 9.6856466,10.6223 14.9538716,15.2227 2.653669,2.3173 5.252137,4.3231 7.648641,5.814 2.396503,1.4909 4.535798,2.5632 6.77451,2.5632 l 24.819057,0 c 3.231279,0.483 4.981744,1.4092 6.587196,2.5944 1.630886,1.2038 3.163868,2.8238 5.619409,4.1573 0.92356,0.4992 2.217488,0.112 2.716047,-0.8127 0.498559,-0.9247 0.111868,-2.2203 -0.811692,-2.7194 -1.856295,-1.0082 -3.183966,-2.3926 -5.151125,-3.8448 -1.967159,-1.4522 -4.583466,-2.8136 -8.52277,-3.3759 -8.392498,-8e-4 -16.843504,0 -25.256122,0 -0.758307,0 -2.573182,-0.6255 -4.682841,-1.938 -2.109659,-1.3124 -4.568727,-3.2442 -7.117919,-5.4701 -5.098383,-4.4522 -10.538988,-10.1427 -14.641682,-14.9102 -0.03017,-0.032 -0.06142,-0.064 -0.09366,-0.094 -0.623069,-0.6326 -1.5536825,-3.1049 -1.4360713,-4.97 0.058801,-0.9325 0.3238523,-1.6758 0.6243783,-2.063 0.198401,-0.2556 0.575306,-0.2897 0.90535,-0.3751 3.883732,3.5318 14.120004,11.8555 18.138204,15.3165 0.130814,0.1231 0.278261,0.2286 0.437065,0.3125 0.169899,1.1198 0.564904,2.2008 1.123882,3.1258 1.739713,2.4058 4.479522,4.0738 6.743291,4.0636 l 15.984097,0 c 1.055574,0.015 2.026468,-0.9435 2.026468,-2.0005 0,-1.057 -0.970894,-2.0155 -2.026468,-2.0005 -5.384433,0 -10.801025,0 -16.171411,0 -0.875992,0.078 -2.332414,-0.7673 -3.153113,-2.1256 -0.638077,-1.056 -0.685995,-2.04 -0.374627,-2.8757 l 35.683248,0 c 4.211716,0 7.472656,2.0739 10.739315,5.0325 3.266659,2.9588 6.335294,6.7177 10.02128,9.5338 0.813978,0.7392 2.252281,0.6118 2.923978,-0.2591 0.671696,-0.8708 0.431207,-2.2964 -0.488901,-2.898 -3.130068,-2.3912 -6.192862,-6.1049 -9.771528,-9.3462 -3.578667,-3.2408 -7.876957,-6.0641 -13.424144,-6.0641 -12.378979,0 -24.785011,0 -37.150538,0 -0.513494,0.044 -1.006071,0.2967 -1.342415,0.6877 -0.173772,0.2036 -0.328353,0.4418 -0.468284,0.6564 -4.985094,-4.2195 -14.996426,-12.3509 -17.607482,-14.8163 -0.369174,-0.3417 -0.87094,-0.5358 -1.373633,-0.5314 z"/></g></g></g></svg>
