<svg xmlns="http://www.w3.org/2000/svg" version="1.1" width="100" height="100" x="0px" y="0px" viewBox="0 0 96 96" enable-background="new 0 0 96 96" xml:space="preserve"><g><path d="M36.483,82.5h23.055c0.276,0,0.5-0.224,0.5-0.5v-6.166c0-0.276-0.224-0.5-0.5-0.5H36.483c-0.276,0-0.5,0.224-0.5,0.5V82   C35.983,82.276,36.207,82.5,36.483,82.5z M37.983,77.334h20.055V80.5H37.983V77.334z"></path><path d="M72.344,51.716c0.599-0.978,0.658-2.375,0.146-3.395L51.137,5.62c-0.598-1.189-1.796-1.929-3.126-1.929   s-2.529,0.741-3.131,1.935L23.532,48.322c-0.241,0.483-0.369,1.024-0.369,1.564c0,0.645,0.182,1.282,0.526,1.846   c0.644,1.036,1.755,1.654,2.974,1.654h9.32v20.78c0,0.276,0.224,0.5,0.5,0.5h23.055c0.276,0,0.5-0.224,0.5-0.5v-20.78h9.32   C70.575,53.387,71.69,52.763,72.344,51.716z M58.538,51.387c-0.276,0-0.5,0.224-0.5,0.5v20.78H37.983v-20.78   c0-0.276-0.224-0.5-0.5-0.5h-10.82c-0.521,0-0.998-0.264-1.271-0.704c-0.15-0.245-0.229-0.52-0.229-0.796   c0-0.231,0.055-0.463,0.158-0.67L46.667,6.524c0.26-0.514,0.774-0.833,1.344-0.833s1.083,0.316,1.339,0.825l21.352,42.701   c0.206,0.409,0.178,1.059-0.061,1.447c-0.281,0.452-0.761,0.722-1.282,0.722H58.538z"></path><path d="M60.038,88.809v-5.142c0-0.276-0.224-0.5-0.5-0.5H36.483c-0.276,0-0.5,0.224-0.5,0.5v5.142c0,1.93,1.57,3.5,3.5,3.5h17.055   C58.468,92.309,60.038,90.738,60.038,88.809z M37.983,88.809v-3.642h20.055v3.642c0,0.827-0.673,1.5-1.5,1.5H39.483   C38.656,90.309,37.983,89.636,37.983,88.809z"></path></g></svg>
