<svg xmlns="http://www.w3.org/2000/svg" width="100" height="100" viewBox="0 0 110 100"><g><g><svg xmlns="http://www.w3.org/2000/svg" version="1.1" x="0px" y="0px" viewBox="0 0 512 512" enable-background="new 0 0 512 512" xml:space="preserve"><path d="M502.891,375.021h-44.984V225.74h44.984c5.031,0,9.109-4.094,9.109-9.125v-59.312  c0-5.031-4.078-9.109-9.109-9.109h-44.984V75.803c0-1.828-0.5-3.562-1.469-5.031l-0.531-0.812L412.25,4.428  c-3.594-5.781-12.344-5.656-15.719-0.188l-43.953,65.906c-1.266,1.812-1.859,3.656-1.859,5.594v72.453h-41.125V75.803  c0-1.844-0.5-3.562-1.469-5.031L263.938,4.428c-3.625-5.812-12.344-5.656-15.719-0.188l-43.938,65.906  c-1.281,1.812-1.875,3.656-1.875,5.594v72.453h-41.125V75.803c0-1.828-0.5-3.562-1.469-5.031l-0.531-0.812L115.625,4.428  C112-1.385,103.266-1.229,99.906,4.24L55.969,70.146c-1.281,1.812-1.875,3.656-1.875,5.594v72.453H9.109  c-5.031,0-9.109,4.078-9.109,9.109v59.312c0,5.031,4.078,9.125,9.109,9.125h44.984v149.281H9.109C4.078,375.021,0,379.1,0,384.146  v59.312c0,5.031,4.078,9.109,9.109,9.109h44.984v50.203c0,5.031,4.078,9.125,9.094,9.125h89c5.016,0,9.094-4.094,9.094-9.125  v-50.203h41.125v50.203c0,5.031,4.078,9.125,9.094,9.125h89c5.016,0,9.094-4.094,9.094-9.125v-50.203h41.125v50.203  c0,5.031,4.078,9.125,9.094,9.125h89c5.016,0,9.094-4.094,9.094-9.125v-50.203h44.984c5.031,0,9.109-4.078,9.109-9.109v-59.312  C512,379.1,507.922,375.021,502.891,375.021z M457.906,166.396h35.875v41.125h-35.875V166.396z M54.094,434.334H18.219V393.24  h35.875V434.334z M54.094,207.521H18.219v-41.125h35.875V207.521z M143.078,493.646H72.297l1.094-416.812l34.312-51.422  l35.375,53.047V493.646z M202.406,434.334h-41.125V393.24h41.125V434.334z M202.406,375.021h-41.125V225.74h41.125V375.021z   M202.406,207.521h-41.125v-41.125h41.125V207.521z M220.609,493.646l1.094-416.812L256,25.412l35.375,53.047l0.016,415.188H220.609  z M350.719,434.334h-41.125V393.24h41.125V434.334z M350.719,375.021h-41.125V225.74h41.125V375.021z M350.719,207.521h-41.125  v-41.125h41.125V207.521z M439.703,493.646h-70.781L370,76.834l34.312-51.422l35.391,53.047V493.646z M493.781,434.334h-35.875  V393.24h35.875V434.334z"></path></svg></g></g></svg>
