<svg xmlns="http://www.w3.org/2000/svg" version="1.1" x="0px" y="0px" viewBox="0 0 100 100" style="enable-background:new 0 0 100 100;" xml:space="preserve"><path d="M80.4,79.1c-0.6-2.9-2.6-5.4-5.3-6.5c-0.8-0.4-1.6-0.9-2.3-1.5l-0.4-0.4c-2.9-2.8-4.6-6.5-4.7-10.6l-0.3-10.8  c-0.1-3.6-0.6-7.1-1.1-10.2c-0.2-1.4-1-5.1-1-5.2l-4-19.7l0,0c-0.3-1.3-1.1-2.5-2.3-3.2c-1.2-0.7-2.5-1-3.9-0.7  c-1.3,0.3-2.5,1.1-3.2,2.3c-0.7,1.2-1,2.5-0.7,3.9l0.5,2.3c0,0-0.1,0-0.1,0c-0.5,0.2-1,0.6-1.4,0.9c-0.4-0.4-0.9-0.7-1.4-0.9  c0,0-0.1,0-0.1,0l0.5-2.3c0.3-1.3,0.1-2.7-0.7-3.9c-0.7-1.2-1.9-2-3.2-2.3c-1.3-0.3-2.7-0.1-3.9,0.7c-1.2,0.7-2,1.9-2.3,3.2l-4,19.7  c0,0.2-0.8,3.8-1,5.2c-0.5,3.1-1.1,6.6-1.1,10.2l-0.3,10.8c-0.1,4-1.7,7.8-4.7,10.6l-0.4,0.4c-0.7,0.6-1.4,1.1-2.3,1.5  c-2.7,1.2-4.7,3.6-5.3,6.5c-0.6,2.9,0.3,5.9,2.3,8.1c1.8,1.8,4.1,2.8,6.5,2.8c1.9,0,3.9-0.6,5.5-1.9l9.1-6.9  c2.5-1.9,4.5-4.5,5.8-7.4c0.3-0.8,0.6-1.6,0.8-2.4c0.2,0.8,0.5,1.6,0.8,2.4c1.3,2.9,3.3,5.5,5.8,7.4l9.1,6.9  c1.6,1.2,3.6,1.9,5.5,1.9c2.4,0,4.8-0.9,6.5-2.8C80.1,85.1,81,82,80.4,79.1z M54.8,14.4c0.3-0.4,0.6-0.7,1.1-0.8  c0.5-0.1,0.9,0,1.3,0.2c0.4,0.2,0.7,0.6,0.8,1.1l2,10.1l-1.4-3.6l0-0.1c-0.7-1.5-2-2.5-3.5-2.9l-0.6-2.8  C54.5,15.3,54.6,14.8,54.8,14.4z M42.6,15c0.1-0.5,0.4-0.8,0.8-1.1c0.4-0.3,0.9-0.3,1.3-0.2c0.5,0.1,0.9,0.4,1.1,0.8  c0.3,0.4,0.3,0.9,0.2,1.3l-0.6,2.8c-0.2,0-0.4,0.1-0.5,0.2c-1.3,0.5-2.4,1.5-2.9,2.8l-1.4,3.6L42.6,15z M46.4,72.5  c-1,2.4-2.7,4.5-4.7,6.1l-9.1,6.9c-2.5,1.9-6.2,1.4-8.1-1.2c-0.9-1.2-1.2-2.7-1-4.2c0.3-2,1.6-3.6,3.4-4.3c1.1-0.5,2.2-1.1,3.1-2  l0.6-0.5c3.5-3.4,5.6-8,5.7-12.9l0.3-10.8c0,0,0,0,0-0.1c0.1-3.3,0.8-6.6,2-9.7l6.6-16.9c0.2-0.4,0.6-0.8,1-1c0.5-0.2,1-0.2,1.4,0  c0.6,0.3,1,0.9,1.1,1.5c0,0.1,0,0.2,0,0.3c0,0.2-0.1,0.4-0.2,0.6l-0.7,1.7c-1.8,3.9-3.2,7.9-4.1,11.8c-0.2,0.9-0.4,1.7-0.6,2.6  c-0.8,0.2-1.5,0.6-2.1,1.2c-1,1-1.6,2.3-1.7,3.7l-0.5,10.1c0,0.9,0.7,1.7,1.6,1.8h0c0.9,0,1.7-0.7,1.8-1.6l0.5-10.3  c0-0.5,0.2-1,0.6-1.3c0.4-0.3,0.9-0.5,1.4-0.5c1,0.1,1.8,0.9,1.8,2l-0.3,6.1c-0.2,3.7,0.2,7.4,1.1,11.1C48,66,47.7,69.4,46.4,72.5z   M50.9,45.8l0.3,6.1c0.2,3.2-0.1,6.5-0.9,9.6c-0.7-3.1-1-6.4-0.9-9.6l0.3-6.1c0.1-2.3-1.3-4.4-3.3-5.2c0.1-0.6,0.3-1.3,0.4-1.9  c0.8-3.3,2-6.8,3.4-10.1c1.5,3.4,2.6,6.8,3.4,10.1c0.2,0.6,0.3,1.3,0.4,1.9C52.1,41.4,50.8,43.5,50.9,45.8z M75.6,84.9  c-2,2-5.3,2.2-7.6,0.5l-9-6.9c-2.1-1.6-3.7-3.7-4.7-6.1c-1.3-3-1.6-6.5-0.8-9.7c0.9-3.6,1.3-7.3,1.1-11.1l-0.3-6.1  c-0.1-1,0.7-1.9,1.8-2c0.5,0,1.1,0.2,1.4,0.6c0.3,0.3,0.5,0.8,0.5,1.3l0.5,10.2c0,0.9,0.8,1.6,1.8,1.6h0c0.9,0,1.6-0.8,1.6-1.8  l-0.5-10.1c-0.1-1.4-0.7-2.8-1.7-3.7c-0.6-0.5-1.3-0.9-2.1-1.2c-0.2-0.8-0.4-1.7-0.6-2.6c-1-3.9-2.4-7.9-4.1-11.8l-0.7-1.7  C52.1,24.2,52,24,52,23.8c0-0.1,0-0.2,0-0.3c0.1-0.7,0.5-1.3,1.1-1.6c0.5-0.2,1-0.2,1.4,0c0.5,0.2,0.8,0.5,1,1l6.6,16.9  c1.2,3.1,1.9,6.4,2,9.7c0,0,0,0,0,0.1l0.3,10.8c0.1,4.9,2.1,9.5,5.7,12.9l0.5,0.5c0.9,0.9,2,1.5,3.1,2c1.7,0.7,3,2.2,3.3,4.1  C77.5,81.7,76.9,83.6,75.6,84.9z"></path></svg>
