<svg xmlns="http://www.w3.org/2000/svg" viewBox="0 0 24 24" version="1.1" x="0px" y="0px"><g stroke="none" stroke-width="1" fill="none" fill-rule="evenodd"><g transform="translate(-360.000000, -216.000000)" fill="#000000"><g transform="translate(360.000000, 216.000000)"><path d="M12,24 C5.372583,24 0,18.627417 0,12 C0,5.372583 5.372583,0 12,0 C18.627417,0 24,5.372583 24,12 C24,18.627417 18.627417,24 12,24 Z M12,23 C18.0751322,23 23,18.0751322 23,12 C23,5.92486775 18.0751322,1 12,1 C5.92486775,1 1,5.92486775 1,12 C1,18.0751322 5.92486775,23 12,23 Z"></path><path d="M7.69899168,3.80576019 C6.4616511,4.11724257 6.17905154,4.69745659 6.2152273,5.90923496 C6.2221661,6.14166349 6.22272229,6.24596081 6.21474918,6.36610682 C6.19848937,6.61112425 6.14451706,6.79116427 6.03257789,6.95027016 C5.84973214,7.21015986 5.70419247,7.25939451 5.17851802,7.28435912 C5.07373051,7.28931639 5.02298224,7.29203708 4.96036266,7.29656485 C4.20580142,7.35112412 3.68978349,7.62545126 3.273132,8.36850753 C3.13807468,8.60936876 3.22384569,8.91411095 3.46470692,9.04916828 C3.70556814,9.1842256 4.01031034,9.09845459 4.14536766,8.85759336 C4.38160958,8.43627952 4.58899717,8.32602745 5.03248034,8.29396098 C5.08409976,8.29022859 5.12518416,8.28802599 5.22595518,8.28323334 C6.03179172,8.24496367 6.44202829,8.10618461 6.85044294,7.52568025 C7.07899674,7.20082294 7.18502726,6.84712794 7.21255448,6.43232302 C7.22334064,6.26978737 7.22266734,6.14353039 7.21478199,5.87939481 C7.19099305,5.08253756 7.25632987,4.94839249 7.94311085,4.77550542 C8.21089861,4.70809378 8.37333553,4.43636097 8.30592388,4.16857322 C8.23851224,3.90078546 7.96677943,3.73834854 7.69899168,3.80576019 Z"></path><path d="M9.17210479,10.8393378 C9.59224847,11.5272777 10.1256401,11.8353542 10.7532801,11.7577536 C11.1688873,11.7063685 11.4109369,11.583294 12.1421506,11.1348109 C12.7238685,10.7780196 13.0191989,10.6478903 13.3124355,10.6478903 C13.6854784,10.6478903 13.8237002,10.7311487 14.1526541,11.0860532 L14.1651696,11.0995567 C14.7351094,11.7144104 15.1890538,11.9461946 16.0990807,11.8550493 C16.3738483,11.8275294 16.5742823,11.582477 16.5467624,11.3077093 C16.5192426,11.0329416 16.2741902,10.8325077 15.9994225,10.8600275 C15.4494088,10.9151151 15.2753655,10.8262485 14.898555,10.4197437 L14.8860659,10.4062687 C14.3863239,9.86710261 14.0223972,9.64789029 13.3124355,9.64789029 C12.7697941,9.64789029 12.3578587,9.82939842 11.6193174,10.2823759 C11.034289,10.6411976 10.841481,10.7392343 10.6305758,10.7653103 C10.4244371,10.790797 10.2541307,10.6924314 10.0255323,10.3181263 C9.88160376,10.0824588 9.57388033,10.0080897 9.33821282,10.1520182 C9.10254531,10.2959468 9.02817621,10.6036703 9.17210479,10.8393378 Z"></path><path d="M4.27367645,13.9891432 C5.11311477,14.715524 5.77351723,14.7942833 6.53114516,14.4073176 C6.61920294,14.3623412 6.70433555,14.3148701 6.86077793,14.2261808 C7.23004393,14.0194267 7.44359253,13.9431014 7.72859136,13.9437398 C8.03459168,13.9444254 8.1630666,14.0418963 8.46734353,14.4576499 C8.4863719,14.4836677 8.4863719,14.4836677 8.50589811,14.5103521 C9.0552359,15.2603625 9.53057502,15.5660079 10.4676142,15.4721571 C10.7423819,15.4446373 10.9428159,15.1995848 10.915296,14.9248172 C10.8877762,14.6500495 10.6427237,14.4496155 10.3679561,14.4771354 C9.85363344,14.5286483 9.67445752,14.4134373 9.31264659,13.9194571 C9.29369162,13.8935533 9.29369162,13.8935533 9.27431189,13.8670553 C8.79989716,13.2188312 8.4393993,12.9453297 7.73083159,12.9437424 C7.23540072,12.9426325 6.87843298,13.0702179 6.37223729,13.3536397 C6.21221448,13.4441966 6.1453952,13.481456 6.07628234,13.5167561 C5.68061591,13.7188465 5.45900601,13.6924174 4.92802424,13.2329495 C4.7192071,13.0522563 4.40344662,13.0750553 4.22275347,13.2838725 C4.04206032,13.4926896 4.06485931,13.8084501 4.27367645,13.9891432 Z"></path><path d="M7.73456299,20.0091262 C8.62341188,21.074063 9.86053775,21.1506635 11.2037659,20.3551381 C11.3832789,20.2488217 11.5336871,20.2896079 11.9075268,20.5586939 C11.9535808,20.5918431 11.9930768,20.6210018 12.0839493,20.6885493 C12.9630914,21.34122 13.5216543,21.5115547 14.295789,20.9931373 C14.5252345,20.8394838 14.5866759,20.5289207 14.4330224,20.2994753 C14.2793689,20.0700299 13.9688059,20.0085884 13.7393604,20.1622419 C13.4355835,20.3656732 13.2507123,20.3092965 12.6800342,19.8856278 C12.5882889,19.8174159 12.5435262,19.7843689 12.4917191,19.7470787 C11.8294155,19.2703593 11.3105679,19.1296632 10.6941824,19.4947169 C9.73946942,20.0601446 9.04374151,20.0170664 8.50228712,19.3683457 C8.32534047,19.1563445 8.01003597,19.1279272 7.7980348,19.3048739 C7.58603364,19.4818205 7.55761634,19.797125 7.73456299,20.0091262 Z"></path><path d="M19.6677,17.623346 C19.5306639,17.7058278 19.3929603,17.7928987 19.2134447,17.9094427 C18.3323523,18.4814597 18.1448242,18.5903 17.8764193,18.65353 C17.6625366,18.703916 17.5790032,18.6519535 17.4484857,18.2747388 C17.1349755,17.3686484 16.5782033,17.2583653 15.4730422,17.4473653 L15.4437642,17.4523681 C14.7163193,17.5764807 14.6140525,17.5437996 14.5163793,17.0631995 C14.4613827,16.7925891 14.197426,16.6177996 13.9268156,16.6727963 C13.6562052,16.7277929 13.4814158,16.9917496 13.5364124,17.2623599 C13.7746472,18.434592 14.4213511,18.6412567 15.6119483,18.4381237 L15.6416107,18.4330552 C16.3064334,18.3193601 16.4130654,18.3404813 16.5034556,18.6017222 C16.7946726,19.4433819 17.3687599,19.8004967 18.1057198,19.6268857 C18.5432665,19.5238097 18.731866,19.4143476 19.7579692,18.7481876 C19.9287923,18.637287 20.0578276,18.555697 20.183391,18.4801207 C20.4199828,18.3377166 20.496337,18.0304797 20.3539328,17.7938879 C20.2115287,17.5572961 19.9042918,17.4809419 19.6677,17.623346 Z"></path><path d="M20.3384093,14.0969609 C21.1009584,13.2461967 21.0932514,12.5471814 20.5482525,11.7445224 C20.4987417,11.6716043 20.4489241,11.6017959 20.3534437,11.4693183 C20.0570751,11.0553303 19.956049,10.8370473 19.9615413,10.5581973 C19.9677222,10.24438 20.0628213,10.1171031 20.4644518,9.81730684 C20.4884071,9.79943649 20.4884071,9.79943649 20.5129716,9.78110113 C21.2365958,9.24049473 21.5330508,8.77075658 21.4561573,7.83936263 C21.433437,7.56415652 21.1919199,7.35947633 20.9167138,7.38219663 C20.6415077,7.40491692 20.4368276,7.64643399 20.4595478,7.92164009 C20.5028343,8.44596024 20.390034,8.62469436 19.9144689,8.97998035 C19.890647,8.9977613 19.890647,8.9977613 19.8662751,9.01594256 C19.2410323,9.48265372 18.9755326,9.83798848 18.9617352,10.538505 C18.9508146,11.0929592 19.1275494,11.4748229 19.5403265,12.0514183 C19.6370164,12.185671 19.6790773,12.2446101 19.7209384,12.3062619 C20.0239015,12.7524575 20.0260487,12.9472072 19.5937507,13.4295154 C19.4094407,13.6351472 19.4267254,13.9512575 19.6323572,14.1355675 C19.837989,14.3198775 20.1540993,14.3025927 20.3384093,14.0969609 Z"></path><path d="M18.6246854,5.5224688 C17.9966486,4.39548846 17.3754736,4.28398879 16.1811212,4.64200407 C15.6587203,4.7985973 15.424151,4.8249674 15.1560223,4.72669575 C14.8590141,4.61783945 14.7721668,4.48855558 14.6148706,3.9963438 C14.6023416,3.95711493 14.6023416,3.95711493 14.5893005,3.91656742 C14.3228888,3.09156458 13.9608552,2.65460909 13.0719131,2.42834254 C12.8043036,2.36022666 12.5321444,2.52194818 12.4640285,2.78955767 C12.3959127,3.05716715 12.5576342,3.32932634 12.8252437,3.39744222 C13.3264713,3.52502201 13.4666497,3.69420997 13.6376869,4.22386461 C13.649853,4.26169128 13.649853,4.26169128 13.6623276,4.30074816 C13.9048274,5.05957893 14.1486424,5.4225305 14.8118979,5.66561981 C15.3440043,5.86064176 15.7510481,5.81488221 16.4682553,5.59989444 C17.2662218,5.36069856 17.4034694,5.38533424 17.7511661,6.00925835 C17.8855893,6.25047404 18.1901048,6.33704644 18.4313205,6.20262321 C18.6725362,6.06819999 18.7591086,5.76368449 18.6246854,5.5224688 Z"></path><path d="M7.42931385,4.23895481 C7.59747308,3.37385056 8.62653213,2.94359543 9.67878171,3.14813203 C10.7310313,3.35266862 11.5239818,4.13708654 11.3558226,5.00219079 C11.1876634,5.86729504 10.1586043,6.29755017 9.10635473,6.09301358 C8.05410514,5.88847698 7.26115462,5.10405906 7.42931385,4.23895481 Z M10.3741954,4.8113818 C10.416798,4.5922106 10.0621363,4.2413653 9.48797272,4.12975921 C8.91380913,4.01815311 8.4535436,4.21059261 8.41094104,4.4297638 C8.36833847,4.648935 8.72300013,4.9997803 9.29716372,5.11138639 C9.87132731,5.22299249 10.3315928,5.03055299 10.3741954,4.8113818 Z"></path><path d="M9.57132837,10.9624411 C8.70088245,11.1003062 7.94461595,10.2804629 7.77692693,9.22171614 C7.60923791,8.16296933 8.07514459,7.14955285 8.94559051,7.01168776 C9.81603644,6.87382267 10.5723029,7.69366594 10.739992,8.75241274 C10.907681,9.81115955 10.4417743,10.824576 9.57132837,10.9624411 Z M9.10202498,7.9993761 C8.88150049,8.03430375 8.67311518,8.48757285 8.76461527,9.06528167 C8.85611536,9.64299049 9.19436942,10.0096804 9.41489391,9.97475278 C9.6354184,9.93982513 9.8438037,9.48655603 9.75230361,8.90884721 C9.66080353,8.33113839 9.32254947,7.96444845 9.10202498,7.9993761 Z"></path><path d="M4.78320955,13.9615801 C3.97810546,14.3200356 3.03541707,13.723864 2.59941808,12.7445942 C2.16341909,11.7653244 2.35115889,10.6658537 3.15626298,10.3073983 C3.96136707,9.94894287 4.90405546,10.5451145 5.34005445,11.5243843 C5.77605345,12.503654 5.58831364,13.6031247 4.78320955,13.9615801 Z M3.56299962,11.2209438 C3.35902926,11.3117572 3.2750592,11.8035156 3.51296354,12.3378575 C3.75086788,12.8721994 4.17250255,13.1388481 4.37647291,13.0480347 C4.58044327,12.9572212 4.66441334,12.4654628 4.426509,11.9311209 C4.18860465,11.396779 3.76696998,11.1301303 3.56299962,11.2209438 Z"></path><path d="M8.77552716,17.6905091 C9.05296674,18.7259277 8.69554322,19.7824931 7.84427651,20.0105893 C6.9930098,20.2386855 6.15518926,19.5023848 5.87774968,18.4669662 C5.6003101,17.4315476 5.95773362,16.3749822 6.80900033,16.146886 C7.66026704,15.9187898 8.49808758,16.6550905 8.77552716,17.6905091 Z M7.80960133,17.9493281 C7.65821548,17.3843484 7.28348487,17.0550244 7.06781937,17.1128118 C6.85215387,17.1705992 6.69228965,17.6431675 6.84367551,18.2081472 C6.99506136,18.7731269 7.36979196,19.1024509 7.58545746,19.0446635 C7.80112296,18.9868761 7.96098719,18.5143078 7.80960133,17.9493281 Z"></path><path d="M14.9168869,15.2134235 C15.1214235,16.2656731 14.6911684,17.2947322 13.8260641,17.4628914 C12.9609599,17.6310506 12.176542,16.8381001 11.9720054,15.7858505 C11.7674688,14.7336009 12.1977239,13.7045419 13.0628281,13.5363827 C13.9279324,13.3682234 14.7123503,14.1611739 14.9168869,15.2134235 Z M13.9352597,15.4042325 C13.8236536,14.8300689 13.4728083,14.4754073 13.2536371,14.5180098 C13.0344659,14.5606124 12.8420265,15.0208779 12.9536325,15.5950415 C13.0652386,16.1692051 13.4160839,16.5238668 13.6352551,16.4812642 C13.8544263,16.4386616 14.0468658,15.9783961 13.9352597,15.4042325 Z"></path><path d="M17.8926366,12.9877294 C18.8793664,12.5688874 19.9753931,12.775787 20.319743,13.5870244 C20.6640928,14.3982618 20.0515598,15.330402 19.06483,15.7492439 C18.0781001,16.1680859 16.9820734,15.9611863 16.6377236,15.1499489 C16.2933737,14.3387115 16.9059067,13.4065713 17.8926366,12.9877294 Z M18.2833677,13.9082342 C17.7449552,14.1367768 17.4709886,14.5536936 17.5582284,14.7592178 C17.6454683,14.964742 18.1356863,15.0572816 18.6740988,14.8287391 C19.2125114,14.6001965 19.486478,14.1832797 19.3992381,13.9777555 C19.3119983,13.7722313 18.8217802,13.6796917 18.2833677,13.9082342 Z"></path><path d="M16.7796206,7.47386185 C16.7048456,6.40452884 17.2573044,5.43557515 18.1364537,5.37409904 C19.0156031,5.31262293 19.6975377,6.19525942 19.7723128,7.26459243 C19.8470878,8.33392545 19.294629,9.30287913 18.4154796,9.36435524 C17.5363303,9.42583135 16.8543957,8.54319487 16.7796206,7.47386185 Z M17.7771847,7.40410538 C17.8179859,7.9875906 18.1229937,8.38236595 18.3457232,8.36679119 C18.5684526,8.35121643 18.81555,7.91783413 18.7747487,7.33434891 C18.7339474,6.75086368 18.4289397,6.35608833 18.2062102,6.37166309 C17.9834807,6.38723785 17.7363834,6.82062016 17.7771847,7.40410538 Z"></path></g></g></g></svg>
