<svg xmlns="http://www.w3.org/2000/svg" version="1.1" x="0px" y="0px" viewBox="0 0 100 100" style="enable-background:new 0 0 100 100;" xml:space="preserve"><path d="M48.9830322,42.6332397l0.0013428,3.0508423c0.0004883,0.5522461,0.4477539,0.9995117,1,0.9995117h0.0004883  c0.5522461,0,1-0.4482422,0.9995117-1.0004883l-0.0013428-3.0449219c3.3467407-0.2302246,6.4638062-1.6294556,8.8577881-4.0234375  c2.6264648-2.6264648,4.0722656-6.1196289,4.0708008-9.847168c0-0.4868164-0.3510742-0.9033203-0.8310547-0.9858398  c-0.0634766-0.0107422-1.215332-0.2041016-2.8339844-0.2148438c1.1518555-3.0039062,0.5761719-6.4619141,0.5463867-6.6342773  c-0.0722656-0.4165039-0.3984375-0.7426758-0.8144531-0.8149414c-0.109375-0.0185547-2.440918-0.4111328-4.9248047,0.0644531  c-1.2856445-3.0048828-4.2207031-5.1035156-4.3569336-5.1992188c-0.3447266-0.2431641-0.8061523-0.2436523-1.152832-0.0004883  c-0.1376953,0.097168-3.1010742,2.2138672-4.3740234,5.2426758c-2.5668945-0.5493164-5.0385742-0.1367188-5.1538086-0.1162109  c-0.4174805,0.0717773-0.7441406,0.3984375-0.815918,0.815918c-0.0297852,0.1723633-0.6025391,3.6323242,0.5532227,6.6376953  c-1.6171875,0.0151367-2.7705078,0.2089844-2.8339844,0.2197266c-0.4804688,0.0825195-0.8310547,0.4990234-0.8310547,0.9863281  C36.0911865,36.0935669,41.7893677,42.1029053,48.9830322,42.6332397z M41.3505859,29.6152344  c0.3803711,0.0283203,0.7543945-0.1655273,0.9458008-0.5009766c0.1918945-0.3359375,0.1728516-0.7524414-0.0488281-1.0698242  c-1.3251953-1.8920898-1.2739258-4.7246094-1.1611328-6.0493164c0.9780273-0.0839844,2.7788086-0.1318359,4.421875,0.3833008  c0.2573242,0.0810547,0.5385742,0.0537109,0.7763672-0.0751953c0.2382812-0.1293945,0.4135742-0.3496094,0.4863281-0.6103516  c0.5771484-2.0722656,2.4042969-3.824707,3.3491211-4.6196289c0.9355469,0.7880859,2.7387695,2.5170898,3.3364258,4.5654297  c0.1542969,0.5268555,0.7075195,0.8295898,1.2324219,0.6821289c1.5878906-0.4492188,3.2841797-0.3984375,4.2202148-0.3178711  c0.1157227,1.3217773,0.1728516,4.1503906-1.1582031,6.0512695c-0.2226562,0.3173828-0.2416992,0.7348633-0.0483398,1.0712891  s0.565918,0.5307617,0.9487305,0.4990234c1.3032227-0.1054688,2.4765625-0.0444336,3.2294922,0.0244141  c-0.203125,2.8544922-1.4116211,5.5087891-3.4541016,7.5517578c-2.0167847,2.0167847-4.6315308,3.2116699-7.4446411,3.437561  l-0.0013428-3.1636963c2.3372192-0.2970581,4.4477539-1.5856934,5.7804565-3.5751343  c0.3076172-0.4589844,0.1850586-1.0800781-0.2739258-1.387207c-0.4580078-0.3071289-1.0795898-0.1850586-1.387207,0.2739258  c-0.9598389,1.4324951-2.4544678,2.375-4.1202393,2.6574097l-0.0026245-5.8624878  c1.4926147-0.2774048,2.8282471-1.1326294,3.6912231-2.4208984c0.3076172-0.4589844,0.1850586-1.0800781-0.2739258-1.387207  c-0.4594727-0.3071289-1.0800781-0.1855469-1.387207,0.2739258c-0.4890747,0.7297363-1.2119751,1.2449341-2.0309448,1.4854736  l-0.00177-3.9390869c-0.0004883-0.5522461-0.4477539-0.9995117-1-0.9995117h-0.0004883  c-0.5522461,0-1,0.4482422-0.9995117,1.0004883l0.00177,3.963501c-0.8544312-0.2296753-1.6098633-0.7587891-2.1165161-1.5142822  c-0.3076172-0.4589844-0.9291992-0.5825195-1.387207-0.2739258c-0.4589844,0.3076172-0.581543,0.9287109-0.2739258,1.387207  c0.8804932,1.3134766,2.2510376,2.178894,3.7785034,2.4396973l0.0026245,5.8615723  c-1.699646-0.2661133-3.2285767-1.2200928-4.2059326-2.6777344c-0.3076172-0.4589844-0.9282227-0.5825195-1.3876953-0.2734375  c-0.4584961,0.3076172-0.5810547,0.9287109-0.2734375,1.3876953c1.3508301,2.0139771,3.4971313,3.3092651,5.867981,3.5874023  l0.0013428,3.1536255c-5.8009033-0.4993286-10.4314575-5.1670532-10.8610229-10.9871216  C38.8759766,29.5776367,40.0522461,29.5141602,41.3505859,29.6152344z"></path><path d="M20.1088867,59.9838867c0.0717773,0.4174805,0.3984375,0.7441406,0.815918,0.815918  c0.1708984,0.0297852,3.6323242,0.6025391,6.6376953-0.5532227c0.0151367,1.6171875,0.2089844,2.7705078,0.2197266,2.8339844  c0.0825195,0.4804688,0.4990234,0.8310547,0.9858398,0.8310547h0.0004883  c7.3250122-0.0028076,13.3343506-5.7009888,13.8646851-12.8946533l3.0508423-0.0013428  c0.5522461-0.0004883,1-0.4482422,0.9995117-1.0004883c0-0.5522461-0.4477539-0.9995117-1-0.9995117h-0.0004883  l-3.0447998,0.0013428c-0.2301636-3.3469238-1.6294556-6.4636841-4.0235596-8.8577881  c-2.6254883-2.6254883-6.1157227-4.0708008-9.8413086-4.0708008c-0.4916992,0.0429688-0.9086914,0.3496094-0.9916992,0.8310547  c-0.0107422,0.0634766-0.2041016,1.215332-0.2148438,2.8339844c-3.0048828-1.1518555-6.4619141-0.5766602-6.6342773-0.5463867  c-0.4165039,0.0722656-0.7426758,0.3984375-0.8149414,0.8144531c-0.019043,0.1098633-0.4111328,2.4414062,0.0644531,4.9248047  c-3.0048828,1.2856445-5.1035156,4.2207031-5.1992188,4.3569336c-0.2441406,0.3457031-0.2441406,0.8071289-0.0004883,1.152832  c0.097168,0.1376953,2.2138672,3.1010742,5.2426758,4.3740234C19.6762695,57.3969727,20.0888672,59.8676758,20.1088867,59.9838867z   M17.0732422,49.8798828c0.7880859-0.9355469,2.5170898-2.7387695,4.5654297-3.3364258  c0.5268555-0.1538086,0.831543-0.7041016,0.6821289-1.2324219c-0.449707-1.5878906-0.3989258-3.2832031-0.3178711-4.2202148  c1.3203125-0.1142578,4.1503906-0.1733398,6.0512695,1.1582031c0.3183594,0.2236328,0.7358398,0.2416992,1.0712891,0.0483398  c0.3364258-0.1928711,0.5307617-0.5625,0.4990234-0.9487305c-0.1064453-1.3012695-0.0454102-2.4760742,0.0244141-3.2294922  c2.8540039,0.203125,5.5092773,1.4116211,7.5517578,3.4541016c2.0166016,2.0166016,3.2119751,4.6317749,3.4377441,7.4446411  l-3.1641235,0.0013428c-0.2971802-2.3372803-1.5854492-4.4475098-3.5748901-5.7804565  c-0.4584961-0.3081055-1.0800781-0.1850586-1.387207,0.2739258c-0.3076172,0.4589844-0.1850586,1.0800781,0.2739258,1.387207  c1.432312,0.9598999,2.375061,2.4545288,2.6574707,4.1202393l-5.8625488,0.0026245  c-0.2774048-1.4926758-1.1326294-2.828125-2.4208984-3.6912231c-0.4584961-0.3085938-1.0795898-0.1855469-1.387207,0.2739258  c-0.3076172,0.4589844-0.1850586,1.0800781,0.2739258,1.387207c0.7298584,0.4888916,1.2451782,1.211731,1.4855957,2.0309448  l-3.939209,0.00177c-0.5522461,0.0004883-1,0.4482422-0.9995117,1.0004883c0,0.5522461,0.4477539,0.9995117,1,0.9995117h0.0004883  l3.963501-0.00177c-0.2296753,0.8544312-0.7587891,1.6098633-1.5142822,2.1165161  c-0.4589844,0.3076172-0.581543,0.9287109-0.2739258,1.387207c0.1928711,0.2880859,0.5092773,0.4433594,0.831543,0.4433594  c0.1914062,0,0.3847656-0.0546875,0.5556641-0.1694336c1.3134766-0.8804932,2.178894-2.2510376,2.4396973-3.7785034  l5.8615723-0.0026245c-0.2661133,1.699646-1.2200928,3.2285767-2.6777344,4.2059326  c-0.4584961,0.3076172-0.5810547,0.9287109-0.2734375,1.3876953c0.1928711,0.2875977,0.5092773,0.4428711,0.831543,0.4428711  c0.1914062,0,0.3847656-0.0546875,0.5561523-0.1694336c2.0139771-1.3508301,3.3092651-3.4971313,3.5874023-5.867981  l3.1536255-0.0013428c-0.4993286,5.8009033-5.1670532,10.4314575-10.9871216,10.8610229  c-0.0708008-0.7543945-0.1347656-1.9301758-0.0332031-3.2294922c0.0297852-0.3857422-0.1650391-0.7539062-0.5009766-0.9458008  c-0.1542969-0.0883789-0.3251953-0.1318359-0.4960938-0.1318359c-0.2011719,0-0.4018555,0.0605469-0.5737305,0.1806641  c-1.8925781,1.3251953-4.7260742,1.2749023-6.0493164,1.1611328c-0.0834961-0.9780273-0.1323242-2.7783203,0.3833008-4.421875  c0.0810547-0.2583008,0.0537109-0.5385742-0.0751953-0.7763672c-0.1293945-0.2382812-0.3496094-0.4135742-0.6103516-0.4863281  C19.6206055,52.6518555,17.8681641,50.824707,17.0732422,49.8798828z"></path><path d="M63.9116211,71.2314453c-0.0028076-7.3250122-5.7009888-13.3343506-12.8946533-13.8646851L51.015625,54.315918  c-0.0004883-0.5522461-0.4477539-0.9995117-1-0.9995117h-0.0004883c-0.5522461,0-1,0.4482422-0.9995117,1.0004883  l0.0013428,3.0449219c-3.3467407,0.2302246-6.4638062,1.6294556-8.8577881,4.0234375  c-2.6264648,2.6264648-4.0722656,6.1196289-4.0708008,9.847168c0,0.4868164,0.3510742,0.9033203,0.8310547,0.9858398  c0.0634766,0.0107422,1.215332,0.2041016,2.8339844,0.2148438c-1.1518555,3.0039062-0.5761719,6.4619141-0.5463867,6.6342773  c0.0722656,0.4165039,0.3984375,0.7426758,0.8144531,0.8149414c0.1108398,0.019043,2.4423828,0.4125977,4.9248047-0.0644531  c1.2856445,3.0048828,4.2207031,5.1035156,4.3569336,5.1992188c0.1728516,0.1220703,0.3745117,0.1831055,0.5766602,0.1831055  c0.2016602,0,0.4033203-0.0610352,0.5761719-0.1826172c0.1376953-0.097168,3.1010742-2.2138672,4.3740234-5.2426758  c2.5668945,0.5488281,5.0375977,0.1367188,5.1538086,0.1162109c0.4174805-0.0717773,0.7441406-0.3984375,0.815918-0.815918  c0.0297852-0.1723633,0.6025391-3.6323242-0.5532227-6.6376953c1.6171875-0.0151367,2.7705078-0.2089844,2.8339844-0.2197266  C63.5610352,72.1352539,63.9116211,71.71875,63.9116211,71.2314453z M58.6494141,70.3847656  c-0.3852539-0.0332031-0.7539062,0.1650391-0.9458008,0.5009766s-0.1728516,0.7524414,0.0488281,1.0698242  c1.3251953,1.8920898,1.2739258,4.7246094,1.1611328,6.0493164c-0.9785156,0.0839844-2.7788086,0.1323242-4.421875-0.3833008  c-0.2583008-0.0810547-0.5380859-0.0537109-0.7763672,0.0751953c-0.2382812,0.1293945-0.4135742,0.3496094-0.4863281,0.6103516  c-0.5771484,2.0722656-2.4042969,3.824707-3.3491211,4.6196289c-0.9355469-0.7880859-2.7387695-2.5170898-3.3364258-4.5654297  c-0.1274414-0.4360352-0.5263672-0.7202148-0.9594727-0.7202148c-0.090332,0-0.1821289,0.0126953-0.2729492,0.0380859  c-1.5883789,0.449707-3.2832031,0.3994141-4.2202148,0.3178711c-0.1157227-1.3217773-0.1728516-4.1503906,1.1582031-6.0512695  c0.2226562-0.3173828,0.2416992-0.7348633,0.0483398-1.0712891s-0.5654297-0.5336914-0.9487305-0.4990234  c-1.3007812,0.1074219-2.4755859,0.0454102-3.2294922-0.0244141c0.203125-2.8544922,1.4116211-5.5087891,3.4541016-7.5517578  c2.0167847-2.0167847,4.6315308-3.2116699,7.4446411-3.437561l0.0013428,3.1636963  c-2.3372192,0.2970581-4.4477539,1.5856934-5.7804565,3.5751343c-0.3076172,0.4589844-0.1850586,1.0800781,0.2739258,1.387207  c0.4584961,0.3085938,1.0795898,0.1850586,1.387207-0.2739258c0.9598389-1.4324951,2.4544678-2.375,4.1202393-2.6574097  l0.0026245,5.8624878c-1.4926147,0.2774048-2.8282471,1.1326294-3.6912231,2.4208984  c-0.3076172,0.4589844-0.1850586,1.0800781,0.2739258,1.387207c0.4584961,0.3071289,1.0795898,0.1855469,1.387207-0.2739258  c0.4890747-0.7297363,1.2119751-1.2449341,2.0309448-1.4854736l0.00177,3.9390869  c0.0004883,0.5522461,0.4477539,0.9995117,1,0.9995117h0.0004883c0.5522461,0,1-0.4482422,0.9995117-1.0004883l-0.00177-3.963501  c0.8544312,0.2296753,1.6098633,0.7587891,2.1165161,1.5142822c0.1928711,0.2880859,0.5092773,0.4433594,0.831543,0.4433594  c0.1914062,0,0.3847656-0.0546875,0.5556641-0.1694336c0.4589844-0.3076172,0.581543-0.9287109,0.2739258-1.387207  c-0.8804932-1.3134766-2.2510376-2.178894-3.7785034-2.4396973l-0.0026245-5.8615723  c1.699646,0.2661133,3.2285767,1.2200928,4.2059326,2.6777344c0.1928711,0.2875977,0.5092773,0.4428711,0.831543,0.4428711  c0.1914062,0,0.3847656-0.0546875,0.5561523-0.1694336c0.4584961-0.3076172,0.5810547-0.9287109,0.2734375-1.3876953  c-1.3508301-2.0139771-3.4971313-3.3092651-5.867981-3.5874023l-0.0013428-3.1536255  c5.8009033,0.4993286,10.4314575,5.1670532,10.8610229,10.9871216C61.125,70.4233398,59.9487305,70.4868164,58.6494141,70.3847656z"></path><path d="M71.2324219,63.9116211c0.4868164,0,0.9033203-0.3510742,0.9858398-0.8310547  c0.0107422-0.0634766,0.2041016-1.215332,0.2148438-2.8339844c3.0039062,1.1513672,6.4609375,0.5761719,6.6342773,0.5463867  c0.4165039-0.0722656,0.7426758-0.3984375,0.8149414-0.8144531c0.019043-0.1098633,0.4111328-2.4414062-0.0644531-4.9248047  c3.0048828-1.2856445,5.1035156-4.2207031,5.1992188-4.3569336c0.2441406-0.3457031,0.2441406-0.8071289,0.0004883-1.152832  c-0.097168-0.1376953-2.2138672-3.1010742-5.2426758-4.3740234c0.5488281-2.5668945,0.1362305-5.0375977,0.1162109-5.1538086  c-0.0717773-0.4174805-0.3984375-0.7441406-0.815918-0.815918c-0.171875-0.0302734-3.6337891-0.6030273-6.6376953,0.5532227  c-0.0151367-1.6171875-0.2089844-2.7705078-0.2197266-2.8339844c-0.0825195-0.4804688-0.4990234-0.8310547-0.9858398-0.8310547  h-0.0004883c-7.3250122,0.0028076-13.3343506,5.7009888-13.8646851,12.8946533L54.315918,48.984375  c-0.5522461,0.0004883-1,0.4482422-0.9995117,1.0004883c0,0.5522461,0.4477539,0.9995117,1,0.9995117h0.0004883l3.0447998-0.0013428  c0.2301636,3.3469238,1.6294556,6.4636841,4.0235596,8.8577881c2.6254883,2.6254883,6.1157227,4.0708008,9.8413086,4.0708008  C71.2285156,63.9116211,71.2304688,63.9116211,71.2324219,63.9116211z M70.3754883,58.6513672  c0.1064453,1.3012695,0.0454102,2.4760742-0.0244141,3.2294922c-2.8540039-0.203125-5.5092773-1.4116211-7.5517578-3.4541016  c-2.0166016-2.0166016-3.2119751-4.6317749-3.4377441-7.4446411l3.1641235-0.0013428  c0.2971802,2.3372803,1.5854492,4.4475098,3.5748901,5.7804565c0.1708984,0.1147461,0.3642578,0.1694336,0.5556641,0.1694336  c0.3222656,0,0.6386719-0.1552734,0.831543-0.4433594c0.3076172-0.4589844,0.1850586-1.0800781-0.2739258-1.387207  c-1.432312-0.9598999-2.375061-2.4545288-2.6574707-4.1202393l5.8625488-0.0026245  c0.2774048,1.4926758,1.1326294,2.828125,2.4208984,3.6912231c0.1708984,0.1147461,0.3642578,0.1694336,0.5556641,0.1694336  c0.3222656,0,0.6386719-0.1552734,0.831543-0.4433594c0.3076172-0.4589844,0.1850586-1.0800781-0.2739258-1.387207  c-0.7298584-0.4888916-1.2450562-1.211731-1.4855347-2.0309448l3.9391479-0.00177  c0.5522461-0.0004883,1-0.4482422,0.9995117-1.0004883c0-0.5522461-0.4477539-0.9995117-1-0.9995117h-0.0004883l-3.963501,0.00177  c0.2296753-0.8544312,0.7587891-1.6098633,1.5142822-2.1165161c0.4589844-0.3076172,0.581543-0.9287109,0.2739258-1.387207  c-0.3081055-0.4589844-0.9296875-0.5825195-1.387207-0.2739258c-1.3134766,0.8804932-2.178894,2.2510376-2.4396973,3.7785034  l-5.8615723,0.0026245c0.2661133-1.699646,1.2200928-3.2285767,2.6777344-4.2059326  c0.4584961-0.3076172,0.5810547-0.9287109,0.2734375-1.3876953c-0.3076172-0.4584961-0.9291992-0.5820312-1.3876953-0.2734375  c-2.0139771,1.3508301-3.3092651,3.4971313-3.5874023,5.867981l-3.1536255,0.0013428  c0.4993286-5.8009033,5.1670532-10.4314575,10.9871216-10.8610229c0.0708008,0.7543945,0.1347656,1.9301758,0.0332031,3.2294922  c-0.0297852,0.3857422,0.1650391,0.7539062,0.5009766,0.9458008c0.3349609,0.1918945,0.7514648,0.1728516,1.0698242-0.0488281  c1.8930664-1.324707,4.7260742-1.2749023,6.0493164-1.1611328c0.0834961,0.9780273,0.1323242,2.7783203-0.3833008,4.421875  c-0.0810547,0.2583008-0.0537109,0.5385742,0.0751953,0.7763672c0.1293945,0.2382812,0.3496094,0.4135742,0.6103516,0.4863281  c2.0722656,0.5771484,3.824707,2.4042969,4.6196289,3.3491211c-0.7880859,0.9355469-2.5170898,2.7387695-4.5654297,3.3364258  c-0.5268555,0.1538086-0.831543,0.7041016-0.6821289,1.2324219c0.449707,1.5878906,0.3989258,3.2832031,0.3178711,4.2202148  c-1.3208008,0.1147461-4.1499023,0.1728516-6.0512695-1.1582031c-0.3183594-0.2231445-0.7363281-0.2412109-1.0712891-0.0483398  C70.5380859,57.8955078,70.34375,58.2651367,70.3754883,58.6513672z"></path><path d="M21.6914062,31.6621094c2.2412109,0,4.4815063-0.7489624,6.3108521-2.2457886l1.5958862,1.5958862  c0.1953125,0.1953125,0.4511719,0.2929688,0.7070312,0.2929688s0.5117188-0.0976562,0.7070312-0.2929688  c0.390625-0.390625,0.390625-1.0234375,0-1.4140625l-1.5959473-1.5959473  c3.2025146-3.9146118,2.9793701-9.713501-0.6711426-13.3640137c-3.6669922-3.6665039-16.2592773-4.5478516-17.6831055-4.6362305  c-0.2939453-0.0244141-0.5664062,0.0878906-0.769043,0.2910156c-0.2026367,0.2026367-0.3085938,0.4829102-0.2910156,0.769043  c0.0883789,1.4238281,0.9697266,14.0161133,4.6362305,17.6831055C16.5825195,30.6899414,19.137207,31.6621094,21.6914062,31.6621094  z M16.0522461,27.3310547c-2.1461792-2.1466064-3.3217773-9.1426392-3.814209-13.6789551l9.579834,9.579834H18.503418  c-0.5522461,0-1,0.4477539-1,1s0.4477539,1,1,1h5.3144531l2.7567749,2.7567749  C23.4485474,30.414917,18.9221191,30.2000122,16.0522461,27.3310547z M27.9887695,26.574707l-2.7568359-2.7568359V18.503418  c0-0.5522461-0.4477539-1-1-1s-1,0.4477539-1,1v3.3144531l-9.579834-9.579834  c4.5363159,0.4924316,11.5323486,1.6680298,13.6789551,3.814209C30.2005005,18.9216919,30.4154053,23.4486084,27.9887695,26.574707z  "></path><path d="M11,90c0.0205078,0,0.0410156-0.0004883,0.0620117-0.0019531  c1.4238281-0.0883789,14.0161133-0.9697266,17.6831055-4.6362305c3.6505127-3.6505127,3.8736572-9.4494019,0.6711426-13.3640137  l1.5959473-1.5959473c0.390625-0.390625,0.390625-1.0234375,0-1.4140625s-1.0234375-0.390625-1.4140625,0l-1.5958862,1.5958862  c-3.9142456-3.2026367-9.713562-2.9802246-13.3640747,0.6712036c-3.6665039,3.6669922-4.5478516,16.2592773-4.6362305,17.6831055  c-0.0175781,0.2861328,0.0883789,0.5664062,0.2910156,0.769043C10.480957,89.8950195,10.7353516,90,11,90z M27.3310547,83.9477539  c-2.1466064,2.1461792-9.1426392,3.3217773-13.6789551,3.814209l9.579834-9.579834v3.3144531c0,0.5522461,0.4477539,1,1,1  s1-0.4477539,1-1v-5.3144531l2.7568359-2.7568359C30.4154053,76.5513916,30.2005005,81.0783081,27.3310547,83.9477539z   M16.0522461,72.6689453c2.8689575-2.8689575,7.3961792-3.0838623,10.5223999-0.6576538l-2.7567749,2.7567749H18.503418  c-0.5522461,0-1,0.4477539-1,1s0.4477539,1,1,1h3.3144531l-9.579834,9.579834  C12.7304688,81.8115845,13.9060669,74.8155518,16.0522461,72.6689453z"></path><path d="M71.2548828,85.3618164c3.6669922,3.6665039,16.2592773,4.5478516,17.6831055,4.6362305  C88.9589844,89.9995117,88.9794922,90,89,90c0.2641602,0,0.519043-0.1049805,0.7070312-0.2929688  c0.2026367-0.2026367,0.3085938-0.4829102,0.2910156-0.769043c-0.0883789-1.4238281-0.9697266-14.0161133-4.6362305-17.6831055  c-3.6505127-3.6514282-9.4498291-3.8738403-13.3640747-0.6712036l-1.5958862-1.5958862  c-0.390625-0.390625-1.0234375-0.390625-1.4140625,0s-0.390625,1.0234375,0,1.4140625l1.5959473,1.5959473  C67.3812256,75.9124146,67.6043701,81.7113037,71.2548828,85.3618164z M83.9477539,72.6689453  c2.1461792,2.1466064,3.3217773,9.1426392,3.814209,13.6789551l-9.579834-9.579834h3.3144531c0.5522461,0,1-0.4477539,1-1  s-0.4477539-1-1-1h-5.3144531l-2.7567139-2.7567139C76.5519409,69.585083,81.0783081,69.7999268,83.9477539,72.6689453z   M74.7680664,76.1821289v5.3144531c0,0.5522461,0.4477539,1,1,1s1-0.4477539,1-1v-3.3144531l9.579834,9.579834  c-4.5363159-0.4924316-11.5323486-1.6680298-13.6789551-3.814209c-2.8694458-2.8694458-3.0843506-7.3963623-0.6577148-10.5224609  L74.7680664,76.1821289z"></path><path d="M68.987793,29.5981445c-0.390625,0.390625-0.390625,1.0234375,0,1.4140625  c0.1953125,0.1953125,0.4511719,0.2929688,0.7070312,0.2929688s0.5117188-0.0976562,0.7070312-0.2929688l1.5958862-1.5958862  c1.8293457,1.4968262,4.0696411,2.2457886,6.3108521,2.2457886c2.5541992,0,5.1088867-0.972168,7.0532227-2.9169922  c3.6665039-3.6669922,4.5478516-16.2592773,4.6362305-17.6831055c0.0175781-0.2861328-0.0883789-0.5664062-0.2910156-0.769043  c-0.2021484-0.2026367-0.4711914-0.3100586-0.769043-0.2910156c-1.4238281,0.0883789-14.0161133,0.9697266-17.6831055,4.6362305  c-3.6505127,3.6505127-3.8736572,9.4494019-0.6711426,13.3640137L68.987793,29.5981445z M83.9477539,27.3310547  c-2.8693848,2.8689575-7.3966675,3.0838623-10.5224609,0.6577148l2.7568359-2.7568359h5.3144531c0.5522461,0,1-0.4477539,1-1  s-0.4477539-1-1-1h-3.3144531l9.579834-9.579834C87.2695312,18.1884155,86.0939331,25.1844482,83.9477539,27.3310547z   M72.6689453,16.0522461c2.1466064-2.1461792,9.1426392-3.3217773,13.6789551-3.814209l-9.579834,9.579834V18.503418  c0-0.5522461-0.4477539-1-1-1s-1,0.4477539-1,1v5.3144531l-2.7568359,2.7568359  C69.5845947,23.4486084,69.7994995,18.9216919,72.6689453,16.0522461z"></path></svg>
