<svg xmlns="http://www.w3.org/2000/svg" version="1.1" x="0px" y="0px" viewBox="1 -1 100 100" style="enable-background:new 1 -1 100 100;" xml:space="preserve"><g><path d="M36,62.5h30v-30H36V62.5z M63,35.5v24H39v-24H63z"></path><path d="M96.8,37.9c-0.3-1.2-1-2.1-2.1-2.8c-1-0.6-2.2-0.8-3.4-0.5c-1.5,0.4-2.6,1.5-3.1,2.9H71.7v-5h8.5c0.8,2.2,3.1,3.4,5.4,2.9   c1.2-0.3,2.1-1,2.8-2.1c0.6-1,0.8-2.2,0.5-3.4s-1-2.1-2.1-2.8c-1-0.6-2.2-0.8-3.4-0.5c-1.5,0.4-2.6,1.5-3.1,2.9h-8.5v-3h-11V13   h13.5c0.7,2.2,3,3.5,5.3,2.9c2.4-0.6,3.9-3,3.3-5.4c-0.3-1.2-1-2.2-2-2.8c-1-0.6-2.2-0.8-3.4-0.5c-1.5,0.4-2.7,1.5-3.2,2.9H58v16.4   h-6v-6.7c1-0.4,1.8-1,2.4-2c0.6-1,0.8-2.2,0.5-3.4c-0.6-2.4-3.1-3.9-5.5-3.2c-1.2,0.3-2.1,1-2.8,2.1c-0.6,1-0.8,2.2-0.5,3.4   c0.4,1.5,1.5,2.6,2.9,3.1v6.7h-5V11.8c2.2-0.8,3.4-3.1,2.9-5.4c-0.3-1.2-1-2.1-2.1-2.8c-1-0.6-2.2-0.8-3.4-0.5   c-1.2,0.3-2.1,1-2.8,2.1c-0.6,1-0.8,2.2-0.5,3.4c0.4,1.5,1.5,2.6,2.9,3.1v14.7h-5v-6.7c2.2-0.8,3.4-3.1,2.9-5.4   c-0.3-1.2-1-2.1-2.1-2.8c-1-0.6-2.2-0.8-3.4-0.5c-1.2,0.3-2.1,1-2.8,2.1c-0.6,1-0.8,2.2-0.5,3.4c0.4,1.5,1.5,2.6,2.9,3.1v6.7h-3V38   H17V24.9c2.2-0.7,3.5-3,2.9-5.3c-0.3-1.2-1-2.2-2-2.8c-1-0.6-2.2-0.8-3.4-0.5c-1.2,0.3-2.2,1-2.8,2c-0.6,1-0.8,2.2-0.5,3.4   c0.4,1.5,1.5,2.7,2.9,3.2V41h16v6h-8.3c-0.4-1-1-1.8-2-2.4c-1-0.6-2.2-0.8-3.4-0.5c-1.2,0.3-2.1,1-2.8,2.1c-0.6,1-0.8,2.2-0.5,3.4   c0.3,1.2,1,2.1,2.1,2.8c1,0.6,2.2,0.8,3.4,0.5c1.5-0.4,2.6-1.5,3.1-2.9H30v5H13.8c-0.8-2.2-3.1-3.4-5.4-2.9   c-2.4,0.6-3.9,3.1-3.2,5.5c0.5,2,2.3,3.4,4.3,3.4c0,0,0,0,0,0c1.9,0,3.6-1.2,4.2-3H30v5h-8.2c-0.4-1-1-1.8-2-2.4   c-1-0.6-2.2-0.8-3.4-0.5c-2.4,0.6-3.9,3.1-3.2,5.5c0.3,1.2,1,2.1,2.1,2.8c1,0.6,2.2,0.8,3.4,0.5c1.5-0.4,2.6-1.5,3.1-2.9H30v2.5   h11.5V83H28.3c-0.7-2.2-3-3.5-5.3-2.9c-2.4,0.6-3.9,3-3.3,5.4c0.6,2.4,3,3.9,5.4,3.3c1.5-0.4,2.7-1.5,3.2-2.9h16.2l0-17.5h5.9v9.8   c-2.2,0.8-3.4,3.1-2.9,5.4c0.3,1.2,1,2.1,2.1,2.8c1,0.6,2.2,0.8,3.4,0.5c2.4-0.6,3.9-3.1,3.2-5.5c-0.4-1.5-1.5-2.6-2.9-3.1l0-9.7   h4.9v17.7c-2.2,0.8-3.4,3.1-2.9,5.4c0.3,1.2,1,2.1,2.1,2.8c0.7,0.4,1.5,0.6,2.3,0.6c0.4,0,0.8,0,1.1-0.1c1.2-0.3,2.1-1,2.8-2.1   c0.6-1,0.8-2.2,0.5-3.4c-0.4-1.5-1.5-2.6-2.9-3.1l0-17.7h4.9v9.7c-1,0.4-1.8,1-2.4,2c-0.6,1-0.8,2.2-0.5,3.4s1,2.1,2.1,2.8   c1,0.6,2.2,0.8,3.4,0.5c2.4-0.6,3.9-3.1,3.2-5.5c-0.4-1.5-1.5-2.6-2.9-3.1l0-9.7h2.5v-11H87v13.1c-2.2,0.7-3.5,3-2.9,5.3   c0.6,2.4,3,3.9,5.4,3.3c2.4-0.6,3.9-3,3.3-5.4c-0.4-1.5-1.5-2.7-2.9-3.2V54.5H71.7v-6h8.5c0.4,1,1,1.8,2,2.4c1,0.6,2.2,0.8,3.4,0.5   c1.2-0.3,2.1-1,2.8-2.1s0.8-2.2,0.5-3.4s-1-2.1-2.1-2.8s-2.2-0.8-3.4-0.5c-1.5,0.4-2.6,1.5-3.1,2.9h-8.5v-5h16.5   c0.8,2.2,3.1,3.4,5.4,2.9c1.2-0.3,2.1-1,2.8-2.1C97,40.2,97.1,39,96.8,37.9z M94,39c0,0.8-0.7,1.5-1.5,1.5S91,39.8,91,39   s0.7-1.5,1.5-1.5S94,38.2,94,39z M90,75c0,0.8-0.7,1.5-1.5,1.5S87,75.8,87,75s0.7-1.5,1.5-1.5S90,74.2,90,75z M68,81   c0.8,0,1.5,0.7,1.5,1.5S68.8,84,68,84s-1.5-0.7-1.5-1.5S67.2,81,68,81z M60,89c0.8,0,1.5,0.7,1.5,1.5S60.8,92,60,92   s-1.5-0.7-1.5-1.5S59.2,89,60,89z M14,20.5c0-0.8,0.7-1.5,1.5-1.5s1.5,0.7,1.5,1.5S16.3,22,15.5,22S14,21.3,14,20.5z M33,65.5v-36   h36v36H33z M34.5,17c-0.8,0-1.5-0.7-1.5-1.5s0.7-1.5,1.5-1.5s1.5,0.7,1.5,1.5S35.3,17,34.5,17z M42.5,9C41.7,9,41,8.3,41,7.5   S41.7,6,42.5,6S44,6.7,44,7.5S43.3,9,42.5,9z M49,15.5c0-0.8,0.7-1.5,1.5-1.5s1.5,0.7,1.5,1.5S51.3,17,50.5,17S49,16.3,49,15.5z    M52,81c0.8,0,1.5,0.7,1.5,1.5S52.8,84,52,84s-1.5-0.7-1.5-1.5S51.2,81,52,81z M83,31c0-0.8,0.7-1.5,1.5-1.5S86,30.2,86,31   s-0.7,1.5-1.5,1.5S83,31.8,83,31z M77,11.5c0-0.8,0.7-1.5,1.5-1.5s1.5,0.7,1.5,1.5S79.3,13,78.5,13S77,12.3,77,11.5z M19,48.5   c0,0.8-0.7,1.5-1.5,1.5S16,49.3,16,48.5s0.7-1.5,1.5-1.5S19,47.7,19,48.5z M11,56.5c0,0.8-0.7,1.5-1.5,1.5S8,57.3,8,56.5   S8.7,55,9.5,55S11,55.7,11,56.5z M19,64.5c0,0.8-0.7,1.5-1.5,1.5S16,65.3,16,64.5s0.7-1.5,1.5-1.5S19,63.7,19,64.5z M25.5,84.5   c0,0.8-0.7,1.5-1.5,1.5s-1.5-0.7-1.5-1.5S23.2,83,24,83S25.5,83.7,25.5,84.5z M83,47c0-0.8,0.7-1.5,1.5-1.5S86,46.2,86,47   s-0.7,1.5-1.5,1.5S83,47.8,83,47z"></path></g></svg>
