<svg xmlns="http://www.w3.org/2000/svg" version="1.1" x="0px" y="0px" viewBox="0 0 64 64" ><g transform="translate(2 1)"><g><g><path d="M54,46.5c-0.553,0-1-0.447-1-1v-9H3v9c0,0.553-0.447,1-1,1s-1-0.447-1-1v-10c0-0.553,0.447-1,1-1h52c0.553,0,1,0.447,1,1     v10C55,46.053,54.553,46.5,54,46.5z"></path></g><g><path d="M60,46.5h-8.34c-0.553,0-1-0.447-1-1s0.447-1,1-1H60c0.553,0,1,0.447,1,1S60.553,46.5,60,46.5z"></path></g><g><path d="M59.999,46.5c-0.15,0-0.303-0.034-0.446-0.105c-0.494-0.247-0.694-0.848-0.447-1.342l3-6     c0.248-0.494,0.848-0.692,1.342-0.447c0.494,0.247,0.694,0.848,0.447,1.342l-3,6C60.719,46.298,60.366,46.5,59.999,46.5z"></path></g><g><path d="M54,41.5H2c-0.553,0-1-0.447-1-1s0.447-1,1-1h52c0.553,0,1,0.447,1,1S54.553,41.5,54,41.5z"></path></g><g><path d="M5.339,46.5H1c-0.553,0-1-0.447-1-1s0.447-1,1-1h4.339c0.553,0,1,0.447,1,1S5.892,46.5,5.339,46.5z"></path></g><g><path d="M34.34,46.5H22.661c-0.553,0-1-0.447-1-1s0.447-1,1-1H34.34c0.553,0,1,0.447,1,1S34.893,46.5,34.34,46.5z"></path></g><g><g><path d="M14,61.5c-6.065,0-11-4.935-11-11s4.935-11,11-11s11,4.935,11,11S20.065,61.5,14,61.5z M14,41.5c-4.963,0-9,4.037-9,9      s4.037,9,9,9s9-4.037,9-9S18.963,41.5,14,41.5z"></path></g><g><path d="M14,53.5c-1.654,0-3-1.346-3-3s1.346-3,3-3s3,1.346,3,3S15.654,53.5,14,53.5z M14,49.5c-0.552,0-1,0.448-1,1      s0.448,1,1,1s1-0.448,1-1S14.552,49.5,14,49.5z"></path></g><g><path d="M14,49.5c-0.553,0-1-0.447-1-1v-8c0-0.553,0.447-1,1-1s1,0.447,1,1v8C15,49.053,14.553,49.5,14,49.5z"></path></g><g><path d="M14,61.5c-0.553,0-1-0.447-1-1v-8c0-0.553,0.447-1,1-1s1,0.447,1,1v8C15,61.053,14.553,61.5,14,61.5z"></path></g><g><path d="M12.586,50.086c-0.256,0-0.512-0.098-0.707-0.293l-5.657-5.656c-0.391-0.391-0.391-1.023,0-1.414s1.023-0.391,1.414,0      l5.657,5.656c0.391,0.391,0.391,1.023,0,1.414C13.098,49.988,12.842,50.086,12.586,50.086z"></path></g><g><path d="M21.071,58.571c-0.256,0-0.512-0.098-0.707-0.293l-5.656-5.657c-0.391-0.391-0.391-1.023,0-1.414s1.023-0.391,1.414,0      l5.656,5.657c0.391,0.391,0.391,1.023,0,1.414C21.583,58.474,21.327,58.571,21.071,58.571z"></path></g><g><path d="M12,51.5H4.001c-0.553,0-1-0.447-1-1s0.447-1,1-1H12c0.553,0,1,0.447,1,1S12.553,51.5,12,51.5z"></path></g><g><path d="M24.001,51.5h-8c-0.553,0-1-0.447-1-1s0.447-1,1-1h8c0.553,0,1,0.447,1,1S24.554,51.5,24.001,51.5z"></path></g><g><path d="M6.93,58.57c-0.256,0-0.512-0.098-0.707-0.293c-0.391-0.391-0.391-1.023,0-1.414l5.656-5.656      c0.391-0.391,1.023-0.391,1.414,0s0.391,1.023,0,1.414l-5.656,5.656C7.441,58.473,7.186,58.57,6.93,58.57z"></path></g><g><path d="M15.415,50.085c-0.256,0-0.512-0.098-0.707-0.293c-0.391-0.391-0.391-1.023,0-1.414l5.656-5.657      c0.391-0.391,1.023-0.391,1.414,0s0.391,1.023,0,1.414l-5.656,5.657C15.927,49.987,15.671,50.085,15.415,50.085z"></path></g></g><g><g><path d="M43,61.5c-6.065,0-11-4.935-11-11s4.935-11,11-11s11,4.935,11,11S49.065,61.5,43,61.5z M43,41.5c-4.963,0-9,4.037-9,9      s4.037,9,9,9s9-4.037,9-9S47.963,41.5,43,41.5z"></path></g><g><path d="M43,53.5c-1.654,0-3-1.346-3-3s1.346-3,3-3s3,1.346,3,3S44.654,53.5,43,53.5z M43,49.5c-0.552,0-1,0.448-1,1      s0.448,1,1,1s1-0.448,1-1S43.552,49.5,43,49.5z"></path></g><g><path d="M43,49.5c-0.553,0-1-0.447-1-1v-8c0-0.553,0.447-1,1-1s1,0.447,1,1v8C44,49.053,43.553,49.5,43,49.5z"></path></g><g><path d="M43,61.5c-0.553,0-1-0.447-1-1v-8c0-0.553,0.447-1,1-1s1,0.447,1,1v8C44,61.053,43.553,61.5,43,61.5z"></path></g><g><path d="M41.586,50.086c-0.256,0-0.512-0.098-0.707-0.293l-5.657-5.656c-0.391-0.391-0.391-1.023,0-1.414s1.023-0.391,1.414,0      l5.657,5.656c0.391,0.391,0.391,1.023,0,1.414C42.098,49.988,41.842,50.086,41.586,50.086z"></path></g><g><path d="M50.071,58.571c-0.256,0-0.512-0.098-0.707-0.293l-5.656-5.657c-0.391-0.391-0.391-1.023,0-1.414s1.023-0.391,1.414,0      l5.656,5.657c0.391,0.391,0.391,1.023,0,1.414C50.583,58.474,50.327,58.571,50.071,58.571z"></path></g><g><path d="M41,51.5H29.001c-0.553,0-1-0.447-1-1s0.447-1,1-1H41c0.553,0,1,0.447,1,1S41.553,51.5,41,51.5z"></path></g><g><path d="M58,51.5H45.001c-0.553,0-1-0.447-1-1s0.447-1,1-1H58c0.553,0,1,0.447,1,1S58.553,51.5,58,51.5z"></path></g><g><path d="M35.93,58.57c-0.256,0-0.512-0.098-0.707-0.293c-0.391-0.391-0.391-1.023,0-1.414l5.656-5.656      c0.391-0.391,1.023-0.391,1.414,0s0.391,1.023,0,1.414l-5.656,5.656C36.441,58.473,36.186,58.57,35.93,58.57z"></path></g><g><path d="M44.415,50.085c-0.256,0-0.512-0.098-0.707-0.293c-0.391-0.391-0.391-1.023,0-1.414l5.656-5.657      c0.391-0.391,1.023-0.391,1.414,0s0.391,1.023,0,1.414l-5.656,5.657C44.927,49.987,44.671,50.085,44.415,50.085z"></path></g></g><g><path d="M2,36.5c-0.553,0-1-0.447-1-1V10c0-0.553,0.447-1,1-1s1,0.447,1,1v25.5C3,36.053,2.553,36.5,2,36.5z"></path></g><g><path d="M15,36.5c-0.553,0-1-0.447-1-1V10c0-0.553,0.447-1,1-1s1,0.447,1,1v25.5C16,36.053,15.553,36.5,15,36.5z"></path></g><g><path d="M28,36.5c-0.553,0-1-0.447-1-1V10c0-0.553,0.447-1,1-1s1,0.447,1,1v25.5C29,36.053,28.553,36.5,28,36.5z"></path></g><g><path d="M41,36.5c-0.553,0-1-0.447-1-1V10c0-0.553,0.447-1,1-1s1,0.447,1,1v25.5C42,36.053,41.553,36.5,41,36.5z"></path></g><g><path d="M54,36.5c-0.553,0-1-0.447-1-1V10c0-0.553,0.447-1,1-1s1,0.447,1,1v25.5C55,36.053,54.553,36.5,54,36.5z"></path></g><g><path d="M15,11c-0.553,0-1-0.447-1-1c0-3.032-2.468-5.5-5.5-5.5S3,6.968,3,10c0,0.553-0.447,1-1,1s-1-0.447-1-1     c0-4.136,3.364-7.5,7.5-7.5S16,5.864,16,10C16,10.553,15.553,11,15,11z"></path></g><g><path d="M28,11c-0.553,0-1-0.447-1-1c0-3.032-2.468-5.5-5.5-5.5S16,6.968,16,10c0,0.553-0.447,1-1,1s-1-0.447-1-1     c0-4.136,3.364-7.5,7.5-7.5S29,5.864,29,10C29,10.553,28.553,11,28,11z"></path></g><g><path d="M41,11c-0.553,0-1-0.447-1-1c0-3.032-2.468-5.5-5.5-5.5S29,6.968,29,10c0,0.553-0.447,1-1,1s-1-0.447-1-1     c0-4.136,3.364-7.5,7.5-7.5S42,5.864,42,10C42,10.553,41.553,11,41,11z"></path></g><g><path d="M54,11c-0.553,0-1-0.447-1-1c0-3.032-2.468-5.5-5.5-5.5S42,6.968,42,10c0,0.553-0.447,1-1,1s-1-0.447-1-1     c0-4.136,3.364-7.5,7.5-7.5S55,5.864,55,10C55,10.553,54.553,11,54,11z"></path></g><g><path d="M57,41.5h-3c-0.553,0-1-0.447-1-1s0.447-1,1-1h3c0.553,0,1,0.447,1,1S57.553,41.5,57,41.5z"></path></g><g><path d="M57,41.5c-0.124,0-0.25-0.022-0.371-0.071c-0.513-0.205-0.763-0.787-0.558-1.3l2-5c0.205-0.514,0.791-0.763,1.3-0.558     c0.513,0.205,0.763,0.787,0.558,1.3l-2,5C57.772,41.263,57.396,41.5,57,41.5z"></path></g><g><path d="M59,36.5h-5c-0.553,0-1-0.447-1-1s0.447-1,1-1h5c0.553,0,1,0.447,1,1S59.553,36.5,59,36.5z"></path></g><g><path d="M29.001,52.5c-0.553,0-1-0.447-1-1v-1c0-0.553,0.447-1,1-1s1,0.447,1,1v1C30.001,52.053,29.554,52.5,29.001,52.5z"></path></g></g></g></svg>
