<svg xmlns="http://www.w3.org/2000/svg" version="1.1" x="0px" y="0px" viewBox="0 0 80 80"><g><g><polygon points="12.9,71.4 7.6,66.1 19.3,54.4 20.7,55.8 10.4,66.1 12.9,68.6 23.2,58.3 24.6,59.7   "></polygon></g><g><path d="M29,61.6c-1.7,0-3.4-0.7-4.6-1.9l-5.1-5.1c-2.5-2.5-2.5-6.6,0-9.2l0.7-0.7L34.3,59l-0.7,0.7    C32.4,60.9,30.8,61.6,29,61.6z M20.1,47.6c-1.1,1.7-0.9,4.1,0.6,5.6l5.1,5.1c0.8,0.8,2,1.3,3.2,1.3c0.9,0,1.7-0.2,2.4-0.7    L20.1,47.6z"></path></g><g><path d="M12.3,74.8c-0.8,0-1.5-0.3-2-0.8l-5.2-5.2c-0.5-0.5-0.8-1.2-0.8-2c0-0.8,0.3-1.5,0.8-2    c1.1-1.1,2.9-1.1,4,0l5.2,5.2c1.1,1.1,1.1,2.9,0,4C13.8,74.5,13.1,74.8,12.3,74.8z M7.1,65.9c-0.2,0-0.4,0.1-0.6,0.2    c-0.2,0.2-0.2,0.4-0.2,0.6s0.1,0.4,0.2,0.6l5.2,5.2c0.3,0.3,0.9,0.3,1.2,0c0.3-0.3,0.3-0.8,0-1.2l-5.2-5.2    C7.5,66,7.3,65.9,7.1,65.9z"></path></g><g><polygon points="31.7,58.7 30.3,57.3 70,17.6 70,9 62.4,9 23.3,49.4 21.9,48 61.6,7 72,7 72,18.4   "></polygon></g><g><rect x="46" y="6.7" transform="matrix(0.7168 0.6973 -0.6973 0.7168 35.9716 -23.568)" width="2" height="51.6"></rect></g><g><rect x="13" y="61" width="2" height="7"></rect></g><g><rect x="17" y="57" fill="#000000" width="2" height="7"></rect></g></g></svg>
