<svg xmlns="http://www.w3.org/2000/svg" version="1.1" x="0px" y="0px" viewBox="0 0 100 100"><g><path d="M92.077,29.292l-0.804,0.405c-0.34,0.172-0.651,0.106-0.807,0.052c-0.154-0.055-0.438-0.198-0.595-0.546l-6.608-14.615   c-0.03-0.066-0.033-0.136-0.048-0.204c0.005-0.046,0.017-0.089,0.019-0.135c0.005-0.112-0.006-0.22-0.019-0.328   c0.069-0.282,0.243-0.534,0.522-0.675l5.228-2.636c0.986-0.497,1.383-1.7,0.886-2.686c-0.498-0.987-1.7-1.385-2.687-0.885   l-5.228,2.636c-1.08,0.545-1.862,1.431-2.317,2.456c-8.402-0.185-17.568,0.776-28.005,2.96c-1.466,0.327-2.961,0.651-4.478,0.98   c-4.851,1.051-9.928,2.158-14.984,3.557c-0.07-0.012-0.138-0.03-0.21-0.035c-2.222-0.14-4.298-0.471-6.306-0.791   c-1.987-0.316-4.042-0.644-6.242-0.79c-1.787-0.12-4.011-0.173-6.255-0.152c-0.248-0.01-0.689-0.078-1.093-0.147   c-1.312-0.229-3.107-0.541-4.518,0.462c-0.652,0.464-1.052,1.198-1.125,2.066c-0.097,1.161,0.42,2.592,1.23,3.402   c1.772,1.773,3.813,2.561,5.787,3.322c0.002,0.001,0.004,0.002,0.006,0.002c-2.658,1.485-5.209,3.167-7.594,5.114   c-0.855,0.699-0.983,1.958-0.284,2.814c0.034,0.042,0.077,0.073,0.114,0.111c0.157,0.53,0.523,0.995,1.063,1.247   C9.235,37.425,11.963,38,14.692,38c4.109,0,8.222-1.303,11.582-3.828l0.43-0.328c0.654-0.504,1.331-1.026,1.844-1.087   c1.089-0.129,2.015-0.233,2.384-0.205c1.589,0.021,3.082-0.003,4.524-0.068c-0.361,0.351-0.71,0.739-0.996,1.219   c-0.972,1.633-1.087,3.791-0.324,6.076c0.285,0.853,1.199,4.216,1.934,6.919c0.457,1.679,0.874,3.214,1.111,4.044   c1.321,4.633,4.867,7.958,7.716,10.63c0.022,0.021,0.048,0.035,0.07,0.054c-0.392,0.692-0.63,1.497-0.63,2.366   c0,2.074,1.294,3.809,3.051,4.365c0.001,0.018,0.003,0.036,0.004,0.054c0.092,1.224,0.17,2.28-0.018,3.645   c-0.199,1.45-0.876,2.754-2.332,4.498c-1.792,2.133-2.966,4.242-3.843,6.91c-2.015,0.981-3.407,3.013-3.407,5.363v2.548   c0,1.104,0.896,2,2,2h12.396h12.397c1.104,0,2-0.896,2-2v-2.548c0-2.35-1.393-4.383-3.409-5.364   c-0.875-2.662-2.045-4.77-3.833-6.909c-1.464-1.74-2.142-3.043-2.341-4.489c-0.182-1.361-0.103-2.415-0.011-3.635   c0.002-0.024,0.004-0.05,0.005-0.075c1.752-0.559,3.042-2.292,3.042-4.363c0-0.991-0.301-1.902-0.799-2.651   c1.002-0.895,2.088-1.679,3.266-2.313c0.046-0.025,0.084-0.058,0.127-0.086c0.021-0.014,0.045-0.018,0.066-0.032l0.922-0.642   c3.041-2.117,5.238-3.646,8.438-5.461c0.443-0.253,0.84-0.604,1.147-1.018c3.063-4.142,5.1-5.931,8.799-9.179l1.322-1.158   c1.275-1.111,2.594-2.259,3.724-3.694c0.708-0.901,1.611-2.388,2.248-3.994c0.498,0.158,1.007,0.248,1.515,0.248   c0.775,0,1.546-0.182,2.262-0.543l0.802-0.405c0.986-0.497,1.383-1.7,0.886-2.686C94.265,29.191,93.064,28.792,92.077,29.292z    M16.725,23.98c-0.629-0.272-1.251-0.513-1.862-0.748c-1.257-0.485-2.39-0.922-3.345-1.552c0.55,0.096,1.109,0.187,1.659,0.18   c2.154-0.018,4.265,0.031,5.953,0.144c1.411,0.094,2.753,0.27,4.111,0.475c-1.707,0.636-3.392,1.328-5.049,2.081   C17.721,24.408,17.233,24.2,16.725,23.98z M51.538,59.146c-0.831-0.188-1.522-0.725-1.866-1.469   c0.275-0.869,0.501-1.795,0.694-2.973c0.458-0.328,1.187-0.655,2.033-0.762C51.664,55.573,51.473,57.431,51.538,59.146z    M48.579,64.363c-0.052-0.018-0.242-0.205-0.242-0.57c0-0.342,0.173-0.547,0.231-0.569h3.586c0.01,0,0.019,0.002,0.03,0.002   c0.008,0,0.016-0.002,0.024-0.002l0.918,0c0.063,0.022,0.119,0.058,0.185,0.074c0.344,0.08,0.639,0.08,0.812,0.08   c0.273,0,0.531-0.055,0.764-0.154l0.421,0c0.205,0.095,0.42,0.153,0.64,0.175c0.05,0.096,0.091,0.229,0.091,0.395   c0,0.366-0.19,0.553-0.231,0.569h-3.62L48.579,64.363z M55.57,49.463c-0.205,0.262-0.422,0.518-0.638,0.775   c-0.188-0.101-0.39-0.182-0.612-0.219c-1.48-0.251-2.927-0.054-4.188,0.384c-0.339-1.155-0.947-2.472-1.943-4.506   c-0.076-0.155-0.166-0.302-0.289-0.488c-0.081-0.42-0.201-0.901-0.332-1.415c-0.209-0.824-0.764-3.013-0.434-3.479   c3.525-2.699,7.621-3.377,13.693-2.271c0.429,0.079,0.592,0.263,1.243,1.408l0.133,0.233c0.094,0.164,0.313,0.547,0.346,0.764   c0.104,0.678-0.331,1.699-0.715,2.599l-0.067,0.159c-0.089,0.208-0.186,0.417-0.283,0.625c-0.182,0.387-0.36,0.776-0.508,1.17   c-0.067,0.183-0.126,0.367-0.183,0.549c-0.038,0.121-0.087,0.277-0.124,0.371c-0.083,0.038-0.172,0.065-0.257,0.096   C58.723,46.849,56.966,47.677,55.57,49.463z M62.586,89.175H52.188H41.792v-0.548c0-1.098,0.949-1.991,2.115-1.991h8.281h8.281   c1.167,0,2.116,0.893,2.116,1.991V89.175z M58.654,82.637h-6.466h-6.466c0.609-1.332,1.367-2.501,2.386-3.713   c1.38-1.653,2.843-3.721,3.229-6.521c0.218-1.587,0.159-2.845,0.075-4.04h0.777h0.786c-0.086,1.193-0.147,2.449,0.065,4.04   c0.387,2.813,1.856,4.878,3.239,6.523C57.292,80.137,58.047,81.306,58.654,82.637z M83.908,35.085   c-0.896,1.139-2.019,2.116-3.207,3.151l-1.334,1.169c-3.766,3.306-6.044,5.306-9.339,9.756c-3.328,1.891-5.696,3.54-8.691,5.625   l-0.895,0.622c-1.776,0.978-3.391,2.212-4.829,3.666c-0.029-0.021-0.054-0.046-0.083-0.066c-0.063-1.574,0.158-2.871,0.661-3.744   c0.01-0.017,0.014-0.036,0.024-0.053c0.007-0.013,0.018-0.022,0.025-0.036c0.362-0.709,0.958-1.416,1.59-2.164   c0.304-0.36,0.606-0.72,0.893-1.086c0.743-0.949,1.732-1.453,3.089-1.958c0.353-0.131,0.836-0.312,1.305-0.663   c0.992-0.741,1.296-1.716,1.497-2.362c0.036-0.115,0.071-0.23,0.113-0.344c0.109-0.293,0.247-0.582,0.382-0.871   c0.119-0.253,0.236-0.507,0.343-0.758l0.065-0.153c0.563-1.322,1.263-2.967,0.989-4.768c-0.128-0.839-0.475-1.53-0.83-2.151   l-0.126-0.222c-0.745-1.311-1.672-2.941-4.002-3.367c-4.845-0.884-11.138-1.338-16.844,3.028c-2.47,1.891-1.592,5.351-1.012,7.64   c0.111,0.44,0.218,0.85,0.284,1.204c0.08,0.69,0.405,1.167,0.587,1.431l0.036,0.046c1.666,3.402,1.947,4.172,1.886,5.58   c-0.092,0.29-0.12,0.593-0.077,0.889c-0.168,1.007-0.364,1.78-0.618,2.55c-2.27-2.26-4.012-4.403-4.763-7.033   c-0.234-0.821-0.646-2.337-1.097-3.996c-0.825-3.037-1.679-6.176-1.999-7.137c-0.378-1.13-0.39-2.163-0.034-2.762   c0.271-0.454,0.836-0.845,1.545-1.308c2.992-1.953,6.072-3.862,9.154-5.672c0.953-0.56,1.271-1.785,0.712-2.738   c-0.56-0.952-1.787-1.27-2.737-0.711c-1.304,0.766-2.604,1.558-3.9,2.354c-3.747,0.672-7.273,0.938-11.684,0.878   c-0.683,0.002-1.971,0.121-2.91,0.232c-1.608,0.191-2.832,1.134-3.814,1.891l-0.39,0.298c-3.783,2.843-8.762,3.722-13.228,2.471   c10.785-7.706,24.839-10.757,37.34-13.465c1.524-0.331,3.028-0.656,4.476-0.979c10.132-2.119,19.02-3.054,27.123-2.869   c0.015,0.035,0.02,0.071,0.036,0.106l6.428,14.216C85.879,31.806,84.849,33.888,83.908,35.085z"></path></g></svg>
