<svg xmlns="http://www.w3.org/2000/svg" version="1.1" x="0px" y="0px"
     viewBox="0 0 100 100">
  <g>
    <path
      d="M91.571,78.755c-0.918-1.065-2.018-1.973-3.282-2.664c0.284-0.573,0.547-1.158,0.778-1.76   c1.117-2.915,1.635-6.142,1.636-9.414c-0.004-5.496-1.455-11.129-4.179-15.66c-1.178-1.953-2.612-3.682-4.273-5.105   c0.01-0.333,0.027-0.671,0.027-0.996c0.001-3.629-0.652-6.785-1.849-9.465c-1.422-3.196-3.63-5.675-6.294-7.487l6.449-5.437   l0.002-0.002c1.763-1.483,2.638-3.541,2.63-5.55c0-1.573-0.516-3.123-1.479-4.414c-0.962-1.292-2.381-2.322-4.137-2.849   l0.004,0.001l-8.572-2.608L69.008,5.34C68.202,5.109,67.394,5,66.608,5c-2.152,0.001-4.134,0.811-5.594,2.148   c-1.459,1.332-2.41,3.232-2.409,5.343c0,0.563,0.068,1.139,0.207,1.715l1.965,8.076c-0.346-0.011-0.691-0.025-1.038-0.025   c-7.552,0.007-15.552,2.431-21.784,6.611c-3.113,2.094-5.787,4.635-7.701,7.577c-1.914,2.938-3.059,6.294-3.057,9.907   c0,0.091,0.01,0.183,0.011,0.274c-4.556,1.771-8.633,4.79-11.989,8.738C9.676,61.875,6.011,70.885,5.055,81.102   C5.018,81.491,5,81.878,5,82.261c0,3.521,1.505,6.718,3.879,9.013c2.373,2.298,5.634,3.725,9.187,3.725h68.663l0.001,0   c2.357,0.002,4.449-0.976,5.917-2.493c1.471-1.515,2.351-3.573,2.352-5.77c0-0.942-0.164-1.908-0.51-2.852   C93.796,81.988,92.845,80.231,91.571,78.755z M62.975,9.289c0.924-0.847,2.218-1.386,3.633-1.385c0.517,0,1.052,0.072,1.599,0.227   l8.552,2.602l0.004,0.001c1.178,0.357,2.051,1.009,2.647,1.805c0.594,0.797,0.903,1.742,0.903,2.678   c-0.007,1.2-0.48,2.376-1.603,3.334l0.002-0.002l-6.586,5.552c-0.275,0.226-0.52,0.395-0.756,0.538   c-2.294-1.075-4.806-1.761-7.432-2.105c-0.144-0.299-0.266-0.591-0.322-0.86l-0.009-0.041l-1.973-8.113   c-0.086-0.355-0.125-0.698-0.125-1.029C61.509,11.261,62.05,10.141,62.975,9.289z M90.564,90.484   c-0.964,0.987-2.28,1.61-3.834,1.612H18.066c-2.767,0.001-5.313-1.114-7.167-2.908c-1.854-1.797-2.995-4.244-2.995-6.927   c0-0.294,0.014-0.59,0.042-0.888c0.903-9.692,4.388-18.149,9.484-24.128c5.107-5.982,11.752-9.486,19.185-9.491   c2.199,0,4.474,0.308,6.812,0.962c0.772,0.216,1.573-0.235,1.789-1.007c0.216-0.772-0.235-1.573-1.007-1.789   c-2.581-0.722-5.124-1.07-7.594-1.069c-2.234-0.001-4.402,0.291-6.489,0.831c0.13-2.742,1.031-5.3,2.561-7.656   c2.476-3.816,6.614-7.064,11.466-9.325C49,26.436,54.545,25.157,59.738,25.16c5.355-0.002,10.296,1.355,13.823,4.215   c1.769,1.432,3.204,3.237,4.216,5.5c0.899,2.015,1.436,4.427,1.549,7.245c-1.48-0.789-3.093-1.344-4.822-1.585   c-0.794-0.111-1.528,0.442-1.639,1.236c-0.111,0.794,0.442,1.528,1.236,1.639c2.072,0.291,3.932,1.12,5.601,2.383l0.02,0.016   c0.078,0.084,0.168,0.155,0.265,0.218c2.367,1.89,4.311,4.678,5.656,7.927c1.401,3.377,2.157,7.228,2.156,10.963   c0.001,2.964-0.475,5.852-1.443,8.375c-0.969,2.525-2.42,4.676-4.372,6.253c-0.624,0.504-0.721,1.418-0.217,2.041   c0.504,0.624,1.418,0.721,2.041,0.217l0,0c1.157-0.934,2.152-2.023,3.002-3.221c0.976,0.516,1.821,1.212,2.565,2.07   c0.993,1.149,1.792,2.593,2.39,4.23c0.228,0.625,0.333,1.247,0.333,1.855C92.098,88.149,91.525,89.496,90.564,90.484z"></path>
  </g>
  <g transform="translate(20 30) scale(0.7)">
  <g><polygon points="12.9,71.4 7.6,66.1 19.3,54.4 20.7,55.8 10.4,66.1 12.9,68.6 23.2,58.3 24.6,59.7   "></polygon></g><g><path d="M29,61.6c-1.7,0-3.4-0.7-4.6-1.9l-5.1-5.1c-2.5-2.5-2.5-6.6,0-9.2l0.7-0.7L34.3,59l-0.7,0.7    C32.4,60.9,30.8,61.6,29,61.6z M20.1,47.6c-1.1,1.7-0.9,4.1,0.6,5.6l5.1,5.1c0.8,0.8,2,1.3,3.2,1.3c0.9,0,1.7-0.2,2.4-0.7    L20.1,47.6z"></path></g><g><path d="M12.3,74.8c-0.8,0-1.5-0.3-2-0.8l-5.2-5.2c-0.5-0.5-0.8-1.2-0.8-2c0-0.8,0.3-1.5,0.8-2    c1.1-1.1,2.9-1.1,4,0l5.2,5.2c1.1,1.1,1.1,2.9,0,4C13.8,74.5,13.1,74.8,12.3,74.8z M7.1,65.9c-0.2,0-0.4,0.1-0.6,0.2    c-0.2,0.2-0.2,0.4-0.2,0.6s0.1,0.4,0.2,0.6l5.2,5.2c0.3,0.3,0.9,0.3,1.2,0c0.3-0.3,0.3-0.8,0-1.2l-5.2-5.2    C7.5,66,7.3,65.9,7.1,65.9z"></path></g><g><polygon points="31.7,58.7 30.3,57.3 70,17.6 70,9 62.4,9 23.3,49.4 21.9,48 61.6,7 72,7 72,18.4   "></polygon></g><g><rect x="46" y="6.7" transform="matrix(0.7168 0.6973 -0.6973 0.7168 35.9716 -23.568)" width="2" height="51.6"></rect></g><g><rect x="13" y="61" width="2" height="7"></rect></g><g><rect x="17" y="57" fill="#000000" width="2" height="7"></rect></g>
  </g>
</svg>
