<?xml version="1.0" encoding="UTF-8" ?><svg xmlns="http://www.w3.org/2000/svg" viewBox="0 0 50 50" version="1.1"><g transform="matrix(0.38889321,0,0,0.3888932,5.1073794,4.636376)"><g><path d="m 91.571,78.755 c -0.918,-1.065 -2.018,-1.973 -3.282,-2.664 0.284,-0.573 0.547,-1.158 0.778,-1.76 1.117,-2.915 1.635,-6.142 1.636,-9.414 -0.004,-5.496 -1.455,-11.129 -4.179,-15.66 -1.178,-1.953 -2.612,-3.682 -4.273,-5.105 0.01,-0.333 0.027,-0.671 0.027,-0.996 10e-4,-3.629 -0.652,-6.785 -1.849,-9.465 -1.422,-3.196 -3.63,-5.675 -6.294,-7.487 l 6.449,-5.437 0.002,-0.002 c 1.763,-1.483 2.638,-3.541 2.63,-5.55 0,-1.573 -0.516,-3.123 -1.479,-4.414 C 80.775,9.509 79.356,8.479 77.6,7.952 L 77.604,7.953 69.032,5.345 69.008,5.34 C 68.202,5.109 67.394,5 66.608,5 c -2.152,0.001 -4.134,0.811 -5.594,2.148 -1.459,1.332 -2.41,3.232 -2.409,5.343 0,0.563 0.068,1.139 0.207,1.715 l 1.965,8.076 c -0.346,-0.011 -0.691,-0.025 -1.038,-0.025 -7.552,0.007 -15.552,2.431 -21.784,6.611 -3.113,2.094 -5.787,4.635 -7.701,7.577 -1.914,2.938 -3.059,6.294 -3.057,9.907 0,0.091 0.01,0.183 0.011,0.274 -4.556,1.771 -8.633,4.79 -11.989,8.738 C 9.676,61.875 6.011,70.885 5.055,81.102 5.018,81.491 5,81.878 5,82.261 c 0,3.521 1.505,6.718 3.879,9.013 2.373,2.298 5.634,3.725 9.187,3.725 h 68.663 0.001 c 2.357,0.002 4.449,-0.976 5.917,-2.493 1.471,-1.515 2.351,-3.573 2.352,-5.77 0,-0.942 -0.164,-1.908 -0.51,-2.852 -0.693,-1.896 -1.644,-3.653 -2.918,-5.129 z M 62.975,9.289 c 0.924,-0.847 2.218,-1.386 3.633,-1.385 0.517,0 1.052,0.072 1.599,0.227 l 8.552,2.602 0.004,10e-4 c 1.178,0.357 2.051,1.009 2.647,1.805 0.594,0.797 0.903,1.742 0.903,2.678 -0.007,1.2 -0.48,2.376 -1.603,3.334 l 0.002,-0.002 -6.586,5.552 c -0.275,0.226 -0.52,0.395 -0.756,0.538 -2.294,-1.075 -4.806,-1.761 -7.432,-2.105 -0.144,-0.299 -0.266,-0.591 -0.322,-0.86 L 63.607,21.633 61.634,13.52 c -0.086,-0.355 -0.125,-0.698 -0.125,-1.029 0,-1.23 0.541,-2.35 1.466,-3.202 z m 27.589,81.195 c -0.964,0.987 -2.28,1.61 -3.834,1.612 H 18.066 c -2.767,10e-4 -5.313,-1.114 -7.167,-2.908 -1.854,-1.797 -2.995,-4.244 -2.995,-6.927 0,-0.294 0.014,-0.59 0.042,-0.888 0.903,-9.692 4.388,-18.149 9.484,-24.128 5.107,-5.982 11.752,-9.486 19.185,-9.491 2.199,0 4.474,0.308 6.812,0.962 0.772,0.216 1.573,-0.235 1.789,-1.007 0.216,-0.772 -0.235,-1.573 -1.007,-1.789 -2.581,-0.722 -5.124,-1.07 -7.594,-1.069 -2.234,-10e-4 -4.402,0.291 -6.489,0.831 0.13,-2.742 1.031,-5.3 2.561,-7.656 2.476,-3.816 6.614,-7.064 11.466,-9.325 4.847,-2.265 10.392,-3.544 15.585,-3.541 5.355,-0.002 10.296,1.355 13.823,4.215 1.769,1.432 3.204,3.237 4.216,5.5 0.899,2.015 1.436,4.427 1.549,7.245 -1.48,-0.789 -3.093,-1.344 -4.822,-1.585 -0.794,-0.111 -1.528,0.442 -1.639,1.236 -0.111,0.794 0.442,1.528 1.236,1.639 2.072,0.291 3.932,1.12 5.601,2.383 l 0.02,0.016 c 0.078,0.084 0.168,0.155 0.265,0.218 2.367,1.89 4.311,4.678 5.656,7.927 1.401,3.377 2.157,7.228 2.156,10.963 10e-4,2.964 -0.475,5.852 -1.443,8.375 -0.969,2.525 -2.42,4.676 -4.372,6.253 -0.624,0.504 -0.721,1.418 -0.217,2.041 0.504,0.624 1.418,0.721 2.041,0.217 v 0 c 1.157,-0.934 2.152,-2.023 3.002,-3.221 0.976,0.516 1.821,1.212 2.565,2.07 0.993,1.149 1.792,2.593 2.39,4.23 0.228,0.625 0.333,1.247 0.333,1.855 0,1.412 -0.573,2.759 -1.534,3.747 z"/></g><g transform="matrix(0.7,0,0,0.7,20,30)"><g><polygon points="24.6,59.7 12.9,71.4 7.6,66.1 19.3,54.4 20.7,55.8 10.4,66.1 12.9,68.6 23.2,58.3 " /></g><g><path d="m 29,61.6 c -1.7,0 -3.4,-0.7 -4.6,-1.9 l -5.1,-5.1 c -2.5,-2.5 -2.5,-6.6 0,-9.2 L 20,44.7 34.3,59 33.6,59.7 c -1.2,1.2 -2.8,1.9 -4.6,1.9 z m -8.9,-14 c -1.1,1.7 -0.9,4.1 0.6,5.6 l 5.1,5.1 c 0.8,0.8 2,1.3 3.2,1.3 0.9,0 1.7,-0.2 2.4,-0.7 z"/></g><g><path d="m 12.3,74.8 c -0.8,0 -1.5,-0.3 -2,-0.8 L 5.1,68.8 c -0.5,-0.5 -0.8,-1.2 -0.8,-2 0,-0.8 0.3,-1.5 0.8,-2 1.1,-1.1 2.9,-1.1 4,0 l 5.2,5.2 c 1.1,1.1 1.1,2.9 0,4 -0.5,0.5 -1.2,0.8 -2,0.8 z M 7.1,65.9 c -0.2,0 -0.4,0.1 -0.6,0.2 -0.2,0.2 -0.2,0.4 -0.2,0.6 0,0.2 0.1,0.4 0.2,0.6 l 5.2,5.2 c 0.3,0.3 0.9,0.3 1.2,0 0.3,-0.3 0.3,-0.8 0,-1.2 L 7.7,66.1 C 7.5,66 7.3,65.9 7.1,65.9 Z"/></g><g><polygon points="30.3,57.3 70,17.6 70,9 62.4,9 23.3,49.4 21.9,48 61.6,7 72,7 72,18.4 31.7,58.7 " /></g><g><rect height="51.599998" width="2" transform="matrix(0.7168,0.6973,-0.6973,0.7168,35.9716,-23.568)" y="6.6999998" x="46" /></g><g><rect height="7" width="2" y="61" x="13" /></g><g><rect height="7" width="2" y="57" x="17" /></g></g></g><g transform="matrix(0.42687136,0,0,0.4286527,21.603233,18.46094)" /><path style="stroke-width:0.36007914" d="M 4.3398438 5.1953125 C 4.1913585 5.1953125 4.080102 5.2663095 4.0058594 5.3710938 C 3.4490396 6.2442914 2.4456589 6.7675781 1.3691406 6.7675781 C 1.1464126 6.7675781 0.99804687 6.9076201 0.99804688 7.1171875 C 0.99804688 7.3267549 1.1464126 7.4667969 1.3691406 7.4667969 C 2.5199015 7.4667969 3.5974172 6.9769416 4.3398438 6.1386719 C 5.0822702 6.9769416 6.1578328 7.4667969 7.3085938 7.4667969 C 8.4593546 7.4667969 9.5368699 6.9769416 10.279297 6.1386719 C 11.021723 6.9769416 12.097286 7.4667969 13.248047 7.4667969 C 14.398808 7.4667969 15.476323 6.9769416 16.21875 6.1386719 C 16.961176 6.9769416 18.036739 7.4667969 19.1875 7.4667969 C 20.375382 7.4667969 21.452921 6.9769416 22.083984 6.1386719 C 22.735091 6.8738329 23.646969 7.3182316 24.636719 7.421875 C 24.690079 7.447792 24.749619 7.4667969 24.820312 7.4667969 C 24.860153 7.4667969 24.897852 7.4562441 24.9375 7.4550781 C 24.9765 7.4562081 25.01355 7.4667969 25.052734 7.4667969 C 25.123434 7.4667969 25.182967 7.447792 25.236328 7.421875 C 26.226078 7.3182316 27.137956 6.8738329 27.789062 6.1386719 C 27.886187 6.2483349 28.00332 6.3342198 28.111328 6.4316406 A 7.2606338 7.5783808 4.2290653 0 1 28.695312 6.0117188 C 28.476982 5.825624 28.2793 5.6161276 28.123047 5.3710938 C 28.048807 5.2663101 27.900427 5.1953125 27.789062 5.1953125 C 27.640579 5.1953125 27.529318 5.2663095 27.455078 5.3710938 C 26.918971 6.2118094 25.96816 6.7166105 24.9375 6.7539062 C 23.906082 6.7171962 22.954416 6.2123432 22.417969 5.3710938 C 22.343729 5.2663101 22.195348 5.1953125 22.083984 5.1953125 C 21.935498 5.1953125 21.82424 5.2663095 21.75 5.3710938 C 21.19318 6.2442914 20.189799 6.7675781 19.113281 6.7675781 C 18.036763 6.7675781 17.035336 6.2442914 16.478516 5.3710938 C 16.330031 5.1615262 15.996141 5.1615262 15.847656 5.3710938 C 15.290836 6.2442914 14.287455 6.7675781 13.210938 6.7675781 C 12.134419 6.7675781 11.132992 6.2442914 10.576172 5.3710938 C 10.427687 5.1615262 10.093798 5.1615262 9.9453125 5.3710938 C 9.3884924 6.2442914 8.3851121 6.7675781 7.3085938 6.7675781 C 6.2320754 6.7675781 5.230648 6.2442914 4.6738281 5.3710938 C 4.5995855 5.2663101 4.4512075 5.1953125 4.3398438 5.1953125 z M 45.533203 5.1953125 C 45.384718 5.1953125 45.273459 5.2663095 45.199219 5.3710938 C 44.6424 6.2442914 43.640971 6.7675781 42.564453 6.7675781 C 41.487934 6.7675781 40.484554 6.2442914 39.927734 5.3710938 C 39.779249 5.1615262 39.445361 5.1615262 39.296875 5.3710938 C 38.842301 6.0839517 38.086394 6.5451504 37.240234 6.6972656 A 7.2606338 7.5783808 4.2290653 0 1 37.824219 7.2851562 C 38.532504 7.0765619 39.176689 6.6933727 39.667969 6.1386719 C 40.410395 6.9769416 41.487911 7.4667969 42.638672 7.4667969 C 43.826555 7.4667969 44.902141 6.9769416 45.533203 6.1386719 C 46.27563 6.9769416 47.353145 7.4667969 48.503906 7.4667969 C 48.726634 7.4667969 48.875 7.3267549 48.875 7.1171875 C 48.875 6.9076201 48.726634 6.7675781 48.503906 6.7675781 C 47.427388 6.7675781 46.424008 6.2442914 45.867188 5.3710938 C 45.792947 5.2663101 45.644567 5.1953125 45.533203 5.1953125 z M 4.3398438 9.4570312 C 4.1913583 9.4570312 4.0801024 9.5280292 4.0058594 9.6328125 C 3.4490396 10.506011 2.4456589 11.029297 1.3691406 11.029297 C 1.1464126 11.029297 0.99804687 11.169339 0.99804688 11.378906 C 0.99804688 11.588474 1.1464126 11.728516 1.3691406 11.728516 C 2.5199015 11.728516 3.5974172 11.238661 4.3398438 10.400391 C 5.0822702 11.238661 6.1578328 11.728516 7.3085938 11.728516 C 8.4593546 11.728516 9.5368699 11.238661 10.279297 10.400391 C 11.021723 11.238661 12.097286 11.728516 13.248047 11.728516 C 14.398808 11.728516 15.476323 11.238661 16.21875 10.400391 C 16.961176 11.238661 18.036739 11.728516 19.1875 11.728516 C 20.375382 11.728516 21.452921 11.238661 22.083984 10.400391 C 22.735091 11.135552 23.646969 11.579951 24.636719 11.683594 C 24.690029 11.709434 24.749728 11.728516 24.820312 11.728516 C 24.860153 11.728516 24.897852 11.717967 24.9375 11.716797 C 24.9765 11.717897 25.01355 11.728516 25.052734 11.728516 C 25.123324 11.728516 25.183019 11.709434 25.236328 11.683594 C 25.247629 11.68241 25.258251 11.679007 25.269531 11.677734 A 7.2606338 7.5783808 4.2290653 0 1 25.378906 10.949219 C 25.232156 10.974412 25.088748 11.010152 24.9375 11.015625 C 23.906082 10.978915 22.954416 10.474062 22.417969 9.6328125 C 22.343729 9.5280289 22.195348 9.4570312 22.083984 9.4570312 C 21.935498 9.4570312 21.82424 9.5280292 21.75 9.6328125 C 21.19318 10.506011 20.189799 11.029297 19.113281 11.029297 C 18.036763 11.029297 17.035336 10.506011 16.478516 9.6328125 C 16.330031 9.423245 15.996141 9.423245 15.847656 9.6328125 C 15.290836 10.506011 14.287455 11.029297 13.210938 11.029297 C 12.134419 11.029297 11.132992 10.506011 10.576172 9.6328125 C 10.427687 9.423245 10.093798 9.423245 9.9453125 9.6328125 C 9.3884924 10.506011 8.3851121 11.029297 7.3085938 11.029297 C 6.2320753 11.029297 5.230648 10.506011 4.6738281 9.6328125 C 4.5995855 9.5280289 4.4512075 9.4570312 4.3398438 9.4570312 z M 45.533203 9.4570312 C 45.384718 9.4570312 45.273459 9.5280292 45.199219 9.6328125 C 44.6424 10.506011 43.640971 11.029297 42.564453 11.029297 C 41.487934 11.029297 40.484554 10.506011 39.927734 9.6328125 C 39.779249 9.423245 39.445361 9.423245 39.296875 9.6328125 C 39.284744 9.651836 39.270362 9.6688105 39.257812 9.6875 A 7.2606338 7.5783808 4.2290653 0 1 39.513672 10.541016 C 39.562784 10.491225 39.621413 10.452956 39.667969 10.400391 C 40.410395 11.238661 41.487911 11.728516 42.638672 11.728516 C 43.826555 11.728516 44.902141 11.238661 45.533203 10.400391 C 46.27563 11.238661 47.353145 11.728516 48.503906 11.728516 C 48.726634 11.728516 48.875 11.588474 48.875 11.378906 C 48.875 11.169339 48.726634 11.029297 48.503906 11.029297 C 47.427388 11.029297 46.424008 10.506011 45.867188 9.6328125 C 45.792947 9.5280289 45.644567 9.4570312 45.533203 9.4570312 z M 4.3398438 13.71875 C 4.1913583 13.71875 4.0801024 13.78779 4.0058594 13.892578 C 3.4490396 14.765776 2.4456589 15.291016 1.3691406 15.291016 C 1.1464126 15.291016 0.99804687 15.429104 0.99804688 15.638672 C 0.99804688 15.848239 1.1464126 15.988281 1.3691406 15.988281 C 2.5199015 15.988281 3.5974172 15.500379 4.3398438 14.662109 C 5.0822702 15.500379 6.1578328 15.988281 7.3085938 15.988281 C 8.4593546 15.988281 9.5368699 15.500379 10.279297 14.662109 C 11.021723 15.500379 12.097286 15.988281 13.248047 15.988281 C 14.398808 15.988281 15.476323 15.500379 16.21875 14.662109 C 16.36243 14.824338 16.528548 14.960716 16.695312 15.095703 A 7.5521035 14.616289 89.745483 0 1 17.431641 14.800781 C 17.054561 14.567669 16.719249 14.270093 16.478516 13.892578 C 16.330031 13.683011 15.996141 13.683011 15.847656 13.892578 C 15.290836 14.765776 14.287455 15.291016 13.210938 15.291016 C 12.134419 15.291016 11.132992 14.765776 10.576172 13.892578 C 10.427687 13.683011 10.093798 13.683011 9.9453125 13.892578 C 9.3884924 14.765776 8.3851121 15.291016 7.3085938 15.291016 C 6.2320753 15.291016 5.230648 14.765776 4.6738281 13.892578 C 4.5995855 13.787799 4.4512075 13.71875 4.3398438 13.71875 z M 45.533203 13.71875 C 45.384718 13.71875 45.273459 13.78779 45.199219 13.892578 C 44.6424 14.765776 43.640971 15.291016 42.564453 15.291016 C 41.487934 15.291016 40.484554 14.765776 39.927734 13.892578 C 39.854375 13.789041 39.73634 13.739513 39.617188 13.738281 A 7.2606338 7.5783808 4.2290653 0 1 39.289062 15.007812 C 39.418316 14.8958 39.553587 14.791257 39.667969 14.662109 C 40.410395 15.500379 41.487911 15.988281 42.638672 15.988281 C 43.826555 15.988281 44.902141 15.500379 45.533203 14.662109 C 46.27563 15.500379 47.353145 15.988281 48.503906 15.988281 C 48.726634 15.988281 48.875 15.848239 48.875 15.638672 C 48.875 15.429104 48.726634 15.291016 48.503906 15.291016 C 47.427388 15.291016 46.424008 14.765776 45.867188 13.892578 C 45.792947 13.787799 45.644567 13.71875 45.533203 13.71875 z M 4.3398438 17.529297 C 4.1913583 17.529297 4.0801024 17.600297 4.0058594 17.705078 C 3.4490396 18.578276 2.4456589 19.101562 1.3691406 19.101562 C 1.1464126 19.101562 0.99804687 19.241605 0.99804688 19.451172 C 0.99804688 19.66074 1.1464126 19.800781 1.3691406 19.800781 C 2.5199015 19.800781 3.5974172 19.310926 4.3398438 18.472656 C 5.0822702 19.310926 6.1578328 19.800781 7.3085938 19.800781 C 8.4593546 19.800781 9.5368699 19.310926 10.279297 18.472656 C 10.6523 18.893813 11.110669 19.225798 11.619141 19.453125 A 7.5521035 14.616289 89.745483 0 1 11.927734 18.818359 C 11.379007 18.581036 10.898549 18.210625 10.576172 17.705078 C 10.427687 17.495511 10.093798 17.495511 9.9453125 17.705078 C 9.3884924 18.578276 8.3851121 19.101562 7.3085938 19.101562 C 6.2320753 19.101564 5.230648 18.578276 4.6738281 17.705078 C 4.5995851 17.600299 4.4512076 17.529297 4.3398438 17.529297 z M 45.533203 17.529297 C 45.384718 17.529297 45.273459 17.600297 45.199219 17.705078 C 44.6424 18.578276 43.640971 19.101562 42.564453 19.101562 C 41.487934 19.101564 40.484554 18.578276 39.927734 17.705078 C 39.779249 17.495511 39.445361 17.495511 39.296875 17.705078 C 39.281502 17.729185 39.262136 17.749867 39.246094 17.773438 A 7.5521035 14.616289 89.745483 0 1 39.935547 18.716797 C 40.659417 19.394804 41.613114 19.800781 42.638672 19.800781 C 43.826555 19.800781 44.902141 19.345854 45.533203 18.472656 C 46.27563 19.310926 47.353145 19.800781 48.503906 19.800781 C 48.726634 19.800781 48.875 19.66074 48.875 19.451172 C 48.875 19.241605 48.726634 19.101562 48.503906 19.101562 C 47.427388 19.101564 46.424008 18.578276 45.867188 17.705078 C 45.792947 17.600299 45.644567 17.529297 45.533203 17.529297 z M 4.3398438 21.826172 C 4.1913583 21.826172 4.0801024 21.895212 4.0058594 22 C 3.4490396 22.873198 2.4456589 23.398437 1.3691406 23.398438 C 1.1464126 23.398438 0.99804687 23.536526 0.99804688 23.746094 C 0.99804688 23.955661 1.1464126 24.095703 1.3691406 24.095703 C 2.5199015 24.095703 3.5974172 23.607801 4.3398438 22.769531 C 5.0822702 23.607801 6.1578328 24.095703 7.3085938 24.095703 C 8.4593546 24.095703 9.5368699 23.607801 10.279297 22.769531 C 10.484707 23.001459 10.719753 23.199625 10.970703 23.375 A 7.1536146 17.700823 89.825586 0 1 11.650391 22.994141 C 11.218241 22.754889 10.843863 22.41979 10.576172 22 C 10.427687 21.790433 10.093798 21.790433 9.9453125 22 C 9.3884924 22.873198 8.3851121 23.398437 7.3085938 23.398438 C 6.2320753 23.398438 5.230648 22.873198 4.6738281 22 C 4.5995855 21.895221 4.4512075 21.826172 4.3398438 21.826172 z M 45.533203 21.826172 C 45.384718 21.826172 45.273459 21.895212 45.199219 22 C 44.6424 22.873198 43.640971 23.398437 42.564453 23.398438 C 41.661706 23.398438 40.81405 23.024796 40.234375 22.390625 A 7.5521035 14.616289 89.745483 0 1 39.927734 23.005859 C 40.652476 23.688215 41.609299 24.095703 42.638672 24.095703 C 43.826555 24.095703 44.902141 23.607801 45.533203 22.769531 C 46.27563 23.607801 47.353145 24.095703 48.503906 24.095703 C 48.726634 24.095703 48.875 23.955661 48.875 23.746094 C 48.875 23.536526 48.726634 23.398438 48.503906 23.398438 C 47.427388 23.398438 46.424008 22.873198 45.867188 22 C 45.792947 21.895221 45.644567 21.826172 45.533203 21.826172 z M 4.3398438 26.087891 C 4.1913583 26.087891 4.0801024 26.156931 4.0058594 26.261719 C 3.4490396 27.134916 2.4456589 27.658203 1.3691406 27.658203 C 1.1464126 27.658203 0.99804687 27.798247 0.99804688 28.007812 C 0.99804688 28.217381 1.1464126 28.357422 1.3691406 28.357422 C 2.5199015 28.357422 3.5974172 27.867567 4.3398438 27.029297 C 5.0822702 27.867567 6.1578328 28.357422 7.3085938 28.357422 C 7.5617014 28.357422 7.8094997 28.325187 8.0527344 28.279297 A 7.1536146 17.700823 89.825586 0 1 7.9179688 27.583984 C 7.7177928 27.621935 7.5169573 27.658203 7.3085938 27.658203 C 6.2320753 27.658203 5.230648 27.134916 4.6738281 26.261719 C 4.5995851 26.156939 4.4512076 26.087891 4.3398438 26.087891 z M 45.533203 26.087891 C 45.384718 26.087891 45.273459 26.156931 45.199219 26.261719 C 44.768122 26.937759 44.068008 27.39616 43.275391 27.572266 A 7.1536146 17.700823 89.825586 0 1 43.105469 28.308594 C 44.101685 28.196496 44.987263 27.754496 45.533203 27.029297 C 46.27563 27.867567 47.353145 28.357422 48.503906 28.357422 C 48.726634 28.357422 48.875 28.217381 48.875 28.007812 C 48.875 27.798247 48.726634 27.658203 48.503906 27.658203 C 47.427388 27.658203 46.424008 27.134916 45.867188 26.261719 C 45.792947 26.156939 45.644567 26.087891 45.533203 26.087891 z M 4.3398438 30.347656 C 4.1913583 30.347656 4.0801024 30.418655 4.0058594 30.523438 C 3.4490396 31.396635 2.4456589 31.919922 1.3691406 31.919922 C 1.1464126 31.919922 0.99804687 32.059963 0.99804688 32.269531 C 0.99804688 32.479098 1.1464126 32.619141 1.3691406 32.619141 C 2.5199015 32.619141 3.5974172 32.129286 4.3398438 31.291016 C 4.8132236 31.825507 5.4300324 32.197578 6.1074219 32.412109 A 7.1402096 19.073151 89.842795 0 1 6.3242188 31.75 C 5.6480546 31.534989 5.0535943 31.118981 4.6738281 30.523438 C 4.5995851 30.418657 4.4512076 30.347656 4.3398438 30.347656 z M 45.533203 30.347656 C 45.384718 30.347656 45.273459 30.418655 45.199219 30.523438 C 44.882508 31.0201 44.413345 31.386645 43.876953 31.625 A 7.1402096 19.073151 89.842795 0 1 44.109375 32.330078 C 44.681399 32.103909 45.180688 31.759278 45.533203 31.291016 C 46.27563 32.129286 47.353145 32.619141 48.503906 32.619141 C 48.726634 32.619141 48.875 32.479098 48.875 32.269531 C 48.875 32.059963 48.726634 31.919922 48.503906 31.919922 C 47.427388 31.919922 46.424008 31.396635 45.867188 30.523438 C 45.792947 30.418657 45.644567 30.347656 45.533203 30.347656 z M 4.3398438 34.160156 C 4.1913583 34.160156 4.0801024 34.229206 4.0058594 34.333984 C 3.4490396 35.207182 2.4456589 35.730469 1.3691406 35.730469 C 1.1464126 35.730469 0.99804687 35.87051 0.99804688 36.080078 C 0.99804688 36.289645 1.1464126 36.429688 1.3691406 36.429688 C 2.5199015 36.429688 3.5974172 35.939833 4.3398438 35.101562 C 4.9090908 35.744297 5.6748576 36.176382 6.5195312 36.345703 A 6.7823041 18.340708 89.845323 0 1 6.4648438 35.886719 A 6.7823041 18.340708 89.845323 0 1 6.4941406 35.625 C 5.7440893 35.432598 5.08623 34.980708 4.6738281 34.333984 C 4.5995851 34.229205 4.4512076 34.160156 4.3398438 34.160156 z M 45.533203 34.160156 C 45.384718 34.160156 45.273459 34.229206 45.199219 34.333984 C 44.739456 35.054979 43.971272 35.517786 43.113281 35.664062 A 6.7823041 18.340708 89.845323 0 1 43.144531 35.886719 A 6.7823041 18.340708 89.845323 0 1 43.066406 36.388672 C 44.078725 36.290621 44.980125 35.866856 45.533203 35.101562 C 46.27563 35.939833 47.353145 36.429688 48.503906 36.429688 C 48.726634 36.429688 48.875 36.289645 48.875 36.080078 C 48.875 35.87051 48.726634 35.730469 48.503906 35.730469 C 47.427388 35.730469 46.424008 35.207182 45.867188 34.333984 C 45.792947 34.229205 45.644567 34.160156 45.533203 34.160156 z M 4.3398438 38.455078 C 4.1913583 38.455078 4.0801024 38.526078 4.0058594 38.630859 C 3.4490396 39.504056 2.4456589 40.027344 1.3691406 40.027344 C 1.1464126 40.027344 0.99804687 40.167386 0.99804688 40.376953 C 0.99804688 40.58652 1.1464126 40.726562 1.3691406 40.726562 C 2.5199015 40.726563 3.5974172 40.236705 4.3398438 39.398438 C 4.9176583 40.050844 5.6988027 40.482836 6.5585938 40.646484 A 5.5804505 2.7714992 0 0 1 5.9707031 39.722656 C 5.4449044 39.483578 4.9856541 39.11986 4.6738281 38.630859 C 4.5995851 38.526079 4.4512076 38.455078 4.3398438 38.455078 z M 45.533203 38.455078 C 45.384718 38.455078 45.273459 38.526078 45.199219 38.630859 C 44.739797 39.35132 43.97245 39.814272 43.115234 39.960938 A 5.5804505 2.7714992 0 0 1 42.583984 40.720703 C 42.60255 40.720959 42.620067 40.726562 42.638672 40.726562 C 43.826555 40.726563 44.902141 40.236705 45.533203 39.398438 C 46.27563 40.236706 47.353145 40.726562 48.503906 40.726562 C 48.726634 40.726563 48.875 40.58652 48.875 40.376953 C 48.875 40.167386 48.726634 40.027344 48.503906 40.027344 C 47.427388 40.027344 46.424008 39.504056 45.867188 38.630859 C 45.792947 38.526079 45.644567 38.455078 45.533203 38.455078 z M 4.3398438 42.716797 C 4.1913583 42.716797 4.0801024 42.785837 4.0058594 42.890625 C 3.4490396 43.763823 2.4456589 44.289062 1.3691406 44.289062 C 1.1464126 44.289062 0.99804687 44.429105 0.99804688 44.638672 C 0.99804688 44.84824 1.1464126 44.986328 1.3691406 44.986328 C 2.5199015 44.986328 3.5974172 44.498426 4.3398438 43.660156 C 5.0822702 44.498426 6.1578328 44.986328 7.3085938 44.986328 C 8.4593546 44.986328 9.5368699 44.498426 10.279297 43.660156 C 11.021723 44.498426 12.097286 44.986328 13.248047 44.986328 C 14.398808 44.986328 15.476323 44.498426 16.21875 43.660156 C 16.961176 44.498426 18.036739 44.986328 19.1875 44.986328 C 20.375382 44.986328 21.452921 44.498426 22.083984 43.660156 C 22.734689 44.394864 23.645726 44.839333 24.634766 44.943359 C 24.688396 44.969669 24.749055 44.986328 24.820312 44.986328 C 24.860163 44.986328 24.897842 44.975779 24.9375 44.974609 C 24.97651 44.975709 25.01354 44.986328 25.052734 44.986328 C 25.123994 44.986328 25.184653 44.969669 25.238281 44.943359 C 26.227321 44.839333 27.138357 44.394864 27.789062 43.660156 C 28.531488 44.498426 29.609005 44.986328 30.759766 44.986328 C 31.910526 44.986328 32.98609 44.498426 33.728516 43.660156 C 34.470943 44.498426 35.548458 44.986328 36.699219 44.986328 C 37.84998 44.986328 38.925542 44.498426 39.667969 43.660156 C 40.410395 44.498426 41.487911 44.986328 42.638672 44.986328 C 43.826555 44.986328 44.902141 44.498426 45.533203 43.660156 C 46.27563 44.498426 47.353145 44.986328 48.503906 44.986328 C 48.726634 44.986328 48.875 44.84824 48.875 44.638672 C 48.875 44.429105 48.726634 44.289062 48.503906 44.289062 C 47.427388 44.289063 46.424008 43.763823 45.867188 42.890625 C 45.792947 42.785846 45.644567 42.716797 45.533203 42.716797 C 45.384718 42.716797 45.273459 42.785837 45.199219 42.890625 C 44.6424 43.763823 43.640971 44.289062 42.564453 44.289062 C 41.487934 44.289063 40.484554 43.763823 39.927734 42.890625 C 39.779249 42.681058 39.445361 42.681058 39.296875 42.890625 C 38.740056 43.763823 37.738627 44.289062 36.662109 44.289062 C 35.58559 44.289063 34.582211 43.763823 34.025391 42.890625 C 33.876905 42.681058 33.543017 42.681058 33.394531 42.890625 C 32.837712 43.763823 31.836284 44.289062 30.759766 44.289062 C 29.683247 44.289063 28.679867 43.763823 28.123047 42.890625 C 28.048807 42.785846 27.900427 42.716797 27.789062 42.716797 C 27.640579 42.716797 27.529318 42.785837 27.455078 42.890625 C 26.918971 43.731341 25.96816 44.238095 24.9375 44.275391 C 23.906082 44.238681 22.954416 43.731875 22.417969 42.890625 C 22.343729 42.785846 22.195348 42.716797 22.083984 42.716797 C 21.935498 42.716797 21.82424 42.785837 21.75 42.890625 C 21.19318 43.763823 20.189799 44.289062 19.113281 44.289062 C 18.036763 44.289063 17.035336 43.763823 16.478516 42.890625 C 16.330031 42.681058 15.996141 42.681058 15.847656 42.890625 C 15.290836 43.763823 14.287455 44.289062 13.210938 44.289062 C 12.134419 44.289063 11.132992 43.763823 10.576172 42.890625 C 10.427687 42.681058 10.093798 42.681058 9.9453125 42.890625 C 9.3884924 43.763823 8.3851121 44.289062 7.3085938 44.289062 C 6.2320753 44.289063 5.230648 43.763823 4.6738281 42.890625 C 4.5995851 42.785846 4.4512076 42.716797 4.3398438 42.716797 z M 4.3398438 46.978516 C 4.1913583 46.978516 4.0801024 47.047556 4.0058594 47.152344 C 3.4490396 48.025541 2.4456589 48.548828 1.3691406 48.548828 C 1.1464126 48.548828 0.99804687 48.688869 0.99804688 48.898438 C 0.99804688 49.108004 1.1464126 49.248047 1.3691406 49.248047 C 2.5199015 49.248047 3.5974172 48.760145 4.3398438 47.921875 C 5.0822702 48.760145 6.1578328 49.248047 7.3085938 49.248047 C 8.4593546 49.248047 9.5368699 48.760145 10.279297 47.921875 C 11.021723 48.760145 12.097286 49.248047 13.248047 49.248047 C 14.398808 49.248047 15.476323 48.760145 16.21875 47.921875 C 16.961176 48.760145 18.036739 49.248047 19.1875 49.248047 C 20.375382 49.248047 21.452921 48.760145 22.083984 47.921875 C 22.735091 48.657036 23.646969 49.099482 24.636719 49.203125 C 24.690079 49.229045 24.749619 49.248047 24.820312 49.248047 C 24.860153 49.248047 24.897852 49.237498 24.9375 49.236328 C 24.9765 49.237428 25.01355 49.248047 25.052734 49.248047 C 25.123434 49.248047 25.182967 49.229045 25.236328 49.203125 C 26.226078 49.099482 27.137956 48.657036 27.789062 47.921875 C 28.531488 48.760145 29.609005 49.248047 30.759766 49.248047 C 31.910526 49.248047 32.98609 48.760145 33.728516 47.921875 C 34.470943 48.760145 35.548458 49.248047 36.699219 49.248047 C 37.84998 49.248047 38.925542 48.760145 39.667969 47.921875 C 40.410395 48.760145 41.487911 49.248047 42.638672 49.248047 C 43.826555 49.248047 44.902141 48.760145 45.533203 47.921875 C 46.27563 48.760145 47.353145 49.248047 48.503906 49.248047 C 48.726634 49.248047 48.875 49.108004 48.875 48.898438 C 48.875 48.688868 48.726634 48.548828 48.503906 48.548828 C 47.427388 48.548828 46.424008 48.025541 45.867188 47.152344 C 45.792947 47.047564 45.644567 46.978516 45.533203 46.978516 C 45.384718 46.978516 45.273459 47.047556 45.199219 47.152344 C 44.6424 48.025541 43.640971 48.548828 42.564453 48.548828 C 41.487934 48.548828 40.484554 48.025541 39.927734 47.152344 C 39.779249 46.942776 39.445361 46.942776 39.296875 47.152344 C 38.740056 48.025541 37.738627 48.548828 36.662109 48.548828 C 35.58559 48.548828 34.582211 48.025541 34.025391 47.152344 C 33.876905 46.942776 33.543017 46.942776 33.394531 47.152344 C 32.837712 48.025541 31.836284 48.548828 30.759766 48.548828 C 29.683247 48.548828 28.679867 48.025541 28.123047 47.152344 C 28.048807 47.047564 27.900427 46.978516 27.789062 46.978516 C 27.640579 46.978516 27.529318 47.047556 27.455078 47.152344 C 26.918977 47.993049 25.968146 48.49785 24.9375 48.535156 C 23.906095 48.498436 22.95441 47.993583 22.417969 47.152344 C 22.343729 47.047564 22.195348 46.978516 22.083984 46.978516 C 21.935498 46.978516 21.82424 47.047556 21.75 47.152344 C 21.19318 48.025541 20.189799 48.548828 19.113281 48.548828 C 18.036763 48.548828 17.035336 48.025541 16.478516 47.152344 C 16.330031 46.942776 15.996141 46.942776 15.847656 47.152344 C 15.290836 48.025541 14.287455 48.548828 13.210938 48.548828 C 12.134419 48.548828 11.132992 48.025541 10.576172 47.152344 C 10.427687 46.942776 10.093798 46.942776 9.9453125 47.152344 C 9.3884924 48.025541 8.3851121 48.548828 7.3085938 48.548828 C 6.2320753 48.548828 5.230648 48.025541 4.6738281 47.152344 C 4.5995851 47.047564 4.4512076 46.978516 4.3398438 46.978516 z "/><path d="m 19.187753,3.1703075 c -1.150761,0 -2.22728,-0.4889906 -2.969706,-1.3272603 -0.742427,0.8382697 -1.818945,1.3272603 -2.969706,1.3272603 -1.150761,0 -2.227279,-0.4889906 -2.969705,-1.3272603 -0.7424269,0.8382697 -1.8189452,1.3272603 -2.9697062,1.3272603 -1.1507609,0 -2.2272792,-0.4889906 -2.9697056,-1.3272603 -0.7424265,0.8382697 -1.8189448,1.3272603 -2.9697057,1.3272603 0,0 0,0 0,0 -0.222728,0 -0.37121323,-0.1397116 -0.37121323,-0.349279 0,-0.2095674 0.14848523,-0.3492791 0.37121323,-0.3492791 v 0 c 0,0 0,0 0,0 1.0765183,0 2.078794,-0.5239185 2.6356138,-1.3971162 0.074243,-0.10478367 0.1856066,-0.17463948 0.3340919,-0.17463948 v 0 c 0.1113639,0 0.2598492,0.0698558 0.3340918,0.17463948 0.5568199,0.8731977 1.5590955,1.3971162 2.6356138,1.3971162 1.0765183,0 2.078794,-0.5239185 2.6356138,-1.3971162 0.1484854,-0.20956738 0.4825774,-0.20956738 0.6310624,0 0.55682,0.8731977 1.559096,1.3971162 2.635614,1.3971162 1.076518,0 2.078794,-0.5239185 2.635614,-1.3971162 0.148485,-0.20956738 0.482577,-0.20956738 0.631062,0 0.55682,0.8731977 1.559096,1.3971162 2.635614,1.3971162 1.076518,0 2.078794,-0.5239185 2.635614,-1.3971162 0.07424,-0.10478367 0.185606,-0.17463948 0.334092,-0.17463948 v 0 c 0.111364,0 0.259849,0.0698558 0.334091,0.17463948 0.55682,0.8731977 1.559096,1.3971162 2.635614,1.3971162 0.222728,0 0.371213,0.1397117 0.371213,0.3492791 0,0.2095674 -0.148485,0.349279 -0.371213,0.349279 -1.150761,0 -2.227279,-0.4889906 -2.969705,-1.3272603 -0.631063,0.8731976 -1.707581,1.3272603 -2.895463,1.3272603 z"/><path d="m 42.638198,3.1703075 c -1.150761,0 -2.227279,-0.4889906 -2.969705,-1.3272603 -0.742427,0.8382697 -1.818945,1.3272603 -2.969706,1.3272603 -1.150761,0 -2.227279,-0.4889906 -2.969706,-1.3272603 -0.742426,0.8382697 -1.818945,1.3272603 -2.969705,1.3272603 -1.150761,0 -2.22728,-0.4889906 -2.969706,-1.3272603 -0.742427,0.8382697 -1.818945,1.3272603 -2.969706,1.3272603 0,0 0,0 0,0 -0.222728,0 -0.371213,-0.1397116 -0.371213,-0.349279 0,-0.2095674 0.148485,-0.3492791 0.371213,-0.3492791 v 0 c 0,0 0,0 0,0 1.076518,0 2.078794,-0.5239185 2.635614,-1.3971162 0.07424,-0.10478367 0.185607,-0.17463948 0.334092,-0.17463948 v 0 c 0.111364,0 0.259849,0.0698558 0.334092,0.17463948 0.55682,0.8731977 1.559095,1.3971162 2.635614,1.3971162 1.076518,0 2.078794,-0.5239185 2.635613,-1.3971162 0.148486,-0.20956738 0.482577,-0.20956738 0.631063,0 0.55682,0.8731977 1.559095,1.3971162 2.635614,1.3971162 1.076518,0 2.078794,-0.5239185 2.635613,-1.3971162 0.148486,-0.20956738 0.482578,-0.20956738 0.631063,0 0.55682,0.8731977 1.559095,1.3971162 2.635614,1.3971162 1.076518,0 2.078794,-0.5239185 2.635613,-1.3971162 0.07424,-0.10478367 0.185607,-0.17463948 0.334092,-0.17463948 v 0 c 0.111364,0 0.25985,0.0698558 0.334092,0.17463948 0.55682,0.8731977 1.559096,1.3971162 2.635614,1.3971162 0.222728,0 0.371213,0.1397117 0.371213,0.3492791 0,0.2095674 -0.148485,0.349279 -0.371213,0.349279 -1.150761,0 -2.227279,-0.4889906 -2.969706,-1.3272603 -0.631062,0.8731976 -1.70758,1.3272603 -2.895463,1.3272603 z"/></svg>
