<?xml version="1.0" encoding="UTF-8" ?><svg xmlns="http://www.w3.org/2000/svg" viewBox="0 0 50 50" version="1.1"><g transform="matrix(0.42687136,0,0,0.4286527,21.603233,18.46094)" /><path d="M 4.4140625 4.3710938 C 4.2655765 4.3710938 4.1543211 4.4420907 4.0800781 4.546875 C 3.5232581 5.4200726 2.5198784 5.9433594 1.4433594 5.9433594 C 1.2206314 5.9433594 1.0722656 6.0834013 1.0722656 6.2929688 C 1.0722656 6.5025362 1.2206314 6.6425781 1.4433594 6.6425781 C 2.5941204 6.6425781 3.6716355 6.1527228 4.4140625 5.3144531 C 5.1564885 6.1527228 6.2320515 6.6425781 7.3828125 6.6425781 C 8.5335735 6.6425781 9.6110881 6.1527228 10.353516 5.3144531 C 11.095942 6.1527228 12.171505 6.6425781 13.322266 6.6425781 C 14.473027 6.6425781 15.550542 6.1527228 16.292969 5.3144531 C 17.035395 6.1527228 18.110958 6.6425781 19.261719 6.6425781 C 20.449601 6.6425781 21.52714 6.1527228 22.158203 5.3144531 C 22.80931 6.0496141 23.721188 6.4940128 24.710938 6.5976562 C 24.764298 6.6235732 24.823837 6.6425781 24.894531 6.6425781 C 24.934371 6.6425781 24.972071 6.6320254 25.011719 6.6308594 C 25.050719 6.6319894 25.087769 6.6425781 25.126953 6.6425781 C 25.197653 6.6425781 25.257186 6.6235732 25.310547 6.5976562 C 26.300297 6.4940128 27.212174 6.0496141 27.863281 5.3144531 C 28.605707 6.1527228 29.683223 6.6425781 30.833984 6.6425781 C 31.984744 6.6425781 33.060308 6.1527228 33.802734 5.3144531 C 34.211782 5.7763066 34.728183 6.119033 35.296875 6.3457031 A 8.8483353 28.11954 47.77596 0 1 36.306641 5.890625 C 35.40031 5.7700608 34.580426 5.3008854 34.099609 4.546875 C 33.951123 4.3373075 33.617236 4.3373074 33.46875 4.546875 C 32.911931 5.4200726 31.910502 5.9433594 30.833984 5.9433594 C 29.757465 5.9433594 28.754086 5.4200726 28.197266 4.546875 C 28.123026 4.4420913 27.974645 4.3710937 27.863281 4.3710938 C 27.714797 4.3710938 27.603537 4.4420907 27.529297 4.546875 C 26.99319 5.3875906 26.042379 5.8923918 25.011719 5.9296875 C 23.980301 5.8929775 23.028634 5.3881244 22.492188 4.546875 C 22.417947 4.4420913 22.269567 4.3710937 22.158203 4.3710938 C 22.009717 4.3710938 21.898459 4.4420907 21.824219 4.546875 C 21.267399 5.4200726 20.264018 5.9433594 19.1875 5.9433594 C 18.110982 5.9433594 17.109554 5.4200726 16.552734 4.546875 C 16.404249 4.3373075 16.07036 4.3373074 15.921875 4.546875 C 15.365055 5.4200726 14.361674 5.9433594 13.285156 5.9433594 C 12.208637 5.9433594 11.207211 5.4200726 10.650391 4.546875 C 10.501906 4.3373075 10.168016 4.3373074 10.019531 4.546875 C 9.4627107 5.4200726 8.4593305 5.9433594 7.3828125 5.9433594 C 6.3062935 5.9433594 5.3048669 5.4200726 4.7480469 4.546875 C 4.6738039 4.4420913 4.5254255 4.3710937 4.4140625 4.3710938 z M 45.607422 4.3710938 C 45.458937 4.3710938 45.347677 4.4420907 45.273438 4.546875 C 45.242408 4.5955344 45.205601 4.6390906 45.171875 4.6855469 A 8.8483353 28.11954 47.77596 0 1 45.765625 5.0722656 A 8.8483353 28.11954 47.77596 0 1 46.40625 5.9804688 C 47.042545 6.3965282 47.788027 6.6425781 48.578125 6.6425781 C 48.800845 6.6425781 48.949219 6.5025362 48.949219 6.2929688 C 48.949219 6.0834013 48.800845 5.9433594 48.578125 5.9433594 C 47.501605 5.9433594 46.498226 5.4200726 45.941406 4.546875 C 45.867206 4.4420913 45.718788 4.3710937 45.607422 4.3710938 z M 4.4140625 8.6328125 C 4.2655765 8.6328125 4.1543211 8.7038108 4.0800781 8.8085938 C 3.5232581 9.6817927 2.5198784 10.205078 1.4433594 10.205078 C 1.2206314 10.205078 1.0722656 10.345121 1.0722656 10.554688 C 1.0722656 10.764256 1.2206314 10.904297 1.4433594 10.904297 C 2.5941204 10.904297 3.6716355 10.414442 4.4140625 9.5761719 C 5.1564885 10.414442 6.2320515 10.904297 7.3828125 10.904297 C 8.5335735 10.904297 9.6110881 10.414442 10.353516 9.5761719 C 11.095942 10.414442 12.171505 10.904297 13.322266 10.904297 C 14.473027 10.904297 15.550542 10.414442 16.292969 9.5761719 C 17.035395 10.414442 18.110958 10.904297 19.261719 10.904297 C 20.449601 10.904297 21.52714 10.414442 22.158203 9.5761719 C 22.80931 10.311333 23.721188 10.755732 24.710938 10.859375 C 24.764247 10.885215 24.823946 10.904297 24.894531 10.904297 C 24.934371 10.904297 24.972071 10.893748 25.011719 10.892578 C 25.050719 10.893678 25.087769 10.904297 25.126953 10.904297 C 25.197543 10.904297 25.257238 10.885215 25.310547 10.859375 C 26.300297 10.755732 27.212174 10.311333 27.863281 9.5761719 C 28.079297 9.8200743 28.331355 10.023651 28.597656 10.205078 A 8.8483353 28.11954 47.77596 0 1 29.246094 9.78125 C 28.826084 9.543457 28.458866 9.2188333 28.197266 8.8085938 C 28.123026 8.7038106 27.974645 8.6328125 27.863281 8.6328125 C 27.714797 8.6328125 27.603537 8.7038108 27.529297 8.8085938 C 26.99319 9.6493098 26.042379 10.15411 25.011719 10.191406 C 23.980301 10.154696 23.028634 9.6498438 22.492188 8.8085938 C 22.417947 8.7038106 22.269567 8.6328125 22.158203 8.6328125 C 22.009717 8.6328125 21.898459 8.7038108 21.824219 8.8085938 C 21.267399 9.6817927 20.264018 10.205078 19.1875 10.205078 C 18.110982 10.205078 17.109554 9.6817927 16.552734 8.8085938 C 16.404249 8.5990267 16.07036 8.5990266 15.921875 8.8085938 C 15.365055 9.6817927 14.361674 10.205078 13.285156 10.205078 C 12.208637 10.205078 11.207211 9.6817927 10.650391 8.8085938 C 10.501906 8.5990267 10.168016 8.5990266 10.019531 8.8085938 C 9.4627107 9.6817927 8.4593305 10.205078 7.3828125 10.205078 C 6.3062935 10.205078 5.3048669 9.6817927 4.7480469 8.8085938 C 4.6738069 8.7038106 4.5254255 8.6328125 4.4140625 8.6328125 z M 46.564453 9.484375 A 8.8483353 28.11954 47.77596 0 1 46.390625 10.234375 C 47.02995 10.656481 47.781971 10.904297 48.578125 10.904297 C 48.800845 10.904297 48.949219 10.764256 48.949219 10.554688 C 48.949219 10.345121 48.800845 10.205078 48.578125 10.205078 C 47.82529 10.205078 47.118038 9.9369086 46.564453 9.484375 z M 4.4140625 12.894531 C 4.2655765 12.894531 4.1543211 12.963571 4.0800781 13.068359 C 3.5232581 13.941557 2.5198784 14.466797 1.4433594 14.466797 C 1.2206314 14.466797 1.0722656 14.604885 1.0722656 14.814453 C 1.0722656 15.02402 1.2206314 15.164062 1.4433594 15.164062 C 2.5941204 15.164062 3.6716355 14.676161 4.4140625 13.837891 C 5.1564885 14.676161 6.2320515 15.164062 7.3828125 15.164062 C 8.5335735 15.164062 9.6110881 14.676161 10.353516 13.837891 C 11.095942 14.676161 12.171505 15.164062 13.322266 15.164062 C 14.473027 15.164062 15.550542 14.676161 16.292969 13.837891 C 17.035395 14.676161 18.110958 15.164062 19.261719 15.164062 C 20.449601 15.164062 21.52714 14.676161 22.158203 13.837891 C 22.36951 14.076477 22.616967 14.271915 22.876953 14.447266 A 8.8483353 28.11954 47.77596 0 1 23.457031 13.984375 C 23.073408 13.752968 22.735884 13.450521 22.492188 13.068359 C 22.417948 12.96358 22.269567 12.894531 22.158203 12.894531 C 22.009717 12.894531 21.898459 12.963571 21.824219 13.068359 C 21.267399 13.941557 20.264018 14.466797 19.1875 14.466797 C 18.110982 14.466797 17.109554 13.941557 16.552734 13.068359 C 16.404249 12.858792 16.07036 12.858792 15.921875 13.068359 C 15.365055 13.941557 14.361674 14.466797 13.285156 14.466797 C 12.208637 14.466797 11.207211 13.941557 10.650391 13.068359 C 10.501906 12.858792 10.168016 12.858792 10.019531 13.068359 C 9.4627107 13.941557 8.4593305 14.466797 7.3828125 14.466797 C 6.3062935 14.466797 5.3048669 13.941557 4.7480469 13.068359 C 4.6738069 12.96358 4.5254255 12.894531 4.4140625 12.894531 z M 45.607422 12.894531 C 45.476409 12.894531 45.379834 12.954435 45.306641 13.039062 A 8.8483353 28.11954 47.77596 0 1 44.404297 14.794922 C 44.884356 14.568751 45.29997 14.246294 45.607422 13.837891 C 46.349848 14.676161 47.427365 15.164062 48.578125 15.164062 C 48.800845 15.164062 48.949219 15.02402 48.949219 14.814453 C 48.949219 14.604885 48.800845 14.466797 48.578125 14.466797 C 47.501605 14.466797 46.498226 13.941557 45.941406 13.068359 C 45.867206 12.96358 45.718788 12.894531 45.607422 12.894531 z M 4.4140625 16.705078 C 4.2655765 16.705078 4.1543211 16.776078 4.0800781 16.880859 C 3.5232581 17.754057 2.5198784 18.277344 1.4433594 18.277344 C 1.2206314 18.277344 1.0722656 18.417386 1.0722656 18.626953 C 1.0722656 18.836521 1.2206314 18.976562 1.4433594 18.976562 C 2.5941204 18.976562 3.6716355 18.486708 4.4140625 17.648438 C 5.1564885 18.486708 6.2320515 18.976562 7.3828125 18.976562 C 8.5335735 18.976562 9.6110881 18.486708 10.353516 17.648438 C 11.095942 18.486708 12.171505 18.976562 13.322266 18.976562 C 14.473027 18.976562 15.550542 18.486708 16.292969 17.648438 C 16.744688 18.158472 17.328477 18.520021 17.96875 18.740234 A 8.8483353 28.11954 47.77596 0 1 18.537109 18.197266 C 17.720148 18.031579 16.994508 17.573643 16.552734 16.880859 C 16.404249 16.671292 16.07036 16.671292 15.921875 16.880859 C 15.365055 17.754057 14.361674 18.277344 13.285156 18.277344 C 12.208637 18.277345 11.207211 17.754057 10.650391 16.880859 C 10.501906 16.671292 10.168016 16.671292 10.019531 16.880859 C 9.4627107 17.754057 8.4593305 18.277344 7.3828125 18.277344 C 6.3062935 18.277345 5.3048669 17.754057 4.7480469 16.880859 C 4.6738069 16.77608 4.5254255 16.705078 4.4140625 16.705078 z M 45.607422 16.705078 C 45.458937 16.705078 45.347677 16.776078 45.273438 16.880859 C 44.716619 17.754057 43.71519 18.277344 42.638672 18.277344 C 42.505134 18.277344 42.378621 18.246242 42.248047 18.230469 A 8.8483353 28.11954 47.77596 0 1 41.808594 18.867188 C 42.10247 18.935336 42.403315 18.976562 42.712891 18.976562 C 43.900774 18.976562 44.97636 18.521636 45.607422 17.648438 C 46.349848 18.486708 47.427365 18.976562 48.578125 18.976562 C 48.800845 18.976562 48.949219 18.836521 48.949219 18.626953 C 48.949219 18.417386 48.800845 18.277344 48.578125 18.277344 C 47.501605 18.277345 46.498226 17.754057 45.941406 16.880859 C 45.867206 16.77608 45.718788 16.705078 45.607422 16.705078 z M 4.4140625 21.001953 C 4.2655765 21.001953 4.1543211 21.070993 4.0800781 21.175781 C 3.5232581 22.048979 2.5198784 22.574219 1.4433594 22.574219 C 1.2206314 22.574219 1.0722656 22.712307 1.0722656 22.921875 C 1.0722656 23.131442 1.2206314 23.271484 1.4433594 23.271484 C 2.5941204 23.271484 3.6716355 22.783583 4.4140625 21.945312 C 5.1564885 22.783583 6.2320515 23.271484 7.3828125 23.271484 C 8.5335735 23.271484 9.6110881 22.783583 10.353516 21.945312 C 11.095942 22.783583 12.171505 23.271484 13.322266 23.271484 C 13.390704 23.271484 13.455572 23.253422 13.523438 23.25 A 8.8483353 28.11954 47.77596 0 1 14.318359 22.386719 C 13.988933 22.497377 13.644841 22.574219 13.285156 22.574219 C 12.208637 22.574219 11.207211 22.048979 10.650391 21.175781 C 10.501906 20.966214 10.168016 20.966214 10.019531 21.175781 C 9.4627107 22.048979 8.4593305 22.574219 7.3828125 22.574219 C 6.3062935 22.574219 5.3048669 22.048979 4.7480469 21.175781 C 4.6738069 21.071002 4.5254255 21.001953 4.4140625 21.001953 z M 45.607422 21.001953 C 45.458937 21.001953 45.347677 21.070993 45.273438 21.175781 C 44.716619 22.048979 43.71519 22.574219 42.638672 22.574219 C 41.691418 22.574219 40.802243 22.167177 40.222656 21.474609 A 2.6294105 1.7679987 0 0 1 39.884766 22.074219 C 40.619982 22.825686 41.628453 23.271484 42.712891 23.271484 C 43.900774 23.271484 44.97636 22.783583 45.607422 21.945312 C 46.349848 22.783583 47.427365 23.271484 48.578125 23.271484 C 48.800845 23.271484 48.949219 23.131442 48.949219 22.921875 C 48.949219 22.712307 48.800845 22.574219 48.578125 22.574219 C 47.501605 22.574219 46.498226 22.048979 45.941406 21.175781 C 45.867206 21.071002 45.718788 21.001953 45.607422 21.001953 z M 4.4140625 25.263672 C 4.2655765 25.263672 4.1543211 25.332712 4.0800781 25.4375 C 3.5232581 26.310697 2.5198784 26.833984 1.4433594 26.833984 C 1.2206314 26.833984 1.0722656 26.974028 1.0722656 27.183594 C 1.0722656 27.393162 1.2206314 27.533203 1.4433594 27.533203 C 2.5941204 27.533203 3.6716355 27.043348 4.4140625 26.205078 C 5.1564885 27.043348 6.2320515 27.533203 7.3828125 27.533203 C 8.5335735 27.533203 9.6110881 27.043348 10.353516 26.205078 C 10.457115 26.322052 10.581393 26.414557 10.697266 26.517578 A 8.8483353 28.11954 47.77596 0 1 11.119141 25.994141 C 10.94223 25.828856 10.782307 25.644369 10.650391 25.4375 C 10.501906 25.227932 10.168016 25.227932 10.019531 25.4375 C 9.4627107 26.310697 8.4593305 26.833984 7.3828125 26.833984 C 6.3062935 26.833984 5.3048669 26.310697 4.7480469 25.4375 C 4.6738069 25.33272 4.5254255 25.263672 4.4140625 25.263672 z M 45.607422 25.263672 C 45.458937 25.263672 45.347677 25.332712 45.273438 25.4375 C 44.716619 26.310697 43.71519 26.833984 42.638672 26.833984 C 41.562153 26.833984 40.558773 26.310697 40.001953 25.4375 C 39.853468 25.227932 39.51958 25.227932 39.371094 25.4375 C 38.814275 26.310697 37.812846 26.833984 36.736328 26.833984 C 36.254737 26.833984 35.795837 26.715413 35.376953 26.521484 A 8.8483353 28.11954 47.77596 0 1 34.875 27.03125 C 35.449824 27.344163 36.093433 27.533203 36.773438 27.533203 C 37.924199 27.533203 38.999761 27.043348 39.742188 26.205078 C 40.484614 27.043348 41.56213 27.533203 42.712891 27.533203 C 43.900774 27.533203 44.97636 27.043348 45.607422 26.205078 C 46.349848 27.043348 47.427365 27.533203 48.578125 27.533203 C 48.800845 27.533203 48.949219 27.393163 48.949219 27.183594 C 48.949219 26.974028 48.800845 26.833984 48.578125 26.833984 C 47.501605 26.833984 46.498226 26.310697 45.941406 25.4375 C 45.867206 25.33272 45.718788 25.263672 45.607422 25.263672 z M 4.4140625 29.523438 C 4.2655765 29.523438 4.1543211 29.594437 4.0800781 29.699219 C 3.5232581 30.572417 2.5198784 31.095703 1.4433594 31.095703 C 1.2206314 31.095703 1.0722656 31.235744 1.0722656 31.445312 C 1.0722656 31.654879 1.2206314 31.794922 1.4433594 31.794922 C 2.5941204 31.794922 3.6716355 31.305067 4.4140625 30.466797 C 5.0508047 31.18574 5.9382367 31.62699 6.9023438 31.744141 A 8.8483353 28.11954 47.77596 0 1 7.3359375 31.089844 C 6.277737 31.074526 5.2965734 30.55941 4.7480469 29.699219 C 4.6738069 29.594439 4.5254255 29.523438 4.4140625 29.523438 z M 45.607422 29.523438 C 45.458937 29.523438 45.347677 29.594437 45.273438 29.699219 C 44.716619 30.572417 43.71519 31.095703 42.638672 31.095703 C 41.562153 31.095703 40.558773 30.572416 40.001953 29.699219 C 39.853468 29.489652 39.51958 29.489652 39.371094 29.699219 C 38.814275 30.572417 37.812846 31.095703 36.736328 31.095703 C 35.659809 31.095703 34.656429 30.572416 34.099609 29.699219 C 33.951123 29.489652 33.617236 29.489652 33.46875 29.699219 C 32.911931 30.572417 31.910502 31.095703 30.833984 31.095703 C 30.775851 31.095703 30.721711 31.077243 30.664062 31.074219 A 8.8483353 28.11954 47.77596 0 1 29.951172 31.691406 C 30.238283 31.756293 30.53206 31.794922 30.833984 31.794922 C 31.984744 31.794922 33.060308 31.305067 33.802734 30.466797 C 34.545161 31.305067 35.622676 31.794922 36.773438 31.794922 C 37.924199 31.794922 38.999761 31.305067 39.742188 30.466797 C 40.484614 31.305067 41.56213 31.794922 42.712891 31.794922 C 43.900774 31.794922 44.97636 31.305067 45.607422 30.466797 C 46.349848 31.305067 47.427365 31.794922 48.578125 31.794922 C 48.800845 31.794922 48.949219 31.65488 48.949219 31.445312 C 48.949219 31.235744 48.800845 31.095703 48.578125 31.095703 C 47.501605 31.095703 46.498226 30.572416 45.941406 29.699219 C 45.867206 29.594439 45.718788 29.523438 45.607422 29.523438 z M 4.4140625 33.335938 C 4.2655765 33.335938 4.1543211 33.404988 4.0800781 33.509766 C 3.5232581 34.382964 2.5198784 34.90625 1.4433594 34.90625 C 1.2206314 34.90625 1.0722656 35.046291 1.0722656 35.255859 C 1.0722656 35.465426 1.2206314 35.605469 1.4433594 35.605469 C 2.5941204 35.605469 3.6716355 35.115615 4.4140625 34.277344 C 4.6268716 34.517626 4.8732885 34.71874 5.1347656 34.898438 A 8.8483353 28.11954 47.77596 0 1 5.4648438 34.25 C 5.189391 34.041528 4.9362136 33.804846 4.7480469 33.509766 C 4.6738069 33.404987 4.5254255 33.335938 4.4140625 33.335938 z M 45.607422 33.335938 C 45.458937 33.335938 45.347677 33.404988 45.273438 33.509766 C 44.716619 34.382964 43.71519 34.90625 42.638672 34.90625 C 41.562153 34.90625 40.558773 34.382964 40.001953 33.509766 C 39.853468 33.300199 39.51958 33.300199 39.371094 33.509766 C 38.814275 34.382964 37.812846 34.90625 36.736328 34.90625 C 35.659809 34.90625 34.656429 34.382964 34.099609 33.509766 C 33.951123 33.300199 33.617236 33.300199 33.46875 33.509766 C 32.911931 34.382964 31.910502 34.90625 30.833984 34.90625 C 30.17769 34.90625 29.564191 34.69149 29.046875 34.341797 A 2.6294105 1.7679987 0 0 1 28.667969 34.947266 C 29.30303 35.360898 30.046328 35.605469 30.833984 35.605469 C 31.984744 35.605469 33.060308 35.115615 33.802734 34.277344 C 34.545161 35.115615 35.622676 35.605469 36.773438 35.605469 C 37.924199 35.605469 38.999761 35.115615 39.742188 34.277344 C 40.484614 35.115615 41.56213 35.605469 42.712891 35.605469 C 43.900774 35.605469 44.97636 35.150543 45.607422 34.277344 C 46.349848 35.115615 47.427365 35.605469 48.578125 35.605469 C 48.800845 35.605469 48.949219 35.465426 48.949219 35.255859 C 48.949219 35.046291 48.800845 34.90625 48.578125 34.90625 C 47.501605 34.90625 46.498226 34.382964 45.941406 33.509766 C 45.867206 33.404987 45.718788 33.335938 45.607422 33.335938 z M 25.271484 35.539062 A 8.8483353 28.11954 47.77596 0 1 25.208984 35.585938 C 25.243175 35.577878 25.280992 35.574898 25.310547 35.560547 C 25.316581 35.559915 25.322097 35.557298 25.328125 35.556641 A 2.6294105 1.7679987 0 0 1 25.271484 35.539062 z M 27.863281 37.630859 C 27.714797 37.630859 27.603537 37.70186 27.529297 37.806641 C 26.99319 38.647356 26.042379 39.152157 25.011719 39.189453 C 24.372778 39.166712 23.779231 38.946427 23.28125 38.595703 A 2.8751805 1.7141471 0 0 1 23.361328 38.988281 A 2.8751805 1.7141471 0 0 1 23.263672 39.425781 C 23.709249 39.655496 24.198105 39.803719 24.710938 39.857422 C 24.764247 39.883262 24.823946 39.902344 24.894531 39.902344 C 24.934371 39.902344 24.972071 39.891795 25.011719 39.890625 C 25.050719 39.891725 25.087769 39.902344 25.126953 39.902344 C 25.197543 39.902344 25.257238 39.883262 25.310547 39.857422 C 26.300297 39.753778 27.212174 39.309379 27.863281 38.574219 C 28.605707 39.412488 29.683223 39.902344 30.833984 39.902344 C 31.984744 39.902345 33.060308 39.412487 33.802734 38.574219 C 34.545161 39.412488 35.622676 39.902344 36.773438 39.902344 C 37.924199 39.902345 38.999761 39.412487 39.742188 38.574219 C 40.484614 39.412488 41.56213 39.902344 42.712891 39.902344 C 43.900774 39.902345 44.97636 39.412487 45.607422 38.574219 C 46.349848 39.412488 47.427365 39.902344 48.578125 39.902344 C 48.800845 39.902345 48.949219 39.762301 48.949219 39.552734 C 48.949219 39.343167 48.800845 39.203125 48.578125 39.203125 C 47.501605 39.203125 46.498226 38.679838 45.941406 37.806641 C 45.867206 37.701861 45.718788 37.630859 45.607422 37.630859 C 45.458937 37.630859 45.347677 37.70186 45.273438 37.806641 C 44.716619 38.679838 43.71519 39.203125 42.638672 39.203125 C 41.562153 39.203125 40.558773 38.679838 40.001953 37.806641 C 39.853468 37.597073 39.51958 37.597073 39.371094 37.806641 C 38.814275 38.679838 37.812846 39.203125 36.736328 39.203125 C 35.659809 39.203125 34.656429 38.679838 34.099609 37.806641 C 33.951123 37.597073 33.617236 37.597073 33.46875 37.806641 C 32.911931 38.679838 31.910502 39.203125 30.833984 39.203125 C 29.757465 39.203125 28.754086 38.679838 28.197266 37.806641 C 28.123026 37.701861 27.974645 37.630859 27.863281 37.630859 z M 3.8828125 38.076172 C 3.3039531 38.785428 2.4033073 39.203125 1.4433594 39.203125 C 1.2206314 39.203125 1.0722656 39.343167 1.0722656 39.552734 C 1.0722656 39.762301 1.2206314 39.902344 1.4433594 39.902344 C 2.2351169 39.902344 2.9839656 39.655993 3.6210938 39.238281 A 8.8483353 28.11954 47.77596 0 1 3.8828125 38.076172 z M 22.158203 41.892578 C 22.009717 41.892578 21.898459 41.961618 21.824219 42.066406 C 21.267399 42.939604 20.264018 43.464844 19.1875 43.464844 C 18.110982 43.464845 17.109554 42.939604 16.552734 42.066406 C 16.404249 41.856839 16.07036 41.856839 15.921875 42.066406 C 15.625813 42.530687 15.199453 42.888014 14.707031 43.128906 A 2.6294105 1.7679987 0 0 1 14.726562 43.333984 A 2.6294105 1.7679987 0 0 1 14.564453 43.943359 C 15.226331 43.726743 15.828952 43.359856 16.292969 42.835938 C 17.035395 43.674208 18.110958 44.162109 19.261719 44.162109 C 20.449601 44.162109 21.52714 43.674207 22.158203 42.835938 C 22.808908 43.570645 23.719944 44.015115 24.708984 44.119141 C 24.762614 44.145451 24.823273 44.162109 24.894531 44.162109 C 24.934381 44.162109 24.972061 44.151561 25.011719 44.150391 C 25.050729 44.151491 25.087759 44.162109 25.126953 44.162109 C 25.198213 44.162109 25.258872 44.145451 25.3125 44.119141 C 26.30154 44.015115 27.212576 43.570646 27.863281 42.835938 C 28.605707 43.674208 29.683223 44.162109 30.833984 44.162109 C 31.984744 44.162109 33.060308 43.674207 33.802734 42.835938 C 34.545161 43.674208 35.622676 44.162109 36.773438 44.162109 C 37.924199 44.162109 38.999761 43.674207 39.742188 42.835938 C 40.484614 43.674208 41.56213 44.162109 42.712891 44.162109 C 43.900774 44.162109 44.97636 43.674207 45.607422 42.835938 C 46.349848 43.674208 47.427365 44.162109 48.578125 44.162109 C 48.800845 44.162109 48.949219 44.024021 48.949219 43.814453 C 48.949219 43.604886 48.800845 43.464844 48.578125 43.464844 C 47.501605 43.464845 46.498226 42.939604 45.941406 42.066406 C 45.867206 41.961627 45.718788 41.892578 45.607422 41.892578 C 45.458937 41.892578 45.347677 41.961618 45.273438 42.066406 C 44.716619 42.939604 43.71519 43.464844 42.638672 43.464844 C 41.562153 43.464845 40.558773 42.939604 40.001953 42.066406 C 39.853468 41.856839 39.51958 41.856839 39.371094 42.066406 C 38.814275 42.939604 37.812846 43.464844 36.736328 43.464844 C 35.659809 43.464845 34.656429 42.939604 34.099609 42.066406 C 33.951123 41.856839 33.617236 41.856839 33.46875 42.066406 C 32.911931 42.939604 31.910502 43.464844 30.833984 43.464844 C 29.757465 43.464845 28.754086 42.939604 28.197266 42.066406 C 28.123026 41.961627 27.974645 41.892578 27.863281 41.892578 C 27.714797 41.892578 27.603537 41.961618 27.529297 42.066406 C 26.99319 42.907122 26.042379 43.413876 25.011719 43.451172 C 23.980301 43.414462 23.028635 42.907656 22.492188 42.066406 C 22.417948 41.961627 22.269567 41.892578 22.158203 41.892578 z M 3.8632812 42.361328 C 3.2837647 43.055922 2.3921298 43.464844 1.4433594 43.464844 C 1.2206314 43.464844 1.0722656 43.604886 1.0722656 43.814453 C 1.0722656 44.024021 1.2206314 44.162109 1.4433594 44.162109 C 2.4316334 44.162109 3.3520257 43.784923 4.0664062 43.152344 A 2.6428716 1.7065544 0 0 1 3.9121094 42.583984 A 2.6428716 1.7065544 0 0 1 3.9179688 42.488281 A 8.8483353 28.11954 47.77596 0 1 3.8632812 42.361328 z M 4.4140625 46.154297 C 4.2655765 46.154297 4.1543211 46.223337 4.0800781 46.328125 C 3.5232581 47.201322 2.5198784 47.724609 1.4433594 47.724609 C 1.2206314 47.724609 1.0722656 47.864651 1.0722656 48.074219 C 1.0722656 48.283785 1.2206314 48.423828 1.4433594 48.423828 C 2.5941204 48.423828 3.6716355 47.935926 4.4140625 47.097656 C 5.1564885 47.935926 6.2320515 48.423828 7.3828125 48.423828 C 8.5335735 48.423828 9.6110881 47.935926 10.353516 47.097656 C 11.095942 47.935926 12.171505 48.423828 13.322266 48.423828 C 14.473027 48.423828 15.550542 47.935926 16.292969 47.097656 C 17.035395 47.935926 18.110958 48.423828 19.261719 48.423828 C 20.449601 48.423828 21.52714 47.935926 22.158203 47.097656 C 22.80931 47.832817 23.721188 48.275263 24.710938 48.378906 C 24.764298 48.404826 24.823837 48.423828 24.894531 48.423828 C 24.934371 48.423828 24.972071 48.413279 25.011719 48.412109 C 25.050719 48.413209 25.087769 48.423828 25.126953 48.423828 C 25.197653 48.423828 25.257186 48.404826 25.310547 48.378906 C 26.300297 48.275263 27.212174 47.832817 27.863281 47.097656 C 28.605707 47.935926 29.683223 48.423828 30.833984 48.423828 C 31.984744 48.423828 33.060308 47.935926 33.802734 47.097656 C 34.545161 47.935926 35.622676 48.423828 36.773438 48.423828 C 37.924199 48.423828 38.999761 47.935926 39.742188 47.097656 C 40.484614 47.935926 41.56213 48.423828 42.712891 48.423828 C 43.900774 48.423828 44.97636 47.935926 45.607422 47.097656 C 46.349848 47.935926 47.427365 48.423828 48.578125 48.423828 C 48.800845 48.423828 48.949219 48.283785 48.949219 48.074219 C 48.949219 47.86465 48.800845 47.724609 48.578125 47.724609 C 47.501605 47.724609 46.498226 47.201322 45.941406 46.328125 C 45.867206 46.223345 45.718788 46.154297 45.607422 46.154297 C 45.458937 46.154297 45.347677 46.223337 45.273438 46.328125 C 44.716619 47.201322 43.71519 47.724609 42.638672 47.724609 C 41.562153 47.724609 40.558773 47.201322 40.001953 46.328125 C 39.853468 46.118557 39.51958 46.118557 39.371094 46.328125 C 38.814275 47.201322 37.812846 47.724609 36.736328 47.724609 C 35.659809 47.724609 34.656429 47.201322 34.099609 46.328125 C 33.951123 46.118557 33.617236 46.118557 33.46875 46.328125 C 32.911931 47.201322 31.910502 47.724609 30.833984 47.724609 C 29.757465 47.724609 28.754086 47.201322 28.197266 46.328125 C 28.123026 46.223345 27.974645 46.154297 27.863281 46.154297 C 27.714797 46.154297 27.603537 46.223337 27.529297 46.328125 C 26.993196 47.16883 26.042365 47.673631 25.011719 47.710938 C 23.980314 47.674217 23.028628 47.169364 22.492188 46.328125 C 22.417948 46.223345 22.269567 46.154297 22.158203 46.154297 C 22.009717 46.154297 21.898459 46.223337 21.824219 46.328125 C 21.267399 47.201322 20.264018 47.724609 19.1875 47.724609 C 18.110982 47.724609 17.109554 47.201322 16.552734 46.328125 C 16.404249 46.118557 16.07036 46.118557 15.921875 46.328125 C 15.365055 47.201322 14.361674 47.724609 13.285156 47.724609 C 12.208637 47.724609 11.207211 47.201322 10.650391 46.328125 C 10.501906 46.118557 10.168016 46.118557 10.019531 46.328125 C 9.4627107 47.201322 8.4593305 47.724609 7.3828125 47.724609 C 6.3062935 47.724609 5.3048669 47.201322 4.7480469 46.328125 C 4.6738069 46.223345 4.5254255 46.154297 4.4140625 46.154297 z "/><path d="m 19.187753,3.1703075 c -1.150761,0 -2.22728,-0.4889906 -2.969706,-1.3272603 -0.742427,0.8382697 -1.818945,1.3272603 -2.969706,1.3272603 -1.150761,0 -2.227279,-0.4889906 -2.969705,-1.3272603 -0.7424269,0.8382697 -1.8189452,1.3272603 -2.9697062,1.3272603 -1.1507609,0 -2.2272792,-0.4889906 -2.9697056,-1.3272603 -0.7424265,0.8382697 -1.8189448,1.3272603 -2.9697057,1.3272603 0,0 0,0 0,0 -0.222728,0 -0.37121323,-0.1397116 -0.37121323,-0.349279 0,-0.2095674 0.14848523,-0.3492791 0.37121323,-0.3492791 v 0 c 0,0 0,0 0,0 1.0765183,0 2.078794,-0.5239185 2.6356138,-1.3971162 0.074243,-0.10478367 0.1856066,-0.17463948 0.3340919,-0.17463948 v 0 c 0.1113639,0 0.2598492,0.0698558 0.3340918,0.17463948 0.5568199,0.8731977 1.5590955,1.3971162 2.6356138,1.3971162 1.0765183,0 2.078794,-0.5239185 2.6356138,-1.3971162 0.1484854,-0.20956738 0.4825774,-0.20956738 0.6310624,0 0.55682,0.8731977 1.559096,1.3971162 2.635614,1.3971162 1.076518,0 2.078794,-0.5239185 2.635614,-1.3971162 0.148485,-0.20956738 0.482577,-0.20956738 0.631062,0 0.55682,0.8731977 1.559096,1.3971162 2.635614,1.3971162 1.076518,0 2.078794,-0.5239185 2.635614,-1.3971162 0.07424,-0.10478367 0.185606,-0.17463948 0.334092,-0.17463948 v 0 c 0.111364,0 0.259849,0.0698558 0.334091,0.17463948 0.55682,0.8731977 1.559096,1.3971162 2.635614,1.3971162 0.222728,0 0.371213,0.1397117 0.371213,0.3492791 0,0.2095674 -0.148485,0.349279 -0.371213,0.349279 -1.150761,0 -2.227279,-0.4889906 -2.969705,-1.3272603 -0.631063,0.8731976 -1.707581,1.3272603 -2.895463,1.3272603 z"/><path d="m 42.638198,3.1703075 c -1.150761,0 -2.227279,-0.4889906 -2.969705,-1.3272603 -0.742427,0.8382697 -1.818945,1.3272603 -2.969706,1.3272603 -1.150761,0 -2.227279,-0.4889906 -2.969706,-1.3272603 -0.742426,0.8382697 -1.818945,1.3272603 -2.969705,1.3272603 -1.150761,0 -2.22728,-0.4889906 -2.969706,-1.3272603 -0.742427,0.8382697 -1.818945,1.3272603 -2.969706,1.3272603 0,0 0,0 0,0 -0.222728,0 -0.371213,-0.1397116 -0.371213,-0.349279 0,-0.2095674 0.148485,-0.3492791 0.371213,-0.3492791 v 0 c 0,0 0,0 0,0 1.076518,0 2.078794,-0.5239185 2.635614,-1.3971162 0.07424,-0.10478367 0.185607,-0.17463948 0.334092,-0.17463948 v 0 c 0.111364,0 0.259849,0.0698558 0.334092,0.17463948 0.55682,0.8731977 1.559095,1.3971162 2.635614,1.3971162 1.076518,0 2.078794,-0.5239185 2.635613,-1.3971162 0.148486,-0.20956738 0.482577,-0.20956738 0.631063,0 0.55682,0.8731977 1.559095,1.3971162 2.635614,1.3971162 1.076518,0 2.078794,-0.5239185 2.635613,-1.3971162 0.148486,-0.20956738 0.482578,-0.20956738 0.631063,0 0.55682,0.8731977 1.559095,1.3971162 2.635614,1.3971162 1.076518,0 2.078794,-0.5239185 2.635613,-1.3971162 0.07424,-0.10478367 0.185607,-0.17463948 0.334092,-0.17463948 v 0 c 0.111364,0 0.25985,0.0698558 0.334092,0.17463948 0.55682,0.8731977 1.559096,1.3971162 2.635614,1.3971162 0.222728,0 0.371213,0.1397117 0.371213,0.3492791 0,0.2095674 -0.148485,0.349279 -0.371213,0.349279 -1.150761,0 -2.227279,-0.4889906 -2.969706,-1.3272603 -0.631062,0.8731976 -1.70758,1.3272603 -2.895463,1.3272603 z"/><g transform="matrix(0.51698671,0,0,0.51622419,4.4262458,3.8203758)"><g><polygon points="12.9,71.4 7.6,66.1 19.3,54.4 20.7,55.8 10.4,66.1 12.9,68.6 23.2,58.3 24.6,59.7 " /></g><g><path d="m 29,61.6 c -1.7,0 -3.4,-0.7 -4.6,-1.9 l -5.1,-5.1 c -2.5,-2.5 -2.5,-6.6 0,-9.2 L 20,44.7 34.3,59 33.6,59.7 c -1.2,1.2 -2.8,1.9 -4.6,1.9 z m -8.9,-14 c -1.1,1.7 -0.9,4.1 0.6,5.6 l 5.1,5.1 c 0.8,0.8 2,1.3 3.2,1.3 0.9,0 1.7,-0.2 2.4,-0.7 z"/></g><g><path d="m 12.3,74.8 c -0.8,0 -1.5,-0.3 -2,-0.8 L 5.1,68.8 c -0.5,-0.5 -0.8,-1.2 -0.8,-2 0,-0.8 0.3,-1.5 0.8,-2 1.1,-1.1 2.9,-1.1 4,0 l 5.2,5.2 c 1.1,1.1 1.1,2.9 0,4 -0.5,0.5 -1.2,0.8 -2,0.8 z M 7.1,65.9 c -0.2,0 -0.4,0.1 -0.6,0.2 -0.2,0.2 -0.2,0.4 -0.2,0.6 0,0.2 0.1,0.4 0.2,0.6 l 5.2,5.2 c 0.3,0.3 0.9,0.3 1.2,0 0.3,-0.3 0.3,-0.8 0,-1.2 L 7.7,66.1 C 7.5,66 7.3,65.9 7.1,65.9 Z"/></g><g><polygon points="72,7 72,18.4 31.7,58.7 30.3,57.3 70,17.6 70,9 62.4,9 23.3,49.4 21.9,48 61.6,7 " /></g><g><rect height="51.599998" width="2" transform="matrix(0.7168,0.6973,-0.6973,0.7168,35.9716,-23.568)" y="6.6999998" x="46" /></g><g><rect height="7" width="2" y="61" x="13" /></g><g><rect height="7" width="2" y="57" x="17"/></g></g></svg>
