<?xml version="1.0" encoding="UTF-8"?><svg xmlns="http://www.w3.org/2000/svg" viewBox="0 0 50 50" version="1.1"><g transform="translate(0,-247)"><path d="m 37.124409,277.96596 c -2.203896,0 -4.265605,-0.68467 -5.687473,-1.85838 -1.421869,1.17371 -3.483578,1.85838 -5.687473,1.85838 -2.203896,0 -4.265605,-0.68467 -5.687474,-1.85838 -1.421868,1.17371 -3.483577,1.85838 -5.687473,1.85838 -2.203896,0 -4.265605,-0.68467 -5.6874733,-1.85838 -1.4218683,1.17371 -3.4835774,1.85838 -5.6874733,1.85838 0,0 0,0 0,0 -0.4265605,0 -0.7109342,-0.19562 -0.7109342,-0.48905 0,-0.29343 0.2843737,-0.48905 0.7109342,-0.48905 v 0 c 0,0 0,0 0,0 2.0617091,0 3.9812313,-0.73357 5.0476325,-1.95619 0.1421869,-0.14671 0.3554671,-0.24452 0.6398408,-0.24452 v 0 c 0.2132802,0 0.4976539,0.0978 0.6398407,0.24452 1.0664016,1.22262 2.9859236,1.95619 5.0476326,1.95619 2.061709,0 3.981231,-0.73357 5.047632,-1.95619 0.284374,-0.29343 0.924215,-0.29343 1.208589,0 1.066401,1.22262 2.985923,1.95619 5.047632,1.95619 2.061709,0 3.981231,-0.73357 5.047633,-1.95619 0.284373,-0.29343 0.924214,-0.29343 1.208588,0 1.066401,1.22262 2.985923,1.95619 5.047632,1.95619 2.061709,0 3.981232,-0.73357 5.047633,-1.95619 0.142187,-0.14671 0.355467,-0.24452 0.639841,-0.24452 v 0 c 0.21328,0 0.497653,0.0978 0.63984,0.24452 1.066402,1.22262 2.985924,1.95619 5.047633,1.95619 0.42656,0 0.710934,0.19562 0.710934,0.48905 0,0.29343 -0.284374,0.48905 -0.710934,0.48905 -2.203896,0 -4.265605,-0.68467 -5.687473,-1.85838 -1.208589,1.22261 -3.270298,1.85838 -5.545287,1.85838 z"/><path d="M 32.832031 127.75781 C 31.757233 127.75781 30.951462 128.12715 30.414062 128.68164 C 26.38357 133.30257 19.130177 136.07422 11.337891 136.07422 C 9.7256935 136.07422 8.6503906 136.8148 8.6503906 137.92383 C 8.6503906 139.03285 9.7256935 139.77148 11.337891 139.77148 C 19.667576 139.77148 27.458041 137.18412 32.832031 132.74805 C 38.206022 137.18412 45.998439 139.77148 54.328125 139.77148 C 56.12854 139.77148 57.901603 139.64448 59.632812 139.41016 A 39.031487 27.157444 0 0 1 61.830078 135.18164 C 59.454121 135.76215 56.922363 136.07422 54.328125 136.07422 C 46.535839 136.07422 39.282447 133.30257 35.251953 128.68164 C 34.714554 128.12711 33.63813 127.75781 32.832031 127.75781 z M 161.27148 127.75781 C 160.19669 127.75781 159.39092 128.12715 158.85352 128.68164 C 154.82302 133.30257 147.56768 136.07422 139.77539 136.07422 C 137.43722 136.07422 135.14927 135.82195 132.98047 135.34766 A 39.031487 27.157444 0 0 1 135.02148 139.41211 C 136.74869 139.64531 138.51647 139.77148 140.3125 139.77148 C 148.91088 139.77148 156.70359 137.18412 161.27148 132.74805 C 166.64547 137.18412 174.43789 139.77148 182.76758 139.77148 C 184.37977 139.77148 185.45508 139.03285 185.45508 137.92383 C 185.45508 136.8148 184.37977 136.07422 182.76758 136.07422 C 174.97529 136.07422 167.71995 133.30257 163.68945 128.68164 C 163.15205 128.12711 162.07758 127.75781 161.27148 127.75781 z " transform="matrix(0.26458333,0,0,0.26458333,0,247)"/><path d="M 32.832031 150.30664 C 31.757233 150.30664 30.951462 150.67793 30.414062 151.23242 C 26.38357 155.85335 19.130177 158.625 11.337891 158.625 C 9.7256935 158.625 8.6503906 159.36363 8.6503906 160.47266 C 8.6503906 161.58168 9.7256935 162.32227 11.337891 162.32227 C 19.667576 162.32227 27.458041 159.7349 32.832031 155.29883 C 38.206022 159.7349 45.998439 162.32227 54.328125 162.32227 C 57.860085 162.32227 61.292956 161.85266 64.488281 160.97852 A 39.031487 27.157444 0 0 1 61.921875 157.70898 C 59.519346 158.30416 56.955939 158.625 54.328125 158.625 C 46.535839 158.625 39.282447 155.85335 35.251953 151.23242 C 34.714554 150.67789 33.63813 150.30664 32.832031 150.30664 z M 161.27148 150.30664 C 160.19669 150.30664 159.39092 150.67793 158.85352 151.23242 C 154.82302 155.85335 147.56768 158.625 139.77539 158.625 C 137.32821 158.625 134.93372 158.35226 132.67578 157.83398 A 39.031487 27.157444 0 0 1 130.22266 160.99609 C 133.39821 161.85798 136.80622 162.32227 140.3125 162.32227 C 148.91088 162.32227 156.70359 159.7349 161.27148 155.29883 C 166.64547 159.7349 174.43789 162.32227 182.76758 162.32227 C 184.37977 162.32227 185.45508 161.58168 185.45508 160.47266 C 185.45508 159.36363 184.37977 158.625 182.76758 158.625 C 174.97529 158.625 167.71995 155.85335 163.68945 151.23242 C 163.15205 150.67789 162.07758 150.30664 161.27148 150.30664 z " transform="matrix(0.26458333,0,0,0.26458333,0,247)"/><path d="m 37.124409,295.91399 c -2.203896,0 -4.265605,-0.68466 -5.687473,-1.85838 -1.421869,1.17372 -3.483578,1.85838 -5.687473,1.85838 -2.203896,0 -4.265605,-0.68466 -5.687474,-1.85838 -1.421868,1.17372 -3.483577,1.85838 -5.687473,1.85838 -2.203896,0 -4.265605,-0.68466 -5.6874733,-1.85838 -1.4218683,1.17372 -3.4835774,1.85838 -5.6874733,1.85838 0,0 0,0 0,0 -0.4265605,0 -0.7109342,-0.19562 -0.7109342,-0.48904 0,-0.29343 0.2843737,-0.48905 0.7109342,-0.48905 v 0 c 0,0 0,0 0,0 2.0617091,0 3.9812313,-0.73357 5.0476325,-1.95619 0.1421869,-0.14672 0.3554671,-0.24452 0.6398408,-0.24452 v 0 c 0.2132802,0 0.4976539,0.0978 0.6398407,0.24452 1.0664016,1.22262 2.9859236,1.95619 5.0476326,1.95619 2.061709,0 3.981231,-0.73357 5.047632,-1.95619 0.284374,-0.29343 0.924215,-0.29343 1.208589,0 1.066401,1.22262 2.985923,1.95619 5.047632,1.95619 2.061709,0 3.981231,-0.73357 5.047633,-1.95619 0.284373,-0.29343 0.924214,-0.29343 1.208588,0 1.066401,1.22262 2.985923,1.95619 5.047632,1.95619 2.061709,0 3.981232,-0.73357 5.047633,-1.95619 0.142187,-0.14672 0.355467,-0.24452 0.639841,-0.24452 v 0 c 0.21328,0 0.497653,0.0978 0.63984,0.24452 1.066402,1.22262 2.985924,1.95619 5.047633,1.95619 0.42656,0 0.710934,0.19562 0.710934,0.48905 0,0.29342 -0.284374,0.48904 -0.710934,0.48904 -2.203896,0 -4.265605,-0.68466 -5.687473,-1.85838 -1.208589,1.17372 -3.270298,1.85838 -5.545287,1.85838 z"/></g><g transform="translate(0,-247)"><path d="m 46.862524,258.71627 -0.428501,0.19807 c -0.181294,0.0841 -0.346977,0.0519 -0.430111,0.0255 -0.08219,-0.027 -0.233447,-0.0969 -0.317125,-0.26702 l -3.521872,-7.14743 c -0.01611,-0.0323 -0.01813,-0.0665 -0.02558,-0.0998 0.002,-0.0225 0.01007,-0.0436 0.01007,-0.066 0.002,-0.0547 -0.004,-0.10758 -0.01007,-0.16044 0.03686,-0.13789 0.129525,-0.26114 0.278207,-0.3301 l 2.786379,-1.28913 c 0.525513,-0.24306 0.737104,-0.83137 0.472212,-1.31358 -0.265416,-0.4827 -0.906051,-0.67733 -1.432107,-0.43281 l -2.78638,1.28912 c -0.57561,0.26654 -0.992387,0.69983 -1.234899,1.20111 -4.47804,-0.0904 -9.36326,0.37951 -14.925897,1.44759 -0.781338,0.15988 -1.578133,0.31836 -2.386653,0.47926 -2.585452,0.51399 -5.291353,1.05536 -7.986066,1.73954 -0.03731,-0.006 -0.07355,-0.0148 -0.111919,-0.0166 -1.184266,-0.0684 -2.290717,-0.23034 -3.360928,-0.38683 -1.059017,-0.15452 -2.1542766,-0.31496 -3.3268164,-0.38636 -0.9524217,-0.0586 -2.1377548,-0.0847 -3.333746,-0.0743 -0.132184,-0.006 -0.3672185,-0.0381 -0.5825383,-0.0719 -0.6992618,-0.11201 -1.655948,-0.26457 -2.4079726,0.22595 -0.3474976,0.22692 -0.5606861,0.58588 -0.599594,1.01037 -0.051709,0.56778 0.2238486,1.26761 0.6555577,1.66374 0.9444266,0.86708 2.0322252,1.25245 3.0843127,1.62462 0.00107,4.8e-4 0.00222,9.8e-4 0.00322,9.8e-4 -1.416643,0.72622 -2.7762567,1.5488 -4.04739663,2.50099 -0.45569238,0.34184 -0.52391157,0.95755 -0.151361,1.37618 0.01813,0.0205 0.041033,0.0357 0.060754,0.0543 0.083678,0.2592 0.27874473,0.48661 0.56655013,0.60986 1.3377616,0.57316 2.7917111,0.85437 4.2461943,0.85437 2.1899859,0 4.3821021,-0.63725 6.1728911,-1.87209 l 0.229179,-0.16043 c 0.348565,-0.24648 0.709388,-0.50176 0.982803,-0.5316 0.580407,-0.063 1.073939,-0.11385 1.270608,-0.10018 0.846892,0.0111 1.642621,-10e-4 2.411169,-0.0333 -0.192394,0.17172 -0.378412,0.36141 -0.530841,0.59616 -0.518049,0.79862 -0.579343,1.85398 -0.172673,2.97145 0.151905,0.41716 0.639034,2.06182 1.030769,3.38372 0.243568,0.82112 0.465819,1.57179 0.592133,1.97771 0.704056,2.26575 2.593978,3.89183 4.112418,5.19857 0.01168,0.0111 0.02558,0.0166 0.03731,0.0264 -0.208926,0.33841 -0.335774,0.7321 -0.335774,1.15707 0,1.0143 0.689667,1.86279 1.626101,2.1347 5.31e-4,0.009 0.0016,0.0185 0.0022,0.0264 0.04903,0.5986 0.09061,1.11503 -0.0097,1.78259 -0.106057,0.70913 -0.466884,1.34683 -1.242894,2.19974 -0.955087,1.04313 -1.580797,2.07454 -2.048213,3.37932 -1.073941,0.47974 -1.815839,1.4735 -1.815839,2.62276 v 1.24609 c 0,0.53991 0.477544,0.97808 1.065946,0.97808 h 6.606732 6.607264 c 0.588404,0 1.065954,-0.43817 1.065954,-0.97808 v -1.24609 c 0,-1.14926 -0.742442,-2.1435 -1.816913,-2.62326 -0.466351,-1.30184 -1.089928,-2.33275 -2.042884,-3.37882 -0.780272,-0.85095 -1.141629,-1.48818 -1.24769,-2.19534 -0.09699,-0.6656 -0.05489,-1.18105 -0.0058,-1.77769 0.0011,-0.0111 0.0022,-0.0244 0.0026,-0.0366 0.933768,-0.27339 1.621304,-1.1209 1.621304,-2.13371 0,-0.48465 -0.160425,-0.93018 -0.425845,-1.29647 0.534038,-0.43769 1.112848,-0.82112 1.740689,-1.13116 0.02452,-0.0129 0.04478,-0.0285 0.06768,-0.0421 0.01128,-0.007 0.02399,-0.009 0.03517,-0.0148 l 0.491399,-0.31398 c 1.620777,-1.03531 2.79172,-1.78307 4.497219,-2.67067 0.236107,-0.12366 0.447698,-0.29539 0.611326,-0.49786 1.632499,-2.02563 2.718172,-2.90054 4.689631,-4.48897 l 0.704592,-0.56632 c 0.679533,-0.54333 1.382534,-1.10475 1.984795,-1.80654 0.377335,-0.44063 0.858612,-1.16783 1.198116,-1.95326 0.265416,0.0773 0.536713,0.12125 0.807447,0.12125 0.41307,0 0.823984,-0.0889 1.205589,-0.26555 l 0.427453,-0.19806 c 0.525513,-0.24306 0.737104,-0.83139 0.472212,-1.31357 -0.265415,-0.48271 -0.905527,-0.67784 -1.431563,-0.43332 z M 6.7019567,256.11846 c -0.3352401,-0.13308 -0.6667496,-0.25088 -0.9923952,-0.36581 -0.6699464,-0.23718 -1.2738049,-0.45091 -1.7827939,-0.759 0.2931355,0.047 0.5910671,0.0915 0.8842026,0.088 1.1480226,-0.009 2.2731276,0.0148 3.1727866,0.0704 0.7520246,0.046 1.4672746,0.13197 2.1910512,0.2323 -0.909785,0.31103 -1.8078425,0.64946 -2.6909795,1.01771 -0.2510307,-0.0743 -0.5111202,-0.17596 -0.7818718,-0.28365 z M 25.256342,273.3163 c -0.442901,-0.0919 -0.811185,-0.35457 -0.994528,-0.71842 0.146567,-0.42498 0.267019,-0.87783 0.369883,-1.45393 0.244102,-0.16044 0.632638,-0.32034 1.083534,-0.37267 -0.391735,0.79765 -0.493532,1.70631 -0.458889,2.54502 z m -1.577066,2.55136 c -0.02772,-0.009 -0.128982,-0.10018 -0.128982,-0.27877 0,-0.16728 0.0922,-0.2675 0.12312,-0.27825 h 1.911241 c 0.0052,0 0.01007,9.8e-4 0.01591,9.8e-4 0.0042,0 0.0085,-9.8e-4 0.01269,-9.8e-4 h 0.48927 c 0.03358,0.0111 0.06343,0.0283 0.0986,0.0362 0.183349,0.0392 0.34057,0.0392 0.432774,0.0392 0.145499,0 0.283007,-0.0268 0.40719,-0.0752 h 0.224383 c 0.10926,0.0464 0.223848,0.0749 0.341102,0.0856 0.02665,0.0469 0.04851,0.11201 0.04851,0.19317 0,0.17893 -0.101263,0.27044 -0.123119,0.27827 h -1.929361 z m 3.726013,-7.2868 c -0.10926,0.12809 -0.224916,0.25332 -0.340038,0.37901 -0.100196,-0.0494 -0.207859,-0.0891 -0.32618,-0.10702 -0.788799,-0.12274 -1.560011,-0.0264 -2.23209,0.18779 -0.180671,-0.56484 -0.504725,-1.20893 -1.035566,-2.20364 -0.04051,-0.0758 -0.08847,-0.14769 -0.15402,-0.23866 -0.04317,-0.20539 -0.107125,-0.44064 -0.176943,-0.692 -0.111396,-0.40298 -0.407192,-1.4735 -0.23131,-1.7014 1.878729,-1.31994 4.061785,-1.6515 7.297997,-1.11063 0.228644,0.0386 0.315521,0.12865 0.662485,0.68859 l 0.07089,0.11386 c 0.0501,0.0802 0.166811,0.2675 0.184417,0.37363 0.05544,0.33158 -0.17642,0.83088 -0.381075,1.27103 l -0.03572,0.0778 c -0.04744,0.10166 -0.09913,0.20393 -0.150837,0.30564 -0.09699,0.18928 -0.19187,0.37951 -0.270749,0.5722 -0.03572,0.0895 -0.06716,0.17948 -0.09754,0.26848 -0.02024,0.0591 -0.04637,0.13548 -0.06609,0.18151 -0.04424,0.0187 -0.09168,0.0318 -0.136978,0.0469 -0.900191,0.30858 -1.836624,0.71352 -2.580654,1.58697 z m 3.739337,19.42104 h -5.541852 -5.540785 v -0.268 c 0,-0.53698 0.50579,-0.9737 1.127236,-0.9737 h 4.413549 4.413548 c 0.62198,0 1.127772,0.43672 1.127772,0.9737 v 0.268 z m -2.095648,-3.1974 h -3.446204 -3.446203 c 0.32458,-0.6514 0.728573,-1.2231 1.271674,-1.81584 0.735502,-0.80838 1.515241,-1.81973 1.720968,-3.18906 0.11619,-0.77613 0.08475,-1.39134 0.03997,-1.97576 h 0.414119 0.418918 c -0.04583,0.58344 -0.07834,1.19767 0.03465,1.97576 0.206261,1.37569 0.989197,2.38556 1.726299,3.19004 0.539901,0.59224 0.942297,1.16394 1.265811,1.81486 z M 42.50867,261.54933 c -0.47755,0.55703 -1.076064,1.03481 -1.709246,1.54099 l -0.710978,0.5717 c -2.007174,1.61678 -3.221285,2.59489 -4.977446,4.77114 -1.773727,0.92479 -3.035803,1.73123 -4.632056,2.75088 l -0.477011,0.30419 c -0.94656,0.4783 -1.807311,1.08178 -2.573726,1.79286 -0.01551,-0.0111 -0.02879,-0.0225 -0.04424,-0.0323 -0.03358,-0.76975 0.0842,-1.40405 0.352296,-1.83099 0.0052,-0.007 0.0075,-0.0185 0.01269,-0.0259 0.0038,-0.006 0.0097,-0.0111 0.01329,-0.0185 0.192938,-0.34673 0.510589,-0.69249 0.847428,-1.0583 0.162017,-0.17597 0.322981,-0.35211 0.475945,-0.53111 0.395998,-0.46411 0.923109,-0.71059 1.646354,-0.95755 0.188143,-0.0641 0.445564,-0.15249 0.695529,-0.32424 0.52871,-0.36239 0.690733,-0.83921 0.79786,-1.15514 0.01914,-0.0562 0.03785,-0.11256 0.06023,-0.1682 0.0581,-0.14325 0.13164,-0.28461 0.203598,-0.42595 0.06345,-0.12366 0.125698,-0.24794 0.182705,-0.37069 l 0.03465,-0.0749 c 0.300063,-0.64652 0.673148,-1.45101 0.527105,-2.33179 -0.06829,-0.4103 -0.253168,-0.74824 -0.44236,-1.05195 l -0.06708,-0.1085 c -0.397067,-0.64114 -0.891134,-1.43828 -2.13296,-1.64663 -2.582254,-0.43232 -5.936252,-0.65434 -8.977397,1.48084 -1.316443,0.92479 -0.848491,2.6169 -0.539368,3.73632 0.05916,0.21519 0.11619,0.4157 0.151361,0.58882 0.04265,0.33744 0.215854,0.57072 0.312855,0.69983 l 0.01914,0.0225 c 0.887934,1.66373 1.037699,2.0403 1.005187,2.72887 -0.04903,0.14177 -0.06396,0.29001 -0.04103,0.43478 -0.08954,0.49246 -0.194006,0.8705 -0.329376,1.24705 -1.209849,-1.10523 -2.138289,-2.15327 -2.538552,-3.43946 -0.12471,-0.4015 -0.3443,-1.1429 -0.58467,-1.95422 -0.439702,-1.48524 -0.894861,-3.02036 -1.065413,-3.49035 -0.201463,-0.55262 -0.207858,-1.0578 -0.01813,-1.35075 0.144431,-0.22202 0.445566,-0.41324 0.823444,-0.63966 1.594654,-0.95511 3.236211,-1.8887 4.878834,-2.77389 0.507921,-0.27385 0.677408,-0.87294 0.379476,-1.33901 -0.298466,-0.46557 -0.952424,-0.62109 -1.458748,-0.3477 -0.694995,0.37461 -1.387861,0.76194 -2.078594,1.15121 -1.997047,0.32863 -3.87631,0.45872 -6.227254,0.42939 -0.364021,9.8e-4 -1.05049,0.0591 -1.550952,0.11349 -0.85702,0.0933 -1.509379,0.55458 -2.032759,0.92479 l -0.207858,0.14565 c -2.0162367,1.39038 -4.669908,1.82024 -7.0501647,1.20845 5.7481124,-3.7686 13.2385127,-5.26068 19.9012057,-6.58501 0.812251,-0.16192 1.613842,-0.32083 2.385587,-0.47879 5.400081,-1.03628 10.137137,-1.49355 14.455819,-1.40308 0.0081,0.0166 0.01007,0.0348 0.02014,0.0518 l 3.425946,6.9523 c -0.09004,0.66218 -0.639023,1.68037 -1.140545,2.26577 z"/></g></svg>
